<!DOCTYPE svg PUBLIC "-//W3C//DTD SVG 1.1//EN" "http://www.w3.org/Graphics/SVG/1.1/DTD/svg11.dtd">
<svg xmlns="http://www.w3.org/2000/svg" xmlns:xlink="http://www.w3.org/1999/xlink" version="1.1" id="图层_1" x="0px" y="0px" width="1028px" height="680px" viewBox="0 0 1028 680" enable-background="new 0 0 1028 680" xml:space="preserve" xmlns:xml="http://www.w3.org/XML/1998/namespace">
  <g>
    <g>
      <path fill="#3F210F" d="M665.272,315.872l1.995,0.033l2.667-0.064c-0.06,0.174-0.133,0.386-0.223,0.632l-2.654,0.017l-1.905-0.048    c-0.908-0.012-1.544-0.323-1.907-0.938c-0.219,0.203-0.539,0.56-0.96,1.073l-0.328-0.665c0.472-0.457,0.814-0.783,1.023-0.982    v-2.694h-0.953v-0.593h1.571v3.424C663.926,315.598,664.483,315.866,665.272,315.872z M662.957,308.951    c0.272,0.331,0.647,0.836,1.12,1.515l-0.565,0.398c-0.435-0.677-0.789-1.201-1.068-1.568L662.957,308.951z M665.185,315.432    h-0.568v-4.511h1.932c-0.4-0.205-0.815-0.411-1.244-0.616l0.328-0.385c0.42,0.203,0.814,0.396,1.182,0.579l1.43-0.749h-3.756    v-0.511h4.814v0.537l-1.935,1.005c0.095,0.048,0.185,0.094,0.272,0.14h1.719v3.622c0,0.608-0.28,0.912-0.842,0.912    c-0.277,0-0.579-0.007-0.904-0.023c-0.028-0.203-0.066-0.408-0.12-0.616c0.335,0.037,0.625,0.055,0.863,0.055    c0.29,0,0.435-0.14,0.435-0.417v-0.392h-1.531v1.25h-0.567v-1.25h-1.507V315.432z M665.185,312.235h1.507v-0.801h-1.507V312.235z     M665.185,313.549h1.507v-0.801h-1.507V313.549z M668.79,311.435h-1.531v0.801h1.531V311.435z M667.259,313.549h1.531v-0.801    h-1.531V313.549z" />
      <path fill="#3F210F" d="M670.183,313.565c0.849-0.68,1.578-1.565,2.188-2.66l0.593,0.288c-0.283,0.479-0.575,0.918-0.874,1.317    v4.155h-0.656v-3.346c-0.31,0.347-0.628,0.655-0.952,0.925C670.395,314.021,670.296,313.794,670.183,313.565z M670.223,311.058    c0.753-0.57,1.396-1.316,1.932-2.235l0.577,0.353c-0.636,1.01-1.365,1.842-2.188,2.5    C670.447,311.471,670.341,311.267,670.223,311.058z M672.627,315.656h2.477v-2.323h-1.916v-0.576h1.916v-1.893h-2.173v-0.575    h4.999v0.575h-2.17v1.893h1.914v0.576h-1.914v2.323h2.38v0.576h-5.513V315.656z M674.582,309.086l0.527-0.327    c0.29,0.341,0.544,0.684,0.77,1.024l-0.561,0.369C675.088,309.768,674.843,309.412,674.582,309.086z" />
      <path fill="#3F210F" d="M661.973,325.9c2.201-0.979,3.391-2.451,3.563-4.414h-3.42v-0.624h3.449    c0.014-0.719,0.02-1.442,0.02-2.172h0.696c0,0.719-0.006,1.441-0.02,2.172h3.553v0.624h-3.564    c0.379,2.134,1.623,3.541,3.734,4.223c-0.272,0.262-0.476,0.478-0.61,0.648c-1.738-0.699-2.874-1.946-3.408-3.737    c-0.418,1.62-1.582,2.92-3.498,3.898C662.361,326.373,662.195,326.168,661.973,325.9z" />
      <path fill="#3F210F" d="M670.52,320.556l0.537,0.081c-0.087,0.657-0.203,1.342-0.353,2.051c-0.15-0.036-0.328-0.079-0.536-0.128    C670.296,322.004,670.413,321.338,670.52,320.556z M671.232,318.715h0.594v1.77l0.36-0.225c0.287,0.386,0.533,0.766,0.737,1.14    l-0.497,0.319c-0.182-0.39-0.382-0.741-0.601-1.058v5.889h-0.594V318.715z M673.012,320.246h2.427    c0.369-0.556,0.685-1.071,0.944-1.548l0.603,0.298c-0.338,0.507-0.623,0.923-0.857,1.25h1.37v3.236h-0.585v-0.329h-0.705v2.283    c0,0.241,0.104,0.359,0.312,0.359h0.531c0.26,0,0.41-0.122,0.447-0.368c0.048-0.304,0.085-0.647,0.11-1.035    c0.193,0.094,0.395,0.175,0.603,0.242c-0.048,0.37-0.102,0.712-0.16,1.027c-0.086,0.469-0.382,0.704-0.888,0.704h-0.706    c-0.557,0-0.832-0.305-0.832-0.913v-2.3h-0.844c-0.025,0.838-0.165,1.475-0.416,1.906c-0.294,0.502-0.857,0.984-1.689,1.45    c-0.125-0.169-0.268-0.342-0.434-0.513c0.798-0.391,1.322-0.796,1.579-1.217c0.224-0.354,0.35-0.896,0.375-1.627h-0.601v0.329    h-0.584V320.246z M673.437,319.027l0.479-0.337c0.354,0.449,0.634,0.833,0.844,1.153l-0.537,0.352    C674.023,319.854,673.762,319.465,673.437,319.027z M676.913,320.813h-3.317v1.771h3.317V320.813z" />
      <path fill="#3F210F" d="M678.364,322.433c1.19-0.973,2.079-2.118,2.666-3.437l0.634,0.264c-0.721,1.5-1.651,2.729-2.788,3.686    C678.737,322.768,678.566,322.598,678.364,322.433z M683.579,323.426c0.77,0.999,1.418,1.907,1.945,2.724l-0.608,0.4    c-0.149-0.247-0.308-0.501-0.476-0.765c-1.764,0.084-3.196,0.172-4.299,0.259c-0.203,0.022-0.448,0.068-0.737,0.138l-0.353-0.682    c0.24-0.097,0.463-0.243,0.665-0.44c0.624-0.721,1.303-1.787,2.034-3.197l0.688,0.313c-0.661,1.139-1.368,2.199-2.121,3.188    c1.102-0.034,2.351-0.085,3.746-0.148c-0.307-0.461-0.641-0.948-1.007-1.462L683.579,323.426z M682.89,319.116l0.593-0.233    c0.518,1.394,1.481,2.499,2.893,3.317c-0.144,0.148-0.311,0.357-0.496,0.625C684.403,321.811,683.407,320.572,682.89,319.116z" />
      <path fill="#3F210F" d="M686.895,319.54h3.518c-0.144-0.203-0.315-0.42-0.513-0.648l0.513-0.321    c0.219,0.251,0.43,0.513,0.633,0.784l-0.313,0.186h3.51v1.345h-0.593v-0.848h-6.161v0.848h-0.594V319.54z M687.96,320.549h5.232    v2.772h-0.576v-0.217h-1.755v0.577h3.164v1.868c0,0.634-0.283,0.953-0.849,0.953h-1.035c-0.031-0.188-0.072-0.394-0.119-0.618    c0.364,0.037,0.705,0.057,1.025,0.057c0.267,0,0.4-0.14,0.4-0.417v-1.362h-2.587v0.776c0.396-0.026,0.796-0.05,1.201-0.071    c-0.074-0.117-0.151-0.234-0.232-0.352l0.44-0.217c0.271,0.362,0.532,0.741,0.777,1.138l-0.474,0.272    c-0.068-0.124-0.139-0.238-0.207-0.345c-1.566,0.101-2.915,0.188-4.055,0.264l-0.055-0.568c0.662-0.026,1.336-0.055,2.026-0.088    v-0.81h-2.437v2.379h-0.575v-2.859h3.012v-0.577h-1.747v0.217h-0.577V320.549z M688.537,321.599h1.747v-0.601h-1.747V321.599z     M688.537,322.655h1.747v-0.607h-1.747V322.655z M692.616,320.998h-1.755v0.601h1.755V320.998z M690.861,322.655h1.755v-0.607    h-1.755V322.655z" />
      <path fill="#3F210F" d="M667.075,335.309h-1.099l-2.331-2.82c-0.08-0.099-0.134-0.176-0.164-0.232h-0.02v3.053h-0.801v-6.204    h0.801v2.919h0.02c0.046-0.071,0.102-0.147,0.164-0.228l2.251-2.691h0.989l-2.603,2.977L667.075,335.309z" />
      <path fill="#3F210F" d="M671.381,335.309h-3.558v-0.676h1.392v-4.712l-1.427,0.413v-0.723l2.208-0.64v5.661h1.385V335.309z" />
      <path fill="#3F210F" d="M676.289,329.377l-2.428,5.932h-0.813l2.309-5.512h-3.104v-0.692h4.036V329.377z" />
      <path fill="#3F210F" d="M679.672,333.153h-2.357v-0.604h2.357V333.153z" />
      <path fill="#3F210F" d="M680.757,329.545h2.958v-1.025h0.665v1.025h2.964v4.501h-2.964v0.938c0,0.328,0.172,0.488,0.513,0.488    h1.874c0.362,0,0.584-0.119,0.666-0.36c0.085-0.26,0.146-0.638,0.185-1.128c0.153,0.068,0.376,0.15,0.662,0.246    c-0.062,0.429-0.134,0.795-0.215,1.099c-0.133,0.502-0.497,0.754-1.089,0.754h-2.131c-0.754,0-1.13-0.369-1.13-1.105v-0.931    h-2.291v0.554h-0.667V329.545z M681.424,331.507h2.291v-1.362h-2.291V331.507z M681.424,333.444h2.291v-1.369h-2.291V333.444z     M686.68,330.145h-2.3v1.362h2.3V330.145z M686.68,333.444v-1.369h-2.3v1.369H686.68z" />
      <path fill="#3F210F" d="M688.537,333.541c0.563-0.869,0.956-1.813,1.185-2.826h-1.056v-0.562h1.072v-1.634h0.578v1.634h0.928    v0.562h-0.928v0.769l0.24-0.233c0.282,0.272,0.571,0.565,0.865,0.875l-0.416,0.392c-0.269-0.325-0.498-0.585-0.689-0.776v4.672    h-0.578v-4.225c-0.267,0.87-0.58,1.559-0.944,2.06C688.724,334.017,688.638,333.782,688.537,333.541z M694.833,328.479    l0.577,0.287c-0.245,0.357-0.477,0.683-0.695,0.97h1.241v2.283h-0.578v-0.224h-1.377v1.01h2.396    c-0.087,0.87-0.159,1.495-0.218,1.874c-0.073,0.481-0.411,0.723-1.009,0.723c-0.272,0-0.577-0.024-0.913-0.074    c-0.033-0.257-0.07-0.477-0.112-0.664c0.38,0.075,0.679,0.116,0.897,0.127c0.31,0.017,0.491-0.061,0.544-0.232    c0.069-0.31,0.129-0.717,0.177-1.224h-1.763v3.077h-0.577v-2.636c-0.625,0.82-1.412,1.51-2.363,2.065    c-0.132-0.176-0.277-0.343-0.432-0.498c1.053-0.522,1.9-1.191,2.548-2.009h-1.763l0.265-2.067h1.745v-1.002h-1.866v-0.529h1.113    c-0.176-0.326-0.381-0.646-0.616-0.961l0.487-0.296c0.251,0.325,0.474,0.645,0.666,0.96l-0.464,0.297h1.281    C694.296,329.341,694.567,328.922,694.833,328.479z M692.055,332.806h1.369v-1.01h-1.249L692.055,332.806z M695.378,330.266    h-1.377v1.002h1.377V330.266z" />
      <path fill="#3F210F" d="M698.312,331.706c0,1.149-0.075,2.055-0.223,2.717c-0.168,0.688-0.456,1.327-0.866,1.915    c-0.155-0.209-0.314-0.392-0.474-0.554c0.353-0.512,0.594-1.056,0.722-1.632c0.122-0.514,0.184-1.28,0.184-2.301v-2.837h6.985    v0.61h-6.328V331.706z M698.624,330.955h6.016v0.608h-2.66v3.629c0,0.673-0.336,1.018-1.007,1.033    c-0.322,0.006-0.691,0.006-1.107,0c-0.042-0.277-0.086-0.508-0.128-0.688c0.4,0.038,0.746,0.056,1.033,0.056    c0.367,0,0.553-0.189,0.553-0.568v-3.461h-2.699V330.955z" />
      <path fill="#411811" d="M668.433,353.818c0-0.497,0.4-0.896,0.896-0.896c0.491,0,0.896,0.399,0.896,0.896      c0,0.493-0.404,0.894-0.896,0.894C668.833,354.712,668.433,354.312,668.433,353.818z M670.839,356.391      c0-0.834-0.677-1.51-1.511-1.51c-0.836,0-1.511,0.676-1.511,1.51c0,0.639,0.395,1.18,0.95,1.402v1.063      c0,0.306,0.251,0.557,0.561,0.557c0.308,0,0.557-0.251,0.557-0.557v-1.063C670.445,357.57,670.839,357.029,670.839,356.391z       M672.015,353.818c0-0.497,0.399-0.896,0.895-0.896c0.493,0,0.895,0.399,0.895,0.896c0,0.493-0.401,0.894-0.895,0.894      C672.414,354.712,672.015,354.312,672.015,353.818z M674.345,356.717l-0.861-1.438c-0.315-0.526-0.835-0.526-1.15,0      l-0.865,1.438c-0.314,0.532-0.069,0.962,0.547,0.962h0.332v1.177c0,0.306,0.253,0.557,0.563,0.557      c0.307,0,0.559-0.251,0.559-0.557v-1.177h0.336C674.42,357.679,674.66,357.249,674.345,356.717z M678.333,362.657v-12.98      c0-0.37-0.3-0.67-0.67-0.67c-0.372,0-0.673,0.3-0.673,0.67v12.98c0,0.37,0.301,0.672,0.673,0.672      C678.033,363.329,678.333,363.027,678.333,362.657z M665.245,362.657v-12.98c0-0.37-0.303-0.67-0.672-0.67      c-0.371,0-0.671,0.3-0.671,0.67v12.98c0,0.37,0.3,0.672,0.671,0.672C664.942,363.329,665.245,363.027,665.245,362.657z       M674.14,351.075h-1.396c-0.006,0.017-0.017,0.035-0.024,0.052c-0.204,0.358-0.609,0.566-1.107,0.566h-0.987      c-0.498,0-0.903-0.208-1.106-0.566c-0.007-0.017-0.02-0.035-0.025-0.052h-1.396c-1.141,0-2.069,0.93-2.069,2.07v6.044      c0,1.14,0.929,2.07,2.069,2.07h1.396c0.006-0.018,0.019-0.035,0.025-0.051c0.203-0.359,0.608-0.564,1.106-0.564h0.987      c0.498,0,0.903,0.205,1.107,0.564c0.008,0.016,0.019,0.033,0.024,0.051h1.396c1.141,0,2.069-0.931,2.069-2.07v-6.044      C676.209,352.005,675.28,351.075,674.14,351.075z M674.978,359.189c0,0.461-0.375,0.837-0.838,0.837h-6.044      c-0.462,0-0.837-0.376-0.837-0.837v-6.044c0-0.462,0.375-0.838,0.837-0.838h6.044c0.463,0,0.838,0.376,0.838,0.838V359.189z       M670.624,361.201c-0.613,0-0.859,0.433-0.542,0.961l0.46,0.765c0.316,0.53,0.836,0.53,1.15,0l0.462-0.765      c0.315-0.528,0.071-0.961-0.543-0.961H670.624z M671.611,351.133c0.614,0,0.858-0.432,0.543-0.959l-0.462-0.767      c-0.314-0.53-0.834-0.53-1.15,0l-0.46,0.767c-0.317,0.527-0.071,0.959,0.542,0.959H671.611z" />
      <g>
        <g>
          <g>
            <path fill="none" stroke="#411811" stroke-miterlimit="10" d="M681.958,356.165c0,6.169-5.004,11.172-11.173,11.172         c-6.168,0-11.171-5.003-11.171-11.172c0-6.165,5.003-11.168,11.171-11.168C676.954,344.997,681.958,350,681.958,356.165z" />
          </g>
        </g>
      </g>
    </g>
  </g>

</svg>
