<!DOCTYPE svg PUBLIC "-//W3C//DTD SVG 1.1//EN" "http://www.w3.org/Graphics/SVG/1.1/DTD/svg11.dtd">
<svg xmlns="http://www.w3.org/2000/svg" xmlns:xlink="http://www.w3.org/1999/xlink" version="1.1" id="图层_1" x="0px" y="0px" width="1028px" height="680px" viewBox="0 0 1028 680" enable-background="new 0 0 1028 680" xml:space="preserve" xmlns:xml="http://www.w3.org/XML/1998/namespace">
  <g>
    <g>
      <path fill="#411811" d="M537.675,243.838c0-0.534,0.431-0.962,0.963-0.962c0.528,0,0.963,0.428,0.963,0.962      c0,0.53-0.435,0.962-0.963,0.962C538.105,244.8,537.675,244.368,537.675,243.838z M540.26,246.599      c0-0.895-0.728-1.619-1.622-1.619c-0.897,0-1.622,0.725-1.622,1.619c0,0.688,0.423,1.27,1.02,1.51v1.14      c0,0.329,0.27,0.597,0.603,0.597c0.33,0,0.598-0.268,0.598-0.597v-1.14C539.836,247.868,540.26,247.286,540.26,246.599z       M541.522,243.838c0-0.534,0.429-0.962,0.961-0.962c0.529,0,0.96,0.428,0.96,0.962c0,0.53-0.431,0.962-0.96,0.962      C541.951,244.8,541.522,244.368,541.522,243.838z M544.024,246.951l-0.925-1.545c-0.339-0.565-0.895-0.565-1.234,0l-0.93,1.545      c-0.337,0.57-0.076,1.033,0.587,1.033h0.355v1.264c0,0.329,0.272,0.597,0.605,0.597c0.329,0,0.6-0.268,0.6-0.597v-1.264h0.36      C544.105,247.984,544.364,247.521,544.024,246.951z M548.308,253.33v-13.938c0-0.398-0.322-0.721-0.72-0.721      s-0.723,0.322-0.723,0.721v13.938c0,0.397,0.325,0.72,0.723,0.72S548.308,253.728,548.308,253.33z M534.252,253.33v-13.938      c0-0.398-0.324-0.721-0.723-0.721c-0.397,0-0.72,0.322-0.72,0.721v13.938c0,0.397,0.322,0.72,0.72,0.72      C533.928,254.05,534.252,253.728,534.252,253.33z M543.803,240.892h-1.496c-0.009,0.018-0.02,0.038-0.028,0.057      c-0.218,0.383-0.654,0.607-1.19,0.607h-1.06c-0.533,0-0.97-0.225-1.188-0.607c-0.006-0.019-0.021-0.039-0.026-0.057h-1.498      c-1.227,0-2.225,0.999-2.225,2.225v6.49c0,1.224,0.998,2.225,2.225,2.225h1.498c0.006-0.02,0.021-0.039,0.026-0.055      c0.219-0.387,0.655-0.607,1.188-0.607h1.06c0.536,0,0.973,0.221,1.19,0.607c0.009,0.016,0.02,0.035,0.028,0.055h1.496      c1.227,0,2.224-1.001,2.224-2.225v-6.49C546.026,241.891,545.029,240.892,543.803,240.892z M544.704,249.606      c0,0.496-0.403,0.898-0.901,0.898h-6.487c-0.498,0-0.9-0.402-0.9-0.898v-6.49c0-0.496,0.402-0.901,0.9-0.901h6.487      c0.498,0,0.901,0.405,0.901,0.901V249.606z M540.028,251.767c-0.657,0-0.92,0.465-0.58,1.033l0.492,0.822      c0.34,0.566,0.897,0.566,1.235,0l0.498-0.822c0.338-0.568,0.075-1.033-0.586-1.033H540.028z M541.088,240.954      c0.661,0,0.924-0.463,0.586-1.03l-0.498-0.822c-0.338-0.57-0.896-0.57-1.235,0l-0.492,0.822c-0.34,0.567-0.077,1.03,0.58,1.03      H541.088z" />
      <g>
        <g>
          <g>
            <circle fill="none" stroke="#411811" stroke-miterlimit="10" cx="540.203" cy="246.359" r="11.999" />
          </g>
        </g>
      </g>
    </g>
  </g>

</svg>
