<!DOCTYPE svg PUBLIC "-//W3C//DTD SVG 1.1//EN" "http://www.w3.org/Graphics/SVG/1.1/DTD/svg11.dtd">
<svg xmlns="http://www.w3.org/2000/svg" xmlns:xlink="http://www.w3.org/1999/xlink" version="1.1" id="图层_1" x="0px" y="0px" width="1028px" height="680px" viewBox="0 0 1028 680" enable-background="new 0 0 1028 680" xml:space="preserve" xmlns:xml="http://www.w3.org/XML/1998/namespace">
  <g>
    <g>
      <path fill="#3F210F" d="M305.998,274.654l1.995,0.032l2.668-0.064c-0.06,0.176-0.135,0.387-0.226,0.633l-2.651,0.016l-1.906-0.048    c-0.908-0.011-1.545-0.323-1.907-0.938c-0.219,0.204-0.54,0.562-0.961,1.074l-0.329-0.665c0.474-0.457,0.814-0.784,1.026-0.98    v-2.697h-0.955v-0.592h1.571v3.424C304.651,274.381,305.209,274.648,305.998,274.654z M303.683,267.731    c0.272,0.332,0.646,0.836,1.121,1.515l-0.568,0.4c-0.432-0.677-0.787-1.202-1.065-1.57L303.683,267.731z M305.909,274.213h-0.568    v-4.51h1.931c-0.4-0.206-0.815-0.411-1.242-0.616l0.329-0.385c0.418,0.203,0.813,0.396,1.182,0.58l1.43-0.748h-3.757v-0.514h4.814    v0.536l-1.936,1.007c0.094,0.047,0.185,0.094,0.273,0.14h1.719v3.62c0,0.609-0.28,0.914-0.842,0.914    c-0.278,0-0.58-0.008-0.905-0.024c-0.026-0.202-0.066-0.407-0.121-0.616c0.338,0.037,0.626,0.057,0.866,0.057    c0.289,0,0.432-0.14,0.432-0.417v-0.394h-1.528v1.25h-0.57v-1.25h-1.506V274.213z M305.909,271.017h1.506v-0.802h-1.506V271.017z     M305.909,272.331h1.506v-0.803h-1.506V272.331z M309.514,270.215h-1.528v0.802h1.528V270.215z M307.985,272.331h1.528v-0.803    h-1.528V272.331z" />
      <path fill="#3F210F" d="M310.909,272.347c0.849-0.68,1.578-1.564,2.187-2.659l0.593,0.288c-0.283,0.478-0.573,0.917-0.873,1.317    v4.153h-0.657v-3.344c-0.31,0.347-0.626,0.655-0.953,0.925C311.119,272.804,311.021,272.576,310.909,272.347z M310.949,269.839    c0.753-0.571,1.396-1.316,1.93-2.234l0.577,0.352c-0.636,1.011-1.364,1.844-2.187,2.5    C311.174,270.253,311.066,270.048,310.949,269.839z M313.353,274.438h2.476v-2.323h-1.915v-0.576h1.915v-1.892h-2.172v-0.575    h4.999v0.575h-2.17v1.892h1.915v0.576h-1.915v2.323h2.379v0.577h-5.512V274.438z M315.307,267.868l0.529-0.329    c0.289,0.343,0.544,0.685,0.77,1.026l-0.562,0.369C315.813,268.55,315.568,268.194,315.307,267.868z" />
      <path fill="#3F210F" d="M278.086,284.682c2.203-0.979,3.392-2.45,3.564-4.413h-3.42v-0.626h3.447    c0.014-0.718,0.021-1.442,0.021-2.17h0.698c0,0.719-0.007,1.442-0.021,2.17h3.553v0.626h-3.564    c0.378,2.134,1.623,3.541,3.732,4.222c-0.271,0.262-0.476,0.478-0.608,0.649c-1.738-0.699-2.875-1.945-3.408-3.738    c-0.418,1.622-1.583,2.92-3.497,3.897C278.477,285.155,278.311,284.949,278.086,284.682z" />
      <path fill="#3F210F" d="M286.634,279.339l0.537,0.08c-0.086,0.657-0.203,1.34-0.354,2.051c-0.148-0.037-0.327-0.079-0.535-0.127    C286.41,280.786,286.526,280.119,286.634,279.339z M287.347,277.495h0.594v1.771l0.359-0.224c0.289,0.384,0.534,0.763,0.737,1.138    l-0.495,0.319c-0.183-0.389-0.383-0.742-0.602-1.057v5.889h-0.594V277.495z M289.126,279.026h2.428    c0.369-0.556,0.684-1.07,0.945-1.547l0.601,0.297c-0.336,0.508-0.622,0.924-0.857,1.25h1.369v3.236h-0.584v-0.328h-0.704v2.283    c0,0.24,0.104,0.361,0.312,0.361h0.529c0.262,0,0.411-0.123,0.447-0.369c0.048-0.305,0.086-0.648,0.112-1.034    c0.192,0.091,0.394,0.172,0.602,0.241c-0.048,0.367-0.102,0.71-0.16,1.025c-0.086,0.47-0.382,0.704-0.891,0.704h-0.705    c-0.555,0-0.832-0.304-0.832-0.913v-2.299h-0.841c-0.027,0.839-0.167,1.475-0.417,1.907c-0.294,0.502-0.856,0.985-1.689,1.45    c-0.124-0.172-0.268-0.343-0.434-0.513c0.796-0.392,1.321-0.796,1.577-1.218c0.226-0.354,0.351-0.895,0.378-1.627h-0.601v0.328    h-0.585V279.026z M289.551,277.81l0.479-0.337c0.354,0.448,0.634,0.832,0.842,1.153l-0.536,0.353    C290.139,278.636,289.877,278.247,289.551,277.81z M293.027,279.595h-3.316v1.771h3.316V279.595z" />
      <path fill="#3F210F" d="M294.444,283.032c0.3-0.071,0.628-0.155,0.986-0.248v-2.741h-0.913v-0.577h0.913v-1.945h0.601v1.945h0.865    v0.577h-0.865v2.573c0.268-0.077,0.551-0.161,0.849-0.249c0,0.245,0.006,0.453,0.017,0.625c-0.865,0.252-1.646,0.493-2.34,0.729    L294.444,283.032z M298.651,284.746c0.608-0.43,1.149-0.954,1.622-1.573c-0.188-0.805-0.315-2.045-0.388-3.721h-2.076v1.248h1.619    c-0.012,0.94-0.029,1.755-0.056,2.443c-0.027,0.656-0.35,0.985-0.97,0.985c-0.209,0-0.406-0.002-0.594-0.007    c-0.032-0.177-0.077-0.385-0.136-0.625c0.234,0.026,0.445,0.039,0.633,0.039c0.31,0,0.474-0.18,0.489-0.544    c0.026-0.518,0.04-1.101,0.04-1.747h-1.034c-0.019,0.958-0.096,1.705-0.231,2.235c-0.166,0.631-0.479,1.245-0.938,1.843    c-0.151-0.155-0.313-0.306-0.488-0.457c0.438-0.561,0.726-1.109,0.864-1.65c0.133-0.518,0.2-1.364,0.2-2.539v-1.803h2.652    c-0.014-0.459-0.024-0.943-0.032-1.449h0.634c-0.007,0.512-0.004,0.995,0.007,1.449h1.979v0.578h-1.959    c0.048,1.254,0.136,2.261,0.261,3.019c0.377-0.604,0.699-1.281,0.97-2.034l0.594,0.28c-0.415,0.988-0.877,1.848-1.387,2.575    c0.099,0.36,0.218,0.643,0.36,0.846c0.144,0.213,0.271,0.32,0.377,0.32c0.1,0,0.165-0.074,0.19-0.225    c0.044-0.234,0.084-0.608,0.121-1.121c0.214,0.091,0.409,0.163,0.586,0.216c-0.054,0.524-0.102,0.9-0.145,1.13    c-0.103,0.486-0.313,0.729-0.634,0.729c-0.341,0-0.646-0.179-0.913-0.536c-0.15-0.198-0.279-0.452-0.389-0.766    c-0.433,0.527-0.896,0.972-1.39,1.336C298.969,285.07,298.822,284.912,298.651,284.746z M300.766,277.841l0.369-0.384    c0.337,0.251,0.667,0.521,0.993,0.81l-0.408,0.439C301.426,278.407,301.108,278.118,300.766,277.841z" />
      <path fill="#3F210F" d="M302.77,278.289h3.657c-0.102-0.19-0.226-0.4-0.373-0.632l0.618-0.281c0.159,0.274,0.327,0.58,0.504,0.913    h3.452v0.569h-7.858V278.289z M303.354,280.005h1.946c-0.184-0.271-0.385-0.539-0.601-0.801l0.488-0.33    c0.257,0.299,0.488,0.578,0.697,0.833l-0.433,0.298h1.818c0.27-0.348,0.518-0.714,0.745-1.099l0.608,0.353    c-0.253,0.302-0.467,0.55-0.64,0.746h1.994v4.197c0,0.672-0.307,1.012-0.921,1.019c-0.332,0.005-0.706,0.001-1.122-0.009    c-0.043-0.311-0.083-0.534-0.119-0.674c0.421,0.042,0.768,0.064,1.04,0.064c0.347,0,0.521-0.192,0.521-0.577v-3.47h-5.424v4.759    h-0.601V280.005z M305.701,280.645l0.432,0.417c-0.624,0.535-1.208,1.004-1.754,1.409c-0.159-0.218-0.285-0.376-0.376-0.472    C304.59,281.608,305.156,281.157,305.701,280.645z M305.085,284.522v-2.58h3.212v2.155h-2.636v0.425H305.085z M307.721,283.585    v-1.13h-2.06v1.13H307.721z M307.112,281.085l0.352-0.44c0.79,0.497,1.389,0.895,1.795,1.193l-0.401,0.505    C308.33,281.916,307.747,281.497,307.112,281.085z" />
      <path fill="#3F210F" d="M310.909,283.346c0.387-0.159,0.776-0.322,1.168-0.494v-2.768h-1.072v-0.577h1.072v-2.003h0.594v2.003    h0.978v0.577h-0.978v2.504c0.299-0.137,0.602-0.276,0.905-0.421c0.011,0.226,0.035,0.425,0.072,0.601    c-0.78,0.353-1.609,0.751-2.491,1.193L310.909,283.346z M316.941,278.49h-3.125v-0.577h4.263v0.586l-3.156,1.993h3.637    c-0.063,1.479-0.126,2.623-0.185,3.429c-0.07,0.818-0.446,1.226-1.129,1.226c-0.236,0-0.597-0.007-1.083-0.022    c-0.036-0.268-0.082-0.501-0.135-0.698c0.368,0.06,0.742,0.088,1.121,0.088c0.38,0,0.588-0.226,0.625-0.68    c0.054-0.668,0.106-1.589,0.16-2.765h-0.856c-0.238,1.797-1.069,3.221-2.492,4.27c-0.149-0.187-0.3-0.35-0.448-0.487    c1.324-0.917,2.104-2.178,2.343-3.782h-1.024c-0.309,1.339-1.068,2.44-2.28,3.31c-0.128-0.155-0.268-0.311-0.417-0.466    c1.106-0.755,1.806-1.703,2.1-2.844h-0.953v-0.608L316.941,278.49z" />
      <path fill="#3F210F" d="M280.602,293.666c-0.619,0.352-1.319,0.528-2.099,0.528c-0.897,0-1.621-0.283-2.169-0.852    c-0.549-0.567-0.824-1.324-0.824-2.272c0-0.958,0.303-1.747,0.91-2.364c0.606-0.616,1.384-0.925,2.331-0.925    c0.67,0,1.237,0.107,1.702,0.321v0.865c-0.496-0.313-1.088-0.47-1.774-0.47c-0.676,0-1.231,0.231-1.67,0.693    c-0.438,0.461-0.656,1.07-0.656,1.827c0,0.777,0.2,1.382,0.604,1.814s0.948,0.648,1.635,0.648c0.472,0,0.874-0.091,1.205-0.272    v-1.678h-1.345v-0.709h2.15V293.666z" />
      <path fill="#3F210F" d="M285.524,294.091h-3.558v-0.678h1.391v-4.711l-1.427,0.413v-0.721l2.208-0.642v5.66h1.386V294.091z" />
      <path fill="#3F210F" d="M286.386,291.11c0-1.095,0.182-1.924,0.545-2.486c0.362-0.563,0.89-0.843,1.578-0.843    c1.313,0,1.971,1.06,1.971,3.18c0,1.048-0.186,1.849-0.556,2.401c-0.368,0.556-0.888,0.832-1.556,0.832    c-0.63,0-1.118-0.262-1.465-0.79C286.558,292.88,286.386,292.114,286.386,291.11z M287.187,291.074    c0,1.647,0.418,2.472,1.255,2.472c0.821,0,1.233-0.838,1.233-2.512c0-1.732-0.404-2.6-1.211-2.6    C287.612,288.435,287.187,289.313,287.187,291.074z" />
      <path fill="#3F210F" d="M293.815,291.935h-2.358v-0.604h2.358V291.935z" />
      <path fill="#3F210F" d="M295.391,289.384c0.289,0.553,0.579,1.114,0.873,1.683c0.217-0.74,0.36-1.555,0.434-2.443h-1.996v-0.609    h2.62v0.585c-0.096,1.21-0.313,2.294-0.653,3.253c0.32,0.622,0.645,1.256,0.974,1.897l-0.593,0.329    c-0.205-0.448-0.436-0.935-0.689-1.458c-0.385,0.842-0.876,1.571-1.474,2.187c-0.107-0.166-0.239-0.36-0.4-0.584    c0.636-0.652,1.136-1.438,1.503-2.362c-0.338-0.683-0.71-1.419-1.118-2.213L295.391,289.384z M299.548,288.783h0.609v1.45    c0,0.644-0.048,1.212-0.144,1.706h0.48v1.907c0,0.336,0.139,0.504,0.417,0.504h0.384c0.273,0,0.428-0.144,0.464-0.433    c0.033-0.262,0.06-0.617,0.081-1.064c0.176,0.073,0.388,0.157,0.633,0.248c-0.043,0.475-0.086,0.844-0.128,1.105    c-0.08,0.491-0.385,0.736-0.914,0.736h-0.616c-0.608,0-0.913-0.314-0.913-0.944v-1.591c-0.091,0.307-0.203,0.578-0.337,0.813    c-0.379,0.678-1.09,1.319-2.131,1.923c-0.112-0.161-0.259-0.338-0.441-0.53c0.999-0.533,1.678-1.109,2.036-1.729    c0.346-0.55,0.52-1.42,0.52-2.611V288.783z M297.898,287.638h3.909v4.807h-0.608v-4.215h-2.692v4.327h-0.608V287.638z" />
      <path fill="#3F210F" d="M302.801,290.642h3.542v-3.357h0.656v3.357h3.605v0.593h-2.628v2.579c0,0.203,0.026,0.345,0.08,0.425    c0.073,0.107,0.232,0.161,0.473,0.161h0.794c0.383,0,0.595-0.142,0.633-0.425c0.037-0.289,0.066-0.672,0.088-1.146    c0.202,0.085,0.427,0.166,0.673,0.239c-0.049,0.551-0.097,0.943-0.146,1.179c-0.047,0.271-0.162,0.459-0.344,0.56    c-0.17,0.102-0.462,0.153-0.873,0.153h-0.953c-0.411,0-0.7-0.092-0.865-0.273c-0.14-0.154-0.208-0.413-0.208-0.776v-2.676h-1.551    c-0.021,1.108-0.237,1.946-0.645,2.515c-0.444,0.621-1.135,1.093-2.075,1.419c-0.106-0.165-0.243-0.355-0.408-0.569    c0.938-0.325,1.587-0.752,1.946-1.281c0.339-0.453,0.519-1.147,0.541-2.083h-2.336V290.642z M303.378,288.287l0.488-0.385    c0.54,0.591,1.059,1.188,1.555,1.786l-0.584,0.449C304.349,289.47,303.864,288.852,303.378,288.287z M307.833,289.737    c0.614-0.588,1.158-1.2,1.634-1.835l0.584,0.416c-0.533,0.63-1.107,1.247-1.721,1.851L307.833,289.737z" />
      <path fill="#3F210F" d="M310.885,292.323c0.562-0.869,0.955-1.812,1.186-2.828h-1.058v-0.56h1.074v-1.635h0.576v1.635h0.93v0.56    h-0.93v0.77l0.24-0.232c0.283,0.272,0.571,0.563,0.865,0.873l-0.416,0.394c-0.267-0.327-0.497-0.586-0.689-0.778v4.671h-0.576    v-4.222c-0.268,0.871-0.583,1.557-0.946,2.059C311.071,292.799,310.986,292.564,310.885,292.323z M317.182,287.261l0.577,0.288    c-0.245,0.358-0.479,0.681-0.698,0.97h1.243v2.283h-0.577v-0.224h-1.378v1.01h2.395c-0.085,0.87-0.155,1.494-0.215,1.874    c-0.075,0.481-0.411,0.721-1.01,0.721c-0.272,0-0.577-0.024-0.913-0.072c-0.032-0.257-0.07-0.479-0.113-0.664    c0.38,0.074,0.679,0.117,0.897,0.128c0.311,0.016,0.491-0.062,0.545-0.232c0.07-0.311,0.128-0.719,0.177-1.226h-1.763v3.075    h-0.577v-2.635c-0.624,0.822-1.413,1.511-2.363,2.066c-0.134-0.177-0.277-0.341-0.432-0.497c1.052-0.522,1.899-1.193,2.547-2.01    h-1.763l0.264-2.067h1.747v-1.002h-1.866v-0.528h1.114c-0.177-0.326-0.383-0.646-0.618-0.961l0.488-0.297    c0.252,0.326,0.475,0.646,0.665,0.962l-0.463,0.296h1.281C316.645,288.123,316.915,287.704,317.182,287.261z M314.401,291.588    h1.37v-1.01h-1.249L314.401,291.588z M317.727,289.047h-1.378v1.002h1.378V289.047z" />
      <path fill="#3F210F" d="M266.989,301.006c0.753-1.179,1.298-2.473,1.635-3.877l0.593,0.145c-0.197,0.67-0.41,1.294-0.642,1.871    v5.828h-0.544v-4.623c-0.246,0.483-0.508,0.925-0.785,1.323C267.166,301.437,267.08,301.216,266.989,301.006z M269.024,301.079    h5.841v1.258h-0.561v-0.745h-4.719v0.745h-0.562V301.079z M269.233,298.003h2.437c-0.116-0.243-0.241-0.48-0.379-0.713l0.546-0.24    c0.179,0.312,0.341,0.63,0.484,0.953h2.456v0.512h-5.544V298.003z M269.826,302.264h4.222v0.514h-1.57v1.162    c0,0.619-0.288,0.932-0.864,0.938c-0.257,0.005-0.595,0.002-1.011-0.009c-0.032-0.192-0.073-0.4-0.128-0.625    c0.347,0.039,0.668,0.056,0.962,0.056c0.31,0,0.464-0.177,0.464-0.527v-0.994h-2.074V302.264z M269.898,298.987h4.029v1.788    h-0.561v-0.217h-2.908v0.217h-0.561V298.987z M273.367,299.469h-2.908v0.608h2.908V299.469z" />
      <path fill="#3F210F" d="M278.037,304.997v-0.737h-2.747v-0.481h2.747v-0.52h-2.347v-0.466h2.347v-0.505h-2.515v-0.481h2.515    v-0.383h0.594v3.573H278.037z M275.306,298.764h3.589v-0.562h-2.034c-0.177,0.174-0.358,0.34-0.546,0.497    c-0.154-0.144-0.314-0.261-0.48-0.352c0.509-0.363,0.93-0.778,1.267-1.242l0.561,0.216c-0.117,0.146-0.236,0.283-0.357,0.418    h1.591v-0.626h0.61v0.626h2.907v0.463h-2.907v0.562h3.587v0.479h-7.786V298.764z M276.444,299.741h5.511v1.698h-0.577v-0.169    h-4.358v0.169h-0.575V299.741z M281.378,300.205h-4.358v0.602h4.358V300.205z M279.776,304.997v-3.573h0.593v0.383h2.532v0.481    h-2.532v0.505h2.355v0.441h-2.355v0.52h2.771v0.529h-2.771v0.714H279.776z" />
      <path fill="#3F210F" d="M283.806,305.02c-0.154-0.208-0.302-0.395-0.44-0.56c0.662-0.931,0.993-2.263,0.993-3.998v-2.964h6.586    v2.523h-0.608v-0.297h-5.367v0.865C284.969,302.395,284.58,303.873,283.806,305.02z M284.969,298.06v1.105h5.367v-1.105H284.969z     M288.806,303.217l0.433-0.376c0.79,0.684,1.418,1.274,1.882,1.771l-0.497,0.44c-0.163-0.185-0.326-0.364-0.492-0.537    c-1.626,0.008-2.955,0.051-3.985,0.128c-0.15,0.011-0.339,0.045-0.568,0.104l-0.272-0.591c0.32-0.124,0.568-0.261,0.745-0.409    c0.304-0.3,0.629-0.679,0.978-1.139h-1.964v-0.561h6.298v0.561h-3.511c-0.449,0.553-0.869,1.022-1.257,1.409    c1.002-0.005,2.007-0.018,3.016-0.038C289.346,303.717,289.077,303.464,288.806,303.217z M285.633,300.599h5.016v0.561h-5.016    V300.599z" />
      <path fill="#3F210F" d="M292.306,303.935v-6.204h1.823c0.544,0,0.979,0.129,1.307,0.391c0.325,0.259,0.487,0.606,0.487,1.035    c0,0.342-0.096,0.643-0.29,0.905c-0.194,0.261-0.46,0.447-0.799,0.557v0.017c0.421,0.047,0.759,0.207,1.012,0.478    c0.251,0.271,0.378,0.614,0.378,1.032c0,0.533-0.192,0.966-0.575,1.295s-0.872,0.495-1.471,0.495H292.306z M293.108,298.432v1.941    h0.728c0.388,0,0.69-0.094,0.911-0.281c0.222-0.188,0.331-0.449,0.331-0.784c0-0.584-0.39-0.876-1.169-0.876H293.108z     M293.108,301.07v2.164h0.96c0.42,0,0.744-0.097,0.972-0.29c0.229-0.194,0.342-0.464,0.342-0.809c0-0.71-0.481-1.065-1.445-1.065    H293.108z" />
      <path fill="#3F210F" d="M297.226,302.896c0.425,0.329,0.902,0.494,1.437,0.494c0.429,0,0.767-0.105,1.017-0.314    c0.25-0.211,0.375-0.491,0.375-0.844c0-0.785-0.563-1.178-1.687-1.178h-0.518v-0.648h0.492c0.997,0,1.495-0.369,1.495-1.105    c0-0.682-0.381-1.021-1.142-1.021c-0.436,0-0.846,0.146-1.23,0.439v-0.741c0.406-0.233,0.881-0.352,1.423-0.352    c0.528,0,0.953,0.139,1.273,0.414c0.32,0.277,0.48,0.635,0.48,1.076c0,0.811-0.414,1.333-1.241,1.565v0.018    c0.449,0.048,0.804,0.205,1.063,0.474s0.391,0.603,0.391,1.003c0,0.559-0.201,1.009-0.604,1.35    c-0.401,0.343-0.937,0.514-1.604,0.514c-0.588,0-1.061-0.11-1.421-0.329V302.896z" />
      <path fill="#3F210F" d="M304.447,301.78h-2.359v-0.604h2.359V301.78z" />
      <path fill="#3F210F" d="M309.326,303.935h-3.557v-0.676h1.391v-4.712l-1.428,0.412v-0.721l2.208-0.64v5.66h1.386V303.935z" />
      <path fill="#3F210F" d="M314.138,303.935h-3.558v-0.676h1.391v-4.712l-1.427,0.412v-0.721l2.207-0.64v5.66h1.387V303.935z" />
      <path fill="#3F210F" d="M318.631,298.442h-2.395v2.076h2.22v0.705h-2.22v2.711h-0.801v-6.204h3.195V298.442z" />
      <path fill="#411811" d="M340.486,281.117c0-0.512,0.413-0.924,0.924-0.924c0.507,0,0.923,0.412,0.923,0.924      c0,0.51-0.416,0.923-0.923,0.923C340.899,282.04,340.486,281.627,340.486,281.117z M342.969,283.769      c0-0.858-0.699-1.556-1.559-1.556c-0.862,0-1.559,0.697-1.559,1.556c0,0.659,0.408,1.219,0.979,1.448v1.095      c0,0.315,0.26,0.573,0.579,0.573c0.317,0,0.574-0.258,0.574-0.573v-1.095C342.561,284.987,342.969,284.428,342.969,283.769z       M344.181,281.117c0-0.512,0.411-0.924,0.922-0.924c0.508,0,0.923,0.412,0.923,0.924c0,0.51-0.415,0.923-0.923,0.923      C344.592,282.04,344.181,281.627,344.181,281.117z M346.583,284.107l-0.889-1.484c-0.325-0.543-0.859-0.543-1.187,0      l-0.891,1.484c-0.325,0.547-0.073,0.991,0.563,0.991h0.342v1.213c0,0.315,0.261,0.573,0.58,0.573      c0.316,0,0.575-0.258,0.575-0.573v-1.213h0.348C346.66,285.099,346.908,284.654,346.583,284.107z M350.695,290.231v-13.385      c0-0.382-0.309-0.691-0.69-0.691c-0.384,0-0.694,0.31-0.694,0.691v13.385c0,0.382,0.311,0.691,0.694,0.691      C350.387,290.923,350.695,290.613,350.695,290.231z M337.199,290.231v-13.385c0-0.382-0.312-0.691-0.692-0.691      c-0.383,0-0.692,0.31-0.692,0.691v13.385c0,0.382,0.31,0.691,0.692,0.691C336.888,290.923,337.199,290.613,337.199,290.231z       M346.37,278.288h-1.439c-0.005,0.018-0.017,0.037-0.024,0.055c-0.21,0.369-0.628,0.582-1.143,0.582h-1.018      c-0.514,0-0.933-0.213-1.141-0.582c-0.007-0.018-0.021-0.037-0.027-0.055h-1.438c-1.177,0-2.135,0.961-2.135,2.136v6.232      c0,1.175,0.958,2.135,2.135,2.135h1.438c0.006-0.02,0.021-0.036,0.027-0.052c0.208-0.371,0.627-0.583,1.141-0.583h1.018      c0.515,0,0.933,0.212,1.143,0.583c0.008,0.016,0.02,0.032,0.024,0.052h1.439c1.177,0,2.135-0.96,2.135-2.135v-6.232      C348.505,279.249,347.547,278.288,346.37,278.288z M347.236,286.656c0,0.476-0.388,0.862-0.866,0.862h-6.23      c-0.478,0-0.864-0.387-0.864-0.862v-6.232c0-0.477,0.387-0.863,0.864-0.863h6.23c0.479,0,0.866,0.387,0.866,0.863V286.656z       M342.746,288.729c-0.633,0-0.885,0.447-0.559,0.992l0.474,0.79c0.327,0.544,0.861,0.544,1.186,0l0.477-0.79      c0.326-0.545,0.074-0.992-0.56-0.992H342.746z M343.764,278.349c0.634,0,0.886-0.445,0.56-0.99l-0.477-0.789      c-0.324-0.547-0.858-0.547-1.186,0l-0.474,0.789c-0.326,0.545-0.074,0.99,0.559,0.99H343.764z" />
      <g>
        <g>
          <g>
            <path fill="none" stroke="#411811" stroke-miterlimit="10" d="M354.434,283.538c0,6.36-5.16,11.519-11.521,11.519         c-6.36,0-11.52-5.158-11.52-11.519c0-6.357,5.159-11.518,11.52-11.518C349.273,272.021,354.434,277.181,354.434,283.538z" />
          </g>
        </g>
      </g>
    </g>
  </g>

</svg>
