<?xml version="1.0" encoding="utf-8"?>
<!-- Generator: Adobe Illustrator 15.0.0, SVG Export Plug-In . SVG Version: 6.00 Build 0)  -->
<!DOCTYPE svg PUBLIC "-//W3C//DTD SVG 1.1//EN" "http://www.w3.org/Graphics/SVG/1.1/DTD/svg11.dtd">
<svg version="1.1" id="图层_1" xmlns="http://www.w3.org/2000/svg" xmlns:xlink="http://www.w3.org/1999/xlink" x="0px" y="0px"
	 width="1028px" height="680px" viewBox="0 0 1028 680" enable-background="new 0 0 1028 680" xml:space="preserve">
<rect x="92.965" y="538.304" fill="#E6E6E6" width="842.07" height="104.696"/>
<g>
	<g>
		<g>
			<g>
				<rect x="595.459" y="562.051" fill="#E50012" width="40.848" height="39.975"/>
				<g>
					<path fill-rule="evenodd" clip-rule="evenodd" fill="#FFFFFF" d="M603.217,567.566h4.348v28.758h-4.348V567.566
						L603.217,567.566z M624.223,567.566h4.348v28.814h-4.348V567.566L624.223,567.566z M613.41,569.607l2.434-1.996l2.455,1.969
						l-0.012,1.52l-1.773-1.453l0.023,3.582l-1.4-0.002l0.02-3.529l-1.752,1.438L613.41,569.607L613.41,569.607z M613.502,594.512
						l2.428,1.998l2.455-1.979l-0.012-1.506l-1.77,1.445l0.031-3.59l-1.414,0.016l0.023,3.521l-1.758-1.424L613.502,594.512
						L613.502,594.512z M613.973,575.221c-0.432,0-0.791,0.361-0.791,0.813c0,0.426,0.359,0.787,0.791,0.787
						c0.441,0,0.799-0.361,0.799-0.787C614.771,575.582,614.414,575.221,613.973,575.221L613.973,575.221z M615.311,577.275
						l-2.486-0.023c-0.691-0.057-0.953,0.309-0.98,0.854l0.01,4.699c0.113,0.355,0.643,0.342,0.74,0.025c0-1.367,0-2.658,0-4.014
						c0.02-0.066,0.189-0.078,0.213,0l0.004,9.342c0.156,0.441,0.67,0.666,0.975,0.016l0.006-5.635
						c0.041-0.197,0.395-0.186,0.406,0.014v5.605c0.285,0.557,0.777,0.566,0.971-0.029v-9.313c0.029-0.066,0.217-0.098,0.246-0.033
						l0.723,1.445c0.055,0.158,0.211,0.295,0.412,0.215l1.871-1.17c0.223-0.424-0.254-0.686-0.385-0.654l-1.359,0.813l-0.471-1.25
						C616.047,577.814,615.93,577.266,615.311,577.275L615.311,577.275z M619.461,576.037c0.262,0,0.479,0.219,0.479,0.486
						c0,0.262-0.217,0.482-0.479,0.482c-0.264,0-0.477-0.221-0.477-0.482C618.984,576.256,619.197,576.037,619.461,576.037
						L619.461,576.037z M619.461,577.379c0.262,0,0.479,0.207,0.479,0.484c0,0.266-0.217,0.475-0.479,0.475
						c-0.264,0-0.477-0.209-0.477-0.475C618.984,577.586,619.197,577.379,619.461,577.379L619.461,577.379z M619.461,578.709
						c0.262,0,0.479,0.227,0.479,0.494c0,0.262-0.217,0.48-0.479,0.48c-0.264,0-0.477-0.219-0.477-0.48
						C618.984,578.936,619.197,578.709,619.461,578.709L619.461,578.709z M619.461,579.994c0.262,0,0.479,0.219,0.479,0.484
						c0,0.268-0.217,0.477-0.479,0.477c-0.264,0-0.477-0.209-0.477-0.477C618.984,580.213,619.197,579.994,619.461,579.994
						L619.461,579.994z M608.885,573.391l14.018,0.037l0.016,17.227l-14.051-0.018L608.885,573.391L608.885,573.391z
						 M610.311,574.758l11.1,0.033l0.008,14.545l-11.119-0.016L610.311,574.758z"/>
					<path fill="#FFFFFF" d="M603.008,565.293h25.764c2.127,0,3.869,1.734,3.869,3.871v25.764c0,2.117-1.742,3.857-3.869,3.857
						h-25.764c-2.119,0-3.861-1.74-3.861-3.857v-25.764C599.146,567.027,600.889,565.293,603.008,565.293L603.008,565.293z
						 M603.008,566.578c-1.416,0-2.578,1.156-2.578,2.586v25.764c0,1.408,1.162,2.58,2.578,2.58h25.764
						c1.418,0,2.584-1.172,2.584-2.58v-25.764c0-1.43-1.166-2.586-2.584-2.586H603.008z"/>
				</g>
			</g>
			<g>
				<g>
					<path fill="#231815" d="M604.559,608.602h4.215v-1.586h0.951v1.586h4.229v6.959h-4.229v1.449c0,0.504,0.244,0.756,0.73,0.756
						h2.674c0.52,0,0.836-0.186,0.949-0.557c0.121-0.406,0.209-0.986,0.264-1.746c0.221,0.107,0.537,0.236,0.947,0.383
						c-0.092,0.662-0.193,1.227-0.307,1.697c-0.191,0.777-0.709,1.164-1.555,1.164h-3.041c-1.074,0-1.613-0.568-1.613-1.709v-1.438
						h-3.266v0.854h-0.949V608.602z M605.508,611.637h3.266v-2.105h-3.266V611.637z M605.508,614.633h3.266v-2.117h-3.266V614.633z
						 M613.004,609.531h-3.279v2.105h3.279V609.531z M613.004,614.633v-2.117h-3.279v2.117H613.004z"/>
					<path fill="#231815" d="M615.654,614.781c0.801-1.344,1.365-2.803,1.693-4.371h-1.51v-0.867h1.531v-2.527h0.824v2.527h1.326
						v0.867h-1.326v1.189l0.342-0.359c0.404,0.42,0.816,0.871,1.236,1.348l-0.596,0.607c-0.381-0.504-0.707-0.902-0.982-1.201v7.221
						h-0.824v-6.525c-0.381,1.344-0.83,2.406-1.348,3.182C615.922,615.516,615.801,615.152,615.654,614.781z M624.639,606.955
						l0.824,0.445c-0.352,0.553-0.684,1.053-0.994,1.498h1.77v3.531h-0.822v-0.348h-1.965v1.559h3.416
						c-0.121,1.348-0.225,2.313-0.309,2.9c-0.105,0.742-0.588,1.113-1.439,1.113c-0.389,0-0.822-0.037-1.303-0.111
						c-0.047-0.396-0.1-0.74-0.162-1.029c0.543,0.117,0.969,0.184,1.281,0.199c0.443,0.025,0.701-0.094,0.779-0.359
						c0.098-0.479,0.182-1.109,0.25-1.895h-2.514v4.756h-0.824v-4.074c-0.891,1.271-2.014,2.336-3.371,3.195
						c-0.191-0.271-0.396-0.527-0.617-0.77c1.5-0.807,2.713-1.844,3.635-3.107h-2.514l0.375-3.195h2.492v-1.547h-2.662v-0.818h1.588
						c-0.25-0.502-0.545-0.998-0.879-1.484l0.697-0.459c0.357,0.504,0.672,0.998,0.947,1.484l-0.662,0.459h1.828
						C623.873,608.287,624.258,607.639,624.639,606.955z M620.674,613.641h1.953v-1.559h-1.781L620.674,613.641z M625.416,609.717
						h-1.965v1.547h1.965V609.717z"/>
				</g>
			</g>
		</g>
		<g>
			<g>
				<rect x="661.223" y="562.051" fill="#E50012" width="40.02" height="40.02"/>
				<g>
					<path fill-rule="evenodd" clip-rule="evenodd" fill="#FFFFFF" d="M679.385,569.881c0.932,0,1.693,0.754,1.693,1.691
						c0,0.928-0.762,1.686-1.693,1.686c-0.934,0-1.701-0.758-1.701-1.686C677.684,570.635,678.451,569.881,679.385,569.881
						L679.385,569.881z M677.594,581.148l-6.895,5.512c0,0-1.051-0.137-2.135,0.266c-0.648,0.232-1.307,0.707-1.744,1.375
						c-1.332,2.021-0.473,5.426,2.145,5.863c0.881,0.146,3.713,0.02,3.713,0.02l18.869-14.977l1.779,0.012
						c0,0,2.209-0.51,2.697-2.398c0.484-1.881,0.061-3.359-0.762-4.16c-0.818-0.83-1.803-1.098-1.803-1.098h-4.125l-8.268,6.705
						l-0.063-2.951c0,0,0-1.52-1.508-1.551c-1.502-0.035-1.854,1.043-1.854,1.49C677.643,575.686,677.594,581.148,677.594,581.148
						L677.594,581.148z M671.039,587.865c-1.076-0.027-1.969-0.082-2.545,0.305c-2.051,1.387-1.162,4.938,1.119,4.902l2.691-0.047
						l18.803-15.088c0.012-0.01,1.918,0.049,2.361-0.041c0.447-0.096,1.641-0.949,1.572-2.707c-0.057-1.748-1.695-2.42-1.695-2.42
						l-3.623,0.021L671.039,587.865z"/>
					<path fill="#FFFFFF" d="M668.26,565.219h25.902c2.141,0,3.891,1.75,3.891,3.889v25.912c0,2.123-1.75,3.881-3.891,3.881H668.26
						c-2.137,0-3.881-1.758-3.881-3.881v-25.912C664.379,566.969,666.123,565.219,668.26,565.219L668.26,565.219z M668.26,566.51
						c-1.42,0-2.588,1.168-2.588,2.598v25.912c0,1.416,1.168,2.586,2.588,2.586h25.902c1.434,0,2.602-1.17,2.602-2.586v-25.912
						c0-1.43-1.168-2.598-2.602-2.598H668.26z"/>
				</g>
			</g>
			<g>
				<g>
					<path fill="#231815" d="M664.117,614.162h5.152v-2.219h-4.354v-0.977h4.354v-2.234c-1.443,0.061-2.91,0.113-4.4,0.154
						c-0.045-0.348-0.104-0.686-0.17-1.016c3.893-0.066,7.051-0.215,9.475-0.445l0.148,1.014c-1.342,0.092-2.705,0.172-4.092,0.242
						v2.285h4.148v0.977h-4.148v2.219h5.131v0.979h-5.131v2.277c0,1.004-0.475,1.512-1.416,1.523c-0.48,0-1.148-0.004-2.002-0.012
						c-0.037-0.379-0.1-0.756-0.182-1.127c0.854,0.066,1.496,0.098,1.932,0.098c0.471,0,0.707-0.275,0.707-0.828v-1.932h-5.152
						V614.162z"/>
					<path fill="#231815" d="M675.705,613.68c0.533-0.158,1.105-0.33,1.715-0.52v-2.725h-1.521v-0.855h1.521v-2.451h0.891v2.451
						h1.418v0.855h-1.418v2.438c0.404-0.131,0.826-0.275,1.27-0.432c0.008,0.422,0.014,0.75,0.023,0.99
						c-0.352,0.107-0.783,0.248-1.293,0.42v3.789c0,0.918-0.373,1.375-1.121,1.375c-0.287,0-0.668-0.004-1.143-0.012
						c-0.037-0.313-0.09-0.646-0.158-1.004c0.426,0.041,0.775,0.064,1.051,0.064c0.32,0,0.48-0.199,0.48-0.596v-3.307
						c-0.48,0.164-1.01,0.352-1.59,0.557L675.705,613.68z M679.922,612.527h2.721c0.061-0.627,0.096-1.445,0.104-2.453h-2.445
						v-0.891h2.445c0.014-0.676,0.021-1.402,0.021-2.18h0.904c0,0.793-0.004,1.52-0.012,2.18h2.914v0.891h-2.914
						c-0.008,0.91-0.039,1.727-0.094,2.453h3.441v0.893h-3.246c0.541,2.311,1.654,3.887,3.336,4.729
						c-0.279,0.314-0.543,0.617-0.787,0.906c-1.539-1.059-2.572-2.641-3.098-4.744c-0.518,2.064-1.699,3.689-3.541,4.879
						c-0.17-0.248-0.381-0.535-0.641-0.867c1.928-1.057,3.094-2.691,3.498-4.902h-2.607V612.527z"/>
					<path fill="#231815" d="M687.408,614.781c0.799-1.344,1.365-2.803,1.691-4.371h-1.51v-0.867h1.533v-2.527h0.822v2.527h1.326
						v0.867h-1.326v1.189l0.344-0.359c0.402,0.42,0.814,0.871,1.234,1.348l-0.596,0.607c-0.381-0.504-0.707-0.902-0.982-1.201v7.221
						h-0.822v-6.525c-0.381,1.344-0.83,2.406-1.348,3.182C687.674,615.516,687.553,615.152,687.408,614.781z M696.391,606.955
						l0.824,0.445c-0.352,0.553-0.682,1.053-0.994,1.498h1.771v3.531h-0.824v-0.348h-1.965v1.559h3.416
						c-0.121,1.348-0.225,2.313-0.307,2.9c-0.107,0.742-0.588,1.113-1.441,1.113c-0.389,0-0.822-0.037-1.303-0.111
						c-0.045-0.396-0.098-0.74-0.16-1.029c0.543,0.117,0.969,0.184,1.279,0.199c0.441,0.025,0.703-0.094,0.779-0.359
						c0.098-0.479,0.182-1.109,0.25-1.895h-2.514v4.756h-0.822v-4.074c-0.893,1.271-2.018,2.336-3.373,3.195
						c-0.189-0.271-0.395-0.527-0.617-0.77c1.502-0.807,2.713-1.844,3.635-3.107h-2.516l0.377-3.195h2.494v-1.547h-2.664v-0.818
						h1.588c-0.25-0.502-0.543-0.998-0.879-1.484l0.695-0.459c0.359,0.504,0.676,0.998,0.949,1.484l-0.662,0.459h1.83
						C695.627,608.287,696.01,607.639,696.391,606.955z M692.426,613.641h1.955v-1.559h-1.783L692.426,613.641z M697.168,609.717
						h-1.965v1.547h1.965V609.717z"/>
				</g>
			</g>
		</g>
		<g>
			<g>
				<rect x="726.982" y="562.051" fill="#E50012" width="40.002" height="40.461"/>
				<g>
					<polygon fill-rule="evenodd" clip-rule="evenodd" fill="#FFFFFF" points="735.607,567.182 740.34,567.182 747.129,576.982 
						754.023,567.355 759.113,567.355 749.398,580.508 749.398,581.244 757.266,581.275 757.266,584.506 749.434,584.506 
						749.434,586.691 757.266,586.691 757.266,589.719 749.451,589.719 749.451,596.025 744.926,596.025 744.926,589.77 
						737.26,589.77 737.26,586.713 744.924,586.713 744.924,584.543 737.26,584.543 737.26,581.289 744.918,581.289 
						744.918,580.514 					"/>
					<g>
						<path fill="#FFFFFF" d="M734.037,564.291h26.639c2.193,0,3.99,1.793,3.99,3.988v26.637c0,2.199-1.797,3.994-3.99,3.994
							h-26.639c-2.191,0-3.99-1.795-3.99-3.994v-26.637C730.047,566.084,731.846,564.291,734.037,564.291L734.037,564.291z
							 M734.037,565.619c-1.461,0-2.662,1.197-2.662,2.66v26.637c0,1.469,1.201,2.674,2.662,2.674h26.639
							c1.469,0,2.664-1.205,2.664-2.674v-26.637c0-1.463-1.195-2.66-2.664-2.66H734.037z"/>
						<g>
							<g>
								<polygon fill-rule="evenodd" clip-rule="evenodd" fill="#FFFFFF" points="736.836,591.432 737.256,591.432 737.256,591.426 
									737.244,591.426 736.912,590.775 736.912,590.771 736.629,590.771 736.629,590.619 737.357,590.619 737.357,590.771 
									737.18,590.771 737.506,591.391 737.557,591.391 737.908,590.771 737.719,590.771 737.719,590.619 738.443,590.619 
									738.443,590.771 738.178,590.771 738.178,590.775 737.824,591.391 737.832,591.391 737.832,591.432 738.24,591.432 
									738.24,591.574 737.832,591.574 737.832,591.797 738.24,591.797 738.24,591.955 737.832,591.955 737.832,592.813 
									738.135,592.813 738.135,592.971 736.941,592.971 736.941,592.813 737.256,592.813 737.256,591.955 736.836,591.955 
									736.836,591.797 737.256,591.797 737.256,591.574 736.836,591.574 								"/>
								<path fill-rule="evenodd" clip-rule="evenodd" fill="#FFFFFF" d="M735.244,588.857c0.189-0.424,0.607-0.322,0.736,0v0.912
									h0.264v-1.225c0.186-0.404,0.582-0.334,0.746,0v1.225h0.26v-1.508c0.166-0.396,0.564-0.396,0.742,0v1.508h0.262v-1.209
									c0.119-0.381,0.65-0.416,0.742,0v1.209h2.207v4.02h-1.322c-0.041,1.314-1.053,2.371-2.299,2.371s-2.258-1.057-2.305-2.371
									h-1.457v-4.02h1.424V588.857L735.244,588.857z M739.107,591.781c0.184-0.873,0.613-0.648,0.738,0v1.799h1.115v-3.582h-6.93
									v3.582h5.076V591.781z"/>
							</g>
							<path fill="#FFFFFF" d="M733.189,586.432h8.654c0.713,0,1.303,0.586,1.303,1.301v8.662c0,0.721-0.59,1.301-1.303,1.301
								h-8.654c-0.725,0-1.307-0.58-1.307-1.301v-8.662C731.883,587.018,732.465,586.432,733.189,586.432L733.189,586.432z
								 M733.189,586.865c-0.484,0-0.873,0.395-0.873,0.867v8.662c0,0.482,0.389,0.881,0.873,0.881h8.654
								c0.486,0,0.871-0.398,0.871-0.881v-8.662c0-0.473-0.385-0.867-0.871-0.867H733.189z"/>
						</g>
					</g>
				</g>
			</g>
			<g>
				<g>
					<path fill="#231815" d="M730.232,607.027h0.869v12.102h-0.869v-3.822c-0.465,0.281-0.936,0.594-1.416,0.936
						c-0.197,0.156-0.393,0.344-0.582,0.559l-0.652-0.83c0.234-0.271,0.355-0.629,0.355-1.066v-6.143h0.867v6.342
						c0.453-0.26,0.928-0.537,1.428-0.83V607.027z M731.262,612.242c0.977-1.832,1.68-3.604,2.115-5.311l0.924,0.283
						c-0.242,0.764-0.498,1.494-0.766,2.191h4.984v0.918h-1.344c-0.113,2.391-0.68,4.334-1.697,5.838
						c0.775,0.744,1.871,1.387,3.293,1.938c-0.238,0.322-0.453,0.654-0.652,0.992c-1.355-0.629-2.438-1.354-3.244-2.174
						c-0.738,0.783-1.754,1.545-3.055,2.285c-0.158-0.273-0.354-0.549-0.58-0.83c1.297-0.707,2.303-1.438,3.01-2.193
						c-0.879-1.191-1.447-2.674-1.707-4.445c-0.215,0.451-0.436,0.883-0.664,1.303C731.734,612.797,731.527,612.531,731.262,612.242
						z M736.273,610.324h-3.039c0.109,2.014,0.646,3.709,1.609,5.09C735.713,614.088,736.189,612.391,736.273,610.324z"/>
					<path fill="#231815" d="M743.137,616.354c0.008,0.365,0.027,0.699,0.057,1.004c-0.555,0.338-1.156,0.746-1.805,1.227
						c-0.191,0.146-0.373,0.316-0.549,0.508l-0.605-0.854c0.252-0.266,0.377-0.576,0.377-0.932v-2.748h-1.564v-0.855h1.564v-1.807
						h-0.775v-0.842c-0.123,0.205-0.25,0.404-0.379,0.594c-0.145-0.297-0.309-0.578-0.49-0.842c0.746-1.133,1.336-2.406,1.77-3.826
						l0.836,0.297c-0.191,0.561-0.4,1.098-0.629,1.609h2.104v0.855h-2.504c-0.221,0.451-0.457,0.887-0.707,1.299h2.936v0.855h-1.338
						v1.807h1.658v0.855h-1.658v2.947C741.908,617.193,742.475,616.807,743.137,616.354z M749.412,614.002l0.582,0.717
						c-0.746,0.57-1.484,1.098-2.217,1.584c0.693,0.793,1.586,1.355,2.676,1.686c-0.238,0.348-0.436,0.66-0.596,0.941
						c-2.217-0.9-3.65-2.666-4.297-5.301h-1.074v4.037c0.609-0.313,1.277-0.686,2-1.113c0.008,0.379,0.027,0.713,0.057,1.002
						c-0.586,0.305-1.314,0.723-2.182,1.252c-0.107,0.074-0.268,0.213-0.48,0.42l-0.607-0.854c0.244-0.273,0.367-0.578,0.367-0.916
						v-9.885h5.656v6.367h-0.834v-0.311h-2.068c0.223,0.777,0.521,1.457,0.904,2.043
						C748.045,615.145,748.75,614.588,749.412,614.002z M748.463,608.416h-3.977v1.77h3.977V608.416z M748.463,612.787v-1.783
						h-3.977v1.783H748.463z"/>
					<path fill="#231815" d="M758.816,608.59c1.199,1.205,2.33,2.439,3.396,3.703l-0.811,0.729c-0.305-0.387-0.613-0.77-0.926-1.145
						c-3.422,0.158-6.035,0.291-7.842,0.402c-0.418,0.033-0.822,0.1-1.211,0.197l-0.377-1.064c0.35-0.141,0.666-0.334,0.949-0.58
						c1.303-1.158,2.496-2.49,3.576-4.002l0.859,0.57c-1.145,1.453-2.338,2.746-3.578,3.877c2.334-0.08,4.633-0.17,6.891-0.273
						c-0.521-0.613-1.051-1.213-1.586-1.795L758.816,608.59z M760.498,613.506v5.623h-0.938v-0.818h-6.285v0.818h-0.938v-5.623
						H760.498z M759.561,614.422h-6.285v2.996h6.285V614.422z"/>
				</g>
			</g>
		</g>
		<g>
			<g>
				<rect x="529.051" y="562.051" fill="#E50012" stroke="#231815" stroke-width="0.25" width="41.455" height="41.455"/>
				<g>
					<g>
						<path fill-rule="evenodd" clip-rule="evenodd" fill="#FFFFFF" d="M540.936,567.35c1.039,0,1.893,0.852,1.893,1.908
							c0,1.045-0.854,1.906-1.893,1.906c-1.045,0-1.896-0.861-1.896-1.906C539.039,568.201,539.891,567.35,540.936,567.35
							L540.936,567.35z M537.777,572.252l5.918-0.074c1.637-0.133,2.26,0.74,2.314,2.029l-0.018,11.217
							c-0.268,0.846-1.529,0.803-1.766,0.041c0-3.24,0.004-6.342,0.008-9.578c-0.051-0.16-0.459-0.166-0.52-0.008v22.311
							c-0.121,1.053-2.131,1.305-2.324,0.041l-0.012-13.139c-0.102-0.469-0.939-0.453-0.982,0.043l0.006,13.055
							c-0.34,1.17-2.133,1.137-2.316-0.059l0.006-22.252c-0.076-0.152-0.447-0.145-0.523,0.004l0.066,9.645
							c-0.434,0.84-1.318,0.703-1.631-0.074l-0.135-11.037C535.813,573.307,536.287,572.209,537.777,572.252L537.777,572.252z
							 M557.084,569.381c1.045,0,1.893,0.854,1.893,1.906c0,1.051-0.848,1.906-1.893,1.906c-1.043,0-1.895-0.855-1.895-1.906
							C555.189,570.234,556.041,569.381,557.084,569.381L557.084,569.381z M554.451,574.307c0.166,0,0.689,0,0.857-0.002
							c0.727,1.166,2.646,1.266,3.285-0.174l0.773-0.01c1.631,0.178,1.801,1.26,1.85,2.443l0.033,3.887l1.664,2.941
							c0.373,0.783-1.107,1.313-1.326,0.557l-1.711-3.152l-0.02-3.002c-0.045-0.148-0.502-0.148-0.494,0.02l-0.008,2.318
							l-0.004,0.887l4.293,7.865h-4.23l0.008,9.615c-0.313,0.85-1.902,0.973-2.111-0.023l0.02-9.668l-0.553,0.006l0.004,9.674
							c-0.217,0.895-1.902,0.922-1.99,0.004l-0.008-9.701l-3.986,0.053l4.021-7.891v-0.973l-0.018-2.225
							c-0.066-0.139-0.424-0.139-0.494,0.004l-0.023,3.023l-1.49,3.1c-0.428,0.84-1.766,0.125-1.307-0.652l1.32-2.809l0.016-3.816
							C552.771,575.58,552.84,574.508,554.451,574.307z"/>
						<path fill="#FFFFFF" d="M535.826,565.156h27.855c2.297,0,4.178,1.887,4.178,4.18v27.854c0,2.299-1.881,4.182-4.178,4.182
							h-27.855c-2.297,0-4.178-1.883-4.178-4.182v-27.854C531.648,567.043,533.529,565.156,535.826,565.156L535.826,565.156z
							 M535.826,566.547c-1.533,0-2.789,1.258-2.789,2.789v27.854c0,1.533,1.256,2.787,2.789,2.787h27.855
							c1.535,0,2.787-1.254,2.787-2.787v-27.854c0-1.531-1.252-2.789-2.787-2.789H535.826z"/>
					</g>
					<rect x="547.957" y="568.186" fill="#FFFFFF" width="1.535" height="29.396"/>
				</g>
			</g>
			<g>
				<path fill="#231815" d="M540.25,613.221c0.008,2.74-0.393,4.719-1.199,5.932c-0.191-0.256-0.412-0.539-0.664-0.854
					c0.672-1.057,1-2.742,0.994-5.053v-5.498h10.299v0.865h-9.43V613.221z M543.004,611.055h0.777v2.439
					c0,0.791-0.057,1.477-0.172,2.055c0.627,0.686,1.418,1.564,2.379,2.639l-0.652,0.605c-0.693-0.865-1.35-1.658-1.967-2.379
					c-0.35,0.936-1.152,1.867-2.41,2.801c-0.176-0.279-0.369-0.527-0.582-0.742c1.02-0.654,1.713-1.305,2.078-1.959
					c0.357-0.643,0.541-1.529,0.549-2.662V611.055z M541.211,609.643h4.354v6.475h-0.777v-5.57h-2.801v5.57h-0.775V609.643z
					 M548.365,608.961h0.811v8.496c-0.006,0.625-0.092,1.047-0.25,1.262c-0.16,0.24-0.496,0.369-1.006,0.385
					c-0.305,0-0.775-0.008-1.406-0.025c-0.031-0.355-0.086-0.672-0.16-0.953c0.639,0.057,1.055,0.09,1.246,0.098
					c0.328-0.008,0.537-0.074,0.627-0.197c0.086-0.125,0.131-0.387,0.139-0.793V608.961z M547.348,617.01h-0.766v-7.082h0.766
					V617.01z"/>
				<path fill="#231815" d="M551.164,607.896c1.266-0.025,2.588-0.195,3.967-0.508l0.297,0.928
					c-1.127,0.182-2.275,0.318-3.439,0.408v1.92h2.994v4.57h-0.799v-0.545h-2.242c-0.125,1.893-0.525,3.389-1.199,4.494
					c-0.205-0.271-0.416-0.523-0.629-0.754c0.701-1.041,1.051-2.75,1.051-5.127V607.896z M554.184,613.852v-2.389h-2.195
					c0,1.229-0.002,2.025-0.006,2.389H554.184z M556.08,607.969c1.813-0.072,3.463-0.254,4.949-0.543l0.309,0.941
					c-1.906,0.23-3.377,0.379-4.412,0.445v2.762h4.629v0.855h-1.771v6.688h-0.857v-6.688h-2v0.691c0,2.602-0.666,4.645-2,6.131
					c-0.221-0.281-0.439-0.555-0.652-0.818c1.203-1.338,1.807-3.115,1.807-5.336V607.969z"/>
			</g>
		</g>
	</g>
	<g>
		<rect x="369.918" y="566.26" fill="#D7E8BD" stroke="#231815" width="22.72" height="22.023"/>
		<rect x="261.016" y="593.02" fill="#F7BF83" stroke="#231815" width="22.721" height="22.025"/>
		<rect x="261.016" y="566.26" fill="#FADED8" stroke="#231815" width="22.722" height="22.023"/>
		<g>
			<g>
				<path fill="#231815" d="M290.958,580.791h4.234c0.043-0.33,0.083-0.699,0.118-1.105h0.95c-0.042,0.42-0.084,0.787-0.123,1.105
					h5.402c-0.079,1.094-0.153,1.953-0.224,2.58c-0.148,1.373-0.813,2.061-1.994,2.061c-0.751,0-1.521-0.018-2.311-0.051
					c-0.031-0.289-0.09-0.662-0.176-1.119c0.86,0.102,1.642,0.152,2.346,0.152c0.712,0,1.111-0.377,1.196-1.131
					c0.063-0.482,0.118-1.018,0.165-1.602h-4.54c-0.285,1.877-1.85,3.215-4.692,4.016c-0.023-0.033-0.227-0.338-0.61-0.914
					c2.581-0.648,4.034-1.684,4.358-3.102h-4.1V580.791z M291.697,573.736h9.314v6.063h-0.892v-0.531h-7.531v0.531h-0.892V573.736z
					 M292.588,576.063h3.32v-1.461h-3.32V576.063z M292.588,578.402h3.32v-1.475h-3.32V578.402z M300.12,574.602h-3.32v1.461h3.32
					V574.602z M296.8,578.402h3.32v-1.475h-3.32V578.402z"/>
				<path fill="#231815" d="M309.305,583.461c-0.007,0.373-0.007,0.707,0,1.004c-1.04,0.322-1.869,0.602-2.486,0.838
					c-0.235,0.094-0.517,0.234-0.845,0.422l-0.517-0.777c0.188-0.168,0.282-0.461,0.282-0.877v-0.984
					c-0.797,0.504-1.697,0.959-2.698,1.367c-0.149-0.307-0.325-0.605-0.528-0.902c2.088-0.73,3.736-1.703,4.945-2.924h-4.792v-0.891
					h5.496c-0.188-0.326-0.373-0.631-0.557-0.914l0.751-0.496c0.266,0.424,0.513,0.813,0.739,1.168l-0.375,0.242h5.419v0.891h-5.343
					c0.324,0.689,0.752,1.285,1.284,1.785c0.872-0.453,1.733-0.934,2.581-1.441l0.493,0.926c-0.778,0.336-1.57,0.693-2.376,1.076
					c0.911,0.627,2.051,1.049,3.419,1.264c-0.234,0.338-0.449,0.656-0.645,0.953c-2.535-0.539-4.345-1.889-5.432-4.049
					c-0.446,0.479-0.951,0.93-1.514,1.354v1.855C307.538,584.07,308.437,583.773,309.305,583.461z M305.856,573.076h0.868v5.859
					h-0.868v-1.951c-0.845,0.525-1.729,1.082-2.651,1.672c-0.086-0.195-0.247-0.508-0.481-0.941
					c1.114-0.613,2.159-1.221,3.132-1.824V573.076z M303.041,574.334l0.622-0.66c0.712,0.635,1.248,1.148,1.607,1.537l-0.704,0.738
					C304.003,575.295,303.494,574.758,303.041,574.334z M307.663,577.385h2.545v-1.689h-2.956v-0.879h2.956v-1.715h0.88v1.715h3.027
					v0.879h-3.027v1.689h2.628v0.877h-6.053V577.385z"/>
				<path fill="#231815" d="M326.269,584.682c-0.157,0.195-0.364,0.529-0.622,1.004c-2.542-0.535-4.298-1.713-5.267-3.533
					c-0.696,1.871-2.448,3.08-5.255,3.621c-0.141-0.287-0.309-0.602-0.504-0.939c2.644-0.391,4.278-1.395,4.903-3.014h-4.633v-0.889
					h4.88c0.063-0.279,0.113-0.615,0.152-1.004h0.938c-0.055,0.381-0.11,0.717-0.164,1.004h5.173v0.889h-4.704
					C322.206,583.457,323.906,584.41,326.269,584.682z M314.983,576.342h4.974v-3.176h0.892v3.176h4.926v0.852h-4.926v0.75
					l0.328-0.482c2.127,0.898,3.757,1.619,4.892,2.162l-0.411,0.826c-1.322-0.738-2.925-1.5-4.81-2.289v1.322h-0.892v-2.123
					c-1.392,1.424-2.972,2.439-4.739,3.051c-0.164-0.264-0.356-0.543-0.575-0.84c1.783-0.541,3.281-1.334,4.493-2.377h-4.153
					V576.342z M316.063,574.207l0.574-0.674c0.837,0.645,1.525,1.225,2.065,1.742l-0.634,0.75
					C317.583,575.498,316.915,574.893,316.063,574.207z M324.791,574.219c-0.485,0.441-1.208,1.047-2.17,1.818l-0.61-0.674
					c0.625-0.482,1.329-1.092,2.111-1.83L324.791,574.219z"/>
			</g>
		</g>
		<g>
			<g>
				<path fill="#231815" d="M404.418,584.236l3.437,0.076l3.238-0.139c-0.133,0.346-0.258,0.686-0.375,1.016l-3.496,0.025
					l-3.003-0.037c-1.244-0.035-2.178-0.527-2.804-1.475c-0.485,0.447-0.977,1.004-1.479,1.664l-0.504-1.08
					c0.02-0.025,0.54-0.508,1.56-1.449v-4.334h-1.501v-0.941h2.439v5.453C402.522,583.809,403.352,584.215,404.418,584.236z
					 M400.735,573.215c0.602,0.789,1.196,1.602,1.784,2.441l-0.833,0.609c-0.525-0.846-1.08-1.676-1.667-2.49L400.735,573.215z
					 M407.351,579.482l0.74-0.51c0.884,1.256,1.666,2.463,2.346,3.625l-0.845,0.621c-0.175-0.322-0.356-0.643-0.54-0.965
					c-2.22,0.152-3.812,0.297-4.774,0.432c-0.266,0.043-0.543,0.115-0.833,0.217l-0.434-0.916c0.306-0.229,0.559-0.5,0.762-0.813
					c0.532-0.875,1.057-1.887,1.573-3.039h-2.499v-0.965h8.035v0.965h-4.422c-0.677,1.348-1.33,2.529-1.96,3.547
					c1.189-0.076,2.541-0.17,4.054-0.279C408.167,580.752,407.766,580.113,407.351,579.482z M403.632,573.889h6.569v0.967h-6.569
					V573.889z"/>
				<path fill="#231815" d="M415.646,580.156c0.493,1.152,0.946,2.297,1.361,3.432c-0.344,0.162-0.638,0.301-0.879,0.42
					c-0.055-0.16-0.11-0.322-0.165-0.484c-1.49,0.152-2.846,0.307-4.07,0.459l-0.412-1.029c0.345-0.213,0.622-0.557,0.833-1.029
					c0.383-0.836,0.783-1.895,1.196-3.178h-1.982v-0.941h5.667v0.941h-2.698c-0.669,1.803-1.248,3.207-1.736,4.207
					c0.898-0.074,1.867-0.168,2.903-0.287c-0.262-0.721-0.538-1.426-0.827-2.117L415.646,580.156z M412.021,574.232h4.704v0.941
					h-4.704V574.232z M416.843,575.771h1.747c0.012-0.852,0.016-1.727,0.012-2.619h0.962c-0.005,0.885-0.014,1.758-0.03,2.619h3.162
					c-0.056,3.201-0.133,5.783-0.235,7.74c-0.086,1.195-0.598,1.801-1.536,1.818c-0.485,0-1.013-0.014-1.583-0.039
					c-0.055-0.355-0.118-0.729-0.188-1.117c0.539,0.074,1.032,0.117,1.477,0.127c0.579,0,0.88-0.354,0.903-1.057
					c0.118-2.1,0.188-4.271,0.211-6.508h-2.228c-0.008,0.365-0.016,0.725-0.024,1.08c-0.039,3.34-0.97,5.975-2.792,7.908
					c-0.219-0.289-0.455-0.578-0.705-0.865c1.635-1.576,2.487-3.934,2.558-7.068c0.008-0.348,0.016-0.697,0.024-1.055h-1.736
					V575.771z"/>
				<path fill="#231815" d="M423.424,579.088c1.229-1.797,2.151-3.795,2.769-5.998l0.95,0.342c-0.388,1.178-0.809,2.264-1.267,3.254
					v8.975h-0.892v-7.232c-0.372,0.652-0.762,1.254-1.172,1.805C423.703,579.867,423.573,579.486,423.424,579.088z M435.238,582.863
					c-0.305,0.33-0.575,0.645-0.809,0.939c-1.377-1.469-2.468-3.416-3.274-5.84v7.697h-0.89v-7.844
					c-0.729,2.25-1.866,4.293-3.415,6.127c-0.203-0.27-0.431-0.551-0.681-0.838c1.643-1.855,2.878-3.936,3.708-6.242h-3.097v-0.914
					h3.485v-2.783h0.89v2.783h3.602v0.914h-3.243C432.359,579.396,433.6,581.396,435.238,582.863z"/>
				<path fill="#231815" d="M436.072,575.58h0.914v10.029h-0.914V575.58z M436.681,573.775l0.668-0.648
					c0.432,0.441,0.981,1.033,1.654,1.779l-0.761,0.725C437.599,574.834,437.081,574.217,436.681,573.775z M437.337,582.635
					c1.198-0.99,2.316-2.385,3.356-4.182h-2.759v-0.902h2.922v-1.756h0.879v1.756h2.934v0.902h-2.934v1.627l0.412-0.445
					c1,0.779,1.936,1.58,2.804,2.402l-0.693,0.801c-0.775-0.881-1.616-1.678-2.522-2.389v3.875h-0.879v-4.549
					c-0.932,1.533-1.881,2.74-2.852,3.621C437.842,583.168,437.62,582.914,437.337,582.635z M439.767,574.893v-0.953h6.767v9.967
					c0,1.135-0.566,1.703-1.7,1.703c-0.438,0-1.025-0.01-1.759-0.025c-0.032-0.254-0.096-0.598-0.189-1.031
					c0.65,0.053,1.248,0.078,1.795,0.078c0.625,0,0.938-0.307,0.938-0.916v-8.822H439.767z"/>
				<path fill="#231815" d="M459.194,584.682c-0.157,0.195-0.363,0.529-0.623,1.004c-2.541-0.535-4.297-1.713-5.268-3.533
					c-0.695,1.871-2.447,3.08-5.254,3.621c-0.141-0.287-0.309-0.602-0.504-0.939c2.643-0.391,4.277-1.395,4.904-3.014h-4.636v-0.889
					h4.881c0.062-0.279,0.114-0.615,0.152-1.004h0.938c-0.055,0.381-0.109,0.717-0.164,1.004h5.172v0.889h-4.704
					C455.131,583.457,456.833,584.41,459.194,584.682z M447.909,576.342h4.974v-3.176h0.891v3.176h4.927v0.852h-4.927v0.75
					l0.328-0.482c2.129,0.898,3.758,1.619,4.893,2.162l-0.412,0.826c-1.32-0.738-2.924-1.5-4.809-2.289v1.322h-0.891v-2.123
					c-1.393,1.424-2.972,2.439-4.74,3.051c-0.164-0.264-0.357-0.543-0.575-0.84c1.784-0.541,3.282-1.334,4.493-2.377h-4.151V576.342
					z M448.988,574.207l0.575-0.674c0.836,0.645,1.525,1.225,2.063,1.742l-0.634,0.75
					C450.509,575.498,449.84,574.893,448.988,574.207z M457.714,574.219c-0.484,0.441-1.207,1.047-2.17,1.818l-0.609-0.674
					c0.625-0.482,1.329-1.092,2.111-1.83L457.714,574.219z"/>
			</g>
		</g>
		<g>
			<path fill="#231815" d="M290.711,600.527h5.631c-0.396-0.813-0.705-1.406-0.927-1.779l0.903-0.457
				c0.219,0.363,0.548,0.957,0.986,1.779l-0.845,0.457h5.514v0.939h-2.165c-0.418,2.42-1.318,4.365-2.699,5.836
				c1.041,0.822,2.693,1.559,4.956,2.211c-0.359,0.441-0.633,0.809-0.82,1.105c-2.205-0.826-3.834-1.689-4.887-2.592
				c-1.056,0.889-2.743,1.787-5.062,2.695c-0.203-0.297-0.438-0.629-0.703-0.992c2.236-0.729,3.92-1.541,5.05-2.434
				c-1.428-1.654-2.335-3.596-2.722-5.83h-2.211V600.527z M298.806,601.467h-4.945c0.352,2.086,1.193,3.809,2.522,5.168
				C297.655,605.355,298.461,603.633,298.806,601.467z"/>
			<path fill="#231815" d="M302.526,604.633c1.36-1.957,2.361-4.039,3.003-6.242l1.02,0.318c-0.372,1.051-0.775,2.041-1.209,2.969
				v9.094h-0.985v-7.18c-0.434,0.762-0.896,1.477-1.384,2.146C302.838,605.375,302.689,605.006,302.526,604.633z M305.822,606.195
				c1.024-0.516,1.983-1.111,2.874-1.785v-5.828h1.009v5.01c1.197-1.047,2.26-2.256,3.192-3.625l0.855,0.674
				c-1.137,1.641-2.487,3.076-4.047,4.303v3.592c0,0.576,0.282,0.863,0.846,0.863h1.489c0.532,0,0.841-0.273,0.927-0.826
				c0.109-0.574,0.18-1.24,0.21-1.994c0.328,0.135,0.672,0.258,1.033,0.367c-0.063,0.713-0.145,1.365-0.247,1.959
				c-0.149,0.975-0.711,1.461-1.689,1.461h-1.982c-1.064,0-1.596-0.566-1.596-1.703v-2.975c-0.73,0.508-1.501,0.975-2.311,1.398
				C306.221,606.807,306.033,606.51,305.822,606.195z"/>
			<path fill="#231815" d="M320.31,599.637l0.705,0.496c-0.477,0.771-1.009,1.535-1.595,2.287h0.868v0.84h-1.538
				c-0.312,0.381-0.633,0.75-0.962,1.105h1.924v0.764l-1.513,1.613v0.229c0.633-0.117,1.333-0.252,2.1-0.406
				c-0.024,0.322-0.039,0.615-0.046,0.877c-0.642,0.119-1.326,0.25-2.053,0.395v1.387c0.055,1.049-0.399,1.553-1.361,1.512
				c-0.336,0-0.771-0.01-1.302-0.025c-0.03-0.271-0.07-0.59-0.117-0.953c0.367,0.043,0.786,0.066,1.255,0.076
				c0.492,0.051,0.719-0.188,0.68-0.713v-1.117c-0.758,0.152-1.556,0.316-2.393,0.496l-0.141-0.93
				c0.65-0.102,1.494-0.244,2.534-0.432V606.5l1.232-1.32h-1.572c-0.649,0.645-1.299,1.236-1.948,1.779
				c-0.157-0.238-0.339-0.479-0.551-0.725c0.453-0.348,0.876-0.699,1.267-1.055h-0.974v-0.814h1.818
				c0.368-0.355,0.724-0.725,1.068-1.105h-3.039v-0.84h2.311v-1.295h-1.842v-0.84h1.842v-1.729h0.844v1.729h1.443v0.84h-1.443v1.295
				h0.575C319.091,601.564,319.731,600.639,320.31,599.637z M319.958,604.773c0.883-1.764,1.591-3.84,2.123-6.23l0.857,0.23
				c-0.157,0.693-0.336,1.385-0.54,2.07h3.66v0.916h-1.149c-0.056,2.188-0.548,4.068-1.478,5.645
				c0.711,1.059,1.646,1.885,2.803,2.479c-0.218,0.348-0.402,0.66-0.551,0.939c-1.142-0.711-2.073-1.58-2.792-2.605
				c-0.79,1.068-1.814,1.979-3.073,2.734c-0.141-0.221-0.333-0.5-0.575-0.84c1.306-0.721,2.35-1.631,3.132-2.734
				c-0.547-0.99-0.918-2.109-1.114-3.354c-0.181,0.414-0.364,0.826-0.552,1.232C320.458,605.078,320.208,604.916,319.958,604.773z
				 M321.847,602.498c0.156,1.541,0.512,2.877,1.067,4.002c0.712-1.338,1.092-2.918,1.138-4.74h-1.947
				C322.026,602.006,321.94,602.252,321.847,602.498z"/>
			<path fill="#231815" d="M334.869,600.756c1.001,0.746,1.991,1.521,2.968,2.326l-0.669,0.725
				c-0.324-0.305-0.663-0.609-1.015-0.916c-3.065,0.014-5.406,0.061-7.021,0.141c-0.493,0.025-0.915,0.072-1.267,0.139l-0.329-1.066
				c0.54-0.109,0.974-0.271,1.302-0.482c0.469-0.301,0.934-0.656,1.396-1.068h-3.531v-0.891h5.501
				c-0.164-0.309-0.344-0.635-0.54-0.979l0.81-0.432c0.355,0.602,0.619,1.072,0.791,1.41h4.828v0.891h-6.476
				c-0.775,0.594-1.483,1.109-2.124,1.551c1.834,0,3.708-0.021,5.62-0.064c-0.259-0.207-0.525-0.414-0.797-0.621L334.869,600.756z
				 M328.241,603.908h8.354v5.25c0,1-0.548,1.5-1.643,1.5c-0.367,0-0.817-0.004-1.349-0.014c-0.016-0.084-0.079-0.432-0.188-1.041
				c0.539,0.084,1.032,0.127,1.477,0.127c0.525,0,0.794-0.242,0.81-0.725v-0.395h-6.57v2.16h-0.892V603.908z M335.702,604.773h-6.57
				v1.08h6.57V604.773z M329.132,607.771h6.57v-1.08h-6.57V607.771z"/>
		</g>
		<rect x="369.918" y="593.02" fill="#FFFAC4" stroke="#231815" width="22.72" height="22.025"/>
		<g>
			<g>
				<path fill="#231815" d="M403.762,608.395l-0.622,0.75c-0.282-0.346-0.599-0.709-0.95-1.086c-0.54,0.979-1.271,1.883-2.194,2.713
					c-0.172-0.27-0.368-0.529-0.586-0.775c0.93-0.779,1.647-1.641,2.152-2.586c-0.508-0.514-1.077-1.049-1.707-1.607
					c0.254-1.322,0.465-2.67,0.633-4.043h-0.938v-0.863h1.044c0.09-0.822,0.165-1.652,0.224-2.492l0.903,0.076
					c-0.086,0.834-0.179,1.641-0.276,2.416h2.083v0.711c-0.067,2.398-0.376,4.268-0.927,5.605
					C403.035,607.633,403.422,608.027,403.762,608.395z M402.706,601.76h-1.373c-0.181,1.352-0.376,2.605-0.586,3.764
					c0.421,0.371,0.817,0.727,1.184,1.066C402.378,605.4,402.636,603.789,402.706,601.76z M403.493,606.311h3.02
					c0.082-0.463,0.127-0.986,0.135-1.576h-2.664v-0.863h6.476v0.863h-2.92c-0.004,0.568-0.048,1.094-0.129,1.576h3.483v0.863
					h-3.096c0.723,1.416,1.822,2.268,3.296,2.557c-0.29,0.373-0.524,0.715-0.705,1.029c-1.474-0.547-2.569-1.633-3.284-3.26
					c-0.517,1.504-1.736,2.641-3.661,3.412c-0.18-0.305-0.399-0.613-0.657-0.928c1.845-0.576,3.013-1.514,3.502-2.811h-2.797
					V606.311z M404.29,598.85h5.783v4.195h-0.856v-0.535h-4.071v0.535h-0.855V598.85z M409.217,599.715h-4.071v1.932h4.071V599.715z
					"/>
				<path fill="#231815" d="M414.426,605.674l0.82,0.623c-1.134,1.637-2.158,2.928-3.073,3.879
					c-0.218-0.213-0.465-0.451-0.739-0.713C412.514,608.301,413.51,607.039,414.426,605.674z M413.065,599.383
					c2.964-0.068,5.772-0.262,8.423-0.584l0.317,0.992c-2.784,0.279-5.408,0.443-7.872,0.494l-0.445,3.662h3.426v-2.887h0.973v2.887
					h4.622v0.965h-4.622v3.992c0,0.652-0.109,1.1-0.329,1.348c-0.242,0.27-0.637,0.406-1.184,0.406c-0.29,0-0.81-0.004-1.561-0.014
					c-0.039-0.338-0.101-0.703-0.188-1.094c0.79,0.078,1.302,0.111,1.538,0.104c0.5,0.016,0.751-0.264,0.751-0.84v-3.902h-4.529
					L413.065,599.383z M420.022,605.65c1.149,1.262,2.182,2.516,3.096,3.762l-0.785,0.764c-0.908-1.289-1.925-2.594-3.051-3.916
					L420.022,605.65z"/>
				<path fill="#231815" d="M435.167,609.883c-0.157,0.195-0.364,0.529-0.623,1.004c-2.541-0.533-4.297-1.713-5.267-3.533
					c-0.695,1.871-2.447,3.08-5.255,3.621c-0.141-0.287-0.309-0.6-0.505-0.939c2.643-0.391,4.278-1.395,4.904-3.014h-4.635v-0.889
					h4.88c0.063-0.279,0.114-0.615,0.154-1.004h0.938c-0.056,0.381-0.11,0.717-0.165,1.004h5.173v0.889h-4.704
					C431.104,608.658,432.806,609.611,435.167,609.883z M423.882,601.543h4.975v-3.176h0.891v3.176h4.927v0.854h-4.927v0.748
					l0.329-0.482c2.128,0.898,3.758,1.619,4.892,2.162l-0.411,0.826c-1.32-0.738-2.925-1.5-4.809-2.289v1.322h-0.891v-2.123
					c-1.393,1.424-2.973,2.439-4.741,3.051c-0.164-0.264-0.355-0.543-0.575-0.838c1.784-0.543,3.281-1.336,4.494-2.377h-4.153
					V601.543z M424.961,599.408l0.575-0.674c0.836,0.645,1.525,1.225,2.064,1.742l-0.634,0.75
					C426.483,600.701,425.813,600.096,424.961,599.408z M433.688,599.422c-0.484,0.439-1.207,1.045-2.17,1.816l-0.609-0.674
					c0.625-0.482,1.33-1.092,2.111-1.83L433.688,599.422z"/>
			</g>
		</g>
	</g>
</g>
<rect x="65.048" y="49.422" fill="#B3B3B3" width="897.903" height="468.578"/>
<g>
	<polygon fill="#808080" points="108.222,81.429 188.913,81.429 188.913,194.831 160.563,194.831 160.563,243.354 108.768,243.354 	
		"/>
	<polygon fill="#808080" points="188.913,81.429 188.913,194.831 228.167,194.831 228.167,213.913 260.334,213.913 260.334,147.944 
		284.869,147.944 285.959,80.885 	"/>
	<rect x="284.869" y="80.885" fill="#808080" width="64.334" height="66.513"/>
	<rect x="349.203" y="80.885" fill="#808080" width="64.334" height="66.51"/>
	<rect x="413.537" y="80.885" fill="#808080" width="56.702" height="66.513"/>
	<rect x="470.238" y="80.885" fill="#808080" width="131.393" height="66.513"/>
	<path fill="#808080" d="M601.631,80.885c0,0,0,67.198,0,67.747c0-2.148,12.053,2.028,13.047,2.514
		c5.775,2.819,13.668,9.662,13.668,16.769v73.26h52.887l0.545-160.289H601.631z"/>
	<path fill="#808080" d="M160.018,243.354v22.354c0,0,1.089,10.36,13.63,8.178h54.52v-30.532H160.018z"/>
	<path fill="#808080" d="M228.167,243.354h32.167v23.162c0,0,0.546,6.842-10.359,7.37h-21.808V243.354z"/>
	<rect x="327.94" y="170.843" fill="#808080" width="46.887" height="53.975"/>
	<path fill="#808080" d="M327.94,170.843v53.975h-46.342v-41.436c0,0-0.545-11.449,13.63-12.539H327.94z"/>
	<rect x="281.598" y="224.818" fill="#808080" width="93.229" height="53.429"/>
	<polygon fill="#808080" points="389.547,170.843 389.547,235.721 437.526,235.721 437.526,170.297 	"/>
	<rect x="389.547" y="235.721" fill="#808080" width="93.776" height="41.437"/>
	<path fill="#808080" d="M437.526,170.297c0,0,32.166,0,32.332,0c13.864,0.003,13.604,11.807,13.439,21.333
		c-0.205,11.731-0.026,23.501,0.003,35.238c0,0.456,0.058,8.853,0.022,8.853c-0.042,0-45.796,0-45.796,0V170.297z"/>
	<path fill="#808080" d="M108.224,298.42h79.599c0,0,13.629,1.636,14.72,15.267c-0.162,18.133-0.094,36.29-0.435,54.417
		c-0.204,10.883,7.014,22.891,19.518,19.186c0,0,7.634,1.091,6.543,3.271h-65.425v97.045h-52.884L108.224,298.42z"/>
	<path fill="#808080" d="M243.98,399.826v58.336h-16.902v28.352l125.941,0.548l0.545-82.873
		C353.564,404.188,279.963,405.277,243.98,399.826z"/>
	<rect x="353.564" y="404.188" fill="#808080" width="60.517" height="82.325"/>
	<path fill="#808080" d="M414.627,404.188l-0.546,50.161l88.323-0.547c0,0-1.087-66.938-1.089-67.059
		c0.032,2.005-9.165,8.301-10.656,9.497c-11.632,9.322-30.373,8.057-44.41,8.493C435.779,405.061,425.099,403.86,414.627,404.188z"
		/>
	<rect x="602.723" y="358.666" fill="#808080" width="77.418" height="68.422"/>
	<path fill="#808080" d="M554.746,358.391v0.005H531.35c-19.308,1.078-24.315,16.715-24.315,16.715
		c-5.719,13.488-5.719,11.87-5.719,11.87l0.715,21.031l47.194,0.54v-15.1h5.521v0.38h47.977v-35.441H554.746z"/>
	<rect x="499.679" y="295.149" fill="#808080" width="110.676" height="40.344"/>
	<polygon fill="#808080" points="558.561,169.751 501.315,169.751 501.315,241.719 539.479,241.719 539.479,175.204 
		558.561,175.204 	"/>
	<path fill="#808080" d="M501.315,238.447c0,0-0.002,35.182,31.622,38.164H610.9l-0.271-37.271L501.315,238.447z"/>
	<polygon fill="#808080" points="558.561,169.751 558.561,175.176 573.826,175.176 573.826,222.363 610.355,222.363 
		610.355,169.751 	"/>
	<path fill="#808080" d="M930.996,240.765L930.996,240.765h21.4v-64.278h-21.4v-26.292h-0.279l0.279-16.8l20.662-0.09l-0.004-52.5
		h-0.275v-0.732H687.563v419.263h0.074v1.763h262.924v-1.765h0.357V395.613h-20.656v-27.025h-39.83V240.765H930.996z
		 M790.84,175.592h42.787v62.707h-33.564v-19.81h-9.223V175.592z"/>
	<rect x="334.754" y="359.765" fill="#808080" width="106.861" height="17.438"/>
</g>
<line fill="none" stroke="#231815" x1="496.271" y1="198.92" x2="533.479" y2="198.92"/>
<line fill="none" stroke="#000000" x1="553.652" y1="233.191" x2="553.652" y2="270.887"/>
</svg>
