<?xml version="1.0" encoding="utf-8"?>
<!-- Generator: Adobe Illustrator 15.0.0, SVG Export Plug-In . SVG Version: 6.00 Build 0)  -->
<!DOCTYPE svg PUBLIC "-//W3C//DTD SVG 1.1//EN" "http://www.w3.org/Graphics/SVG/1.1/DTD/svg11.dtd">
<svg version="1.1" id="图层_1" xmlns="http://www.w3.org/2000/svg" xmlns:xlink="http://www.w3.org/1999/xlink" x="0px" y="0px"
	 width="1028px" height="680px" viewBox="0 0 1028 680" enable-background="new 0 0 1028 680" xml:space="preserve">
<g>
	<rect x="265.669" y="148.171" fill="#E50012" width="37.243" height="37.671"/>
	<g>
		<polygon fill-rule="evenodd" clip-rule="evenodd" fill="#FFFFFF" points="273.702,152.947 278.105,152.947 284.429,162.072 
			290.845,153.111 295.586,153.111 286.54,165.354 286.54,166.042 293.864,166.07 293.864,169.08 286.571,169.08 286.571,171.114 
			293.864,171.114 293.864,173.932 286.59,173.932 286.59,179.804 282.377,179.804 282.377,173.979 275.237,173.979 
			275.237,171.133 282.374,171.133 282.374,169.115 275.237,169.115 275.237,166.084 282.368,166.084 282.368,165.361 		"/>
		<g>
			<path fill="#FFFFFF" d="M272.241,150.257h24.799c2.041,0,3.716,1.671,3.716,3.714v24.801c0,2.048-1.675,3.718-3.716,3.718
				h-24.799c-2.044,0-3.719-1.67-3.719-3.718v-24.801C268.521,151.928,270.196,150.257,272.241,150.257L272.241,150.257z
				 M272.241,151.493c-1.363,0-2.481,1.115-2.481,2.478v24.801c0,1.367,1.118,2.488,2.481,2.488h24.799
				c1.369,0,2.48-1.122,2.48-2.488v-24.801c0-1.362-1.112-2.478-2.48-2.478H272.241z"/>
			<g>
				<g>
					<polygon fill-rule="evenodd" clip-rule="evenodd" fill="#FFFFFF" points="274.844,175.526 275.233,175.526 275.233,175.523 
						275.224,175.523 274.916,174.916 274.916,174.913 274.65,174.913 274.65,174.771 275.329,174.771 275.329,174.913 
						275.162,174.913 275.468,175.488 275.512,175.488 275.842,174.913 275.666,174.913 275.666,174.771 276.34,174.771 
						276.34,174.913 276.091,174.913 276.091,174.916 275.764,175.488 275.77,175.488 275.77,175.526 276.15,175.526 
						276.15,175.657 275.77,175.657 275.77,175.868 276.15,175.868 276.15,176.013 275.77,176.013 275.77,176.813 276.052,176.813 
						276.052,176.957 274.941,176.957 274.941,176.813 275.233,176.813 275.233,176.013 274.844,176.013 274.844,175.868 
						275.233,175.868 275.233,175.657 274.844,175.657 					"/>
					<path fill-rule="evenodd" clip-rule="evenodd" fill="#FFFFFF" d="M273.362,173.128c0.176-0.394,0.566-0.298,0.686,0v0.851
						h0.245v-1.139c0.173-0.378,0.542-0.314,0.695,0v1.139h0.242v-1.405c0.154-0.367,0.524-0.367,0.692,0v1.405h0.241v-1.125
						c0.112-0.354,0.607-0.388,0.691,0v1.125h2.056v3.741h-1.233c-0.038,1.226-0.979,2.211-2.137,2.211
						c-1.161,0-2.104-0.985-2.146-2.211h-1.358v-3.741h1.327V173.128L273.362,173.128z M276.96,175.852
						c0.171-0.812,0.567-0.604,0.686,0v1.676h1.038v-3.335h-6.449v3.335h4.726V175.852z"/>
				</g>
				<path fill="#FFFFFF" d="M271.448,170.87h8.059c0.664,0,1.211,0.545,1.211,1.212v8.066c0,0.671-0.547,1.211-1.211,1.211h-8.059
					c-0.674,0-1.216-0.54-1.216-1.211v-8.066C270.232,171.415,270.774,170.87,271.448,170.87L271.448,170.87z M271.448,171.274
					c-0.449,0-0.813,0.369-0.813,0.808v8.066c0,0.451,0.364,0.817,0.813,0.817h8.059c0.451,0,0.811-0.367,0.811-0.817v-8.066
					c0-0.438-0.36-0.808-0.811-0.808H271.448z"/>
			</g>
		</g>
	</g>
</g>
<g>
	<rect x="103.663" y="243.169" fill="#E50012" width="41.782" height="40.89"/>
	<g>
		<path fill-rule="evenodd" clip-rule="evenodd" fill="#FFFFFF" d="M111.596,248.813h4.448v29.417h-4.448V248.813L111.596,248.813z
			 M133.085,248.813h4.445v29.474h-4.445V248.813L133.085,248.813z M122.024,250.899l2.489-2.042l2.509,2.014l-0.012,1.554
			l-1.811-1.487l0.021,3.663l-1.433-0.003l0.019-3.608l-1.79,1.471L122.024,250.899L122.024,250.899z M122.117,276.375l2.483,2.043
			l2.512-2.025l-0.011-1.539l-1.811,1.479l0.032-3.672l-1.444,0.015l0.023,3.603l-1.799-1.455L122.117,276.375L122.117,276.375z
			 M122.601,256.642c-0.443,0-0.812,0.368-0.812,0.83c0,0.436,0.368,0.805,0.812,0.805c0.449,0,0.816-0.369,0.816-0.805
			C123.417,257.009,123.05,256.642,122.601,256.642L122.601,256.642z M123.967,258.743l-2.542-0.024
			c-0.708-0.058-0.975,0.317-1.004,0.873l0.01,4.808c0.115,0.364,0.658,0.351,0.755,0.026c0-1.398,0-2.719,0-4.106
			c0.022-0.068,0.196-0.081,0.221,0l0.004,9.556c0.16,0.45,0.683,0.681,0.996,0.017l0.007-5.766
			c0.041-0.201,0.403-0.188,0.416,0.014v5.734c0.29,0.568,0.793,0.577,0.993-0.032v-9.524c0.031-0.068,0.222-0.1,0.252-0.034
			l0.739,1.478c0.056,0.162,0.215,0.302,0.422,0.219l1.913-1.196c0.229-0.432-0.26-0.701-0.393-0.669l-1.391,0.831l-0.482-1.279
			C124.721,259.295,124.6,258.735,123.967,258.743L123.967,258.743z M128.212,257.476c0.269,0,0.492,0.223,0.492,0.497
			c0,0.267-0.224,0.495-0.492,0.495c-0.27,0-0.488-0.228-0.488-0.495C127.724,257.699,127.943,257.476,128.212,257.476
			L128.212,257.476z M128.212,258.848c0.269,0,0.492,0.214,0.492,0.496c0,0.271-0.224,0.486-0.492,0.486
			c-0.27,0-0.488-0.215-0.488-0.486C127.724,259.062,127.943,258.848,128.212,258.848L128.212,258.848z M128.212,260.211
			c0.269,0,0.492,0.231,0.492,0.503c0,0.268-0.224,0.493-0.492,0.493c-0.27,0-0.488-0.225-0.488-0.493
			C127.724,260.442,127.943,260.211,128.212,260.211L128.212,260.211z M128.212,261.524c0.269,0,0.492,0.224,0.492,0.494
			c0,0.274-0.224,0.489-0.492,0.489c-0.27,0-0.488-0.215-0.488-0.489C127.724,261.748,127.943,261.524,128.212,261.524
			L128.212,261.524z M117.396,254.768l14.336,0.04l0.017,17.622l-14.375-0.02L117.396,254.768L117.396,254.768z M118.854,256.166
			l11.354,0.035l0.007,14.88l-11.373-0.016L118.854,256.166z"/>
		<path fill="#FFFFFF" d="M111.383,246.485h26.353c2.177,0,3.958,1.775,3.958,3.961v26.352c0,2.167-1.781,3.948-3.958,3.948h-26.353
			c-2.167,0-3.951-1.78-3.951-3.948v-26.352C107.433,248.26,109.216,246.485,111.383,246.485L111.383,246.485z M111.383,247.799
			c-1.448,0-2.637,1.185-2.637,2.647v26.352c0,1.443,1.188,2.641,2.637,2.641h26.353c1.452,0,2.645-1.198,2.645-2.641v-26.352
			c0-1.462-1.193-2.647-2.645-2.647H111.383z"/>
	</g>
</g>
<g>
	<rect x="906.709" y="128.769" fill="#E50012" width="41.781" height="40.89"/>
	<g>
		<path fill-rule="evenodd" clip-rule="evenodd" fill="#FFFFFF" d="M914.643,134.412h4.449v29.417h-4.449V134.412L914.643,134.412z
			 M936.131,134.412h4.447v29.474h-4.447V134.412L936.131,134.412z M925.072,136.498l2.488-2.041l2.51,2.016l-0.012,1.552
			l-1.813-1.485l0.023,3.665l-1.434-0.003l0.02-3.61l-1.791,1.473L925.072,136.498L925.072,136.498z M925.164,161.975l2.482,2.045
			l2.514-2.026l-0.012-1.54l-1.813,1.479l0.031-3.672l-1.443,0.014l0.021,3.604l-1.797-1.457L925.164,161.975L925.164,161.975z
			 M925.648,142.242c-0.443,0-0.811,0.368-0.811,0.831c0,0.434,0.367,0.805,0.811,0.805c0.449,0,0.816-0.372,0.816-0.805
			C926.465,142.61,926.098,142.242,925.648,142.242L925.648,142.242z M927.014,144.344l-2.543-0.025
			c-0.707-0.059-0.975,0.315-1.002,0.873l0.01,4.806c0.113,0.364,0.656,0.352,0.756,0.027c0-1.398,0-2.718,0-4.106
			c0.021-0.067,0.195-0.08,0.221,0l0.004,9.558c0.158,0.449,0.684,0.681,0.996,0.016l0.006-5.766
			c0.041-0.202,0.402-0.188,0.416,0.014v5.736c0.289,0.567,0.793,0.577,0.992-0.032v-9.526c0.031-0.067,0.221-0.099,0.252-0.033
			l0.74,1.478c0.055,0.163,0.215,0.303,0.42,0.22l1.916-1.198c0.227-0.432-0.262-0.7-0.395-0.668l-1.391,0.831l-0.482-1.278
			C927.768,144.895,927.646,144.334,927.014,144.344L927.014,144.344z M931.26,143.076c0.268,0,0.49,0.224,0.49,0.499
			c0,0.267-0.223,0.494-0.49,0.494c-0.27,0-0.49-0.227-0.49-0.494C930.77,143.299,930.99,143.076,931.26,143.076L931.26,143.076z
			 M931.26,144.448c0.268,0,0.49,0.214,0.49,0.497c0,0.272-0.223,0.486-0.49,0.486c-0.27,0-0.49-0.214-0.49-0.486
			C930.77,144.662,930.99,144.448,931.26,144.448L931.26,144.448z M931.26,145.811c0.268,0,0.49,0.231,0.49,0.504
			c0,0.267-0.223,0.492-0.49,0.492c-0.27,0-0.49-0.225-0.49-0.492C930.77,146.042,930.99,145.811,931.26,145.811L931.26,145.811z
			 M931.26,147.123c0.268,0,0.49,0.226,0.49,0.495c0,0.275-0.223,0.49-0.49,0.49c-0.27,0-0.49-0.214-0.49-0.49
			C930.77,147.349,930.99,147.123,931.26,147.123L931.26,147.123z M920.443,140.368l14.336,0.04l0.016,17.621l-14.373-0.019
			L920.443,140.368L920.443,140.368z M921.902,141.766l11.354,0.035l0.006,14.88l-11.373-0.016L921.902,141.766z"/>
		<path fill="#FFFFFF" d="M914.43,132.085h26.352c2.18,0,3.959,1.774,3.959,3.961v26.352c0,2.167-1.779,3.947-3.959,3.947H914.43
			c-2.168,0-3.951-1.78-3.951-3.947v-26.352C910.479,133.859,912.262,132.085,914.43,132.085L914.43,132.085z M914.43,133.4
			c-1.447,0-2.637,1.185-2.637,2.646v26.352c0,1.443,1.189,2.641,2.637,2.641h26.352c1.453,0,2.646-1.198,2.646-2.641v-26.352
			c0-1.461-1.193-2.646-2.646-2.646H914.43z"/>
	</g>
</g>
<g>
	<rect x="890.67" y="248.34" fill="#E50012" width="40.266" height="40.267"/>
	<g>
		<path fill-rule="evenodd" clip-rule="evenodd" fill="#FFFFFF" d="M908.943,256.217c0.938,0,1.703,0.76,1.703,1.701
			c0,0.938-0.766,1.698-1.703,1.698c-0.941,0-1.711-0.76-1.711-1.698C907.232,256.977,908.002,256.217,908.943,256.217
			L908.943,256.217z M907.143,267.554l-6.938,5.547c0,0-1.059-0.137-2.15,0.268c-0.654,0.236-1.313,0.709-1.754,1.383
			c-1.338,2.038-0.477,5.46,2.158,5.899c0.887,0.148,3.736,0.021,3.736,0.021l18.984-15.07l1.791,0.012c0,0,2.225-0.512,2.715-2.414
			c0.488-1.891,0.061-3.381-0.766-4.185c-0.824-0.834-1.814-1.105-1.814-1.105h-4.152l-8.314,6.746l-0.066-2.969
			c0,0,0-1.529-1.516-1.56c-1.514-0.035-1.865,1.049-1.865,1.498C907.191,262.06,907.143,267.554,907.143,267.554L907.143,267.554z
			 M900.545,274.312c-1.082-0.024-1.98-0.08-2.559,0.311c-2.066,1.393-1.17,4.967,1.127,4.931l2.707-0.046l18.916-15.182
			c0.016-0.009,1.932,0.052,2.379-0.042c0.447-0.096,1.65-0.955,1.58-2.723c-0.057-1.759-1.703-2.433-1.703-2.433l-3.645,0.019
			L900.545,274.312z"/>
		<path fill="#FFFFFF" d="M897.75,251.529h26.063c2.154,0,3.916,1.761,3.916,3.911v26.072c0,2.139-1.762,3.907-3.916,3.907H897.75
			c-2.15,0-3.906-1.768-3.906-3.907v-26.072C893.844,253.29,895.6,251.529,897.75,251.529L897.75,251.529z M897.75,252.828
			c-1.43,0-2.605,1.174-2.605,2.612v26.072c0,1.426,1.176,2.604,2.605,2.604h26.063c1.441,0,2.615-1.178,2.615-2.604v-26.072
			c0-1.438-1.174-2.612-2.615-2.612H897.75z"/>
	</g>
</g>
<g>
	<rect x="423.754" y="306.801" fill="#E50012" width="41.617" height="40.727"/>
	<g>
		<path fill-rule="evenodd" clip-rule="evenodd" fill="#FFFFFF" d="M431.656,312.424h4.43v29.299h-4.43V312.424L431.656,312.424z
			 M453.06,312.424h4.428v29.354h-4.428V312.424L453.06,312.424z M442.043,314.502l2.479-2.036l2.5,2.007l-0.012,1.547l-1.804-1.479
			l0.021,3.646l-1.425-0.002l0.019-3.596l-1.783,1.465L442.043,314.502L442.043,314.502z M442.135,339.875l2.475,2.033l2.5-2.017
			l-0.01-1.532l-1.804,1.472l0.033-3.655l-1.439,0.012l0.022,3.591l-1.792-1.45L442.135,339.875L442.135,339.875z M442.617,320.22
			c-0.44,0-0.808,0.365-0.808,0.828c0,0.435,0.368,0.799,0.808,0.799c0.449,0,0.814-0.364,0.814-0.799
			C443.431,320.585,443.065,320.22,442.617,320.22L442.617,320.22z M443.978,322.313l-2.531-0.024c-0.704-0.058-0.971,0.315-1,0.87
			l0.011,4.79c0.113,0.361,0.652,0.348,0.752,0.025c0-1.394,0-2.708,0-4.088c0.022-0.067,0.194-0.082,0.219,0l0.003,9.519
			c0.161,0.445,0.682,0.676,0.994,0.016l0.006-5.745c0.041-0.198,0.401-0.186,0.414,0.017v5.712c0.289,0.563,0.791,0.574,0.99-0.033
			v-9.486c0.03-0.067,0.221-0.099,0.25-0.034l0.737,1.471c0.056,0.161,0.215,0.3,0.419,0.217l1.906-1.19
			c0.229-0.433-0.257-0.699-0.39-0.668l-1.386,0.828l-0.48-1.274C444.729,322.861,444.609,322.304,443.978,322.313L443.978,322.313z
			 M448.207,321.053c0.267,0,0.489,0.219,0.489,0.494c0,0.265-0.222,0.491-0.489,0.491c-0.27,0-0.485-0.226-0.485-0.491
			C447.722,321.272,447.938,321.053,448.207,321.053L448.207,321.053z M448.207,322.417c0.267,0,0.489,0.212,0.489,0.496
			c0,0.267-0.222,0.481-0.489,0.481c-0.27,0-0.485-0.215-0.485-0.481C447.722,322.63,447.938,322.417,448.207,322.417
			L448.207,322.417z M448.207,323.776c0.267,0,0.489,0.228,0.489,0.5c0,0.267-0.222,0.49-0.489,0.49c-0.27,0-0.485-0.224-0.485-0.49
			C447.722,324.004,447.938,323.776,448.207,323.776L448.207,323.776z M448.207,325.082c0.267,0,0.489,0.224,0.489,0.495
			c0,0.273-0.222,0.487-0.489,0.487c-0.27,0-0.485-0.214-0.485-0.487C447.722,325.306,447.938,325.082,448.207,325.082
			L448.207,325.082z M437.433,318.356l14.279,0.039l0.017,17.549l-14.316-0.019L437.433,318.356L437.433,318.356z M438.886,319.747
			l11.309,0.033l0.008,14.821l-11.329-0.017L438.886,319.747z"/>
		<path fill="#FFFFFF" d="M431.444,310.103h26.248c2.167,0,3.942,1.77,3.942,3.946v26.247c0,2.16-1.775,3.933-3.942,3.933h-26.248
			c-2.161,0-3.935-1.773-3.935-3.933v-26.247C427.51,311.873,429.284,310.103,431.444,310.103L431.444,310.103z M431.444,311.415
			c-1.443,0-2.626,1.177-2.626,2.634v26.247c0,1.438,1.183,2.63,2.626,2.63h26.248c1.446,0,2.633-1.192,2.633-2.63v-26.247
			c0-1.457-1.187-2.634-2.633-2.634H431.444z"/>
	</g>
</g>
<g>
	<rect x="168.97" y="442.521" fill="#E50012" stroke="#231815" stroke-width="0.25" width="40.765" height="40.767"/>
	<g>
		<g>
			<path fill-rule="evenodd" clip-rule="evenodd" fill="#FFFFFF" d="M180.655,447.732c1.025,0,1.862,0.84,1.862,1.878
				c0,1.026-0.837,1.875-1.862,1.875c-1.026,0-1.864-0.849-1.864-1.875C178.791,448.572,179.628,447.732,180.655,447.732
				L180.655,447.732z M177.548,452.557l5.822-0.073c1.61-0.133,2.222,0.725,2.275,1.993l-0.015,11.03
				c-0.263,0.831-1.505,0.788-1.739,0.041c0.002-3.188,0.004-6.234,0.008-9.421c-0.049-0.155-0.451-0.163-0.511-0.008v21.94
				c-0.115,1.034-2.092,1.282-2.285,0.04l-0.01-12.921c-0.099-0.46-0.924-0.444-0.966,0.043l0.005,12.838
				c-0.333,1.151-2.097,1.116-2.276-0.058l0.003-21.883c-0.073-0.147-0.438-0.141-0.514,0.007l0.065,9.482
				c-0.424,0.825-1.295,0.69-1.604-0.073l-0.133-10.853C175.619,453.593,176.084,452.512,177.548,452.557L177.548,452.557z
				 M196.536,449.73c1.024,0,1.862,0.839,1.862,1.875c0,1.03-0.837,1.873-1.862,1.873c-1.025,0-1.863-0.843-1.863-1.873
				C194.673,450.569,195.511,449.73,196.536,449.73L196.536,449.73z M193.946,454.574c0.165,0,0.68,0,0.844-0.004
				c0.714,1.149,2.601,1.246,3.231-0.167l0.759-0.012c1.601,0.175,1.771,1.239,1.818,2.402l0.036,3.824l1.635,2.89
				c0.367,0.77-1.089,1.292-1.304,0.55l-1.684-3.104l-0.018-2.953c-0.043-0.141-0.494-0.141-0.486,0.022l-0.008,2.279l-0.002,0.871
				l4.219,7.733h-4.158l0.008,9.456c-0.308,0.837-1.873,0.955-2.079-0.022l0.021-9.508l-0.544,0.007l0.004,9.516
				c-0.215,0.878-1.872,0.904-1.958,0.002l-0.008-9.541l-3.919,0.054l3.954-7.76v-0.956l-0.015-2.191
				c-0.067-0.131-0.419-0.131-0.487,0.008l-0.024,2.969l-1.465,3.053c-0.42,0.824-1.736,0.123-1.283-0.642l1.298-2.764l0.014-3.753
				C192.293,455.824,192.361,454.773,193.946,454.574z"/>
			<path fill="#FFFFFF" d="M175.631,445.579h27.392c2.259,0,4.109,1.852,4.109,4.108v27.39c0,2.258-1.85,4.112-4.109,4.112h-27.392
				c-2.258,0-4.107-1.854-4.107-4.112v-27.39C171.524,447.431,173.373,445.579,175.631,445.579L175.631,445.579z M175.631,446.942
				c-1.506,0-2.742,1.236-2.742,2.745v27.39c0,1.507,1.235,2.743,2.742,2.743h27.392c1.509,0,2.742-1.236,2.742-2.743v-27.39
				c0-1.509-1.233-2.745-2.742-2.745H175.631z"/>
		</g>
		<rect x="187.562" y="448.557" fill="#FFFFFF" width="1.509" height="28.904"/>
	</g>
</g>
<g>
	<rect x="898.672" y="448.385" fill="#E50012" stroke="#231815" stroke-width="0.25" width="40.764" height="40.766"/>
	<g>
		<g>
			<path fill-rule="evenodd" clip-rule="evenodd" fill="#FFFFFF" d="M910.357,453.597c1.025,0,1.861,0.839,1.861,1.874
				c0,1.03-0.836,1.878-1.861,1.878c-1.027,0-1.867-0.848-1.867-1.878C908.49,454.436,909.33,453.597,910.357,453.597
				L910.357,453.597z M907.25,458.42l5.82-0.075c1.611-0.131,2.223,0.728,2.275,1.995l-0.014,11.03
				c-0.262,0.832-1.506,0.789-1.74,0.041c0-3.186,0.006-6.234,0.008-9.421c-0.049-0.152-0.449-0.163-0.512-0.008v21.939
				c-0.115,1.035-2.092,1.284-2.283,0.042l-0.01-12.923c-0.102-0.459-0.926-0.442-0.969,0.044l0.008,12.837
				c-0.332,1.153-2.098,1.118-2.275-0.055l0.002-21.885c-0.074-0.145-0.439-0.141-0.514,0.006l0.064,9.483
				c-0.424,0.826-1.295,0.689-1.604-0.07l-0.135-10.857C905.32,459.456,905.785,458.375,907.25,458.42L907.25,458.42z
				 M926.236,455.594c1.027,0,1.863,0.84,1.863,1.875c0,1.031-0.836,1.873-1.863,1.873c-1.025,0-1.861-0.842-1.861-1.873
				C924.375,456.434,925.211,455.594,926.236,455.594L926.236,455.594z M923.646,460.438c0.166,0,0.68,0,0.848-0.004
				c0.711,1.15,2.6,1.247,3.229-0.167l0.76-0.012c1.602,0.175,1.771,1.24,1.818,2.403l0.035,3.824l1.635,2.89
				c0.369,0.769-1.09,1.292-1.305,0.549l-1.684-3.101l-0.018-2.955c-0.045-0.142-0.496-0.142-0.486,0.023l-0.01,2.277l-0.002,0.871
				l4.221,7.734h-4.158l0.008,9.455c-0.309,0.839-1.871,0.956-2.08-0.022l0.023-9.504l-0.543,0.004l0.002,9.515
				c-0.213,0.879-1.873,0.905-1.957,0.002l-0.012-9.539l-3.914,0.053l3.951-7.763v-0.954l-0.016-2.189
				c-0.064-0.133-0.42-0.133-0.486,0.006l-0.025,2.97l-1.463,3.052c-0.42,0.824-1.734,0.122-1.283-0.641l1.299-2.766l0.014-3.752
				C921.996,461.686,922.064,460.637,923.646,460.438z"/>
			<path fill="#FFFFFF" d="M905.332,451.441h27.395c2.258,0,4.107,1.854,4.107,4.109v27.39c0,2.259-1.85,4.112-4.107,4.112h-27.395
				c-2.258,0-4.107-1.854-4.107-4.112v-27.39C901.225,453.295,903.074,451.441,905.332,451.441L905.332,451.441z M905.332,452.806
				c-1.504,0-2.74,1.236-2.74,2.745v27.39c0,1.506,1.236,2.743,2.74,2.743h27.395c1.506,0,2.74-1.237,2.74-2.743v-27.39
				c0-1.509-1.234-2.745-2.74-2.745H905.332z"/>
		</g>
		<rect x="917.264" y="454.42" fill="#FFFFFF" width="1.508" height="28.904"/>
	</g>
</g>
<g>
	<rect x="245.806" y="305.604" fill="#E50012" width="40.266" height="40.267"/>
	<g>
		<path fill-rule="evenodd" clip-rule="evenodd" fill="#FFFFFF" d="M264.08,313.483c0.937,0,1.704,0.76,1.704,1.7
			c0,0.939-0.767,1.699-1.704,1.699c-0.941,0-1.711-0.76-1.711-1.699C262.369,314.243,263.139,313.483,264.08,313.483
			L264.08,313.483z M262.277,324.82l-6.937,5.546c0,0-1.058-0.137-2.149,0.267c-0.654,0.237-1.313,0.708-1.754,1.385
			c-1.338,2.036-0.476,5.461,2.158,5.899c0.886,0.149,3.736,0.022,3.736,0.022l18.985-15.071l1.792,0.011
			c0,0,2.224-0.511,2.712-2.413c0.489-1.891,0.063-3.38-0.765-4.185c-0.824-0.834-1.814-1.106-1.814-1.106h-4.149l-8.317,6.747
			l-0.065-2.97c0,0,0-1.529-1.516-1.561c-1.514-0.034-1.866,1.05-1.866,1.499C262.327,319.326,262.277,324.82,262.277,324.82
			L262.277,324.82z M255.683,331.578c-1.083-0.023-1.982-0.078-2.563,0.31c-2.063,1.392-1.168,4.969,1.128,4.93l2.708-0.045
			l18.917-15.184c0.016-0.009,1.932,0.052,2.377-0.041c0.449-0.096,1.65-0.955,1.582-2.724c-0.056-1.758-1.704-2.432-1.704-2.432
			l-3.645,0.018L255.683,331.578z"/>
		<path fill="#FFFFFF" d="M252.887,308.795h26.062c2.153,0,3.915,1.76,3.915,3.909v26.072c0,2.141-1.762,3.908-3.915,3.908h-26.062
			c-2.153,0-3.907-1.767-3.907-3.908v-26.072C248.98,310.555,250.734,308.795,252.887,308.795L252.887,308.795z M252.887,310.093
			c-1.431,0-2.606,1.174-2.606,2.611v26.072c0,1.428,1.175,2.604,2.606,2.604h26.062c1.442,0,2.616-1.176,2.616-2.604v-26.072
			c0-1.438-1.174-2.611-2.616-2.611H252.887z"/>
	</g>
</g>
<g>
	<rect x="585.43" y="297.829" fill="#E50012" width="37.244" height="37.672"/>
	<g>
		<polygon fill-rule="evenodd" clip-rule="evenodd" fill="#FFFFFF" points="593.463,302.605 597.867,302.605 604.189,311.733 
			610.605,302.768 615.348,302.768 606.301,315.013 606.301,315.7 613.625,315.728 613.625,318.738 606.332,318.738 
			606.332,320.773 613.625,320.773 613.625,323.59 606.35,323.59 606.35,329.461 602.137,329.461 602.137,323.638 594.998,323.638 
			594.998,320.792 602.135,320.792 602.135,318.772 594.998,318.772 594.998,315.743 602.127,315.743 602.127,315.02 		"/>
		<g>
			<path fill="#FFFFFF" d="M592.002,299.916h24.799c2.043,0,3.715,1.671,3.715,3.713v24.801c0,2.049-1.672,3.719-3.715,3.719
				h-24.799c-2.045,0-3.719-1.67-3.719-3.719v-24.801C588.283,301.586,589.957,299.916,592.002,299.916L592.002,299.916z
				 M592.002,301.151c-1.363,0-2.48,1.116-2.48,2.478v24.801c0,1.369,1.117,2.49,2.48,2.49h24.799c1.369,0,2.48-1.121,2.48-2.49
				v-24.801c0-1.362-1.111-2.478-2.48-2.478H592.002z"/>
			<g>
				<g>
					<polygon fill-rule="evenodd" clip-rule="evenodd" fill="#FFFFFF" points="594.605,325.184 594.994,325.184 594.994,325.181 
						594.986,325.181 594.678,324.575 594.678,324.57 594.412,324.57 594.412,324.429 595.09,324.429 595.09,324.57 594.926,324.57 
						595.229,325.146 595.275,325.146 595.604,324.57 595.426,324.57 595.426,324.429 596.102,324.429 596.102,324.57 
						595.852,324.57 595.852,324.575 595.525,325.146 595.531,325.146 595.531,325.184 595.912,325.184 595.912,325.315 
						595.531,325.315 595.531,325.526 595.912,325.526 595.912,325.671 595.531,325.671 595.531,326.472 595.813,326.472 
						595.813,326.616 594.703,326.616 594.703,326.472 594.994,326.472 594.994,325.671 594.605,325.671 594.605,325.526 
						594.994,325.526 594.994,325.315 594.605,325.315 					"/>
					<path fill-rule="evenodd" clip-rule="evenodd" fill="#FFFFFF" d="M593.123,322.787c0.176-0.394,0.566-0.299,0.686,0v0.852
						h0.246v-1.141c0.172-0.376,0.541-0.313,0.695,0v1.141h0.242v-1.406c0.152-0.367,0.523-0.367,0.691,0v1.406h0.24v-1.127
						c0.111-0.353,0.607-0.387,0.691,0v1.127h2.057v3.74h-1.232c-0.039,1.226-0.979,2.211-2.139,2.211
						c-1.162,0-2.104-0.985-2.146-2.211h-1.357v-3.74h1.326V322.787L593.123,322.787z M596.721,325.51
						c0.172-0.813,0.568-0.604,0.686,0v1.676h1.039v-3.335h-6.449v3.335h4.725V325.51z"/>
				</g>
				<path fill="#FFFFFF" d="M591.209,320.528h8.061c0.662,0,1.211,0.544,1.211,1.211v8.067c0,0.672-0.549,1.211-1.211,1.211h-8.061
					c-0.674,0-1.217-0.539-1.217-1.211v-8.067C589.992,321.073,590.535,320.528,591.209,320.528L591.209,320.528z M591.209,320.932
					c-0.449,0-0.813,0.369-0.813,0.808v8.067c0,0.451,0.363,0.816,0.813,0.816h8.061c0.449,0,0.811-0.365,0.811-0.816v-8.067
					c0-0.439-0.361-0.808-0.811-0.808H591.209z"/>
			</g>
		</g>
	</g>
</g>
</svg>
