<?xml version="1.0" encoding="utf-8"?>
<!-- Generator: Adobe Illustrator 15.0.0, SVG Export Plug-In . SVG Version: 6.00 Build 0)  -->
<!DOCTYPE svg PUBLIC "-//W3C//DTD SVG 1.1//EN" "http://www.w3.org/Graphics/SVG/1.1/DTD/svg11.dtd">
<svg version="1.1" id="图层_1" xmlns="http://www.w3.org/2000/svg" xmlns:xlink="http://www.w3.org/1999/xlink" x="0px" y="0px"
	 width="1028px" height="680px" viewBox="0 0 1028 680" enable-background="new 0 0 1028 680" xml:space="preserve">
<path fill="#FADED8" stroke="#231815" d="M596.725,75.159c0,0,0,67.2,0,67.749c0-2.149,12.051,2.027,13.045,2.512
	c5.777,2.82,13.67,9.663,13.67,16.77v73.259h52.885l0.545-160.29H596.725z"/>
<rect x="597.816" y="352.941" fill="#D7E8BD" stroke="#231815" width="77.418" height="68.421"/>
<g id="新华书店">
	<polygon fill="#F7BF83" stroke="#231815" points="103.316,75.705 184.005,75.705 184.005,189.106 155.656,189.106 155.656,237.63 
		103.861,237.63 	"/>
	<g>
		<path fill="#231815" d="M116.593,110.887h2.192c-0.387-0.613-0.75-1.14-1.09-1.581l0.735-0.517
			c0.299,0.363,0.686,0.876,1.158,1.539l-0.77,0.559h1.798c0.495-0.712,0.951-1.416,1.369-2.111l0.967,0.545
			c-0.439,0.567-0.86,1.089-1.26,1.566h2.063v0.872h-7.164V110.887z M118.022,114.918l0.926,0.436
			c-0.49,1.026-0.976,1.953-1.458,2.778c-0.262-0.163-0.563-0.327-0.898-0.49C117.038,116.952,117.515,116.044,118.022,114.918z
			 M116.974,113.434h2.779v-1.294h0.98v1.294h2.67v0.872h-2.67v3.555c0,0.963-0.462,1.444-1.389,1.444
			c-0.39,0-0.831-0.005-1.321-0.014c-0.036-0.3-0.086-0.644-0.149-1.035c0.526,0.055,0.94,0.082,1.239,0.082
			c0.427,0,0.64-0.231,0.64-0.694v-3.337h-2.779V113.434z M117.028,107.728h2.942c-0.194-0.372-0.417-0.776-0.667-1.213l0.872-0.408
			c0.281,0.463,0.544,0.931,0.79,1.403l-0.456,0.218h2.894v0.872h-6.375V107.728z M121.945,114.986
			c0.509,0.691,0.954,1.326,1.335,1.908l-0.872,0.599c-0.399-0.699-0.821-1.357-1.266-1.975L121.945,114.986z M124.234,107.319
			c1.88-0.019,3.614-0.205,5.203-0.559l0.354,1.048c-1.798,0.236-3.329,0.391-4.59,0.463v3.173h4.971v0.927h-1.948v7.137h-1.008
			v-7.137h-2.015v0.667c0,2.788-0.667,4.957-2.003,6.511c-0.218-0.283-0.458-0.573-0.721-0.873c1.171-1.28,1.757-3.174,1.757-5.679
			V107.319z"/>
		<path fill="#231815" d="M130.648,110.288c1.616-1.126,2.901-2.515,3.854-4.167l0.966,0.49c-0.399,0.645-0.83,1.255-1.293,1.832
			v5.319h-1.062v-4.127c-0.599,0.608-1.244,1.167-1.934,1.675C131.016,110.964,130.839,110.624,130.648,110.288z M130.744,115.205
			h6.019v-1.812h1.091v1.812h6.034v0.98h-6.034v3.474h-1.091v-3.474h-6.019V115.205z M134.598,110.9
			c1.172-0.309,2.265-0.679,3.283-1.11v-3.426h1.062v2.942c1.331-0.658,2.511-1.43,3.541-2.314l0.722,0.816
			c-1.217,0.944-2.638,1.808-4.263,2.587v1.118c0,0.608,0.376,0.912,1.131,0.912h1.443c0.689,0,1.085-0.295,1.185-0.885
			c0.1-0.509,0.163-1.035,0.191-1.581c0.444,0.191,0.798,0.327,1.062,0.409c-0.081,0.59-0.168,1.098-0.258,1.525
			c-0.172,0.999-0.823,1.499-1.948,1.499h-2.057c-1.208,0-1.811-0.563-1.811-1.689v-0.824c-0.844,0.368-1.739,0.715-2.684,1.041
			C135.035,111.586,134.834,111.246,134.598,110.9z"/>
		<path fill="#231815" d="M144.677,112.508h5.121v-2.901h-4.236v-1.008h4.236v-2.343h1.13v2.343h4.7l-0.253,3.909h1.873
			c-0.018,1.008-0.049,2.047-0.095,3.119c-0.054,1.498-0.763,2.238-2.125,2.22c-0.708,0.009-1.471-0.023-2.288-0.096
			c-0.045-0.417-0.114-0.817-0.204-1.198c0.835,0.153,1.62,0.231,2.355,0.231c0.754,0.018,1.149-0.395,1.186-1.239
			c0.027-0.645,0.045-1.322,0.054-2.029h-5.203v6.02h-1.13v-6.02h-5.121V112.508z M154.469,109.607h-3.542v2.901h3.351
			L154.469,109.607z M154.128,107.046l0.668-0.763c0.962,0.645,1.824,1.253,2.587,1.825l-0.722,0.858
			C155.954,108.367,155.11,107.728,154.128,107.046z"/>
		<path fill="#231815" d="M164.711,106.502l0.967-0.477c0.368,0.544,0.71,1.113,1.028,1.703h5.237v1.007h-11.059v4.563
			c-0.091,2.833-0.704,4.962-1.839,6.388c-0.208-0.281-0.467-0.59-0.775-0.926c0.979-1.298,1.475-3.201,1.484-5.707v-5.325h5.687
			C165.222,107.319,164.979,106.91,164.711,106.502z M165.378,109.116h1.118v1.703h5.107v0.98h-5.107v1.934h4.045v5.844h-1.09
			v-0.886h-6.183v0.886h-1.088v-5.844h3.199V109.116z M169.451,114.714h-6.183v3.023h6.183V114.714z"/>
	</g>
</g>
<g id="JACK_x26_JONES">
	<polygon fill="#FADED8" stroke="#231815" points="184.005,75.705 184.005,189.106 223.26,189.106 223.26,208.189 255.428,208.189 
		255.428,142.219 279.962,142.219 281.052,75.159 	"/>
	<g>
		<path fill="#231815" d="M197.485,113.416c0,1.141-0.242,2.024-0.725,2.647c-0.483,0.624-1.142,0.935-1.974,0.935
			c-0.386,0-0.705-0.057-0.957-0.171v-1.188c0.252,0.183,0.569,0.274,0.951,0.274c0.991,0,1.486-0.832,1.486-2.498v-6.013h1.219
			V113.416z"/>
		<path fill="#231815" d="M207.257,116.84h-1.346l-0.963-2.583h-3.929l-0.909,2.583h-1.346l3.595-9.437h1.305L207.257,116.84z
			 M204.571,113.191l-1.425-3.924c-0.045-0.126-0.094-0.345-0.146-0.658h-0.031c-0.045,0.284-0.096,0.503-0.152,0.658l-1.413,3.924
			H204.571z"/>
		<path fill="#231815" d="M215.08,116.45c-0.695,0.366-1.566,0.548-2.613,0.548c-1.353,0-2.433-0.429-3.241-1.288
			c-0.809-0.859-1.213-1.995-1.213-3.409c0-1.518,0.455-2.741,1.365-3.667s2.065-1.39,3.467-1.39c0.901,0,1.646,0.128,2.235,0.384
			v1.273c-0.674-0.374-1.415-0.561-2.224-0.561c-1.052,0-1.908,0.35-2.571,1.051c-0.662,0.701-0.992,1.646-0.992,2.836
			c0,1.129,0.309,2.026,0.926,2.689c0.617,0.665,1.425,0.996,2.424,0.996c0.935,0,1.747-0.211,2.437-0.634V116.45z"/>
		<path fill="#231815" d="M223.682,116.84h-1.669l-3.546-4.289c-0.121-0.149-0.205-0.268-0.25-0.354h-0.031v4.642h-1.218v-9.437
			h1.218v4.441h0.031c0.07-0.11,0.152-0.226,0.25-0.347l3.424-4.094h1.505l-3.961,4.526L223.682,116.84z"/>
		<path fill="#231815" d="M231.054,115.56c-0.93,0.955-2.061,1.433-3.394,1.433c-0.991,0-1.778-0.243-2.361-0.729
			c-0.583-0.485-0.874-1.153-0.874-2.007c0-1.284,0.73-2.24,2.192-2.87c-0.73-0.556-1.096-1.216-1.096-1.98
			c0-0.658,0.229-1.183,0.688-1.576c0.459-0.391,1.063-0.587,1.81-0.587c0.703,0,1.272,0.187,1.709,0.558
			c0.437,0.372,0.654,0.856,0.654,1.453c0,0.975-0.596,1.707-1.791,2.193c0.907,0.349,1.765,1.144,2.578,2.382
			c0.71-0.979,1.066-2.132,1.066-3.46c0-0.317-0.041-0.619-0.122-0.908h1.132c0.061,0.243,0.091,0.536,0.091,0.877
			c0,0.712-0.139,1.455-0.417,2.232c-0.279,0.778-0.666,1.499-1.161,2.161c0.337,0.458,0.62,0.771,0.85,0.941
			c0.229,0.168,0.492,0.252,0.79,0.252c0.243,0,0.532-0.065,0.864-0.195v1.066c-0.34,0.13-0.694,0.195-1.06,0.195
			c-0.382,0-0.726-0.09-1.033-0.269C231.865,116.545,231.493,116.158,231.054,115.56z M230.494,114.708
			c-0.503-0.788-0.968-1.382-1.395-1.782c-0.427-0.4-0.967-0.724-1.621-0.973c-0.662,0.269-1.136,0.581-1.42,0.936
			c-0.284,0.355-0.426,0.797-0.426,1.326c0,0.548,0.189,0.979,0.566,1.294c0.378,0.314,0.87,0.472,1.475,0.472
			C228.785,115.98,229.726,115.557,230.494,114.708z M227.691,110.949c1.052-0.362,1.578-0.894,1.578-1.596
			c0-0.362-0.12-0.649-0.359-0.863c-0.239-0.212-0.536-0.319-0.889-0.319c-0.422,0-0.757,0.115-1.004,0.343
			c-0.249,0.23-0.373,0.529-0.373,0.899C226.643,110.055,226.993,110.566,227.691,110.949z"/>
		<path fill="#231815" d="M238.328,113.416c0,1.141-0.242,2.024-0.725,2.647c-0.484,0.624-1.142,0.935-1.974,0.935
			c-0.385,0-0.705-0.057-0.956-0.171v-1.188c0.251,0.183,0.568,0.274,0.951,0.274c0.99,0,1.486-0.832,1.486-2.498v-6.013h1.218
			V113.416z"/>
		<path fill="#231815" d="M240.077,112.234c0-1.523,0.413-2.735,1.237-3.637c0.825-0.902,1.941-1.353,3.351-1.353
			c1.312,0,2.368,0.441,3.168,1.323c0.8,0.881,1.2,2.028,1.2,3.441c0,1.531-0.41,2.746-1.231,3.643
			c-0.821,0.897-1.917,1.346-3.29,1.346c-1.34,0-2.415-0.44-3.223-1.322C240.481,114.794,240.077,113.648,240.077,112.234z
			 M241.357,112.137c0,1.141,0.291,2.056,0.874,2.745c0.583,0.688,1.343,1.032,2.281,1.032c1.007,0,1.798-0.33,2.374-0.99
			c0.574-0.66,0.861-1.583,0.861-2.768c0-1.219-0.281-2.16-0.844-2.822s-1.333-0.993-2.312-0.993c-0.962,0-1.742,0.35-2.339,1.048
			C241.656,110.087,241.357,111.004,241.357,112.137z"/>
		<path fill="#231815" d="M258.562,116.84h-1.444l-4.746-7.341c-0.134-0.208-0.241-0.413-0.323-0.616h-0.036
			c0.033,0.211,0.048,0.653,0.048,1.322v6.635h-1.206v-9.437h1.528l4.619,7.213c0.219,0.341,0.35,0.559,0.39,0.652h0.024
			c-0.04-0.269-0.061-0.728-0.061-1.377v-6.488h1.207V116.84z"/>
		<path fill="#231815" d="M266.073,116.84h-5.075v-9.437h4.861v1.084h-3.643v3.021h3.375v1.078h-3.375v3.175h3.857V116.84z"/>
		<path fill="#231815" d="M267.419,115.066c0.289,0.253,0.675,0.459,1.158,0.622c0.484,0.163,0.943,0.243,1.377,0.243
			c1.324,0,1.986-0.47,1.986-1.412c0-0.265-0.071-0.502-0.213-0.713c-0.143-0.21-0.337-0.397-0.586-0.56
			c-0.248-0.163-0.712-0.413-1.395-0.749c-0.946-0.472-1.569-0.91-1.87-1.313c-0.301-0.404-0.451-0.866-0.451-1.385
			c0-0.785,0.315-1.406,0.944-1.865c0.631-0.459,1.424-0.688,2.383-0.688c0.938,0,1.626,0.114,2.064,0.341v1.328
			c-0.568-0.393-1.287-0.591-2.156-0.591c-0.577,0-1.046,0.121-1.41,0.362c-0.364,0.242-0.546,0.578-0.546,1.009
			c0,0.381,0.126,0.692,0.378,0.931c0.251,0.24,0.797,0.566,1.638,0.981c0.926,0.443,1.574,0.886,1.943,1.328
			c0.37,0.444,0.555,0.94,0.555,1.492c0,0.829-0.301,1.465-0.902,1.908c-0.601,0.441-1.436,0.663-2.504,0.663
			c-0.374,0-0.81-0.052-1.307-0.155c-0.497-0.104-0.86-0.232-1.087-0.387V115.066z"/>
	</g>
</g>
<g id="PLORY">
	<rect x="279.962" y="75.159" fill="#FADED8" stroke="#231815" width="64.333" height="66.515"/>
	<g>
		<path fill="#231815" d="M293.848,113.312v3.528h-1.218v-9.437h2.68c1.02,0,1.811,0.245,2.373,0.737
			c0.563,0.491,0.844,1.193,0.844,2.107c0,0.926-0.329,1.676-0.987,2.251c-0.658,0.575-1.48,0.846-2.467,0.813H293.848z
			 M293.848,108.475v3.766h1.128c0.743,0,1.308-0.168,1.693-0.504c0.386-0.334,0.579-0.814,0.579-1.44
			c0-1.214-0.719-1.822-2.156-1.822H293.848z"/>
		<path fill="#231815" d="M305.24,116.84h-4.977v-9.437h1.218v8.358h3.759V116.84z"/>
		<path fill="#231815" d="M306.057,112.234c0-1.523,0.412-2.735,1.236-3.637c0.824-0.902,1.941-1.353,3.351-1.353
			c1.312,0,2.368,0.441,3.168,1.323c0.8,0.881,1.2,2.028,1.2,3.441c0,1.531-0.41,2.746-1.23,3.643
			c-0.821,0.897-1.917,1.346-3.29,1.346c-1.34,0-2.414-0.44-3.223-1.322C306.461,114.794,306.057,113.648,306.057,112.234z
			 M307.336,112.137c0,1.141,0.292,2.056,0.874,2.745c0.583,0.688,1.344,1.032,2.282,1.032c1.007,0,1.798-0.33,2.374-0.99
			c0.574-0.66,0.861-1.583,0.861-2.768c0-1.219-0.281-2.16-0.845-2.822c-0.562-0.662-1.333-0.993-2.312-0.993
			c-0.962,0-1.742,0.35-2.34,1.048C307.635,110.087,307.336,111.004,307.336,112.137z"/>
		<path fill="#231815" d="M323.724,116.84h-1.438l-1.565-2.619c-0.313-0.524-0.6-0.881-0.859-1.07
			c-0.261-0.188-0.571-0.283-0.933-0.283h-0.877v3.972h-1.218v-9.437h2.875c0.918,0,1.638,0.221,2.157,0.664
			c0.52,0.442,0.779,1.062,0.779,1.858c0,1.307-0.698,2.156-2.095,2.546v0.031c0.259,0.109,0.484,0.266,0.673,0.469
			c0.188,0.203,0.434,0.551,0.734,1.042L323.724,116.84z M318.053,108.47v3.332h1.438c0.556,0,1.008-0.162,1.355-0.487
			c0.348-0.324,0.521-0.751,0.521-1.279c0-0.491-0.158-0.876-0.475-1.152c-0.316-0.276-0.778-0.414-1.383-0.414H318.053z"/>
		<path fill="#231815" d="M331.225,107.403l-3.108,5.964v3.472h-1.225v-3.442l-3.027-5.994h1.395l2.041,4.179
			c0.004,0.004,0.079,0.205,0.225,0.603h0.019c0.048-0.171,0.132-0.37,0.25-0.598l2.133-4.185H331.225z"/>
	</g>
</g>
<g id="圣大保罗">
	<rect x="344.295" y="75.159" fill="#FADED8" stroke="#231815" width="64.334" height="66.51"/>
	<g>
		<path fill="#231815" d="M352.184,108.074v-0.878h9.772v0.841c-1.045,1.101-2.226,2.041-3.546,2.821
			c0.836,0.427,2.506,0.83,5.007,1.212c-0.169,0.268-0.344,0.594-0.523,0.975c-2.177-0.418-4.007-0.969-5.49-1.652
			c-1.628,0.789-3.506,1.392-5.634,1.809c-0.124-0.268-0.289-0.576-0.5-0.925c1.933-0.317,3.637-0.791,5.112-1.419
			c-1.155-0.691-2.184-1.619-3.09-2.784H352.184z M351.477,116.931h5.396v-2.144h-4.276v-0.877h4.276v-1.596h0.964v1.596h4.251
			v0.877h-4.251v2.144h5.385v0.878h-11.745V116.931z M360.64,108.074H354.4c0.878,0.938,1.881,1.706,3.01,2.302
			C358.617,109.743,359.693,108.975,360.64,108.074z"/>
		<path fill="#231815" d="M363.759,117.503c3.35-1.49,5.157-3.728,5.421-6.713h-5.202v-0.951h5.245
			c0.022-1.093,0.031-2.193,0.031-3.303h1.061c0,1.093-0.01,2.194-0.03,3.303h5.403v0.951h-5.421
			c0.576,3.245,2.47,5.386,5.677,6.421c-0.414,0.398-0.723,0.728-0.925,0.987c-2.645-1.064-4.373-2.959-5.185-5.684
			c-0.633,2.465-2.406,4.441-5.318,5.927C364.352,118.223,364.1,117.91,363.759,117.503z"/>
		<path fill="#231815" d="M376.2,112.459c1.089-1.625,1.933-3.595,2.534-5.909l0.901,0.268c-0.333,1.072-0.694,2.076-1.083,3.01
			v8.602h-0.877v-6.763c-0.351,0.643-0.715,1.239-1.097,1.792C376.463,113.117,376.337,112.785,376.2,112.459z M380.476,107.086
			h6.799v4.594h-0.926v-0.464h-2.047v1.646h4.021v0.829h-3.314c0.748,1.242,1.885,2.221,3.412,2.936
			c-0.251,0.349-0.454,0.65-0.608,0.902c-1.528-0.926-2.698-2.177-3.51-3.753v4.715h-0.89v-4.763
			c-0.983,1.771-2.214,3.119-3.692,4.045c-0.187-0.229-0.414-0.476-0.682-0.745c1.446-0.795,2.62-1.908,3.522-3.337h-3.192v-0.829
			h4.045v-1.646h-2.011v0.549h-0.926V107.086z M386.349,107.902h-4.947v2.499h4.947V107.902z"/>
		<path fill="#231815" d="M392.855,111.156l0.951,0.39c-0.26,0.333-0.528,0.658-0.804,0.974h6.494v0.866
			c-1.892,2.892-5.264,4.658-10.113,5.3c-0.146-0.285-0.309-0.597-0.488-0.938c2.145-0.252,3.842-0.646,5.093-1.182
			c-0.658-0.576-1.466-1.227-2.425-1.949l0.67-0.622c1.081,0.772,2.006,1.47,2.778,2.096c1.284-0.65,2.385-1.56,3.302-2.729h-6.092
			c-0.78,0.771-1.71,1.551-2.79,2.338c-0.228-0.3-0.438-0.564-0.634-0.791C390.439,113.902,391.792,112.65,392.855,111.156z
			 M389.468,107.086h10.687v4.532h-0.926v-0.476h-8.834v0.476h-0.926V107.086z M390.394,110.327h2.339v-2.425h-2.339V110.327z
			 M393.635,110.327h2.34v-2.425h-2.34V110.327z M399.229,107.902h-2.352v2.425h2.352V107.902z"/>
	</g>
</g>
<g id="马克华菲">
	<rect x="408.629" y="75.159" fill="#FADED8" stroke="#231815" width="56.701" height="66.515"/>
	<g>
		<g>
			<path fill="#231815" d="M411.523,114.688h9.151v0.89h-9.151V114.688z M414.655,108.584l-0.317,3.399h5.349l0.391-4.142h-7.494
				v-0.89h8.566l-0.488,5.032h2.303c-0.065,1.893-0.138,3.348-0.219,4.363c-0.074,1.276-0.8,1.912-2.182,1.912
				c-0.836,0-1.628-0.011-2.376-0.036c-0.04-0.293-0.097-0.642-0.17-1.047c0.934,0.072,1.747,0.109,2.438,0.109
				c0.795,0,1.226-0.374,1.292-1.121c0.072-0.829,0.13-1.925,0.169-3.291h-8.674l0.414-4.289H414.655z"/>
			<path fill="#231815" d="M425.573,109.998h3.886v-1.292h-5.446v-0.854h5.446v-1.414h0.976v1.414h5.385v0.854h-5.385v1.292h3.984
				v4.484h-0.927v-0.451h-1.669v2.522c0,0.529,0.247,0.792,0.742,0.792h1.377c0.544,0,0.842-0.199,0.89-0.597
				c0.065-0.422,0.109-0.951,0.134-1.584c0.292,0.115,0.629,0.235,1.011,0.366c-0.041,0.48-0.115,1.019-0.22,1.62
				c-0.113,0.715-0.699,1.073-1.755,1.073h-1.62c-1.031,0-1.547-0.516-1.547-1.548v-2.644h-1.864
				c-0.117,1.288-0.472,2.23-1.06,2.827c-0.723,0.731-1.86,1.279-3.412,1.646c-0.163-0.261-0.353-0.557-0.572-0.89
				c1.568-0.325,2.64-0.781,3.217-1.365c0.499-0.471,0.787-1.21,0.865-2.218h-1.512v0.451h-0.925V109.998z M433.492,110.85h-6.994
				v2.327h6.994V110.85z"/>
			<path fill="#231815" d="M436.441,110.143c1.445-1.007,2.595-2.25,3.448-3.728l0.866,0.438c-0.358,0.577-0.744,1.122-1.158,1.639
				v4.758h-0.951v-3.691c-0.536,0.544-1.112,1.042-1.73,1.499C436.771,110.749,436.612,110.444,436.441,110.143z M436.526,114.542
				h5.386v-1.621h0.975v1.621h5.397v0.878h-5.397v3.106h-0.975v-3.106h-5.386V114.542z M439.974,110.692
				c1.048-0.277,2.027-0.607,2.937-0.993v-3.066h0.95v2.633c1.19-0.588,2.246-1.28,3.168-2.072l0.646,0.731
				c-1.089,0.846-2.36,1.617-3.814,2.315v1c0,0.543,0.337,0.816,1.012,0.816h1.292c0.617,0,0.97-0.265,1.059-0.792
				c0.09-0.454,0.147-0.926,0.171-1.414c0.398,0.17,0.715,0.292,0.951,0.366c-0.074,0.528-0.151,0.983-0.232,1.365
				c-0.154,0.894-0.735,1.34-1.742,1.34h-1.84c-1.081,0-1.621-0.503-1.621-1.51v-0.738c-0.755,0.33-1.556,0.64-2.401,0.933
				C440.364,111.305,440.185,111,439.974,110.692z"/>
			<path fill="#231815" d="M448.931,107.804h3.496v-1.341h0.951v1.341h3.021v-1.352h0.95v1.352h3.498v0.804h-3.498v1.011h-0.95
				v-1.011h-3.021v1.011h-0.951v-1.011h-3.496V107.804z M449.357,110.936h3.521v-0.993h0.95v8.535h-0.95v-1.9h-3.839v-0.805h3.839
				v-1.632h-3.473v-0.805h3.473v-1.596h-3.521V110.936z M455.949,109.943h0.951v0.944h3.643v0.804h-3.643v1.597h3.546v0.804h-3.546
				v1.632h3.887v0.804h-3.887v1.949h-0.951V109.943z"/>
		</g>
	</g>
</g>
<g id="GXG">
	<rect x="465.331" y="75.159" fill="#FADED8" stroke="#231815" width="131.394" height="66.515"/>
	<g>
		<path fill="#231815" d="M524.66,116.193c-0.942,0.538-2.007,0.805-3.193,0.805c-1.365,0-2.464-0.432-3.299-1.295
			c-0.834-0.862-1.252-2.015-1.252-3.457c0-1.458,0.462-2.656,1.384-3.595c0.923-0.938,2.104-1.407,3.546-1.407
			c1.02,0,1.882,0.163,2.589,0.488v1.315c-0.755-0.475-1.655-0.712-2.698-0.712c-1.027,0-1.875,0.351-2.543,1.053
			c-0.664,0.703-0.998,1.629-0.998,2.778c0,1.182,0.309,2.102,0.921,2.76c0.614,0.658,1.442,0.987,2.485,0.987
			c0.719,0,1.33-0.138,1.834-0.414v-2.554h-2.046v-1.078h3.271V116.193z"/>
		<path fill="#231815" d="M533.452,116.84h-1.481l-2.107-3.552c-0.049-0.082-0.121-0.243-0.213-0.488h-0.031
			c-0.008,0.033-0.081,0.198-0.221,0.493l-2.166,3.546h-1.488l3.139-4.739l-2.889-4.697h1.493l1.862,3.265
			c0.113,0.192,0.222,0.415,0.329,0.671h0.026c0.096-0.22,0.217-0.453,0.358-0.702l1.951-3.234h1.394l-2.947,4.678L533.452,116.84z"
			/>
		<path fill="#231815" d="M541.988,116.193c-0.943,0.538-2.008,0.805-3.195,0.805c-1.363,0-2.463-0.432-3.299-1.295
			c-0.834-0.862-1.251-2.015-1.251-3.457c0-1.458,0.46-2.656,1.382-3.595c0.922-0.938,2.104-1.407,3.547-1.407
			c1.021,0,1.883,0.163,2.59,0.488v1.315c-0.756-0.475-1.656-0.712-2.7-0.712c-1.027,0-1.873,0.351-2.54,1.053
			c-0.666,0.703-1,1.629-1,2.778c0,1.182,0.307,2.102,0.92,2.76c0.615,0.658,1.443,0.987,2.484,0.987
			c0.721,0,1.335-0.138,1.834-0.414v-2.554h-2.045v-1.078h3.273V116.193z"/>
	</g>
</g>
<g id="FLEX">
	<path fill="#FADED8" stroke="#231815" d="M223.26,237.63h32.167v23.162c0,0,0.546,6.843-10.359,7.37H223.26V237.63z"/>
	<g>
		<path fill="#231815" d="M231.249,250.048h-3.644v3.156h3.375v1.073h-3.375v4.125h-1.217v-9.437h4.861V250.048z"/>
		<path fill="#231815" d="M237.994,258.401h-4.977v-9.437h1.218v8.359h3.759V258.401z"/>
		<path fill="#231815" d="M244.494,258.401h-5.075v-9.437h4.861v1.084h-3.644v3.022h3.375v1.078h-3.375v3.176h3.857V258.401z"/>
		<path fill="#231815" d="M252.926,258.401h-1.48l-2.108-3.551c-0.049-0.082-0.12-0.243-0.213-0.488h-0.031
			c-0.008,0.032-0.081,0.197-0.219,0.493l-2.168,3.546h-1.487l3.138-4.739l-2.888-4.698h1.493l1.864,3.265
			c0.11,0.192,0.22,0.414,0.329,0.67h0.025c0.098-0.22,0.217-0.452,0.359-0.7l1.95-3.235h1.396l-2.949,4.679L252.926,258.401z"/>
	</g>
</g>
<g id="九牧王">
	<path fill="#FADED8" stroke="#231815" d="M323.033,165.118v53.975h-46.342v-41.435c0,0-0.545-11.449,13.63-12.54H323.033z"/>
	<g>
		<path fill="#231815" d="M282.159,189.373h3.497c0.024-0.747,0.035-1.579,0.035-2.498h1.048c0,0.91-0.012,1.743-0.036,2.498h3.837
			v7.397c-0.024,0.51,0.208,0.767,0.694,0.767h0.585c0.511,0,0.799-0.24,0.865-0.719c0.089-0.577,0.154-1.255,0.195-2.035
			c0.316,0.138,0.658,0.263,1.023,0.377c-0.065,0.707-0.146,1.365-0.243,1.974c-0.146,0.894-0.719,1.341-1.718,1.341h-0.865
			c-1.072,0-1.592-0.533-1.56-1.597v-6.567h-2.851c-0.082,1.745-0.236,3.029-0.463,3.85c-0.544,1.9-1.754,3.428-3.631,4.581
			c-0.203-0.251-0.463-0.52-0.78-0.803c1.747-1.048,2.875-2.404,3.388-4.07c0.211-0.666,0.358-1.853,0.438-3.558h-3.46V189.373z"/>
		<path fill="#231815" d="M294.392,194.649c0.853-0.292,1.73-0.588,2.631-0.89v-3.301h-1.218c-0.17,0.918-0.387,1.795-0.646,2.632
			c-0.251-0.18-0.516-0.354-0.792-0.524c0.463-1.479,0.755-2.989,0.877-4.532l0.877,0.146c-0.049,0.503-0.109,0.991-0.182,1.461
			h1.083v-2.729h0.914v2.729h1.548v0.817h-1.548v2.985c0.464-0.163,0.931-0.325,1.402-0.488c0.041,0.357,0.086,0.666,0.135,0.926
			c-0.544,0.195-1.057,0.378-1.537,0.547v4.302h-0.914v-3.973c-0.925,0.341-1.742,0.65-2.448,0.927L294.392,194.649z
			 M299.229,192.212c0.966-1.665,1.628-3.456,1.985-5.374l0.927,0.268c-0.138,0.643-0.322,1.292-0.548,1.95h4.496v0.902h-1.01
			c-0.22,2.404-0.805,4.317-1.755,5.739c0.796,0.935,1.819,1.645,3.071,2.133c-0.195,0.243-0.406,0.532-0.634,0.865
			c-1.193-0.535-2.205-1.275-3.034-2.218c-0.836,0.935-1.928,1.73-3.278,2.389c-0.203-0.285-0.422-0.557-0.658-0.816
			c1.422-0.675,2.531-1.466,3.327-2.375c-0.683-1.065-1.218-2.377-1.608-3.936c-0.187,0.389-0.386,0.784-0.597,1.181
			C299.708,192.684,299.481,192.447,299.229,192.212z M301.068,190.47c0.399,1.843,0.942,3.31,1.633,4.399
			c0.78-1.228,1.271-2.865,1.475-4.911h-2.9C301.211,190.129,301.142,190.299,301.068,190.47z"/>
		<path fill="#231815" d="M306.953,197.11h5.289v-3.753h-4.156v-0.975h4.156v-3.484h-4.618v-0.976h10.332v0.976h-4.642v3.484h4.253
			v0.975h-4.253v3.753h5.312v0.974h-11.673V197.11z"/>
	</g>
</g>
<g id="琼道登">
	<rect x="323.033" y="165.118" fill="#FADED8" stroke="#231815" width="46.888" height="53.975"/>
	<g>
		<path fill="#231815" d="M327.913,196.415c0.577-0.114,1.149-0.235,1.718-0.366v-3.411h-1.45v-0.829h1.45v-2.924h-1.559v-0.829
			h3.898v0.829h-1.462v2.924h1.401v0.829h-1.401v3.216c0.512-0.121,1.015-0.244,1.511-0.365c0,0.309,0.011,0.621,0.037,0.937
			c-1.317,0.294-2.617,0.598-3.9,0.914L327.913,196.415z M333.53,194.941l0.817,0.452c-0.626,0.965-1.268,1.843-1.926,2.631
			c-0.219-0.203-0.479-0.395-0.78-0.573C332.299,196.77,332.929,195.932,333.53,194.941z M332.312,188.349h3.545
			c-0.211-0.382-0.451-0.795-0.718-1.243l0.816-0.39c0.292,0.447,0.556,0.898,0.792,1.353l-0.584,0.28h3.875v0.829h-7.725V188.349z
			 M332.982,190.421h6.214v4.131h-0.902v-0.451h-1.73v3.058c0.008,1.032-0.459,1.547-1.401,1.547c-0.35,0-0.8-0.004-1.352-0.012
			c-0.041-0.341-0.106-0.658-0.196-0.951c0.44,0.049,0.874,0.078,1.304,0.086c0.512,0.024,0.751-0.289,0.719-0.938v-2.79h-1.754
			v0.451h-0.902V190.421z M338.294,191.226h-4.41v2.07h4.41V191.226z M337.49,195.453l0.755-0.536
			c0.74,0.87,1.393,1.682,1.961,2.437l-0.816,0.61C338.814,197.102,338.181,196.265,337.49,195.453z"/>
		<path fill="#231815" d="M345.52,197.634l2.95,0.036l4.13-0.098c-0.138,0.317-0.271,0.63-0.403,0.938l-4.057,0.037l-2.705-0.048
			c-1.365-0.008-2.375-0.476-3.034-1.401c-0.235,0.186-0.71,0.707-1.425,1.559l-0.524-1.035c0.528-0.472,1.039-0.92,1.536-1.346
			v-4.235h-1.414v-0.89h2.338v5.331C343.502,197.213,344.371,197.597,345.52,197.634z M341.646,187.095
			c0.561,0.649,1.112,1.356,1.657,2.119l-0.853,0.585c-0.544-0.845-1.06-1.568-1.548-2.169L341.646,187.095z M344.594,190.25h2.511
			l0.237-1.06h-3.442v-0.804h2.291c-0.191-0.272-0.487-0.65-0.89-1.134l0.707-0.523c0.423,0.455,0.784,0.869,1.085,1.243
			l-0.555,0.415h2.242c0.353-0.487,0.708-1.027,1.066-1.621l0.925,0.475c-0.26,0.333-0.57,0.714-0.932,1.146h2.589v0.804h-4.1
			l-0.312,1.06h3.521v6.641h-0.902v-0.451h-5.141v0.451h-0.902V190.25z M350.637,190.993h-5.141v1.084h5.141V190.993z
			 M345.496,193.881h5.141v-1.084h-5.141V193.881z M345.496,195.696h5.141V194.6h-5.141V195.696z"/>
		<path fill="#231815" d="M353.586,188.435v-0.829h4.825v0.84c-1.097,1.87-2.795,3.441-5.094,4.717
			c-0.155-0.277-0.325-0.561-0.512-0.853c0.854-0.44,1.544-0.861,2.072-1.268c-0.512-0.528-1.036-1.047-1.572-1.56l0.572-0.572
			c0.609,0.553,1.169,1.077,1.682,1.571c0.674-0.592,1.25-1.275,1.73-2.046H353.586z M353.051,197.622h4.082
			c-0.292-0.284-0.719-0.679-1.28-1.182l0.585-0.585c0.495,0.407,0.994,0.841,1.498,1.304l-0.499,0.463h2.924l-0.415-0.415
			c0.521-0.471,0.984-0.935,1.39-1.389l0.743,0.608c-0.382,0.383-0.809,0.781-1.28,1.195h4.168v0.828h-11.916V197.622z
			 M354.939,192.442h8.029v3.754h-0.926v-0.44h-6.178v0.44h-0.925V192.442z M362.042,193.247h-6.178v1.706h6.178V193.247z
			 M356.852,190.579h4.131v0.805h-4.131V190.579z M359.934,186.96c0.187,0.504,0.394,0.966,0.622,1.389
			c0.893-0.487,1.673-0.958,2.34-1.414l0.596,0.769c-0.763,0.454-1.587,0.917-2.473,1.388c0.22,0.325,0.459,0.622,0.719,0.89
			c0.853-0.472,1.645-0.95,2.376-1.438l0.608,0.78c-0.673,0.414-1.433,0.849-2.278,1.304c0.78,0.608,1.69,1.016,2.729,1.218
			c-0.235,0.325-0.458,0.654-0.669,0.987c-2.584-0.894-4.392-2.737-5.423-5.532L359.934,186.96z"/>
	</g>
</g>
<g id="德尊">
	<rect x="276.691" y="219.093" fill="#FADED8" stroke="#231815" width="93.229" height="53.43"/>
	<g>
		<path fill="#231815" d="M309.958,248.7c1.04-1.016,1.994-2.343,2.863-3.985l0.816,0.416c-0.354,0.653-0.719,1.266-1.097,1.84
			v6.458h-0.877v-5.245c-0.418,0.532-0.853,1.02-1.303,1.468C310.238,249.334,310.104,249.017,309.958,248.7z M310.019,244.826
			c1.023-0.894,1.941-2.022,2.753-3.388l0.828,0.5c-1.016,1.561-2.055,2.814-3.119,3.765
			C310.335,245.41,310.182,245.118,310.019,244.826z M313.979,249.785l0.803,0.292c-0.349,0.951-0.731,1.795-1.145,2.535
			c-0.203-0.105-0.459-0.245-0.768-0.415C313.324,251.458,313.694,250.654,313.979,249.785z M313.369,248.358h8.615v0.769h-8.615
			V248.358z M314.002,244.301h3.168v-0.975h-3.498v-0.768h3.498v-1.132h0.877v1.132h3.753v0.768h-3.753v0.975h3.229v3.424h-0.817
			v-0.378h-5.641v0.378h-0.817V244.301z M314.819,246.604h1.364v-1.56h-1.364V246.604z M315.221,249.798h0.853v1.777
			c0,0.48,0.219,0.72,0.658,0.72h1.511c0.543,0,0.853-0.187,0.925-0.561c0.074-0.381,0.126-0.824,0.159-1.328
			c0.268,0.106,0.573,0.219,0.914,0.343c-0.106,0.534-0.195,0.969-0.268,1.303c-0.138,0.699-0.589,1.048-1.352,1.048h-2.083
			c-0.878,0-1.316-0.479-1.316-1.438V249.798z M316.635,249.675l0.608-0.451c0.455,0.487,0.874,0.987,1.255,1.499l-0.707,0.524
			C317.466,250.759,317.082,250.235,316.635,249.675z M316.951,246.604h1.365v-1.56h-1.365V246.604z M320.46,245.044h-1.377v1.56
			h1.377V245.044z M320.192,250.017l0.731-0.403c0.349,0.495,0.759,1.183,1.23,2.059l-0.816,0.44
			C321.037,251.43,320.656,250.731,320.192,250.017z"/>
		<path fill="#231815" d="M324.933,251.209l0.426-0.437h-2.778v-0.719h8.469v-0.622h0.865v0.622h2.559v0.719h-2.559v1.023
			c0,0.999-0.508,1.499-1.523,1.499c-0.398,0-1.052-0.008-1.962-0.024c-0.04-0.302-0.102-0.614-0.183-0.939
			c0.926,0.058,1.584,0.086,1.974,0.086c0.552,0,0.829-0.276,0.829-0.829v-0.816h-5.361c0.682,0.479,1.214,0.881,1.596,1.206
			l-0.634,0.67C326.236,252.242,325.663,251.762,324.933,251.209z M323.884,244.386h3.242c0.02-0.271,0.034-0.577,0.042-0.914h-4.38
			v-0.718h3.667c-0.284-0.385-0.536-0.695-0.756-0.925l0.683-0.464c0.341,0.341,0.683,0.715,1.024,1.12l-0.396,0.269h2.748
			c0.37-0.471,0.691-0.93,0.962-1.377l0.817,0.524c-0.199,0.247-0.451,0.532-0.755,0.853h3.545v0.718h-4.095v0.914h3.108v5.069
			h-0.816v-0.316h-7.823v0.316h-0.816V244.386z M330.805,245.765c0.219,0,0.688-0.004,1.402-0.012l-0.171,0.742h-1.461
			c-0.755,0-1.133-0.39-1.133-1.169v-0.269h-1.566c-0.113,0.967-0.879,1.621-2.297,1.961c-0.138-0.25-0.295-0.495-0.474-0.729
			c1.251-0.208,1.907-0.618,1.968-1.232h-2.37v2.048h7.823v-2.048h-2.292v0.147C330.232,245.578,330.423,245.765,330.805,245.765z
			 M324.701,248.469h7.823v-0.72h-7.823V248.469z M327.93,244.386h1.511v-0.914h-1.487
			C327.949,243.827,327.941,244.131,327.93,244.386z"/>
	</g>
</g>
<g id="柒牌">
	<rect x="384.641" y="229.997" fill="#FADED8" stroke="#231815" width="93.775" height="41.435"/>
	<g>
		<path fill="#231815" d="M430.83,252.677c-0.304,0.337-0.554,0.65-0.746,0.938c-2.157-0.758-3.773-1.913-4.847-3.468v4.083h-0.938
			v-4.083c-1.122,1.398-2.706,2.603-4.75,3.615c-0.185-0.247-0.417-0.527-0.698-0.839c1.852-0.715,3.349-1.674,4.486-2.874h-4.269
			v-0.864h5.231v-1.308h0.938v1.308h5.437v0.864h-4.606C427.125,251.315,428.712,252.191,430.83,252.677z M419.547,243.956
			c0.666,0.313,1.358,0.674,2.081,1.085c-0.201,0.338-0.374,0.621-0.518,0.852c-0.713-0.444-1.387-0.827-2.021-1.148
			L419.547,243.956z M422.879,245.855c0.097,0.378,0.205,0.699,0.325,0.962c-1.002,0.608-2.045,1.262-3.127,1.961l-0.53-0.901
			C420.654,247.286,421.764,246.611,422.879,245.855z M420.666,242.019c0.738,0.37,1.451,0.761,2.141,1.172
			c-0.216,0.28-0.405,0.546-0.565,0.802c-0.698-0.452-1.384-0.867-2.057-1.245L420.666,242.019z M422.963,244.313l2.442-0.284
			v-2.011h0.938v1.9l4.124-0.481l0.109,0.925l-4.233,0.494v1.418c0,0.544,0.216,0.814,0.649,0.814h1.467
			c0.418,0,0.666-0.131,0.746-0.394c0.096-0.265,0.177-0.726,0.241-1.382c0.264,0.124,0.585,0.242,0.963,0.358
			c-0.097,0.559-0.185,0.987-0.265,1.282c-0.177,0.683-0.69,1.024-1.541,1.024h-1.78c-0.946,0-1.418-0.54-1.418-1.616v-1.394
			l-2.334,0.271L422.963,244.313z"/>
		<path fill="#231815" d="M435.075,253.984h-0.877v-4.625h-1.299c0,2.121-0.309,3.725-0.926,4.811
			c-0.208-0.223-0.457-0.461-0.746-0.716c0.53-0.946,0.794-2.332,0.794-4.157v-6.847h0.878v3.626h1.215v-3.984h0.877v3.984h0.878
			v0.765h-2.97v1.751h2.176V253.984z M435.459,250.962h1.469c-0.161-0.213-0.338-0.428-0.53-0.642
			c0.85-0.453,1.458-0.954,1.828-1.505h-1.924v-5.502h2.045c0.152-0.394,0.308-0.851,0.469-1.369l0.938,0.296
			c-0.176,0.394-0.34,0.752-0.493,1.072h3.103v5.921h-0.841v-0.419h-2.273c-0.337,0.748-1.035,1.464-2.093,2.146h2.405v-1.579h0.878
			v1.579h2.718v0.851h-2.718v2.257h-0.878v-2.257h-4.102V250.962z M437.145,245.658h1.744v-1.53h-1.744V245.658z M438.864,246.447
			h-1.72v1.554h1.467C438.74,247.59,438.823,247.072,438.864,246.447z M439.513,248.001h2.009v-1.554h-1.816
			C439.683,247.056,439.618,247.573,439.513,248.001z M441.522,244.128h-1.792v1.53h1.792V244.128z"/>
	</g>
</g>
<g id="NIKE">
	<path fill="#D7E8BD" stroke="#231815" d="M103.316,292.695h79.6c0,0,13.629,1.638,14.72,15.268
		c-0.163,18.134-0.095,36.29-0.435,54.419c-0.204,10.88,7.013,22.888,19.518,19.183c0,0,7.634,1.091,6.542,3.272h-65.424v97.043
		h-52.885L103.316,292.695z"/>
	<g>
		<path fill="#231815" d="M135.784,347.167h-1.615l-5.305-8.207c-0.15-0.231-0.27-0.46-0.36-0.686h-0.042
			c0.036,0.237,0.054,0.729,0.054,1.479v7.415h-1.349V336.62h1.71l5.162,8.063c0.245,0.383,0.391,0.624,0.436,0.729h0.027
			c-0.045-0.302-0.068-0.815-0.068-1.54v-7.252h1.348V347.167z"/>
		<path fill="#231815" d="M140.884,337.77h-1.014v8.247h1.014v1.15h-3.391v-1.15h1.014v-8.247h-1.014v-1.149h3.391V337.77z"/>
		<path fill="#231815" d="M150.111,347.167h-1.865l-3.963-4.794c-0.137-0.168-0.23-0.299-0.28-0.395h-0.034v5.188h-1.362V336.62
			h1.362v4.962h0.034c0.078-0.122,0.171-0.251,0.28-0.389l3.827-4.573h1.682l-4.426,5.058L150.111,347.167z"/>
		<path fill="#231815" d="M157.133,347.167h-5.673V336.62h5.436v1.211h-4.072v3.378h3.772v1.205h-3.772v3.547h4.31V347.167z"/>
	</g>
</g>
<g id="adidas">
	<path fill="#D7E8BD" stroke="#231815" d="M239.072,394.104v58.335h-16.901v28.352l125.94,0.547l0.546-82.872
		C348.658,398.465,275.056,399.553,239.072,394.104z"/>
	<g>
		<path fill="#231815" d="M270.701,430.528c0.749-0.469,1.614-0.702,2.594-0.702c1.816,0,2.724,0.953,2.724,2.859v4.849h-1.321
			v-1.165h-0.034c-0.522,0.896-1.292,1.343-2.309,1.343c-0.731,0-1.313-0.198-1.744-0.594c-0.432-0.394-0.647-0.926-0.647-1.6
			c0-1.406,0.833-2.227,2.499-2.457l2.234-0.313c0-1.232-0.508-1.849-1.525-1.849c-0.904,0-1.728,0.306-2.472,0.914V430.528z
			 M272.934,433.994c-0.617,0.08-1.043,0.234-1.277,0.464c-0.234,0.225-0.35,0.543-0.35,0.952c0,0.359,0.127,0.651,0.381,0.879
			c0.255,0.228,0.59,0.34,1.008,0.34c0.582,0,1.06-0.204,1.438-0.612c0.376-0.409,0.565-0.921,0.565-1.539v-0.722L272.934,433.994z"
			/>
		<path fill="#231815" d="M284.77,437.534h-1.335v-1.25h-0.026c-0.549,0.949-1.403,1.428-2.561,1.428
			c-0.953,0-1.711-0.339-2.273-1.02c-0.564-0.676-0.845-1.593-0.845-2.747c0-1.243,0.317-2.24,0.954-2.992
			c0.636-0.751,1.466-1.127,2.492-1.127c1.027,0,1.771,0.4,2.234,1.199h0.026v-4.639h1.335V437.534z M283.441,433.055
			c0-0.604-0.198-1.111-0.595-1.516c-0.397-0.406-0.887-0.61-1.467-0.61c-0.709,0-1.267,0.266-1.675,0.795
			c-0.409,0.527-0.613,1.247-0.613,2.16c0,0.842,0.196,1.504,0.589,1.993c0.393,0.486,0.916,0.731,1.57,0.731
			c0.644,0,1.171-0.241,1.58-0.719c0.409-0.478,0.612-1.074,0.612-1.787V433.055z"/>
		<path fill="#231815" d="M286.99,427.347c0-0.236,0.08-0.433,0.241-0.595c0.162-0.161,0.361-0.243,0.596-0.243
			c0.242,0,0.444,0.08,0.61,0.239c0.165,0.16,0.248,0.358,0.248,0.599c0,0.237-0.083,0.433-0.248,0.59
			c-0.167,0.155-0.369,0.234-0.61,0.234c-0.24,0-0.44-0.079-0.599-0.234C287.069,427.779,286.99,427.584,286.99,427.347z
			 M287.146,437.534v-7.53h1.334v7.53H287.146z"/>
		<path fill="#231815" d="M297.402,437.534h-1.334v-1.25h-0.027c-0.55,0.949-1.404,1.428-2.561,1.428
			c-0.954,0-1.712-0.339-2.275-1.02c-0.563-0.676-0.845-1.593-0.845-2.747c0-1.243,0.318-2.24,0.954-2.992
			c0.637-0.751,1.467-1.127,2.493-1.127c1.026,0,1.771,0.4,2.234,1.199h0.027v-4.639h1.334V437.534z M296.074,433.055
			c0-0.604-0.198-1.111-0.595-1.516c-0.398-0.406-0.887-0.61-1.467-0.61c-0.708,0-1.267,0.266-1.676,0.795
			c-0.409,0.527-0.612,1.247-0.612,2.16c0,0.842,0.196,1.504,0.588,1.993c0.392,0.486,0.916,0.731,1.57,0.731
			c0.645,0,1.171-0.241,1.58-0.719s0.612-1.074,0.612-1.787V433.055z"/>
		<path fill="#231815" d="M299.962,430.528c0.749-0.469,1.614-0.702,2.595-0.702c1.815,0,2.724,0.953,2.724,2.859v4.849h-1.322
			v-1.165h-0.034c-0.522,0.896-1.292,1.343-2.309,1.343c-0.73,0-1.313-0.198-1.743-0.594c-0.432-0.394-0.647-0.926-0.647-1.6
			c0-1.406,0.833-2.227,2.499-2.457l2.234-0.313c0-1.232-0.508-1.849-1.525-1.849c-0.903,0-1.728,0.306-2.472,0.914V430.528z
			 M302.196,433.994c-0.617,0.08-1.043,0.234-1.277,0.464c-0.234,0.225-0.351,0.543-0.351,0.952c0,0.359,0.127,0.651,0.381,0.879
			c0.254,0.228,0.59,0.34,1.007,0.34c0.582,0,1.061-0.204,1.438-0.612c0.376-0.409,0.564-0.921,0.564-1.539v-0.722L302.196,433.994z
			"/>
		<path fill="#231815" d="M307.073,435.908c0.671,0.483,1.396,0.728,2.172,0.728c1.04,0,1.558-0.342,1.558-1.021
			c0-0.29-0.113-0.529-0.34-0.719c-0.226-0.188-0.687-0.411-1.382-0.671c-0.836-0.335-1.378-0.67-1.628-0.998
			s-0.375-0.727-0.375-1.195c0-0.668,0.284-1.2,0.848-1.603s1.262-0.603,2.088-0.603c0.64,0,1.234,0.11,1.784,0.335v1.284
			c-0.563-0.363-1.201-0.545-1.914-0.545c-0.426,0-0.774,0.097-1.041,0.279c-0.269,0.188-0.402,0.434-0.402,0.737
			c0,0.299,0.096,0.534,0.289,0.701s0.62,0.384,1.284,0.647c0.839,0.313,1.407,0.637,1.702,0.972
			c0.295,0.336,0.443,0.754,0.443,1.248c0,0.69-0.283,1.232-0.848,1.629c-0.565,0.399-1.297,0.598-2.196,0.598
			c-0.782,0-1.462-0.147-2.043-0.441V435.908z"/>
	</g>
</g>
<g id="纽巴伦">
	<rect x="348.658" y="398.465" fill="#D7E8BD" stroke="#231815" width="60.518" height="82.325"/>
	<g>
		<path fill="#231815" d="M358.636,439.994c1.48-0.244,3.105-0.558,4.875-0.939c-0.044,0.363-0.077,0.717-0.095,1.063
			c-1.525,0.273-3.037,0.593-4.535,0.953L358.636,439.994z M360.42,436.931c0.954-0.107,1.961-0.236,3.024-0.382
			c-0.064,0.335-0.104,0.664-0.123,0.981c-1.744,0.189-3.128,0.393-4.154,0.601l-0.218-0.996c0.767-0.853,1.521-1.835,2.261-2.948
			c-0.753,0.036-1.503,0.094-2.247,0.169l-0.259-0.925c0.844-1.116,1.693-2.68,2.547-4.688l1.035,0.411
			c-0.872,1.716-1.657,3.115-2.356,4.195c0.686-0.013,1.301-0.029,1.846-0.049c0.408-0.653,0.81-1.345,1.206-2.078l1.007,0.506
			C362.772,433.698,361.583,435.432,360.42,436.931z M362.653,440.608h2.22l0.396-4.878h-1.73v-0.953h1.812l0.341-4.221h-1.92
			v-0.953h7.45l-0.524,11.005h1.41v0.952h-9.453V440.608z M365.909,440.608h3.766l0.225-4.878h-3.595L365.909,440.608z
			 M370.144,430.557h-3.432l-0.334,4.221h3.568L370.144,430.557z"/>
		<path fill="#231815" d="M373.89,429.861h10.977v6.647h-1.116v-0.939h-8.731v4.058c0.009,0.636,0.3,0.954,0.872,0.954h7.491
			c0.673,0,1.066-0.2,1.185-0.599c0.118-0.41,0.232-1.158,0.341-2.249c0.299,0.119,0.689,0.265,1.17,0.438
			c-0.172,1.062-0.322,1.815-0.449,2.26c-0.255,0.808-0.931,1.212-2.03,1.212h-8.063c-1.098,0-1.647-0.582-1.647-1.742V429.861z
			 M378.82,434.507v-3.597h-3.8v3.597H378.82z M379.937,434.507h3.814v-3.597h-3.814V434.507z"/>
		<path fill="#231815" d="M386.57,435.353c1.262-1.763,2.296-3.93,3.105-6.499l1.118,0.423c-0.428,1.154-0.868,2.216-1.322,3.187
			v9.751h-1.09v-7.654c-0.454,0.783-0.917,1.477-1.39,2.086C386.829,436.036,386.688,435.605,386.57,435.353z M396.036,428.964
			l-0.231,0.367c1.098,1.851,2.546,3.22,4.344,4.1c-0.272,0.327-0.536,0.665-0.79,1.021c-1.78-1.153-3.169-2.547-4.168-4.18
			c-0.891,1.533-2.307,2.969-4.25,4.302c-0.199-0.316-0.453-0.635-0.763-0.953c2.034-1.206,3.537-2.759,4.508-4.656H396.036z
			 M392.072,434.166h1.09v2.955c1.878-0.835,3.373-1.738,4.481-2.71l0.762,0.898c-1.59,1.217-3.337,2.213-5.244,2.983v1.525
			c0,0.607,0.354,0.914,1.062,0.914h2.506c0.427,0,0.741-0.069,0.939-0.206c0.191-0.127,0.318-0.398,0.381-0.818
			c0.1-0.553,0.172-1.221,0.218-2c0.291,0.126,0.659,0.259,1.104,0.394c-0.064,0.743-0.15,1.417-0.259,2.016
			c-0.109,0.627-0.332,1.063-0.667,1.31c-0.345,0.227-0.881,0.339-1.607,0.339h-2.684c-0.781,0-1.321-0.146-1.62-0.436
			c-0.309-0.292-0.463-0.798-0.463-1.525V434.166z"/>
	</g>
</g>
<g id="斯凯奇">
	<path fill="#D7E8BD" stroke="#231815" d="M409.72,398.465l-0.544,50.161l88.322-0.548c0,0-1.086-66.938-1.09-67.06
		c0.032,2.007-9.165,8.302-10.655,9.497c-11.634,9.32-30.374,8.058-44.411,8.494C430.871,399.337,420.191,398.136,409.72,398.465z"
		/>
	<g>
		<path fill="#231815" d="M434.472,423.448l0.832,0.655c-0.854,1.052-1.626,1.893-2.316,2.518c-0.191-0.216-0.441-0.457-0.75-0.721
			C433.091,425.146,433.836,424.33,434.472,423.448z M432.36,422.211h1.049v-6.293h-0.953v-0.928h0.953v-1.622h1.008v1.622h2.833
			v-1.622h1.008v1.622h1.008v0.928h-1.008v6.293h1.021v0.925h-6.92V422.211z M434.417,417.428h2.833v-1.51h-2.833V417.428z
			 M434.417,419.813h2.833v-1.513h-2.833V419.813z M434.417,422.211h2.833v-1.528h-2.833V422.211z M436.283,424.008l0.709-0.628
			c0.553,0.509,1.099,1.047,1.634,1.608l-0.777,0.708C437.359,425.125,436.837,424.562,436.283,424.008z M440.029,414.501
			c1.943-0.19,3.627-0.46,5.053-0.802l0.422,1.006c-1.434,0.273-2.924,0.486-4.466,0.641v2.941h4.711v0.954h-1.552v7.395h-1.007
			v-7.395h-2.151c-0.014,3.122-0.564,5.562-1.649,7.314c-0.245-0.257-0.531-0.511-0.858-0.764c0.999-1.517,1.499-3.667,1.499-6.457
			V414.501z"/>
		<path fill="#231815" d="M448.077,422.223v2.562c1.39-0.298,2.757-0.617,4.1-0.954c-0.018,0.393-0.027,0.76-0.027,1.103
			c-1.107,0.21-2.352,0.492-3.731,0.846c-0.427,0.107-0.817,0.264-1.17,0.461l-0.601-0.923c0.282-0.228,0.423-0.514,0.423-0.859
			v-3.16h4.099v-1.621h-4.576v-0.925h5.612v3.854h-1.036v-0.382H448.077z M451.524,418.029v-0.437h-4.808v-3.486h0.981v2.588h1.402
			v-3.475h1.008v3.475h1.417v-2.562h0.98v3.896H451.524z M454.561,415.034v3.866c0,2.178-0.141,3.8-0.422,4.861
			c-0.292,1.065-0.863,2.067-1.717,3.011c-0.262-0.282-0.561-0.539-0.897-0.776c0.862-0.79,1.425-1.721,1.688-2.794
			c0.228-0.797,0.341-2.231,0.341-4.302v-4.85h4.263v10.788c0,0.29,0.108,0.436,0.327,0.436h0.163c0.254,0,0.404-0.258,0.45-0.776
			c0.073-0.664,0.122-1.444,0.15-2.343c0.299,0.171,0.613,0.323,0.939,0.449c-0.054,0.9-0.123,1.657-0.205,2.275
			c-0.108,0.936-0.508,1.402-1.198,1.402h-0.518c-0.745,0-1.117-0.427-1.117-1.28v-9.968H454.561z"/>
		<path fill="#231815" d="M460.376,418.751h13.183v0.98h-2.097v5.175c0,1.136-0.608,1.703-1.826,1.703
			c-0.508,0-1.161-0.011-1.96-0.027c-0.045-0.326-0.119-0.696-0.218-1.104c0.663,0.063,1.271,0.101,1.825,0.108
			c0.763,0.028,1.145-0.27,1.145-0.897v-4.957h-10.052V418.751z M460.948,417.484c2.552-0.3,4.204-0.891,4.958-1.771h-4.7v-0.982
			h5.217c0.117-0.39,0.181-0.852,0.19-1.39h1.021c-0.008,0.538-0.058,1-0.149,1.39h5.326v0.982h-5.68
			c-0.037,0.063-0.091,0.148-0.164,0.257c1.825,0.51,3.586,1.036,5.285,1.581l-0.478,0.979c-1.852-0.7-3.682-1.303-5.488-1.811
			c-0.963,0.809-2.547,1.395-4.753,1.756C461.371,418.132,461.175,417.801,460.948,417.484z M461.983,420.915h5.788v3.761h-4.781
			v0.599h-1.007V420.915z M466.764,423.722v-1.853h-3.773v1.853H466.764z"/>
	</g>
</g>
<g id="苹果">
	<path fill="#D7E8BD" stroke="#231815" d="M549.838,352.665v0.005h-23.395c-19.308,1.078-24.316,16.715-24.316,16.715
		c-5.72,13.488-5.72,11.869-5.72,11.869l0.714,21.033l47.198,0.541v-15.1h5.518v0.38h47.979v-35.443H549.838z"/>
	<g>
		<path fill="#231815" d="M528.794,368.852l0.597-0.791c0.764,0.453,1.514,0.93,2.25,1.43c-0.246,0.309-0.473,0.604-0.683,0.886
			C530.285,369.848,529.564,369.341,528.794,368.852z M528.902,363.838h3.582v-1.255h1.034v1.255h4.101v-1.255h1.035v1.255h3.584
			v0.955h-3.584v1.224h-1.035v-1.224h-4.101v1.224h-1.034v-1.224h-3.582V363.838z M529.092,375.565
			c0.637-1.308,1.256-2.834,1.852-4.578c0.311,0.174,0.651,0.341,1.023,0.505c-0.555,1.343-1.135,2.857-1.742,4.533L529.092,375.565
			z M529.732,366.275l0.615-0.762c0.86,0.545,1.574,1.036,2.137,1.469c-0.244,0.301-0.465,0.582-0.654,0.846
			C531.131,367.267,530.433,366.748,529.732,366.275z M532.442,371.275h4.306v-3.868h-3.76v-0.928h8.689v0.928h-3.868v3.868h4.495
			v0.952h-4.495v3.798h-1.062v-3.798h-4.306V371.275z M533.125,368.318l0.762-0.529c0.563,0.743,1.182,1.592,1.852,2.545
			l-0.83,0.614C534.328,370.048,533.732,369.174,533.125,368.318z M538.777,370.28c0.725-0.818,1.402-1.644,2.027-2.479l0.847,0.625
			c-0.698,0.875-1.417,1.704-2.153,2.494L538.777,370.28z"/>
		<path fill="#231815" d="M556.332,374.27c-0.344,0.374-0.631,0.715-0.857,1.023c-2.207-0.7-4.029-1.937-5.463-3.713v4.406h-1.035
			v-4.419c-1.273,1.477-3.1,2.775-5.477,3.902c-0.215-0.272-0.486-0.565-0.814-0.872c2.143-0.821,3.883-1.883,5.223-3.188h-4.924
			v-0.98h5.992v-1.471h-3.607v0.531h-1.037v-6.267h10.324v6.267h-1.035v-0.531h-3.609v1.471h6.023v0.98h-5.109
			C552.252,372.813,554.053,373.767,556.332,374.27z M545.369,365.648h3.607v-1.496h-3.607V365.648z M545.369,368.032h3.607v-1.499
			h-3.607V368.032z M553.621,364.152h-3.609v1.496h3.609V364.152z M550.012,368.032h3.609v-1.499h-3.609V368.032z"/>
	</g>
</g>
<g>
	<path fill="#231815" d="M509.627,221.33c-0.007,0.362-0.007,0.687,0,0.975c-1.067,0.321-1.917,0.592-2.549,0.814
		c-0.307,0.107-0.595,0.243-0.866,0.407l-0.53-0.752c0.192-0.173,0.288-0.469,0.288-0.889v-0.993
		c-0.834,0.501-1.759,0.956-2.778,1.363c-0.152-0.288-0.328-0.567-0.529-0.84c2.016-0.718,3.687-1.656,5.009-2.812h-4.852v-0.839
		h5.833c-0.276-0.498-0.565-0.983-0.865-1.455l0.744-0.47c0.361,0.527,0.688,1.032,0.974,1.518l-0.667,0.407h5.745v0.839h-5.467
		c0.333,0.658,0.77,1.228,1.31,1.709c0.646-0.301,1.527-0.768,2.641-1.401l0.504,0.901c-1.009,0.416-1.82,0.764-2.431,1.043
		c0.936,0.608,2.102,1.018,3.502,1.228c-0.24,0.328-0.461,0.637-0.661,0.925c-2.62-0.531-4.483-1.852-5.594-3.966
		c-0.46,0.448-0.97,0.872-1.527,1.271v1.88C507.838,221.914,508.761,221.627,509.627,221.33z M506.308,211.289l0.733,0.568
		c-0.446,0.601-0.906,1.153-1.383,1.659v3.646h-0.868v-2.793c-0.54,0.489-1.103,0.923-1.684,1.301
		c-0.143-0.403-0.263-0.716-0.36-0.938C504.086,213.867,505.273,212.72,506.308,211.289z M506.319,213.744l2.766-0.204
		c-0.199-0.599-0.356-1.269-0.468-2.004l0.888-0.123c0.106,0.777,0.266,1.465,0.483,2.065l4.415-0.326l0.096,0.863l-4.132,0.302
		c0.462,0.848,1.084,1.449,1.87,1.807c0.297,0.148,0.557,0.223,0.783,0.223c0.264,0,0.431-0.169,0.504-0.506
		c0.08-0.394,0.141-0.806,0.179-1.234c0.334,0.145,0.629,0.264,0.892,0.358c-0.081,0.544-0.181,1.028-0.301,1.457
		c-0.186,0.559-0.541,0.838-1.07,0.838c-0.555,0-1.088-0.136-1.601-0.407c-0.941-0.501-1.677-1.321-2.2-2.461l-3.007,0.215
		L506.319,213.744z M510.841,211.906l0.518-0.642c0.722,0.485,1.243,0.868,1.563,1.147l-0.542,0.678
		C511.78,212.605,511.266,212.21,510.841,211.906z"/>
	<path fill="#231815" d="M519.322,221.269c0.006,0.346,0.027,0.645,0.061,0.9c-0.402,0.14-1.201,0.436-2.396,0.889
		c-0.2,0.082-0.415,0.218-0.648,0.406l-0.687-0.889c0.232-0.212,0.35-0.484,0.35-0.813v-4.589h0.876v4.934
		C517.563,221.877,518.375,221.598,519.322,221.269z M520.549,212.141c-1.18,0.289-2.398,0.519-3.658,0.69v1.061h3.225v0.801h-3.225
		v1h7.578v-1h-3.295v-0.801h3.295v-0.987h-3.367v-0.826h4.258v4.725h-0.891v-0.284h-7.578v0.32h-0.889v-4.663
		c1.57-0.205,2.905-0.485,4.004-0.838L520.549,212.141z M517.265,220.059l0.384-0.714c0.764,0.312,1.432,0.62,2.009,0.924
		l-0.456,0.814C518.6,220.73,517.955,220.389,517.265,220.059z M517.326,218l0.395-0.716c0.617,0.247,1.279,0.56,1.984,0.938
		l-0.434,0.802C518.633,218.645,517.983,218.305,517.326,218z M523.398,221.343c0.008,0.33,0.029,0.63,0.061,0.9
		c-0.754,0.239-1.572,0.535-2.453,0.889c-0.162,0.066-0.377,0.202-0.65,0.407l-0.685-0.926c0.231-0.197,0.349-0.468,0.349-0.813
		v-4.812h0.877v5.157C521.609,221.923,522.443,221.656,523.398,221.343z M521.27,220.035l0.398-0.714
		c0.816,0.353,1.486,0.666,2.008,0.938l-0.457,0.802C522.601,220.706,521.951,220.364,521.27,220.035z M521.307,217.975l0.385-0.679
		c0.688,0.271,1.35,0.584,1.984,0.938l-0.434,0.777C522.632,218.641,521.986,218.296,521.307,217.975z M524.902,217.074
		c-0.025,2.426,0.15,4.087,0.527,4.984c0.105,0.23,0.21,0.345,0.314,0.345c0.121,0,0.207-0.147,0.264-0.443
		c0.064-0.412,0.111-0.975,0.145-1.69c0.393,0.14,0.687,0.243,0.878,0.309c-0.071,0.747-0.155,1.398-0.251,1.949
		c-0.139,0.625-0.396,0.937-0.783,0.937c-0.553,0-0.99-0.296-1.311-0.889c-0.449-0.772-0.674-2.606-0.674-5.501H524.902z"/>
</g>
<g id="华蒂乐">
	<polygon fill="#FADED8" stroke="#231815" points="553.652,164.027 553.652,169.452 568.92,169.452 568.92,216.639 605.449,216.639 
		605.449,164.027 	"/>
	<g>
		<path fill="#231815" d="M570.891,189.375h4.295v-4.113h0.904v1.604h4.521v0.797h-4.521v1.712h5.197v0.817h-10.396V189.375z
			 M575.174,190.58h0.904v1.238l0.443-0.569c1.707,0.78,3.096,1.475,4.164,2.076l-0.561,0.797c-0.975-0.596-2.324-1.31-4.047-2.142
			v3.885h-0.904V190.58z"/>
		<path fill="#231815" d="M581.902,186.241h2.734v-1.033h0.816v1.033h3.273v-1.033h0.818v1.033h2.82v0.689h-2.82v0.808h-0.818
			v-0.808h-3.273v0.808h-0.816v-0.808h-2.734V186.241z M583.322,191.99h3.359v-1.087h-3.746v1.022h-0.797v-1.711h2.854
			c-0.205-0.298-0.445-0.604-0.723-0.915l0.646-0.441c0.309,0.336,0.592,0.677,0.852,1.022l-0.48,0.334h3.016
			c0.275-0.42,0.527-0.858,0.758-1.313l0.797,0.333c-0.219,0.355-0.436,0.682-0.65,0.98h2.836v1.711h-0.797v-1.022H587.5v1.087
			h3.436v1.971c0,0.717-0.357,1.076-1.068,1.076h-1.109c-0.057-0.287-0.133-0.556-0.225-0.807c0.352,0.029,0.699,0.042,1.043,0.042
			c0.359,0,0.539-0.154,0.539-0.463v-1.151H587.5v3.143h-0.818v-3.143h-2.539v2.432h-0.82V191.99z M582.451,188.114h4.24
			c-0.117-0.244-0.258-0.484-0.42-0.72l0.785-0.324c0.225,0.375,0.402,0.721,0.535,1.044h4.119v0.689h-9.26V188.114z"/>
		<path fill="#231815" d="M595.51,191.441l0.752,0.527c-1.041,1.385-1.98,2.479-2.82,3.284c-0.201-0.181-0.428-0.381-0.678-0.603
			C593.754,193.666,594.668,192.596,595.51,191.441z M594.26,186.113c2.721-0.058,5.297-0.224,7.73-0.496l0.291,0.839
			c-2.557,0.237-4.965,0.376-7.225,0.42l-0.41,3.1h3.143v-2.443h0.895v2.443h4.242v0.818h-4.242v3.379
			c0,0.553-0.1,0.933-0.301,1.142c-0.223,0.229-0.584,0.344-1.086,0.344c-0.268,0-0.746-0.003-1.434-0.011
			c-0.033-0.287-0.094-0.596-0.172-0.925c0.725,0.064,1.193,0.092,1.41,0.085c0.461,0.014,0.688-0.223,0.688-0.709v-3.305h-4.154
			L594.26,186.113z M600.643,191.42c1.055,1.068,2.004,2.13,2.844,3.185l-0.723,0.646c-0.832-1.091-1.766-2.196-2.799-3.315
			L600.643,191.42z"/>
	</g>
</g>
<g id="hangten">
	<rect x="494.772" y="289.424" fill="#FADED8" stroke="#231815" width="110.677" height="40.345"/>
	<g>
		<g>
			<path fill="#231815" d="M524.699,313.158h-1.188v-3.875c0-1.356-0.505-2.036-1.511-2.036c-0.515,0-0.945,0.199-1.285,0.595
				c-0.342,0.396-0.512,0.894-0.512,1.495v3.82h-1.193v-9.974h1.193v4.345h0.023c0.515-0.846,1.248-1.268,2.199-1.268
				c1.517,0,2.273,0.917,2.273,2.749V313.158z"/>
			<path fill="#231815" d="M526.848,306.889c0.673-0.418,1.444-0.627,2.323-0.627c1.624,0,2.436,0.852,2.436,2.559v4.338h-1.183
				v-1.041h-0.029c-0.467,0.8-1.156,1.199-2.066,1.199c-0.653,0-1.174-0.176-1.559-0.53s-0.579-0.831-0.579-1.432
				c0-1.257,0.745-1.992,2.237-2.199l1.996-0.279c0-1.101-0.455-1.653-1.365-1.653c-0.807,0-1.545,0.272-2.211,0.817V306.889z
				 M528.847,309.991c-0.55,0.072-0.933,0.21-1.144,0.414c-0.207,0.202-0.312,0.486-0.312,0.852c0,0.321,0.113,0.583,0.341,0.786
				c0.229,0.203,0.528,0.305,0.902,0.305c0.52,0,0.948-0.184,1.283-0.549c0.338-0.364,0.506-0.824,0.506-1.376v-0.646
				L528.847,309.991z"/>
			<path fill="#231815" d="M539.284,313.158h-1.189v-3.831c0-1.385-0.506-2.08-1.515-2.08c-0.527,0-0.957,0.195-1.295,0.585
				c-0.335,0.391-0.504,0.883-0.504,1.48v3.845h-1.195v-6.738h1.195v1.114h0.025c0.506-0.849,1.242-1.273,2.211-1.273
				c0.736,0,1.301,0.237,1.686,0.71c0.387,0.473,0.581,1.164,0.581,2.069V313.158z"/>
			<path fill="#231815" d="M547.125,312.591c0,2.495-1.213,3.741-3.633,3.741c-0.836,0-1.562-0.156-2.181-0.468v-1.15
				c0.753,0.416,1.472,0.625,2.163,0.625c1.639,0,2.455-0.86,2.455-2.583v-0.713h-0.025c-0.512,0.849-1.275,1.273-2.291,1.273
				c-0.844,0-1.521-0.302-2.027-0.908c-0.509-0.604-0.762-1.406-0.762-2.405c0-1.149,0.279-2.061,0.841-2.733
				c0.56-0.671,1.308-1.008,2.243-1.008c0.896,0,1.561,0.357,1.996,1.072h0.025v-0.914h1.195V312.591z M545.93,309.149
				c0.002-0.52-0.172-0.966-0.523-1.34s-0.789-0.562-1.305-0.562c-0.65,0-1.156,0.24-1.518,0.717
				c-0.359,0.477-0.542,1.132-0.542,1.965c0,0.715,0.175,1.292,0.524,1.738c0.352,0.441,0.813,0.662,1.389,0.662
				c0.582,0,1.057-0.211,1.428-0.633c0.369-0.423,0.549-0.958,0.547-1.608V309.149z"/>
			<path fill="#231815" d="M552.492,313.091c-0.26,0.143-0.613,0.214-1.055,0.214c-1.207,0-1.809-0.668-1.809-2.005v-3.893h-1.16
				v-0.987h1.16v-1.62l1.188-0.379v2h1.676v0.987h-1.676v3.679c0,0.443,0.074,0.761,0.225,0.951
				c0.148,0.192,0.398,0.286,0.748,0.286c0.27,0,0.502-0.076,0.703-0.226V313.091z"/>
			<path fill="#231815" d="M559.393,310.093h-4.715c0.021,0.721,0.219,1.275,0.592,1.668c0.373,0.391,0.895,0.587,1.564,0.587
				c0.756,0,1.449-0.242,2.078-0.725v1.065c-0.594,0.418-1.379,0.628-2.357,0.628c-0.975,0-1.736-0.308-2.283-0.926
				c-0.545-0.617-0.818-1.475-0.818-2.57c0-1.032,0.299-1.883,0.898-2.552c0.6-0.671,1.344-1.006,2.232-1.006
				c0.881,0,1.57,0.284,2.066,0.849c0.494,0.567,0.742,1.361,0.742,2.379V310.093z M558.199,309.139
				c-0.004-0.611-0.15-1.083-0.434-1.414c-0.285-0.334-0.686-0.501-1.197-0.501c-0.477,0-0.889,0.179-1.236,0.531
				c-0.346,0.353-0.564,0.814-0.654,1.384H558.199z"/>
			<path fill="#231815" d="M566.68,313.158h-1.188v-3.831c0-1.385-0.508-2.08-1.518-2.08c-0.523,0-0.955,0.195-1.293,0.585
				c-0.336,0.391-0.504,0.883-0.504,1.48v3.845h-1.195v-6.738h1.195v1.114h0.025c0.506-0.849,1.244-1.273,2.211-1.273
				c0.736,0,1.303,0.237,1.688,0.71s0.578,1.164,0.578,2.069V313.158z"/>
		</g>
	</g>
</g>
<rect x="329.154" y="298.692" fill="#E6E6E6" stroke="#231815" width="107.192" height="55.391"/>
<g id="北客">
	<rect x="329.848" y="354.041" fill="#FADED8" stroke="#231815" width="106.86" height="17.438"/>
	<g>
		<path fill="#231815" d="M367.063,366.294c0.997-0.348,2.178-0.797,3.541-1.354v-3.607h-3.301v-0.853h3.301v-3.219h0.929v11.014
			h-0.929v-2.377c-0.733,0.299-1.792,0.731-3.175,1.302L367.063,366.294z M373.814,357.238h0.929v3.881
			c1.042-0.535,2.017-1.121,2.922-1.763l0.573,0.827c-0.825,0.519-1.991,1.156-3.495,1.908v4.214c0,0.518,0.286,0.778,0.859,0.778
			h0.802c0.55,0,0.86-0.261,0.929-0.778c0.068-0.481,0.13-1.11,0.184-1.882c0.336,0.139,0.66,0.262,0.974,0.369
			c-0.077,0.725-0.161,1.344-0.252,1.854c-0.146,0.872-0.684,1.308-1.616,1.308h-1.238c-1.047,0-1.57-0.518-1.57-1.546V357.238z"/>
		<path fill="#231815" d="M386.044,359.267l0.837,0.355c-0.175,0.218-0.351,0.426-0.527,0.631h5.284v0.722
			c-0.634,0.737-1.475,1.374-2.521,1.909c1.268,0.392,2.816,0.595,4.643,0.603c-0.207,0.296-0.398,0.606-0.574,0.928
			c-2.045-0.158-3.741-0.516-5.088-1.073c-1.483,0.598-3.298,1.031-5.445,1.301c-0.129-0.283-0.291-0.558-0.482-0.824
			c1.93-0.194,3.569-0.516,4.918-0.963c-0.734-0.421-1.328-0.92-1.783-1.501c-0.574,0.548-1.167,1.042-1.783,1.479
			c-0.168-0.199-0.366-0.406-0.595-0.621C384.279,361.288,385.318,360.306,386.044,359.267z M382.904,358.464h4.946
			c-0.207-0.317-0.458-0.654-0.751-1.009l0.779-0.492c0.307,0.352,0.624,0.741,0.951,1.168l-0.526,0.333h4.849v2.142h-0.848v-1.386
			h-8.551v1.376h-0.848V358.464z M384.279,364.709h7.475v3.646h-0.848v-0.479h-5.778v0.479h-0.849V364.709z M390.905,365.444h-5.778
			v1.697h5.778V365.444z M390.423,360.986h-4.384c0.516,0.61,1.193,1.109,2.035,1.494
			C389.047,362.064,389.831,361.566,390.423,360.986z"/>
	</g>
</g>
<rect x="226.804" y="298.692" fill="#E6E6E6" stroke="#231815" width="80.145" height="54.793"/>
<g id="甄豪国际健身会所">
	<path fill="#B3B3B3" stroke="#231815" d="M873.688,360.846"/>
	<path fill="#FFFAC4" stroke="#231815" d="M926.09,235.041L926.09,235.041l21.398-0.001v-64.276H926.09V144.47h-0.281l0.281-16.8
		l20.66-0.092l-0.004-52.498h-0.275v-0.731H682.656v419.262h0.074v1.763h262.924v-1.765h0.357V389.887h-20.656v-27.024h-39.83
		V235.041H926.09z M785.932,169.867h42.789v62.708h-33.564v-19.81h-9.225V169.867z"/>
	<g>
		<path fill="#231815" d="M724.393,311.067c1.25-0.076,2.455-0.155,3.613-0.232v-2.32h-3.148v-1.078h3.148v-1.906h1.08v1.906h3.133
			v1.078h-3.133v2.254c1.203-0.088,2.363-0.182,3.48-0.283c-0.033,0.399-0.061,0.786-0.082,1.162
			c-3.174,0.208-5.82,0.442-7.941,0.695L724.393,311.067z M724.775,300.392h2.254v-1.708h-2.537v-1.078h8.107v1.078h-2.438v1.708
			h2.254v5.223h-0.928v-0.482h-5.785v0.482h-0.928V300.392z M725.703,304.056h1.326v-2.586h-1.326V304.056z M727.924,300.392h1.346
			v-1.708h-1.346V300.392z M727.924,304.056h1.346v-2.586h-1.346V304.056z M731.488,301.469h-1.326v2.586h1.326V301.469z
			 M737.787,302.711h-2.865l-0.533,8.24c0.719-0.286,1.586-0.652,2.604-1.095c0.012,0.564,0.023,1.012,0.033,1.343
			c-1.215,0.453-2.293,0.879-3.232,1.276c-0.111,0.055-0.277,0.161-0.496,0.315l-0.631-1.176c0.398-0.243,0.607-0.538,0.631-0.879
			l0.76-11.885h-1.076v-1.209h7.262v1.209h-5.074l-0.182,2.669h3.93l-0.133,9.267c-0.023,0.387,0.109,0.579,0.396,0.579
			c0.221,0,0.35-0.149,0.383-0.448c0.133-1.148,0.221-2.159,0.264-3.034c0.322,0.155,0.67,0.311,1.043,0.465
			c-0.053,0.563-0.143,1.441-0.264,2.637c-0.121,1.049-0.59,1.574-1.408,1.574h-0.168c-0.949,0-1.396-0.592-1.34-1.773
			L737.787,302.711z M735.697,304.569c0.764,0.674,1.439,1.32,2.025,1.94l-0.779,0.945c-0.598-0.697-1.229-1.383-1.891-2.057
			L735.697,304.569z"/>
		<path fill="#231815" d="M741.566,297.822h7.559c-0.176-0.315-0.369-0.624-0.58-0.929l1.145-0.431
			c0.293,0.453,0.557,0.907,0.787,1.36h6.971v0.895h-15.881V297.822z M755.127,306.177l0.547,0.945
			c-0.9,0.41-1.807,0.802-2.719,1.175c1.078,1.438,2.619,2.323,4.623,2.654c-0.252,0.409-0.506,0.806-0.762,1.193
			c-2.127-0.614-3.752-1.756-4.879-3.431c-0.285,0.113-0.568,0.224-0.855,0.34c0.109,0.42,0.166,0.854,0.166,1.302
			c0,1.58-0.74,2.371-2.223,2.371c-0.994,0-1.723-0.007-2.188-0.018c-0.064-0.365-0.158-0.746-0.281-1.144
			c0.949,0.065,1.74,0.101,2.371,0.101c0.816,0,1.227-0.432,1.227-1.293c0-0.317-0.033-0.624-0.1-0.931
			c-1.592,1.014-4.117,2.068-7.576,3.167c-0.176-0.309-0.408-0.641-0.697-0.994c3.305-0.828,5.959-1.863,7.957-3.1
			c-0.109-0.238-0.242-0.476-0.396-0.713c-1.625,0.906-3.912,1.829-6.863,2.768c-0.088-0.153-0.314-0.497-0.68-1.027
			c2.934-0.696,5.258-1.522,6.971-2.478c-0.137-0.166-0.289-0.326-0.455-0.481c-1.488,0.602-3.365,1.213-5.637,1.831
			c-0.121-0.199-0.35-0.55-0.682-1.06c2.471-0.497,4.52-1.044,6.145-1.641h-3.889v-0.896h10.477v0.896h-4.559
			c-0.275,0.154-0.576,0.307-0.895,0.457c0.635,0.608,1.117,1.249,1.443,1.923C752.426,307.407,753.895,306.768,755.127,306.177z
			 M741.996,303.061h15.021v2.387h-1.162v-1.492h-12.697v1.492h-1.162V303.061z M744.002,299.579h11.025v3.017h-1.16v-0.398h-8.703
			v0.398h-1.162V299.579z M753.867,300.408h-8.703v0.961h8.703V300.408z"/>
		<path fill="#231815" d="M759.219,297.474h14.506v15.466h-1.277v-0.828h-11.951v0.845h-1.277V297.474z M772.447,298.651h-11.951
			v12.281h11.951V298.651z M761.26,308.05h4.574v-3.282h-3.994v-1.128h3.994v-2.221h-4.309v-1.126h9.879v1.126h-4.344v2.221h4.012
			v1.128h-4.012v3.282h4.609v1.126h-10.41V308.05z M767.924,305.828l0.928-0.696c0.607,0.629,1.129,1.222,1.559,1.774l-0.979,0.747
			C768.9,306.934,768.398,306.327,767.924,305.828z"/>
		<path fill="#231815" d="M780.938,306.276c0.285,2.078-0.246,3.266-1.594,3.565c-0.432,0.088-0.99,0.092-1.674,0.015
			c-0.088-0.453-0.209-0.9-0.363-1.342c0.584,0.144,1.098,0.188,1.539,0.132c0.775-0.088,1.035-0.879,0.781-2.371
			c-0.154-0.863-0.682-1.878-1.574-3.049c0.451-1.35,0.904-2.818,1.357-4.411h-2.205v14.141h-1.258v-15.368h4.84v1.194
			c-0.508,1.647-0.955,3.078-1.342,4.294C780.328,304.282,780.824,305.348,780.938,306.276z M782.826,305.166l1.227,0.449
			c-0.787,2.087-1.625,3.988-2.521,5.703c-0.484-0.266-0.879-0.46-1.176-0.583C781.338,308.956,782.164,307.1,782.826,305.166z
			 M780.652,302.166h10.811v1.226h-4.775v7.294c0,1.349-0.65,2.022-1.955,2.022c-0.52,0-1.184-0.005-1.99-0.016
			c-0.098-0.597-0.188-1.067-0.264-1.412c0.84,0.09,1.492,0.135,1.955,0.135c0.641,0,0.961-0.339,0.961-1.013v-7.012h-4.742V302.166
			z M781.549,297.987h9.018v1.227h-9.018V297.987z M787.947,305.762l1.145-0.563c0.906,1.846,1.762,3.642,2.568,5.388l-1.207,0.58
			C789.834,309.741,788.998,307.94,787.947,305.762z"/>
		<path fill="#231815" d="M792.074,304.734c1.438-2.376,2.471-5.056,3.1-8.04l1.143,0.282c-0.297,1.359-0.676,2.663-1.143,3.913
			v12.003h-1.094v-9.466c-0.453,0.905-0.949,1.78-1.492,2.618C792.445,305.57,792.273,305.132,792.074,304.734z M796.832,305.531
			c0.254,1.171,0.635,2.16,1.145,2.967c0.484-1.228,0.74-2.58,0.764-4.063h-2.473v-1.094l2.289-3.812h-2.189v-1.061h3.516v1.078
			l-2.305,3.827h2.305v1.144c-0.045,1.847-0.404,3.521-1.078,5.024c1.182,1.17,2.807,1.723,4.873,1.658
			c1.602,0.02,3.271-0.012,5.01-0.101c-0.168,0.422-0.34,0.863-0.516,1.328c-1.525,0-3.068-0.011-4.627-0.034
			c-2.219,0.034-3.99-0.553-5.303-1.757c-0.496,0.851-1.111,1.646-1.842,2.386c-0.309-0.363-0.602-0.668-0.877-0.91
			c0.762-0.741,1.393-1.548,1.889-2.421c-0.719-0.984-1.238-2.232-1.559-3.746L796.832,305.531z M800.064,308.084h2.986v-1.46
			h-2.605v-0.929h2.605v-1.458h-2.371v-0.93h2.371v-1.441h-3.201v-0.961h3.201v-1.443h-2.338v-0.929h2.338v-1.724h1.127v1.724h2.982
			v2.372h1.375v0.961h-1.375v2.769h-1.109v-0.398h-1.873v1.458h3.264v0.929h-3.264v1.46h3.514v0.927h-3.514v1.724h-1.127v-1.724
			h-2.986V308.084z M806.051,299.463h-1.873v1.443h1.873V299.463z M806.051,303.308v-1.441h-1.873v1.441H806.051z"/>
		<path fill="#231815" d="M809.299,306.31h2.287v-7.923h3.789c0.256-0.653,0.471-1.261,0.635-1.824l1.395,0.348
			c-0.211,0.475-0.436,0.967-0.672,1.476h6.01v7.045c0.723-0.542,1.42-1.11,2.09-1.708l0.828,0.912
			c-0.934,0.8-1.908,1.557-2.918,2.271v3.315c0,1.668-0.73,2.509-2.189,2.52c-0.904,0.022-1.824,0.011-2.752-0.034
			c-0.066-0.387-0.154-0.846-0.266-1.376c0.809,0.078,1.676,0.116,2.605,0.116c0.859,0,1.291-0.452,1.291-1.358v-2.304
			c-3.371,2.166-7.178,3.88-11.422,5.138c-0.209-0.431-0.459-0.85-0.746-1.258c3.906-1.007,7.406-2.421,10.494-4.246h-10.459V306.31
			z M821.432,299.496h-8.537v1.559h8.537V299.496z M812.895,303.674h8.537v-1.559h-8.537V303.674z M812.895,306.31h8.537v-1.575
			h-8.537V306.31z"/>
		<path fill="#231815" d="M834.361,298.137c-2.211,2.608-4.689,4.708-7.441,6.298c-0.268-0.396-0.57-0.799-0.914-1.208
			c3.172-1.626,5.742-3.769,7.709-6.433h1.773l-0.314,0.415c1.912,2.553,4.436,4.426,7.576,5.619
			c-0.332,0.442-0.643,0.912-0.928,1.41C838.615,302.679,836.131,300.646,834.361,298.137z M836.865,308.149
			c1.602,1.426,2.984,2.763,4.143,4.011l-1.076,0.961c-0.354-0.409-0.764-0.861-1.227-1.357c-2.752,0.165-5.564,0.353-8.438,0.561
			c-0.465,0.045-0.934,0.167-1.41,0.367l-0.744-1.375c0.539-0.201,0.998-0.465,1.375-0.796c0.961-0.941,1.891-2.042,2.785-3.3h-5.52
			v-1.227h15.217v1.227h-8.023c-1.127,1.425-2.229,2.691-3.299,3.795c2.441-0.122,4.773-0.237,6.996-0.349
			c-0.51-0.517-1.066-1.083-1.676-1.69L836.865,308.149z M829.754,302.58h9.148v1.227h-9.148V302.58z"/>
		<path fill="#231815" d="M844.539,297.854c1.836-0.032,3.754-0.259,5.752-0.679l0.432,1.243c-1.637,0.243-3.299,0.425-4.99,0.546
			v2.57h4.344v6.117h-1.16v-0.73h-3.25c-0.182,2.531-0.764,4.537-1.738,6.017c-0.299-0.364-0.605-0.702-0.912-1.01
			c1.014-1.393,1.523-3.679,1.523-6.863V297.854z M848.916,305.828v-3.199h-3.184c0,1.647-0.002,2.714-0.006,3.199H848.916z
			 M851.668,297.955c2.629-0.1,5.021-0.342,7.178-0.729l0.447,1.259c-2.762,0.31-4.896,0.509-6.4,0.597v3.696h6.717v1.143h-2.572
			v8.954h-1.24v-8.954h-2.904v0.93c0,3.482-0.965,6.216-2.9,8.205c-0.32-0.375-0.635-0.74-0.943-1.094
			c1.746-1.789,2.619-4.172,2.619-7.145V297.955z"/>
	</g>
</g>
<g id="BOSSUNWEN">
	<polygon fill="#FADED8" stroke="#231815" points="553.652,164.027 496.408,164.027 496.408,235.994 534.571,235.994 
		534.571,169.48 553.652,169.48 	"/>
	<g>
		<path fill="#231815" d="M498.656,185.949v-7.253h1.714c0.512,0,0.92,0.152,1.228,0.456c0.306,0.304,0.459,0.709,0.459,1.21
			c0,0.4-0.09,0.753-0.273,1.058c-0.182,0.307-0.433,0.523-0.752,0.651v0.02c0.398,0.056,0.714,0.242,0.953,0.559
			c0.236,0.317,0.355,0.719,0.355,1.206c0,0.625-0.18,1.129-0.541,1.515c-0.359,0.385-0.821,0.578-1.383,0.578H498.656z
			 M499.409,179.515v2.271h0.686c0.364,0,0.649-0.109,0.856-0.329c0.206-0.221,0.31-0.526,0.31-0.916
			c0-0.683-0.366-1.025-1.098-1.025H499.409z M499.409,182.601v2.529h0.904c0.395,0,0.699-0.113,0.913-0.339
			c0.214-0.228,0.323-0.541,0.323-0.944c0-0.83-0.454-1.246-1.359-1.246H499.409z"/>
		<path fill="#231815" d="M503.12,182.409c0-1.17,0.254-2.102,0.763-2.795c0.512-0.694,1.201-1.04,2.072-1.04
			c0.812,0,1.465,0.338,1.96,1.016c0.493,0.677,0.741,1.559,0.741,2.645c0,1.177-0.253,2.111-0.76,2.801
			c-0.507,0.689-1.185,1.034-2.035,1.034c-0.827,0-1.492-0.339-1.992-1.016S503.12,183.496,503.12,182.409z M503.91,182.333
			c0,0.878,0.181,1.581,0.541,2.11c0.36,0.529,0.83,0.794,1.41,0.794c0.623,0,1.112-0.254,1.468-0.761
			c0.354-0.507,0.531-1.216,0.531-2.128c0-0.937-0.172-1.659-0.52-2.168c-0.348-0.509-0.825-0.763-1.43-0.763
			c-0.596,0-1.077,0.269-1.445,0.805C504.096,180.759,503.91,181.463,503.91,182.333z"/>
		<path fill="#231815" d="M509.511,184.586c0.177,0.194,0.417,0.354,0.715,0.479c0.298,0.125,0.583,0.187,0.852,0.187
			c0.816,0,1.227-0.362,1.227-1.086c0-0.203-0.044-0.386-0.132-0.548c-0.087-0.163-0.208-0.306-0.361-0.431
			c-0.153-0.125-0.441-0.317-0.863-0.577c-0.586-0.361-0.971-0.699-1.156-1.009c-0.187-0.311-0.28-0.666-0.28-1.065
			c0-0.602,0.195-1.08,0.584-1.433c0.388-0.353,0.88-0.529,1.473-0.529c0.579,0,1.005,0.087,1.275,0.262v1.021
			c-0.351-0.303-0.794-0.455-1.334-0.455c-0.355,0-0.646,0.093-0.872,0.279c-0.223,0.186-0.337,0.444-0.337,0.774
			c0,0.294,0.079,0.533,0.235,0.716c0.155,0.184,0.492,0.436,1.013,0.754c0.572,0.341,0.972,0.682,1.2,1.021
			c0.229,0.34,0.343,0.723,0.343,1.147c0,0.638-0.186,1.125-0.557,1.465c-0.373,0.34-0.888,0.511-1.548,0.511
			c-0.232,0-0.501-0.039-0.808-0.119c-0.308-0.081-0.532-0.18-0.672-0.298V184.586z"/>
		<path fill="#231815" d="M513.961,184.586c0.178,0.194,0.417,0.354,0.716,0.479s0.583,0.187,0.852,0.187
			c0.818,0,1.227-0.362,1.227-1.086c0-0.203-0.043-0.386-0.131-0.548c-0.088-0.163-0.21-0.306-0.361-0.431
			c-0.154-0.125-0.441-0.317-0.863-0.577c-0.585-0.361-0.971-0.699-1.156-1.009c-0.187-0.311-0.278-0.666-0.278-1.065
			c0-0.602,0.193-1.08,0.583-1.433c0.388-0.353,0.88-0.529,1.473-0.529c0.579,0,1.005,0.087,1.276,0.262v1.021
			c-0.352-0.303-0.795-0.455-1.334-0.455c-0.355,0-0.646,0.093-0.872,0.279c-0.224,0.186-0.337,0.444-0.337,0.774
			c0,0.294,0.078,0.533,0.235,0.716c0.156,0.184,0.492,0.436,1.013,0.754c0.571,0.341,0.973,0.682,1.201,1.021
			c0.229,0.34,0.342,0.723,0.342,1.147c0,0.638-0.186,1.125-0.557,1.465s-0.888,0.511-1.549,0.511c-0.23,0-0.5-0.039-0.807-0.119
			c-0.309-0.081-0.532-0.18-0.673-0.298V184.586z"/>
		<path fill="#231815" d="M518.414,184.586c0.177,0.194,0.416,0.354,0.715,0.479s0.584,0.187,0.852,0.187
			c0.818,0,1.227-0.362,1.227-1.086c0-0.203-0.043-0.386-0.131-0.548c-0.088-0.163-0.209-0.306-0.361-0.431
			c-0.152-0.125-0.441-0.317-0.863-0.577c-0.584-0.361-0.97-0.699-1.156-1.009c-0.186-0.311-0.279-0.666-0.279-1.065
			c0-0.602,0.196-1.08,0.586-1.433c0.388-0.353,0.879-0.529,1.473-0.529c0.58,0,1.004,0.087,1.275,0.262v1.021
			c-0.352-0.303-0.796-0.455-1.334-0.455c-0.356,0-0.646,0.093-0.871,0.279s-0.336,0.444-0.336,0.774
			c0,0.294,0.076,0.533,0.234,0.716c0.154,0.184,0.491,0.436,1.012,0.754c0.571,0.341,0.973,0.682,1.2,1.021
			c0.229,0.34,0.345,0.723,0.345,1.147c0,0.638-0.188,1.125-0.559,1.465s-0.888,0.511-1.547,0.511c-0.232,0-0.504-0.039-0.809-0.119
			c-0.309-0.081-0.531-0.18-0.672-0.298V184.586z"/>
		<path fill="#231815" d="M527.461,182.994c0,2.051-0.749,3.077-2.246,3.077c-1.434,0-2.151-0.989-2.151-2.969v-4.406h0.754v4.364
			c0,1.452,0.49,2.178,1.469,2.178c0.948,0,1.42-0.703,1.42-2.107v-4.434h0.755V182.994z"/>
		<path fill="#231815" d="M533.657,185.949h-0.89l-2.936-5.643c-0.082-0.16-0.148-0.317-0.2-0.474h-0.022
			c0.021,0.163,0.029,0.502,0.029,1.017v5.1h-0.744v-7.253h0.943l2.857,5.544c0.135,0.262,0.215,0.429,0.241,0.501h0.014
			c-0.026-0.207-0.036-0.558-0.036-1.058v-4.987h0.743V185.949z"/>
		<path fill="#231815" d="M542.164,178.696l-1.637,7.253h-0.877l-1.176-5.226c-0.053-0.238-0.083-0.487-0.094-0.75h-0.014
			c-0.016,0.26-0.051,0.507-0.107,0.741l-1.186,5.235h-0.871l-1.689-7.253h0.832l1.19,5.479c0.052,0.247,0.085,0.495,0.094,0.745
			h0.022c0.014-0.187,0.054-0.436,0.125-0.745l1.262-5.479h0.742l1.205,5.521c0.039,0.181,0.072,0.412,0.099,0.693h0.015
			c0.012-0.203,0.048-0.441,0.108-0.712l1.146-5.501H542.164z"/>
		<path fill="#231815" d="M546.152,185.949h-3.137v-7.253h3.004v0.833h-2.252v2.324h2.088v0.828h-2.088v2.44h2.385V185.949z"/>
		<path fill="#231815" d="M552.018,185.949h-0.891l-2.934-5.643c-0.082-0.16-0.15-0.317-0.199-0.474h-0.021
			c0.018,0.163,0.027,0.502,0.027,1.017v5.1h-0.744v-7.253h0.943l2.857,5.544c0.133,0.262,0.215,0.429,0.24,0.501h0.014
			c-0.027-0.207-0.037-0.558-0.037-1.058v-4.987h0.744V185.949z"/>
	</g>
</g>
<g id="劲霸">
	<polygon fill="#FADED8" stroke="#231815" points="384.641,165.118 384.641,229.997 432.619,229.997 432.619,164.573 	"/>
	<path fill="#B3B3B3" stroke="#231815" d="M432.619,164.573"/>
	<path fill="#FADED8" stroke="#231815" d="M432.619,164.573c0,0,32.165,0,32.332,0c13.863,0.001,13.604,11.805,13.438,21.331
		c-0.204,11.733-0.024,23.502,0.003,35.24c0.002,0.456,0.059,8.853,0.023,8.853c-0.041,0-45.797,0-45.797,0V164.573z"/>
	<rect x="427.984" y="165.39" fill="#FADED8" width="15.129" height="63.788"/>
	<g>
		<path fill="#231815" d="M419.062,194.143l-0.805,1.164c-0.988-0.821-2.17-1.646-3.544-2.477c-1.105,0.987-2.426,1.83-3.962,2.526
			c-0.096-0.325-0.28-0.741-0.548-1.246c2.598-1.089,4.532-2.662,5.799-4.718h-4.961v-1.163h6.395v1.129
			c-0.483,0.921-1.073,1.764-1.771,2.527C416.919,192.661,418.052,193.413,419.062,194.143z M410.315,200.917
			c1.106-0.146,2.261-0.309,3.463-0.489v-3.471h-2.835v-1.197h6.974v1.197h-2.882v3.286c1.052-0.158,2.143-0.332,3.27-0.522
			c-0.021,0.415-0.032,0.848-0.032,1.296c-3.609,0.551-6.153,0.973-7.635,1.265L410.315,200.917z M418.127,190.622h1.965
			c0.033-1.202,0.048-2.376,0.048-3.522h1.288c-0.021,1.303-0.043,2.477-0.063,3.522h4.139c-0.096,4.145-0.209,7.532-0.337,10.16
			c-0.097,1.628-0.774,2.454-2.03,2.477c-0.526,0.012-1.224-0.011-2.094-0.066c-0.075-0.563-0.162-1.051-0.258-1.467
			c0.816,0.124,1.494,0.186,2.03,0.186c0.645-0.012,0.998-0.433,1.063-1.264c0.162-2.606,0.268-5.527,0.322-8.762h-2.867
			c-0.043,2.978-0.204,5.189-0.483,6.639c-0.43,2.045-1.332,3.77-2.706,5.173c-0.28-0.371-0.613-0.719-1-1.044
			c1.235-1.191,2.051-2.675,2.449-4.449c0.29-1.28,0.451-3.387,0.483-6.319h-1.95V190.622z"/>
		<path fill="#231815" d="M431.771,201.186h3.785v-1.027h-1.821v0.287h-0.934v-2.78h2.754v-0.994h-0.998v0.287h-0.968v-1.921h-1.819
			v-0.776h1.819v-0.673h0.968v0.673h2.963v-0.673h0.966v0.673h1.708v0.776h-1.708v1.921h-0.966v-0.287h-0.999v0.994h2.819v2.78
			h-0.935v-0.287h-1.885v1.027h3.206v0.743h-3.206v1.769h-0.966v-1.769h-3.785V201.186z M432.27,189.392h6.814v-0.843h-5.912v-0.842
			h12.693v0.842h-5.686v0.843h6.813v2.932h-1.094v-2.089h-5.719v2.847h-1.096v-2.847h-5.718v2.089h-1.096V189.392z M433.735,199.451
			h1.821v-1.078h-1.821V199.451z M434.09,191.009h4.269v0.741h-4.269V191.009z M434.09,192.525h4.269v0.742h-4.269V192.525z
			 M434.558,195.963h2.963v-0.927h-2.963V195.963z M438.407,198.373h-1.885v1.078h1.885V198.373z M440.275,203.765
			c-0.257-0.281-0.547-0.545-0.869-0.792c0.901-1.112,1.354-2.735,1.354-4.869v-4.027h5.653v7.598c0,1.191-0.515,1.787-1.546,1.787
			c-0.806,0-1.445-0.006-1.917-0.017c-0.054-0.337-0.13-0.714-0.227-1.129c0.709,0.044,1.343,0.067,1.901,0.067
			c0.504,0,0.757-0.275,0.757-0.825v-1.332h-3.737C441.429,201.664,440.974,202.844,440.275,203.765z M445.124,191.009v0.741h-4.221
			v-0.741H445.124z M445.124,192.525v0.742h-4.221v-0.742H445.124z M441.741,199.35h3.641v-1.753h-3.591
			C441.79,197.969,441.773,198.552,441.741,199.35z M445.381,194.986h-3.591v1.735h3.591V194.986z"/>
	</g>
</g>
<line fill="none" stroke="#231815" x1="496.271" y1="198.92" x2="533.479" y2="198.92"/>
<g id="步步高">
	<path fill="#F7BF83" stroke="#231815" d="M155.11,237.63v22.354c0,0,1.089,10.358,13.63,8.178h54.52V237.63H155.11z"/>
	<g>
		<g>
			<path fill="#231815" d="M169.149,251.68h2.315v-3.842h1.089v3.842h2.915v-5.082h1.089v1.989h4.7v0.981h-4.7v2.111h5.749v1.008
				h-13.157V251.68z M169.149,259.17c5.166-0.625,8.953-2.306,11.359-5.04l0.857,0.845c-2.587,2.814-6.524,4.54-11.809,5.175
				C169.457,259.86,169.321,259.534,169.149,259.17z M172.649,253.532l0.871,0.75c-1.198,1.244-2.347,2.32-3.445,3.228
				c-0.208-0.254-0.454-0.522-0.736-0.804C170.456,255.833,171.56,254.776,172.649,253.532z M175.359,253.028h1.09v4.032h-1.09
				V253.028z"/>
			<path fill="#231815" d="M183.095,251.68h2.315v-3.842h1.089v3.842h2.915v-5.082h1.09v1.989h4.699v0.981h-4.699v2.111h5.748v1.008
				h-13.157V251.68z M183.095,259.17c5.167-0.625,8.953-2.306,11.359-5.04l0.858,0.845c-2.588,2.814-6.524,4.54-11.809,5.175
				C183.404,259.86,183.268,259.534,183.095,259.17z M186.596,253.532l0.872,0.75c-1.199,1.244-2.347,2.32-3.446,3.228
				c-0.208-0.254-0.454-0.522-0.736-0.804C184.403,255.833,185.505,254.776,186.596,253.532z M189.306,253.028h1.09v4.032h-1.09
				V253.028z"/>
			<path fill="#231815" d="M196.905,247.866h6.238c-0.2-0.386-0.391-0.726-0.572-1.021l1.022-0.409
				c0.258,0.45,0.51,0.926,0.755,1.43h5.958v0.899h-13.402V247.866z M198.744,259.92h-1.034v-6.388h11.903v4.631
				c0,1.116-0.527,1.675-1.58,1.675c-0.59,0-1.253-0.009-1.988-0.027c-0.055-0.309-0.128-0.667-0.218-1.076
				c0.834,0.064,1.476,0.096,1.92,0.096c0.555,0,0.831-0.278,0.831-0.831v-3.596h-9.834V259.92z M199.234,249.664h8.839v3.323
				h-1.035v-0.436h-6.77v0.422h-1.034V249.664z M207.039,250.508h-6.77v1.199h6.77V250.508z M200.583,255.303h6.156v2.846h-5.176
				v0.586h-0.98V255.303z M205.758,257.305v-1.158h-4.195v1.158H205.758z"/>
		</g>
	</g>
</g>
<g id="袋鼠骆驼">
	<path fill="#FADED8" stroke="#231815" d="M496.408,232.723c0,0-0.001,35.181,31.622,38.164h77.965l-0.271-37.27L496.408,232.723z"
		/>
	<path fill="#231815" d="M533.337,257.059c-0.01,0.357-0.01,0.678,0,0.962c-1.081,0.317-1.942,0.585-2.585,0.805
		c-0.307,0.105-0.6,0.239-0.877,0.401l-0.535-0.743c0.195-0.171,0.291-0.463,0.291-0.877v-0.981
		c-0.844,0.496-1.781,0.944-2.813,1.347c-0.153-0.284-0.332-0.561-0.536-0.829c2.044-0.709,3.734-1.637,5.074-2.778h-4.916v-0.829
		h5.911c-0.282-0.491-0.574-0.97-0.88-1.437l0.758-0.463c0.365,0.52,0.693,1.02,0.986,1.499l-0.677,0.402h5.817v0.829h-5.537
		c0.336,0.65,0.78,1.212,1.329,1.688c0.653-0.297,1.544-0.757,2.673-1.383l0.514,0.889c-1.024,0.411-1.846,0.753-2.464,1.029
		c0.948,0.602,2.128,1.006,3.546,1.212c-0.243,0.325-0.465,0.63-0.67,0.915c-2.653-0.525-4.539-1.829-5.665-3.917
		c-0.466,0.443-0.984,0.862-1.548,1.255v1.858C531.525,257.635,532.458,257.351,533.337,257.059z M529.973,247.141l0.745,0.559
		c-0.453,0.594-0.921,1.14-1.402,1.639v3.601h-0.878v-2.76c-0.548,0.483-1.115,0.913-1.705,1.286
		c-0.146-0.399-0.268-0.707-0.366-0.927C527.725,249.687,528.925,248.553,529.973,247.141z M529.984,249.566l2.803-0.201
		c-0.203-0.593-0.361-1.253-0.475-1.98l0.902-0.123c0.105,0.768,0.267,1.448,0.486,2.042l4.472-0.324l0.099,0.854l-4.188,0.298
		c0.468,0.837,1.1,1.433,1.896,1.785c0.301,0.147,0.564,0.22,0.79,0.22c0.269,0,0.44-0.166,0.513-0.5
		c0.082-0.39,0.143-0.795,0.184-1.218c0.336,0.142,0.637,0.26,0.902,0.354c-0.082,0.535-0.184,1.015-0.305,1.437
		c-0.188,0.552-0.549,0.829-1.086,0.829c-0.56,0-1.099-0.134-1.619-0.402c-0.955-0.496-1.697-1.307-2.23-2.431l-3.049,0.213
		L529.984,249.566z M534.566,247.749l0.525-0.633c0.73,0.479,1.258,0.856,1.583,1.133l-0.55,0.67
		C535.518,248.44,534.998,248.051,534.566,247.749z"/>
	<path fill="#231815" d="M543.156,256.998c0.008,0.342,0.029,0.637,0.061,0.889c-0.404,0.138-1.213,0.431-2.424,0.878
		c-0.203,0.081-0.422,0.215-0.658,0.402l-0.693-0.877c0.234-0.211,0.352-0.48,0.352-0.804v-4.533h0.892v4.874
		C541.374,257.599,542.197,257.323,543.156,256.998z M544.4,247.981c-1.195,0.284-2.43,0.512-3.705,0.682v1.048h3.266v0.791h-3.266
		v0.987h7.678v-0.987h-3.338v-0.791h3.338v-0.975h-3.414v-0.816h4.316v4.667h-0.902v-0.28h-7.678v0.317h-0.902v-4.605
		c1.594-0.203,2.943-0.479,4.059-0.828L544.4,247.981z M541.074,255.803l0.389-0.707c0.771,0.309,1.451,0.613,2.035,0.915
		l-0.463,0.803C542.426,256.466,541.771,256.129,541.074,255.803z M541.135,253.769l0.401-0.707
		c0.626,0.245,1.294,0.554,2.009,0.927l-0.436,0.792C542.457,254.407,541.799,254.069,541.135,253.769z M547.289,257.07
		c0.006,0.326,0.027,0.622,0.059,0.89c-0.764,0.236-1.592,0.528-2.484,0.877c-0.162,0.065-0.381,0.199-0.658,0.402l-0.695-0.915
		c0.234-0.194,0.352-0.462,0.352-0.804v-4.752h0.893v5.094C545.477,257.644,546.32,257.379,547.289,257.07z M545.131,255.779
		l0.402-0.707c0.826,0.349,1.508,0.658,2.035,0.925l-0.463,0.792C546.479,256.441,545.82,256.104,545.131,255.779z M545.166,253.745
		l0.393-0.67c0.697,0.268,1.369,0.577,2.01,0.925l-0.438,0.768C546.512,254.402,545.857,254.061,545.166,253.745z M548.811,252.855
		c-0.025,2.396,0.152,4.037,0.535,4.922c0.109,0.228,0.213,0.341,0.318,0.341c0.123,0,0.211-0.146,0.268-0.438
		c0.064-0.406,0.111-0.963,0.146-1.668c0.398,0.137,0.693,0.239,0.889,0.304c-0.072,0.739-0.16,1.381-0.254,1.924
		c-0.141,0.617-0.402,0.927-0.793,0.927c-0.561,0-1.004-0.293-1.33-0.877c-0.453-0.764-0.682-2.576-0.682-5.435H548.811z"/>
	<path fill="#231815" d="M558.535,255.499c1.299-0.261,2.383-0.492,3.252-0.694c-0.008,0.325-0.004,0.613,0.014,0.865
		c-1.301,0.276-2.328,0.52-3.084,0.732L558.535,255.499z M560.338,249.492l-0.279,3.423h1.486l0.34-4.179h-3.045v-0.829h3.973
		l-0.404,5.008h0.816c-0.064,2.169-0.117,3.579-0.158,4.228c-0.039,0.658-0.207,1.133-0.5,1.426
		c-0.299,0.301-0.734,0.451-1.303,0.451c-0.373,0-0.869-0.013-1.486-0.037c-0.041-0.301-0.094-0.622-0.16-0.963
		c0.611,0.073,1.168,0.11,1.672,0.11c0.59,0,0.9-0.357,0.924-1.072c0.049-0.885,0.09-1.99,0.123-3.314h-3.229l0.389-4.252H560.338z
		 M563.25,250.869c0.869-0.984,1.604-2.23,2.205-3.741l0.926,0.28c-0.162,0.365-0.332,0.724-0.512,1.072h4.021v0.865
		c-0.563,1.04-1.264,1.937-2.109,2.693c0.764,0.463,1.77,0.828,3.012,1.096c-0.221,0.366-0.387,0.678-0.502,0.939
		c-1.379-0.391-2.465-0.87-3.252-1.438c-0.957,0.698-2.043,1.243-3.252,1.632c-0.146-0.292-0.311-0.585-0.488-0.877
		c1.25-0.349,2.268-0.792,3.045-1.328c-0.551-0.528-1.035-1.169-1.447-1.925c-0.326,0.487-0.672,0.946-1.037,1.377
		C563.703,251.336,563.502,251.122,563.25,250.869z M564.371,254.366h5.287v4.874h-0.912v-0.731h-3.459v0.731h-0.916V254.366z
		 M568.746,255.243h-3.459v2.389h3.459V255.243z M568.928,249.31h-3.52c-0.01,0.009-0.018,0.02-0.025,0.036
		c0.447,0.869,1.002,1.589,1.67,2.157C567.781,250.876,568.408,250.146,568.928,249.31z"/>
	<path fill="#231815" d="M571.049,255.621c0.697-0.163,1.789-0.463,3.277-0.901c0.023,0.341,0.051,0.637,0.086,0.889
		c-0.668,0.187-1.699,0.5-3.096,0.938L571.049,255.621z M572.863,249.517l-0.391,3.436h1.426l0.342-4.266h-2.9v-0.853h3.887
		l-0.426,5.119h0.902c-0.082,2.291-0.139,3.639-0.17,4.045c-0.066,0.739-0.234,1.243-0.502,1.511
		c-0.275,0.276-0.703,0.414-1.277,0.414c-0.473,0-0.994-0.012-1.563-0.037c-0.039-0.3-0.088-0.642-0.145-1.023
		c0.607,0.073,1.15,0.109,1.621,0.109c0.309,0,0.541-0.078,0.691-0.231c0.158-0.154,0.252-0.447,0.283-0.877
		c0.049-0.578,0.09-1.597,0.121-3.059h-3.291l0.502-4.289H572.863z M576.105,248.858h3.045c-0.18-0.463-0.377-0.927-0.598-1.389
		l0.877-0.317c0.285,0.61,0.529,1.178,0.732,1.706h2.826v2.193h-0.951v-1.316h-4.982v1.414h-0.949V248.858z M576.92,251.43h0.951
		v3.155c1.412-0.707,2.676-1.592,3.789-2.655l0.732,0.693c-1.309,1.17-2.814,2.161-4.521,2.973v1.462
		c0,0.544,0.246,0.816,0.744,0.816h1.912c0.691,0,1.102-0.235,1.23-0.707c0.098-0.366,0.18-1.068,0.244-2.107
		c0.324,0.162,0.646,0.279,0.963,0.353c-0.123,1.186-0.252,1.961-0.391,2.327c-0.252,0.706-0.813,1.06-1.682,1.06h-2.607
		c-0.908,0-1.365-0.492-1.365-1.475V251.43z"/>
	<line fill="none" stroke="#000000" x1="553.652" y1="233.191" x2="553.652" y2="270.887"/>
</g>
</svg>
