<!DOCTYPE svg PUBLIC "-//W3C//DTD SVG 1.1//EN" "http://www.w3.org/Graphics/SVG/1.1/DTD/svg11.dtd">
<svg xmlns="http://www.w3.org/2000/svg" xmlns:xlink="http://www.w3.org/1999/xlink" version="1.1" x="0px" y="0px" width="1028px" height="680px" viewBox="0 0 1028 680" enable-background="new 0 0 1028 680" xml:space="preserve" xmlns:xml="http://www.w3.org/XML/1998/namespace">
    <g>
      <path fill="#C60019" d="M579.599,166.06c0.05,0.856,0.139,1.714,0.139,2.132c0,8.333,0,16.665,0,24.997        c0,1,0.304,1.414,1.035,1.414c8.66,0,17.318,0,25.978,0V166.06H579.599z" />
      <g>

        <line fill="none" stroke="#FFFFFF" stroke-width="0.9362" stroke-linecap="round" stroke-linejoin="round" x1="602.455" y1="166.03" x2="602.455" y2="188.499" />
        <path fill="none" stroke="#FFFFFF" stroke-width="0.9362" stroke-linecap="round" stroke-linejoin="round" d="         M592.392,188.499c0.522,0,0.738-0.215,0.738-0.736" />
        <path fill="none" stroke="#FFFFFF" stroke-width="0.9362" stroke-linecap="round" stroke-linejoin="round" d="         M591.645,187.763c0,0.521,0.217,0.736,0.739,0.736" />

        <line fill="none" stroke="#FFFFFF" stroke-width="0.9362" stroke-linecap="round" stroke-linejoin="round" x1="593.13" y1="166.03" x2="593.13" y2="187.763" />

        <line fill="none" stroke="#FFFFFF" stroke-width="0.9362" stroke-linecap="round" stroke-linejoin="round" x1="591.645" y1="166.03" x2="591.645" y2="187.763" />

        <line fill="none" stroke="#FFFFFF" stroke-width="0.9362" stroke-linecap="round" stroke-linejoin="round" x1="582.317" y1="166.03" x2="582.317" y2="188.499" />
        <g>
          <path fill="#FFFFFF" d="M595.413,178.433v-0.707l1.358-0.507v-2.067l-1.358-0.477v-0.709l4.963,1.891v0.686L595.413,178.433          z M597.332,177.021l2.065-0.75c0.065-0.023,0.182-0.05,0.344-0.077v-0.017c-0.148-0.022-0.264-0.051-0.344-0.08          l-2.065-0.742V177.021z" />
          <path fill="#FFFFFF" d="M597.138,180.897v-1.889h0.482v1.889H597.138z" />
          <path fill="#FFFFFF" d="M597.798,181.642c0.876,0,1.539,0.145,1.987,0.436c0.449,0.29,0.676,0.711,0.676,1.263          c0,1.051-0.849,1.576-2.546,1.576c-0.838,0-1.478-0.147-1.92-0.444c-0.444-0.295-0.664-0.711-0.664-1.244          c0-0.505,0.207-0.895,0.63-1.172C596.382,181.779,596.995,181.642,597.798,181.642z M597.827,182.282          c-1.318,0-1.979,0.334-1.979,1.004c0,0.656,0.671,0.985,2.01,0.985c1.388,0,2.08-0.321,2.08-0.968          C599.938,182.622,599.234,182.282,597.827,182.282z" />
          <path fill="#FFFFFF" d="M595.413,188.649v-2.846h0.54v1.111h3.77l-0.329-1.141h0.576l0.514,1.766h-4.53v1.109H595.413z" />
        </g>
        <g>
          <path fill="#FFFFFF" d="M584.747,178.433v-0.707l1.36-0.507v-2.067l-1.36-0.477v-0.709l4.966,1.891v0.686L584.747,178.433z           M586.667,177.021l2.063-0.75c0.067-0.023,0.182-0.05,0.348-0.077v-0.017c-0.15-0.022-0.267-0.051-0.348-0.08l-2.063-0.742          V177.021z" />
          <path fill="#FFFFFF" d="M586.473,180.897v-1.889h0.482v1.889H586.473z" />
          <path fill="#FFFFFF" d="M587.132,181.642c0.876,0,1.54,0.145,1.987,0.436c0.452,0.29,0.675,0.711,0.675,1.263          c0,1.051-0.848,1.576-2.544,1.576c-0.836,0-1.477-0.147-1.921-0.444c-0.443-0.295-0.664-0.711-0.664-1.244          c0-0.505,0.211-0.895,0.631-1.172C585.717,181.779,586.33,181.642,587.132,181.642z M587.161,182.282          c-1.317,0-1.976,0.334-1.976,1.004c0,0.656,0.668,0.985,2.008,0.985c1.386,0,2.078-0.321,2.078-0.968          C589.271,182.622,588.568,182.282,587.161,182.282z" />
          <path fill="#FFFFFF" d="M584.747,188.556v-3.018h0.545l1.44,1.441c0.396,0.397,0.71,0.664,0.942,0.799          s0.473,0.201,0.72,0.201c0.282,0,0.5-0.078,0.649-0.237c0.15-0.158,0.227-0.387,0.227-0.686          c0-0.441-0.188-0.864-0.565-1.266h0.638c0.303,0.39,0.451,0.846,0.451,1.365c0,0.446-0.119,0.799-0.361,1.058          c-0.241,0.258-0.565,0.387-0.974,0.387c-0.309,0-0.608-0.082-0.905-0.248c-0.296-0.166-0.674-0.479-1.13-0.939l-1.104-1.132          h-0.013v2.274H584.747z" />
        </g>
      </g>
    </g>
    <g>
      <rect x="593.555" y="170.683" fill="#FBC600" width="8.444" height="0.453" />
      <rect x="582.743" y="170.683" fill="#FBC600" width="8.445" height="0.453" />
      <rect x="584.411" y="170.683" fill="#8DC21F" width="1.728" height="0.453" />
      <rect x="587.813" y="170.683" fill="#8DC21F" width="1.7" height="0.453" />
      <rect x="595.223" y="170.683" fill="#8DC21F" width="1.729" height="0.453" />
      <rect x="598.624" y="170.683" fill="#8DC21F" width="1.701" height="0.453" />
    </g>
</svg>
