<!DOCTYPE svg PUBLIC "-//W3C//DTD SVG 1.1//EN" "http://www.w3.org/Graphics/SVG/1.1/DTD/svg11.dtd">
<svg xmlns="http://www.w3.org/2000/svg" xmlns:xlink="http://www.w3.org/1999/xlink" version="1.1" id="图层_1" x="0px" y="0px" width="1028px" height="680px" viewBox="0 0 1028 680" enable-background="new 0 0 1028 680" xml:space="preserve" xmlns:xml="http://www.w3.org/XML/1998/namespace">
  <g>
    <g>
      <path fill="#C60019" d="M482.875,154.56l51.87,0.011c0,0,1.13,1.364,1.38,2.739s0.061,0.466,0.061,0.466l-0.479,34.216        c0,0-0.125,2.009-2.541,2.539l-33.291-0.096c0,0-2.375-0.375-2.625-3.375L482.875,154.56z" />
      <g>
        <rect x="495.75" y="186.805" fill="none" stroke="#FFFFFF" stroke-width="1.8725" width="5.936" height="5.935" />
        <rect x="533.908" y="186.805" fill="none" stroke="#FFFFFF" stroke-width="1.8725" width="5.935" height="5.935" />
        <path fill="none" stroke="#FFFFFF" stroke-width="0.9362" stroke-linecap="round" stroke-linejoin="round" d="         M512.097,190.776c0,0.521,0.217,0.738,0.737,0.738" />
        <path fill="none" stroke="#FFFFFF" stroke-width="0.9362" stroke-linecap="round" stroke-linejoin="round" d="         M512.843,191.515c0.521,0,0.737-0.217,0.737-0.738" />
        <path fill="none" stroke="#FFFFFF" stroke-width="0.9362" stroke-linecap="round" stroke-linejoin="round" d="         M522.907,190.776c0,0.521,0.217,0.738,0.739,0.738" />
        <path fill="none" stroke="#FFFFFF" stroke-width="0.9362" stroke-linecap="round" stroke-linejoin="round" d="         M523.653,191.515c0.521,0,0.738-0.217,0.738-0.738" />

        <line fill="none" stroke="#FFFFFF" stroke-width="0.9362" stroke-linecap="round" stroke-linejoin="round" x1="502.769" y1="169.044" x2="502.769" y2="191.515" />

        <line fill="none" stroke="#FFFFFF" stroke-width="0.9362" stroke-linecap="round" stroke-linejoin="round" x1="533.72" y1="169.044" x2="533.72" y2="191.515" />

        <line fill="none" stroke="#FFFFFF" stroke-width="0.9362" stroke-linecap="round" stroke-linejoin="round" x1="512.097" y1="169.044" x2="512.097" y2="190.776" />

        <line fill="none" stroke="#FFFFFF" stroke-width="0.9362" stroke-linecap="round" stroke-linejoin="round" x1="513.58" y1="169.044" x2="513.58" y2="190.776" />

        <line fill="none" stroke="#FFFFFF" stroke-width="0.9362" stroke-linecap="round" stroke-linejoin="round" x1="522.907" y1="169.044" x2="522.907" y2="190.776" />

        <line fill="none" stroke="#FFFFFF" stroke-width="0.9362" stroke-linecap="round" stroke-linejoin="round" x1="524.392" y1="169.044" x2="524.392" y2="190.776" />

        <line fill="none" stroke="#FFFFFF" stroke-width="0.9362" stroke-linecap="round" stroke-linejoin="round" x1="511.249" y1="169.044" x2="533.72" y2="169.044" />

        <line fill="none" stroke="#FFFFFF" stroke-width="0.9362" stroke-linecap="round" stroke-linejoin="round" x1="533.72" y1="158.869" x2="511.249" y2="158.869" />

        <line fill="none" stroke="#FFFFFF" stroke-width="0.9362" stroke-linecap="round" stroke-linejoin="round" x1="511.249" y1="158.869" x2="488.777" y2="158.869" />

        <line fill="none" stroke="#FFFFFF" stroke-width="0.9362" stroke-linecap="round" stroke-linejoin="round" x1="511.249" y1="169.044" x2="511.249" y2="158.869" />

        <line fill="none" stroke="#FFFFFF" stroke-width="0.9362" stroke-linecap="round" stroke-linejoin="round" x1="488.777" y1="169.044" x2="511.249" y2="169.044" />
        <g>
          <path fill="#FFFFFF" d="M526.911,181.304v-0.708l1.36-0.506v-2.067l-1.36-0.477v-0.709l4.965,1.891v0.687L526.911,181.304z           M528.831,179.892l2.063-0.75c0.068-0.023,0.183-0.049,0.348-0.076v-0.018c-0.15-0.023-0.265-0.049-0.348-0.079          l-2.063-0.743V179.892z" />
          <path fill="#FFFFFF" d="M528.635,183.769v-1.888h0.485v1.888H528.635z" />
          <path fill="#FFFFFF" d="M529.297,184.513c0.876,0,1.539,0.145,1.988,0.436c0.449,0.29,0.674,0.712,0.674,1.262          c0,1.052-0.848,1.577-2.544,1.577c-0.838,0-1.478-0.147-1.922-0.443c-0.442-0.296-0.664-0.712-0.664-1.246          c0-0.503,0.211-0.895,0.632-1.171C527.88,184.649,528.492,184.513,529.297,184.513z M529.324,185.153          c-1.318,0-1.976,0.334-1.976,1.004c0,0.656,0.67,0.986,2.008,0.986c1.386,0,2.08-0.322,2.08-0.968          C531.437,185.494,530.732,185.153,529.324,185.153z" />
          <path fill="#FFFFFF" d="M528.201,191.685v-0.635h-1.29v-0.609h1.29v-2.313h0.407l3.268,2.195v0.728h-3.179v0.635H528.201z           M528.697,190.44h2.079c0.147,0,0.318,0.004,0.511,0.014v-0.014c-0.083-0.03-0.21-0.092-0.382-0.188l-2.208-1.478V190.44z" />
        </g>
        <g>
          <path fill="#FFFFFF" d="M522.091,166.422h-0.708l-0.507-1.358h-2.066l-0.477,1.358h-0.708l1.89-4.964h0.687L522.091,166.422          z M520.678,164.503l-0.75-2.063c-0.022-0.066-0.049-0.182-0.077-0.347h-0.016c-0.023,0.15-0.05,0.266-0.08,0.347          l-0.742,2.063H520.678z" />
          <path fill="#FFFFFF" d="M524.556,164.698h-1.888v-0.484h1.888V164.698z" />
          <path fill="#FFFFFF" d="M525.299,164.038c0-0.876,0.146-1.539,0.437-1.988c0.291-0.449,0.71-0.675,1.264-0.675          c1.051,0,1.576,0.849,1.576,2.545c0,0.837-0.15,1.478-0.444,1.921c-0.297,0.443-0.71,0.664-1.245,0.664          c-0.503,0-0.895-0.21-1.172-0.631C525.437,165.454,525.299,164.842,525.299,164.038z M525.94,164.009          c0,1.318,0.334,1.978,1.004,1.978c0.655,0,0.986-0.67,0.986-2.009c0-1.387-0.322-2.08-0.969-2.08          C526.281,161.897,525.94,162.603,525.94,164.009z" />
          <path fill="#FFFFFF" d="M529.313,165.593c0.34,0.263,0.725,0.394,1.153,0.394c0.339,0,0.61-0.084,0.811-0.251          c0.199-0.168,0.3-0.394,0.3-0.675c0-0.628-0.45-0.942-1.349-0.942h-0.413V163.6h0.395c0.796,0,1.195-0.296,1.195-0.884          c0-0.545-0.306-0.818-0.914-0.818c-0.349,0-0.676,0.117-0.984,0.353v-0.593c0.324-0.188,0.703-0.282,1.138-0.282          c0.423,0,0.763,0.111,1.019,0.332c0.258,0.222,0.386,0.508,0.386,0.86c0,0.65-0.331,1.066-0.993,1.253v0.013          c0.358,0.039,0.641,0.166,0.85,0.381c0.209,0.214,0.313,0.482,0.313,0.802c0,0.446-0.16,0.808-0.482,1.081          c-0.321,0.271-0.75,0.408-1.284,0.408c-0.47,0-0.847-0.087-1.138-0.262V165.593z" />
        </g>
        <g>
          <path fill="#FFFFFF" d="M494.199,166.422h-0.709l-0.506-1.358h-2.066l-0.479,1.358h-0.707l1.891-4.964h0.686          L494.199,166.422z M492.785,164.503l-0.75-2.063c-0.023-0.066-0.049-0.182-0.076-0.347h-0.016          c-0.024,0.15-0.051,0.266-0.08,0.347l-0.744,2.063H492.785z" />
          <path fill="#FFFFFF" d="M496.663,164.698h-1.887v-0.484h1.887V164.698z" />
          <path fill="#FFFFFF" d="M497.407,164.038c0-0.876,0.146-1.539,0.436-1.988c0.291-0.449,0.712-0.675,1.263-0.675          c1.051,0,1.576,0.849,1.576,2.545c0,0.837-0.147,1.478-0.444,1.921c-0.296,0.443-0.71,0.664-1.244,0.664          c-0.505,0-0.896-0.21-1.172-0.631C497.545,165.454,497.407,164.842,497.407,164.038z M498.047,164.009          c0,1.318,0.335,1.978,1.004,1.978c0.657,0,0.986-0.67,0.986-2.009c0-1.387-0.322-2.08-0.967-2.08          C498.388,161.897,498.047,162.603,498.047,164.009z" />
          <path fill="#FFFFFF" d="M504.492,161.677l-1.941,4.745h-0.651l1.847-4.409h-2.48v-0.555h3.227V161.677z" />
        </g>
        <g>
          <path fill="#FFFFFF" d="M515.837,181.304v-0.708l1.358-0.506v-2.067l-1.358-0.477v-0.709l4.965,1.891v0.687L515.837,181.304          z M517.757,179.892l2.063-0.75c0.067-0.023,0.183-0.049,0.347-0.076v-0.018c-0.149-0.023-0.265-0.049-0.347-0.079          l-2.063-0.743V179.892z" />
          <path fill="#FFFFFF" d="M517.561,183.769v-1.888h0.484v1.888H517.561z" />
          <path fill="#FFFFFF" d="M518.222,184.513c0.875,0,1.538,0.145,1.988,0.436c0.448,0.29,0.674,0.712,0.674,1.262          c0,1.052-0.848,1.577-2.544,1.577c-0.837,0-1.479-0.147-1.921-0.443c-0.444-0.296-0.665-0.712-0.665-1.246          c0-0.503,0.21-0.895,0.631-1.171C516.806,184.649,517.418,184.513,518.222,184.513z M518.25,185.153          c-1.318,0-1.978,0.334-1.978,1.004c0,0.656,0.67,0.986,2.009,0.986c1.388,0,2.081-0.322,2.081-0.968          C520.362,185.494,519.658,185.153,518.25,185.153z" />
          <path fill="#FFFFFF" d="M516.601,188.637c-0.219,0.333-0.328,0.681-0.328,1.041c0,0.343,0.097,0.618,0.287,0.827          c0.192,0.209,0.444,0.313,0.761,0.313c0.318,0,0.565-0.104,0.74-0.319c0.175-0.211,0.264-0.52,0.264-0.924          c0-0.194-0.015-0.455-0.045-0.785h2.522v2.441h-0.556v-1.857h-1.403c0.01,0.186,0.016,0.324,0.016,0.418          c0,0.525-0.132,0.934-0.397,1.227c-0.265,0.292-0.631,0.438-1.095,0.438c-0.481,0-0.871-0.156-1.166-0.471          c-0.298-0.314-0.446-0.748-0.446-1.301c0-0.464,0.067-0.813,0.205-1.048H516.601z" />
        </g>
        <g>
          <path fill="#FFFFFF" d="M504.864,181.304v-0.708l1.358-0.506v-2.067l-1.358-0.477v-0.709l4.965,1.891v0.687L504.864,181.304          z M506.784,179.892l2.063-0.75c0.066-0.023,0.182-0.049,0.346-0.076v-0.018c-0.148-0.023-0.265-0.049-0.346-0.079          l-2.063-0.743V179.892z" />
          <path fill="#FFFFFF" d="M506.588,183.769v-1.888h0.484v1.888H506.588z" />
          <path fill="#FFFFFF" d="M507.249,184.513c0.875,0,1.538,0.145,1.988,0.436c0.449,0.29,0.675,0.712,0.675,1.262          c0,1.052-0.848,1.577-2.544,1.577c-0.838,0-1.478-0.147-1.922-0.443s-0.665-0.712-0.665-1.246          c0-0.503,0.21-0.895,0.631-1.171C505.833,184.649,506.445,184.513,507.249,184.513z M507.277,185.153          c-1.318,0-1.978,0.334-1.978,1.004c0,0.656,0.67,0.986,2.01,0.986c1.386,0,2.08-0.322,2.08-0.968          C509.39,185.494,508.685,185.153,507.277,185.153z" />
          <path fill="#FFFFFF" d="M509.191,191.331c0.132-0.258,0.198-0.528,0.198-0.811c0-0.43-0.188-0.773-0.562-1.035          c-0.373-0.26-0.884-0.393-1.531-0.396v0.016c0.455,0.234,0.683,0.61,0.683,1.124c0,0.431-0.141,0.773-0.42,1.028          c-0.28,0.258-0.652,0.385-1.115,0.385c-0.485,0-0.883-0.146-1.195-0.443c-0.312-0.296-0.468-0.672-0.468-1.133          c0-0.503,0.197-0.899,0.592-1.187c0.394-0.288,0.954-0.431,1.678-0.431c0.875,0,1.571,0.188,2.087,0.564          c0.516,0.378,0.774,0.873,0.774,1.488c0,0.354-0.048,0.631-0.145,0.83H509.191z M506.489,189.127          c-0.327,0-0.606,0.087-0.84,0.261c-0.232,0.175-0.35,0.404-0.35,0.694c0,0.272,0.102,0.495,0.302,0.667          c0.2,0.17,0.459,0.256,0.776,0.256c0.341,0,0.607-0.081,0.797-0.242c0.191-0.162,0.285-0.391,0.285-0.688          c0-0.283-0.095-0.511-0.287-0.686C506.98,189.214,506.752,189.127,506.489,189.127z" />
        </g>
      </g>
    </g>
    <g>
      <rect x="503.194" y="173.696" fill="#FBC600" width="8.445" height="0.452" />
      <rect x="524.817" y="173.696" fill="#FBC600" width="8.444" height="0.452" />
      <rect x="514.006" y="173.696" fill="#FBC600" width="8.444" height="0.452" />
      <rect x="515.906" y="159.306" fill="#FBC600" width="0.451" height="8.443" />
      <rect x="506.16" y="159.306" fill="#FBC600" width="0.451" height="8.443" />
      <rect x="506.16" y="164.376" fill="#8DC21F" width="0.451" height="1.7" />
      <rect x="506.16" y="160.975" fill="#8DC21F" width="0.451" height="1.728" />
      <rect x="515.906" y="164.376" fill="#8DC21F" width="0.451" height="1.7" />
      <rect x="515.906" y="160.975" fill="#8DC21F" width="0.451" height="1.728" />
      <rect x="529.889" y="173.696" fill="#8DC21F" width="1.7" height="0.452" />
      <rect x="526.485" y="173.696" fill="#8DC21F" width="1.727" height="0.452" />
      <rect x="519.075" y="173.696" fill="#8DC21F" width="1.702" height="0.452" />
      <rect x="508.265" y="173.696" fill="#8DC21F" width="1.701" height="0.452" />
      <rect x="515.675" y="173.696" fill="#8DC21F" width="1.728" height="0.452" />
      <rect x="504.862" y="173.696" fill="#8DC21F" width="1.729" height="0.452" />
    </g>
  </g>
</svg>
