<!DOCTYPE svg PUBLIC "-//W3C//DTD SVG 1.1//EN" "http://www.w3.org/Graphics/SVG/1.1/DTD/svg11.dtd">
<svg xmlns="http://www.w3.org/2000/svg" xmlns:xlink="http://www.w3.org/1999/xlink" version="1.1" id="图层_1" x="0px" y="0px" width="1028px" height="680px" viewBox="0 0 1028 680" enable-background="new 0 0 1028 680" xml:space="preserve" xmlns:xml="http://www.w3.org/XML/1998/namespace">
    <g>
      <rect x="561" y="221.519" fill="#C60019" width="45.833" height="50.166" />
      <g>

        <line fill="none" stroke="#FFFFFF" stroke-width="0.9362" stroke-linecap="round" stroke-linejoin="round" x1="602.966" y1="246.583" x2="602.966" y2="224.114" />

        <line fill="none" stroke="#FFFFFF" stroke-width="0.9362" stroke-linecap="round" stroke-linejoin="round" x1="602.966" y1="246.583" x2="602.966" y2="269.055" />
        <rect x="572.064" y="263.119" fill="none" stroke="#FFFFFF" stroke-width="1.8725" width="5.936" height="5.936" />
        <rect x="572.064" y="224.963" fill="none" stroke="#FFFFFF" stroke-width="1.8725" width="5.936" height="5.935" />

        <line fill="none" stroke="#FFFFFF" stroke-width="0.9362" stroke-linecap="round" stroke-linejoin="round" x1="592.155" y1="224.852" x2="592.155" y2="268.317" />

        <line fill="none" stroke="#FFFFFF" stroke-width="0.9362" stroke-linecap="round" stroke-linejoin="round" x1="593.64" y1="224.852" x2="593.64" y2="268.317" />
        <path fill="none" stroke="#FFFFFF" stroke-width="0.9362" stroke-linecap="round" stroke-linejoin="round" d="         M592.894,224.114c-0.521,0-0.738,0.217-0.738,0.737" />
        <path fill="none" stroke="#FFFFFF" stroke-width="0.9362" stroke-linecap="round" stroke-linejoin="round" d="         M593.64,224.852c0-0.521-0.217-0.737-0.738-0.737" />
        <path fill="none" stroke="#FFFFFF" stroke-width="0.9362" stroke-linecap="round" stroke-linejoin="round" d="         M592.155,268.317c0,0.521,0.217,0.737,0.738,0.737" />
        <path fill="none" stroke="#FFFFFF" stroke-width="0.9362" stroke-linecap="round" stroke-linejoin="round" d="         M592.901,269.055c0.521,0,0.738-0.216,0.738-0.737" />

        <line fill="none" stroke="#FFFFFF" stroke-width="0.9362" stroke-linecap="round" stroke-linejoin="round" x1="582.828" y1="224.114" x2="582.828" y2="246.583" />

        <line fill="none" stroke="#FFFFFF" stroke-width="0.9362" stroke-linecap="round" stroke-linejoin="round" x1="582.828" y1="246.583" x2="602.966" y2="246.583" />

        <line fill="none" stroke="#FFFFFF" stroke-width="0.9362" stroke-linecap="round" stroke-linejoin="round" x1="582.828" y1="269.055" x2="582.828" y2="246.583" />

        <line fill="none" stroke="#FFFFFF" stroke-width="0.9362" stroke-linecap="round" stroke-linejoin="round" x1="561.889" y1="246.583" x2="561.889" y2="269.055" />

        <line fill="none" stroke="#FFFFFF" stroke-width="0.9362" stroke-linecap="round" stroke-linejoin="round" x1="572.064" y1="269.055" x2="572.064" y2="246.583" />

        <line fill="none" stroke="#FFFFFF" stroke-width="0.9362" stroke-linecap="round" stroke-linejoin="round" x1="572.064" y1="246.583" x2="572.064" y2="224.114" />

        <line fill="none" stroke="#FFFFFF" stroke-width="0.9362" stroke-linecap="round" stroke-linejoin="round" x1="561.889" y1="246.583" x2="572.064" y2="246.583" />

        <line fill="none" stroke="#FFFFFF" stroke-width="0.9362" stroke-linecap="round" stroke-linejoin="round" x1="561.889" y1="224.114" x2="561.889" y2="246.583" />
        <g>
          <path fill="#FFFFFF" d="M596.028,228.817v-0.708l1.358-0.506v-2.067l-1.358-0.479v-0.707l4.965,1.891v0.686L596.028,228.817          z M597.948,227.404l2.063-0.749c0.066-0.024,0.182-0.049,0.346-0.078v-0.016c-0.148-0.023-0.266-0.05-0.346-0.08          l-2.063-0.743V227.404z" />
          <path fill="#FFFFFF" d="M597.752,231.282v-1.888h0.484v1.888H597.752z" />
          <path fill="#FFFFFF" d="M598.411,232.024c0.876,0,1.541,0.146,1.99,0.437c0.45,0.29,0.675,0.712,0.675,1.264          c0,1.051-0.848,1.576-2.545,1.576c-0.838,0-1.479-0.147-1.921-0.443c-0.444-0.296-0.665-0.712-0.665-1.245          c0-0.504,0.21-0.895,0.631-1.172C596.996,232.164,597.608,232.024,598.411,232.024z M598.44,232.666          c-1.317,0-1.977,0.335-1.977,1.003c0,0.658,0.669,0.988,2.01,0.988c1.386,0,2.08-0.324,2.08-0.969          C600.554,233.007,599.848,232.666,598.44,232.666z" />
          <path fill="#FFFFFF" d="M598.642,236.985c0.274-0.591,0.674-0.887,1.198-0.887c0.364,0,0.662,0.14,0.892,0.416          c0.229,0.278,0.345,0.633,0.345,1.064c0,0.395-0.108,0.722-0.324,0.978c-0.217,0.257-0.494,0.385-0.837,0.385          c-0.552,0-0.975-0.31-1.272-0.927h-0.012c-0.261,0.725-0.704,1.086-1.335,1.086c-0.411,0-0.738-0.148-0.984-0.446          c-0.244-0.298-0.366-0.715-0.366-1.248c0-0.438,0.119-0.796,0.361-1.071s0.556-0.413,0.938-0.413          c0.633,0,1.094,0.355,1.382,1.063H598.642z M598.343,237.474c-0.249-0.613-0.604-0.92-1.064-0.92          c-0.24,0-0.436,0.09-0.59,0.27c-0.153,0.179-0.23,0.413-0.23,0.701c0,0.28,0.077,0.508,0.229,0.683          c0.152,0.175,0.345,0.263,0.572,0.263C597.739,238.47,598.1,238.138,598.343,237.474z M599.843,238.307          c0.221,0,0.396-0.07,0.525-0.208c0.126-0.139,0.191-0.327,0.191-0.564c0-0.223-0.065-0.411-0.2-0.567          c-0.135-0.155-0.304-0.234-0.512-0.234c-0.414,0-0.729,0.261-0.945,0.778C599.123,238.041,599.438,238.307,599.843,238.307z          " />
        </g>
        <g>
          <path fill="#FFFFFF" d="M585.106,228.817v-0.708l1.36-0.506v-2.067l-1.36-0.479v-0.707l4.966,1.891v0.686L585.106,228.817z           M587.026,227.404l2.063-0.749c0.066-0.024,0.182-0.049,0.348-0.078v-0.016c-0.15-0.023-0.267-0.05-0.348-0.08l-2.063-0.743          V227.404z" />
          <path fill="#FFFFFF" d="M586.83,231.282v-1.888h0.486v1.888H586.83z" />
          <path fill="#FFFFFF" d="M587.491,232.024c0.875,0,1.538,0.146,1.989,0.437c0.448,0.29,0.674,0.712,0.674,1.264          c0,1.051-0.848,1.576-2.545,1.576c-0.838,0-1.477-0.147-1.921-0.443c-0.441-0.296-0.664-0.712-0.664-1.245          c0-0.504,0.211-0.895,0.63-1.172C586.077,232.164,586.688,232.024,587.491,232.024z M587.52,232.666          c-1.318,0-1.978,0.335-1.978,1.003c0,0.658,0.67,0.988,2.011,0.988c1.386,0,2.079-0.324,2.079-0.969          C589.632,233.007,588.928,232.666,587.52,232.666z" />
          <path fill="#FFFFFF" d="M585.779,236.175c-0.157,0.274-0.237,0.568-0.237,0.885c0,0.444,0.176,0.789,0.525,1.033          c0.351,0.246,0.849,0.367,1.495,0.367c-0.004-0.004-0.004-0.008,0-0.013c-0.416-0.218-0.622-0.584-0.622-1.099          c0-0.416,0.143-0.762,0.43-1.035c0.285-0.273,0.658-0.41,1.114-0.41c0.487,0,0.888,0.149,1.201,0.449          c0.312,0.299,0.469,0.686,0.469,1.163c0,0.493-0.194,0.879-0.582,1.156c-0.387,0.278-0.951,0.417-1.693,0.417          c-0.917,0-1.622-0.18-2.115-0.539c-0.493-0.358-0.739-0.854-0.739-1.49c0-0.348,0.057-0.643,0.17-0.885H585.779z           M588.565,236.537c-0.334,0-0.598,0.087-0.793,0.258s-0.292,0.407-0.292,0.707c0,0.261,0.087,0.479,0.266,0.657          c0.178,0.178,0.395,0.266,0.649,0.266c0.357,0,0.651-0.088,0.886-0.264c0.234-0.177,0.351-0.41,0.351-0.697          c0-0.268-0.102-0.488-0.305-0.663C589.124,236.624,588.871,236.537,588.565,236.537z" />
        </g>
        <g>
          <path fill="#FFFFFF" d="M596.028,258.351v-0.708l1.358-0.507v-2.066l-1.358-0.478v-0.708l4.965,1.891v0.686L596.028,258.351          z M597.948,256.938l2.063-0.749c0.066-0.023,0.182-0.05,0.346-0.077v-0.017c-0.148-0.023-0.266-0.049-0.346-0.08          l-2.063-0.742V256.938z" />
          <path fill="#FFFFFF" d="M597.752,260.815v-1.888h0.484v1.888H597.752z" />
          <path fill="#FFFFFF" d="M596.028,264.625v-3.019h0.545l1.439,1.441c0.396,0.398,0.712,0.664,0.943,0.8          c0.23,0.134,0.472,0.201,0.719,0.201c0.281,0,0.498-0.079,0.65-0.237c0.15-0.158,0.225-0.387,0.225-0.686          c0-0.442-0.188-0.863-0.564-1.266h0.639c0.303,0.391,0.452,0.846,0.452,1.365c0,0.446-0.122,0.799-0.362,1.057          c-0.241,0.26-0.566,0.388-0.976,0.388c-0.307,0-0.608-0.082-0.904-0.248c-0.297-0.165-0.672-0.479-1.13-0.94l-1.105-1.131          h-0.013v2.274H596.028z" />
          <path fill="#FFFFFF" d="M600.773,268.644l-4.745-1.941v-0.65l4.41,1.846v-2.48h0.555v3.227H600.773z" />
        </g>
        <g>
          <path fill="#FFFFFF" d="M585.106,258.351v-0.708l1.36-0.507v-2.066l-1.36-0.478v-0.708l4.966,1.891v0.686L585.106,258.351z           M587.026,256.938l2.063-0.749c0.066-0.023,0.182-0.05,0.348-0.077v-0.017c-0.15-0.023-0.267-0.049-0.348-0.08l-2.063-0.742          V256.938z" />
          <path fill="#FFFFFF" d="M586.83,260.815v-1.888h0.486v1.888H586.83z" />
          <path fill="#FFFFFF" d="M585.106,264.625v-3.019h0.545l1.44,1.441c0.396,0.398,0.71,0.664,0.942,0.8          c0.23,0.134,0.473,0.201,0.72,0.201c0.28,0,0.499-0.079,0.649-0.237s0.227-0.387,0.227-0.686          c0-0.442-0.189-0.863-0.565-1.266h0.638c0.301,0.391,0.452,0.846,0.452,1.365c0,0.446-0.121,0.799-0.362,1.057          c-0.241,0.26-0.565,0.388-0.975,0.388c-0.306,0-0.609-0.082-0.905-0.248c-0.295-0.165-0.673-0.479-1.129-0.94l-1.106-1.131          h-0.011v2.274H585.106z" />
          <path fill="#FFFFFF" d="M589.434,268.379c0.133-0.261,0.198-0.528,0.198-0.812c0-0.43-0.187-0.774-0.562-1.035          c-0.373-0.261-0.884-0.393-1.531-0.397v0.016c0.456,0.235,0.683,0.61,0.683,1.125c0,0.431-0.14,0.772-0.42,1.028          c-0.28,0.258-0.65,0.385-1.115,0.385c-0.485,0-0.883-0.147-1.195-0.443c-0.312-0.296-0.467-0.674-0.467-1.133          c0-0.504,0.195-0.9,0.592-1.188c0.395-0.287,0.952-0.432,1.677-0.432c0.875,0,1.572,0.189,2.087,0.566          c0.517,0.377,0.774,0.873,0.774,1.489c0,0.353-0.048,0.628-0.144,0.83H589.434z M586.732,266.173          c-0.328,0-0.607,0.088-0.841,0.262c-0.232,0.174-0.35,0.405-0.35,0.693c0,0.273,0.102,0.496,0.303,0.666          c0.199,0.172,0.458,0.258,0.775,0.258c0.341,0,0.608-0.082,0.798-0.242c0.19-0.162,0.284-0.391,0.284-0.687          c0-0.283-0.097-0.512-0.287-0.687C587.223,266.262,586.995,266.173,586.732,266.173z" />
        </g>
      </g>
    </g>
    <g>
      <rect x="594.063" y="241.479" fill="#FBC600" width="8.448" height="0.453" />
      <rect x="583.254" y="241.479" fill="#FBC600" width="8.445" height="0.453" />
      <rect x="583.254" y="251.237" fill="#FBC600" width="8.445" height="0.451" />
      <rect x="594.063" y="251.237" fill="#FBC600" width="8.448" height="0.451" />
      <rect x="595.733" y="251.237" fill="#8DC21F" width="1.728" height="0.451" />
      <rect x="599.135" y="251.237" fill="#8DC21F" width="1.702" height="0.451" />
      <rect x="584.921" y="251.237" fill="#8DC21F" width="1.729" height="0.451" />
      <rect x="588.323" y="251.237" fill="#8DC21F" width="1.702" height="0.451" />
      <rect x="584.921" y="241.479" fill="#8DC21F" width="1.729" height="0.453" />
      <rect x="588.323" y="241.479" fill="#8DC21F" width="1.702" height="0.453" />
      <rect x="595.733" y="241.479" fill="#8DC21F" width="1.728" height="0.453" />
      <rect x="599.135" y="241.479" fill="#8DC21F" width="1.702" height="0.453" />
    </g>
</svg>
