<!DOCTYPE svg PUBLIC "-//W3C//DTD SVG 1.1//EN" "http://www.w3.org/Graphics/SVG/1.1/DTD/svg11.dtd">
<svg xmlns="http://www.w3.org/2000/svg" xmlns:xlink="http://www.w3.org/1999/xlink" version="1.1" id="图层_1" x="0px" y="0px" width="1028px" height="680px" viewBox="0 0 1028 680" enable-background="new 0 0 1028 680" xml:space="preserve" xmlns:xml="http://www.w3.org/XML/1998/namespace">
    <g>
      <path fill="#C60019" d="M478,221.57c-19.909,0-39.818,0-59.729,0c-2.795,0-5.062,2.278-5.062,5.087c0,13.283,0,26.57,0,39.854        c0,2.811,2.267,5.088,5.062,5.088c19.91,0,39.819,0,59.729,0V221.57z" />
      <g>
        <rect x="419.436" y="224.963" fill="none" stroke="#FFFFFF" stroke-width="1.8725" width="5.936" height="5.935" />
        <rect x="419.436" y="263.119" fill="none" stroke="#FFFFFF" stroke-width="1.8725" width="5.936" height="5.936" />
        <rect x="457.594" y="263.119" fill="none" stroke="#FFFFFF" stroke-width="1.8725" width="5.937" height="5.936" />
        <rect x="457.594" y="224.963" fill="none" stroke="#FFFFFF" stroke-width="1.8725" width="5.937" height="5.935" />
        <path fill="none" stroke="#FFFFFF" stroke-width="0.9362" stroke-linecap="round" stroke-linejoin="round" d="         M447.63,224.852c0-0.521-0.216-0.737-0.738-0.737" />
        <path fill="none" stroke="#FFFFFF" stroke-width="0.9362" stroke-linecap="round" stroke-linejoin="round" d="         M446.884,224.114c-0.521,0-0.738,0.217-0.738,0.737" />
        <path fill="none" stroke="#FFFFFF" stroke-width="0.9362" stroke-linecap="round" stroke-linejoin="round" d="         M436.818,224.852c0-0.521-0.217-0.737-0.738-0.737" />
        <path fill="none" stroke="#FFFFFF" stroke-width="0.9362" stroke-linecap="round" stroke-linejoin="round" d="         M436.071,224.114c-0.521,0-0.737,0.217-0.737,0.737" />

        <line fill="none" stroke="#FFFFFF" stroke-width="0.9362" stroke-linecap="round" stroke-linejoin="round" x1="456.957" y1="246.583" x2="456.957" y2="224.114" />

        <line fill="none" stroke="#FFFFFF" stroke-width="0.9362" stroke-linecap="round" stroke-linejoin="round" x1="447.63" y1="246.583" x2="447.63" y2="224.852" />

        <line fill="none" stroke="#FFFFFF" stroke-width="0.9362" stroke-linecap="round" stroke-linejoin="round" x1="446.146" y1="246.583" x2="446.146" y2="224.852" />

        <line fill="none" stroke="#FFFFFF" stroke-width="0.9362" stroke-linecap="round" stroke-linejoin="round" x1="436.818" y1="246.583" x2="436.818" y2="224.852" />

        <line fill="none" stroke="#FFFFFF" stroke-width="0.9362" stroke-linecap="round" stroke-linejoin="round" x1="435.334" y1="246.583" x2="435.334" y2="224.852" />

        <line fill="none" stroke="#FFFFFF" stroke-width="0.9362" stroke-linecap="round" stroke-linejoin="round" x1="456.957" y1="246.583" x2="426.008" y2="246.583" />
        <path fill="none" stroke="#FFFFFF" stroke-width="0.9362" stroke-linecap="round" stroke-linejoin="round" d="         M435.334,268.317c0,0.521,0.217,0.737,0.737,0.737" />
        <path fill="none" stroke="#FFFFFF" stroke-width="0.9362" stroke-linecap="round" stroke-linejoin="round" d="         M436.08,269.055c0.521,0,0.738-0.216,0.738-0.737" />
        <path fill="none" stroke="#FFFFFF" stroke-width="0.9362" stroke-linecap="round" stroke-linejoin="round" d="         M446.146,268.317c0,0.521,0.218,0.737,0.738,0.737" />
        <path fill="none" stroke="#FFFFFF" stroke-width="0.9362" stroke-linecap="round" stroke-linejoin="round" d="         M446.892,269.055c0.522,0,0.738-0.216,0.738-0.737" />

        <line fill="none" stroke="#FFFFFF" stroke-width="0.9362" stroke-linecap="round" stroke-linejoin="round" x1="426.008" y1="246.583" x2="426.008" y2="269.055" />

        <line fill="none" stroke="#FFFFFF" stroke-width="0.9362" stroke-linecap="round" stroke-linejoin="round" x1="456.957" y1="246.583" x2="456.957" y2="269.055" />

        <line fill="none" stroke="#FFFFFF" stroke-width="0.9362" stroke-linecap="round" stroke-linejoin="round" x1="435.334" y1="246.583" x2="435.334" y2="268.317" />

        <line fill="none" stroke="#FFFFFF" stroke-width="0.9362" stroke-linecap="round" stroke-linejoin="round" x1="436.818" y1="246.583" x2="436.818" y2="268.317" />

        <line fill="none" stroke="#FFFFFF" stroke-width="0.9362" stroke-linecap="round" stroke-linejoin="round" x1="446.146" y1="246.583" x2="446.146" y2="268.317" />

        <line fill="none" stroke="#FFFFFF" stroke-width="0.9362" stroke-linecap="round" stroke-linejoin="round" x1="447.63" y1="246.583" x2="447.63" y2="268.317" />

        <rect x="415.754" y="234.526" fill="none" stroke="#FFFFFF" stroke-width="0.9362" stroke-linecap="round" stroke-linejoin="round" width="10.176" height="25.439" />

        <line fill="none" stroke="#FFFFFF" stroke-width="0.9362" stroke-linecap="round" stroke-linejoin="round" x1="464.819" y1="246.583" x2="464.819" y2="269.055" />

        <line fill="none" stroke="#FFFFFF" stroke-width="0.9362" stroke-linecap="round" stroke-linejoin="round" x1="474.995" y1="269.055" x2="474.995" y2="246.583" />

        <line fill="none" stroke="#FFFFFF" stroke-width="0.9362" stroke-linecap="round" stroke-linejoin="round" x1="474.995" y1="246.583" x2="474.995" y2="224.114" />

        <line fill="none" stroke="#FFFFFF" stroke-width="0.9362" stroke-linecap="round" stroke-linejoin="round" x1="464.819" y1="246.583" x2="474.995" y2="246.583" />

        <line fill="none" stroke="#FFFFFF" stroke-width="0.9362" stroke-linecap="round" stroke-linejoin="round" x1="464.819" y1="224.114" x2="464.819" y2="246.583" />
        <g>
          <path fill="#FFFFFF" d="M467.333,228.817v-0.708l1.357-0.506v-2.067l-1.357-0.479v-0.707l4.964,1.891v0.686L467.333,228.817          z M469.252,227.404l2.064-0.749c0.065-0.024,0.181-0.049,0.347-0.078v-0.016c-0.15-0.023-0.266-0.05-0.347-0.08          l-2.064-0.743V227.404z" />
          <path fill="#FFFFFF" d="M469.057,231.282v-1.888h0.484v1.888H469.057z" />
          <path fill="#FFFFFF" d="M467.333,235.185v-2.844h0.541v1.111h3.77l-0.33-1.141h0.576l0.514,1.765h-4.529v1.108H467.333z" />
          <path fill="#FFFFFF" d="M469.718,235.874c0.876,0,1.537,0.146,1.987,0.436c0.45,0.291,0.675,0.712,0.675,1.264          c0,1.051-0.848,1.576-2.544,1.576c-0.838,0-1.479-0.148-1.921-0.444c-0.443-0.296-0.666-0.71-0.666-1.245          c0-0.504,0.211-0.895,0.631-1.171C468.301,236.013,468.914,235.874,469.718,235.874z M469.746,236.515          c-1.318,0-1.978,0.335-1.978,1.004c0,0.658,0.669,0.987,2.01,0.987c1.386,0,2.079-0.323,2.079-0.968          C471.857,236.856,471.153,236.515,469.746,236.515z" />
        </g>
        <g>
          <path fill="#FFFFFF" d="M450.174,228.817v-0.708l1.358-0.506v-2.067l-1.358-0.479v-0.707l4.963,1.891v0.686L450.174,228.817          z M452.093,227.404l2.063-0.749c0.066-0.024,0.183-0.049,0.348-0.078v-0.016c-0.148-0.023-0.267-0.05-0.348-0.08          l-2.063-0.743V227.404z" />
          <path fill="#FFFFFF" d="M451.897,231.282v-1.888h0.483v1.888H451.897z" />
          <path fill="#FFFFFF" d="M450.174,235.185v-2.844h0.54v1.111h3.77l-0.33-1.141h0.577l0.513,1.765h-4.529v1.108H450.174z" />
          <path fill="#FFFFFF" d="M450.174,239.034v-2.846h0.54v1.111h3.77l-0.33-1.141h0.577l0.513,1.766h-4.529v1.109H450.174z" />
        </g>
        <g>
          <path fill="#FFFFFF" d="M439.236,228.817v-0.708l1.358-0.506v-2.067l-1.358-0.479v-0.707l4.963,1.891v0.686L439.236,228.817          z M441.155,227.404l2.063-0.749c0.067-0.024,0.183-0.049,0.348-0.078v-0.016c-0.15-0.023-0.267-0.05-0.348-0.08          l-2.063-0.743V227.404z" />
          <path fill="#FFFFFF" d="M440.959,231.282v-1.888h0.484v1.888H440.959z" />
          <path fill="#FFFFFF" d="M439.236,235.185v-2.844h0.54v1.111h3.77l-0.33-1.141h0.577l0.513,1.765h-4.529v1.108H439.236z" />
          <path fill="#FFFFFF" d="M439.236,238.941v-3.02h0.543l1.439,1.443c0.396,0.396,0.712,0.662,0.943,0.798          c0.232,0.134,0.472,0.201,0.72,0.201c0.282,0,0.498-0.079,0.648-0.237c0.151-0.157,0.227-0.387,0.227-0.685          c0-0.443-0.188-0.865-0.564-1.268h0.638c0.302,0.392,0.452,0.847,0.452,1.366c0,0.446-0.12,0.799-0.361,1.058          c-0.242,0.258-0.567,0.387-0.975,0.387c-0.309,0-0.61-0.082-0.906-0.248c-0.295-0.165-0.672-0.479-1.129-0.94l-1.105-1.131          h-0.013v2.275H439.236z" />
        </g>
        <g>
          <path fill="#FFFFFF" d="M418.281,243.175v-0.709l1.358-0.506v-2.068l-1.358-0.477v-0.708l4.965,1.891v0.687L418.281,243.175          z M420.2,241.761l2.064-0.75c0.066-0.023,0.182-0.049,0.347-0.077v-0.017c-0.15-0.023-0.266-0.049-0.347-0.079l-2.064-0.744          V241.761z" />
          <path fill="#FFFFFF" d="M420.005,245.638v-1.887h0.484v1.887H420.005z" />
          <path fill="#FFFFFF" d="M418.281,249.541v-2.845h0.541v1.111h3.77l-0.33-1.141h0.576l0.514,1.766h-4.529v1.108H418.281z" />
          <path fill="#FFFFFF" d="M419.57,253.554v-0.635h-1.289v-0.608h1.289v-2.313h0.406l3.27,2.195v0.727h-3.181v0.635H419.57z           M420.065,252.311h2.08c0.147,0,0.317,0.004,0.51,0.013v-0.013c-0.082-0.03-0.208-0.093-0.381-0.189l-2.209-1.478V252.311z" />
        </g>
        <g>
          <path fill="#FFFFFF" d="M467.333,258.351v-0.708l1.357-0.507v-2.066l-1.357-0.478v-0.708l4.964,1.891v0.686L467.333,258.351          z M469.252,256.938l2.064-0.749c0.065-0.023,0.181-0.05,0.347-0.077v-0.017c-0.15-0.023-0.266-0.049-0.347-0.08          l-2.064-0.742V256.938z" />
          <path fill="#FFFFFF" d="M469.057,260.815v-1.888h0.484v1.888H469.057z" />
          <path fill="#FFFFFF" d="M467.333,264.625v-3.019h0.545l1.439,1.441c0.396,0.398,0.711,0.664,0.943,0.8          c0.23,0.134,0.471,0.201,0.719,0.201c0.281,0,0.498-0.079,0.649-0.237c0.149-0.158,0.225-0.387,0.225-0.686          c0-0.442-0.188-0.863-0.563-1.266h0.638c0.301,0.391,0.452,0.846,0.452,1.365c0,0.446-0.121,0.799-0.361,1.057          c-0.241,0.26-0.566,0.388-0.976,0.388c-0.307,0-0.609-0.082-0.905-0.248c-0.294-0.165-0.672-0.479-1.129-0.94l-1.105-1.131          h-0.013v2.274H467.333z" />
          <path fill="#FFFFFF" d="M468.096,265.684c-0.218,0.333-0.327,0.68-0.327,1.042c0,0.341,0.095,0.617,0.287,0.826          c0.191,0.209,0.445,0.314,0.761,0.314c0.318,0,0.564-0.107,0.74-0.32s0.263-0.52,0.263-0.925          c0-0.193-0.015-0.454-0.045-0.784h2.522v2.441h-0.556v-1.857h-1.403c0.011,0.185,0.018,0.324,0.018,0.419          c0,0.524-0.133,0.932-0.398,1.225c-0.265,0.292-0.63,0.438-1.096,0.438c-0.481,0-0.869-0.156-1.166-0.471          c-0.298-0.314-0.446-0.748-0.446-1.301c0-0.463,0.068-0.813,0.205-1.048H468.096z" />
        </g>
        <g>
          <path fill="#FFFFFF" d="M450.174,258.351v-0.708l1.358-0.507v-2.066l-1.358-0.478v-0.708l4.963,1.891v0.686L450.174,258.351          z M452.093,256.938l2.063-0.749c0.066-0.023,0.183-0.05,0.348-0.077v-0.017c-0.148-0.023-0.267-0.049-0.348-0.08          l-2.063-0.742V256.938z" />
          <path fill="#FFFFFF" d="M451.897,260.815v-1.888h0.483v1.888H451.897z" />
          <path fill="#FFFFFF" d="M450.174,264.625v-3.019h0.544l1.438,1.441c0.397,0.398,0.712,0.664,0.944,0.8          c0.231,0.134,0.472,0.201,0.719,0.201c0.283,0,0.498-0.079,0.649-0.237s0.227-0.387,0.227-0.686          c0-0.442-0.188-0.863-0.563-1.266h0.637c0.302,0.391,0.451,0.846,0.451,1.365c0,0.446-0.119,0.799-0.361,1.057          c-0.242,0.26-0.566,0.388-0.974,0.388c-0.309,0-0.609-0.082-0.906-0.248c-0.296-0.165-0.673-0.479-1.13-0.94l-1.105-1.131          h-0.014v2.274H450.174z" />
          <path fill="#FFFFFF" d="M451.462,268.73v-0.635h-1.288v-0.608h1.288v-2.314h0.406l3.269,2.195v0.728h-3.179v0.635H451.462z           M451.958,267.487h2.08c0.147,0,0.316,0.005,0.51,0.012v-0.012c-0.081-0.03-0.208-0.094-0.381-0.189l-2.209-1.477V267.487z" />
        </g>
        <g>
          <path fill="#FFFFFF" d="M439.236,258.351v-0.708l1.358-0.507v-2.066l-1.358-0.478v-0.708l4.963,1.891v0.686L439.236,258.351          z M441.155,256.938l2.063-0.749c0.067-0.023,0.183-0.05,0.348-0.077v-0.017c-0.15-0.023-0.267-0.049-0.348-0.08          l-2.063-0.742V256.938z" />
          <path fill="#FFFFFF" d="M440.959,260.815v-1.888h0.484v1.888H440.959z" />
          <path fill="#FFFFFF" d="M439.236,264.625v-3.019h0.543l1.439,1.441c0.396,0.398,0.712,0.664,0.943,0.8          c0.232,0.134,0.472,0.201,0.72,0.201c0.282,0,0.498-0.079,0.648-0.237c0.151-0.158,0.227-0.387,0.227-0.686          c0-0.442-0.188-0.863-0.564-1.266h0.638c0.302,0.391,0.452,0.846,0.452,1.365c0,0.446-0.12,0.799-0.361,1.057          c-0.242,0.26-0.567,0.388-0.975,0.388c-0.309,0-0.61-0.082-0.906-0.248c-0.295-0.165-0.672-0.479-1.129-0.94l-1.105-1.131          h-0.013v2.274H439.236z" />
          <path fill="#FFFFFF" d="M440.065,265.575c-0.264,0.338-0.396,0.722-0.396,1.15c0,0.341,0.085,0.611,0.253,0.811          c0.167,0.201,0.393,0.299,0.674,0.299c0.629,0,0.942-0.448,0.942-1.347v-0.414h0.521v0.395c0,0.796,0.294,1.195,0.884,1.195          c0.545,0,0.816-0.306,0.816-0.913c0-0.349-0.117-0.677-0.353-0.984h0.594c0.188,0.324,0.281,0.703,0.281,1.138          c0,0.422-0.111,0.763-0.332,1.019s-0.508,0.385-0.86,0.385c-0.649,0-1.066-0.332-1.252-0.993h-0.014          c-0.038,0.358-0.164,0.642-0.379,0.852c-0.215,0.208-0.483,0.311-0.803,0.311c-0.447,0-0.807-0.159-1.08-0.481          s-0.41-0.748-0.41-1.283c0-0.471,0.087-0.85,0.263-1.137H440.065z" />
        </g>
        <g>
          <path fill="#FFFFFF" d="M428.298,258.351v-0.708l1.358-0.507v-2.066l-1.358-0.478v-0.708l4.964,1.891v0.686L428.298,258.351          z M430.217,256.938l2.063-0.749c0.065-0.023,0.182-0.05,0.347-0.077v-0.017c-0.15-0.023-0.266-0.049-0.347-0.08          l-2.063-0.742V256.938z" />
          <path fill="#FFFFFF" d="M430.021,260.815v-1.888h0.483v1.888H430.021z" />
          <path fill="#FFFFFF" d="M428.298,264.625v-3.019h0.544l1.439,1.441c0.396,0.398,0.711,0.664,0.943,0.8          c0.232,0.134,0.472,0.201,0.72,0.201c0.282,0,0.498-0.079,0.648-0.237c0.151-0.158,0.227-0.387,0.227-0.686          c0-0.442-0.188-0.863-0.564-1.266h0.638c0.302,0.391,0.452,0.846,0.452,1.365c0,0.446-0.12,0.799-0.362,1.057          c-0.241,0.26-0.566,0.388-0.974,0.388c-0.309,0-0.61-0.082-0.906-0.248c-0.297-0.165-0.673-0.479-1.129-0.94l-1.105-1.131          h-0.013v2.274H428.298z" />
          <path fill="#FFFFFF" d="M428.298,268.474v-3.018h0.544l1.439,1.441c0.396,0.397,0.711,0.664,0.943,0.799          c0.232,0.133,0.472,0.201,0.72,0.201c0.282,0,0.498-0.078,0.648-0.237c0.151-0.158,0.227-0.388,0.227-0.687          c0-0.441-0.188-0.863-0.564-1.265h0.638c0.302,0.391,0.452,0.846,0.452,1.366c0,0.445-0.12,0.798-0.362,1.057          c-0.241,0.258-0.566,0.387-0.974,0.387c-0.309,0-0.61-0.083-0.906-0.248c-0.297-0.165-0.673-0.479-1.129-0.94l-1.105-1.132          h-0.013v2.275H428.298z" />
        </g>
      </g>
    </g>
    <g>
      <rect x="465.245" y="251.237" fill="#FBC600" width="8.446" height="0.451" />
      <rect x="448.055" y="251.237" fill="#FBC600" width="8.445" height="0.451" />
      <rect x="437.244" y="251.237" fill="#FBC600" width="8.445" height="0.451" />
      <rect x="465.245" y="241.479" fill="#FBC600" width="8.446" height="0.453" />
      <rect x="426.432" y="241.479" fill="#FBC600" width="8.446" height="0.453" />
      <rect x="437.244" y="241.479" fill="#FBC600" width="8.445" height="0.453" />
      <rect x="448.055" y="241.479" fill="#FBC600" width="8.445" height="0.453" />
      <rect x="426.432" y="251.237" fill="#FBC600" width="8.446" height="0.451" />
      <rect x="416.613" y="254.442" fill="#FBC600" width="8.446" height="0.451" />
      <rect x="428.101" y="251.237" fill="#8DC21F" width="1.729" height="0.451" />
      <rect x="431.503" y="251.237" fill="#8DC21F" width="1.702" height="0.451" />
      <rect x="418.281" y="254.442" fill="#8DC21F" width="1.729" height="0.451" />
      <rect x="421.685" y="254.442" fill="#8DC21F" width="1.7" height="0.451" />
      <rect x="449.724" y="241.479" fill="#8DC21F" width="1.729" height="0.453" />
      <rect x="453.125" y="241.479" fill="#8DC21F" width="1.701" height="0.453" />
      <rect x="438.912" y="241.479" fill="#8DC21F" width="1.728" height="0.453" />
      <rect x="442.313" y="241.479" fill="#8DC21F" width="1.702" height="0.453" />
      <rect x="431.503" y="241.479" fill="#8DC21F" width="1.702" height="0.453" />
      <rect x="428.101" y="241.479" fill="#8DC21F" width="1.729" height="0.453" />
      <rect x="466.914" y="241.479" fill="#8DC21F" width="1.727" height="0.453" />
      <rect x="470.313" y="241.479" fill="#8DC21F" width="1.702" height="0.453" />
      <rect x="438.912" y="251.237" fill="#8DC21F" width="1.728" height="0.451" />
      <rect x="442.313" y="251.237" fill="#8DC21F" width="1.702" height="0.451" />
      <rect x="449.724" y="251.237" fill="#8DC21F" width="1.729" height="0.451" />
      <rect x="453.125" y="251.237" fill="#8DC21F" width="1.701" height="0.451" />
      <rect x="466.914" y="251.237" fill="#8DC21F" width="1.727" height="0.451" />
      <rect x="470.313" y="251.237" fill="#8DC21F" width="1.702" height="0.451" />
    </g>
</svg>
