<!DOCTYPE svg PUBLIC "-//W3C//DTD SVG 1.1//EN" "http://www.w3.org/Graphics/SVG/1.1/DTD/svg11.dtd">
<svg xmlns="http://www.w3.org/2000/svg" xmlns:xlink="http://www.w3.org/1999/xlink" version="1.1" id="图层_1" x="0px" y="0px" width="1028px" height="680px" viewBox="0 0 1028 680" enable-background="new 0 0 1028 680" xml:space="preserve" xmlns:xml="http://www.w3.org/XML/1998/namespace">
    <g>
      <path fill="#C60019" d="M388.163,277.628c0.002,0,0.004,0,0.005,0c1.796,0,2.539-0.744,2.539-2.539        c0-26.006,0-52.011,0-78.016c0-0.854,0.174-1.463,0.543-1.874v-4.993H358v78.225l2.5,8.502c0,0,5.193,1.381,5.193,0.695        C373.183,277.628,380.673,277.628,388.163,277.628z" />
      <g>
        <rect x="359.657" y="225.81" fill="none" stroke="#FFFFFF" stroke-width="1.8725" width="4.238" height="4.24" />
        <rect x="359.657" y="263.968" fill="none" stroke="#FFFFFF" stroke-width="1.8725" width="4.238" height="4.239" />
        <rect x="382.126" y="263.968" fill="none" stroke="#FFFFFF" stroke-width="1.8725" width="4.239" height="4.239" />
        <rect x="382.126" y="225.81" fill="none" stroke="#FFFFFF" stroke-width="1.8725" width="4.239" height="4.24" />
        <path fill="none" stroke="#FFFFFF" stroke-width="0.9362" stroke-linecap="round" stroke-linejoin="round" d="         M381.256,203.448c0.522,0,0.738-0.215,0.738-0.736" />
        <path fill="none" stroke="#FFFFFF" stroke-width="0.9362" stroke-linecap="round" stroke-linejoin="round" d="         M381.994,202.703c0-0.521-0.216-0.737-0.738-0.737" />

        <line fill="none" stroke="#FFFFFF" stroke-width="0.9362" stroke-linecap="round" stroke-linejoin="round" x1="359.522" y1="214.261" x2="381.256" y2="214.261" />

        <line fill="none" stroke="#FFFFFF" stroke-width="0.9362" stroke-linecap="round" stroke-linejoin="round" x1="359.522" y1="223.588" x2="381.994" y2="223.588" />

        <line fill="none" stroke="#FFFFFF" stroke-width="0.9362" stroke-linecap="round" stroke-linejoin="round" x1="359.522" y1="212.777" x2="381.256" y2="212.777" />

        <line fill="none" stroke="#FFFFFF" stroke-width="0.9362" stroke-linecap="round" stroke-linejoin="round" x1="359.522" y1="203.448" x2="381.256" y2="203.448" />

        <line fill="none" stroke="#FFFFFF" stroke-width="0.9362" stroke-linecap="round" stroke-linejoin="round" x1="359.522" y1="201.966" x2="381.256" y2="201.966" />

        <line fill="none" stroke="#FFFFFF" stroke-width="0.9362" stroke-linecap="round" stroke-linejoin="round" x1="359.522" y1="192.638" x2="359.522" y2="223.588" />

        <line fill="none" stroke="#FFFFFF" stroke-width="0.9362" stroke-linecap="round" stroke-linejoin="round" x1="359.522" y1="233.018" x2="359.522" y2="263.968" />

        <line fill="none" stroke="#FFFFFF" stroke-width="0.517" stroke-linecap="round" stroke-linejoin="round" x1="363.92" y1="268.171" x2="363.92" y2="277.608" />

        <line fill="none" stroke="#FFFFFF" stroke-width="0.9362" stroke-linecap="round" stroke-linejoin="round" x1="359.522" y1="242.344" x2="381.256" y2="242.344" />

        <line fill="none" stroke="#FFFFFF" stroke-width="0.9362" stroke-linecap="round" stroke-linejoin="round" x1="359.522" y1="243.829" x2="381.256" y2="243.829" />

        <line fill="none" stroke="#FFFFFF" stroke-width="0.9362" stroke-linecap="round" stroke-linejoin="round" x1="359.522" y1="253.157" x2="381.256" y2="253.157" />

        <line fill="none" stroke="#FFFFFF" stroke-width="0.9362" stroke-linecap="round" stroke-linejoin="round" x1="359.522" y1="233.018" x2="381.994" y2="233.018" />

        <line fill="none" stroke="#FFFFFF" stroke-width="0.9362" stroke-linecap="round" stroke-linejoin="round" x1="359.522" y1="263.968" x2="381.994" y2="263.968" />

        <line fill="none" stroke="#FFFFFF" stroke-width="0.9362" stroke-linecap="round" stroke-linejoin="round" x1="363.914" y1="277.705" x2="386.385" y2="277.705" />

        <line fill="none" stroke="#FFFFFF" stroke-width="0.9362" stroke-linecap="round" stroke-linejoin="round" x1="359.522" y1="254.64" x2="381.256" y2="254.64" />
        <path fill="none" stroke="#FFFFFF" stroke-width="0.9362" stroke-linecap="round" stroke-linejoin="round" d="         M381.994,243.081c0-0.521-0.216-0.737-0.738-0.737" />
        <path fill="none" stroke="#FFFFFF" stroke-width="0.9362" stroke-linecap="round" stroke-linejoin="round" d="         M381.256,243.829c0.522,0,0.738-0.217,0.738-0.738" />
        <path fill="none" stroke="#FFFFFF" stroke-width="0.9362" stroke-linecap="round" stroke-linejoin="round" d="         M381.994,253.893c0-0.521-0.216-0.735-0.738-0.735" />
        <path fill="none" stroke="#FFFFFF" stroke-width="0.9362" stroke-linecap="round" stroke-linejoin="round" d="         M381.256,254.64c0.522,0,0.738-0.217,0.738-0.737" />

        <line fill="none" stroke="#FFFFFF" stroke-width="0.9362" stroke-linecap="round" stroke-linejoin="round" x1="386.365" y1="268.207" x2="363.896" y2="268.207" />

        <line fill="none" stroke="#FFFFFF" stroke-width="0.9362" stroke-linecap="round" stroke-linejoin="round" x1="359.522" y1="192.638" x2="381.994" y2="192.638" />
        <g>
          <path fill="#FFFFFF" d="M371.691,199.784h-0.709l-0.507-1.358h-2.067l-0.477,1.358h-0.708l1.891-4.964h0.687          L371.691,199.784z M370.277,197.865l-0.75-2.064c-0.024-0.065-0.05-0.181-0.077-0.347h-0.016          c-0.023,0.15-0.05,0.266-0.08,0.347l-0.742,2.064H370.277z" />
          <path fill="#FFFFFF" d="M374.155,198.06h-1.888v-0.482h1.888V198.06z" />
          <path fill="#FFFFFF" d="M378.058,199.784h-2.845v-0.542h1.111v-3.769l-1.141,0.33v-0.576l1.767-0.513v4.527h1.107V199.784z" />
          <path fill="#FFFFFF" d="M379.023,199.021c0.334,0.219,0.68,0.328,1.041,0.328c0.341,0,0.617-0.096,0.827-0.287          s0.313-0.444,0.313-0.761c0-0.319-0.106-0.564-0.319-0.739c-0.212-0.176-0.521-0.264-0.924-0.264          c-0.195,0-0.456,0.015-0.785,0.045v-2.522h2.441v0.554h-1.858v1.404c0.187-0.011,0.326-0.016,0.42-0.016          c0.523,0,0.932,0.132,1.224,0.397c0.293,0.265,0.439,0.63,0.439,1.096c0,0.481-0.157,0.869-0.472,1.166          c-0.313,0.298-0.746,0.446-1.301,0.446c-0.464,0-0.813-0.069-1.047-0.205V199.021z" />
        </g>
        <g>
          <path fill="#FFFFFF" d="M371.691,210.517h-0.709l-0.507-1.357h-2.067l-0.477,1.357h-0.708l1.891-4.963h0.687          L371.691,210.517z M370.277,208.598l-0.75-2.063c-0.024-0.066-0.05-0.182-0.077-0.346h-0.016          c-0.023,0.148-0.05,0.265-0.08,0.346l-0.742,2.063H370.277z" />
          <path fill="#FFFFFF" d="M374.155,208.794h-1.888v-0.484h1.888V208.794z" />
          <path fill="#FFFFFF" d="M378.058,210.517h-2.845v-0.541h1.111v-3.768l-1.141,0.33v-0.578l1.767-0.512v4.527h1.107V210.517z" />
          <path fill="#FFFFFF" d="M381.717,206.191c-0.258-0.133-0.527-0.198-0.81-0.198c-0.43,0-0.774,0.187-1.035,0.561          c-0.261,0.373-0.393,0.885-0.397,1.531h0.016c0.235-0.455,0.61-0.684,1.125-0.684c0.429,0,0.772,0.141,1.028,0.421          c0.257,0.28,0.384,0.651,0.384,1.115c0,0.484-0.147,0.883-0.442,1.195c-0.296,0.312-0.674,0.468-1.133,0.468          c-0.505,0-0.9-0.197-1.188-0.591c-0.285-0.394-0.431-0.953-0.431-1.678c0-0.877,0.188-1.572,0.566-2.088          c0.377-0.517,0.873-0.773,1.489-0.773c0.352,0,0.629,0.048,0.828,0.144V206.191z M379.515,208.892          c0,0.328,0.085,0.608,0.26,0.842c0.174,0.232,0.405,0.348,0.693,0.348c0.274,0,0.495-0.102,0.666-0.301          c0.172-0.201,0.258-0.459,0.258-0.775c0-0.342-0.081-0.607-0.242-0.798c-0.162-0.19-0.391-0.285-0.688-0.285          c-0.281,0-0.51,0.096-0.685,0.288C379.6,208.402,379.515,208.63,379.515,208.892z" />
        </g>
        <g>
          <path fill="#FFFFFF" d="M371.691,221.251h-0.709l-0.507-1.359h-2.067l-0.477,1.359h-0.708l1.891-4.964h0.687          L371.691,221.251z M370.277,219.331l-0.75-2.064c-0.024-0.064-0.05-0.181-0.077-0.345h-0.016          c-0.023,0.148-0.05,0.265-0.08,0.345l-0.742,2.064H370.277z" />
          <path fill="#FFFFFF" d="M374.155,219.526h-1.888v-0.483h1.888V219.526z" />
          <path fill="#FFFFFF" d="M378.058,221.251h-2.845v-0.542h1.111v-3.769l-1.141,0.33v-0.576l1.767-0.514v4.528h1.107V221.251z" />
          <path fill="#FFFFFF" d="M381.984,216.505l-1.942,4.746h-0.65l1.845-4.41h-2.479v-0.554h3.228V216.505z" />
        </g>
        <g>
          <path fill="#FFFFFF" d="M371.691,240.392h-0.709l-0.507-1.357h-2.067l-0.477,1.357h-0.708l1.891-4.963h0.687          L371.691,240.392z M370.277,238.474l-0.75-2.064c-0.024-0.066-0.05-0.182-0.077-0.346h-0.016          c-0.023,0.15-0.05,0.265-0.08,0.346l-0.742,2.064H370.277z" />
          <path fill="#FFFFFF" d="M374.155,238.669h-1.888v-0.484h1.888V238.669z" />
          <path fill="#FFFFFF" d="M378.058,240.392h-2.845v-0.54h1.111v-3.77l-1.141,0.331v-0.577l1.767-0.513v4.528h1.107V240.392z" />
          <path fill="#FFFFFF" d="M379.859,237.781c-0.592-0.276-0.887-0.675-0.887-1.198c0-0.367,0.138-0.664,0.414-0.894          c0.278-0.229,0.635-0.344,1.065-0.344c0.396,0,0.721,0.107,0.977,0.323c0.257,0.217,0.385,0.494,0.385,0.836          c0,0.553-0.309,0.977-0.925,1.273v0.013c0.725,0.26,1.086,0.705,1.086,1.333c0,0.412-0.148,0.74-0.447,0.984          c-0.298,0.245-0.714,0.367-1.249,0.367c-0.438,0-0.794-0.12-1.07-0.361c-0.274-0.242-0.412-0.555-0.412-0.939          c0-0.633,0.354-1.092,1.063-1.381V237.781z M380.347,238.08c-0.613,0.247-0.92,0.602-0.92,1.063          c0,0.238,0.09,0.435,0.269,0.589c0.181,0.154,0.414,0.23,0.702,0.23c0.279,0,0.508-0.075,0.684-0.228          c0.174-0.154,0.262-0.345,0.262-0.572C381.343,238.682,381.011,238.321,380.347,238.08z M381.18,236.579          c0-0.223-0.068-0.396-0.209-0.525c-0.138-0.128-0.325-0.192-0.563-0.192c-0.223,0-0.411,0.065-0.567,0.2          c-0.155,0.133-0.233,0.304-0.233,0.512c0,0.414,0.26,0.729,0.778,0.945C380.915,237.298,381.18,236.985,381.18,236.579z" />
        </g>
        <g>
          <path fill="#FFFFFF" d="M371.691,251.126h-0.709l-0.507-1.359h-2.067l-0.477,1.359h-0.708l1.891-4.964h0.687          L371.691,251.126z M370.277,249.206l-0.75-2.063c-0.024-0.066-0.05-0.183-0.077-0.348h-0.016          c-0.023,0.15-0.05,0.265-0.08,0.348l-0.742,2.063H370.277z" />
          <path fill="#FFFFFF" d="M374.155,249.401h-1.888v-0.483h1.888V249.401z" />
          <path fill="#FFFFFF" d="M378.058,251.126h-2.845v-0.541h1.111v-3.769l-1.141,0.329v-0.576l1.767-0.514v4.529h1.107V251.126z          " />
          <path fill="#FFFFFF" d="M379.049,250.452c0.273,0.158,0.567,0.237,0.884,0.237c0.445,0,0.79-0.175,1.034-0.525          s0.367-0.848,0.367-1.493c-0.004,0.005-0.009,0.005-0.014,0c-0.218,0.415-0.584,0.622-1.1,0.622          c-0.416,0-0.761-0.144-1.034-0.43s-0.41-0.657-0.41-1.114c0-0.488,0.148-0.888,0.449-1.201          c0.298-0.313,0.686-0.469,1.162-0.469c0.493,0,0.879,0.193,1.157,0.581c0.277,0.388,0.416,0.952,0.416,1.694          c0,0.916-0.18,1.621-0.538,2.114c-0.359,0.494-0.855,0.739-1.49,0.739c-0.349,0-0.644-0.056-0.884-0.169V250.452z           M379.41,247.669c0,0.333,0.086,0.597,0.257,0.792c0.17,0.196,0.407,0.294,0.708,0.294c0.262,0,0.48-0.09,0.656-0.268          c0.178-0.179,0.268-0.395,0.268-0.649c0-0.356-0.09-0.652-0.266-0.887c-0.177-0.233-0.408-0.351-0.697-0.351          c-0.267,0-0.488,0.102-0.662,0.305C379.498,247.108,379.41,247.362,379.41,247.669z" />
        </g>
        <g>
          <path fill="#FFFFFF" d="M371.691,261.858h-0.709l-0.507-1.357h-2.067l-0.477,1.357h-0.708l1.891-4.963h0.687          L371.691,261.858z M370.277,259.938l-0.75-2.063c-0.024-0.066-0.05-0.182-0.077-0.347h-0.016          c-0.023,0.15-0.05,0.266-0.08,0.347l-0.742,2.063H370.277z" />
          <path fill="#FFFFFF" d="M374.155,260.136h-1.888v-0.484h1.888V260.136z" />
          <path fill="#FFFFFF" d="M377.965,261.858h-3.019v-0.545l1.442-1.438c0.396-0.397,0.663-0.712,0.797-0.943          c0.136-0.231,0.202-0.472,0.202-0.72c0-0.282-0.079-0.498-0.236-0.648c-0.159-0.151-0.387-0.226-0.686-0.226          c-0.442,0-0.863,0.188-1.267,0.564v-0.638c0.393-0.303,0.847-0.453,1.366-0.453c0.446,0,0.799,0.121,1.057,0.363          c0.259,0.24,0.389,0.566,0.389,0.973c0,0.309-0.084,0.61-0.249,0.906c-0.166,0.296-0.479,0.672-0.94,1.129l-1.132,1.106          v0.013h2.275V261.858z" />
          <path fill="#FFFFFF" d="M378.747,259.475c0-0.876,0.146-1.538,0.436-1.987c0.29-0.45,0.711-0.676,1.263-0.676          c1.052,0,1.576,0.848,1.576,2.545c0,0.838-0.147,1.479-0.443,1.92c-0.296,0.444-0.71,0.666-1.245,0.666          c-0.503,0-0.894-0.211-1.171-0.631C378.885,260.891,378.747,260.278,378.747,259.475z M379.387,259.446          c0,1.318,0.337,1.977,1.005,1.977c0.657,0,0.986-0.67,0.986-2.009c0-1.387-0.322-2.08-0.968-2.08          C379.729,257.334,379.387,258.038,379.387,259.446z" />
        </g>
        <g>
          <path fill="#FFFFFF" d="M375.245,275.531h-0.707l-0.507-1.358h-2.067l-0.477,1.358h-0.709l1.891-4.963h0.688          L375.245,275.531z M373.833,273.611l-0.75-2.062c-0.024-0.067-0.05-0.184-0.078-0.348h-0.016          c-0.024,0.15-0.05,0.266-0.08,0.348l-0.743,2.062H373.833z" />
          <path fill="#FFFFFF" d="M377.709,273.808h-1.887v-0.484h1.887V273.808z" />
          <path fill="#FFFFFF" d="M381.52,275.531h-3.018v-0.544l1.441-1.439c0.397-0.396,0.663-0.711,0.798-0.943          c0.135-0.231,0.201-0.473,0.201-0.719c0-0.283-0.078-0.498-0.236-0.65c-0.159-0.15-0.388-0.226-0.685-0.226          c-0.443,0-0.865,0.188-1.267,0.565v-0.639c0.391-0.302,0.845-0.451,1.365-0.451c0.446,0,0.799,0.119,1.058,0.361          s0.387,0.566,0.387,0.975c0,0.307-0.082,0.609-0.248,0.904c-0.166,0.297-0.479,0.673-0.941,1.131l-1.131,1.105v0.013h2.275          V275.531z" />
          <path fill="#FFFFFF" d="M385.462,275.531h-2.845v-0.54h1.111v-3.769l-1.141,0.329v-0.576l1.765-0.514v4.529h1.109V275.531z" />
        </g>
      </g>
    </g>
    <g>
      <rect x="364.17" y="233.453" fill="#FBC600" width="0.452" height="8.444" />
      <rect x="364.17" y="214.696" fill="#FBC600" width="0.452" height="8.445" />
      <rect x="364.17" y="203.886" fill="#FBC600" width="0.452" height="8.445" />
      <rect x="364.17" y="193.075" fill="#FBC600" width="0.452" height="8.443" />
      <rect x="368.543" y="268.643" fill="#FBC600" width="0.451" height="8.444" />
      <rect x="364.17" y="255.076" fill="#FBC600" width="0.452" height="8.445" />
      <rect x="364.17" y="244.265" fill="#FBC600" width="0.452" height="8.444" />
      <rect x="368.543" y="273.714" fill="#8DC21F" width="0.451" height="1.7" />
      <rect x="368.543" y="270.312" fill="#8DC21F" width="0.451" height="1.728" />
      <rect x="364.17" y="260.146" fill="#8DC21F" width="0.452" height="1.7" />
      <rect x="364.17" y="256.745" fill="#8DC21F" width="0.452" height="1.728" />
      <rect x="364.17" y="249.335" fill="#8DC21F" width="0.452" height="1.701" />
      <rect x="364.17" y="245.933" fill="#8DC21F" width="0.452" height="1.729" />
      <rect x="364.17" y="194.743" fill="#8DC21F" width="0.452" height="1.728" />
      <rect x="364.17" y="198.146" fill="#8DC21F" width="0.452" height="1.7" />
      <rect x="364.17" y="205.554" fill="#8DC21F" width="0.452" height="1.729" />
      <rect x="364.17" y="208.956" fill="#8DC21F" width="0.452" height="1.7" />
      <rect x="364.17" y="216.365" fill="#8DC21F" width="0.452" height="1.728" />
      <rect x="364.17" y="219.767" fill="#8DC21F" width="0.452" height="1.701" />
      <rect x="364.17" y="235.122" fill="#8DC21F" width="0.452" height="1.729" />
      <rect x="364.17" y="238.522" fill="#8DC21F" width="0.452" height="1.703" />
    </g>
    <path fill="none" stroke="#FFFFFF" stroke-width="0.9362" stroke-linecap="round" stroke-linejoin="round" d="M381.256,214.261       c0.522,0,0.738-0.216,0.738-0.738" />
    <path fill="none" stroke="#FFFFFF" stroke-width="0.9362" stroke-linecap="round" stroke-linejoin="round" d="M381.994,213.515       c0-0.521-0.216-0.737-0.738-0.737" />

</svg>
