<!DOCTYPE svg PUBLIC "-//W3C//DTD SVG 1.1//EN" "http://www.w3.org/Graphics/SVG/1.1/DTD/svg11.dtd">
<svg xmlns="http://www.w3.org/2000/svg" xmlns:xlink="http://www.w3.org/1999/xlink" version="1.1" id="图层_1" x="0px" y="0px" width="1028px" height="680px" viewBox="0 0 1028 680" enable-background="new 0 0 1028 680" xml:space="preserve" xmlns:xml="http://www.w3.org/XML/1998/namespace">
    <g>
      <path fill="#C60019" d="M606.719,293.653c-66.437,0-119.846-0.008-181.644-0.008c-2.133,0-3.36,0.713-4.419,2.563        c-8.479,14.835-16.954,29.672-25.433,44.507c-0.969,1.696,0.257,3.807,2.209,3.807c39.241,0,76.16-0.005,115.401-0.005        l-0.014-27.021h93.909L606.719,293.653" />
      <g>
        <g>
          <path fill="#FFFFFF" d="M417.307,331.09v-0.707l1.358-0.507v-2.068l-1.358-0.477v-0.709l4.963,1.891v0.687L417.307,331.09z           M419.227,329.677l2.063-0.75c0.065-0.024,0.182-0.05,0.346-0.076v-0.017c-0.149-0.023-0.265-0.049-0.346-0.08l-2.063-0.743          V329.677z" />
          <path fill="#FFFFFF" d="M419.03,333.555v-1.888h0.485v1.888H419.03z" />
          <path fill="#FFFFFF" d="M418.595,337.621v-0.636h-1.288v-0.607h1.288v-2.313h0.406l3.269,2.195v0.726h-3.178v0.636H418.595z           M419.092,336.378h2.08c0.146,0,0.316,0.004,0.509,0.012v-0.012c-0.081-0.03-0.209-0.094-0.381-0.189l-2.208-1.477V336.378z          " />
          <path fill="#FFFFFF" d="M418.137,338.313c-0.263,0.34-0.395,0.722-0.395,1.15c0,0.341,0.083,0.613,0.252,0.813          c0.168,0.2,0.393,0.299,0.674,0.299c0.629,0,0.943-0.448,0.943-1.349v-0.412h0.519v0.393c0,0.796,0.295,1.195,0.885,1.195          c0.544,0,0.816-0.304,0.816-0.913c0-0.349-0.118-0.675-0.353-0.983h0.593c0.188,0.324,0.282,0.703,0.282,1.137          c0,0.424-0.11,0.764-0.332,1.019c-0.221,0.258-0.508,0.386-0.859,0.386c-0.651,0-1.068-0.331-1.254-0.994h-0.013          c-0.038,0.359-0.165,0.643-0.379,0.851c-0.215,0.209-0.482,0.313-0.803,0.313c-0.446,0-0.808-0.161-1.081-0.482          c-0.272-0.321-0.409-0.75-0.409-1.282c0-0.47,0.087-0.851,0.262-1.139H418.137z" />
        </g>
        <g>
          <rect x="474.129" y="340.283" fill="none" stroke="#FFFFFF" stroke-width="1.8725" width="4.238" height="4.239" />
          <rect x="435.97" y="340.283" fill="none" stroke="#FFFFFF" stroke-width="1.8725" width="4.24" height="4.239" />

          <line fill="none" stroke="#FFFFFF" stroke-width="0.9362" stroke-linecap="round" stroke-linejoin="round" x1="415.194" y1="319.508" x2="435.333" y2="319.508" />

          <line fill="none" stroke="#FFFFFF" stroke-width="0.9362" stroke-linecap="round" stroke-linejoin="round" x1="435.334" y1="319.508" x2="435.334" y2="341.979" />

          <line fill="none" stroke="#FFFFFF" stroke-width="0.9362" stroke-linecap="round" stroke-linejoin="round" x1="415.197" y1="319.508" x2="415.197" y2="341.979" />

          <line fill="none" stroke="#FFFFFF" stroke-width="0.9362" stroke-linecap="round" stroke-linejoin="round" x1="424.523" y1="319.508" x2="424.523" y2="341.239" />

          <line fill="none" stroke="#FFFFFF" stroke-width="0.9362" stroke-linecap="round" stroke-linejoin="round" x1="426.008" y1="319.508" x2="426.008" y2="341.239" />

          <line fill="none" stroke="#FFFFFF" stroke-width="0.9362" stroke-linecap="round" stroke-linejoin="round" x1="502.322" y1="318.659" x2="533.271" y2="318.659" />

          <line fill="none" stroke="#FFFFFF" stroke-width="0.9362" stroke-linecap="round" stroke-linejoin="round" x1="464.163" y1="319.508" x2="495.113" y2="319.508" />

          <line fill="none" stroke="#FFFFFF" stroke-width="0.9362" stroke-linecap="round" stroke-linejoin="round" x1="426.008" y1="319.508" x2="456.957" y2="319.508" />

          <line fill="none" stroke="#FFFFFF" stroke-width="0.9362" stroke-linecap="round" stroke-linejoin="round" x1="500.945" y1="319.508" x2="500.945" y2="341.239" />

          <line fill="none" stroke="#FFFFFF" stroke-width="0.9362" stroke-linecap="round" stroke-linejoin="round" x1="479.322" y1="319.508" x2="510.271" y2="319.508" />
          <path fill="none" stroke="#FFFFFF" stroke-width="0.9362" stroke-linecap="round" stroke-linejoin="round" d="          M450.956,341.239c0,0.522,0.214,0.739,0.736,0.739" />
          <path fill="none" stroke="#FFFFFF" stroke-width="0.9362" stroke-linecap="round" stroke-linejoin="round" d="          M451.702,341.979c0.52,0,0.737-0.217,0.737-0.739" />
          <path fill="none" stroke="#FFFFFF" stroke-width="0.9362" stroke-linecap="round" stroke-linejoin="round" d="          M461.767,341.239c0,0.522,0.217,0.739,0.738,0.739" />
          <path fill="none" stroke="#FFFFFF" stroke-width="0.9362" stroke-linecap="round" stroke-linejoin="round" d="          M462.513,341.979c0.521,0,0.737-0.217,0.737-0.739" />

          <line fill="none" stroke="#FFFFFF" stroke-width="0.9362" stroke-linecap="round" stroke-linejoin="round" x1="441.628" y1="319.508" x2="441.628" y2="341.979" />

          <line fill="none" stroke="#FFFFFF" stroke-width="0.9362" stroke-linecap="round" stroke-linejoin="round" x1="472.577" y1="319.508" x2="472.577" y2="341.979" />

          <line fill="none" stroke="#FFFFFF" stroke-width="0.9362" stroke-linecap="round" stroke-linejoin="round" x1="450.956" y1="319.508" x2="450.956" y2="341.239" />

          <line fill="none" stroke="#FFFFFF" stroke-width="0.9362" stroke-linecap="round" stroke-linejoin="round" x1="452.439" y1="319.508" x2="452.439" y2="341.239" />

          <line fill="none" stroke="#FFFFFF" stroke-width="0.9362" stroke-linecap="round" stroke-linejoin="round" x1="461.767" y1="319.508" x2="461.767" y2="341.239" />

          <line fill="none" stroke="#FFFFFF" stroke-width="0.9362" stroke-linecap="round" stroke-linejoin="round" x1="463.25" y1="319.508" x2="463.25" y2="341.239" />

          <line fill="none" stroke="#FFFFFF" stroke-width="0.9362" stroke-linecap="round" stroke-linejoin="round" x1="441.628" y1="319.508" x2="472.577" y2="319.508" />
          <path fill="none" stroke="#FFFFFF" stroke-width="0.9362" stroke-linecap="round" stroke-linejoin="round" d="          M488.648,341.239c0,0.522,0.218,0.739,0.737,0.739" />
          <path fill="none" stroke="#FFFFFF" stroke-width="0.9362" stroke-linecap="round" stroke-linejoin="round" d="          M489.396,341.979c0.521,0,0.737-0.217,0.737-0.739" />
          <path fill="none" stroke="#FFFFFF" stroke-width="0.9362" stroke-linecap="round" stroke-linejoin="round" d="          M499.46,341.239c0,0.522,0.215,0.739,0.738,0.739" />
          <path fill="none" stroke="#FFFFFF" stroke-width="0.9362" stroke-linecap="round" stroke-linejoin="round" d="          M500.206,341.979c0.521,0,0.739-0.217,0.739-0.739" />

          <line fill="none" stroke="#FFFFFF" stroke-width="0.9362" stroke-linecap="round" stroke-linejoin="round" x1="479.322" y1="319.508" x2="479.322" y2="341.979" />

          <line fill="none" stroke="#FFFFFF" stroke-width="0.9362" stroke-linecap="round" stroke-linejoin="round" x1="510.271" y1="319.508" x2="510.271" y2="341.979" />

          <line fill="none" stroke="#FFFFFF" stroke-width="0.9362" stroke-linecap="round" stroke-linejoin="round" x1="488.648" y1="319.508" x2="488.648" y2="341.239" />

          <line fill="none" stroke="#FFFFFF" stroke-width="0.9362" stroke-linecap="round" stroke-linejoin="round" x1="490.133" y1="319.508" x2="490.133" y2="341.239" />

          <line fill="none" stroke="#FFFFFF" stroke-width="0.9362" stroke-linecap="round" stroke-linejoin="round" x1="499.46" y1="319.508" x2="499.46" y2="341.239" />
          <g>
            <rect x="420.283" y="302.124" fill="none" stroke="#FFFFFF" stroke-width="1.8725" width="4.24" height="4.239" />
            <rect x="533.908" y="301.275" fill="none" stroke="#FFFFFF" stroke-width="1.8725" width="5.935" height="5.937" />
            <rect x="495.75" y="301.275" fill="none" stroke="#FFFFFF" stroke-width="1.8725" width="5.936" height="5.937" />
            <rect x="457.594" y="301.275" fill="none" stroke="#FFFFFF" stroke-width="1.8725" width="5.937" height="5.937" />
            <rect x="572.064" y="301.275" fill="none" stroke="#FFFFFF" stroke-width="1.8725" width="5.936" height="5.937" />

            <line fill="none" stroke="#FFFFFF" stroke-width="0.9362" stroke-linecap="round" stroke-linejoin="round" x1="502.322" y1="318.659" x2="502.322" y2="296.189" />

            <line fill="none" stroke="#FFFFFF" stroke-width="0.9362" stroke-linecap="round" stroke-linejoin="round" x1="523.944" y1="318.659" x2="523.944" y2="296.927" />

            <line fill="none" stroke="#FFFFFF" stroke-width="0.9362" stroke-linecap="round" stroke-linejoin="round" x1="522.46" y1="318.659" x2="522.46" y2="296.927" />

            <line fill="none" stroke="#FFFFFF" stroke-width="0.9362" stroke-linecap="round" stroke-linejoin="round" x1="513.133" y1="318.659" x2="513.133" y2="296.927" />

            <line fill="none" stroke="#FFFFFF" stroke-width="0.9362" stroke-linecap="round" stroke-linejoin="round" x1="511.648" y1="318.659" x2="511.648" y2="296.927" />

            <line fill="none" stroke="#FFFFFF" stroke-width="0.9362" stroke-linecap="round" stroke-linejoin="round" x1="533.271" y1="318.659" x2="533.271" y2="296.189" />
            <path fill="none" stroke="#FFFFFF" stroke-width="0.9362" stroke-linecap="round" stroke-linejoin="round" d="           M485.786,297.775c0-0.522-0.217-0.738-0.736-0.738" />
            <path fill="none" stroke="#FFFFFF" stroke-width="0.9362" stroke-linecap="round" stroke-linejoin="round" d="           M485.041,297.037c-0.522,0-0.739,0.216-0.739,0.738" />
            <path fill="none" stroke="#FFFFFF" stroke-width="0.9362" stroke-linecap="round" stroke-linejoin="round" d="           M474.976,297.775c0-0.522-0.215-0.738-0.737-0.738" />
            <path fill="none" stroke="#FFFFFF" stroke-width="0.9362" stroke-linecap="round" stroke-linejoin="round" d="           M474.229,297.037c-0.521,0-0.738,0.216-0.738,0.738" />

            <line fill="none" stroke="#FFFFFF" stroke-width="0.9362" stroke-linecap="round" stroke-linejoin="round" x1="464.163" y1="319.508" x2="464.163" y2="297.037" />

            <line fill="none" stroke="#FFFFFF" stroke-width="0.9362" stroke-linecap="round" stroke-linejoin="round" x1="485.786" y1="319.508" x2="485.786" y2="297.775" />

            <line fill="none" stroke="#FFFFFF" stroke-width="0.9362" stroke-linecap="round" stroke-linejoin="round" x1="484.302" y1="319.508" x2="484.302" y2="297.775" />

            <line fill="none" stroke="#FFFFFF" stroke-width="0.9362" stroke-linecap="round" stroke-linejoin="round" x1="474.976" y1="319.508" x2="474.976" y2="297.775" />

            <line fill="none" stroke="#FFFFFF" stroke-width="0.9362" stroke-linecap="round" stroke-linejoin="round" x1="473.491" y1="319.508" x2="473.491" y2="297.775" />

            <line fill="none" stroke="#FFFFFF" stroke-width="0.9362" stroke-linecap="round" stroke-linejoin="round" x1="495.113" y1="319.508" x2="495.113" y2="297.037" />
            <path fill="none" stroke="#FFFFFF" stroke-width="0.9362" stroke-linecap="round" stroke-linejoin="round" d="           M447.63,297.775c0-0.521-0.216-0.738-0.738-0.738" />
            <path fill="none" stroke="#FFFFFF" stroke-width="0.9362" stroke-linecap="round" stroke-linejoin="round" d="           M446.884,297.037c-0.521,0-0.738,0.217-0.738,0.738" />
            <path fill="none" stroke="#FFFFFF" stroke-width="0.9362" stroke-linecap="round" stroke-linejoin="round" d="           M436.818,297.775c0-0.521-0.217-0.738-0.738-0.738" />
            <path fill="none" stroke="#FFFFFF" stroke-width="0.9362" stroke-linecap="round" stroke-linejoin="round" d="           M436.071,297.037c-0.521,0-0.737,0.217-0.737,0.738" />

            <line fill="none" stroke="#FFFFFF" stroke-width="0.9362" stroke-linecap="round" stroke-linejoin="round" x1="426.008" y1="319.508" x2="426.008" y2="297.037" />

            <line fill="none" stroke="#FFFFFF" stroke-width="0.9362" stroke-linecap="round" stroke-linejoin="round" x1="447.63" y1="319.508" x2="447.63" y2="297.775" />

            <line fill="none" stroke="#FFFFFF" stroke-width="0.9362" stroke-linecap="round" stroke-linejoin="round" x1="446.146" y1="319.508" x2="446.146" y2="297.775" />

            <line fill="none" stroke="#FFFFFF" stroke-width="0.9362" stroke-linecap="round" stroke-linejoin="round" x1="436.818" y1="319.508" x2="436.818" y2="297.775" />

            <line fill="none" stroke="#FFFFFF" stroke-width="0.9362" stroke-linecap="round" stroke-linejoin="round" x1="435.334" y1="319.508" x2="435.334" y2="297.775" />

            <line fill="none" stroke="#FFFFFF" stroke-width="0.9362" stroke-linecap="round" stroke-linejoin="round" x1="456.957" y1="319.508" x2="456.957" y2="297.037" />
            <path fill="none" stroke="#FFFFFF" stroke-width="0.9362" stroke-linecap="round" stroke-linejoin="round" d="           M562.313,296.927c0-0.523-0.215-0.737-0.737-0.737" />
            <path fill="none" stroke="#FFFFFF" stroke-width="0.9362" stroke-linecap="round" stroke-linejoin="round" d="           M561.567,296.189c-0.521,0-0.738,0.214-0.738,0.737" />
            <path fill="none" stroke="#FFFFFF" stroke-width="0.9362" stroke-linecap="round" stroke-linejoin="round" d="           M551.502,296.927c0-0.523-0.215-0.737-0.736-0.737" />
            <path fill="none" stroke="#FFFFFF" stroke-width="0.9362" stroke-linecap="round" stroke-linejoin="round" d="           M550.757,296.189c-0.521,0-0.739,0.214-0.739,0.737" />

            <line fill="none" stroke="#FFFFFF" stroke-width="0.9362" stroke-linecap="round" stroke-linejoin="round" x1="540.691" y1="318.659" x2="540.691" y2="296.189" />

            <line fill="none" stroke="#FFFFFF" stroke-width="0.9362" stroke-linecap="round" stroke-linejoin="round" x1="562.313" y1="318.659" x2="562.313" y2="296.927" />

            <line fill="none" stroke="#FFFFFF" stroke-width="0.9362" stroke-linecap="round" stroke-linejoin="round" x1="560.829" y1="318.659" x2="560.829" y2="296.927" />

            <line fill="none" stroke="#FFFFFF" stroke-width="0.9362" stroke-linecap="round" stroke-linejoin="round" x1="551.502" y1="318.659" x2="551.502" y2="296.927" />

            <line fill="none" stroke="#FFFFFF" stroke-width="0.9362" stroke-linecap="round" stroke-linejoin="round" x1="550.018" y1="318.659" x2="550.018" y2="296.927" />

            <line fill="none" stroke="#FFFFFF" stroke-width="0.9362" stroke-linecap="round" stroke-linejoin="round" x1="571.642" y1="318.659" x2="571.642" y2="296.189" />
            <path fill="none" stroke="#FFFFFF" stroke-width="0.9362" stroke-linecap="round" stroke-linejoin="round" d="           M523.944,296.927c0-0.523-0.217-0.737-0.737-0.737" />
            <path fill="none" stroke="#FFFFFF" stroke-width="0.9362" stroke-linecap="round" stroke-linejoin="round" d="           M523.197,296.189c-0.521,0-0.737,0.214-0.737,0.737" />
            <path fill="none" stroke="#FFFFFF" stroke-width="0.9362" stroke-linecap="round" stroke-linejoin="round" d="           M513.133,296.927c0-0.523-0.216-0.737-0.738-0.737" />
            <path fill="none" stroke="#FFFFFF" stroke-width="0.9362" stroke-linecap="round" stroke-linejoin="round" d="           M512.388,296.189c-0.523,0-0.739,0.214-0.739,0.737" />

            <line fill="none" stroke="#FFFFFF" stroke-width="0.9362" stroke-linecap="round" stroke-linejoin="round" x1="593.292" y1="296.927" x2="593.292" y2="318.659" />

            <line fill="none" stroke="#FFFFFF" stroke-width="0.9362" stroke-linecap="round" stroke-linejoin="round" x1="591.808" y1="296.927" x2="591.808" y2="318.659" />

            <line fill="none" stroke="#FFFFFF" stroke-width="0.9362" stroke-linecap="round" stroke-linejoin="round" x1="602.621" y1="318.659" x2="602.621" y2="296.189" />

            <line fill="none" stroke="#FFFFFF" stroke-width="0.9362" stroke-linecap="round" stroke-linejoin="round" x1="582.483" y1="296.189" x2="582.483" y2="318.659" />
            <path fill="none" stroke="#FFFFFF" stroke-width="0.9362" stroke-linecap="round" stroke-linejoin="round" d="           M593.292,296.927c0-0.523-0.215-0.737-0.737-0.737" />
            <path fill="none" stroke="#FFFFFF" stroke-width="0.9362" stroke-linecap="round" stroke-linejoin="round" d="           M592.546,296.189c-0.521,0-0.738,0.214-0.738,0.737" />
            <g>
              <path fill="#FFFFFF" d="M596.028,300.701v-0.706l1.358-0.509v-2.065l-1.358-0.478v-0.708l4.965,1.891v0.686            L596.028,300.701z M597.948,299.29l2.063-0.752c0.066-0.022,0.182-0.048,0.346-0.076v-0.016            c-0.148-0.022-0.266-0.051-0.346-0.081l-2.063-0.744V299.29z" />
              <path fill="#FFFFFF" d="M597.752,303.166v-1.888h0.484v1.888H597.752z" />
              <path fill="#FFFFFF" d="M596.028,306.976v-3.018h0.545l1.439,1.441c0.396,0.398,0.712,0.664,0.943,0.799            c0.23,0.135,0.472,0.201,0.719,0.201c0.281,0,0.498-0.078,0.65-0.236c0.15-0.159,0.225-0.388,0.225-0.687            c0-0.441-0.188-0.863-0.564-1.265h0.639c0.303,0.391,0.452,0.845,0.452,1.364c0,0.446-0.122,0.798-0.362,1.057            c-0.241,0.26-0.566,0.389-0.976,0.389c-0.307,0-0.608-0.082-0.904-0.248c-0.297-0.167-0.672-0.48-1.13-0.941l-1.105-1.131            h-0.013v2.274H596.028z" />
              <path fill="#FFFFFF" d="M598.642,308.871c0.274-0.593,0.674-0.888,1.198-0.888c0.364,0,0.662,0.139,0.892,0.416            c0.229,0.277,0.345,0.633,0.345,1.064c0,0.396-0.108,0.721-0.324,0.977c-0.217,0.256-0.494,0.384-0.837,0.384            c-0.552,0-0.975-0.307-1.272-0.926h-0.012c-0.261,0.726-0.704,1.087-1.335,1.087c-0.411,0-0.738-0.148-0.984-0.447            c-0.244-0.298-0.366-0.714-0.366-1.247c0-0.439,0.119-0.795,0.361-1.07c0.242-0.277,0.556-0.414,0.938-0.414            c0.633,0,1.094,0.354,1.382,1.064H598.642z M598.343,309.358c-0.249-0.613-0.604-0.919-1.064-0.919            c-0.24,0-0.436,0.088-0.59,0.269c-0.153,0.179-0.23,0.412-0.23,0.701c0,0.279,0.077,0.507,0.229,0.683            c0.152,0.175,0.345,0.263,0.572,0.263C597.739,310.354,598.1,310.022,598.343,309.358z M599.843,310.19            c0.221,0,0.396-0.068,0.525-0.208c0.126-0.139,0.191-0.326,0.191-0.564c0-0.222-0.065-0.411-0.2-0.566            c-0.135-0.156-0.304-0.234-0.512-0.234c-0.414,0-0.729,0.26-0.945,0.779C599.123,309.926,599.438,310.19,599.843,310.19z" />
            </g>
            <g>
              <path fill="#FFFFFF" d="M585.106,300.701v-0.706l1.36-0.509v-2.065l-1.36-0.478v-0.708l4.966,1.891v0.686L585.106,300.701            z M587.026,299.29l2.063-0.752c0.066-0.022,0.182-0.048,0.348-0.076v-0.016c-0.15-0.022-0.267-0.051-0.348-0.081            l-2.063-0.744V299.29z" />
              <path fill="#FFFFFF" d="M586.83,303.166v-1.888h0.486v1.888H586.83z" />
              <path fill="#FFFFFF" d="M585.106,306.976v-3.018h0.545l1.44,1.441c0.396,0.398,0.71,0.664,0.942,0.799            c0.23,0.135,0.473,0.201,0.72,0.201c0.28,0,0.499-0.078,0.649-0.236c0.15-0.159,0.227-0.388,0.227-0.687            c0-0.441-0.189-0.863-0.565-1.265h0.638c0.301,0.391,0.452,0.845,0.452,1.364c0,0.446-0.121,0.798-0.362,1.057            c-0.241,0.26-0.565,0.389-0.975,0.389c-0.306,0-0.609-0.082-0.905-0.248c-0.295-0.167-0.673-0.48-1.129-0.941            l-1.106-1.131h-0.011v2.274H585.106z" />
              <path fill="#FFFFFF" d="M585.779,308.06c-0.157,0.274-0.237,0.568-0.237,0.884c0,0.445,0.176,0.79,0.525,1.034            c0.351,0.245,0.849,0.368,1.495,0.368c-0.004-0.005-0.004-0.009,0-0.014c-0.416-0.219-0.622-0.585-0.622-1.1            c0-0.416,0.143-0.762,0.43-1.034c0.285-0.274,0.658-0.411,1.114-0.411c0.487,0,0.888,0.15,1.201,0.449            c0.312,0.299,0.469,0.687,0.469,1.163c0,0.494-0.194,0.879-0.582,1.156c-0.387,0.278-0.951,0.417-1.693,0.417            c-0.917,0-1.622-0.18-2.115-0.539s-0.739-0.854-0.739-1.49c0-0.347,0.057-0.642,0.17-0.884H585.779z M588.565,308.421            c-0.334,0-0.598,0.086-0.793,0.258c-0.195,0.171-0.292,0.406-0.292,0.708c0,0.261,0.087,0.479,0.266,0.656            c0.178,0.178,0.395,0.268,0.649,0.268c0.357,0,0.651-0.09,0.886-0.265c0.234-0.177,0.351-0.41,0.351-0.698            c0-0.267-0.102-0.486-0.305-0.663C589.124,308.51,588.871,308.421,588.565,308.421z" />
            </g>
            <g>
              <path fill="#FFFFFF" d="M564.137,300.701v-0.706l1.358-0.509v-2.065l-1.358-0.478v-0.708l4.964,1.891v0.686            L564.137,300.701z M566.057,299.29l2.063-0.752c0.066-0.022,0.182-0.048,0.346-0.076v-0.016            c-0.15-0.022-0.266-0.051-0.346-0.081l-2.063-0.744V299.29z" />
              <path fill="#FFFFFF" d="M565.86,303.166v-1.888h0.485v1.888H565.86z" />
              <path fill="#FFFFFF" d="M564.967,304.077c-0.263,0.339-0.395,0.723-0.395,1.149c0,0.342,0.085,0.613,0.253,0.813            c0.167,0.2,0.391,0.3,0.674,0.3c0.627,0,0.94-0.449,0.94-1.35v-0.412h0.521v0.395c0,0.796,0.295,1.194,0.884,1.194            c0.546,0,0.818-0.305,0.818-0.913c0-0.349-0.119-0.676-0.354-0.984h0.592c0.189,0.325,0.283,0.704,0.283,1.138            c0,0.423-0.109,0.763-0.333,1.019c-0.219,0.257-0.507,0.385-0.859,0.385c-0.649,0-1.066-0.331-1.252-0.993h-0.013            c-0.04,0.359-0.166,0.643-0.379,0.851c-0.215,0.208-0.483,0.313-0.803,0.313c-0.448,0-0.809-0.162-1.082-0.482            c-0.273-0.322-0.411-0.75-0.411-1.285c0-0.468,0.09-0.848,0.264-1.136H564.967z" />
              <path fill="#FFFFFF" d="M566.521,307.758c0.876,0,1.54,0.146,1.987,0.438c0.451,0.29,0.676,0.711,0.676,1.263            c0,1.051-0.847,1.576-2.544,1.576c-0.838,0-1.479-0.149-1.921-0.444c-0.443-0.296-0.667-0.71-0.667-1.246            c0-0.503,0.212-0.894,0.633-1.171C565.104,307.897,565.718,307.758,566.521,307.758z M566.55,308.399            c-1.318,0-1.978,0.334-1.978,1.003c0,0.658,0.67,0.987,2.01,0.987c1.387,0,2.08-0.323,2.08-0.968            C568.662,308.74,567.957,308.399,566.55,308.399z" />
            </g>
            <g>
              <path fill="#FFFFFF" d="M553.743,300.701v-0.706l1.36-0.509v-2.065l-1.36-0.478v-0.708l4.966,1.891v0.686L553.743,300.701            z M555.663,299.29l2.066-0.752c0.066-0.022,0.18-0.048,0.345-0.076v-0.016c-0.15-0.022-0.266-0.051-0.345-0.081            l-2.066-0.744V299.29z" />
              <path fill="#FFFFFF" d="M555.469,303.166v-1.888h0.483v1.888H555.469z" />
              <path fill="#FFFFFF" d="M554.574,304.077c-0.263,0.339-0.393,0.723-0.393,1.149c0,0.342,0.082,0.613,0.253,0.813            c0.165,0.2,0.391,0.3,0.674,0.3c0.627,0,0.94-0.449,0.94-1.35v-0.412h0.52v0.395c0,0.796,0.296,1.194,0.885,1.194            c0.545,0,0.815-0.305,0.815-0.913c0-0.349-0.116-0.676-0.351-0.984h0.592c0.189,0.325,0.284,0.704,0.284,1.138            c0,0.423-0.113,0.763-0.334,1.019c-0.222,0.257-0.507,0.385-0.861,0.385c-0.649,0-1.065-0.331-1.252-0.993h-0.014            c-0.037,0.359-0.164,0.643-0.378,0.851c-0.216,0.208-0.483,0.313-0.804,0.313c-0.447,0-0.806-0.162-1.08-0.482            c-0.272-0.322-0.41-0.75-0.41-1.285c0-0.468,0.088-0.848,0.263-1.136H554.574z" />
              <path fill="#FFFFFF" d="M553.743,310.919v-2.847h0.542v1.112h3.77l-0.33-1.141h0.577l0.514,1.766h-4.53v1.109H553.743z" />
            </g>
            <g>
              <path fill="#FFFFFF" d="M543.353,300.701v-0.706l1.359-0.509v-2.065l-1.359-0.478v-0.708l4.966,1.891v0.686            L543.353,300.701z M545.272,299.29l2.063-0.752c0.066-0.022,0.182-0.048,0.348-0.076v-0.016            c-0.15-0.022-0.266-0.051-0.348-0.081l-2.063-0.744V299.29z" />
              <path fill="#FFFFFF" d="M545.076,303.166v-1.888h0.485v1.888H545.076z" />
              <path fill="#FFFFFF" d="M544.183,304.077c-0.262,0.339-0.395,0.723-0.395,1.149c0,0.342,0.085,0.613,0.253,0.813            c0.168,0.2,0.392,0.3,0.674,0.3c0.628,0,0.943-0.449,0.943-1.35v-0.412h0.518v0.395c0,0.796,0.296,1.194,0.885,1.194            c0.544,0,0.817-0.305,0.817-0.913c0-0.349-0.118-0.676-0.354-0.984h0.593c0.189,0.325,0.283,0.704,0.283,1.138            c0,0.423-0.111,0.763-0.331,1.019c-0.223,0.257-0.51,0.385-0.861,0.385c-0.649,0-1.067-0.331-1.252-0.993h-0.014            c-0.038,0.359-0.166,0.643-0.38,0.851s-0.482,0.313-0.803,0.313c-0.446,0-0.807-0.162-1.079-0.482            c-0.273-0.322-0.41-0.75-0.41-1.285c0-0.468,0.087-0.848,0.263-1.136H544.183z" />
              <path fill="#FFFFFF" d="M543.353,310.824v-3.018h0.545l1.439,1.441c0.396,0.398,0.712,0.663,0.943,0.8            c0.23,0.133,0.472,0.201,0.719,0.201c0.281,0,0.499-0.079,0.65-0.238c0.15-0.157,0.225-0.388,0.225-0.685            c0-0.441-0.188-0.865-0.563-1.267h0.638c0.303,0.391,0.452,0.847,0.452,1.365c0,0.448-0.121,0.8-0.361,1.058            c-0.243,0.259-0.567,0.388-0.976,0.388c-0.306,0-0.609-0.083-0.905-0.247c-0.294-0.167-0.673-0.48-1.129-0.942            l-1.105-1.131h-0.014v2.274H543.353z" />
            </g>
            <g>
              <path fill="#FFFFFF" d="M525.989,300.701v-0.706l1.359-0.509v-2.065l-1.359-0.478v-0.708l4.965,1.891v0.686            L525.989,300.701z M527.909,299.29l2.063-0.752c0.065-0.022,0.181-0.048,0.347-0.076v-0.016            c-0.149-0.022-0.266-0.051-0.347-0.081l-2.063-0.744V299.29z" />
              <path fill="#FFFFFF" d="M527.712,303.166v-1.888h0.485v1.888H527.712z" />
              <path fill="#FFFFFF" d="M526.82,304.077c-0.264,0.339-0.394,0.723-0.394,1.149c0,0.342,0.082,0.613,0.25,0.813            c0.168,0.2,0.394,0.3,0.675,0.3c0.627,0,0.941-0.449,0.941-1.35v-0.412h0.519v0.395c0,0.796,0.295,1.194,0.886,1.194            c0.544,0,0.816-0.305,0.816-0.913c0-0.349-0.116-0.676-0.354-0.984h0.595c0.188,0.325,0.281,0.704,0.281,1.138            c0,0.423-0.11,0.763-0.331,1.019c-0.222,0.257-0.507,0.385-0.86,0.385c-0.65,0-1.066-0.331-1.253-0.993h-0.014            c-0.037,0.359-0.164,0.643-0.378,0.851c-0.216,0.208-0.484,0.313-0.804,0.313c-0.447,0-0.807-0.162-1.08-0.482            c-0.273-0.322-0.41-0.75-0.41-1.285c0-0.468,0.087-0.848,0.263-1.136H526.82z" />
              <path fill="#FFFFFF" d="M526.82,307.925c-0.264,0.34-0.394,0.724-0.394,1.15c0,0.343,0.082,0.613,0.25,0.813            c0.168,0.199,0.394,0.299,0.675,0.299c0.627,0,0.941-0.449,0.941-1.349v-0.413h0.519v0.395            c0,0.796,0.295,1.195,0.886,1.195c0.544,0,0.816-0.305,0.816-0.913c0-0.35-0.116-0.677-0.354-0.985h0.595            c0.188,0.324,0.281,0.704,0.281,1.138c0,0.423-0.11,0.763-0.331,1.021c-0.222,0.255-0.507,0.384-0.86,0.384            c-0.65,0-1.066-0.332-1.253-0.994h-0.014c-0.037,0.358-0.164,0.643-0.378,0.852c-0.216,0.208-0.484,0.312-0.804,0.312            c-0.447,0-0.807-0.161-1.08-0.481c-0.273-0.323-0.41-0.751-0.41-1.284c0-0.471,0.087-0.849,0.263-1.138H526.82z" />
            </g>
            <g>
              <path fill="#FFFFFF" d="M515.272,300.701v-0.706l1.359-0.509v-2.065l-1.359-0.478v-0.708l4.964,1.891v0.686            L515.272,300.701z M517.191,299.29l2.064-0.752c0.066-0.022,0.183-0.048,0.346-0.076v-0.016            c-0.148-0.022-0.265-0.051-0.346-0.081l-2.064-0.744V299.29z" />
              <path fill="#FFFFFF" d="M516.996,303.166v-1.888h0.483v1.888H516.996z" />
              <path fill="#FFFFFF" d="M516.102,304.077c-0.262,0.339-0.394,0.723-0.394,1.149c0,0.342,0.084,0.613,0.253,0.813            c0.166,0.2,0.392,0.3,0.673,0.3c0.63,0,0.942-0.449,0.942-1.35v-0.412h0.52v0.395c0,0.796,0.295,1.194,0.884,1.194            c0.545,0,0.818-0.305,0.818-0.913c0-0.349-0.118-0.676-0.354-0.984h0.593c0.188,0.325,0.281,0.704,0.281,1.138            c0,0.423-0.109,0.763-0.33,1.019c-0.223,0.257-0.508,0.385-0.861,0.385c-0.649,0-1.066-0.331-1.253-0.993h-0.012            c-0.039,0.359-0.166,0.643-0.38,0.851c-0.216,0.208-0.482,0.313-0.804,0.313c-0.446,0-0.807-0.162-1.079-0.482            c-0.274-0.322-0.411-0.75-0.411-1.285c0-0.468,0.087-0.848,0.264-1.136H516.102z" />
              <path fill="#FFFFFF" d="M516.561,311.082v-0.635h-1.288v-0.608h1.288v-2.314h0.406l3.27,2.196v0.727h-3.18v0.635H516.561z             M517.057,309.839h2.08c0.147,0,0.317,0.005,0.51,0.012v-0.012c-0.081-0.03-0.208-0.095-0.381-0.19l-2.209-1.477V309.839z            " />
            </g>
            <g>
              <path fill="#FFFFFF" d="M504.88,300.701v-0.706l1.36-0.509v-2.065l-1.36-0.478v-0.708l4.965,1.891v0.686L504.88,300.701z             M506.8,299.29l2.063-0.752c0.066-0.022,0.183-0.048,0.347-0.076v-0.016c-0.15-0.022-0.266-0.051-0.347-0.081            l-2.063-0.744V299.29z" />
              <path fill="#FFFFFF" d="M506.605,303.166v-1.888h0.482v1.888H506.605z" />
              <path fill="#FFFFFF" d="M505.71,304.077c-0.263,0.339-0.393,0.723-0.393,1.149c0,0.342,0.083,0.613,0.251,0.813            c0.167,0.2,0.392,0.3,0.674,0.3c0.629,0,0.942-0.449,0.942-1.35v-0.412h0.521v0.395c0,0.796,0.294,1.194,0.884,1.194            c0.545,0,0.816-0.305,0.816-0.913c0-0.349-0.117-0.676-0.352-0.984h0.593c0.188,0.325,0.281,0.704,0.281,1.138            c0,0.423-0.109,0.763-0.331,1.019c-0.222,0.257-0.508,0.385-0.86,0.385c-0.649,0-1.068-0.331-1.254-0.993h-0.013            c-0.038,0.359-0.164,0.643-0.38,0.851c-0.215,0.208-0.482,0.313-0.802,0.313c-0.447,0-0.807-0.162-1.08-0.482            c-0.274-0.322-0.41-0.75-0.41-1.285c0-0.468,0.087-0.848,0.263-1.136H505.71z" />
              <path fill="#FFFFFF" d="M505.644,308.034c-0.218,0.332-0.326,0.681-0.326,1.041c0,0.343,0.095,0.617,0.286,0.828            c0.19,0.209,0.445,0.313,0.761,0.313c0.319,0,0.565-0.106,0.74-0.319c0.175-0.211,0.264-0.52,0.264-0.924            c0-0.193-0.016-0.455-0.046-0.785h2.522v2.442h-0.556v-1.858h-1.401c0.011,0.186,0.015,0.326,0.015,0.419            c0,0.523-0.132,0.933-0.397,1.226c-0.265,0.292-0.63,0.438-1.096,0.438c-0.48,0-0.87-0.158-1.166-0.472            c-0.298-0.313-0.445-0.747-0.445-1.3c0-0.465,0.068-0.813,0.204-1.049H505.644z" />
            </g>
            <g>
              <path fill="#FFFFFF" d="M488.149,301.865v-0.709l1.358-0.506v-2.067l-1.358-0.478v-0.708l4.965,1.891v0.685            L488.149,301.865z M490.069,300.452l2.063-0.75c0.066-0.024,0.182-0.05,0.347-0.077v-0.016            c-0.15-0.024-0.266-0.051-0.347-0.08l-2.063-0.744V300.452z" />
              <path fill="#FFFFFF" d="M489.875,304.329v-1.887h0.482v1.887H489.875z" />
              <path fill="#FFFFFF" d="M488.979,305.238c-0.263,0.34-0.395,0.725-0.395,1.15c0,0.343,0.084,0.613,0.252,0.814            c0.168,0.199,0.394,0.299,0.675,0.299c0.628,0,0.941-0.45,0.941-1.349v-0.414h0.519v0.395            c0,0.797,0.297,1.195,0.886,1.195c0.544,0,0.816-0.305,0.816-0.914c0-0.348-0.117-0.676-0.352-0.983h0.593            c0.188,0.324,0.281,0.704,0.281,1.138c0,0.423-0.11,0.763-0.331,1.019c-0.222,0.258-0.508,0.386-0.86,0.386            c-0.649,0-1.066-0.332-1.253-0.994h-0.014c-0.038,0.359-0.164,0.642-0.379,0.85c-0.215,0.21-0.483,0.313-0.803,0.313            c-0.447,0-0.807-0.16-1.08-0.482c-0.273-0.321-0.41-0.749-0.41-1.283c0-0.47,0.088-0.85,0.263-1.139H488.979z" />
              <path fill="#FFFFFF" d="M492.476,311.893c0.132-0.259,0.198-0.528,0.198-0.812c0-0.43-0.187-0.774-0.56-1.035            c-0.374-0.262-0.885-0.393-1.532-0.397v0.017c0.454,0.234,0.683,0.61,0.683,1.126c0,0.428-0.141,0.771-0.42,1.026            c-0.279,0.257-0.651,0.387-1.115,0.387c-0.485,0-0.884-0.15-1.195-0.444c-0.313-0.297-0.468-0.675-0.468-1.134            c0-0.504,0.197-0.899,0.592-1.188c0.394-0.288,0.953-0.431,1.678-0.431c0.876,0,1.571,0.188,2.088,0.564            c0.515,0.379,0.772,0.875,0.772,1.489c0,0.354-0.048,0.629-0.144,0.831H492.476z M489.774,309.687            c-0.326,0-0.607,0.088-0.84,0.261c-0.233,0.176-0.35,0.407-0.35,0.696c0,0.271,0.101,0.494,0.302,0.665            c0.2,0.171,0.459,0.258,0.775,0.258c0.342,0,0.608-0.083,0.798-0.243c0.19-0.161,0.286-0.39,0.286-0.688            c0-0.281-0.097-0.512-0.288-0.686C490.265,309.774,490.037,309.687,489.774,309.687z" />
            </g>
            <g>
              <path fill="#FFFFFF" d="M477.433,301.865v-0.709l1.359-0.506v-2.067l-1.359-0.478v-0.708l4.964,1.891v0.685            L477.433,301.865z M479.353,300.452l2.063-0.75c0.066-0.024,0.182-0.05,0.346-0.077v-0.016            c-0.148-0.024-0.265-0.051-0.346-0.08l-2.063-0.744V300.452z" />
              <path fill="#FFFFFF" d="M479.156,304.329v-1.887h0.483v1.887H479.156z" />
              <path fill="#FFFFFF" d="M478.263,305.238c-0.263,0.34-0.395,0.725-0.395,1.15c0,0.343,0.085,0.613,0.253,0.814            c0.167,0.199,0.392,0.299,0.674,0.299c0.628,0,0.942-0.45,0.942-1.349v-0.414h0.519v0.395            c0,0.797,0.295,1.195,0.884,1.195c0.545,0,0.817-0.305,0.817-0.914c0-0.348-0.116-0.676-0.353-0.983h0.593            c0.188,0.324,0.282,0.704,0.282,1.138c0,0.423-0.11,0.763-0.332,1.019c-0.22,0.258-0.507,0.386-0.859,0.386            c-0.65,0-1.067-0.332-1.254-0.994h-0.013c-0.038,0.359-0.165,0.642-0.38,0.85c-0.215,0.21-0.481,0.313-0.803,0.313            c-0.446,0-0.807-0.16-1.078-0.482c-0.275-0.321-0.412-0.749-0.412-1.283c0-0.47,0.088-0.85,0.264-1.139H478.263z" />
              <path fill="#FFFFFF" d="M482.178,312.157l-4.745-1.941v-0.65l4.409,1.846v-2.48h0.555v3.227H482.178z" />
            </g>
            <g>
              <path fill="#FFFFFF" d="M467.042,301.865v-0.709l1.358-0.506v-2.067l-1.358-0.478v-0.708l4.963,1.891v0.685            L467.042,301.865z M468.962,300.452l2.063-0.75c0.065-0.024,0.182-0.05,0.346-0.077v-0.016            c-0.148-0.024-0.267-0.051-0.346-0.08l-2.063-0.744V300.452z" />
              <path fill="#FFFFFF" d="M468.765,304.329v-1.887h0.484v1.887H468.765z" />
              <path fill="#FFFFFF" d="M467.872,305.238c-0.263,0.34-0.396,0.725-0.396,1.15c0,0.343,0.084,0.613,0.252,0.814            c0.169,0.199,0.394,0.299,0.674,0.299c0.629,0,0.942-0.45,0.942-1.349v-0.414h0.521v0.395            c0,0.797,0.294,1.195,0.883,1.195c0.546,0,0.817-0.305,0.817-0.914c0-0.348-0.117-0.676-0.352-0.983h0.593            c0.188,0.324,0.282,0.704,0.282,1.138c0,0.423-0.11,0.763-0.332,1.019c-0.222,0.258-0.508,0.386-0.861,0.386            c-0.648,0-1.066-0.332-1.252-0.994h-0.013c-0.039,0.359-0.165,0.642-0.38,0.85c-0.215,0.21-0.481,0.313-0.803,0.313            c-0.447,0-0.807-0.16-1.08-0.482c-0.273-0.321-0.411-0.749-0.411-1.283c0-0.47,0.089-0.85,0.264-1.139H467.872z" />
              <path fill="#FFFFFF" d="M469.653,310.032c0.274-0.59,0.674-0.887,1.197-0.887c0.365,0,0.663,0.138,0.893,0.418            c0.23,0.276,0.346,0.631,0.346,1.063c0,0.395-0.108,0.721-0.324,0.978s-0.494,0.385-0.836,0.385            c-0.552,0-0.976-0.31-1.271-0.927h-0.014c-0.261,0.725-0.705,1.088-1.334,1.088c-0.411,0-0.74-0.15-0.984-0.449            c-0.245-0.297-0.368-0.712-0.368-1.247c0-0.438,0.121-0.796,0.364-1.07c0.24-0.276,0.553-0.412,0.938-0.412            c0.633,0,1.094,0.353,1.381,1.062H469.653z M469.355,310.52c-0.249-0.612-0.604-0.919-1.064-0.919            c-0.239,0-0.437,0.091-0.59,0.269c-0.153,0.18-0.231,0.415-0.231,0.703c0,0.279,0.076,0.508,0.23,0.682            c0.152,0.176,0.343,0.264,0.572,0.264C468.752,311.518,469.114,311.184,469.355,310.52z M470.854,311.354            c0.223,0,0.398-0.07,0.525-0.208c0.128-0.14,0.193-0.327,0.193-0.564c0-0.222-0.068-0.411-0.201-0.566            s-0.304-0.234-0.512-0.234c-0.413,0-0.729,0.26-0.944,0.778C470.136,311.088,470.448,311.354,470.854,311.354z" />
            </g>
            <g>
              <path fill="#FFFFFF" d="M450.07,301.865v-0.709l1.36-0.506v-2.067l-1.36-0.478v-0.708l4.965,1.891v0.685L450.07,301.865z             M451.99,300.452l2.063-0.75c0.065-0.024,0.182-0.05,0.347-0.077v-0.016c-0.15-0.024-0.266-0.051-0.347-0.08l-2.063-0.744            V300.452z" />
              <path fill="#FFFFFF" d="M451.794,304.329v-1.887h0.484v1.887H451.794z" />
              <path fill="#FFFFFF" d="M450.9,305.238c-0.263,0.34-0.395,0.725-0.395,1.15c0,0.343,0.085,0.613,0.252,0.814            c0.167,0.199,0.394,0.299,0.675,0.299c0.628,0,0.942-0.45,0.942-1.349v-0.414h0.519v0.395            c0,0.797,0.296,1.195,0.885,1.195c0.544,0,0.816-0.305,0.816-0.914c0-0.348-0.117-0.676-0.352-0.983h0.592            c0.189,0.324,0.283,0.704,0.283,1.138c0,0.423-0.111,0.763-0.331,1.019c-0.223,0.258-0.51,0.386-0.861,0.386            c-0.649,0-1.066-0.332-1.253-0.994h-0.013c-0.038,0.359-0.165,0.642-0.38,0.85c-0.215,0.21-0.482,0.313-0.803,0.313            c-0.447,0-0.807-0.16-1.08-0.482c-0.273-0.321-0.41-0.749-0.41-1.283c0-0.47,0.088-0.85,0.263-1.139H450.9z" />
              <path fill="#FFFFFF" d="M450.743,309.223c-0.158,0.272-0.237,0.567-0.237,0.885c0,0.445,0.176,0.79,0.526,1.033            c0.35,0.244,0.848,0.366,1.493,0.366c-0.004-0.005-0.004-0.009,0-0.011c-0.414-0.219-0.621-0.587-0.621-1.101            c0-0.416,0.143-0.761,0.429-1.036c0.286-0.273,0.658-0.409,1.115-0.409c0.487,0,0.888,0.149,1.2,0.449            c0.313,0.299,0.47,0.687,0.47,1.163c0,0.493-0.194,0.879-0.583,1.156c-0.387,0.276-0.95,0.417-1.693,0.417            c-0.915,0-1.621-0.179-2.114-0.538s-0.74-0.855-0.74-1.49c0-0.349,0.057-0.644,0.169-0.885H450.743z M453.529,309.585            c-0.334,0-0.598,0.086-0.794,0.256c-0.195,0.171-0.294,0.407-0.294,0.709c0,0.262,0.09,0.479,0.269,0.657            c0.178,0.177,0.395,0.265,0.648,0.265c0.356,0,0.653-0.087,0.886-0.264c0.234-0.177,0.351-0.409,0.351-0.696            c0-0.268-0.101-0.489-0.304-0.664C454.088,309.672,453.834,309.585,453.529,309.585z" />
            </g>
            <g>
              <path fill="#FFFFFF" d="M439.354,301.865v-0.709l1.359-0.506v-2.067l-1.359-0.478v-0.708l4.965,1.891v0.685            L439.354,301.865z M441.274,300.452l2.063-0.75c0.066-0.024,0.182-0.05,0.346-0.077v-0.016            c-0.148-0.024-0.265-0.051-0.346-0.08l-2.063-0.744V300.452z" />
              <path fill="#FFFFFF" d="M441.078,304.329v-1.887h0.485v1.887H441.078z" />
              <path fill="#FFFFFF" d="M440.643,308.396v-0.635h-1.288v-0.609h1.288v-2.314h0.408l3.269,2.195v0.729h-3.18v0.635H440.643            z M441.14,307.152h2.08c0.147,0,0.316,0.005,0.509,0.013v-0.013c-0.081-0.03-0.208-0.094-0.381-0.188l-2.208-1.479            V307.152z" />
              <path fill="#FFFFFF" d="M441.739,308.922c0.875,0,1.538,0.144,1.988,0.436c0.448,0.29,0.674,0.712,0.674,1.263            c0,1.05-0.848,1.576-2.544,1.576c-0.837,0-1.479-0.147-1.921-0.444c-0.444-0.296-0.665-0.711-0.665-1.244            c0-0.505,0.21-0.896,0.631-1.171C440.323,309.06,440.936,308.922,441.739,308.922z M441.768,309.563            c-1.318,0-1.978,0.333-1.978,1.002c0,0.658,0.67,0.986,2.009,0.986c1.388,0,2.081-0.322,2.081-0.968            C443.88,309.903,443.176,309.563,441.768,309.563z" />
            </g>
            <g>
              <path fill="#FFFFFF" d="M428.381,301.865v-0.709l1.359-0.506v-2.067l-1.359-0.478v-0.708l4.964,1.891v0.685            L428.381,301.865z M430.301,300.452l2.063-0.75c0.066-0.024,0.183-0.05,0.346-0.077v-0.016            c-0.148-0.024-0.265-0.051-0.346-0.08l-2.063-0.744V300.452z" />
              <path fill="#FFFFFF" d="M430.105,304.329v-1.887h0.484v1.887H430.105z" />
              <path fill="#FFFFFF" d="M429.67,308.396v-0.635h-1.289v-0.609h1.289v-2.314h0.407l3.268,2.195v0.729h-3.179v0.635H429.67z             M430.166,307.152h2.081c0.146,0,0.316,0.005,0.509,0.013v-0.013c-0.081-0.03-0.209-0.094-0.382-0.188l-2.208-1.479            V307.152z" />
              <path fill="#FFFFFF" d="M428.381,312.081v-2.845h0.542v1.11h3.77l-0.331-1.141h0.576l0.514,1.767h-4.528v1.108H428.381z" />
            </g>
          </g>
          <g>
            <path fill="#FFFFFF" d="M428.432,331.09v-0.707l1.359-0.507v-2.068l-1.359-0.477v-0.709l4.964,1.891v0.687L428.432,331.09z            M430.353,329.677l2.063-0.75c0.066-0.024,0.182-0.05,0.346-0.076v-0.017c-0.149-0.023-0.265-0.049-0.346-0.08           l-2.063-0.743V329.677z" />
            <path fill="#FFFFFF" d="M430.156,333.555v-1.888h0.484v1.888H430.156z" />
            <path fill="#FFFFFF" d="M429.721,337.621v-0.636h-1.289v-0.607h1.289v-2.313h0.407l3.268,2.195v0.726h-3.179v0.636H429.721           z M430.217,336.378h2.081c0.147,0,0.316,0.004,0.51,0.012v-0.012c-0.082-0.03-0.209-0.094-0.383-0.189l-2.208-1.477           V336.378z" />
            <path fill="#FFFFFF" d="M429.721,341.47v-0.636h-1.289v-0.606h1.289v-2.314h0.407l3.268,2.195v0.726h-3.179v0.636H429.721z            M430.217,340.228h2.081c0.147,0,0.316,0.003,0.51,0.012v-0.012c-0.082-0.032-0.209-0.094-0.383-0.19l-2.208-1.477V340.228           z" />
          </g>
          <g>
            <path fill="#FFFFFF" d="M443.917,331.09v-0.707l1.358-0.507v-2.068l-1.358-0.477v-0.709l4.965,1.891v0.687L443.917,331.09z            M445.837,329.677l2.063-0.75c0.065-0.024,0.182-0.05,0.345-0.076v-0.017c-0.148-0.023-0.264-0.049-0.345-0.08           l-2.063-0.743V329.677z" />
            <path fill="#FFFFFF" d="M445.641,333.555v-1.888h0.484v1.888H445.641z" />
            <path fill="#FFFFFF" d="M445.204,337.621v-0.636h-1.287v-0.607h1.287v-2.313h0.408l3.27,2.195v0.726h-3.181v0.636H445.204z            M445.701,336.378h2.081c0.147,0,0.318,0.004,0.509,0.012v-0.012c-0.081-0.03-0.208-0.094-0.381-0.189l-2.209-1.477           V336.378z" />
            <path fill="#FFFFFF" d="M444.68,338.422c-0.218,0.333-0.327,0.681-0.327,1.042c0,0.341,0.097,0.617,0.288,0.826           s0.444,0.314,0.76,0.314c0.318,0,0.566-0.106,0.741-0.319c0.175-0.212,0.263-0.521,0.263-0.924           c0-0.194-0.016-0.456-0.046-0.785h2.523v2.442h-0.556v-1.858h-1.403c0.01,0.186,0.017,0.325,0.017,0.417           c0,0.525-0.132,0.935-0.397,1.226c-0.265,0.294-0.63,0.44-1.097,0.44c-0.48,0-0.87-0.158-1.166-0.472           c-0.297-0.313-0.445-0.748-0.445-1.301c0-0.464,0.068-0.813,0.204-1.049H444.68z" />
          </g>
          <g>
            <path fill="#FFFFFF" d="M454.634,331.09v-0.707l1.358-0.507v-2.068l-1.358-0.477v-0.709l4.963,1.891v0.687L454.634,331.09z            M456.553,329.677l2.064-0.75c0.064-0.024,0.181-0.05,0.346-0.076v-0.017c-0.15-0.023-0.265-0.049-0.346-0.08l-2.064-0.743           V329.677z" />
            <path fill="#FFFFFF" d="M456.357,333.555v-1.888h0.483v1.888H456.357z" />
            <path fill="#FFFFFF" d="M455.921,337.621v-0.636h-1.287v-0.607h1.287v-2.313h0.408l3.268,2.195v0.726h-3.179v0.636H455.921           z M456.418,336.378h2.08c0.147,0,0.317,0.004,0.51,0.012v-0.012c-0.081-0.03-0.208-0.094-0.383-0.189l-2.207-1.477V336.378           z" />
            <path fill="#FFFFFF" d="M458.959,341.116c0.133-0.258,0.199-0.527,0.199-0.811c0-0.43-0.188-0.772-0.561-1.035           c-0.374-0.259-0.886-0.394-1.533-0.397v0.017c0.456,0.234,0.684,0.609,0.684,1.126c0,0.428-0.14,0.771-0.42,1.028           c-0.28,0.256-0.651,0.385-1.115,0.385c-0.484,0-0.883-0.148-1.196-0.444c-0.311-0.297-0.467-0.673-0.467-1.132           c0-0.505,0.197-0.901,0.592-1.188c0.395-0.288,0.953-0.432,1.677-0.432c0.877,0,1.572,0.188,2.089,0.566           c0.515,0.377,0.774,0.873,0.774,1.488c0,0.353-0.049,0.628-0.146,0.829H458.959z M456.258,338.913           c-0.326,0-0.605,0.086-0.839,0.261c-0.234,0.174-0.35,0.403-0.35,0.694c0,0.271,0.1,0.496,0.301,0.666           c0.202,0.17,0.46,0.256,0.775,0.256c0.343,0,0.608-0.08,0.798-0.242c0.19-0.161,0.286-0.39,0.286-0.688           c0-0.283-0.097-0.512-0.289-0.687C456.749,339.001,456.521,338.913,456.258,338.913z" />
          </g>
          <g>
            <path fill="#FFFFFF" d="M465.298,331.09v-0.707l1.359-0.507v-2.068l-1.359-0.477v-0.709l4.964,1.891v0.687L465.298,331.09z            M467.217,329.677l2.064-0.75c0.066-0.024,0.181-0.05,0.346-0.076v-0.017c-0.149-0.023-0.265-0.049-0.346-0.08           l-2.064-0.743V329.677z" />
            <path fill="#FFFFFF" d="M467.022,333.555v-1.888h0.483v1.888H467.022z" />
            <path fill="#FFFFFF" d="M466.587,337.621v-0.636h-1.289v-0.607h1.289v-2.313h0.406l3.269,2.195v0.726h-3.179v0.636H466.587           z M467.083,336.378h2.079c0.147,0,0.317,0.004,0.511,0.012v-0.012c-0.081-0.03-0.208-0.094-0.383-0.189l-2.207-1.477           V336.378z" />
            <path fill="#FFFFFF" d="M470.043,341.382l-4.745-1.939v-0.652l4.409,1.847v-2.481h0.555v3.227H470.043z" />
          </g>
          <g>
            <path fill="#FFFFFF" d="M481.501,331.09v-0.707l1.358-0.507v-2.068l-1.358-0.477v-0.709l4.963,1.891v0.687L481.501,331.09z            M483.42,329.677l2.063-0.75c0.067-0.024,0.182-0.05,0.347-0.076v-0.017c-0.15-0.023-0.266-0.049-0.347-0.08l-2.063-0.743           V329.677z" />
            <path fill="#FFFFFF" d="M483.225,333.555v-1.888h0.483v1.888H483.225z" />
            <path fill="#FFFFFF" d="M482.789,337.621v-0.636h-1.288v-0.607h1.288v-2.313h0.406l3.269,2.195v0.726h-3.178v0.636H482.789           z M483.286,336.378h2.079c0.146,0,0.317,0.004,0.508,0.012v-0.012c-0.079-0.03-0.208-0.094-0.38-0.189l-2.207-1.477           V336.378z" />
            <path fill="#FFFFFF" d="M484.111,339.258c0.275-0.591,0.676-0.888,1.199-0.888c0.364,0,0.663,0.141,0.892,0.418           c0.231,0.276,0.345,0.634,0.345,1.064c0,0.394-0.107,0.72-0.322,0.977c-0.217,0.256-0.495,0.384-0.838,0.384           c-0.55,0-0.975-0.308-1.272-0.926h-0.012c-0.262,0.725-0.705,1.087-1.333,1.087c-0.414,0-0.74-0.149-0.986-0.449           c-0.244-0.297-0.366-0.712-0.366-1.246c0-0.438,0.121-0.796,0.361-1.071c0.242-0.274,0.556-0.412,0.94-0.412           c0.631,0,1.092,0.354,1.38,1.063H484.111z M483.814,339.746c-0.248-0.613-0.603-0.92-1.064-0.92           c-0.239,0-0.437,0.09-0.589,0.269c-0.153,0.179-0.232,0.414-0.232,0.702c0,0.28,0.077,0.508,0.229,0.683           c0.152,0.176,0.344,0.263,0.572,0.263C483.212,340.742,483.572,340.408,483.814,339.746z M485.313,340.578           c0.223,0,0.396-0.068,0.526-0.207c0.128-0.141,0.192-0.328,0.192-0.565c0-0.222-0.068-0.411-0.201-0.565           c-0.135-0.156-0.304-0.235-0.511-0.235c-0.415,0-0.73,0.26-0.945,0.779C484.595,340.314,484.908,340.578,485.313,340.578z" />
          </g>
          <g>
            <path fill="#FFFFFF" d="M492.37,331.09v-0.707l1.359-0.507v-2.068l-1.359-0.477v-0.709l4.965,1.891v0.687L492.37,331.09z            M494.29,329.677l2.063-0.75c0.066-0.024,0.182-0.05,0.346-0.076v-0.017c-0.149-0.023-0.265-0.049-0.346-0.08l-2.063-0.743           V329.677z" />
            <path fill="#FFFFFF" d="M494.094,333.555v-1.888h0.484v1.888H494.094z" />
            <path fill="#FFFFFF" d="M493.658,337.621v-0.636h-1.288v-0.607h1.288v-2.313h0.408l3.269,2.195v0.726h-3.18v0.636H493.658z            M494.155,336.378h2.08c0.146,0,0.316,0.004,0.509,0.012v-0.012c-0.081-0.03-0.208-0.094-0.381-0.189l-2.208-1.477V336.378           z" />
            <path fill="#FFFFFF" d="M493.043,338.447c-0.157,0.275-0.237,0.57-0.237,0.885c0,0.445,0.176,0.79,0.525,1.033           c0.351,0.245,0.848,0.369,1.495,0.369c-0.007-0.007-0.007-0.01,0-0.014c-0.416-0.218-0.622-0.584-0.622-1.1           c0-0.417,0.143-0.762,0.428-1.035c0.287-0.274,0.658-0.41,1.115-0.41c0.488,0,0.889,0.149,1.2,0.448           c0.313,0.299,0.471,0.687,0.471,1.163c0,0.493-0.194,0.879-0.582,1.157c-0.388,0.277-0.953,0.416-1.693,0.416           c-0.917,0-1.622-0.179-2.114-0.538c-0.495-0.359-0.741-0.855-0.741-1.49c0-0.348,0.057-0.643,0.17-0.885H493.043z            M495.828,338.81c-0.333,0-0.599,0.086-0.793,0.258c-0.196,0.169-0.293,0.406-0.293,0.707c0,0.262,0.089,0.48,0.267,0.656           c0.179,0.179,0.396,0.269,0.649,0.269c0.356,0,0.651-0.09,0.886-0.267c0.234-0.176,0.351-0.407,0.351-0.696           c0-0.268-0.101-0.489-0.304-0.663C496.388,338.897,496.134,338.81,495.828,338.81z" />
          </g>
          <g>
            <path fill="#FFFFFF" d="M503.137,331.09v-0.707l1.358-0.507v-2.068l-1.358-0.477v-0.709l4.965,1.891v0.687L503.137,331.09z            M505.057,329.677l2.063-0.75c0.065-0.024,0.182-0.05,0.347-0.076v-0.017c-0.149-0.023-0.266-0.049-0.347-0.08           l-2.063-0.743V329.677z" />
            <path fill="#FFFFFF" d="M504.861,333.555v-1.888h0.483v1.888H504.861z" />
            <path fill="#FFFFFF" d="M503.9,334.573c-0.218,0.333-0.328,0.68-0.328,1.042c0,0.342,0.097,0.616,0.287,0.826           c0.192,0.209,0.445,0.314,0.762,0.314c0.317,0,0.565-0.106,0.739-0.318c0.177-0.213,0.264-0.521,0.264-0.926           c0-0.193-0.016-0.456-0.045-0.785h2.522v2.442h-0.556v-1.857h-1.402c0.009,0.185,0.016,0.325,0.016,0.419           c0,0.523-0.132,0.932-0.398,1.224c-0.265,0.294-0.629,0.44-1.095,0.44c-0.481,0-0.869-0.159-1.167-0.472           c-0.297-0.313-0.445-0.748-0.445-1.301c0-0.465,0.069-0.814,0.206-1.049H503.9z" />
            <path fill="#FFFFFF" d="M505.521,338.146c0.876,0,1.538,0.146,1.988,0.436c0.45,0.291,0.675,0.711,0.675,1.264           c0,1.052-0.848,1.576-2.545,1.576c-0.837,0-1.477-0.149-1.921-0.444c-0.442-0.296-0.665-0.712-0.665-1.244           c0-0.506,0.211-0.895,0.632-1.172C504.104,338.286,504.718,338.146,505.521,338.146z M505.551,338.788           c-1.319,0-1.979,0.333-1.979,1.002c0,0.658,0.671,0.987,2.011,0.987c1.387,0,2.079-0.323,2.079-0.969           C507.662,339.128,506.958,338.788,505.551,338.788z" />
          </g>
        </g>
      </g>
    </g>
    <g>
      <rect x="501.37" y="324.161" fill="#FBC600" width="8.444" height="0.451" />
      <rect x="490.557" y="324.161" fill="#FBC600" width="8.446" height="0.451" />
      <rect x="479.748" y="324.161" fill="#FBC600" width="8.444" height="0.451" />
      <rect x="463.676" y="324.161" fill="#FBC600" width="8.445" height="0.451" />
      <rect x="452.863" y="324.161" fill="#FBC600" width="8.446" height="0.451" />
      <rect x="442.054" y="324.161" fill="#FBC600" width="8.445" height="0.451" />
      <rect x="426.432" y="324.161" fill="#FBC600" width="8.446" height="0.451" />
      <rect x="415.622" y="324.161" fill="#FBC600" width="8.444" height="0.451" />
      <rect x="417.29" y="324.161" fill="#8DC21F" width="1.729" height="0.451" />
      <rect x="420.691" y="324.161" fill="#8DC21F" width="1.7" height="0.451" />
      <rect x="428.101" y="324.161" fill="#8DC21F" width="1.729" height="0.451" />
      <rect x="431.503" y="324.161" fill="#8DC21F" width="1.702" height="0.451" />
      <rect x="443.723" y="324.161" fill="#8DC21F" width="1.729" height="0.451" />
      <rect x="447.124" y="324.161" fill="#8DC21F" width="1.701" height="0.451" />
      <rect x="454.533" y="324.161" fill="#8DC21F" width="1.729" height="0.451" />
      <rect x="457.935" y="324.161" fill="#8DC21F" width="1.702" height="0.451" />
      <rect x="465.345" y="324.161" fill="#8DC21F" width="1.728" height="0.451" />
      <rect x="468.745" y="324.161" fill="#8DC21F" width="1.702" height="0.451" />
      <rect x="481.416" y="324.161" fill="#8DC21F" width="1.728" height="0.451" />
      <rect x="484.817" y="324.161" fill="#8DC21F" width="1.699" height="0.451" />
      <rect x="492.227" y="324.161" fill="#8DC21F" width="1.729" height="0.451" />
      <rect x="495.628" y="324.161" fill="#8DC21F" width="1.7" height="0.451" />
      <rect x="503.038" y="324.161" fill="#8DC21F" width="1.729" height="0.451" />
      <rect x="506.44" y="324.161" fill="#8DC21F" width="1.7" height="0.451" />
    </g>
    <g>
      <rect x="593.718" y="313.555" fill="#FBC600" width="8.446" height="0.451" />
      <rect x="486.213" y="314.402" fill="#FBC600" width="8.444" height="0.453" />
      <rect x="502.748" y="313.555" fill="#FBC600" width="8.444" height="0.451" />
      <rect x="513.56" y="313.555" fill="#FBC600" width="8.444" height="0.451" />
      <rect x="524.368" y="313.555" fill="#FBC600" width="8.446" height="0.451" />
      <rect x="541.117" y="313.555" fill="#FBC600" width="8.443" height="0.451" />
      <rect x="551.927" y="313.555" fill="#FBC600" width="8.445" height="0.451" />
      <rect x="562.739" y="313.555" fill="#FBC600" width="8.444" height="0.451" />
      <rect x="582.907" y="313.555" fill="#FBC600" width="8.445" height="0.451" />
      <rect x="426.432" y="314.402" fill="#FBC600" width="8.446" height="0.453" />
      <rect x="437.244" y="314.402" fill="#FBC600" width="8.445" height="0.453" />
      <rect x="448.055" y="314.402" fill="#FBC600" width="8.445" height="0.453" />
      <rect x="464.59" y="314.402" fill="#FBC600" width="8.444" height="0.453" />
      <rect x="475.4" y="314.402" fill="#FBC600" width="8.444" height="0.453" />
      <rect x="480.473" y="314.402" fill="#8DC21F" width="1.7" height="0.453" />
      <rect x="466.258" y="314.402" fill="#8DC21F" width="1.729" height="0.453" />
      <rect x="469.661" y="314.402" fill="#8DC21F" width="1.7" height="0.453" />
      <rect x="449.724" y="314.402" fill="#8DC21F" width="1.729" height="0.453" />
      <rect x="453.125" y="314.402" fill="#8DC21F" width="1.701" height="0.453" />
      <rect x="438.912" y="314.402" fill="#8DC21F" width="1.728" height="0.453" />
      <rect x="442.313" y="314.402" fill="#8DC21F" width="1.702" height="0.453" />
      <rect x="428.101" y="314.402" fill="#8DC21F" width="1.729" height="0.453" />
      <rect x="431.503" y="314.402" fill="#8DC21F" width="1.702" height="0.453" />
      <rect x="584.576" y="313.555" fill="#8DC21F" width="1.727" height="0.451" />
      <rect x="587.978" y="313.555" fill="#8DC21F" width="1.7" height="0.451" />
      <rect x="564.406" y="313.555" fill="#8DC21F" width="1.729" height="0.451" />
      <rect x="567.809" y="313.555" fill="#8DC21F" width="1.701" height="0.451" />
      <rect x="553.597" y="313.555" fill="#8DC21F" width="1.727" height="0.451" />
      <rect x="556.999" y="313.555" fill="#8DC21F" width="1.7" height="0.451" />
      <rect x="542.785" y="313.555" fill="#8DC21F" width="1.728" height="0.451" />
      <rect x="546.188" y="313.555" fill="#8DC21F" width="1.699" height="0.451" />
      <rect x="526.038" y="313.555" fill="#8DC21F" width="1.729" height="0.451" />
      <rect x="529.44" y="313.555" fill="#8DC21F" width="1.701" height="0.451" />
      <rect x="515.227" y="313.555" fill="#8DC21F" width="1.729" height="0.451" />
      <rect x="518.629" y="313.555" fill="#8DC21F" width="1.701" height="0.451" />
      <rect x="504.414" y="313.555" fill="#8DC21F" width="1.728" height="0.451" />
      <rect x="507.818" y="313.555" fill="#8DC21F" width="1.699" height="0.451" />
      <rect x="487.88" y="314.402" fill="#8DC21F" width="1.729" height="0.453" />
      <rect x="491.283" y="314.402" fill="#8DC21F" width="1.7" height="0.453" />
      <rect x="477.069" y="314.402" fill="#8DC21F" width="1.728" height="0.453" />
      <rect x="595.386" y="313.555" fill="#8DC21F" width="1.729" height="0.451" />
      <rect x="598.788" y="313.555" fill="#8DC21F" width="1.701" height="0.451" />
    </g>
</svg>
