<!DOCTYPE svg PUBLIC "-//W3C//DTD SVG 1.1//EN" "http://www.w3.org/Graphics/SVG/1.1/DTD/svg11.dtd">
<svg xmlns="http://www.w3.org/2000/svg" xmlns:xlink="http://www.w3.org/1999/xlink" version="1.1" id="图层_1" x="0px" y="0px" width="1028px" height="680px" viewBox="0 0 1028 680" enable-background="new 0 0 1028 680" xml:space="preserve" xmlns:xml="http://www.w3.org/XML/1998/namespace">
    <g>
      <path fill="#C60019" d="M366.117,340.189c1.066,0,1.681-0.359,2.209-1.282c7.236-12.666,14.474-25.331,21.712-37.995        c0.46-0.806,0.669-1.596,0.669-2.524c0-0.341,0-0.683,0-1.025c0-1.414-0.471-2.168-1.545-2.428l-25.829-0.172v45.256        C364.956,340.019,364.495,340.189,366.117,340.189z" />
      <g>
        <rect x="359.231" y="333.311" fill="none" stroke="#FFFFFF" stroke-width="1.8725" width="5.089" height="5.089" />
        <g>
          <rect x="382.126" y="295.578" fill="none" stroke="#FFFFFF" stroke-width="1.8725" width="4.239" height="4.24" />

          <line fill="none" stroke="#FFFFFF" stroke-width="0.9362" stroke-linecap="round" stroke-linejoin="round" x1="364.389" y1="296.5" x2="364.389" y2="318.972" />

          <line fill="none" stroke="#FFFFFF" stroke-width="0.9362" stroke-linecap="round" stroke-linejoin="round" x1="374.564" y1="296.5" x2="364.389" y2="296.5" />

          <line fill="none" stroke="#FFFFFF" stroke-width="0.9362" stroke-linecap="round" stroke-linejoin="round" x1="374.564" y1="318.972" x2="374.564" y2="296.5" />
          <g>
            <path fill="#FFFFFF" d="M366.633,308.531v-0.71l1.358-0.506v-2.067l-1.358-0.477v-0.709l4.965,1.891v0.687L366.633,308.531           z M368.553,307.117l2.063-0.75c0.066-0.023,0.182-0.05,0.346-0.076v-0.017c-0.149-0.024-0.265-0.051-0.346-0.08           l-2.063-0.743V307.117z" />
            <path fill="#FFFFFF" d="M368.356,310.995v-1.889h0.484v1.889H368.356z" />
            <path fill="#FFFFFF" d="M367.921,315.062v-0.636h-1.288v-0.608h1.288v-2.314h0.406l3.271,2.195v0.728h-3.18v0.636H367.921z            M368.418,313.817h2.08c0.147,0,0.316,0.005,0.509,0.014v-0.014c-0.081-0.03-0.208-0.094-0.381-0.188l-2.208-1.479V313.817           z" />
            <path fill="#FFFFFF" d="M366.633,318.653v-3.02h0.544l1.439,1.443c0.397,0.396,0.712,0.663,0.944,0.799           c0.23,0.134,0.472,0.2,0.72,0.2c0.281,0,0.497-0.078,0.648-0.237c0.15-0.158,0.226-0.387,0.226-0.687           c0-0.44-0.188-0.861-0.563-1.266h0.638c0.301,0.393,0.451,0.847,0.451,1.367c0,0.445-0.12,0.798-0.362,1.058           c-0.24,0.257-0.565,0.387-0.975,0.387c-0.306,0-0.609-0.082-0.904-0.248c-0.297-0.166-0.672-0.48-1.13-0.941l-1.106-1.131           h-0.012v2.275H366.633z" />
          </g>
        </g>
      </g>
    </g>
    <g>
      <rect x="364.814" y="301.153" fill="#FBC600" width="8.446" height="0.45" />
      <rect x="366.482" y="301.153" fill="#8DC21F" width="1.729" height="0.45" />
      <rect x="369.885" y="301.153" fill="#8DC21F" width="1.701" height="0.45" />
    </g>
</svg>
