<!DOCTYPE svg PUBLIC "-//W3C//DTD SVG 1.1//EN" "http://www.w3.org/Graphics/SVG/1.1/DTD/svg11.dtd">
<svg xmlns="http://www.w3.org/2000/svg" xmlns:xlink="http://www.w3.org/1999/xlink" version="1.1" id="图层_1" x="0px" y="0px" width="1028px" height="680px" viewBox="0 0 1028 680" enable-background="new 0 0 1028 680" xml:space="preserve" xmlns:xml="http://www.w3.org/XML/1998/namespace">
    <g>
      <path fill="#C60019" d="M511.3,391.848h1.673v-23.771c-49.926,0-99.853,0-149.778,0v23.771H511.3z" />
      <g>
        <rect x="512.284" y="371.892" fill="none" stroke="#FFFFFF" stroke-width="1.8725" width="4.241" height="4.239" />
        <g>
          <rect x="397.389" y="371.468" fill="none" stroke="#FFFFFF" stroke-width="1.8725" width="5.088" height="5.088" />
          <rect x="359.231" y="371.468" fill="none" stroke="#FFFFFF" stroke-width="1.8725" width="5.089" height="5.088" />
          <rect x="474.129" y="371.892" fill="none" stroke="#FFFFFF" stroke-width="1.8725" width="4.238" height="4.239" />
          <rect x="435.97" y="371.892" fill="none" stroke="#FFFFFF" stroke-width="1.8725" width="4.24" height="4.239" />

          <line fill="none" stroke="#FFFFFF" stroke-width="0.9362" stroke-linecap="round" stroke-linejoin="round" x1="452.285" y1="393.092" x2="452.285" y2="371.358" />

          <line fill="none" stroke="#FFFFFF" stroke-width="0.9362" stroke-linecap="round" stroke-linejoin="round" x1="450.802" y1="393.092" x2="450.802" y2="371.358" />

          <line fill="none" stroke="#FFFFFF" stroke-width="0.9362" stroke-linecap="round" stroke-linejoin="round" x1="472.425" y1="393.092" x2="472.425" y2="370.62" />
          <path fill="none" stroke="#FFFFFF" stroke-width="0.9362" stroke-linecap="round" stroke-linejoin="round" d="          M424.63,371.358c0-0.521-0.217-0.738-0.738-0.738" />
          <path fill="none" stroke="#FFFFFF" stroke-width="0.9362" stroke-linecap="round" stroke-linejoin="round" d="          M423.882,370.62c-0.52,0-0.737,0.217-0.737,0.738" />
          <path fill="none" stroke="#FFFFFF" stroke-width="0.9362" stroke-linecap="round" stroke-linejoin="round" d="          M413.818,371.358c0-0.521-0.216-0.738-0.738-0.738" />
          <path fill="none" stroke="#FFFFFF" stroke-width="0.9362" stroke-linecap="round" stroke-linejoin="round" d="          M413.07,370.62c-0.52,0-0.736,0.217-0.736,0.738" />

          <line fill="none" stroke="#FFFFFF" stroke-width="0.9362" stroke-linecap="round" stroke-linejoin="round" x1="424.63" y1="393.092" x2="424.63" y2="371.358" />

          <line fill="none" stroke="#FFFFFF" stroke-width="0.9362" stroke-linecap="round" stroke-linejoin="round" x1="423.145" y1="393.092" x2="423.145" y2="371.358" />

          <line fill="none" stroke="#FFFFFF" stroke-width="0.9362" stroke-linecap="round" stroke-linejoin="round" x1="413.818" y1="393.092" x2="413.818" y2="371.358" />

          <line fill="none" stroke="#FFFFFF" stroke-width="0.9362" stroke-linecap="round" stroke-linejoin="round" x1="412.334" y1="393.092" x2="412.334" y2="371.358" />

          <line fill="none" stroke="#FFFFFF" stroke-width="0.9362" stroke-linecap="round" stroke-linejoin="round" x1="433.957" y1="393.092" x2="433.957" y2="370.62" />
          <path fill="none" stroke="#FFFFFF" stroke-width="0.9362" stroke-linecap="round" stroke-linejoin="round" d="          M386.95,371.358c0-0.521-0.217-0.738-0.738-0.738" />
          <path fill="none" stroke="#FFFFFF" stroke-width="0.9362" stroke-linecap="round" stroke-linejoin="round" d="          M386.203,370.62c-0.521,0-0.738,0.217-0.738,0.738" />
          <path fill="none" stroke="#FFFFFF" stroke-width="0.9362" stroke-linecap="round" stroke-linejoin="round" d="          M376.138,371.358c0-0.521-0.215-0.738-0.737-0.738" />
          <path fill="none" stroke="#FFFFFF" stroke-width="0.9362" stroke-linecap="round" stroke-linejoin="round" d="          M375.393,370.62c-0.522,0-0.737,0.217-0.737,0.738" />

          <line fill="none" stroke="#FFFFFF" stroke-width="0.9362" stroke-linecap="round" stroke-linejoin="round" x1="365.328" y1="393.092" x2="365.328" y2="370.62" />

          <line fill="none" stroke="#FFFFFF" stroke-width="0.9362" stroke-linecap="round" stroke-linejoin="round" x1="386.95" y1="393.092" x2="386.95" y2="371.358" />

          <line fill="none" stroke="#FFFFFF" stroke-width="0.9362" stroke-linecap="round" stroke-linejoin="round" x1="385.465" y1="393.092" x2="385.465" y2="371.358" />

          <line fill="none" stroke="#FFFFFF" stroke-width="0.9362" stroke-linecap="round" stroke-linejoin="round" x1="376.138" y1="393.092" x2="376.138" y2="371.358" />

          <line fill="none" stroke="#FFFFFF" stroke-width="0.9362" stroke-linecap="round" stroke-linejoin="round" x1="374.655" y1="393.092" x2="374.655" y2="371.358" />

          <line fill="none" stroke="#FFFFFF" stroke-width="0.9362" stroke-linecap="round" stroke-linejoin="round" x1="396.277" y1="393.092" x2="396.277" y2="370.62" />
          <path fill="none" stroke="#FFFFFF" stroke-width="0.9362" stroke-linecap="round" stroke-linejoin="round" d="          M500.945,371.358c0-0.521-0.218-0.738-0.739-0.738" />
          <path fill="none" stroke="#FFFFFF" stroke-width="0.9362" stroke-linecap="round" stroke-linejoin="round" d="          M500.198,370.62c-0.523,0-0.738,0.217-0.738,0.738" />
          <path fill="none" stroke="#FFFFFF" stroke-width="0.9362" stroke-linecap="round" stroke-linejoin="round" d="          M490.133,371.358c0-0.521-0.216-0.738-0.737-0.738" />
          <path fill="none" stroke="#FFFFFF" stroke-width="0.9362" stroke-linecap="round" stroke-linejoin="round" d="          M489.386,370.62c-0.52,0-0.737,0.217-0.737,0.738" />

          <line fill="none" stroke="#FFFFFF" stroke-width="0.9362" stroke-linecap="round" stroke-linejoin="round" x1="479.322" y1="393.092" x2="479.322" y2="370.62" />

          <line fill="none" stroke="#FFFFFF" stroke-width="0.9362" stroke-linecap="round" stroke-linejoin="round" x1="500.945" y1="393.092" x2="500.945" y2="371.358" />

          <line fill="none" stroke="#FFFFFF" stroke-width="0.9362" stroke-linecap="round" stroke-linejoin="round" x1="499.46" y1="393.092" x2="499.46" y2="371.358" />

          <line fill="none" stroke="#FFFFFF" stroke-width="0.9362" stroke-linecap="round" stroke-linejoin="round" x1="490.133" y1="393.092" x2="490.133" y2="371.358" />

          <line fill="none" stroke="#FFFFFF" stroke-width="0.9362" stroke-linecap="round" stroke-linejoin="round" x1="488.648" y1="393.092" x2="488.648" y2="371.358" />
          <path fill="none" stroke="#FFFFFF" stroke-width="0.9362" stroke-linecap="round" stroke-linejoin="round" d="          M463.096,371.358c0-0.521-0.214-0.738-0.736-0.738" />
          <path fill="none" stroke="#FFFFFF" stroke-width="0.9362" stroke-linecap="round" stroke-linejoin="round" d="          M462.351,370.62c-0.521,0-0.737,0.217-0.737,0.738" />
          <path fill="none" stroke="#FFFFFF" stroke-width="0.9362" stroke-linecap="round" stroke-linejoin="round" d="          M452.285,371.358c0-0.521-0.215-0.738-0.736-0.738" />
          <path fill="none" stroke="#FFFFFF" stroke-width="0.9362" stroke-linecap="round" stroke-linejoin="round" d="          M451.539,370.62c-0.521,0-0.737,0.217-0.737,0.738" />

          <line fill="none" stroke="#FFFFFF" stroke-width="0.9362" stroke-linecap="round" stroke-linejoin="round" x1="441.474" y1="393.092" x2="441.474" y2="370.62" />

          <line fill="none" stroke="#FFFFFF" stroke-width="0.9362" stroke-linecap="round" stroke-linejoin="round" x1="463.096" y1="393.092" x2="463.096" y2="371.358" />

          <line fill="none" stroke="#FFFFFF" stroke-width="0.9362" stroke-linecap="round" stroke-linejoin="round" x1="461.613" y1="393.092" x2="461.613" y2="371.358" />

          <line fill="none" stroke="#FFFFFF" stroke-width="0.9362" stroke-linecap="round" stroke-linejoin="round" x1="510.271" y1="393.092" x2="510.271" y2="370.62" />
          <g>
            <path fill="#FFFFFF" d="M503.137,375.186v-0.709l1.358-0.506v-2.067l-1.358-0.479v-0.707l4.965,1.891v0.686           L503.137,375.186z M505.057,373.772l2.063-0.75c0.065-0.024,0.182-0.051,0.347-0.077v-0.017           c-0.149-0.024-0.266-0.05-0.347-0.079l-2.063-0.744V373.772z" />
            <path fill="#FFFFFF" d="M504.861,377.648v-1.888h0.483v1.888H504.861z" />
            <path fill="#FFFFFF" d="M503.9,378.669c-0.218,0.333-0.328,0.68-0.328,1.042c0,0.341,0.097,0.616,0.287,0.824           c0.192,0.211,0.445,0.316,0.762,0.316c0.317,0,0.565-0.106,0.739-0.321c0.177-0.21,0.264-0.519,0.264-0.923           c0-0.195-0.016-0.457-0.045-0.784h2.522v2.441h-0.556v-1.86h-1.402c0.009,0.188,0.016,0.325,0.016,0.42           c0,0.525-0.132,0.932-0.398,1.226c-0.265,0.291-0.629,0.438-1.095,0.438c-0.481,0-0.869-0.156-1.167-0.469           c-0.297-0.314-0.445-0.748-0.445-1.303c0-0.464,0.069-0.813,0.206-1.047H503.9z" />
            <path fill="#FFFFFF" d="M503.137,385.4v-2.845h0.541v1.111h3.77l-0.329-1.141h0.575l0.514,1.766h-4.529v1.108H503.137z" />
          </g>
          <g>
            <path fill="#FFFFFF" d="M492.473,375.186v-0.709l1.358-0.506v-2.067l-1.358-0.479v-0.707l4.964,1.891v0.686           L492.473,375.186z M494.393,373.772l2.063-0.75c0.066-0.024,0.183-0.051,0.348-0.077v-0.017           c-0.15-0.024-0.266-0.05-0.348-0.079l-2.063-0.744V373.772z" />
            <path fill="#FFFFFF" d="M494.197,377.648v-1.888h0.483v1.888H494.197z" />
            <path fill="#FFFFFF" d="M493.235,378.669c-0.218,0.333-0.327,0.68-0.327,1.042c0,0.341,0.096,0.616,0.287,0.824           c0.192,0.211,0.443,0.316,0.761,0.316c0.319,0,0.564-0.106,0.74-0.321c0.176-0.21,0.263-0.519,0.263-0.923           c0-0.195-0.015-0.457-0.045-0.784h2.522v2.441h-0.553v-1.86h-1.406c0.011,0.188,0.018,0.325,0.018,0.42           c0,0.525-0.134,0.932-0.397,1.226c-0.266,0.291-0.631,0.438-1.096,0.438c-0.481,0-0.87-0.156-1.167-0.469           c-0.298-0.314-0.446-0.748-0.446-1.303c0-0.464,0.068-0.813,0.207-1.047H493.235z" />
            <path fill="#FFFFFF" d="M492.473,385.308v-3.02h0.545l1.438,1.443c0.397,0.398,0.712,0.664,0.943,0.799           c0.232,0.134,0.473,0.2,0.72,0.2c0.283,0,0.498-0.078,0.649-0.235c0.151-0.159,0.227-0.388,0.227-0.688           c0-0.441-0.188-0.863-0.565-1.264h0.639c0.302,0.391,0.451,0.844,0.451,1.364c0,0.446-0.121,0.8-0.361,1.057           c-0.242,0.259-0.567,0.388-0.976,0.388c-0.307,0-0.608-0.081-0.904-0.248c-0.297-0.165-0.673-0.478-1.13-0.94l-1.105-1.131           h-0.013v2.274H492.473z" />
          </g>
          <g>
            <path fill="#FFFFFF" d="M481.603,375.186v-0.709l1.358-0.506v-2.067l-1.358-0.479v-0.707l4.964,1.891v0.686           L481.603,375.186z M483.521,373.772l2.063-0.75c0.067-0.024,0.182-0.051,0.347-0.077v-0.017           c-0.149-0.024-0.266-0.05-0.347-0.079l-2.063-0.744V373.772z" />
            <path fill="#FFFFFF" d="M483.327,377.648v-1.888h0.483v1.888H483.327z" />
            <path fill="#FFFFFF" d="M482.365,378.669c-0.218,0.333-0.327,0.68-0.327,1.042c0,0.341,0.095,0.616,0.286,0.824           c0.192,0.211,0.446,0.316,0.762,0.316c0.318,0,0.565-0.106,0.74-0.321c0.176-0.21,0.263-0.519,0.263-0.923           c0-0.195-0.015-0.457-0.045-0.784h2.522v2.441h-0.554v-1.86h-1.404c0.011,0.188,0.017,0.325,0.017,0.42           c0,0.525-0.133,0.932-0.398,1.226c-0.265,0.291-0.63,0.438-1.096,0.438c-0.479,0-0.869-0.156-1.166-0.469           c-0.298-0.314-0.446-0.748-0.446-1.303c0-0.464,0.069-0.813,0.206-1.047H482.365z" />
            <path fill="#FFFFFF" d="M482.432,382.409c-0.262,0.338-0.394,0.723-0.394,1.148c0,0.343,0.084,0.613,0.252,0.813           c0.167,0.201,0.393,0.301,0.674,0.301c0.628,0,0.942-0.451,0.942-1.351v-0.413h0.52v0.395c0,0.798,0.295,1.195,0.885,1.195           c0.545,0,0.816-0.303,0.816-0.914c0-0.348-0.117-0.676-0.352-0.982h0.593c0.188,0.325,0.282,0.703,0.282,1.138           c0,0.423-0.111,0.763-0.332,1.019c-0.222,0.256-0.509,0.384-0.86,0.384c-0.65,0-1.066-0.33-1.253-0.992h-0.013           c-0.039,0.357-0.165,0.642-0.38,0.85c-0.216,0.208-0.483,0.313-0.804,0.313c-0.446,0-0.806-0.162-1.08-0.483           c-0.273-0.32-0.41-0.748-0.41-1.283c0-0.469,0.089-0.849,0.264-1.136H482.432z" />
          </g>
          <g>
            <path fill="#FFFFFF" d="M464.99,375.186v-0.709l1.358-0.506v-2.067l-1.358-0.479v-0.707l4.965,1.891v0.686L464.99,375.186z            M466.91,373.772l2.063-0.75c0.066-0.024,0.182-0.051,0.346-0.077v-0.017c-0.149-0.024-0.265-0.05-0.346-0.079           l-2.063-0.744V373.772z" />
            <path fill="#FFFFFF" d="M466.714,377.648v-1.888h0.484v1.888H466.714z" />
            <path fill="#FFFFFF" d="M465.754,378.669c-0.22,0.333-0.328,0.68-0.328,1.042c0,0.341,0.096,0.616,0.287,0.824           c0.19,0.211,0.444,0.316,0.762,0.316c0.318,0,0.563-0.106,0.739-0.321c0.175-0.21,0.263-0.519,0.263-0.923           c0-0.195-0.014-0.457-0.044-0.784h2.522v2.441h-0.556v-1.86h-1.404c0.011,0.188,0.017,0.325,0.017,0.42           c0,0.525-0.132,0.932-0.396,1.226c-0.265,0.291-0.63,0.438-1.096,0.438c-0.481,0-0.87-0.156-1.168-0.469           c-0.296-0.314-0.444-0.748-0.444-1.303c0-0.464,0.067-0.813,0.205-1.047H465.754z" />
            <path fill="#FFFFFF" d="M466.278,385.564v-0.634h-1.288v-0.61h1.288v-2.313h0.406l3.271,2.195v0.729h-3.18v0.634H466.278z            M466.775,384.32h2.08c0.147,0,0.316,0.005,0.509,0.014v-0.014c-0.081-0.028-0.208-0.092-0.381-0.188l-2.208-1.477V384.32z           " />
          </g>
          <g>
            <path fill="#FFFFFF" d="M454.53,375.186v-0.709l1.358-0.506v-2.067l-1.358-0.479v-0.707l4.965,1.891v0.686L454.53,375.186z            M456.45,373.772l2.063-0.75c0.066-0.024,0.182-0.051,0.347-0.077v-0.017c-0.15-0.024-0.266-0.05-0.347-0.079l-2.063-0.744           V373.772z" />
            <path fill="#FFFFFF" d="M456.254,377.648v-1.888h0.484v1.888H456.254z" />
            <path fill="#FFFFFF" d="M455.294,378.669c-0.219,0.333-0.328,0.68-0.328,1.042c0,0.341,0.096,0.616,0.288,0.824           c0.19,0.211,0.444,0.316,0.761,0.316c0.317,0,0.563-0.106,0.739-0.321c0.176-0.21,0.263-0.519,0.263-0.923           c0-0.195-0.015-0.457-0.044-0.784h2.522v2.441h-0.556v-1.86h-1.403c0.01,0.188,0.017,0.325,0.017,0.42           c0,0.525-0.132,0.932-0.398,1.226c-0.264,0.291-0.629,0.438-1.096,0.438c-0.48,0-0.869-0.156-1.166-0.469           c-0.298-0.314-0.445-0.748-0.445-1.303c0-0.464,0.068-0.813,0.205-1.047H455.294z" />
            <path fill="#FFFFFF" d="M455.294,382.517c-0.219,0.334-0.328,0.68-0.328,1.041c0,0.343,0.096,0.618,0.288,0.828           c0.19,0.209,0.444,0.313,0.761,0.313c0.317,0,0.563-0.106,0.739-0.319s0.263-0.521,0.263-0.926           c0-0.193-0.015-0.454-0.044-0.782h2.522v2.442h-0.556v-1.86h-1.403c0.01,0.188,0.017,0.326,0.017,0.42           c0,0.523-0.132,0.931-0.398,1.225c-0.264,0.292-0.629,0.438-1.096,0.438c-0.48,0-0.869-0.156-1.166-0.47           c-0.298-0.315-0.445-0.75-0.445-1.303c0-0.463,0.068-0.813,0.205-1.048H455.294z" />
          </g>
          <g>
            <path fill="#FFFFFF" d="M443.661,375.186v-0.709l1.358-0.506v-2.067l-1.358-0.479v-0.707l4.964,1.891v0.686           L443.661,375.186z M445.58,373.772l2.064-0.75c0.066-0.024,0.181-0.051,0.346-0.077v-0.017           c-0.148-0.024-0.265-0.05-0.346-0.079l-2.064-0.744V373.772z" />
            <path fill="#FFFFFF" d="M445.386,377.648v-1.888h0.482v1.888H445.386z" />
            <path fill="#FFFFFF" d="M444.423,378.669c-0.218,0.333-0.326,0.68-0.326,1.042c0,0.341,0.096,0.616,0.286,0.824           c0.191,0.211,0.445,0.316,0.763,0.316c0.316,0,0.564-0.106,0.738-0.321c0.176-0.21,0.264-0.519,0.264-0.923           c0-0.195-0.014-0.457-0.046-0.784h2.523v2.441h-0.555v-1.86h-1.403c0.011,0.188,0.016,0.325,0.016,0.42           c0,0.525-0.133,0.932-0.396,1.226c-0.266,0.291-0.631,0.438-1.098,0.438c-0.481,0-0.868-0.156-1.166-0.469           c-0.296-0.314-0.445-0.748-0.445-1.303c0-0.464,0.069-0.813,0.205-1.047H444.423z" />
            <path fill="#FFFFFF" d="M447.987,385.212c0.132-0.26,0.199-0.528,0.199-0.811c0-0.43-0.188-0.775-0.562-1.035           s-0.886-0.395-1.533-0.396v0.016c0.456,0.234,0.684,0.609,0.684,1.123c0,0.431-0.14,0.772-0.42,1.03           c-0.28,0.257-0.651,0.383-1.115,0.383c-0.484,0-0.883-0.147-1.194-0.443c-0.313-0.294-0.469-0.673-0.469-1.133           c0-0.503,0.197-0.898,0.592-1.187c0.394-0.286,0.953-0.431,1.678-0.431c0.876,0,1.571,0.188,2.088,0.565           c0.516,0.378,0.774,0.873,0.774,1.488c0,0.352-0.05,0.629-0.146,0.83H447.987z M445.285,383.007           c-0.326,0-0.605,0.088-0.839,0.262c-0.232,0.174-0.35,0.405-0.35,0.692c0,0.274,0.1,0.497,0.301,0.668           s0.46,0.257,0.775,0.257c0.343,0,0.608-0.08,0.799-0.242c0.189-0.162,0.284-0.392,0.284-0.688           c0-0.281-0.096-0.511-0.287-0.686C445.775,383.095,445.549,383.007,445.285,383.007z" />
          </g>
          <g>
            <path fill="#FFFFFF" d="M426.638,375.186v-0.709l1.359-0.506v-2.067l-1.359-0.479v-0.707l4.965,1.891v0.686           L426.638,375.186z M428.558,373.772l2.064-0.75c0.065-0.024,0.181-0.051,0.345-0.077v-0.017           c-0.148-0.024-0.264-0.05-0.345-0.079l-2.064-0.744V373.772z" />
            <path fill="#FFFFFF" d="M428.362,377.648v-1.888h0.484v1.888H428.362z" />
            <path fill="#FFFFFF" d="M427.401,378.669c-0.218,0.333-0.327,0.68-0.327,1.042c0,0.341,0.096,0.616,0.286,0.824           c0.191,0.211,0.444,0.316,0.762,0.316c0.318,0,0.564-0.106,0.74-0.321c0.176-0.21,0.263-0.519,0.263-0.923           c0-0.195-0.015-0.457-0.045-0.784h2.522v2.441h-0.556v-1.86h-1.403c0.011,0.188,0.016,0.325,0.016,0.42           c0,0.525-0.132,0.932-0.396,1.226c-0.265,0.291-0.63,0.438-1.096,0.438c-0.48,0-0.87-0.156-1.166-0.469           c-0.298-0.314-0.445-0.748-0.445-1.303c0-0.464,0.067-0.813,0.204-1.047H427.401z" />
            <path fill="#FFFFFF" d="M431.383,385.479l-4.745-1.943v-0.649l4.409,1.845v-2.479h0.556v3.228H431.383z" />
          </g>
          <g>
            <path fill="#FFFFFF" d="M415.974,375.186v-0.709l1.358-0.506v-2.067l-1.358-0.479v-0.707l4.963,1.891v0.686           L415.974,375.186z M417.894,373.772l2.063-0.75c0.067-0.024,0.183-0.051,0.347-0.077v-0.017           c-0.149-0.024-0.265-0.05-0.347-0.079l-2.063-0.744V373.772z" />
            <path fill="#FFFFFF" d="M417.697,377.648v-1.888h0.484v1.888H417.697z" />
            <path fill="#FFFFFF" d="M416.735,378.669c-0.218,0.333-0.326,0.68-0.326,1.042c0,0.341,0.096,0.616,0.287,0.824           c0.19,0.211,0.444,0.316,0.761,0.316c0.319,0,0.565-0.106,0.74-0.321c0.175-0.21,0.264-0.519,0.264-0.923           c0-0.195-0.015-0.457-0.046-0.784h2.521v2.441h-0.554v-1.86h-1.403c0.011,0.188,0.016,0.325,0.016,0.42           c0,0.525-0.133,0.932-0.397,1.226c-0.266,0.291-0.631,0.438-1.097,0.438c-0.479,0-0.868-0.156-1.166-0.469           c-0.296-0.314-0.444-0.748-0.444-1.303c0-0.464,0.067-0.813,0.205-1.047H416.735z" />
            <path fill="#FFFFFF" d="M418.585,383.353c0.276-0.59,0.675-0.887,1.198-0.887c0.366,0,0.662,0.139,0.894,0.416           c0.229,0.278,0.345,0.633,0.345,1.063c0,0.396-0.109,0.721-0.324,0.979c-0.217,0.257-0.495,0.384-0.837,0.384           c-0.551,0-0.976-0.309-1.272-0.926h-0.013c-0.261,0.724-0.705,1.087-1.333,1.087c-0.412,0-0.741-0.15-0.984-0.448           c-0.245-0.297-0.367-0.713-0.367-1.247c0-0.438,0.12-0.796,0.361-1.07c0.242-0.277,0.554-0.415,0.938-0.415           c0.633,0,1.094,0.355,1.382,1.064H418.585z M418.286,383.842c-0.246-0.613-0.602-0.921-1.063-0.921           c-0.24,0-0.436,0.09-0.59,0.269c-0.153,0.181-0.23,0.412-0.23,0.702c0,0.28,0.076,0.508,0.229,0.682           c0.152,0.177,0.344,0.264,0.572,0.264C417.685,384.837,418.046,384.505,418.286,383.842z M419.788,384.674           c0.221,0,0.396-0.07,0.524-0.209s0.192-0.326,0.192-0.563c0-0.225-0.066-0.411-0.201-0.567           c-0.133-0.156-0.303-0.235-0.512-0.235c-0.413,0-0.729,0.261-0.944,0.779C419.068,384.407,419.38,384.674,419.788,384.674z           " />
          </g>
          <g>
            <path fill="#FFFFFF" d="M405.309,375.186v-0.709l1.358-0.506v-2.067l-1.358-0.479v-0.707l4.964,1.891v0.686           L405.309,375.186z M407.229,373.772l2.063-0.75c0.066-0.024,0.181-0.051,0.346-0.077v-0.017           c-0.148-0.024-0.265-0.05-0.346-0.079l-2.063-0.744V373.772z" />
            <path fill="#FFFFFF" d="M407.032,377.648v-1.888h0.483v1.888H407.032z" />
            <path fill="#FFFFFF" d="M406.071,378.669c-0.218,0.333-0.326,0.68-0.326,1.042c0,0.341,0.096,0.616,0.286,0.824           c0.191,0.211,0.445,0.316,0.76,0.316c0.319,0,0.566-0.106,0.742-0.321c0.175-0.21,0.262-0.519,0.262-0.923           c0-0.195-0.014-0.457-0.044-0.784h2.521v2.441h-0.554v-1.86h-1.404c0.011,0.188,0.016,0.325,0.016,0.42           c0,0.525-0.132,0.932-0.396,1.226c-0.266,0.291-0.631,0.438-1.097,0.438c-0.481,0-0.869-0.156-1.166-0.469           c-0.297-0.314-0.446-0.748-0.446-1.303c0-0.464,0.069-0.813,0.206-1.047H406.071z" />
            <path fill="#FFFFFF" d="M405.982,382.544c-0.159,0.271-0.237,0.567-0.237,0.883c0,0.443,0.174,0.79,0.524,1.034           c0.35,0.244,0.849,0.366,1.493,0.366c-0.004-0.004-0.004-0.01,0-0.012c-0.414-0.219-0.62-0.586-0.62-1.101           c0-0.416,0.143-0.76,0.429-1.034c0.286-0.273,0.657-0.41,1.114-0.41c0.487,0,0.888,0.149,1.2,0.448           c0.313,0.298,0.469,0.687,0.469,1.164c0,0.493-0.193,0.878-0.58,1.156c-0.389,0.278-0.952,0.416-1.693,0.416           c-0.917,0-1.622-0.18-2.114-0.537c-0.495-0.359-0.742-0.855-0.742-1.491c0-0.349,0.058-0.643,0.17-0.883H405.982z            M408.767,382.904c-0.334,0-0.598,0.084-0.793,0.256s-0.293,0.407-0.293,0.709c0,0.261,0.088,0.479,0.268,0.657           c0.178,0.177,0.394,0.266,0.647,0.266c0.357,0,0.652-0.089,0.886-0.265c0.236-0.176,0.353-0.407,0.353-0.698           c0-0.266-0.102-0.487-0.304-0.661C409.325,382.992,409.071,382.904,408.767,382.904z" />
          </g>
          <g>
            <path fill="#FFFFFF" d="M389.106,375.186v-0.709l1.358-0.506v-2.067l-1.358-0.479v-0.707l4.963,1.891v0.686           L389.106,375.186z M391.026,373.772l2.063-0.75c0.065-0.024,0.182-0.051,0.346-0.077v-0.017           c-0.149-0.024-0.265-0.05-0.346-0.079l-2.063-0.744V373.772z" />
            <path fill="#FFFFFF" d="M390.83,377.648v-1.888h0.484v1.888H390.83z" />
            <path fill="#FFFFFF" d="M393.433,381.363c0.133-0.258,0.198-0.53,0.198-0.811c0-0.43-0.187-0.774-0.562-1.036           c-0.374-0.261-0.883-0.393-1.53-0.396v0.016c0.455,0.235,0.683,0.61,0.683,1.125c0,0.43-0.141,0.773-0.42,1.029           c-0.28,0.256-0.652,0.385-1.115,0.385c-0.485,0-0.885-0.147-1.195-0.443c-0.313-0.297-0.468-0.676-0.468-1.133           c0-0.505,0.197-0.901,0.591-1.188c0.394-0.288,0.953-0.431,1.677-0.431c0.877,0,1.572,0.188,2.088,0.565           c0.518,0.375,0.775,0.872,0.775,1.488c0,0.354-0.048,0.629-0.146,0.83H393.433z M390.731,379.158           c-0.327,0-0.607,0.087-0.84,0.261c-0.233,0.176-0.35,0.405-0.35,0.695c0,0.272,0.101,0.495,0.301,0.666           c0.201,0.17,0.459,0.256,0.775,0.256c0.343,0,0.607-0.081,0.799-0.241c0.189-0.162,0.285-0.39,0.285-0.688           c0-0.283-0.097-0.512-0.289-0.688C391.221,379.247,390.995,379.158,390.731,379.158z" />
            <path fill="#FFFFFF" d="M391.491,382.241c0.875,0,1.538,0.146,1.988,0.437c0.448,0.289,0.675,0.71,0.675,1.262           c0,1.051-0.849,1.576-2.545,1.576c-0.838,0-1.479-0.147-1.922-0.442c-0.443-0.297-0.664-0.712-0.664-1.246           c0-0.503,0.21-0.896,0.63-1.17C390.074,382.379,390.687,382.241,391.491,382.241z M391.519,382.882           c-1.317,0-1.977,0.336-1.977,1.005c0,0.656,0.67,0.986,2.009,0.986c1.387,0,2.08-0.324,2.08-0.969           C393.631,383.224,392.927,382.882,391.519,382.882z" />
          </g>
          <g>
            <path fill="#FFFFFF" d="M378.237,375.186v-0.709l1.358-0.506v-2.067l-1.358-0.479v-0.707l4.964,1.891v0.686           L378.237,375.186z M380.155,373.772l2.063-0.75c0.066-0.024,0.183-0.051,0.348-0.077v-0.017           c-0.15-0.024-0.267-0.05-0.348-0.079l-2.063-0.744V373.772z" />
            <path fill="#FFFFFF" d="M379.961,377.648v-1.888h0.483v1.888H379.961z" />
            <path fill="#FFFFFF" d="M382.563,381.363c0.133-0.258,0.198-0.53,0.198-0.811c0-0.43-0.187-0.774-0.56-1.036           c-0.374-0.261-0.885-0.393-1.532-0.396v0.016c0.454,0.235,0.683,0.61,0.683,1.125c0,0.43-0.141,0.773-0.42,1.029           s-0.651,0.385-1.115,0.385c-0.484,0-0.884-0.147-1.195-0.443c-0.312-0.297-0.468-0.676-0.468-1.133           c0-0.505,0.197-0.901,0.592-1.188c0.395-0.288,0.953-0.431,1.678-0.431c0.876,0,1.571,0.188,2.088,0.565           c0.515,0.375,0.772,0.872,0.772,1.488c0,0.354-0.048,0.629-0.144,0.83H382.563z M379.861,379.158           c-0.326,0-0.607,0.087-0.84,0.261c-0.233,0.176-0.35,0.405-0.35,0.695c0,0.272,0.101,0.495,0.302,0.666           c0.2,0.17,0.46,0.256,0.775,0.256c0.342,0,0.608-0.081,0.798-0.241c0.19-0.162,0.286-0.39,0.286-0.688           c0-0.283-0.097-0.512-0.289-0.688C380.352,379.247,380.124,379.158,379.861,379.158z" />
            <path fill="#FFFFFF" d="M378.237,385.4v-2.845h0.541v1.111h3.769l-0.33-1.141h0.577l0.512,1.766h-4.527v1.108H378.237z" />
          </g>
          <g>
            <path fill="#FFFFFF" d="M367.571,375.186v-0.709l1.36-0.506v-2.067l-1.36-0.479v-0.707l4.965,1.891v0.686L367.571,375.186z            M369.491,373.772l2.063-0.75c0.066-0.024,0.182-0.051,0.348-0.077v-0.017c-0.151-0.024-0.267-0.05-0.348-0.079           l-2.063-0.744V373.772z" />
            <path fill="#FFFFFF" d="M369.295,377.648v-1.888h0.484v1.888H369.295z" />
            <path fill="#FFFFFF" d="M371.898,381.363c0.132-0.258,0.198-0.53,0.198-0.811c0-0.43-0.188-0.774-0.562-1.036           c-0.373-0.261-0.884-0.393-1.531-0.396v0.016c0.455,0.235,0.683,0.61,0.683,1.125c0,0.43-0.14,0.773-0.42,1.029           s-0.652,0.385-1.115,0.385c-0.485,0-0.883-0.147-1.195-0.443c-0.312-0.297-0.468-0.676-0.468-1.133           c0-0.505,0.197-0.901,0.591-1.188c0.395-0.288,0.954-0.431,1.679-0.431c0.875,0,1.572,0.188,2.087,0.565           c0.516,0.375,0.774,0.872,0.774,1.488c0,0.354-0.048,0.629-0.145,0.83H371.898z M369.196,379.158           c-0.327,0-0.606,0.087-0.84,0.261c-0.232,0.176-0.35,0.405-0.35,0.695c0,0.272,0.101,0.495,0.302,0.666           c0.201,0.17,0.459,0.256,0.776,0.256c0.341,0,0.607-0.081,0.797-0.241c0.19-0.162,0.285-0.39,0.285-0.688           c0-0.283-0.097-0.512-0.287-0.688C369.686,379.247,369.46,379.158,369.196,379.158z" />
            <path fill="#FFFFFF" d="M367.571,385.308v-3.02h0.546l1.438,1.443c0.397,0.398,0.712,0.664,0.943,0.799           c0.232,0.134,0.472,0.2,0.72,0.2c0.281,0,0.498-0.078,0.649-0.235c0.148-0.159,0.225-0.388,0.225-0.688           c0-0.441-0.188-0.863-0.563-1.264h0.638c0.303,0.391,0.452,0.844,0.452,1.364c0,0.446-0.121,0.8-0.362,1.057           c-0.241,0.259-0.566,0.388-0.975,0.388c-0.307,0-0.609-0.081-0.904-0.248c-0.297-0.165-0.673-0.478-1.13-0.94l-1.105-1.131           h-0.014v2.274H367.571z" />
          </g>
        </g>
      </g>
    </g>
    <g>
      <rect x="441.9" y="387.985" fill="#FBC600" width="8.443" height="0.451" />
      <rect x="452.711" y="387.985" fill="#FBC600" width="8.444" height="0.451" />
      <rect x="463.521" y="387.985" fill="#FBC600" width="8.444" height="0.451" />
      <rect x="479.748" y="387.985" fill="#FBC600" width="8.444" height="0.451" />
      <rect x="490.557" y="387.985" fill="#FBC600" width="8.446" height="0.451" />
      <rect x="501.37" y="387.985" fill="#FBC600" width="8.444" height="0.451" />
      <rect x="365.752" y="387.985" fill="#FBC600" width="8.444" height="0.451" />
      <rect x="376.563" y="387.985" fill="#FBC600" width="8.445" height="0.451" />
      <rect x="387.376" y="387.985" fill="#FBC600" width="8.445" height="0.451" />
      <rect x="403.433" y="387.985" fill="#FBC600" width="8.445" height="0.451" />
      <rect x="414.244" y="387.985" fill="#FBC600" width="8.444" height="0.451" />
      <rect x="425.055" y="387.985" fill="#FBC600" width="8.445" height="0.451" />
      <rect x="415.912" y="387.985" fill="#8DC21F" width="1.728" height="0.451" />
      <rect x="419.313" y="387.985" fill="#8DC21F" width="1.702" height="0.451" />
      <rect x="405.101" y="387.985" fill="#8DC21F" width="1.728" height="0.451" />
      <rect x="408.503" y="387.985" fill="#8DC21F" width="1.701" height="0.451" />
      <rect x="389.044" y="387.985" fill="#8DC21F" width="1.728" height="0.451" />
      <rect x="392.445" y="387.985" fill="#8DC21F" width="1.7" height="0.451" />
      <rect x="378.232" y="387.985" fill="#8DC21F" width="1.729" height="0.451" />
      <rect x="381.635" y="387.985" fill="#8DC21F" width="1.7" height="0.451" />
      <rect x="367.422" y="387.985" fill="#8DC21F" width="1.727" height="0.451" />
      <rect x="370.823" y="387.985" fill="#8DC21F" width="1.7" height="0.451" />
      <rect x="503.038" y="387.985" fill="#8DC21F" width="1.729" height="0.451" />
      <rect x="506.44" y="387.985" fill="#8DC21F" width="1.7" height="0.451" />
      <rect x="492.227" y="387.985" fill="#8DC21F" width="1.729" height="0.451" />
      <rect x="495.628" y="387.985" fill="#8DC21F" width="1.7" height="0.451" />
      <rect x="481.416" y="387.985" fill="#8DC21F" width="1.728" height="0.451" />
      <rect x="484.817" y="387.985" fill="#8DC21F" width="1.701" height="0.451" />
      <rect x="465.191" y="387.985" fill="#8DC21F" width="1.727" height="0.451" />
      <rect x="468.593" y="387.985" fill="#8DC21F" width="1.7" height="0.451" />
      <rect x="454.38" y="387.985" fill="#8DC21F" width="1.729" height="0.451" />
      <rect x="457.781" y="387.985" fill="#8DC21F" width="1.701" height="0.451" />
      <rect x="443.567" y="387.985" fill="#8DC21F" width="1.73" height="0.451" />
      <rect x="446.971" y="387.985" fill="#8DC21F" width="1.7" height="0.451" />
      <rect x="426.723" y="387.985" fill="#8DC21F" width="1.729" height="0.451" />
      <rect x="430.125" y="387.985" fill="#8DC21F" width="1.699" height="0.451" />
</svg>
