<!DOCTYPE svg PUBLIC "-//W3C//DTD SVG 1.1//EN" "http://www.w3.org/Graphics/SVG/1.1/DTD/svg11.dtd">
<svg xmlns="http://www.w3.org/2000/svg" xmlns:xlink="http://www.w3.org/1999/xlink" version="1.1" id="图层_1" x="0px" y="0px" width="1028px" height="680px" viewBox="0 0 1028 680" enable-background="new 0 0 1028 680" xml:space="preserve" xmlns:xml="http://www.w3.org/XML/1998/namespace">
    <g>
      <rect x="281.432" y="314.664" fill="#F6AA00" width="78.735" height="25.438" />
      <g>
        <rect x="321.074" y="333.311" fill="none" stroke="#FFFFFF" stroke-width="1.8725" width="5.088" height="5.089" />
        <rect x="282.917" y="333.311" fill="none" stroke="#FFFFFF" stroke-width="1.8725" width="5.089" height="5.089" />
        <path fill="none" stroke="#FFFFFF" stroke-width="0.9362" stroke-linecap="round" stroke-linejoin="round" d="         M336.917,336.412c0,0.522,0.217,0.736,0.738,0.736" />
        <path fill="none" stroke="#FFFFFF" stroke-width="0.9362" stroke-linecap="round" stroke-linejoin="round" d="         M337.663,337.148c0.521,0,0.738-0.214,0.738-0.736" />
        <path fill="none" stroke="#FFFFFF" stroke-width="0.9362" stroke-linecap="round" stroke-linejoin="round" d="         M347.729,336.412c0,0.522,0.217,0.736,0.737,0.736" />
        <path fill="none" stroke="#FFFFFF" stroke-width="0.9362" stroke-linecap="round" stroke-linejoin="round" d="         M348.476,337.148c0.521,0,0.737-0.214,0.737-0.736" />

        <line fill="none" stroke="#FFFFFF" stroke-width="0.9362" stroke-linecap="round" stroke-linejoin="round" x1="336.917" y1="314.679" x2="336.917" y2="336.412" />

        <line fill="none" stroke="#FFFFFF" stroke-width="0.9362" stroke-linecap="round" stroke-linejoin="round" x1="338.401" y1="314.679" x2="338.401" y2="336.412" />

        <line fill="none" stroke="#FFFFFF" stroke-width="0.9362" stroke-linecap="round" stroke-linejoin="round" x1="347.729" y1="314.679" x2="347.729" y2="336.412" />

        <line fill="none" stroke="#FFFFFF" stroke-width="0.9362" stroke-linecap="round" stroke-linejoin="round" x1="349.213" y1="314.679" x2="349.213" y2="336.412" />

        <line fill="none" stroke="#FFFFFF" stroke-width="0.9362" stroke-linecap="round" stroke-linejoin="round" x1="358.539" y1="314.679" x2="358.539" y2="337.148" />
        <path fill="none" stroke="#FFFFFF" stroke-width="0.9362" stroke-linecap="round" stroke-linejoin="round" d="         M298.76,336.376c0,0.522,0.216,0.737,0.737,0.737" />
        <path fill="none" stroke="#FFFFFF" stroke-width="0.9362" stroke-linecap="round" stroke-linejoin="round" d="         M299.506,337.113c0.522,0,0.739-0.215,0.739-0.737" />
        <path fill="none" stroke="#FFFFFF" stroke-width="0.9362" stroke-linecap="round" stroke-linejoin="round" d="         M309.571,336.376c0,0.522,0.218,0.737,0.737,0.737" />
        <path fill="none" stroke="#FFFFFF" stroke-width="0.9362" stroke-linecap="round" stroke-linejoin="round" d="         M310.317,337.113c0.521,0,0.738-0.215,0.738-0.737" />

        <line fill="none" stroke="#FFFFFF" stroke-width="0.9362" stroke-linecap="round" stroke-linejoin="round" x1="298.76" y1="314.644" x2="298.76" y2="336.376" />

        <line fill="none" stroke="#FFFFFF" stroke-width="0.9362" stroke-linecap="round" stroke-linejoin="round" x1="300.245" y1="314.644" x2="300.245" y2="336.376" />

        <line fill="none" stroke="#FFFFFF" stroke-width="0.9362" stroke-linecap="round" stroke-linejoin="round" x1="309.571" y1="314.644" x2="309.571" y2="336.376" />

        <line fill="none" stroke="#FFFFFF" stroke-width="0.9362" stroke-linecap="round" stroke-linejoin="round" x1="311.056" y1="314.644" x2="311.056" y2="336.376" />

        <line fill="none" stroke="#FFFFFF" stroke-width="0.9362" stroke-linecap="round" stroke-linejoin="round" x1="289.433" y1="314.644" x2="289.433" y2="337.113" />

        <line fill="none" stroke="#FFFFFF" stroke-width="0.9362" stroke-linecap="round" stroke-linejoin="round" x1="320.383" y1="314.644" x2="320.383" y2="337.113" />

        <line fill="none" stroke="#FFFFFF" stroke-width="0.9362" stroke-linecap="round" stroke-linejoin="round" x1="327.59" y1="314.679" x2="327.59" y2="337.148" />
        <g>
          <path fill="#FFFFFF" d="M313.241,322.575h4.963v1.459c0,0.437-0.104,0.783-0.313,1.044c-0.208,0.26-0.483,0.392-0.828,0.392          c-0.273,0-0.516-0.079-0.724-0.233c-0.21-0.155-0.359-0.368-0.446-0.638h-0.013c-0.038,0.338-0.166,0.607-0.383,0.808          c-0.217,0.202-0.492,0.303-0.825,0.303c-0.427,0-0.772-0.153-1.036-0.46c-0.265-0.306-0.396-0.699-0.396-1.178V322.575z           M315.532,323.216h-1.731v0.77c0,0.335,0.078,0.594,0.232,0.777c0.155,0.184,0.37,0.273,0.646,0.273          c0.568,0,0.853-0.384,0.853-1.157V323.216z M317.645,323.216h-1.555v0.583c0,0.31,0.075,0.555,0.226,0.729          c0.15,0.177,0.359,0.264,0.626,0.264c0.468,0,0.703-0.311,0.703-0.935V323.216z" />
          <path fill="#FFFFFF" d="M314.965,328.439v-1.886h0.483v1.886H314.965z" />
          <path fill="#FFFFFF" d="M315.625,329.184c0.875,0,1.539,0.146,1.989,0.437c0.448,0.289,0.673,0.71,0.673,1.262          c0,1.051-0.848,1.576-2.543,1.576c-0.839,0-1.479-0.148-1.923-0.443c-0.442-0.296-0.664-0.711-0.664-1.246          c0-0.503,0.21-0.894,0.631-1.169C314.21,329.321,314.82,329.184,315.625,329.184z M315.654,329.824          c-1.318,0-1.978,0.334-1.978,1.003c0,0.658,0.67,0.988,2.009,0.988c1.388,0,2.079-0.324,2.079-0.969          C317.765,330.165,317.061,329.824,315.654,329.824z" />
          <path fill="#FFFFFF" d="M314.529,336.356v-0.635h-1.288v-0.61h1.288v-2.313h0.406l3.269,2.195v0.729h-3.179v0.635H314.529z           M315.025,335.111h2.08c0.146,0,0.317,0.005,0.51,0.013v-0.013c-0.081-0.03-0.208-0.093-0.381-0.189l-2.209-1.478V335.111z" />
        </g>
        <g>
          <path fill="#FFFFFF" d="M351.593,323.191h4.964v1.458c0,0.435-0.104,0.784-0.313,1.044c-0.208,0.26-0.482,0.391-0.827,0.391          c-0.273,0-0.516-0.077-0.725-0.232c-0.209-0.154-0.356-0.367-0.445-0.639h-0.013c-0.038,0.337-0.166,0.606-0.383,0.809          c-0.217,0.203-0.491,0.304-0.825,0.304c-0.428,0-0.772-0.152-1.037-0.46c-0.263-0.306-0.396-0.699-0.396-1.179V323.191z           M353.885,323.832h-1.731v0.77c0,0.335,0.078,0.595,0.232,0.776c0.155,0.183,0.37,0.274,0.646,0.274          c0.568,0,0.853-0.385,0.853-1.157V323.832z M355.997,323.832h-1.555v0.583c0,0.31,0.075,0.553,0.225,0.729          c0.151,0.175,0.36,0.265,0.627,0.265c0.468,0,0.703-0.313,0.703-0.937V323.832z" />
          <path fill="#FFFFFF" d="M353.317,329.055v-1.888h0.483v1.888H353.317z" />
          <path fill="#FFFFFF" d="M353.977,329.799c0.877,0,1.54,0.144,1.988,0.436c0.45,0.291,0.675,0.713,0.675,1.263          c0,1.05-0.848,1.577-2.545,1.577c-0.837,0-1.477-0.148-1.921-0.444c-0.442-0.296-0.664-0.711-0.664-1.245          c0-0.505,0.211-0.896,0.631-1.171C352.563,329.938,353.173,329.799,353.977,329.799z M354.006,330.44          c-1.317,0-1.977,0.333-1.977,1.002c0,0.658,0.67,0.986,2.009,0.986c1.387,0,2.081-0.322,2.081-0.967          C356.119,330.78,355.413,330.44,354.006,330.44z" />
          <path fill="#FFFFFF" d="M351.593,336.807v-2.846h0.541v1.113h3.77l-0.33-1.142h0.577l0.512,1.767h-4.528v1.107H351.593z" />
        </g>
        <g>
          <path fill="#FFFFFF" d="M340.383,323.191h4.963v1.458c0,0.435-0.104,0.784-0.312,1.044c-0.21,0.26-0.485,0.391-0.829,0.391          c-0.273,0-0.516-0.077-0.725-0.232c-0.209-0.154-0.358-0.367-0.445-0.639h-0.013c-0.039,0.337-0.167,0.606-0.383,0.809          c-0.218,0.203-0.492,0.304-0.826,0.304c-0.427,0-0.771-0.152-1.035-0.46c-0.265-0.306-0.396-0.699-0.396-1.179V323.191z           M342.673,323.832h-1.73v0.77c0,0.335,0.078,0.595,0.232,0.776c0.155,0.183,0.37,0.274,0.646,0.274          c0.567,0,0.852-0.385,0.852-1.157V323.832z M344.784,323.832h-1.554v0.583c0,0.31,0.076,0.553,0.228,0.729          c0.149,0.175,0.357,0.265,0.625,0.265c0.468,0,0.701-0.313,0.701-0.937V323.832z" />
          <path fill="#FFFFFF" d="M342.106,329.055v-1.888h0.482v1.888H342.106z" />
          <path fill="#FFFFFF" d="M342.766,329.799c0.877,0,1.539,0.144,1.988,0.436c0.45,0.291,0.676,0.713,0.676,1.263          c0,1.05-0.85,1.577-2.544,1.577c-0.839,0-1.479-0.148-1.923-0.444c-0.442-0.296-0.665-0.711-0.665-1.245          c0-0.505,0.211-0.896,0.632-1.171S341.963,329.799,342.766,329.799z M342.795,330.44c-1.318,0-1.977,0.333-1.977,1.002          c0,0.658,0.669,0.986,2.009,0.986c1.385,0,2.079-0.322,2.079-0.967C344.906,330.78,344.203,330.44,342.795,330.44z" />
          <path fill="#FFFFFF" d="M340.383,336.716v-3.02h0.543l1.44,1.44c0.397,0.397,0.712,0.664,0.942,0.799          c0.232,0.134,0.472,0.203,0.72,0.203c0.282,0,0.499-0.08,0.648-0.238c0.151-0.16,0.227-0.386,0.227-0.686          c0-0.443-0.188-0.865-0.563-1.266h0.637c0.302,0.391,0.453,0.847,0.453,1.364c0,0.446-0.121,0.8-0.363,1.056          c-0.241,0.262-0.566,0.39-0.974,0.39c-0.309,0-0.609-0.083-0.905-0.249c-0.296-0.164-0.672-0.478-1.131-0.938l-1.104-1.132          h-0.013v2.276H340.383z" />
        </g>
        <g>
          <path fill="#FFFFFF" d="M329.785,322.782h4.963v1.457c0,0.435-0.104,0.784-0.312,1.044s-0.484,0.391-0.829,0.391          c-0.273,0-0.514-0.077-0.724-0.23c-0.209-0.156-0.357-0.369-0.444-0.641h-0.014c-0.037,0.337-0.166,0.606-0.384,0.81          c-0.216,0.202-0.492,0.303-0.824,0.303c-0.428,0-0.773-0.152-1.037-0.46c-0.264-0.306-0.396-0.699-0.396-1.178V322.782z           M332.076,323.423h-1.729v0.769c0,0.333,0.076,0.595,0.23,0.776c0.156,0.183,0.372,0.274,0.647,0.274          c0.567,0,0.852-0.386,0.852-1.157V323.423z M334.188,323.423h-1.554v0.582c0,0.31,0.074,0.553,0.226,0.729          c0.149,0.177,0.359,0.265,0.626,0.265c0.467,0,0.702-0.313,0.702-0.938V323.423z" />
          <path fill="#FFFFFF" d="M331.509,328.645v-1.888h0.484v1.888H331.509z" />
          <path fill="#FFFFFF" d="M332.169,329.389c0.876,0,1.539,0.146,1.989,0.436c0.448,0.29,0.675,0.713,0.675,1.263          c0,1.05-0.848,1.576-2.545,1.576c-0.837,0-1.479-0.147-1.922-0.443s-0.665-0.712-0.665-1.245          c0-0.505,0.211-0.894,0.632-1.172C330.754,329.528,331.366,329.389,332.169,329.389z M332.198,330.027          c-1.318,0-1.977,0.337-1.977,1.004c0,0.659,0.669,0.988,2.008,0.988c1.388,0,2.081-0.323,2.081-0.968          C334.311,330.37,333.606,330.027,332.198,330.027z" />
          <path fill="#FFFFFF" d="M330.615,333.402c-0.263,0.34-0.394,0.725-0.394,1.152c0,0.342,0.082,0.612,0.251,0.811          c0.168,0.2,0.393,0.302,0.675,0.302c0.628,0,0.942-0.449,0.942-1.351v-0.412h0.519v0.394c0,0.797,0.294,1.194,0.884,1.194          c0.546,0,0.818-0.302,0.818-0.913c0-0.347-0.117-0.675-0.354-0.983h0.593c0.188,0.325,0.283,0.705,0.283,1.139          c0,0.423-0.111,0.762-0.331,1.019c-0.222,0.256-0.51,0.386-0.861,0.386c-0.65,0-1.067-0.332-1.252-0.994h-0.014          c-0.039,0.359-0.166,0.642-0.381,0.852c-0.214,0.207-0.481,0.311-0.802,0.311c-0.447,0-0.808-0.159-1.081-0.482          c-0.273-0.32-0.41-0.749-0.41-1.282c0-0.471,0.089-0.851,0.265-1.14H330.615z" />
        </g>
        <g>
          <path fill="#FFFFFF" d="M302.304,322.575h4.963v1.459c0,0.437-0.104,0.783-0.313,1.044c-0.208,0.26-0.483,0.392-0.827,0.392          c-0.273,0-0.516-0.079-0.724-0.233c-0.21-0.155-0.359-0.368-0.446-0.638h-0.013c-0.038,0.338-0.166,0.607-0.383,0.808          c-0.218,0.202-0.492,0.303-0.826,0.303c-0.427,0-0.771-0.153-1.035-0.46c-0.264-0.306-0.396-0.699-0.396-1.178V322.575z           M304.595,323.216h-1.731v0.77c0,0.335,0.076,0.594,0.232,0.777c0.155,0.184,0.37,0.273,0.646,0.273          c0.568,0,0.853-0.384,0.853-1.157V323.216z M306.705,323.216h-1.554v0.583c0,0.31,0.076,0.555,0.226,0.729          c0.151,0.177,0.36,0.264,0.627,0.264c0.468,0,0.701-0.311,0.701-0.935V323.216z" />
          <path fill="#FFFFFF" d="M304.027,328.439v-1.886h0.482v1.886H304.027z" />
          <path fill="#FFFFFF" d="M304.687,329.184c0.876,0,1.539,0.146,1.988,0.437c0.449,0.289,0.676,0.71,0.676,1.262          c0,1.051-0.849,1.576-2.546,1.576c-0.837,0-1.478-0.148-1.921-0.443c-0.442-0.296-0.665-0.711-0.665-1.246          c0-0.503,0.211-0.894,0.632-1.169C303.271,329.321,303.884,329.184,304.687,329.184z M304.717,329.824          c-1.319,0-1.979,0.334-1.979,1.003c0,0.658,0.67,0.988,2.009,0.988c1.388,0,2.08-0.324,2.08-0.969          C306.827,330.165,306.124,329.824,304.717,329.824z" />
          <path fill="#FFFFFF" d="M303.065,333.308c-0.218,0.333-0.327,0.682-0.327,1.041c0,0.342,0.097,0.616,0.286,0.828          c0.191,0.208,0.446,0.313,0.762,0.313c0.318,0,0.565-0.106,0.739-0.318c0.177-0.213,0.264-0.521,0.264-0.925          c0-0.195-0.015-0.458-0.045-0.785h2.522v2.44h-0.554v-1.857h-1.404c0.011,0.185,0.017,0.325,0.017,0.42          c0,0.523-0.133,0.931-0.398,1.224c-0.265,0.293-0.63,0.439-1.096,0.439c-0.481,0-0.869-0.157-1.166-0.472          c-0.298-0.313-0.446-0.747-0.446-1.301c0-0.463,0.069-0.813,0.206-1.048H303.065z" />
        </g>
        <g>
          <path fill="#FFFFFF" d="M291.365,322.575h4.963v1.459c0,0.437-0.103,0.783-0.313,1.044c-0.208,0.26-0.483,0.392-0.828,0.392          c-0.272,0-0.515-0.079-0.724-0.233c-0.21-0.155-0.358-0.368-0.446-0.638h-0.012c-0.039,0.338-0.167,0.607-0.384,0.808          c-0.217,0.202-0.492,0.303-0.825,0.303c-0.427,0-0.772-0.153-1.035-0.46c-0.265-0.306-0.396-0.699-0.396-1.178V322.575z           M293.656,323.216h-1.731v0.77c0,0.335,0.077,0.594,0.233,0.777c0.153,0.184,0.37,0.273,0.646,0.273          c0.567,0,0.852-0.384,0.852-1.157V323.216z M295.768,323.216h-1.553v0.583c0,0.31,0.073,0.555,0.225,0.729          c0.151,0.177,0.358,0.264,0.627,0.264c0.468,0,0.701-0.311,0.701-0.935V323.216z" />
          <path fill="#FFFFFF" d="M293.089,328.439v-1.886h0.483v1.886H293.089z" />
          <path fill="#FFFFFF" d="M293.749,329.184c0.876,0,1.539,0.146,1.988,0.437c0.45,0.289,0.676,0.71,0.676,1.262          c0,1.051-0.85,1.576-2.546,1.576c-0.837,0-1.478-0.148-1.921-0.443c-0.443-0.296-0.665-0.711-0.665-1.246          c0-0.503,0.211-0.894,0.632-1.169C292.334,329.321,292.946,329.184,293.749,329.184z M293.777,329.824          c-1.317,0-1.977,0.334-1.977,1.003c0,0.658,0.67,0.988,2.009,0.988c1.388,0,2.079-0.324,2.079-0.969          C295.889,330.165,295.185,329.824,293.777,329.824z" />
          <path fill="#FFFFFF" d="M295.69,336.003c0.133-0.259,0.198-0.528,0.198-0.811c0-0.43-0.187-0.775-0.56-1.035          c-0.374-0.262-0.885-0.394-1.533-0.398v0.018c0.456,0.234,0.684,0.609,0.684,1.123c0,0.431-0.141,0.773-0.42,1.028          c-0.28,0.257-0.651,0.385-1.116,0.385c-0.483,0-0.883-0.146-1.193-0.443c-0.313-0.296-0.469-0.673-0.469-1.133          c0-0.503,0.197-0.899,0.592-1.188c0.395-0.285,0.953-0.431,1.678-0.431c0.876,0,1.572,0.188,2.087,0.567          c0.516,0.376,0.775,0.872,0.775,1.486c0,0.354-0.049,0.631-0.146,0.831H295.69z M292.989,333.798          c-0.326,0-0.607,0.087-0.839,0.263c-0.232,0.173-0.35,0.404-0.35,0.691c0,0.275,0.1,0.496,0.301,0.667          c0.201,0.172,0.461,0.256,0.775,0.256c0.342,0,0.608-0.079,0.798-0.241c0.191-0.161,0.285-0.39,0.285-0.688          c0-0.281-0.096-0.511-0.288-0.685C293.479,333.885,293.252,333.798,292.989,333.798z" />
        </g>
      </g>
    </g>
    <g>
      <rect x="289.858" y="319.296" fill="#FBC600" width="8.443" height="0.452" />
      <rect x="300.671" y="319.296" fill="#FBC600" width="8.444" height="0.452" />
      <rect x="311.481" y="319.296" fill="#FBC600" width="8.445" height="0.452" />
      <rect x="349.638" y="319.332" fill="#FBC600" width="8.444" height="0.451" />
      <rect x="338.826" y="319.332" fill="#FBC600" width="8.445" height="0.451" />
      <rect x="328.071" y="319.309" fill="#FBC600" width="8.445" height="0.453" />
      <rect x="329.74" y="319.309" fill="#8DC21F" width="1.729" height="0.453" />
      <rect x="333.142" y="319.309" fill="#8DC21F" width="1.701" height="0.453" />
      <rect x="340.495" y="319.332" fill="#8DC21F" width="1.728" height="0.451" />
      <rect x="343.896" y="319.332" fill="#8DC21F" width="1.702" height="0.451" />
      <rect x="351.306" y="319.332" fill="#8DC21F" width="1.729" height="0.451" />
      <rect x="354.708" y="319.332" fill="#8DC21F" width="1.701" height="0.451" />
      <rect x="313.147" y="319.296" fill="#8DC21F" width="1.729" height="0.452" />
      <rect x="316.551" y="319.296" fill="#8DC21F" width="1.7" height="0.452" />
      <rect x="302.338" y="319.296" fill="#8DC21F" width="1.729" height="0.452" />
      <rect x="305.74" y="319.296" fill="#8DC21F" width="1.699" height="0.452" />
      <rect x="291.527" y="319.296" fill="#8DC21F" width="1.727" height="0.452" />
      <rect x="294.929" y="319.296" fill="#8DC21F" width="1.7" height="0.452" />
    </g>
</svg>
