<!DOCTYPE svg PUBLIC "-//W3C//DTD SVG 1.1//EN" "http://www.w3.org/Graphics/SVG/1.1/DTD/svg11.dtd">
<svg xmlns="http://www.w3.org/2000/svg" xmlns:xlink="http://www.w3.org/1999/xlink" version="1.1" id="图层_1" x="0px" y="0px" width="1028px" height="680px" viewBox="0 0 1028 680" enable-background="new 0 0 1028 680" xml:space="preserve" xmlns:xml="http://www.w3.org/XML/1998/namespace">
    <g>
      <path fill="#F6AA00" d="M358.906,418.952c-13.296,0-26.591,0-39.884,0c-2.791,0-5.053-2.277-5.053-5.086        c0-13.567,0-27.135,0-40.702c0-2.809,2.263-5.088,5.053-5.088c13.659,0,27.319,0,40.978,0l0.083,51.441L358.906,418.952z" />
      <g>

        <line fill="none" stroke="#FFFFFF" stroke-width="0.9362" stroke-linecap="round" stroke-linejoin="round" x1="357.643" y1="393.938" x2="357.643" y2="416.409" />

        <line fill="none" stroke="#FFFFFF" stroke-width="0.9362" stroke-linecap="round" stroke-linejoin="round" x1="357.643" y1="393.938" x2="357.643" y2="371.468" />
        <g>
          <rect x="321.074" y="409.626" fill="none" stroke="#FFFFFF" stroke-width="1.8725" width="5.088" height="5.088" />
          <rect x="321.074" y="371.468" fill="none" stroke="#FFFFFF" stroke-width="1.8725" width="5.088" height="5.088" />
          <path fill="none" stroke="#FFFFFF" stroke-width="0.9362" stroke-linecap="round" stroke-linejoin="round" d="          M336.766,416.409c0.521,0,0.737-0.218,0.737-0.737" />
          <path fill="none" stroke="#FFFFFF" stroke-width="0.9362" stroke-linecap="round" stroke-linejoin="round" d="          M346.831,415.672c0,0.52,0.217,0.737,0.737,0.737" />
          <path fill="none" stroke="#FFFFFF" stroke-width="0.9362" stroke-linecap="round" stroke-linejoin="round" d="          M347.577,416.409c0.521,0,0.737-0.218,0.737-0.737" />

          <line fill="none" stroke="#FFFFFF" stroke-width="0.9362" stroke-linecap="round" stroke-linejoin="round" x1="326.692" y1="393.938" x2="326.692" y2="416.409" />

          <line fill="none" stroke="#FFFFFF" stroke-width="0.9362" stroke-linecap="round" stroke-linejoin="round" x1="336.02" y1="393.938" x2="336.02" y2="415.672" />

          <line fill="none" stroke="#FFFFFF" stroke-width="0.9362" stroke-linecap="round" stroke-linejoin="round" x1="337.503" y1="393.938" x2="337.503" y2="415.672" />

          <line fill="none" stroke="#FFFFFF" stroke-width="0.9362" stroke-linecap="round" stroke-linejoin="round" x1="346.831" y1="393.938" x2="346.831" y2="415.672" />

          <line fill="none" stroke="#FFFFFF" stroke-width="0.9362" stroke-linecap="round" stroke-linejoin="round" x1="348.314" y1="393.938" x2="348.314" y2="415.672" />
          <path fill="none" stroke="#FFFFFF" stroke-width="0.9362" stroke-linecap="round" stroke-linejoin="round" d="          M348.314,372.207c0-0.522-0.217-0.739-0.737-0.739" />
          <path fill="none" stroke="#FFFFFF" stroke-width="0.9362" stroke-linecap="round" stroke-linejoin="round" d="          M347.568,371.468c-0.521,0-0.737,0.217-0.737,0.739" />
          <path fill="none" stroke="#FFFFFF" stroke-width="0.9362" stroke-linecap="round" stroke-linejoin="round" d="          M337.503,372.207c0-0.522-0.216-0.739-0.737-0.739" />
          <path fill="none" stroke="#FFFFFF" stroke-width="0.9362" stroke-linecap="round" stroke-linejoin="round" d="          M336.758,371.468c-0.521,0-0.738,0.217-0.738,0.739" />

          <line fill="none" stroke="#FFFFFF" stroke-width="0.9362" stroke-linecap="round" stroke-linejoin="round" x1="326.692" y1="393.938" x2="326.692" y2="371.468" />

          <line fill="none" stroke="#FFFFFF" stroke-width="0.9362" stroke-linecap="round" stroke-linejoin="round" x1="348.314" y1="393.938" x2="348.314" y2="372.207" />

          <line fill="none" stroke="#FFFFFF" stroke-width="0.9362" stroke-linecap="round" stroke-linejoin="round" x1="346.831" y1="393.938" x2="346.831" y2="372.207" />

          <line fill="none" stroke="#FFFFFF" stroke-width="0.9362" stroke-linecap="round" stroke-linejoin="round" x1="337.503" y1="393.938" x2="337.503" y2="372.207" />

          <line fill="none" stroke="#FFFFFF" stroke-width="0.9362" stroke-linecap="round" stroke-linejoin="round" x1="336.02" y1="393.938" x2="336.02" y2="372.207" />

          <line fill="none" stroke="#FFFFFF" stroke-width="0.9362" stroke-linecap="round" stroke-linejoin="round" x1="357.643" y1="393.938" x2="326.692" y2="393.938" />
          <path fill="none" stroke="#FFFFFF" stroke-width="0.9362" stroke-linecap="round" stroke-linejoin="round" d="          M336.02,415.672c0,0.52,0.217,0.737,0.738,0.737" />

          <rect x="316.513" y="380.033" fill="none" stroke="#FFFFFF" stroke-width="0.9362" stroke-linecap="round" stroke-linejoin="round" width="10.177" height="25.44" />
          <g>
            <path fill="#FFFFFF" d="M350.43,371.797h4.965v1.458c0,0.437-0.104,0.786-0.313,1.046           c-0.208,0.259-0.485,0.391-0.828,0.391c-0.273,0-0.516-0.077-0.725-0.233c-0.21-0.153-0.358-0.368-0.445-0.639h-0.014           c-0.037,0.338-0.166,0.607-0.382,0.81c-0.218,0.201-0.492,0.302-0.825,0.302c-0.428,0-0.773-0.151-1.038-0.46           c-0.264-0.307-0.396-0.698-0.396-1.177V371.797z M352.722,372.438h-1.73v0.77c0,0.335,0.077,0.594,0.232,0.777           c0.156,0.182,0.371,0.272,0.646,0.272c0.568,0,0.853-0.385,0.853-1.156V372.438z M354.833,372.438h-1.554v0.584           c0,0.309,0.075,0.553,0.226,0.729c0.151,0.175,0.36,0.264,0.626,0.264c0.469,0,0.702-0.311,0.702-0.936V372.438z" />
            <path fill="#FFFFFF" d="M352.155,377.663v-1.889h0.483v1.889H352.155z" />
            <path fill="#FFFFFF" d="M352.815,378.404c0.874,0,1.538,0.146,1.988,0.437c0.449,0.292,0.674,0.711,0.674,1.263           c0,1.052-0.849,1.577-2.545,1.577c-0.837,0-1.477-0.149-1.921-0.443c-0.442-0.298-0.664-0.713-0.664-1.246           c0-0.503,0.209-0.896,0.63-1.171C351.4,378.543,352.011,378.404,352.815,378.404z M352.843,379.045           c-1.318,0-1.977,0.337-1.977,1.005c0,0.656,0.669,0.986,2.01,0.986c1.386,0,2.079-0.321,2.079-0.968           C354.955,379.387,354.251,379.045,352.843,379.045z" />
            <path fill="#FFFFFF" d="M355.177,385.49l-4.747-1.941v-0.65l4.41,1.846v-2.479h0.555v3.226H355.177z" />
          </g>
          <g>
            <path fill="#FFFFFF" d="M339.561,371.797h4.964v1.458c0,0.437-0.104,0.786-0.313,1.046           c-0.209,0.259-0.484,0.391-0.828,0.391c-0.273,0-0.514-0.077-0.725-0.233c-0.209-0.153-0.358-0.368-0.445-0.639h-0.013           c-0.038,0.338-0.166,0.607-0.383,0.81c-0.217,0.201-0.492,0.302-0.825,0.302c-0.427,0-0.773-0.151-1.036-0.46           c-0.265-0.307-0.396-0.698-0.396-1.177V371.797z M341.853,372.438h-1.731v0.77c0,0.335,0.078,0.594,0.232,0.777           c0.155,0.182,0.37,0.272,0.646,0.272c0.567,0,0.853-0.385,0.853-1.156V372.438z M343.963,372.438h-1.553v0.584           c0,0.309,0.075,0.553,0.225,0.729c0.151,0.175,0.359,0.264,0.627,0.264c0.468,0,0.701-0.311,0.701-0.936V372.438z" />
            <path fill="#FFFFFF" d="M341.285,377.663v-1.889h0.483v1.889H341.285z" />
            <path fill="#FFFFFF" d="M341.945,378.404c0.876,0,1.539,0.146,1.987,0.437c0.45,0.292,0.676,0.711,0.676,1.263           c0,1.052-0.849,1.577-2.546,1.577c-0.837,0-1.477-0.149-1.921-0.443c-0.442-0.298-0.665-0.713-0.665-1.246           c0-0.503,0.212-0.896,0.632-1.171C340.529,378.543,341.143,378.404,341.945,378.404z M341.974,379.045           c-1.318,0-1.977,0.337-1.977,1.005c0,0.656,0.669,0.986,2.009,0.986c1.387,0,2.079-0.321,2.079-0.968           C344.085,379.387,343.382,379.045,341.974,379.045z" />
            <path fill="#FFFFFF" d="M342.173,383.366c0.274-0.592,0.675-0.888,1.197-0.888c0.365,0,0.663,0.139,0.893,0.416           c0.23,0.279,0.346,0.633,0.346,1.064c0,0.396-0.108,0.721-0.323,0.976c-0.217,0.258-0.496,0.387-0.837,0.387           c-0.551,0-0.976-0.311-1.272-0.926h-0.013c-0.261,0.724-0.705,1.085-1.334,1.085c-0.412,0-0.74-0.147-0.984-0.446           c-0.245-0.299-0.368-0.715-0.368-1.248c0-0.439,0.121-0.795,0.363-1.07c0.24-0.277,0.554-0.413,0.938-0.413           c0.633,0,1.092,0.354,1.381,1.063H342.173z M341.874,383.854c-0.248-0.613-0.603-0.919-1.063-0.919           c-0.239,0-0.437,0.088-0.59,0.269c-0.153,0.179-0.231,0.413-0.231,0.701c0,0.28,0.076,0.51,0.229,0.683           c0.154,0.174,0.344,0.265,0.574,0.265C341.271,384.852,341.634,384.518,341.874,383.854z M343.374,384.686           c0.223,0,0.398-0.068,0.526-0.207c0.127-0.139,0.191-0.327,0.191-0.564c0-0.223-0.067-0.412-0.201-0.567           c-0.133-0.156-0.304-0.234-0.509-0.234c-0.417,0-0.731,0.26-0.946,0.779C342.655,384.421,342.968,384.686,343.374,384.686z           " />
          </g>
          <g>
            <path fill="#FFFFFF" d="M328.623,371.389h4.964v1.456c0,0.437-0.104,0.784-0.312,1.045c-0.21,0.262-0.485,0.393-0.83,0.393           c-0.273,0-0.515-0.078-0.724-0.232c-0.209-0.157-0.358-0.368-0.445-0.641h-0.013c-0.039,0.338-0.167,0.607-0.384,0.809           c-0.217,0.203-0.491,0.305-0.825,0.305c-0.427,0-0.772-0.154-1.036-0.46c-0.264-0.308-0.396-0.699-0.396-1.178V371.389z            M330.914,372.028h-1.731v0.77c0,0.335,0.079,0.595,0.233,0.777c0.155,0.182,0.37,0.272,0.646,0.272           c0.567,0,0.852-0.385,0.852-1.156V372.028z M333.025,372.028h-1.554v0.584c0,0.309,0.076,0.552,0.226,0.729           c0.15,0.175,0.359,0.264,0.627,0.264c0.468,0,0.701-0.312,0.701-0.937V372.028z" />
            <path fill="#FFFFFF" d="M330.347,377.251v-1.887h0.484v1.887H330.347z" />
            <path fill="#FFFFFF" d="M331.006,377.994c0.877,0,1.54,0.146,1.989,0.438c0.45,0.291,0.674,0.71,0.674,1.262           c0,1.052-0.848,1.578-2.544,1.578c-0.837,0-1.478-0.149-1.921-0.444c-0.443-0.297-0.665-0.713-0.665-1.245           c0-0.505,0.211-0.896,0.632-1.172C329.592,378.133,330.204,377.994,331.006,377.994z M331.036,378.636           c-1.317,0-1.978,0.335-1.978,1.004c0,0.659,0.67,0.986,2.009,0.986c1.386,0,2.08-0.321,2.08-0.968           C333.147,378.977,332.444,378.636,331.036,378.636z" />
            <path fill="#FFFFFF" d="M329.295,382.145c-0.157,0.274-0.236,0.568-0.236,0.887c0,0.442,0.175,0.787,0.524,1.033           c0.353,0.243,0.85,0.366,1.495,0.366c-0.005-0.005-0.005-0.01,0-0.014c-0.416-0.218-0.622-0.584-0.622-1.1           c0-0.417,0.144-0.762,0.429-1.034c0.286-0.273,0.659-0.411,1.115-0.411c0.487,0,0.887,0.15,1.2,0.449           s0.469,0.688,0.469,1.163c0,0.492-0.193,0.879-0.58,1.158c-0.389,0.276-0.952,0.416-1.695,0.416           c-0.915,0-1.62-0.181-2.114-0.538c-0.493-0.359-0.74-0.856-0.74-1.489c0-0.35,0.057-0.644,0.171-0.887H329.295z            M332.081,382.506c-0.334,0-0.599,0.086-0.794,0.258c-0.195,0.171-0.292,0.406-0.292,0.709c0,0.26,0.089,0.479,0.266,0.657           c0.181,0.178,0.396,0.266,0.649,0.266c0.357,0,0.652-0.088,0.886-0.265s0.352-0.408,0.352-0.698           c0-0.266-0.102-0.487-0.305-0.663C332.64,382.596,332.386,382.506,332.081,382.506z" />
          </g>
          <g>
            <path fill="#FFFFFF" d="M350.43,402.561h4.965v1.459c0,0.436-0.104,0.785-0.313,1.044           c-0.208,0.261-0.485,0.392-0.828,0.392c-0.273,0-0.516-0.077-0.725-0.232c-0.21-0.154-0.358-0.367-0.445-0.64h-0.014           c-0.037,0.338-0.166,0.607-0.382,0.81c-0.218,0.203-0.492,0.304-0.825,0.304c-0.428,0-0.773-0.154-1.038-0.46           c-0.264-0.308-0.396-0.7-0.396-1.179V402.561z M352.722,403.203h-1.73v0.769c0,0.334,0.077,0.595,0.232,0.777           c0.156,0.182,0.371,0.274,0.646,0.274c0.568,0,0.853-0.387,0.853-1.157V403.203z M354.833,403.203h-1.554v0.581           c0,0.311,0.075,0.555,0.226,0.729c0.151,0.176,0.36,0.266,0.626,0.266c0.469,0,0.702-0.313,0.702-0.936V403.203z" />
            <path fill="#FFFFFF" d="M352.155,408.425v-1.887h0.483v1.887H352.155z" />
            <path fill="#FFFFFF" d="M350.43,412.328v-2.845h0.543v1.112h3.769l-0.33-1.142h0.575l0.515,1.767h-4.528v1.107H350.43z" />
            <path fill="#FFFFFF" d="M350.43,416.085v-3.019h0.546l1.438,1.441c0.397,0.397,0.712,0.663,0.943,0.798           c0.232,0.134,0.473,0.203,0.72,0.203c0.283,0,0.498-0.081,0.648-0.238c0.151-0.159,0.228-0.388,0.228-0.686           c0-0.442-0.189-0.864-0.565-1.266h0.638c0.303,0.392,0.452,0.847,0.452,1.364c0,0.446-0.121,0.801-0.361,1.057           c-0.242,0.261-0.567,0.389-0.976,0.389c-0.307,0-0.608-0.082-0.904-0.248c-0.297-0.166-0.673-0.479-1.13-0.939           l-1.105-1.131h-0.013v2.274H350.43z" />
          </g>
          <g>
            <path fill="#FFFFFF" d="M339.561,402.561h4.964v1.459c0,0.436-0.104,0.785-0.313,1.044           c-0.209,0.261-0.484,0.392-0.828,0.392c-0.273,0-0.514-0.077-0.725-0.232c-0.209-0.154-0.358-0.367-0.445-0.64h-0.013           c-0.038,0.338-0.166,0.607-0.383,0.81c-0.217,0.203-0.492,0.304-0.825,0.304c-0.427,0-0.773-0.154-1.036-0.46           c-0.265-0.308-0.396-0.7-0.396-1.179V402.561z M341.853,403.203h-1.731v0.769c0,0.334,0.078,0.595,0.232,0.777           c0.155,0.182,0.37,0.274,0.646,0.274c0.567,0,0.853-0.387,0.853-1.157V403.203z M343.963,403.203h-1.553v0.581           c0,0.311,0.075,0.555,0.225,0.729c0.151,0.176,0.359,0.266,0.627,0.266c0.468,0,0.701-0.313,0.701-0.936V403.203z" />
            <path fill="#FFFFFF" d="M341.285,408.425v-1.887h0.483v1.887H341.285z" />
            <path fill="#FFFFFF" d="M339.561,412.328v-2.845h0.542v1.112h3.768l-0.329-1.142h0.576l0.514,1.767h-4.528v1.107H339.561z" />
            <path fill="#FFFFFF" d="M339.561,416.178v-2.846h0.542v1.11h3.768l-0.329-1.139h0.576l0.514,1.766h-4.528v1.108H339.561z" />
          </g>
          <g>
            <path fill="#FFFFFF" d="M328.623,402.151h4.964v1.459c0,0.435-0.104,0.784-0.312,1.044c-0.21,0.26-0.485,0.391-0.83,0.391           c-0.273,0-0.515-0.077-0.724-0.233c-0.209-0.153-0.358-0.366-0.445-0.639h-0.013c-0.039,0.338-0.167,0.607-0.384,0.81           c-0.217,0.203-0.491,0.304-0.825,0.304c-0.427,0-0.772-0.154-1.036-0.46c-0.264-0.308-0.396-0.699-0.396-1.178V402.151z            M330.914,402.792h-1.731v0.769c0,0.337,0.079,0.595,0.233,0.778c0.155,0.182,0.37,0.274,0.646,0.274           c0.567,0,0.852-0.387,0.852-1.159V402.792z M333.025,402.792h-1.554v0.583c0,0.311,0.076,0.554,0.226,0.729           c0.15,0.178,0.359,0.265,0.627,0.265c0.468,0,0.701-0.313,0.701-0.937V402.792z" />
            <path fill="#FFFFFF" d="M330.347,408.015v-1.887h0.484v1.887H330.347z" />
            <path fill="#FFFFFF" d="M328.623,411.918v-2.845h0.542v1.113h3.768l-0.33-1.143h0.577l0.513,1.767h-4.527v1.107H328.623z" />
            <path fill="#FFFFFF" d="M331.006,412.606c0.877,0,1.54,0.146,1.989,0.437c0.45,0.292,0.674,0.712,0.674,1.263           c0,1.052-0.848,1.576-2.544,1.576c-0.837,0-1.478-0.146-1.921-0.442c-0.443-0.298-0.665-0.713-0.665-1.246           c0-0.503,0.211-0.895,0.632-1.171C329.592,412.745,330.204,412.606,331.006,412.606z M331.036,413.25           c-1.317,0-1.978,0.331-1.978,1.002c0,0.656,0.67,0.986,2.009,0.986c1.386,0,2.08-0.321,2.08-0.968           C333.147,413.589,332.444,413.25,331.036,413.25z" />
          </g>
        </g>
      </g>
    </g>
    <g>
      <rect x="327.116" y="388.835" fill="#FBC600" width="8.446" height="0.451" />
      <rect x="337.93" y="388.835" fill="#FBC600" width="8.444" height="0.451" />
      <rect x="348.74" y="388.835" fill="#FBC600" width="8.444" height="0.451" />
      <rect x="327.116" y="398.592" fill="#FBC600" width="8.446" height="0.451" />
      <rect x="337.93" y="398.592" fill="#FBC600" width="8.444" height="0.451" />
      <rect x="348.74" y="398.592" fill="#FBC600" width="8.444" height="0.451" />
      <rect x="350.409" y="398.592" fill="#8DC21F" width="1.728" height="0.451" />
      <rect x="353.81" y="398.592" fill="#8DC21F" width="1.702" height="0.451" />
      <rect x="339.597" y="398.592" fill="#8DC21F" width="1.729" height="0.451" />
      <rect x="342.999" y="398.592" fill="#8DC21F" width="1.701" height="0.451" />
      <rect x="328.786" y="398.592" fill="#8DC21F" width="1.729" height="0.451" />
      <rect x="332.188" y="398.592" fill="#8DC21F" width="1.701" height="0.451" />
      <rect x="350.409" y="388.835" fill="#8DC21F" width="1.728" height="0.451" />
      <rect x="353.81" y="388.835" fill="#8DC21F" width="1.702" height="0.451" />
      <rect x="339.597" y="388.835" fill="#8DC21F" width="1.729" height="0.451" />
      <rect x="342.999" y="388.835" fill="#8DC21F" width="1.701" height="0.451" />
      <rect x="328.786" y="388.835" fill="#8DC21F" width="1.729" height="0.451" />
      <rect x="332.188" y="388.835" fill="#8DC21F" width="1.701" height="0.451" />
    </g>
</svg>
