<!DOCTYPE svg PUBLIC "-//W3C//DTD SVG 1.1//EN" "http://www.w3.org/Graphics/SVG/1.1/DTD/svg11.dtd">
<svg xmlns="http://www.w3.org/2000/svg" xmlns:xlink="http://www.w3.org/1999/xlink" version="1.1" id="图层_1" x="0px" y="0px" width="1028px" height="680px" viewBox="0 0 1028 680" enable-background="new 0 0 1028 680" xml:space="preserve" xmlns:xml="http://www.w3.org/XML/1998/namespace">
  <g>
    <rect x="452" y="395.06" fill="#F6AA00" width="60.875" height="26.5" />
    <g>
      <rect x="512.284" y="410.05" fill="none" stroke="#FFFFFF" stroke-width="1.8725" width="4.241" height="4.239" />
      <rect x="474.129" y="410.05" fill="none" stroke="#FFFFFF" stroke-width="1.8725" width="4.238" height="4.239" />

      <line fill="none" stroke="#FFFFFF" stroke-width="0.9362" stroke-linecap="round" stroke-linejoin="round" x1="500.198" y1="416.409" x2="500.206" y2="416.409" />
      <path fill="none" stroke="#FFFFFF" stroke-width="0.9362" stroke-linecap="round" stroke-linejoin="round" d="        M488.648,415.672c0,0.52,0.218,0.737,0.737,0.737" />
      <path fill="none" stroke="#FFFFFF" stroke-width="0.9362" stroke-linecap="round" stroke-linejoin="round" d="        M489.396,416.409c0.521,0,0.737-0.218,0.737-0.737" />
      <path fill="none" stroke="#FFFFFF" stroke-width="0.9362" stroke-linecap="round" stroke-linejoin="round" d="M499.46,415.672        c0,0.52,0.215,0.737,0.738,0.737" />
      <path fill="none" stroke="#FFFFFF" stroke-width="0.9362" stroke-linecap="round" stroke-linejoin="round" d="        M500.206,416.409c0.521,0,0.739-0.218,0.739-0.737" />

      <line fill="none" stroke="#FFFFFF" stroke-width="0.9362" stroke-linecap="round" stroke-linejoin="round" x1="479.322" y1="393.938" x2="479.322" y2="416.409" />

      <line fill="none" stroke="#FFFFFF" stroke-width="0.9362" stroke-linecap="round" stroke-linejoin="round" x1="510.271" y1="393.938" x2="510.271" y2="416.409" />

      <line fill="none" stroke="#FFFFFF" stroke-width="0.9362" stroke-linecap="round" stroke-linejoin="round" x1="488.648" y1="393.938" x2="488.648" y2="415.672" />

      <line fill="none" stroke="#FFFFFF" stroke-width="0.9362" stroke-linecap="round" stroke-linejoin="round" x1="490.133" y1="393.938" x2="490.133" y2="415.672" />

      <line fill="none" stroke="#FFFFFF" stroke-width="0.9362" stroke-linecap="round" stroke-linejoin="round" x1="499.46" y1="393.938" x2="499.46" y2="415.672" />

      <line fill="none" stroke="#FFFFFF" stroke-width="0.9362" stroke-linecap="round" stroke-linejoin="round" x1="500.945" y1="393.938" x2="500.945" y2="415.672" />

      <line fill="none" stroke="#FFFFFF" stroke-width="0.9362" stroke-linecap="round" stroke-linejoin="round" x1="463.096" y1="393.938" x2="463.096" y2="415.672" />

      <line fill="none" stroke="#FFFFFF" stroke-width="0.9362" stroke-linecap="round" stroke-linejoin="round" x1="472.425" y1="393.938" x2="472.425" y2="416.409" />
      <g>
        <path fill="#FFFFFF" d="M503.292,402.561h4.964v1.459c0,0.436-0.104,0.785-0.313,1.044c-0.208,0.261-0.484,0.392-0.829,0.392         c-0.273,0-0.514-0.077-0.724-0.232c-0.209-0.154-0.357-0.367-0.444-0.64h-0.014c-0.037,0.338-0.166,0.607-0.382,0.81         c-0.218,0.203-0.493,0.304-0.826,0.304c-0.428,0-0.773-0.154-1.037-0.46c-0.264-0.308-0.396-0.7-0.396-1.179V402.561z          M505.583,403.203h-1.73v0.769c0,0.334,0.078,0.595,0.233,0.777c0.153,0.182,0.37,0.274,0.645,0.274         c0.568,0,0.853-0.387,0.853-1.157V403.203z M507.696,403.203h-1.556v0.581c0,0.311,0.075,0.555,0.227,0.729         c0.151,0.176,0.359,0.266,0.626,0.266c0.469,0,0.703-0.313,0.703-0.936V403.203z" />
        <path fill="#FFFFFF" d="M505.017,408.425v-1.887h0.483v1.887H505.017z" />
        <path fill="#FFFFFF" d="M504.58,412.493v-0.634h-1.288v-0.61h1.288v-2.313h0.406l3.27,2.194v0.729h-3.179v0.634H504.58z          M505.077,411.249h2.08c0.147,0,0.317,0.004,0.509,0.013v-0.013c-0.081-0.03-0.208-0.093-0.381-0.189l-2.208-1.478V411.249z" />
        <path fill="#FFFFFF" d="M505.676,413.017c0.876,0,1.539,0.146,1.989,0.437c0.45,0.292,0.674,0.713,0.674,1.263         c0,1.052-0.847,1.576-2.544,1.576c-0.837,0-1.478-0.146-1.921-0.443s-0.665-0.71-0.665-1.245c0-0.503,0.21-0.893,0.631-1.171         C504.26,413.155,504.873,413.017,505.676,413.017z M505.704,413.66c-1.317,0-1.977,0.334-1.977,1.002         c0,0.659,0.67,0.986,2.011,0.986c1.386,0,2.079-0.321,2.079-0.966C507.817,413.999,507.113,413.66,505.704,413.66z" />
      </g>
      <g>
        <path fill="#FFFFFF" d="M492.422,402.561h4.965v1.459c0,0.436-0.105,0.785-0.313,1.044c-0.208,0.261-0.483,0.392-0.828,0.392         c-0.273,0-0.516-0.077-0.725-0.232c-0.208-0.154-0.357-0.367-0.444-0.64h-0.015c-0.037,0.338-0.166,0.607-0.381,0.81         c-0.218,0.203-0.492,0.304-0.826,0.304c-0.427,0-0.773-0.154-1.037-0.46c-0.264-0.308-0.396-0.7-0.396-1.179V402.561z          M494.713,403.203h-1.729v0.769c0,0.334,0.077,0.595,0.232,0.777c0.155,0.182,0.37,0.274,0.646,0.274         c0.567,0,0.852-0.387,0.852-1.157V403.203z M496.825,403.203h-1.555v0.581c0,0.311,0.075,0.555,0.227,0.729         c0.151,0.176,0.359,0.266,0.627,0.266c0.467,0,0.701-0.313,0.701-0.936V403.203z" />
        <path fill="#FFFFFF" d="M494.146,408.425v-1.887h0.484v1.887H494.146z" />
        <path fill="#FFFFFF" d="M493.709,412.493v-0.634h-1.287v-0.61h1.287v-2.313h0.408l3.27,2.194v0.729h-3.181v0.634H493.709z          M494.206,411.249h2.081c0.147,0,0.316,0.004,0.509,0.013v-0.013c-0.082-0.03-0.208-0.093-0.382-0.189l-2.208-1.478V411.249z         " />
        <path fill="#FFFFFF" d="M492.422,416.178v-2.846h0.541v1.11h3.77l-0.33-1.139h0.576l0.514,1.766h-4.529v1.108H492.422z" />
      </g>
      <g>
        <path fill="#FFFFFF" d="M481.484,402.151h4.964v1.459c0,0.435-0.104,0.784-0.313,1.044c-0.209,0.26-0.485,0.391-0.828,0.391         c-0.273,0-0.515-0.077-0.725-0.233c-0.21-0.153-0.357-0.366-0.445-0.639h-0.014c-0.038,0.338-0.164,0.607-0.382,0.81         c-0.217,0.203-0.492,0.304-0.825,0.304c-0.428,0-0.772-0.154-1.037-0.46c-0.264-0.308-0.396-0.699-0.396-1.178V402.151z          M483.775,402.792h-1.729v0.769c0,0.337,0.076,0.595,0.231,0.778c0.154,0.182,0.37,0.274,0.646,0.274         c0.568,0,0.853-0.387,0.853-1.159V402.792z M485.888,402.792h-1.556v0.583c0,0.311,0.076,0.554,0.227,0.729         c0.151,0.178,0.36,0.265,0.626,0.265c0.469,0,0.703-0.313,0.703-0.937V402.792z" />
        <path fill="#FFFFFF" d="M483.207,408.015v-1.887h0.485v1.887H483.207z" />
        <path fill="#FFFFFF" d="M482.771,412.081v-0.632h-1.287v-0.61h1.287v-2.313h0.408l3.269,2.194v0.729h-3.18v0.632H482.771z          M483.269,410.839h2.08c0.147,0,0.316,0.004,0.51,0.013v-0.013c-0.082-0.03-0.209-0.093-0.382-0.189l-2.208-1.477V410.839z" />
        <path fill="#FFFFFF" d="M481.484,415.674v-3.018h0.545l1.438,1.441c0.397,0.398,0.712,0.663,0.944,0.798         c0.231,0.134,0.471,0.201,0.719,0.201c0.281,0,0.498-0.078,0.649-0.235c0.15-0.157,0.225-0.387,0.225-0.686         c0-0.443-0.188-0.865-0.563-1.267h0.639c0.302,0.39,0.451,0.846,0.451,1.364c0,0.447-0.121,0.801-0.361,1.058         c-0.242,0.259-0.566,0.388-0.976,0.388c-0.307,0-0.609-0.082-0.904-0.248c-0.297-0.167-0.673-0.479-1.13-0.94l-1.105-1.13         h-0.014v2.273H481.484z" />
      </g>
      <g>
        <path fill="#FFFFFF" d="M465.486,402.151h4.964v1.459c0,0.435-0.104,0.784-0.313,1.044c-0.208,0.26-0.484,0.391-0.828,0.391         c-0.273,0-0.515-0.077-0.723-0.233c-0.21-0.153-0.358-0.366-0.446-0.639h-0.013c-0.038,0.338-0.167,0.607-0.384,0.81         c-0.216,0.203-0.492,0.304-0.824,0.304c-0.428,0-0.773-0.154-1.037-0.46c-0.264-0.308-0.396-0.699-0.396-1.178V402.151z          M467.778,402.792h-1.73v0.769c0,0.337,0.077,0.595,0.233,0.778c0.153,0.182,0.368,0.274,0.645,0.274         c0.568,0,0.853-0.387,0.853-1.159V402.792z M469.891,402.792h-1.555v0.583c0,0.311,0.075,0.554,0.226,0.729         c0.15,0.178,0.36,0.265,0.626,0.265c0.469,0,0.703-0.313,0.703-0.937V402.792z" />
        <path fill="#FFFFFF" d="M467.211,408.015v-1.887h0.484v1.887H467.211z" />
        <path fill="#FFFFFF" d="M466.774,412.081v-0.632h-1.288v-0.61h1.288v-2.313h0.408l3.268,2.194v0.729h-3.179v0.632H466.774z          M467.271,410.839h2.081c0.146,0,0.316,0.004,0.509,0.013v-0.013c-0.081-0.03-0.208-0.093-0.382-0.189l-2.208-1.477V410.839z         " />
        <path fill="#FFFFFF" d="M466.316,412.774c-0.262,0.339-0.395,0.724-0.395,1.15c0,0.342,0.085,0.613,0.253,0.812         c0.168,0.2,0.392,0.301,0.674,0.301c0.628,0,0.942-0.452,0.942-1.35v-0.413h0.519v0.395c0,0.796,0.295,1.194,0.886,1.194         c0.544,0,0.816-0.306,0.816-0.913c0-0.347-0.117-0.676-0.353-0.984h0.593c0.188,0.325,0.282,0.704,0.282,1.139         c0,0.423-0.11,0.762-0.332,1.02c-0.221,0.255-0.508,0.385-0.859,0.385c-0.649,0-1.068-0.332-1.253-0.995h-0.014         c-0.039,0.358-0.165,0.644-0.38,0.852c-0.214,0.208-0.482,0.313-0.804,0.313c-0.446,0-0.805-0.159-1.078-0.482         c-0.275-0.322-0.41-0.749-0.41-1.283c0-0.471,0.087-0.85,0.262-1.138H466.316z" />
      </g>
    </g>
    <g>
      <rect x="463.521" y="398.592" fill="#FBC600" width="8.444" height="0.451" />
      <rect x="479.748" y="398.592" fill="#FBC600" width="8.444" height="0.451" />
      <rect x="490.557" y="398.592" fill="#FBC600" width="8.446" height="0.451" />
      <rect x="501.37" y="398.592" fill="#FBC600" width="8.444" height="0.451" />
      <rect x="503.038" y="398.592" fill="#8DC21F" width="1.729" height="0.451" />
      <rect x="506.44" y="398.592" fill="#8DC21F" width="1.7" height="0.451" />
      <rect x="492.227" y="398.592" fill="#8DC21F" width="1.729" height="0.451" />
      <rect x="495.628" y="398.592" fill="#8DC21F" width="1.7" height="0.451" />
      <rect x="481.416" y="398.592" fill="#8DC21F" width="1.728" height="0.451" />
      <rect x="484.817" y="398.592" fill="#8DC21F" width="1.699" height="0.451" />
      <rect x="465.191" y="398.592" fill="#8DC21F" width="1.727" height="0.451" />
      <rect x="468.593" y="398.592" fill="#8DC21F" width="1.7" height="0.451" />
    </g>
  </g>
</svg>
