<!DOCTYPE svg PUBLIC "-//W3C//DTD SVG 1.1//EN" "http://www.w3.org/Graphics/SVG/1.1/DTD/svg11.dtd">
<svg xmlns="http://www.w3.org/2000/svg" xmlns:xlink="http://www.w3.org/1999/xlink" version="1.1" id="图层_1" x="0px" y="0px" width="1028px" height="680px" viewBox="0 0 1028 680" enable-background="new 0 0 1028 680" xml:space="preserve" xmlns:xml="http://www.w3.org/XML/1998/namespace">
  <g>
    <polygon fill="#F6AA00" points="512.833,495.852 441.251,495.852 441.208,454.435 450.354,454.352 450.354,449.268         448.964,449.267 448.964,445.663 512.833,445.663       " />
    <g>
      <rect x="473.703" y="485.94" fill="none" stroke="#FFFFFF" stroke-width="1.8725" width="5.089" height="5.086" />
      <rect x="473.703" y="447.782" fill="none" stroke="#FFFFFF" stroke-width="1.8725" width="5.089" height="5.089" />
      <rect x="511.861" y="485.94" fill="none" stroke="#FFFFFF" stroke-width="1.8725" width="5.087" height="5.086" />
      <rect x="512.284" y="448.206" fill="none" stroke="#FFFFFF" stroke-width="1.8725" width="4.241" height="4.241" />

      <line fill="none" stroke="#FFFFFF" stroke-width="0.9362" stroke-linecap="round" stroke-linejoin="round" x1="510.803" y1="470.677" x2="510.803" y2="493.146" />

      <line fill="none" stroke="#FFFFFF" stroke-width="0.9362" stroke-linecap="round" stroke-linejoin="round" x1="489.181" y1="470.677" x2="489.181" y2="492.409" />

      <line fill="none" stroke="#FFFFFF" stroke-width="0.9362" stroke-linecap="round" stroke-linejoin="round" x1="490.663" y1="470.677" x2="490.663" y2="492.409" />

      <line fill="none" stroke="#FFFFFF" stroke-width="0.9362" stroke-linecap="round" stroke-linejoin="round" x1="499.992" y1="470.677" x2="499.992" y2="492.409" />

      <line fill="none" stroke="#FFFFFF" stroke-width="0.9362" stroke-linecap="round" stroke-linejoin="round" x1="501.477" y1="470.677" x2="501.477" y2="492.409" />
      <path fill="none" stroke="#FFFFFF" stroke-width="0.9362" stroke-linecap="round" stroke-linejoin="round" d="         M451.354,492.409c0,0.522,0.216,0.737,0.738,0.737" />
      <path fill="none" stroke="#FFFFFF" stroke-width="0.9362" stroke-linecap="round" stroke-linejoin="round" d="         M452.101,493.146c0.522,0,0.737-0.215,0.737-0.737" />
      <path fill="none" stroke="#FFFFFF" stroke-width="0.9362" stroke-linecap="round" stroke-linejoin="round" d="         M462.166,492.409c0,0.522,0.216,0.737,0.737,0.737" />
      <path fill="none" stroke="#FFFFFF" stroke-width="0.9362" stroke-linecap="round" stroke-linejoin="round" d="         M462.912,493.146c0.521,0,0.738-0.215,0.738-0.737" />

      <line fill="none" stroke="#FFFFFF" stroke-width="0.9362" stroke-linecap="round" stroke-linejoin="round" x1="442.028" y1="470.677" x2="442.028" y2="493.146" />

      <line fill="none" stroke="#FFFFFF" stroke-width="0.9362" stroke-linecap="round" stroke-linejoin="round" x1="451.354" y1="470.677" x2="451.354" y2="492.409" />

      <line fill="none" stroke="#FFFFFF" stroke-width="0.9362" stroke-linecap="round" stroke-linejoin="round" x1="452.838" y1="470.677" x2="452.838" y2="492.409" />

      <line fill="none" stroke="#FFFFFF" stroke-width="0.9362" stroke-linecap="round" stroke-linejoin="round" x1="462.166" y1="470.677" x2="462.166" y2="492.409" />

      <line fill="none" stroke="#FFFFFF" stroke-width="0.9362" stroke-linecap="round" stroke-linejoin="round" x1="463.65" y1="470.677" x2="463.65" y2="492.409" />

      <line fill="none" stroke="#FFFFFF" stroke-width="0.9362" stroke-linecap="round" stroke-linejoin="round" x1="442.028" y1="470.677" x2="472.979" y2="470.677" />
      <path fill="none" stroke="#FFFFFF" stroke-width="0.9362" stroke-linecap="round" stroke-linejoin="round" d="         M501.477,448.945c0-0.521-0.217-0.739-0.738-0.739" />
      <path fill="none" stroke="#FFFFFF" stroke-width="0.9362" stroke-linecap="round" stroke-linejoin="round" d="         M500.729,448.206c-0.521,0-0.736,0.218-0.736,0.739" />
      <path fill="none" stroke="#FFFFFF" stroke-width="0.9362" stroke-linecap="round" stroke-linejoin="round" d="         M490.663,448.945c0-0.521-0.215-0.739-0.736-0.739" />
      <path fill="none" stroke="#FFFFFF" stroke-width="0.9362" stroke-linecap="round" stroke-linejoin="round" d="         M489.918,448.206c-0.522,0-0.737,0.218-0.737,0.739" />

      <line fill="none" stroke="#FFFFFF" stroke-width="0.9362" stroke-linecap="round" stroke-linejoin="round" x1="510.803" y1="470.677" x2="510.803" y2="448.206" />

      <line fill="none" stroke="#FFFFFF" stroke-width="0.9362" stroke-linecap="round" stroke-linejoin="round" x1="479.854" y1="470.677" x2="479.854" y2="448.206" />

      <line fill="none" stroke="#FFFFFF" stroke-width="0.9362" stroke-linecap="round" stroke-linejoin="round" x1="501.477" y1="470.677" x2="501.477" y2="448.945" />

      <line fill="none" stroke="#FFFFFF" stroke-width="0.9362" stroke-linecap="round" stroke-linejoin="round" x1="499.992" y1="470.677" x2="499.992" y2="448.945" />

      <line fill="none" stroke="#FFFFFF" stroke-width="0.9362" stroke-linecap="round" stroke-linejoin="round" x1="490.663" y1="470.677" x2="490.663" y2="448.945" />

      <line fill="none" stroke="#FFFFFF" stroke-width="0.9362" stroke-linecap="round" stroke-linejoin="round" x1="489.181" y1="470.677" x2="489.181" y2="448.945" />

      <line fill="none" stroke="#FFFFFF" stroke-width="0.9362" stroke-linecap="round" stroke-linejoin="round" x1="510.803" y1="470.677" x2="479.854" y2="470.677" />
      <path fill="none" stroke="#FFFFFF" stroke-width="0.9362" stroke-linecap="round" stroke-linejoin="round" d="         M489.181,492.409c0,0.522,0.215,0.737,0.737,0.737" />
      <path fill="none" stroke="#FFFFFF" stroke-width="0.9362" stroke-linecap="round" stroke-linejoin="round" d="         M489.927,493.146c0.521,0,0.736-0.215,0.736-0.737" />
      <path fill="none" stroke="#FFFFFF" stroke-width="0.9362" stroke-linecap="round" stroke-linejoin="round" d="         M499.992,492.409c0,0.522,0.215,0.737,0.736,0.737" />
      <path fill="none" stroke="#FFFFFF" stroke-width="0.9362" stroke-linecap="round" stroke-linejoin="round" d="         M500.738,493.146c0.521,0,0.738-0.215,0.738-0.737" />

      <line fill="none" stroke="#FFFFFF" stroke-width="0.9362" stroke-linecap="round" stroke-linejoin="round" x1="479.854" y1="470.677" x2="479.854" y2="493.146" />

      <line fill="none" stroke="#FFFFFF" stroke-width="0.9362" stroke-linecap="round" stroke-linejoin="round" x1="472.979" y1="470.677" x2="472.979" y2="493.146" />

      <line fill="none" stroke="#FFFFFF" stroke-width="0.9362" stroke-linecap="round" stroke-linejoin="round" x1="463.65" y1="448.945" x2="463.65" y2="470.677" />

      <line fill="none" stroke="#FFFFFF" stroke-width="0.9362" stroke-linecap="round" stroke-linejoin="round" x1="462.166" y1="448.945" x2="462.166" y2="470.677" />

      <line fill="none" stroke="#FFFFFF" stroke-width="0.9362" stroke-linecap="round" stroke-linejoin="round" x1="452.838" y1="470.677" x2="472.979" y2="470.677" />

      <line fill="none" stroke="#FFFFFF" stroke-width="0.9362" stroke-linecap="round" stroke-linejoin="round" x1="472.979" y1="470.677" x2="472.979" y2="448.206" />

      <line fill="none" stroke="#FFFFFF" stroke-width="0.9362" stroke-linecap="round" stroke-linejoin="round" x1="452.838" y1="448.206" x2="452.838" y2="470.677" />
      <path fill="none" stroke="#FFFFFF" stroke-width="0.9362" stroke-linecap="round" stroke-linejoin="round" d="         M463.65,448.945c0-0.521-0.217-0.739-0.738-0.739" />
      <path fill="none" stroke="#FFFFFF" stroke-width="0.9362" stroke-linecap="round" stroke-linejoin="round" d="         M462.903,448.206c-0.521,0-0.737,0.218-0.737,0.739" />

      <line fill="none" stroke="#FFFFFF" stroke-width="0.9362" stroke-linecap="round" stroke-linejoin="round" x1="462.903" y1="448.206" x2="462.912" y2="448.206" />
      <g>
        <path fill="#FFFFFF" d="M466.069,478.651h4.963v1.459c0,0.434-0.104,0.782-0.312,1.042          c-0.208,0.262-0.485,0.391-0.829,0.391c-0.273,0-0.516-0.076-0.725-0.231c-0.209-0.154-0.357-0.367-0.445-0.639h-0.013          c-0.038,0.337-0.166,0.606-0.383,0.808c-0.216,0.203-0.492,0.304-0.824,0.304c-0.428,0-0.774-0.152-1.037-0.46          c-0.265-0.306-0.396-0.698-0.396-1.177V478.651z M468.36,479.291h-1.731v0.77c0,0.335,0.078,0.595,0.232,0.776          c0.155,0.184,0.37,0.274,0.646,0.274c0.568,0,0.853-0.386,0.853-1.157V479.291z M470.471,479.291h-1.553v0.583          c0,0.31,0.075,0.553,0.225,0.73c0.151,0.174,0.359,0.264,0.627,0.264c0.468,0,0.701-0.313,0.701-0.937V479.291z" />
        <path fill="#FFFFFF" d="M467.793,484.517v-1.89h0.483v1.89H467.793z" />
        <path fill="#FFFFFF" d="M466.069,488.325v-3.018h0.544l1.439,1.44c0.397,0.398,0.712,0.663,0.942,0.798          c0.232,0.135,0.474,0.203,0.72,0.203c0.283,0,0.499-0.08,0.648-0.237c0.151-0.158,0.228-0.388,0.228-0.688          c0-0.441-0.188-0.863-0.564-1.265h0.637c0.303,0.392,0.453,0.847,0.453,1.364c0,0.447-0.121,0.798-0.363,1.059          c-0.24,0.259-0.566,0.388-0.974,0.388c-0.309,0-0.609-0.083-0.905-0.249c-0.295-0.165-0.672-0.479-1.13-0.939l-1.105-1.133          h-0.012v2.276H466.069z" />
        <path fill="#FFFFFF" d="M468.68,490.219c0.277-0.59,0.676-0.888,1.198-0.888c0.367,0,0.663,0.139,0.894,0.417          c0.229,0.278,0.345,0.632,0.345,1.063c0,0.396-0.108,0.721-0.323,0.978c-0.217,0.258-0.495,0.385-0.837,0.385          c-0.552,0-0.977-0.309-1.271-0.926h-0.014c-0.261,0.724-0.705,1.085-1.334,1.085c-0.412,0-0.74-0.148-0.984-0.446          s-0.368-0.714-0.368-1.248c0-0.438,0.122-0.795,0.363-1.072c0.242-0.273,0.554-0.412,0.939-0.412          c0.632,0,1.092,0.355,1.381,1.064H468.68z M468.382,490.706c-0.248-0.613-0.603-0.92-1.063-0.92          c-0.239,0-0.437,0.089-0.59,0.269s-0.231,0.416-0.231,0.702c0,0.279,0.078,0.508,0.23,0.683s0.344,0.264,0.572,0.264          C467.779,491.703,468.142,491.37,468.382,490.706z M469.882,491.54c0.223,0,0.396-0.07,0.526-0.21          c0.127-0.138,0.191-0.326,0.191-0.563c0-0.223-0.066-0.412-0.2-0.567c-0.133-0.157-0.305-0.234-0.512-0.234          c-0.413,0-0.729,0.26-0.944,0.779C469.163,491.273,469.476,491.54,469.882,491.54z" />
      </g>
      <g>
        <path fill="#FFFFFF" d="M455.198,478.651h4.965v1.459c0,0.434-0.104,0.782-0.313,1.042          c-0.209,0.262-0.485,0.391-0.829,0.391c-0.272,0-0.515-0.076-0.724-0.231c-0.21-0.154-0.358-0.367-0.445-0.639h-0.014          c-0.037,0.337-0.166,0.606-0.382,0.808c-0.217,0.203-0.492,0.304-0.825,0.304c-0.429,0-0.773-0.152-1.038-0.46          c-0.264-0.306-0.396-0.698-0.396-1.177V478.651z M457.49,479.291h-1.73v0.77c0,0.335,0.077,0.595,0.232,0.776          c0.154,0.184,0.371,0.274,0.646,0.274c0.568,0,0.853-0.386,0.853-1.157V479.291z M459.603,479.291h-1.556v0.583          c0,0.31,0.076,0.553,0.227,0.73c0.151,0.174,0.359,0.264,0.626,0.264c0.469,0,0.703-0.313,0.703-0.937V479.291z" />
        <path fill="#FFFFFF" d="M456.923,484.517v-1.89h0.484v1.89H456.923z" />
        <path fill="#FFFFFF" d="M455.198,488.325v-3.018h0.546l1.438,1.44c0.398,0.398,0.713,0.663,0.945,0.798          c0.23,0.135,0.471,0.203,0.719,0.203c0.281,0,0.498-0.08,0.649-0.237c0.149-0.158,0.225-0.388,0.225-0.688          c0-0.441-0.188-0.863-0.563-1.265h0.638c0.301,0.392,0.452,0.847,0.452,1.364c0,0.447-0.121,0.798-0.361,1.059          c-0.242,0.259-0.567,0.388-0.976,0.388c-0.307,0-0.609-0.083-0.904-0.249c-0.297-0.165-0.673-0.479-1.13-0.939l-1.105-1.133          h-0.013v2.276H455.198z" />
        <path fill="#FFFFFF" d="M459.945,492.343l-4.747-1.94v-0.65l4.409,1.845v-2.479h0.556v3.226H459.945z" />
      </g>
      <g>
        <path fill="#FFFFFF" d="M444.261,478.241h4.965v1.457c0,0.436-0.104,0.784-0.313,1.044          c-0.209,0.262-0.485,0.391-0.828,0.391c-0.273,0-0.516-0.076-0.727-0.23c-0.209-0.155-0.356-0.369-0.444-0.64h-0.013          c-0.039,0.337-0.166,0.606-0.384,0.811c-0.216,0.2-0.49,0.301-0.824,0.301c-0.428,0-0.773-0.152-1.036-0.46          c-0.265-0.306-0.396-0.697-0.396-1.177V478.241z M446.552,478.882h-1.729v0.77c0,0.334,0.077,0.594,0.232,0.775          c0.154,0.184,0.368,0.274,0.646,0.274c0.567,0,0.852-0.385,0.852-1.156V478.882z M448.664,478.882h-1.555v0.582          c0,0.311,0.076,0.553,0.227,0.73c0.149,0.176,0.359,0.264,0.625,0.264c0.47,0,0.703-0.313,0.703-0.936V478.882z" />
        <path fill="#FFFFFF" d="M445.984,484.104v-1.888h0.485v1.888H445.984z" />
        <path fill="#FFFFFF" d="M444.261,487.916v-3.019h0.546l1.438,1.439c0.396,0.399,0.712,0.664,0.943,0.8          c0.232,0.134,0.472,0.202,0.72,0.202c0.281,0,0.498-0.08,0.649-0.237c0.148-0.158,0.225-0.387,0.225-0.688          c0-0.441-0.188-0.863-0.563-1.265h0.638c0.301,0.391,0.452,0.847,0.452,1.364c0,0.447-0.121,0.801-0.363,1.059          c-0.241,0.259-0.565,0.387-0.974,0.387c-0.307,0-0.609-0.082-0.904-0.248c-0.297-0.165-0.674-0.479-1.131-0.939          l-1.104-1.133h-0.014v2.277H444.261z" />
        <path fill="#FFFFFF" d="M448.587,491.667c0.133-0.259,0.198-0.527,0.198-0.81c0-0.431-0.187-0.775-0.561-1.035          c-0.374-0.261-0.884-0.394-1.531-0.397v0.017c0.455,0.234,0.683,0.608,0.683,1.123c0,0.431-0.141,0.772-0.42,1.028          c-0.281,0.257-0.652,0.385-1.115,0.385c-0.485,0-0.885-0.147-1.195-0.444c-0.313-0.296-0.468-0.672-0.468-1.131          c0-0.505,0.197-0.901,0.591-1.188c0.395-0.287,0.953-0.432,1.678-0.432c0.876,0,1.571,0.189,2.088,0.565          c0.516,0.379,0.774,0.876,0.774,1.49c0,0.351-0.048,0.629-0.146,0.829H448.587z M445.887,489.463          c-0.328,0-0.608,0.087-0.841,0.26c-0.232,0.175-0.35,0.405-0.35,0.694c0,0.274,0.101,0.496,0.301,0.667          c0.202,0.172,0.46,0.257,0.777,0.257c0.341,0,0.606-0.079,0.797-0.242c0.189-0.162,0.285-0.392,0.285-0.688          c0-0.283-0.097-0.511-0.289-0.686C446.375,489.55,446.149,489.463,445.887,489.463z" />
      </g>
      <g>
        <path fill="#FFFFFF" d="M503.806,478.651h4.964v1.459c0,0.434-0.105,0.782-0.313,1.042          c-0.208,0.262-0.483,0.391-0.828,0.391c-0.273,0-0.516-0.076-0.724-0.231c-0.211-0.154-0.359-0.367-0.446-0.639h-0.014          c-0.037,0.337-0.165,0.606-0.382,0.808c-0.217,0.203-0.492,0.304-0.826,0.304c-0.427,0-0.771-0.152-1.037-0.46          c-0.264-0.306-0.395-0.698-0.395-1.177V478.651z M506.097,479.291h-1.73v0.77c0,0.335,0.077,0.595,0.232,0.776          c0.154,0.184,0.37,0.274,0.646,0.274c0.568,0,0.853-0.386,0.853-1.157V479.291z M508.209,479.291h-1.555v0.583          c0,0.31,0.075,0.553,0.226,0.73c0.151,0.174,0.359,0.264,0.627,0.264c0.468,0,0.702-0.313,0.702-0.937V479.291z" />
        <path fill="#FFFFFF" d="M505.53,484.517v-1.89h0.483v1.89H505.53z" />
        <path fill="#FFFFFF" d="M504.635,485.425c-0.263,0.339-0.394,0.724-0.394,1.15c0,0.343,0.084,0.613,0.252,0.812          c0.167,0.201,0.392,0.3,0.675,0.3c0.628,0,0.941-0.448,0.941-1.347v-0.415h0.52v0.393c0,0.798,0.294,1.196,0.885,1.196          c0.544,0,0.816-0.304,0.816-0.914c0-0.348-0.117-0.675-0.352-0.983h0.593c0.188,0.325,0.281,0.705,0.281,1.139          c0,0.422-0.11,0.763-0.331,1.02c-0.222,0.256-0.508,0.383-0.861,0.383c-0.648,0-1.067-0.33-1.252-0.993h-0.014          c-0.038,0.359-0.166,0.643-0.38,0.852c-0.215,0.207-0.481,0.313-0.803,0.313c-0.445,0-0.807-0.159-1.079-0.482          c-0.273-0.322-0.41-0.749-0.41-1.283c0-0.47,0.087-0.85,0.263-1.138H504.635z" />
        <path fill="#FFFFFF" d="M503.806,492.267v-2.845h0.541v1.11h3.769l-0.329-1.14h0.576l0.512,1.765h-4.527v1.109H503.806z" />
      </g>
      <g>
        <path fill="#FFFFFF" d="M492.936,478.651h4.964v1.459c0,0.434-0.104,0.782-0.313,1.042          c-0.208,0.262-0.484,0.391-0.828,0.391c-0.274,0-0.516-0.076-0.725-0.231c-0.209-0.154-0.358-0.367-0.445-0.639h-0.013          c-0.039,0.337-0.166,0.606-0.383,0.808c-0.218,0.203-0.491,0.304-0.825,0.304c-0.428,0-0.772-0.152-1.037-0.46          c-0.263-0.306-0.396-0.698-0.396-1.177V478.651z M495.227,479.291h-1.73v0.77c0,0.335,0.078,0.595,0.233,0.776          c0.154,0.184,0.369,0.274,0.646,0.274c0.568,0,0.852-0.386,0.852-1.157V479.291z M497.338,479.291h-1.554v0.583          c0,0.31,0.076,0.553,0.226,0.73c0.151,0.174,0.36,0.264,0.627,0.264c0.468,0,0.701-0.313,0.701-0.937V479.291z" />
        <path fill="#FFFFFF" d="M494.66,484.517v-1.89h0.483v1.89H494.66z" />
        <path fill="#FFFFFF" d="M493.767,485.425c-0.264,0.339-0.395,0.724-0.395,1.15c0,0.343,0.083,0.613,0.251,0.812          c0.169,0.201,0.393,0.3,0.674,0.3c0.628,0,0.942-0.448,0.942-1.347v-0.415h0.52v0.393c0,0.798,0.296,1.196,0.884,1.196          c0.546,0,0.817-0.304,0.817-0.914c0-0.348-0.117-0.675-0.352-0.983h0.593c0.188,0.325,0.282,0.705,0.282,1.139          c0,0.422-0.111,0.763-0.332,1.02c-0.222,0.256-0.508,0.383-0.861,0.383c-0.649,0-1.066-0.33-1.253-0.993h-0.012          c-0.039,0.359-0.165,0.643-0.38,0.852c-0.216,0.207-0.481,0.313-0.803,0.313c-0.447,0-0.807-0.159-1.081-0.482          c-0.273-0.322-0.409-0.749-0.409-1.283c0-0.47,0.088-0.85,0.263-1.138H493.767z" />
        <path fill="#FFFFFF" d="M495.32,489.105c0.875,0,1.538,0.146,1.989,0.438c0.448,0.29,0.674,0.711,0.674,1.263          c0,1.05-0.849,1.576-2.544,1.576c-0.839,0-1.479-0.147-1.923-0.444c-0.442-0.295-0.664-0.71-0.664-1.244          c0-0.504,0.21-0.896,0.631-1.171C493.904,489.245,494.517,489.105,495.32,489.105z M495.349,489.748          c-1.318,0-1.977,0.334-1.977,1.003c0,0.657,0.669,0.987,2.009,0.987c1.387,0,2.079-0.323,2.079-0.968          C497.46,490.088,496.757,489.748,495.349,489.748z" />
      </g>
      <g>
        <path fill="#FFFFFF" d="M481.998,478.241h4.964v1.457c0,0.436-0.104,0.784-0.313,1.044          c-0.208,0.262-0.483,0.391-0.828,0.391c-0.273,0-0.515-0.076-0.725-0.23c-0.208-0.155-0.357-0.369-0.445-0.64h-0.012          c-0.039,0.337-0.166,0.606-0.384,0.811c-0.217,0.2-0.491,0.301-0.825,0.301c-0.427,0-0.771-0.152-1.036-0.46          c-0.263-0.306-0.396-0.697-0.396-1.177V478.241z M484.289,478.882h-1.73v0.77c0,0.334,0.076,0.594,0.231,0.775          c0.156,0.184,0.371,0.274,0.646,0.274c0.569,0,0.854-0.385,0.854-1.156V478.882z M486.4,478.882h-1.554v0.582          c0,0.311,0.074,0.553,0.226,0.73c0.15,0.176,0.359,0.264,0.627,0.264c0.468,0,0.701-0.313,0.701-0.936V478.882z" />
        <path fill="#FFFFFF" d="M483.722,484.104v-1.888h0.483v1.888H483.722z" />
        <path fill="#FFFFFF" d="M481.998,487.916v-3.019h0.544l1.439,1.439c0.396,0.399,0.711,0.664,0.943,0.8          c0.231,0.134,0.472,0.202,0.719,0.202c0.283,0,0.5-0.08,0.65-0.237c0.15-0.158,0.226-0.387,0.226-0.688          c0-0.441-0.188-0.863-0.563-1.265h0.637c0.302,0.391,0.451,0.847,0.451,1.364c0,0.447-0.119,0.801-0.361,1.059          c-0.241,0.259-0.566,0.387-0.975,0.387c-0.307,0-0.608-0.082-0.904-0.248c-0.296-0.165-0.674-0.479-1.13-0.939l-1.105-1.133          h-0.013v2.277H481.998z" />
        <path fill="#FFFFFF" d="M482.672,488.998c-0.16,0.273-0.238,0.567-0.238,0.885c0,0.443,0.175,0.788,0.525,1.034          c0.35,0.243,0.849,0.366,1.493,0.366c-0.004-0.005-0.004-0.01,0-0.014c-0.414-0.218-0.622-0.584-0.622-1.099          c0-0.417,0.145-0.762,0.43-1.036c0.286-0.272,0.658-0.41,1.115-0.41c0.487,0,0.888,0.151,1.2,0.449          c0.313,0.299,0.469,0.687,0.469,1.162c0,0.496-0.193,0.88-0.58,1.159c-0.389,0.276-0.952,0.416-1.693,0.416          c-0.917,0-1.622-0.181-2.116-0.54c-0.493-0.356-0.74-0.854-0.74-1.488c0-0.349,0.057-0.644,0.17-0.885H482.672z           M485.455,489.36c-0.333,0-0.597,0.084-0.793,0.256c-0.195,0.172-0.292,0.406-0.292,0.709c0,0.26,0.088,0.479,0.267,0.657          c0.178,0.176,0.395,0.266,0.648,0.266c0.357,0,0.652-0.088,0.887-0.265c0.235-0.177,0.351-0.408,0.351-0.698          c0-0.266-0.102-0.487-0.305-0.663C486.015,489.448,485.761,489.36,485.455,489.36z" />
      </g>
      <g>
        <path fill="#FFFFFF" d="M503.874,448.398h4.964v1.459c0,0.436-0.104,0.782-0.313,1.045c-0.208,0.26-0.483,0.39-0.828,0.39          c-0.273,0-0.514-0.076-0.724-0.232c-0.21-0.155-0.357-0.368-0.446-0.639h-0.012c-0.039,0.337-0.166,0.605-0.384,0.808          c-0.217,0.202-0.491,0.304-0.825,0.304c-0.427,0-0.772-0.152-1.036-0.459s-0.396-0.699-0.396-1.179V448.398z           M506.165,449.039h-1.731v0.77c0,0.336,0.078,0.594,0.232,0.776c0.155,0.183,0.371,0.273,0.646,0.273          c0.568,0,0.853-0.385,0.853-1.155V449.039z M508.277,449.039h-1.555v0.585c0,0.31,0.075,0.551,0.226,0.728          c0.15,0.176,0.359,0.265,0.627,0.265c0.468,0,0.702-0.313,0.702-0.936V449.039z" />
        <path fill="#FFFFFF" d="M505.598,454.264v-1.89h0.483v1.89H505.598z" />
        <path fill="#FFFFFF" d="M505.162,458.33v-0.636h-1.288v-0.607h1.288v-2.313h0.406l3.27,2.194v0.727h-3.179v0.636H505.162z           M505.659,457.087h2.079c0.147,0,0.317,0.004,0.51,0.012v-0.012c-0.081-0.031-0.209-0.094-0.381-0.191l-2.208-1.476V457.087          z" />
        <path fill="#FFFFFF" d="M505.162,462.177v-0.634h-1.288v-0.609h1.288v-2.312h0.406l3.27,2.193v0.728h-3.179v0.634H505.162z           M505.659,460.934h2.079c0.147,0,0.317,0.005,0.51,0.014v-0.014c-0.081-0.029-0.209-0.092-0.381-0.188l-2.208-1.477V460.934          z" />
      </g>
      <g>
        <path fill="#FFFFFF" d="M493.004,448.398h4.963v1.459c0,0.436-0.104,0.782-0.312,1.045c-0.208,0.26-0.484,0.39-0.829,0.39          c-0.273,0-0.515-0.076-0.723-0.232c-0.21-0.155-0.359-0.368-0.446-0.639h-0.014c-0.037,0.337-0.166,0.605-0.382,0.808          c-0.217,0.202-0.493,0.304-0.825,0.304c-0.429,0-0.773-0.152-1.037-0.459s-0.396-0.699-0.396-1.179V448.398z           M495.295,449.039h-1.73v0.77c0,0.336,0.078,0.594,0.232,0.776s0.37,0.273,0.646,0.273c0.568,0,0.853-0.385,0.853-1.155          V449.039z M497.407,449.039h-1.555v0.585c0,0.31,0.075,0.551,0.226,0.728c0.15,0.176,0.359,0.265,0.628,0.265          c0.467,0,0.701-0.313,0.701-0.936V449.039z" />
        <path fill="#FFFFFF" d="M494.728,454.264v-1.89h0.484v1.89H494.728z" />
        <path fill="#FFFFFF" d="M494.291,458.33v-0.636h-1.287v-0.607h1.287v-2.313h0.408l3.268,2.194v0.727h-3.179v0.636H494.291z           M494.788,457.087h2.081c0.147,0,0.316,0.004,0.509,0.012v-0.012c-0.082-0.031-0.208-0.094-0.382-0.191l-2.208-1.476          V457.087z" />
        <path fill="#FFFFFF" d="M493.767,459.131c-0.218,0.333-0.327,0.681-0.327,1.042c0,0.341,0.096,0.617,0.287,0.826          c0.19,0.209,0.445,0.314,0.761,0.314c0.318,0,0.564-0.106,0.74-0.32c0.175-0.213,0.263-0.521,0.263-0.923          c0-0.196-0.015-0.458-0.045-0.785h2.521v2.442h-0.554v-1.858h-1.404c0.011,0.186,0.017,0.325,0.017,0.419          c0,0.523-0.132,0.93-0.397,1.224c-0.265,0.293-0.63,0.438-1.096,0.438c-0.48,0-0.87-0.156-1.166-0.47          c-0.297-0.314-0.445-0.748-0.445-1.302c0-0.465,0.067-0.813,0.204-1.048H493.767z" />
      </g>
      <g>
        <path fill="#FFFFFF" d="M482.065,447.988h4.964v1.459c0,0.436-0.104,0.782-0.313,1.045c-0.208,0.26-0.484,0.39-0.828,0.39          c-0.273,0-0.515-0.078-0.725-0.232c-0.209-0.155-0.357-0.368-0.444-0.639h-0.014c-0.037,0.338-0.166,0.607-0.384,0.81          c-0.215,0.201-0.491,0.302-0.823,0.302c-0.429,0-0.773-0.153-1.038-0.461c-0.264-0.306-0.396-0.697-0.396-1.177V447.988z           M484.357,448.629h-1.73v0.77c0,0.337,0.077,0.594,0.232,0.776c0.154,0.183,0.37,0.273,0.646,0.273          c0.567,0,0.853-0.385,0.853-1.156V448.629z M486.469,448.629h-1.555v0.585c0,0.31,0.076,0.55,0.227,0.728          c0.149,0.176,0.359,0.264,0.626,0.264c0.469,0,0.702-0.311,0.702-0.935V448.629z" />
        <path fill="#FFFFFF" d="M483.789,453.854v-1.89h0.485v1.89H483.789z" />
        <path fill="#FFFFFF" d="M483.354,457.919v-0.635h-1.288v-0.607h1.288v-2.313h0.406l3.27,2.195v0.726h-3.179v0.635H483.354z           M483.851,456.677h2.08c0.147,0,0.316,0.004,0.51,0.013v-0.013c-0.082-0.031-0.209-0.094-0.382-0.189l-2.208-1.478V456.677z          " />
        <path fill="#FFFFFF" d="M486.393,461.415c0.132-0.258,0.198-0.528,0.198-0.811c0-0.43-0.188-0.774-0.562-1.035          c-0.374-0.26-0.884-0.394-1.531-0.396v0.016c0.455,0.234,0.683,0.609,0.683,1.126c0,0.428-0.141,0.771-0.419,1.026          c-0.28,0.258-0.652,0.387-1.116,0.387c-0.485,0-0.884-0.15-1.195-0.444c-0.313-0.296-0.468-0.675-0.468-1.132          c0-0.506,0.196-0.901,0.591-1.189c0.395-0.287,0.953-0.431,1.678-0.431c0.876,0,1.571,0.188,2.088,0.565          s0.774,0.874,0.774,1.488c0,0.354-0.049,0.631-0.144,0.83H486.393z M483.69,459.211c-0.327,0-0.606,0.087-0.84,0.262          c-0.232,0.173-0.35,0.403-0.35,0.694c0,0.271,0.101,0.494,0.303,0.665c0.199,0.171,0.458,0.257,0.775,0.257          c0.341,0,0.606-0.08,0.797-0.242c0.189-0.161,0.285-0.392,0.285-0.688c0-0.282-0.096-0.511-0.289-0.685          C484.181,459.298,483.954,459.211,483.69,459.211z" />
      </g>
      <g>
        <path fill="#FFFFFF" d="M466.069,447.988h4.963v1.459c0,0.436-0.104,0.782-0.312,1.045c-0.208,0.26-0.485,0.39-0.829,0.39          c-0.273,0-0.516-0.078-0.725-0.232c-0.209-0.155-0.357-0.368-0.445-0.639h-0.013c-0.038,0.338-0.166,0.607-0.383,0.81          c-0.216,0.201-0.492,0.302-0.824,0.302c-0.428,0-0.774-0.153-1.037-0.461c-0.265-0.306-0.396-0.697-0.396-1.177V447.988z           M468.36,448.629h-1.731v0.77c0,0.337,0.078,0.594,0.232,0.776c0.155,0.183,0.37,0.273,0.646,0.273          c0.568,0,0.853-0.385,0.853-1.156V448.629z M470.471,448.629h-1.553v0.585c0,0.31,0.075,0.55,0.225,0.728          c0.151,0.176,0.359,0.264,0.627,0.264c0.468,0,0.701-0.311,0.701-0.935V448.629z" />
        <path fill="#FFFFFF" d="M467.793,453.854v-1.89h0.483v1.89H467.793z" />
        <path fill="#FFFFFF" d="M467.357,457.919v-0.635h-1.288v-0.607h1.288v-2.313h0.406l3.269,2.195v0.726h-3.179v0.635H467.357z           M467.854,456.677h2.08c0.146,0,0.317,0.004,0.509,0.013v-0.013c-0.081-0.031-0.208-0.094-0.38-0.189l-2.209-1.478V456.677z          " />
        <path fill="#FFFFFF" d="M470.814,461.682l-4.745-1.942v-0.65l4.409,1.845v-2.478h0.554v3.226H470.814z" />
      </g>
      <g>
        <path fill="#FFFFFF" d="M455.129,447.988h4.965v1.459c0,0.436-0.104,0.782-0.313,1.045c-0.209,0.26-0.483,0.39-0.829,0.39          c-0.273,0-0.515-0.078-0.724-0.232c-0.209-0.155-0.358-0.368-0.445-0.639h-0.014c-0.038,0.338-0.165,0.607-0.383,0.81          c-0.217,0.201-0.491,0.302-0.824,0.302c-0.428,0-0.772-0.153-1.037-0.461c-0.264-0.306-0.396-0.697-0.396-1.177V447.988z           M457.421,448.629h-1.73v0.77c0,0.337,0.078,0.594,0.232,0.776c0.155,0.183,0.37,0.273,0.646,0.273          c0.569,0,0.853-0.385,0.853-1.156V448.629z M459.532,448.629h-1.554v0.585c0,0.31,0.074,0.55,0.226,0.728          c0.15,0.176,0.359,0.264,0.627,0.264c0.468,0,0.701-0.311,0.701-0.935V448.629z" />
        <path fill="#FFFFFF" d="M456.854,453.854v-1.89h0.483v1.89H456.854z" />
        <path fill="#FFFFFF" d="M456.418,457.919v-0.635h-1.289v-0.607h1.289v-2.313h0.406l3.27,2.195v0.726h-3.179v0.635H456.418z           M456.915,456.677h2.079c0.148,0,0.317,0.004,0.511,0.013v-0.013c-0.083-0.031-0.21-0.094-0.383-0.189l-2.207-1.478V456.677          z" />
        <path fill="#FFFFFF" d="M457.742,459.556c0.274-0.59,0.674-0.887,1.197-0.887c0.367,0,0.663,0.141,0.893,0.416          c0.23,0.278,0.344,0.633,0.344,1.066c0,0.393-0.106,0.72-0.323,0.976c-0.216,0.257-0.493,0.385-0.835,0.385          c-0.554,0-0.976-0.31-1.273-0.927h-0.013c-0.26,0.724-0.705,1.087-1.332,1.087c-0.414,0-0.741-0.147-0.987-0.448          c-0.243-0.297-0.365-0.713-0.365-1.247c0-0.438,0.12-0.795,0.362-1.07c0.24-0.275,0.554-0.415,0.938-0.415          c0.633,0,1.092,0.357,1.381,1.064H457.742z M457.443,460.045c-0.248-0.615-0.603-0.921-1.064-0.921          c-0.239,0-0.436,0.09-0.589,0.27c-0.154,0.18-0.23,0.414-0.23,0.702c0,0.28,0.076,0.507,0.228,0.682          c0.154,0.176,0.345,0.263,0.572,0.263C456.841,461.04,457.201,460.707,457.443,460.045z M458.943,460.877          c0.222,0,0.396-0.069,0.526-0.207c0.127-0.139,0.192-0.328,0.192-0.564c0-0.223-0.068-0.413-0.202-0.566          c-0.132-0.156-0.303-0.236-0.511-0.236c-0.415,0-0.729,0.261-0.945,0.78C458.224,460.612,458.537,460.877,458.943,460.877z" />
      </g>
    </g>
  </g>
</svg>
