<!DOCTYPE svg PUBLIC "-//W3C//DTD SVG 1.1//EN" "http://www.w3.org/Graphics/SVG/1.1/DTD/svg11.dtd">
<svg xmlns="http://www.w3.org/2000/svg" xmlns:xlink="http://www.w3.org/1999/xlink" version="1.1" id="图层_1" x="0px" y="0px" width="1028px" height="680px" viewBox="0 0 1028 680" enable-background="new 0 0 1028 680" xml:space="preserve" xmlns:xml="http://www.w3.org/XML/1998/namespace">
  <g>
    <path fill="#F6AA00" d="M359,445.238c-13.315,0-26.629,0-39.942,0c-2.811,0-5.09,2.278-5.09,5.088c0,13.427,0,26.851,0,40.278        c0,2.809,2.279,5.088,5.09,5.088c13.314,0,26.628,0,39.942,0V445.238z" />
    <g>
      <rect x="321.074" y="447.782" fill="none" stroke="#FFFFFF" stroke-width="1.8725" width="5.088" height="5.089" />
      <rect x="320.863" y="485.729" fill="none" stroke="#FFFFFF" stroke-width="1.8725" width="5.511" height="5.51" />

      <line fill="none" stroke="#FFFFFF" stroke-width="0.9362" stroke-linecap="round" stroke-linejoin="round" x1="337.353" y1="448.206" x2="337.343" y2="448.206" />
      <path fill="none" stroke="#FFFFFF" stroke-width="0.9362" stroke-linecap="round" stroke-linejoin="round" d="         M348.901,448.945c0-0.521-0.216-0.739-0.738-0.739" />
      <path fill="none" stroke="#FFFFFF" stroke-width="0.9362" stroke-linecap="round" stroke-linejoin="round" d="         M348.156,448.206c-0.523,0-0.738,0.218-0.738,0.739" />
      <path fill="none" stroke="#FFFFFF" stroke-width="0.9362" stroke-linecap="round" stroke-linejoin="round" d="         M338.091,448.945c0-0.521-0.217-0.739-0.738-0.739" />
      <path fill="none" stroke="#FFFFFF" stroke-width="0.9362" stroke-linecap="round" stroke-linejoin="round" d="         M337.343,448.206c-0.521,0-0.736,0.218-0.736,0.739" />

      <line fill="none" stroke="#FFFFFF" stroke-width="0.9362" stroke-linecap="round" stroke-linejoin="round" x1="358.229" y1="470.677" x2="358.229" y2="448.206" />

      <line fill="none" stroke="#FFFFFF" stroke-width="0.9362" stroke-linecap="round" stroke-linejoin="round" x1="327.278" y1="470.677" x2="327.278" y2="448.206" />

      <line fill="none" stroke="#FFFFFF" stroke-width="0.9362" stroke-linecap="round" stroke-linejoin="round" x1="348.901" y1="470.677" x2="348.901" y2="448.945" />

      <line fill="none" stroke="#FFFFFF" stroke-width="0.9362" stroke-linecap="round" stroke-linejoin="round" x1="347.418" y1="470.677" x2="347.418" y2="448.945" />

      <line fill="none" stroke="#FFFFFF" stroke-width="0.9362" stroke-linecap="round" stroke-linejoin="round" x1="338.091" y1="470.677" x2="338.091" y2="448.945" />

      <line fill="none" stroke="#FFFFFF" stroke-width="0.9362" stroke-linecap="round" stroke-linejoin="round" x1="336.606" y1="470.677" x2="336.606" y2="448.945" />

      <line fill="none" stroke="#FFFFFF" stroke-width="0.9362" stroke-linecap="round" stroke-linejoin="round" x1="358.229" y1="470.677" x2="327.278" y2="470.677" />

      <line fill="none" stroke="#FFFFFF" stroke-width="0.9362" stroke-linecap="round" stroke-linejoin="round" x1="348.156" y1="493.146" x2="348.163" y2="493.146" />
      <path fill="none" stroke="#FFFFFF" stroke-width="0.9362" stroke-linecap="round" stroke-linejoin="round" d="         M336.606,492.409c0,0.522,0.215,0.737,0.736,0.737" />
      <path fill="none" stroke="#FFFFFF" stroke-width="0.9362" stroke-linecap="round" stroke-linejoin="round" d="         M337.353,493.146c0.521,0,0.738-0.215,0.738-0.737" />
      <path fill="none" stroke="#FFFFFF" stroke-width="0.9362" stroke-linecap="round" stroke-linejoin="round" d="         M347.418,492.409c0,0.522,0.215,0.737,0.738,0.737" />
      <path fill="none" stroke="#FFFFFF" stroke-width="0.9362" stroke-linecap="round" stroke-linejoin="round" d="         M348.163,493.146c0.522,0,0.738-0.215,0.738-0.737" />

      <line fill="none" stroke="#FFFFFF" stroke-width="0.9362" stroke-linecap="round" stroke-linejoin="round" x1="327.278" y1="470.677" x2="327.278" y2="493.146" />

      <line fill="none" stroke="#FFFFFF" stroke-width="0.9362" stroke-linecap="round" stroke-linejoin="round" x1="358.229" y1="470.677" x2="358.229" y2="493.146" />

      <line fill="none" stroke="#FFFFFF" stroke-width="0.9362" stroke-linecap="round" stroke-linejoin="round" x1="336.606" y1="470.677" x2="336.606" y2="492.409" />

      <line fill="none" stroke="#FFFFFF" stroke-width="0.9362" stroke-linecap="round" stroke-linejoin="round" x1="338.091" y1="470.677" x2="338.091" y2="492.409" />

      <line fill="none" stroke="#FFFFFF" stroke-width="0.9362" stroke-linecap="round" stroke-linejoin="round" x1="347.418" y1="470.677" x2="347.418" y2="492.409" />

      <line fill="none" stroke="#FFFFFF" stroke-width="0.9362" stroke-linecap="round" stroke-linejoin="round" x1="348.901" y1="470.677" x2="348.901" y2="492.409" />

      <rect x="316.513" y="456.302" fill="none" stroke="#FFFFFF" stroke-width="0.9362" stroke-linecap="round" stroke-linejoin="round" width="10.177" height="25.438" />
      <g>
        <path fill="#FFFFFF" d="M351.012,448.912h4.964v1.458c0,0.436-0.104,0.785-0.312,1.045s-0.485,0.391-0.829,0.391          c-0.273,0-0.515-0.077-0.725-0.232c-0.209-0.154-0.357-0.367-0.444-0.64h-0.013c-0.04,0.34-0.167,0.607-0.385,0.81          c-0.215,0.203-0.491,0.304-0.824,0.304c-0.428,0-0.772-0.154-1.036-0.46c-0.265-0.308-0.396-0.7-0.396-1.179V448.912z           M353.304,449.554h-1.73v0.77c0,0.333,0.077,0.594,0.232,0.776c0.154,0.184,0.37,0.274,0.646,0.274          c0.567,0,0.853-0.387,0.853-1.158V449.554z M355.416,449.554h-1.555v0.582c0,0.311,0.075,0.554,0.226,0.729          c0.15,0.178,0.36,0.266,0.626,0.266c0.469,0,0.703-0.313,0.703-0.936V449.554z" />
        <path fill="#FFFFFF" d="M352.735,454.775v-1.887h0.485v1.887H352.735z" />
        <path fill="#FFFFFF" d="M351.012,458.679v-2.845h0.542v1.112h3.77l-0.331-1.142h0.577l0.513,1.767h-4.528v1.107H351.012z" />
        <path fill="#FFFFFF" d="M351.775,459.646c-0.22,0.331-0.327,0.68-0.327,1.04c0,0.341,0.096,0.617,0.287,0.826          c0.189,0.211,0.445,0.315,0.761,0.315c0.319,0,0.566-0.106,0.74-0.319c0.174-0.211,0.264-0.52,0.264-0.925          c0-0.195-0.016-0.456-0.046-0.785h2.521v2.442h-0.555v-1.859h-1.402c0.011,0.187,0.016,0.325,0.016,0.421          c0,0.522-0.133,0.932-0.397,1.223c-0.265,0.293-0.63,0.438-1.096,0.438c-0.48,0-0.87-0.155-1.166-0.47          c-0.297-0.313-0.445-0.747-0.445-1.302c0-0.462,0.067-0.813,0.204-1.046H351.775z" />
      </g>
      <g>
        <path fill="#FFFFFF" d="M340.142,448.912h4.964v1.458c0,0.436-0.104,0.785-0.312,1.045c-0.209,0.26-0.484,0.391-0.829,0.391          c-0.272,0-0.515-0.077-0.724-0.232c-0.211-0.154-0.358-0.367-0.446-0.64h-0.013c-0.038,0.34-0.165,0.607-0.383,0.81          c-0.217,0.203-0.491,0.304-0.824,0.304c-0.428,0-0.774-0.154-1.038-0.46c-0.264-0.308-0.396-0.7-0.396-1.179V448.912z           M342.433,449.554h-1.729v0.77c0,0.333,0.077,0.594,0.231,0.776c0.155,0.184,0.371,0.274,0.646,0.274          c0.568,0,0.853-0.387,0.853-1.158V449.554z M344.545,449.554h-1.555v0.582c0,0.311,0.076,0.554,0.227,0.729          c0.151,0.178,0.359,0.266,0.627,0.266c0.468,0,0.701-0.313,0.701-0.936V449.554z" />
        <path fill="#FFFFFF" d="M341.867,454.775v-1.887h0.482v1.887H341.867z" />
        <path fill="#FFFFFF" d="M340.142,458.679v-2.845h0.542v1.112h3.769l-0.329-1.142h0.575l0.514,1.767h-4.528v1.107H340.142z" />
        <path fill="#FFFFFF" d="M341.431,462.691v-0.636h-1.289v-0.607h1.289v-2.313h0.407l3.268,2.194v0.727h-3.178v0.636H341.431z           M341.928,461.448h2.079c0.147,0,0.316,0.004,0.509,0.013v-0.013c-0.081-0.029-0.208-0.093-0.381-0.189l-2.207-1.477          V461.448z" />
      </g>
      <g>
        <path fill="#FFFFFF" d="M329.204,448.502h4.964v1.459c0,0.435-0.104,0.784-0.313,1.044s-0.485,0.391-0.827,0.391          c-0.274,0-0.516-0.077-0.725-0.232c-0.209-0.154-0.358-0.367-0.446-0.64h-0.013c-0.038,0.338-0.165,0.607-0.383,0.81          c-0.217,0.203-0.491,0.304-0.825,0.304c-0.429,0-0.773-0.154-1.037-0.46c-0.264-0.308-0.396-0.699-0.396-1.178V448.502z           M331.495,449.144h-1.73v0.77c0,0.335,0.077,0.593,0.232,0.776c0.156,0.182,0.371,0.274,0.646,0.274          c0.568,0,0.853-0.386,0.853-1.156V449.144z M333.607,449.144h-1.556v0.582c0,0.311,0.076,0.554,0.228,0.729          c0.15,0.175,0.359,0.265,0.625,0.265c0.47,0,0.703-0.313,0.703-0.937V449.144z" />
        <path fill="#FFFFFF" d="M330.928,454.365v-1.887h0.484v1.887H330.928z" />
        <path fill="#FFFFFF" d="M329.204,458.269v-2.845h0.542v1.112h3.769l-0.33-1.142h0.576l0.514,1.767h-4.528v1.107H329.204z" />
        <path fill="#FFFFFF" d="M330.034,459.125c-0.263,0.339-0.395,0.723-0.395,1.15c0,0.341,0.084,0.613,0.252,0.813          c0.167,0.198,0.394,0.299,0.675,0.299c0.628,0,0.941-0.449,0.941-1.35v-0.413h0.519v0.395c0,0.796,0.295,1.194,0.886,1.194          c0.546,0,0.817-0.303,0.817-0.913c0-0.347-0.117-0.676-0.353-0.982h0.592c0.189,0.323,0.282,0.703,0.282,1.137          c0,0.424-0.11,0.762-0.33,1.02c-0.223,0.255-0.51,0.385-0.861,0.385c-0.649,0-1.066-0.332-1.253-0.995h-0.013          c-0.039,0.359-0.165,0.644-0.381,0.852c-0.214,0.209-0.481,0.313-0.803,0.313c-0.445,0-0.806-0.16-1.079-0.482          s-0.41-0.75-0.41-1.282c0-0.472,0.087-0.851,0.263-1.139H330.034z" />
      </g>
      <g>
        <path fill="#FFFFFF" d="M351.012,478.651h4.964v1.459c0,0.434-0.104,0.782-0.312,1.042          c-0.208,0.262-0.485,0.391-0.829,0.391c-0.273,0-0.515-0.076-0.725-0.231c-0.209-0.154-0.357-0.367-0.444-0.639h-0.013          c-0.04,0.337-0.167,0.606-0.385,0.808c-0.215,0.203-0.491,0.304-0.824,0.304c-0.428,0-0.772-0.152-1.036-0.46          c-0.265-0.306-0.396-0.698-0.396-1.177V478.651z M353.304,479.291h-1.73v0.77c0,0.335,0.077,0.595,0.232,0.776          c0.154,0.184,0.37,0.274,0.646,0.274c0.567,0,0.853-0.386,0.853-1.157V479.291z M355.416,479.291h-1.555v0.583          c0,0.31,0.075,0.553,0.226,0.73c0.15,0.174,0.36,0.264,0.626,0.264c0.469,0,0.703-0.313,0.703-0.937V479.291z" />
        <path fill="#FFFFFF" d="M352.735,484.517v-1.89h0.485v1.89H352.735z" />
        <path fill="#FFFFFF" d="M351.012,488.325v-3.018h0.544l1.439,1.44c0.397,0.398,0.713,0.663,0.944,0.798          s0.472,0.203,0.72,0.203c0.281,0,0.498-0.08,0.649-0.237c0.149-0.158,0.225-0.388,0.225-0.688          c0-0.441-0.188-0.863-0.563-1.265h0.638c0.301,0.392,0.452,0.847,0.452,1.364c0,0.447-0.121,0.798-0.361,1.059          c-0.242,0.259-0.567,0.388-0.976,0.388c-0.307,0-0.609-0.083-0.906-0.249c-0.295-0.165-0.671-0.479-1.128-0.939          l-1.105-1.133h-0.013v2.276H351.012z" />
        <path fill="#FFFFFF" d="M353.396,489.105c0.876,0,1.539,0.146,1.989,0.438c0.45,0.29,0.675,0.711,0.675,1.263          c0,1.05-0.848,1.576-2.544,1.576c-0.838,0-1.479-0.147-1.921-0.444c-0.444-0.295-0.665-0.71-0.665-1.244          c0-0.504,0.21-0.896,0.63-1.171C351.981,489.245,352.593,489.105,353.396,489.105z M353.426,489.748          c-1.319,0-1.978,0.334-1.978,1.003c0,0.657,0.669,0.987,2.01,0.987c1.386,0,2.079-0.323,2.079-0.968          C355.537,490.088,354.833,489.748,353.426,489.748z" />
      </g>
      <g>
        <path fill="#FFFFFF" d="M340.142,478.651h4.964v1.459c0,0.434-0.104,0.782-0.312,1.042          c-0.209,0.262-0.484,0.391-0.829,0.391c-0.272,0-0.515-0.076-0.724-0.231c-0.211-0.154-0.358-0.367-0.446-0.639h-0.013          c-0.038,0.337-0.165,0.606-0.383,0.808c-0.217,0.203-0.491,0.304-0.824,0.304c-0.428,0-0.774-0.152-1.038-0.46          c-0.264-0.306-0.396-0.698-0.396-1.177V478.651z M342.433,479.291h-1.729v0.77c0,0.335,0.077,0.595,0.231,0.776          c0.155,0.184,0.371,0.274,0.646,0.274c0.568,0,0.853-0.386,0.853-1.157V479.291z M344.545,479.291h-1.555v0.583          c0,0.31,0.076,0.553,0.227,0.73c0.151,0.174,0.359,0.264,0.627,0.264c0.468,0,0.701-0.313,0.701-0.937V479.291z" />
        <path fill="#FFFFFF" d="M341.867,484.517v-1.89h0.482v1.89H341.867z" />
        <path fill="#FFFFFF" d="M340.142,488.418v-2.846h0.542v1.112h3.769l-0.329-1.143h0.575l0.514,1.768h-4.528v1.108H340.142z" />
        <path fill="#FFFFFF" d="M340.815,489.409c-0.158,0.272-0.238,0.566-0.238,0.884c0,0.443,0.177,0.788,0.526,1.034          c0.35,0.243,0.848,0.366,1.494,0.366c-0.005-0.005-0.005-0.01,0-0.012c-0.415-0.22-0.623-0.586-0.623-1.102          c0-0.416,0.144-0.761,0.43-1.035c0.286-0.272,0.658-0.41,1.115-0.41c0.487,0,0.887,0.15,1.201,0.449          c0.312,0.299,0.469,0.687,0.469,1.165c0,0.493-0.194,0.878-0.581,1.156c-0.389,0.275-0.952,0.416-1.695,0.416          c-0.916,0-1.619-0.181-2.114-0.538c-0.493-0.359-0.74-0.856-0.74-1.49c0-0.349,0.058-0.643,0.169-0.884H340.815z           M343.601,489.771c-0.334,0-0.598,0.087-0.794,0.256c-0.196,0.172-0.294,0.406-0.294,0.709c0,0.26,0.09,0.479,0.269,0.656          c0.178,0.177,0.395,0.267,0.648,0.267c0.356,0,0.653-0.09,0.887-0.265c0.233-0.177,0.351-0.408,0.351-0.695          c0-0.269-0.102-0.49-0.305-0.666C344.159,489.858,343.905,489.771,343.601,489.771z" />
      </g>
      <g>
        <path fill="#FFFFFF" d="M329.204,478.241h4.964v1.457c0,0.436-0.104,0.784-0.313,1.044          c-0.208,0.262-0.485,0.391-0.827,0.391c-0.274,0-0.516-0.076-0.725-0.23c-0.209-0.155-0.358-0.369-0.446-0.64h-0.013          c-0.038,0.337-0.165,0.606-0.383,0.811c-0.217,0.2-0.491,0.301-0.825,0.301c-0.429,0-0.773-0.152-1.037-0.46          c-0.264-0.306-0.396-0.697-0.396-1.177V478.241z M331.495,478.882h-1.73v0.77c0,0.334,0.077,0.594,0.232,0.775          c0.156,0.184,0.371,0.274,0.646,0.274c0.568,0,0.853-0.385,0.853-1.156V478.882z M333.607,478.882h-1.556v0.582          c0,0.311,0.076,0.553,0.228,0.73c0.15,0.176,0.359,0.264,0.625,0.264c0.47,0,0.703-0.313,0.703-0.936V478.882z" />
        <path fill="#FFFFFF" d="M330.928,484.104v-1.888h0.484v1.888H330.928z" />
        <path fill="#FFFFFF" d="M329.204,488.007v-2.845h0.542v1.112h3.769l-0.33-1.141h0.576l0.514,1.766h-4.528v1.107H329.204z" />
        <path fill="#FFFFFF" d="M331.816,489.808c0.275-0.591,0.674-0.887,1.197-0.887c0.365,0,0.664,0.139,0.894,0.416          c0.229,0.279,0.344,0.633,0.344,1.065c0,0.394-0.107,0.72-0.323,0.977c-0.216,0.258-0.494,0.384-0.837,0.384          c-0.55,0-0.975-0.308-1.271-0.925h-0.013c-0.262,0.724-0.705,1.085-1.333,1.085c-0.413,0-0.742-0.148-0.986-0.446          s-0.366-0.714-0.366-1.248c0-0.438,0.12-0.796,0.361-1.069c0.242-0.277,0.556-0.415,0.939-0.415          c0.632,0,1.093,0.355,1.381,1.063H331.816z M331.518,490.296c-0.248-0.613-0.602-0.92-1.063-0.92          c-0.239,0-0.436,0.089-0.591,0.27c-0.152,0.179-0.229,0.412-0.229,0.701c0,0.281,0.076,0.507,0.229,0.684          c0.154,0.175,0.344,0.262,0.572,0.262C330.916,491.292,331.276,490.96,331.518,490.296z M333.018,491.13          c0.223,0,0.397-0.071,0.525-0.21c0.129-0.138,0.192-0.326,0.192-0.563c0-0.224-0.067-0.412-0.2-0.568          c-0.133-0.155-0.304-0.233-0.511-0.233c-0.415,0-0.73,0.261-0.946,0.779C332.299,490.863,332.612,491.13,333.018,491.13z" />
      </g>
    </g>
  </g>
</svg>
