<!DOCTYPE svg PUBLIC "-//W3C//DTD SVG 1.1//EN" "http://www.w3.org/Graphics/SVG/1.1/DTD/svg11.dtd">
<svg xmlns="http://www.w3.org/2000/svg" xmlns:xlink="http://www.w3.org/1999/xlink" version="1.1" id="图层_1" x="0px" y="0px" width="1028px" height="680px" viewBox="0 0 1028 680" enable-background="new 0 0 1028 680" xml:space="preserve" xmlns:xml="http://www.w3.org/XML/1998/namespace">
  <g>
    <rect x="364.667" y="470.186" fill="#F6AA00" width="59" height="25.5" />
    <g>
      <rect x="359.231" y="485.94" fill="none" stroke="#FFFFFF" stroke-width="1.8725" width="5.089" height="5.086" />
      <rect x="397.389" y="485.94" fill="none" stroke="#FFFFFF" stroke-width="1.8725" width="5.088" height="5.086" />

      <line fill="none" stroke="#FFFFFF" stroke-width="0.9362" stroke-linecap="round" stroke-linejoin="round" x1="386.32" y1="493.146" x2="386.329" y2="493.146" />
      <path fill="none" stroke="#FFFFFF" stroke-width="0.9362" stroke-linecap="round" stroke-linejoin="round" d="         M374.772,492.409c0,0.522,0.215,0.737,0.738,0.737" />
      <path fill="none" stroke="#FFFFFF" stroke-width="0.9362" stroke-linecap="round" stroke-linejoin="round" d="         M375.518,493.146c0.522,0,0.739-0.215,0.739-0.737" />
      <path fill="none" stroke="#FFFFFF" stroke-width="0.9362" stroke-linecap="round" stroke-linejoin="round" d="         M385.583,492.409c0,0.522,0.217,0.737,0.737,0.737" />
      <path fill="none" stroke="#FFFFFF" stroke-width="0.9362" stroke-linecap="round" stroke-linejoin="round" d="         M386.329,493.146c0.521,0,0.738-0.215,0.738-0.737" />

      <line fill="none" stroke="#FFFFFF" stroke-width="0.9362" stroke-linecap="round" stroke-linejoin="round" x1="396.395" y1="470.677" x2="396.395" y2="493.146" />

      <line fill="none" stroke="#FFFFFF" stroke-width="0.9362" stroke-linecap="round" stroke-linejoin="round" x1="374.772" y1="470.677" x2="374.772" y2="492.409" />

      <line fill="none" stroke="#FFFFFF" stroke-width="0.9362" stroke-linecap="round" stroke-linejoin="round" x1="376.257" y1="470.677" x2="376.257" y2="492.409" />

      <line fill="none" stroke="#FFFFFF" stroke-width="0.9362" stroke-linecap="round" stroke-linejoin="round" x1="385.583" y1="470.677" x2="385.583" y2="492.409" />

      <line fill="none" stroke="#FFFFFF" stroke-width="0.9362" stroke-linecap="round" stroke-linejoin="round" x1="387.067" y1="470.677" x2="387.067" y2="492.409" />

      <line fill="none" stroke="#FFFFFF" stroke-width="0.9362" stroke-linecap="round" stroke-linejoin="round" x1="365.446" y1="470.677" x2="396.395" y2="470.677" />

      <line fill="none" stroke="#FFFFFF" stroke-width="0.9362" stroke-linecap="round" stroke-linejoin="round" x1="413.07" y1="493.146" x2="413.08" y2="493.146" />
      <path fill="none" stroke="#FFFFFF" stroke-width="0.9362" stroke-linecap="round" stroke-linejoin="round" d="         M412.334,492.409c0,0.522,0.217,0.737,0.736,0.737" />
      <path fill="none" stroke="#FFFFFF" stroke-width="0.9362" stroke-linecap="round" stroke-linejoin="round" d="         M413.08,493.146c0.522,0,0.738-0.215,0.738-0.737" />

      <line fill="none" stroke="#FFFFFF" stroke-width="0.9362" stroke-linecap="round" stroke-linejoin="round" x1="403.007" y1="470.677" x2="423.145" y2="470.677" />

      <line fill="none" stroke="#FFFFFF" stroke-width="0.9362" stroke-linecap="round" stroke-linejoin="round" x1="423.145" y1="470.677" x2="423.145" y2="493.146" />

      <line fill="none" stroke="#FFFFFF" stroke-width="0.9362" stroke-linecap="round" stroke-linejoin="round" x1="403.007" y1="470.677" x2="403.007" y2="493.146" />

      <line fill="none" stroke="#FFFFFF" stroke-width="0.9362" stroke-linecap="round" stroke-linejoin="round" x1="412.334" y1="470.677" x2="412.334" y2="492.409" />

      <line fill="none" stroke="#FFFFFF" stroke-width="0.9362" stroke-linecap="round" stroke-linejoin="round" x1="413.818" y1="470.677" x2="413.818" y2="492.409" />

      <line fill="none" stroke="#FFFFFF" stroke-width="0.9362" stroke-linecap="round" stroke-linejoin="round" x1="365.446" y1="470.677" x2="365.446" y2="493.146" />
      <g>
        <path fill="#FFFFFF" d="M389.364,478.651h4.964v1.459c0,0.434-0.104,0.782-0.313,1.042          c-0.208,0.262-0.484,0.391-0.829,0.391c-0.272,0-0.514-0.076-0.724-0.231c-0.209-0.154-0.357-0.367-0.446-0.639h-0.012          c-0.039,0.337-0.166,0.606-0.384,0.808c-0.216,0.203-0.491,0.304-0.824,0.304c-0.428,0-0.773-0.152-1.037-0.46          c-0.264-0.306-0.396-0.698-0.396-1.177V478.651z M391.655,479.291h-1.729v0.77c0,0.335,0.076,0.595,0.23,0.776          c0.155,0.184,0.372,0.274,0.646,0.274c0.568,0,0.853-0.386,0.853-1.157V479.291z M393.768,479.291h-1.555v0.583          c0,0.31,0.075,0.553,0.227,0.73c0.15,0.174,0.359,0.264,0.626,0.264c0.469,0,0.702-0.313,0.702-0.937V479.291z" />
        <path fill="#FFFFFF" d="M391.088,484.517v-1.89h0.484v1.89H391.088z" />
        <path fill="#FFFFFF" d="M389.364,488.325v-3.018h0.546l1.438,1.44c0.397,0.398,0.712,0.663,0.944,0.798          c0.231,0.135,0.472,0.203,0.718,0.203c0.283,0,0.499-0.08,0.651-0.237c0.149-0.158,0.225-0.388,0.225-0.688          c0-0.441-0.188-0.863-0.564-1.265h0.639c0.301,0.392,0.452,0.847,0.452,1.364c0,0.447-0.121,0.798-0.363,1.059          c-0.241,0.259-0.565,0.388-0.974,0.388c-0.307,0-0.609-0.083-0.904-0.249c-0.297-0.165-0.674-0.479-1.131-0.939          l-1.106-1.133h-0.012v2.276H389.364z" />
        <path fill="#FFFFFF" d="M390.194,489.275c-0.263,0.337-0.395,0.722-0.395,1.149c0,0.342,0.085,0.611,0.253,0.812          c0.167,0.199,0.392,0.3,0.674,0.3c0.628,0,0.942-0.45,0.942-1.35v-0.413h0.519v0.394c0,0.797,0.294,1.196,0.884,1.196          c0.545,0,0.818-0.305,0.818-0.915c0-0.347-0.117-0.675-0.353-0.983h0.592c0.188,0.326,0.283,0.704,0.283,1.14          c0,0.422-0.111,0.761-0.333,1.019c-0.22,0.255-0.508,0.385-0.859,0.385c-0.65,0-1.067-0.331-1.254-0.993h-0.012          c-0.039,0.356-0.165,0.642-0.38,0.851c-0.215,0.207-0.482,0.312-0.803,0.312c-0.447,0-0.808-0.159-1.081-0.482          c-0.273-0.321-0.409-0.749-0.409-1.283c0-0.47,0.087-0.85,0.264-1.136H390.194z" />
      </g>
      <g>
        <path fill="#FFFFFF" d="M378.493,478.651h4.966v1.459c0,0.434-0.104,0.782-0.313,1.042          c-0.208,0.262-0.483,0.391-0.828,0.391c-0.272,0-0.515-0.076-0.725-0.231c-0.208-0.154-0.357-0.367-0.445-0.639h-0.013          c-0.038,0.337-0.167,0.606-0.383,0.808c-0.217,0.203-0.491,0.304-0.825,0.304c-0.427,0-0.771-0.152-1.037-0.46          c-0.264-0.306-0.396-0.698-0.396-1.177V478.651z M380.785,479.291h-1.73v0.77c0,0.335,0.077,0.595,0.232,0.776          c0.155,0.184,0.371,0.274,0.646,0.274c0.567,0,0.852-0.386,0.852-1.157V479.291z M382.897,479.291h-1.555v0.583          c0,0.31,0.075,0.553,0.227,0.73c0.15,0.174,0.359,0.264,0.627,0.264c0.467,0,0.701-0.313,0.701-0.937V479.291z" />
        <path fill="#FFFFFF" d="M380.218,484.517v-1.89h0.485v1.89H380.218z" />
        <path fill="#FFFFFF" d="M378.493,488.325v-3.018h0.546l1.438,1.44c0.397,0.398,0.712,0.663,0.944,0.798          c0.231,0.135,0.472,0.203,0.719,0.203c0.283,0,0.499-0.08,0.65-0.237c0.15-0.158,0.225-0.388,0.225-0.688          c0-0.441-0.188-0.863-0.564-1.265h0.639c0.301,0.392,0.452,0.847,0.452,1.364c0,0.447-0.121,0.798-0.362,1.059          c-0.241,0.259-0.566,0.388-0.976,0.388c-0.306,0-0.608-0.083-0.904-0.249c-0.297-0.165-0.673-0.479-1.129-0.939          l-1.105-1.133h-0.014v2.276H378.493z" />
        <path fill="#FFFFFF" d="M378.493,492.174v-3.02h0.546l1.438,1.443c0.397,0.397,0.712,0.664,0.944,0.798          c0.231,0.135,0.472,0.201,0.719,0.201c0.283,0,0.499-0.079,0.65-0.236c0.15-0.158,0.225-0.387,0.225-0.687          c0-0.441-0.188-0.864-0.564-1.265h0.639c0.301,0.391,0.452,0.845,0.452,1.363c0,0.448-0.121,0.801-0.362,1.059          c-0.241,0.259-0.566,0.387-0.976,0.387c-0.306,0-0.608-0.082-0.904-0.247c-0.297-0.165-0.673-0.479-1.129-0.94l-1.105-1.132          h-0.014v2.275H378.493z" />
      </g>
      <g>
        <path fill="#FFFFFF" d="M367.556,478.241h4.965v1.457c0,0.436-0.104,0.784-0.313,1.044          c-0.208,0.262-0.485,0.391-0.828,0.391c-0.273,0-0.516-0.076-0.724-0.23c-0.211-0.155-0.359-0.369-0.446-0.64h-0.014          c-0.037,0.337-0.166,0.606-0.382,0.811c-0.217,0.2-0.492,0.301-0.825,0.301c-0.427,0-0.773-0.152-1.038-0.46          c-0.264-0.306-0.396-0.697-0.396-1.177V478.241z M369.848,478.882h-1.73v0.77c0,0.334,0.077,0.594,0.233,0.775          c0.153,0.184,0.37,0.274,0.645,0.274c0.568,0,0.853-0.385,0.853-1.156V478.882z M371.959,478.882h-1.554v0.582          c0,0.311,0.075,0.553,0.226,0.73c0.151,0.176,0.359,0.264,0.626,0.264c0.469,0,0.702-0.313,0.702-0.936V478.882z" />
        <path fill="#FFFFFF" d="M369.279,484.104v-1.888h0.485v1.888H369.279z" />
        <path fill="#FFFFFF" d="M367.556,487.916v-3.019h0.546l1.439,1.439c0.396,0.399,0.711,0.664,0.942,0.8          c0.232,0.134,0.473,0.202,0.721,0.202c0.282,0,0.497-0.08,0.647-0.237c0.152-0.158,0.228-0.387,0.228-0.688          c0-0.441-0.189-0.863-0.564-1.265h0.637c0.302,0.391,0.452,0.847,0.452,1.364c0,0.447-0.121,0.801-0.363,1.059          c-0.24,0.259-0.565,0.387-0.974,0.387c-0.307,0-0.608-0.082-0.904-0.248c-0.297-0.165-0.673-0.479-1.13-0.939l-1.105-1.133          h-0.014v2.277H367.556z" />
        <path fill="#FFFFFF" d="M367.556,491.855v-2.845h0.542v1.111h3.769l-0.329-1.14h0.575l0.513,1.765h-4.527v1.108H367.556z" />
      </g>
      <g>
        <path fill="#FFFFFF" d="M416.025,478.651h4.965v1.459c0,0.434-0.104,0.782-0.313,1.042          c-0.209,0.262-0.483,0.391-0.828,0.391c-0.273,0-0.516-0.076-0.725-0.231c-0.21-0.154-0.357-0.367-0.445-0.639h-0.014          c-0.038,0.337-0.165,0.606-0.382,0.808c-0.218,0.203-0.492,0.304-0.825,0.304c-0.428,0-0.772-0.152-1.038-0.46          c-0.262-0.306-0.396-0.698-0.396-1.177V478.651z M418.316,479.291h-1.729v0.77c0,0.335,0.077,0.595,0.232,0.776          c0.154,0.184,0.37,0.274,0.646,0.274c0.568,0,0.852-0.386,0.852-1.157V479.291z M420.429,479.291h-1.553v0.583          c0,0.31,0.073,0.553,0.225,0.73c0.151,0.174,0.36,0.264,0.627,0.264c0.468,0,0.701-0.313,0.701-0.937V479.291z" />
        <path fill="#FFFFFF" d="M417.751,484.517v-1.89h0.483v1.89H417.751z" />
        <path fill="#FFFFFF" d="M416.025,488.325v-3.018h0.546l1.438,1.44c0.397,0.398,0.712,0.663,0.944,0.798          c0.231,0.135,0.472,0.203,0.719,0.203c0.281,0,0.498-0.08,0.649-0.237c0.15-0.158,0.227-0.388,0.227-0.688          c0-0.441-0.189-0.863-0.565-1.265h0.639c0.3,0.392,0.451,0.847,0.451,1.364c0,0.447-0.121,0.798-0.361,1.059          c-0.242,0.259-0.566,0.388-0.975,0.388c-0.308,0-0.61-0.083-0.905-0.249c-0.296-0.165-0.673-0.479-1.13-0.939l-1.105-1.133          h-0.014v2.276H416.025z" />
        <path fill="#FFFFFF" d="M416.79,489.382c-0.219,0.335-0.328,0.681-0.328,1.043c0,0.342,0.096,0.616,0.287,0.826          c0.191,0.208,0.445,0.313,0.761,0.313c0.318,0,0.565-0.106,0.74-0.317c0.176-0.213,0.263-0.521,0.263-0.926          c0-0.193-0.015-0.455-0.045-0.782h2.522v2.441h-0.555v-1.86h-1.402c0.01,0.186,0.016,0.327,0.016,0.42          c0,0.525-0.134,0.932-0.398,1.226c-0.265,0.292-0.63,0.438-1.096,0.438c-0.48,0-0.87-0.155-1.166-0.472          c-0.298-0.313-0.445-0.747-0.445-1.3c0-0.464,0.067-0.814,0.204-1.049H416.79z" />
      </g>
      <g>
        <path fill="#FFFFFF" d="M405.088,478.241h4.964v1.457c0,0.436-0.104,0.784-0.313,1.044          c-0.208,0.262-0.485,0.391-0.827,0.391c-0.274,0-0.516-0.076-0.725-0.23c-0.21-0.155-0.358-0.369-0.446-0.64h-0.013          c-0.038,0.337-0.165,0.606-0.383,0.811c-0.217,0.2-0.491,0.301-0.824,0.301c-0.428,0-0.774-0.152-1.038-0.46          c-0.264-0.306-0.396-0.697-0.396-1.177V478.241z M407.379,478.882h-1.729v0.77c0,0.334,0.076,0.594,0.232,0.775          c0.154,0.184,0.37,0.274,0.646,0.274c0.567,0,0.852-0.385,0.852-1.156V478.882z M409.491,478.882h-1.555v0.582          c0,0.311,0.076,0.553,0.227,0.73c0.151,0.176,0.359,0.264,0.627,0.264c0.468,0,0.701-0.313,0.701-0.936V478.882z" />
        <path fill="#FFFFFF" d="M406.812,484.104v-1.888h0.484v1.888H406.812z" />
        <path fill="#FFFFFF" d="M405.088,487.916v-3.019h0.545l1.439,1.439c0.397,0.399,0.711,0.664,0.943,0.8          c0.232,0.134,0.472,0.202,0.72,0.202c0.281,0,0.497-0.08,0.648-0.237c0.151-0.158,0.226-0.387,0.226-0.688          c0-0.441-0.188-0.863-0.563-1.265h0.638c0.301,0.391,0.451,0.847,0.451,1.364c0,0.447-0.12,0.801-0.361,1.059          c-0.242,0.259-0.566,0.387-0.974,0.387c-0.309,0-0.61-0.082-0.906-0.248c-0.295-0.165-0.672-0.479-1.13-0.939l-1.105-1.133          h-0.013v2.277H405.088z" />
        <path fill="#FFFFFF" d="M406.376,492.02v-0.634h-1.288v-0.609h1.288v-2.314h0.407l3.269,2.196v0.728h-3.178v0.634H406.376z           M406.874,490.776h2.079c0.147,0,0.316,0.004,0.509,0.014v-0.014c-0.081-0.029-0.208-0.093-0.381-0.188l-2.207-1.479          V490.776z" />
      </g>
    </g>
  </g>
</svg>
