<!DOCTYPE svg PUBLIC "-//W3C//DTD SVG 1.1//EN" "http://www.w3.org/Graphics/SVG/1.1/DTD/svg11.dtd">
<svg xmlns="http://www.w3.org/2000/svg" xmlns:xlink="http://www.w3.org/1999/xlink" version="1.1" id="图层_1" x="0px" y="0px" width="1028px" height="680px" viewBox="0 0 1028 680" enable-background="new 0 0 1028 680" xml:space="preserve" xmlns:xml="http://www.w3.org/XML/1998/namespace">
  <g>
    <g>
      <rect x="335" y="521.06" fill="#F6AA00" width="106.75" height="31.75" />
      <g>

        <line fill="none" stroke="#FFFFFF" stroke-width="0.9362" stroke-linecap="round" stroke-linejoin="round" x1="338.281" y1="549.143" x2="338.281" y2="527.41" />
        <g>
          <path fill="none" stroke="#FFFFFF" stroke-width="0.9362" stroke-linecap="round" stroke-linejoin="round" d="          M425.442,526.832c0-0.522-0.215-0.74-0.736-0.74" />
          <path fill="none" stroke="#FFFFFF" stroke-width="0.9362" stroke-linecap="round" stroke-linejoin="round" d="          M424.696,526.092c-0.521,0-0.736,0.218-0.736,0.74" />
          <path fill="none" stroke="#FFFFFF" stroke-width="0.9362" stroke-linecap="round" stroke-linejoin="round" d="          M414.631,526.832c0-0.522-0.215-0.74-0.736-0.74" />
          <path fill="none" stroke="#FFFFFF" stroke-width="0.9362" stroke-linecap="round" stroke-linejoin="round" d="          M413.886,526.092c-0.522,0-0.737,0.218-0.737,0.74" />
          <g>
            <rect x="435.547" y="524.098" fill="none" stroke="#FFFFFF" stroke-width="1.8725" width="5.088" height="5.087" />
            <rect x="359.231" y="524.098" fill="none" stroke="#FFFFFF" stroke-width="1.8725" width="5.089" height="5.087" />
            <rect x="397.389" y="524.098" fill="none" stroke="#FFFFFF" stroke-width="1.8725" width="5.088" height="5.087" />

            <line fill="none" stroke="#FFFFFF" stroke-width="0.9362" stroke-linecap="round" stroke-linejoin="round" x1="434.771" y1="548.565" x2="434.771" y2="526.092" />

            <line fill="none" stroke="#FFFFFF" stroke-width="0.9362" stroke-linecap="round" stroke-linejoin="round" x1="403.82" y1="548.565" x2="403.82" y2="526.092" />

            <line fill="none" stroke="#FFFFFF" stroke-width="0.9362" stroke-linecap="round" stroke-linejoin="round" x1="425.442" y1="548.565" x2="425.442" y2="526.832" />

            <line fill="none" stroke="#FFFFFF" stroke-width="0.9362" stroke-linecap="round" stroke-linejoin="round" x1="423.96" y1="548.565" x2="423.96" y2="526.832" />

            <line fill="none" stroke="#FFFFFF" stroke-width="0.9362" stroke-linecap="round" stroke-linejoin="round" x1="414.631" y1="548.565" x2="414.631" y2="526.832" />

            <line fill="none" stroke="#FFFFFF" stroke-width="0.9362" stroke-linecap="round" stroke-linejoin="round" x1="413.148" y1="548.565" x2="413.148" y2="526.832" />

            <line fill="none" stroke="#FFFFFF" stroke-width="0.9362" stroke-linecap="round" stroke-linejoin="round" x1="403.82" y1="548.565" x2="434.771" y2="548.565" />
            <path fill="none" stroke="#FFFFFF" stroke-width="0.9362" stroke-linecap="round" stroke-linejoin="round" d="           M386.472,527.41c0-0.522-0.215-0.739-0.737-0.739" />
            <path fill="none" stroke="#FFFFFF" stroke-width="0.9362" stroke-linecap="round" stroke-linejoin="round" d="           M385.726,526.671c-0.521,0-0.738,0.217-0.738,0.739" />
            <path fill="none" stroke="#FFFFFF" stroke-width="0.9362" stroke-linecap="round" stroke-linejoin="round" d="           M375.66,527.41c0-0.522-0.215-0.739-0.737-0.739" />
            <path fill="none" stroke="#FFFFFF" stroke-width="0.9362" stroke-linecap="round" stroke-linejoin="round" d="           M374.914,526.671c-0.521,0-0.736,0.217-0.736,0.739" />

            <line fill="none" stroke="#FFFFFF" stroke-width="0.9362" stroke-linecap="round" stroke-linejoin="round" x1="395.8" y1="549.143" x2="395.8" y2="526.671" />

            <line fill="none" stroke="#FFFFFF" stroke-width="0.9362" stroke-linecap="round" stroke-linejoin="round" x1="364.85" y1="549.143" x2="364.85" y2="526.671" />

            <line fill="none" stroke="#FFFFFF" stroke-width="0.9362" stroke-linecap="round" stroke-linejoin="round" x1="386.472" y1="549.143" x2="386.472" y2="527.41" />

            <line fill="none" stroke="#FFFFFF" stroke-width="0.9362" stroke-linecap="round" stroke-linejoin="round" x1="384.987" y1="549.143" x2="384.987" y2="527.41" />

            <line fill="none" stroke="#FFFFFF" stroke-width="0.9362" stroke-linecap="round" stroke-linejoin="round" x1="375.66" y1="549.143" x2="375.66" y2="527.41" />

            <line fill="none" stroke="#FFFFFF" stroke-width="0.9362" stroke-linecap="round" stroke-linejoin="round" x1="374.178" y1="549.143" x2="374.178" y2="527.41" />

            <line fill="none" stroke="#FFFFFF" stroke-width="0.9362" stroke-linecap="round" stroke-linejoin="round" x1="364.85" y1="549.143" x2="395.8" y2="549.143" />
            <path fill="none" stroke="#FFFFFF" stroke-width="0.9362" stroke-linecap="round" stroke-linejoin="round" d="           M349.092,527.41c0-0.522-0.216-0.739-0.739-0.739" />
            <path fill="none" stroke="#FFFFFF" stroke-width="0.9362" stroke-linecap="round" stroke-linejoin="round" d="           M348.346,526.671c-0.522,0-0.738,0.217-0.738,0.739" />

            <line fill="none" stroke="#FFFFFF" stroke-width="0.9362" stroke-linecap="round" stroke-linejoin="round" x1="358.42" y1="549.143" x2="358.42" y2="526.671" />

            <line fill="none" stroke="#FFFFFF" stroke-width="0.9362" stroke-linecap="round" stroke-linejoin="round" x1="349.092" y1="549.143" x2="349.092" y2="527.41" />

            <line fill="none" stroke="#FFFFFF" stroke-width="0.9362" stroke-linecap="round" stroke-linejoin="round" x1="347.607" y1="549.143" x2="347.607" y2="527.41" />

            <line fill="none" stroke="#FFFFFF" stroke-width="0.9362" stroke-linecap="round" stroke-linejoin="round" x1="338.281" y1="549.143" x2="358.42" y2="549.143" />
            <g>
              <path fill="#FFFFFF" d="M340.724,527.462h4.965v1.459c0,0.436-0.104,0.784-0.313,1.045c-0.209,0.26-0.485,0.39-0.828,0.39            c-0.273,0-0.516-0.077-0.725-0.232c-0.211-0.154-0.358-0.367-0.445-0.639h-0.014c-0.038,0.338-0.167,0.607-0.382,0.81            c-0.218,0.202-0.492,0.304-0.826,0.304c-0.427,0-0.773-0.154-1.036-0.461c-0.265-0.308-0.396-0.699-0.396-1.179V527.462z             M343.015,528.104h-1.729v0.769c0,0.337,0.077,0.595,0.232,0.777c0.154,0.183,0.37,0.274,0.646,0.274            c0.567,0,0.852-0.386,0.852-1.158V528.104z M345.127,528.104h-1.555v0.583c0,0.311,0.076,0.553,0.227,0.729            c0.151,0.176,0.359,0.264,0.626,0.264c0.468,0,0.702-0.312,0.702-0.936V528.104z" />
              <path fill="#FFFFFF" d="M342.447,533.327v-1.888h0.485v1.888H342.447z" />
              <path fill="#FFFFFF" d="M341.554,534.237c-0.263,0.34-0.394,0.722-0.394,1.15c0,0.341,0.084,0.613,0.251,0.813            c0.168,0.2,0.393,0.299,0.675,0.299c0.628,0,0.942-0.448,0.942-1.349v-0.415h0.519v0.395c0,0.797,0.295,1.196,0.885,1.196            c0.544,0,0.817-0.304,0.817-0.913c0-0.349-0.118-0.678-0.354-0.983h0.594c0.188,0.324,0.282,0.702,0.282,1.137            c0,0.424-0.111,0.764-0.333,1.019c-0.22,0.258-0.507,0.386-0.859,0.386c-0.649,0-1.067-0.331-1.253-0.994h-0.013            c-0.038,0.359-0.166,0.643-0.38,0.851c-0.214,0.209-0.483,0.313-0.803,0.313c-0.446,0-0.806-0.161-1.08-0.483            c-0.273-0.32-0.41-0.75-0.41-1.281c0-0.47,0.087-0.851,0.262-1.139H341.554z" />
              <path fill="#FFFFFF" d="M340.724,540.985v-3.021h0.545l1.44,1.444c0.396,0.397,0.711,0.663,0.942,0.798            c0.232,0.134,0.472,0.2,0.72,0.2c0.281,0,0.498-0.078,0.648-0.235c0.15-0.159,0.226-0.388,0.226-0.687            c0-0.442-0.188-0.864-0.563-1.265h0.638c0.301,0.391,0.452,0.846,0.452,1.364c0,0.446-0.121,0.8-0.362,1.059            c-0.241,0.258-0.566,0.388-0.975,0.388c-0.307,0-0.609-0.083-0.905-0.25c-0.296-0.164-0.672-0.478-1.13-0.939            l-1.104-1.132h-0.014v2.275H340.724z" />
            </g>
            <g>
              <path fill="#FFFFFF" d="M351.49,527.462h4.965v1.459c0,0.436-0.105,0.784-0.313,1.045c-0.208,0.26-0.483,0.39-0.827,0.39            c-0.273,0-0.516-0.077-0.725-0.232c-0.209-0.154-0.358-0.367-0.445-0.639h-0.014c-0.037,0.338-0.165,0.607-0.382,0.81            s-0.492,0.304-0.825,0.304c-0.428,0-0.773-0.154-1.036-0.461c-0.265-0.308-0.397-0.699-0.397-1.179V527.462z             M353.783,528.104h-1.731v0.769c0,0.337,0.078,0.595,0.232,0.777c0.155,0.183,0.37,0.274,0.646,0.274            c0.568,0,0.853-0.386,0.853-1.158V528.104z M355.895,528.104h-1.555v0.583c0,0.311,0.074,0.553,0.226,0.729            c0.151,0.176,0.359,0.264,0.627,0.264c0.468,0,0.702-0.312,0.702-0.936V528.104z" />
              <path fill="#FFFFFF" d="M353.216,533.327v-1.888h0.483v1.888H353.216z" />
              <path fill="#FFFFFF" d="M352.32,534.237c-0.263,0.34-0.395,0.722-0.395,1.15c0,0.341,0.084,0.613,0.252,0.813            c0.168,0.2,0.394,0.299,0.676,0.299c0.627,0,0.941-0.448,0.941-1.349v-0.415h0.52v0.395c0,0.797,0.295,1.196,0.885,1.196            c0.545,0,0.816-0.304,0.816-0.913c0-0.349-0.117-0.678-0.352-0.983h0.593c0.188,0.324,0.281,0.702,0.281,1.137            c0,0.424-0.109,0.764-0.331,1.019c-0.222,0.258-0.508,0.386-0.861,0.386c-0.648,0-1.066-0.331-1.252-0.994h-0.014            c-0.038,0.359-0.165,0.643-0.379,0.851c-0.216,0.209-0.483,0.313-0.804,0.313c-0.446,0-0.807-0.161-1.079-0.483            c-0.274-0.32-0.411-0.75-0.411-1.281c0-0.47,0.088-0.851,0.264-1.139H352.32z" />
              <path fill="#FFFFFF" d="M352.32,538.086c-0.263,0.339-0.395,0.723-0.395,1.15c0,0.342,0.084,0.613,0.252,0.812            c0.168,0.201,0.394,0.301,0.676,0.301c0.627,0,0.941-0.45,0.941-1.351v-0.413h0.52v0.394c0,0.798,0.295,1.196,0.885,1.196            c0.545,0,0.816-0.306,0.816-0.913c0-0.348-0.117-0.677-0.352-0.983h0.593c0.188,0.324,0.281,0.703,0.281,1.138            c0,0.423-0.109,0.763-0.331,1.019c-0.222,0.257-0.508,0.384-0.861,0.384c-0.648,0-1.066-0.33-1.252-0.993h-0.014            c-0.038,0.359-0.165,0.643-0.379,0.851c-0.216,0.21-0.483,0.313-0.804,0.313c-0.446,0-0.807-0.161-1.079-0.482            c-0.274-0.322-0.411-0.75-0.411-1.285c0-0.469,0.088-0.848,0.264-1.136H352.32z" />
            </g>
            <g>
              <path fill="#FFFFFF" d="M367.18,527.462h4.964v1.459c0,0.436-0.104,0.784-0.312,1.045c-0.208,0.26-0.484,0.39-0.827,0.39            c-0.275,0-0.517-0.077-0.727-0.232c-0.208-0.154-0.356-0.367-0.444-0.639h-0.013c-0.038,0.338-0.167,0.607-0.383,0.81            c-0.218,0.202-0.491,0.304-0.825,0.304c-0.429,0-0.773-0.154-1.037-0.461c-0.264-0.308-0.396-0.699-0.396-1.179V527.462z             M369.472,528.104h-1.73v0.769c0,0.337,0.078,0.595,0.233,0.777c0.153,0.183,0.369,0.274,0.645,0.274            c0.568,0,0.853-0.386,0.853-1.158V528.104z M371.584,528.104h-1.555v0.583c0,0.311,0.075,0.553,0.226,0.729            c0.15,0.176,0.36,0.264,0.626,0.264c0.469,0,0.703-0.312,0.703-0.936V528.104z" />
              <path fill="#FFFFFF" d="M368.904,533.327v-1.888h0.484v1.888H368.904z" />
              <path fill="#FFFFFF" d="M368.011,534.237c-0.263,0.34-0.395,0.722-0.395,1.15c0,0.341,0.084,0.613,0.252,0.813            c0.168,0.2,0.392,0.299,0.675,0.299c0.628,0,0.941-0.448,0.941-1.349v-0.415h0.519v0.395c0,0.797,0.296,1.196,0.886,1.196            c0.544,0,0.816-0.304,0.816-0.913c0-0.349-0.117-0.678-0.353-0.983h0.593c0.188,0.324,0.282,0.702,0.282,1.137            c0,0.424-0.11,0.764-0.332,1.019c-0.221,0.258-0.507,0.386-0.859,0.386c-0.649,0-1.068-0.331-1.253-0.994h-0.014            c-0.037,0.359-0.165,0.643-0.379,0.851c-0.215,0.209-0.482,0.313-0.803,0.313c-0.448,0-0.807-0.161-1.08-0.483            c-0.275-0.32-0.41-0.75-0.41-1.281c0-0.47,0.087-0.851,0.262-1.139H368.011z" />
              <path fill="#FFFFFF" d="M368.468,541.242v-0.634h-1.288v-0.611h1.288v-2.313h0.408l3.268,2.194v0.729h-3.178v0.634            H368.468z M368.966,539.997h2.08c0.147,0,0.316,0.007,0.509,0.014v-0.014c-0.081-0.028-0.208-0.09-0.381-0.188            l-2.208-1.477V539.997z" />
            </g>
            <g>
              <path fill="#FFFFFF" d="M378.051,527.462h4.964v1.459c0,0.436-0.105,0.784-0.313,1.045c-0.208,0.26-0.483,0.39-0.828,0.39            c-0.273,0-0.514-0.077-0.724-0.232c-0.209-0.154-0.357-0.367-0.446-0.639h-0.012c-0.039,0.338-0.166,0.607-0.384,0.81            c-0.217,0.202-0.491,0.304-0.825,0.304c-0.427,0-0.771-0.154-1.036-0.461c-0.264-0.308-0.396-0.699-0.396-1.179V527.462z             M380.342,528.104h-1.729v0.769c0,0.337,0.077,0.595,0.23,0.777c0.155,0.183,0.371,0.274,0.646,0.274            c0.569,0,0.853-0.386,0.853-1.158V528.104z M382.454,528.104h-1.555v0.583c0,0.311,0.075,0.553,0.226,0.729            c0.15,0.176,0.359,0.264,0.627,0.264c0.467,0,0.702-0.312,0.702-0.936V528.104z" />
              <path fill="#FFFFFF" d="M379.775,533.327v-1.888h0.482v1.888H379.775z" />
              <path fill="#FFFFFF" d="M378.88,534.237c-0.262,0.34-0.393,0.722-0.393,1.15c0,0.341,0.082,0.613,0.252,0.813            c0.167,0.2,0.392,0.299,0.674,0.299c0.627,0,0.94-0.448,0.94-1.349v-0.415h0.521v0.395c0,0.797,0.295,1.196,0.884,1.196            c0.545,0,0.818-0.304,0.818-0.913c0-0.349-0.118-0.678-0.353-0.983h0.593c0.188,0.324,0.28,0.702,0.28,1.137            c0,0.424-0.109,0.764-0.331,1.019c-0.22,0.258-0.508,0.386-0.86,0.386c-0.649,0-1.066-0.331-1.253-0.994h-0.012            c-0.039,0.359-0.165,0.643-0.38,0.851c-0.216,0.209-0.482,0.313-0.804,0.313c-0.446,0-0.807-0.161-1.08-0.483            c-0.273-0.32-0.408-0.75-0.408-1.281c0-0.47,0.087-0.851,0.261-1.139H378.88z" />
              <path fill="#FFFFFF" d="M378.813,538.194c-0.219,0.333-0.326,0.681-0.326,1.042c0,0.342,0.096,0.617,0.285,0.826            c0.192,0.21,0.445,0.314,0.761,0.314c0.319,0,0.566-0.106,0.74-0.319c0.176-0.213,0.264-0.521,0.264-0.924            c0-0.193-0.014-0.456-0.044-0.785h2.521v2.442h-0.555v-1.86h-1.403c0.011,0.188,0.016,0.328,0.016,0.421            c0,0.523-0.132,0.932-0.396,1.224c-0.267,0.292-0.632,0.44-1.097,0.44c-0.481,0-0.869-0.158-1.166-0.472            c-0.297-0.314-0.444-0.75-0.444-1.303c0-0.463,0.066-0.811,0.204-1.047H378.813z" />
            </g>
            <g>
              <path fill="#FFFFFF" d="M388.922,527.462h4.963v1.459c0,0.436-0.105,0.784-0.313,1.045c-0.208,0.26-0.483,0.39-0.827,0.39            c-0.273,0-0.516-0.077-0.725-0.232c-0.211-0.154-0.358-0.367-0.446-0.639h-0.013c-0.038,0.338-0.165,0.607-0.383,0.81            c-0.217,0.202-0.491,0.304-0.825,0.304c-0.427,0-0.773-0.154-1.037-0.461c-0.264-0.308-0.394-0.699-0.394-1.179V527.462z             M391.211,528.104h-1.729v0.769c0,0.337,0.077,0.595,0.232,0.777c0.153,0.183,0.369,0.274,0.646,0.274            c0.567,0,0.852-0.386,0.852-1.158V528.104z M393.323,528.104h-1.555v0.583c0,0.311,0.075,0.553,0.227,0.729            c0.15,0.176,0.359,0.264,0.627,0.264c0.468,0,0.701-0.312,0.701-0.936V528.104z" />
              <path fill="#FFFFFF" d="M390.644,533.327v-1.888h0.484v1.888H390.644z" />
              <path fill="#FFFFFF" d="M389.75,534.237c-0.263,0.34-0.393,0.722-0.393,1.15c0,0.341,0.082,0.613,0.25,0.813            c0.168,0.2,0.394,0.299,0.675,0.299c0.628,0,0.942-0.448,0.942-1.349v-0.415h0.519v0.395c0,0.797,0.296,1.196,0.885,1.196            c0.544,0,0.816-0.304,0.816-0.913c0-0.349-0.116-0.678-0.352-0.983h0.594c0.188,0.324,0.28,0.702,0.28,1.137            c0,0.424-0.11,0.764-0.33,1.019c-0.222,0.258-0.51,0.386-0.861,0.386c-0.649,0-1.068-0.331-1.253-0.994h-0.014            c-0.037,0.359-0.164,0.643-0.379,0.851c-0.215,0.209-0.482,0.313-0.803,0.313c-0.446,0-0.807-0.161-1.08-0.483            c-0.272-0.32-0.41-0.75-0.41-1.281c0-0.47,0.087-0.851,0.263-1.139H389.75z" />
              <path fill="#FFFFFF" d="M393.246,540.889c0.133-0.258,0.198-0.528,0.198-0.811c0-0.429-0.187-0.773-0.561-1.035            c-0.373-0.259-0.884-0.394-1.531-0.396v0.016c0.455,0.234,0.684,0.609,0.684,1.124c0,0.431-0.142,0.771-0.421,1.029            c-0.28,0.258-0.652,0.386-1.115,0.386c-0.485,0-0.884-0.15-1.195-0.444c-0.312-0.296-0.468-0.675-0.468-1.132            c0-0.506,0.197-0.901,0.592-1.188c0.394-0.287,0.953-0.432,1.678-0.432c0.875,0,1.572,0.189,2.088,0.566            c0.515,0.377,0.772,0.873,0.772,1.488c0,0.353-0.047,0.629-0.144,0.829H393.246z M390.545,538.684            c-0.327,0-0.607,0.089-0.84,0.263c-0.233,0.173-0.348,0.405-0.348,0.694c0,0.272,0.099,0.495,0.301,0.665            c0.201,0.171,0.458,0.258,0.774,0.258c0.342,0,0.608-0.081,0.798-0.243c0.19-0.161,0.286-0.391,0.286-0.688            c0-0.28-0.098-0.51-0.288-0.684C391.035,538.772,390.809,538.684,390.545,538.684z" />
            </g>
            <g>
              <path fill="#FFFFFF" d="M406.147,527.462h4.965v1.459c0,0.436-0.104,0.784-0.313,1.045c-0.208,0.26-0.483,0.39-0.828,0.39            c-0.272,0-0.515-0.077-0.724-0.232c-0.209-0.154-0.357-0.367-0.446-0.639h-0.013c-0.038,0.338-0.165,0.607-0.383,0.81            c-0.217,0.202-0.491,0.304-0.824,0.304c-0.428,0-0.774-0.154-1.038-0.461c-0.262-0.308-0.396-0.699-0.396-1.179V527.462z             M408.438,528.104h-1.729v0.769c0,0.337,0.076,0.595,0.232,0.777c0.155,0.183,0.37,0.274,0.645,0.274            c0.568,0,0.853-0.386,0.853-1.158V528.104z M410.551,528.104h-1.555v0.583c0,0.311,0.076,0.553,0.227,0.729            c0.151,0.176,0.36,0.264,0.627,0.264c0.468,0,0.701-0.312,0.701-0.936V528.104z" />
              <path fill="#FFFFFF" d="M407.871,533.327v-1.888h0.484v1.888H407.871z" />
              <path fill="#FFFFFF" d="M406.978,534.237c-0.263,0.34-0.395,0.722-0.395,1.15c0,0.341,0.085,0.613,0.253,0.813            c0.167,0.2,0.393,0.299,0.674,0.299c0.628,0,0.942-0.448,0.942-1.349v-0.415h0.519v0.395c0,0.797,0.296,1.196,0.885,1.196            c0.546,0,0.817-0.304,0.817-0.913c0-0.349-0.117-0.678-0.352-0.983h0.591c0.189,0.324,0.283,0.702,0.283,1.137            c0,0.424-0.111,0.764-0.332,1.019c-0.221,0.258-0.509,0.386-0.86,0.386c-0.649,0-1.066-0.331-1.253-0.994h-0.013            c-0.038,0.359-0.164,0.643-0.38,0.851c-0.215,0.209-0.482,0.313-0.803,0.313c-0.446,0-0.807-0.161-1.08-0.483            c-0.273-0.32-0.41-0.75-0.41-1.281c0-0.47,0.088-0.851,0.264-1.139H406.978z" />
              <path fill="#FFFFFF" d="M410.895,541.155l-4.747-1.943v-0.649l4.411,1.845v-2.477h0.554v3.225H410.895z" />
            </g>
            <g>
              <path fill="#FFFFFF" d="M417.018,527.462h4.964v1.459c0,0.436-0.104,0.784-0.312,1.045c-0.209,0.26-0.485,0.39-0.829,0.39            c-0.273,0-0.515-0.077-0.725-0.232c-0.209-0.154-0.356-0.367-0.444-0.639h-0.013c-0.038,0.338-0.167,0.607-0.383,0.81            c-0.217,0.202-0.493,0.304-0.825,0.304c-0.429,0-0.774-0.154-1.038-0.461c-0.264-0.308-0.396-0.699-0.396-1.179V527.462z             M419.31,528.104h-1.73v0.769c0,0.337,0.077,0.595,0.232,0.777c0.154,0.183,0.37,0.274,0.646,0.274            c0.567,0,0.853-0.386,0.853-1.158V528.104z M421.421,528.104h-1.554v0.583c0,0.311,0.074,0.553,0.226,0.729            c0.149,0.176,0.359,0.264,0.626,0.264c0.469,0,0.702-0.312,0.702-0.936V528.104z" />
              <path fill="#FFFFFF" d="M418.741,533.327v-1.888h0.485v1.888H418.741z" />
              <path fill="#FFFFFF" d="M417.848,534.237c-0.263,0.34-0.395,0.722-0.395,1.15c0,0.341,0.085,0.613,0.253,0.813            c0.167,0.2,0.392,0.299,0.674,0.299c0.629,0,0.942-0.448,0.942-1.349v-0.415h0.52v0.395c0,0.797,0.294,1.196,0.883,1.196            c0.546,0,0.818-0.304,0.818-0.913c0-0.349-0.117-0.678-0.354-0.983h0.593c0.188,0.324,0.283,0.702,0.283,1.137            c0,0.424-0.11,0.764-0.331,1.019c-0.222,0.258-0.509,0.386-0.861,0.386c-0.65,0-1.067-0.331-1.252-0.994h-0.014            c-0.039,0.359-0.166,0.643-0.38,0.851c-0.215,0.209-0.481,0.313-0.803,0.313c-0.447,0-0.806-0.161-1.079-0.483            c-0.275-0.32-0.411-0.75-0.411-1.281c0-0.47,0.088-0.851,0.264-1.139H417.848z" />
              <path fill="#FFFFFF" d="M419.631,539.031c0.274-0.592,0.675-0.887,1.197-0.887c0.365,0,0.663,0.139,0.893,0.416            c0.229,0.276,0.345,0.633,0.345,1.064c0,0.395-0.107,0.72-0.324,0.976c-0.216,0.257-0.493,0.385-0.836,0.385            c-0.552,0-0.975-0.31-1.272-0.926h-0.012c-0.262,0.723-0.707,1.086-1.335,1.086c-0.411,0-0.74-0.15-0.984-0.447            c-0.244-0.298-0.367-0.713-0.367-1.248c0-0.438,0.12-0.795,0.362-1.07c0.241-0.274,0.554-0.415,0.938-0.415            c0.633,0,1.094,0.357,1.382,1.066H419.631z M419.333,539.519c-0.249-0.614-0.604-0.921-1.064-0.921            c-0.239,0-0.437,0.091-0.591,0.271c-0.153,0.18-0.23,0.413-0.23,0.701c0,0.28,0.076,0.507,0.229,0.682            c0.152,0.176,0.344,0.263,0.572,0.263C418.729,540.514,419.09,540.183,419.333,539.519z M420.831,540.351            c0.223,0,0.398-0.068,0.525-0.208c0.128-0.139,0.192-0.326,0.192-0.563c0-0.223-0.066-0.411-0.199-0.567            c-0.135-0.156-0.305-0.233-0.512-0.233c-0.414,0-0.729,0.259-0.945,0.779            C420.113,540.086,420.425,540.351,420.831,540.351z" />
            </g>
            <g>
              <path fill="#FFFFFF" d="M427.888,527.462h4.964v1.459c0,0.436-0.104,0.784-0.313,1.045c-0.208,0.26-0.484,0.39-0.828,0.39            c-0.274,0-0.516-0.077-0.725-0.232c-0.209-0.154-0.358-0.367-0.445-0.639h-0.013c-0.039,0.338-0.166,0.607-0.383,0.81            c-0.218,0.202-0.491,0.304-0.825,0.304c-0.428,0-0.772-0.154-1.037-0.461c-0.264-0.308-0.396-0.699-0.396-1.179V527.462z             M430.179,528.104h-1.73v0.769c0,0.337,0.078,0.595,0.233,0.777c0.154,0.183,0.369,0.274,0.646,0.274            c0.568,0,0.852-0.386,0.852-1.158V528.104z M432.29,528.104h-1.554v0.583c0,0.311,0.076,0.553,0.226,0.729            c0.151,0.176,0.36,0.264,0.627,0.264c0.468,0,0.701-0.312,0.701-0.936V528.104z" />
              <path fill="#FFFFFF" d="M429.612,533.327v-1.888h0.483v1.888H429.612z" />
              <path fill="#FFFFFF" d="M428.719,534.237c-0.264,0.34-0.395,0.722-0.395,1.15c0,0.341,0.083,0.613,0.251,0.813            c0.167,0.2,0.393,0.299,0.674,0.299c0.629,0,0.942-0.448,0.942-1.349v-0.415h0.52v0.395c0,0.797,0.296,1.196,0.884,1.196            c0.546,0,0.817-0.304,0.817-0.913c0-0.349-0.117-0.678-0.352-0.983h0.593c0.188,0.324,0.282,0.702,0.282,1.137            c0,0.424-0.111,0.764-0.332,1.019c-0.222,0.258-0.508,0.386-0.861,0.386c-0.649,0-1.066-0.331-1.253-0.994h-0.012            c-0.039,0.359-0.166,0.643-0.38,0.851c-0.216,0.209-0.483,0.313-0.803,0.313c-0.447,0-0.808-0.161-1.081-0.483            c-0.273-0.32-0.409-0.75-0.409-1.281c0-0.47,0.088-0.851,0.262-1.139H428.719z" />
              <path fill="#FFFFFF" d="M428.562,538.221c-0.159,0.272-0.237,0.567-0.237,0.884c0,0.443,0.175,0.789,0.524,1.033            c0.352,0.244,0.849,0.369,1.494,0.369c-0.004-0.006-0.004-0.011,0-0.016c-0.415-0.218-0.622-0.584-0.622-1.1            c0-0.416,0.144-0.76,0.43-1.033c0.285-0.274,0.658-0.411,1.115-0.411c0.486,0,0.887,0.149,1.2,0.45            c0.313,0.299,0.47,0.686,0.47,1.162c0,0.493-0.194,0.879-0.582,1.156c-0.389,0.279-0.952,0.418-1.693,0.418            c-0.917,0-1.622-0.182-2.116-0.539c-0.493-0.359-0.739-0.854-0.739-1.49c0-0.348,0.056-0.644,0.17-0.884H428.562z             M431.345,538.582c-0.333,0-0.597,0.085-0.793,0.257c-0.195,0.17-0.292,0.406-0.292,0.709c0,0.26,0.088,0.479,0.267,0.656            c0.178,0.176,0.396,0.266,0.65,0.266c0.355,0,0.651-0.088,0.885-0.266c0.235-0.175,0.351-0.407,0.351-0.696            c0-0.268-0.102-0.487-0.303-0.663C431.905,538.669,431.65,538.582,431.345,538.582z" />
            </g>
          </g>
        </g>
      </g>
    </g>
    <g>
      <rect x="349.518" y="544.036" fill="#FBC600" width="8.446" height="0.451" />
      <rect x="365.275" y="544.036" fill="#FBC600" width="8.444" height="0.451" />
      <rect x="338.707" y="544.036" fill="#FBC600" width="8.443" height="0.451" />
      <rect x="376.086" y="544.036" fill="#FBC600" width="8.444" height="0.451" />
      <rect x="386.896" y="544.036" fill="#FBC600" width="8.445" height="0.451" />
      <rect x="404.245" y="543.459" fill="#FBC600" width="8.445" height="0.453" />
      <rect x="425.868" y="543.459" fill="#FBC600" width="8.444" height="0.453" />
      <rect x="415.058" y="543.459" fill="#FBC600" width="8.444" height="0.453" />
      <rect x="405.914" y="543.459" fill="#8DC21F" width="1.729" height="0.453" />
      <rect x="420.126" y="543.459" fill="#8DC21F" width="1.701" height="0.453" />
      <rect x="416.725" y="543.459" fill="#8DC21F" width="1.729" height="0.453" />
      <rect x="430.938" y="543.459" fill="#8DC21F" width="1.701" height="0.453" />
      <rect x="427.538" y="543.459" fill="#8DC21F" width="1.727" height="0.453" />
      <rect x="409.315" y="543.459" fill="#8DC21F" width="1.701" height="0.453" />
      <rect x="388.565" y="544.036" fill="#8DC21F" width="1.728" height="0.451" />
      <rect x="391.969" y="544.036" fill="#8DC21F" width="1.699" height="0.451" />
      <rect x="377.756" y="544.036" fill="#8DC21F" width="1.726" height="0.451" />
      <rect x="381.155" y="544.036" fill="#8DC21F" width="1.702" height="0.451" />
      <rect x="366.943" y="544.036" fill="#8DC21F" width="1.728" height="0.451" />
      <rect x="370.346" y="544.036" fill="#8DC21F" width="1.7" height="0.451" />
      <rect x="343.777" y="544.036" fill="#8DC21F" width="1.7" height="0.451" />
      <rect x="340.374" y="544.036" fill="#8DC21F" width="1.728" height="0.451" />
      <rect x="351.185" y="544.036" fill="#8DC21F" width="1.729" height="0.451" />
      <rect x="354.587" y="544.036" fill="#8DC21F" width="1.701" height="0.451" />
    </g>
  </g>
</svg>
