<!DOCTYPE svg PUBLIC "-//W3C//DTD SVG 1.1//EN" "http://www.w3.org/Graphics/SVG/1.1/DTD/svg11.dtd">
<svg xmlns="http://www.w3.org/2000/svg" xmlns:xlink="http://www.w3.org/1999/xlink" version="1.1" id="图层_1" x="0px" y="0px" width="1028px" height="680px" viewBox="0 0 1028 680" enable-background="new 0 0 1028 680" xml:space="preserve" xmlns:xml="http://www.w3.org/XML/1998/namespace">
  <g>
    <g>
      <rect x="610" y="165.685" fill="#AACC03" width="118.167" height="29" />
      <g>
        <path fill="none" stroke="#FFFFFF" stroke-width="0.9362" stroke-linecap="round" stroke-linejoin="round" d="M679.7,188.499         c0.521,0,0.737-0.215,0.737-0.736" />
        <g>
          <rect x="691.201" y="187.652" fill="none" stroke="#FFFFFF" stroke-width="1.8725" width="4.239" height="4.239" />
          <rect x="607.89" y="186.805" fill="none" stroke="#FFFFFF" stroke-width="1.8725" width="11.235" height="5.935" />
          <rect x="653.043" y="187.652" fill="none" stroke="#FFFFFF" stroke-width="1.8725" width="4.24" height="4.239" />
          <path fill="none" stroke="#FFFFFF" stroke-width="0.9362" stroke-linecap="round" stroke-linejoin="round" d="          M629.815,187.763c0,0.521,0.218,0.736,0.738,0.736" />
          <path fill="none" stroke="#FFFFFF" stroke-width="0.9362" stroke-linecap="round" stroke-linejoin="round" d="          M630.563,188.499c0.522,0,0.736-0.215,0.736-0.736" />
          <path fill="none" stroke="#FFFFFF" stroke-width="0.9362" stroke-linecap="round" stroke-linejoin="round" d="          M640.628,187.763c0,0.521,0.216,0.736,0.738,0.736" />
          <path fill="none" stroke="#FFFFFF" stroke-width="0.9362" stroke-linecap="round" stroke-linejoin="round" d="          M641.374,188.499c0.521,0,0.737-0.215,0.737-0.736" />

          <line fill="none" stroke="#FFFFFF" stroke-width="0.9362" stroke-linecap="round" stroke-linejoin="round" x1="620.488" y1="166.03" x2="620.488" y2="188.499" />

          <line fill="none" stroke="#FFFFFF" stroke-width="0.9362" stroke-linecap="round" stroke-linejoin="round" x1="718.286" y1="166.03" x2="718.286" y2="187.763" />

          <line fill="none" stroke="#FFFFFF" stroke-width="0.9362" stroke-linecap="round" stroke-linejoin="round" x1="716.802" y1="166.03" x2="716.802" y2="187.763" />

          <line fill="none" stroke="#FFFFFF" stroke-width="0.9362" stroke-linecap="round" stroke-linejoin="round" x1="707.477" y1="166.03" x2="707.477" y2="187.763" />

          <line fill="none" stroke="#FFFFFF" stroke-width="0.9362" stroke-linecap="round" stroke-linejoin="round" x1="705.991" y1="166.03" x2="705.991" y2="187.763" />

          <line fill="none" stroke="#FFFFFF" stroke-width="0.9362" stroke-linecap="round" stroke-linejoin="round" x1="727.614" y1="166.03" x2="727.614" y2="188.499" />

          <line fill="none" stroke="#FFFFFF" stroke-width="0.9362" stroke-linecap="round" stroke-linejoin="round" x1="696.664" y1="166.03" x2="696.664" y2="188.499" />
          <path fill="none" stroke="#FFFFFF" stroke-width="0.9362" stroke-linecap="round" stroke-linejoin="round" d="          M717.549,188.499c0.521,0,0.737-0.215,0.737-0.736" />
          <path fill="none" stroke="#FFFFFF" stroke-width="0.9362" stroke-linecap="round" stroke-linejoin="round" d="          M716.802,187.763c0,0.521,0.218,0.736,0.737,0.736" />
          <path fill="none" stroke="#FFFFFF" stroke-width="0.9362" stroke-linecap="round" stroke-linejoin="round" d="          M706.737,188.499c0.522,0,0.739-0.215,0.739-0.736" />
          <path fill="none" stroke="#FFFFFF" stroke-width="0.9362" stroke-linecap="round" stroke-linejoin="round" d="          M705.991,187.763c0,0.521,0.217,0.736,0.738,0.736" />

          <line fill="none" stroke="#FFFFFF" stroke-width="0.9362" stroke-linecap="round" stroke-linejoin="round" x1="680.438" y1="166.03" x2="680.438" y2="187.763" />

          <line fill="none" stroke="#FFFFFF" stroke-width="0.9362" stroke-linecap="round" stroke-linejoin="round" x1="678.953" y1="166.03" x2="678.953" y2="187.763" />

          <line fill="none" stroke="#FFFFFF" stroke-width="0.9362" stroke-linecap="round" stroke-linejoin="round" x1="669.627" y1="166.03" x2="669.627" y2="187.763" />

          <line fill="none" stroke="#FFFFFF" stroke-width="0.9362" stroke-linecap="round" stroke-linejoin="round" x1="668.142" y1="166.03" x2="668.142" y2="187.763" />

          <line fill="none" stroke="#FFFFFF" stroke-width="0.9362" stroke-linecap="round" stroke-linejoin="round" x1="689.765" y1="166.03" x2="689.765" y2="188.499" />

          <line fill="none" stroke="#FFFFFF" stroke-width="0.9362" stroke-linecap="round" stroke-linejoin="round" x1="658.814" y1="166.03" x2="658.814" y2="188.499" />
          <path fill="none" stroke="#FFFFFF" stroke-width="0.9362" stroke-linecap="round" stroke-linejoin="round" d="          M678.953,187.763c0,0.521,0.216,0.736,0.738,0.736" />
          <path fill="none" stroke="#FFFFFF" stroke-width="0.9362" stroke-linecap="round" stroke-linejoin="round" d="          M668.887,188.499c0.522,0,0.74-0.215,0.74-0.736" />
          <path fill="none" stroke="#FFFFFF" stroke-width="0.9362" stroke-linecap="round" stroke-linejoin="round" d="          M668.142,187.763c0,0.521,0.218,0.736,0.739,0.736" />

          <line fill="none" stroke="#FFFFFF" stroke-width="0.9362" stroke-linecap="round" stroke-linejoin="round" x1="679.691" y1="188.499" x2="679.7" y2="188.499" />

          <line fill="none" stroke="#FFFFFF" stroke-width="0.9362" stroke-linecap="round" stroke-linejoin="round" x1="642.111" y1="166.03" x2="642.111" y2="187.763" />

          <line fill="none" stroke="#FFFFFF" stroke-width="0.9362" stroke-linecap="round" stroke-linejoin="round" x1="631.299" y1="166.03" x2="631.299" y2="187.763" />

          <line fill="none" stroke="#FFFFFF" stroke-width="0.9362" stroke-linecap="round" stroke-linejoin="round" x1="629.815" y1="166.03" x2="629.815" y2="187.763" />

          <line fill="none" stroke="#FFFFFF" stroke-width="0.9362" stroke-linecap="round" stroke-linejoin="round" x1="651.438" y1="166.03" x2="651.438" y2="188.499" />

          <line fill="none" stroke="#FFFFFF" stroke-width="0.9362" stroke-linecap="round" stroke-linejoin="round" x1="640.628" y1="166.03" x2="640.628" y2="187.763" />
          <g>
            <path fill="#FFFFFF" d="M622.793,177.931c-0.193-0.365-0.288-0.824-0.288-1.375c0-0.713,0.225-1.28,0.678-1.705           c0.451-0.425,1.049-0.638,1.792-0.638c0.8,0,1.442,0.239,1.93,0.718s0.731,1.086,0.731,1.822           c0,0.476-0.067,0.867-0.203,1.178h-0.669c0.196-0.355,0.296-0.744,0.296-1.17c0-0.553-0.186-1.004-0.555-1.354           c-0.369-0.348-0.864-0.521-1.491-0.521c-0.594,0-1.064,0.162-1.415,0.486c-0.35,0.325-0.524,0.751-0.524,1.276           c0,0.491,0.11,0.918,0.334,1.282H622.793z" />
            <path fill="#FFFFFF" d="M624.313,180.669v-1.887h0.484v1.887H624.313z" />
            <path fill="#FFFFFF" d="M624.972,181.413c0.875,0,1.538,0.146,1.988,0.436c0.451,0.291,0.676,0.713,0.676,1.264           c0,1.051-0.85,1.576-2.545,1.576c-0.837,0-1.478-0.148-1.922-0.444c-0.444-0.295-0.664-0.71-0.664-1.245           c0-0.504,0.211-0.895,0.632-1.17C623.556,181.552,624.169,181.413,624.972,181.413z M625,182.055           c-1.317,0-1.975,0.334-1.975,1.002c0,0.659,0.667,0.987,2.008,0.987c1.386,0,2.078-0.322,2.078-0.967           C627.111,182.396,626.408,182.055,625,182.055z" />
            <path fill="#FFFFFF" d="M622.588,188.421v-2.845h0.542v1.111h3.769l-0.332-1.14h0.579l0.513,1.766h-4.528v1.107H622.588z" />
          </g>
          <g>
            <path fill="#FFFFFF" d="M633.731,177.931c-0.193-0.365-0.289-0.824-0.289-1.375c0-0.713,0.227-1.28,0.679-1.705           c0.451-0.425,1.049-0.638,1.793-0.638c0.797,0,1.441,0.239,1.928,0.718s0.73,1.086,0.73,1.822           c0,0.476-0.066,0.867-0.2,1.178h-0.671c0.197-0.355,0.294-0.744,0.294-1.17c0-0.553-0.184-1.004-0.553-1.354           c-0.367-0.348-0.866-0.521-1.491-0.521c-0.594,0-1.065,0.162-1.414,0.486c-0.35,0.325-0.525,0.751-0.525,1.276           c0,0.491,0.113,0.918,0.335,1.282H633.731z" />
            <path fill="#FFFFFF" d="M635.249,180.669v-1.887h0.484v1.887H635.249z" />
            <path fill="#FFFFFF" d="M635.91,181.413c0.876,0,1.538,0.146,1.988,0.436c0.45,0.291,0.674,0.713,0.674,1.264           c0,1.051-0.848,1.576-2.544,1.576c-0.838,0-1.478-0.148-1.921-0.444c-0.443-0.295-0.665-0.71-0.665-1.245           c0-0.504,0.211-0.895,0.632-1.17C634.495,181.552,635.105,181.413,635.91,181.413z M635.939,182.055           c-1.317,0-1.979,0.334-1.979,1.002c0,0.659,0.671,0.987,2.011,0.987c1.385,0,2.08-0.322,2.08-0.967           C638.052,182.396,637.346,182.055,635.939,182.055z" />
            <path fill="#FFFFFF" d="M633.524,188.329v-3.02h0.547l1.438,1.441c0.396,0.398,0.711,0.665,0.943,0.799           c0.232,0.135,0.471,0.202,0.72,0.202c0.282,0,0.497-0.079,0.649-0.237c0.151-0.158,0.224-0.387,0.224-0.686           c0-0.441-0.185-0.863-0.563-1.266h0.638c0.302,0.391,0.451,0.846,0.451,1.365c0,0.446-0.12,0.799-0.361,1.058           c-0.241,0.258-0.566,0.388-0.974,0.388c-0.308,0-0.611-0.084-0.907-0.248c-0.296-0.166-0.671-0.48-1.128-0.941           l-1.106-1.131h-0.013v2.275H633.524z" />
          </g>
          <g>
            <path fill="#FFFFFF" d="M644.669,177.931c-0.192-0.365-0.288-0.824-0.288-1.375c0-0.713,0.226-1.28,0.677-1.705           c0.452-0.425,1.05-0.638,1.793-0.638c0.799,0,1.442,0.239,1.93,0.718s0.73,1.086,0.73,1.822           c0,0.476-0.067,0.867-0.203,1.178h-0.668c0.195-0.355,0.295-0.744,0.295-1.17c0-0.553-0.186-1.004-0.554-1.354           c-0.367-0.348-0.865-0.521-1.491-0.521c-0.594,0-1.065,0.162-1.414,0.486c-0.35,0.325-0.524,0.751-0.524,1.276           c0,0.491,0.111,0.918,0.333,1.282H644.669z" />
            <path fill="#FFFFFF" d="M646.188,180.669v-1.887h0.483v1.887H646.188z" />
            <path fill="#FFFFFF" d="M646.849,181.413c0.876,0,1.539,0.146,1.988,0.436c0.449,0.291,0.674,0.713,0.674,1.264           c0,1.051-0.848,1.576-2.544,1.576c-0.838,0-1.479-0.148-1.921-0.444c-0.443-0.295-0.665-0.71-0.665-1.245           c0-0.504,0.209-0.895,0.63-1.17C645.433,181.552,646.044,181.413,646.849,181.413z M646.877,182.055           c-1.317,0-1.977,0.334-1.977,1.002c0,0.659,0.67,0.987,2.008,0.987c1.388,0,2.08-0.322,2.08-0.967           C648.988,182.396,648.286,182.055,646.877,182.055z" />
            <path fill="#FFFFFF" d="M645.294,185.429c-0.262,0.34-0.394,0.724-0.394,1.15c0,0.343,0.083,0.612,0.25,0.813           c0.168,0.199,0.394,0.299,0.675,0.299c0.629,0,0.943-0.449,0.943-1.349v-0.413h0.518v0.395           c0,0.797,0.294,1.195,0.885,1.195c0.547,0,0.817-0.305,0.817-0.914c0-0.348-0.117-0.676-0.352-0.984h0.593           c0.188,0.326,0.281,0.705,0.281,1.139c0,0.422-0.111,0.762-0.331,1.02c-0.222,0.256-0.508,0.384-0.861,0.384           c-0.649,0-1.067-0.331-1.252-0.993h-0.014c-0.038,0.359-0.164,0.643-0.38,0.852c-0.214,0.207-0.481,0.312-0.803,0.312           c-0.445,0-0.805-0.161-1.079-0.482c-0.273-0.321-0.41-0.749-0.41-1.284c0-0.469,0.087-0.849,0.263-1.137H645.294z" />
          </g>
          <g>
            <path fill="#FFFFFF" d="M661.282,177.931c-0.193-0.365-0.291-0.824-0.291-1.375c0-0.713,0.228-1.28,0.681-1.705           c0.451-0.425,1.048-0.638,1.792-0.638c0.8,0,1.442,0.239,1.93,0.718c0.486,0.479,0.729,1.086,0.729,1.822           c0,0.476-0.066,0.867-0.201,1.178h-0.67c0.197-0.355,0.295-0.744,0.295-1.17c0-0.553-0.185-1.004-0.554-1.354           c-0.368-0.348-0.865-0.521-1.49-0.521c-0.594,0-1.067,0.162-1.415,0.486c-0.35,0.325-0.524,0.751-0.524,1.276           c0,0.491,0.11,0.918,0.332,1.282H661.282z" />
            <path fill="#FFFFFF" d="M662.802,180.669v-1.887h0.482v1.887H662.802z" />
            <path fill="#FFFFFF" d="M663.461,181.413c0.875,0,1.538,0.146,1.988,0.436c0.448,0.291,0.674,0.713,0.674,1.264           c0,1.051-0.848,1.576-2.544,1.576c-0.837,0-1.477-0.148-1.921-0.444c-0.444-0.295-0.667-0.71-0.667-1.245           c0-0.504,0.212-0.895,0.635-1.17C662.045,181.552,662.657,181.413,663.461,181.413z M663.489,182.055           c-1.319,0-1.977,0.334-1.977,1.002c0,0.659,0.669,0.987,2.008,0.987c1.387,0,2.082-0.322,2.082-0.967           C665.603,182.396,664.897,182.055,663.489,182.055z" />
            <path fill="#FFFFFF" d="M662.364,188.585v-0.635h-1.289v-0.608h1.289v-2.313h0.407l3.27,2.195v0.727h-3.181v0.635H662.364z            M662.86,187.342h2.081c0.147,0,0.315,0.005,0.509,0.013v-0.013c-0.082-0.03-0.207-0.093-0.381-0.188l-2.209-1.478V187.342           z" />
          </g>
          <g>
            <path fill="#FFFFFF" d="M672.151,177.931c-0.193-0.365-0.289-0.824-0.289-1.375c0-0.713,0.227-1.28,0.679-1.705           c0.451-0.425,1.049-0.638,1.793-0.638c0.798,0,1.441,0.239,1.93,0.718c0.484,0.479,0.729,1.086,0.729,1.822           c0,0.476-0.067,0.867-0.201,1.178h-0.67c0.197-0.355,0.295-0.744,0.295-1.17c0-0.553-0.186-1.004-0.552-1.354           c-0.369-0.348-0.867-0.521-1.494-0.521c-0.591,0-1.065,0.162-1.414,0.486c-0.35,0.325-0.523,0.751-0.523,1.276           c0,0.491,0.111,0.918,0.333,1.282H672.151z" />
            <path fill="#FFFFFF" d="M673.669,180.669v-1.887h0.486v1.887H673.669z" />
            <path fill="#FFFFFF" d="M674.33,181.413c0.876,0,1.539,0.146,1.989,0.436c0.448,0.291,0.674,0.713,0.674,1.264           c0,1.051-0.849,1.576-2.544,1.576c-0.838,0-1.478-0.148-1.921-0.444c-0.443-0.295-0.666-0.71-0.666-1.245           c0-0.504,0.211-0.895,0.631-1.17C672.915,181.552,673.527,181.413,674.33,181.413z M674.358,182.055           c-1.316,0-1.976,0.334-1.976,1.002c0,0.659,0.669,0.987,2.008,0.987c1.387,0,2.079-0.322,2.079-0.967           C676.47,182.396,675.767,182.055,674.358,182.055z" />
            <path fill="#FFFFFF" d="M672.708,185.538c-0.219,0.333-0.325,0.68-0.325,1.041c0,0.343,0.095,0.617,0.285,0.827           c0.191,0.21,0.446,0.313,0.763,0.313c0.317,0,0.564-0.105,0.74-0.318c0.175-0.213,0.262-0.521,0.262-0.925           c0-0.194-0.014-0.456-0.046-0.785h2.523v2.442h-0.555v-1.859h-1.403c0.011,0.186,0.017,0.326,0.017,0.42           c0,0.523-0.134,0.932-0.397,1.225c-0.266,0.293-0.631,0.438-1.097,0.438c-0.481,0-0.869-0.157-1.167-0.471           c-0.296-0.314-0.445-0.748-0.445-1.301c0-0.464,0.069-0.813,0.206-1.048H672.708z" />
          </g>
          <g>
            <path fill="#FFFFFF" d="M683.021,177.931c-0.192-0.365-0.289-0.824-0.289-1.375c0-0.713,0.227-1.28,0.679-1.705           c0.451-0.425,1.05-0.638,1.793-0.638c0.799,0,1.441,0.239,1.929,0.718c0.486,0.479,0.73,1.086,0.73,1.822           c0,0.476-0.067,0.867-0.202,1.178h-0.67c0.197-0.355,0.295-0.744,0.295-1.17c0-0.553-0.185-1.004-0.554-1.354           c-0.366-0.348-0.864-0.521-1.491-0.521c-0.592,0-1.065,0.162-1.414,0.486c-0.35,0.325-0.523,0.751-0.523,1.276           c0,0.491,0.111,0.918,0.332,1.282H683.021z" />
            <path fill="#FFFFFF" d="M684.541,180.669v-1.887h0.483v1.887H684.541z" />
            <path fill="#FFFFFF" d="M685.2,181.413c0.876,0,1.538,0.146,1.988,0.436c0.45,0.291,0.675,0.713,0.675,1.264           c0,1.051-0.849,1.576-2.545,1.576c-0.837,0-1.477-0.148-1.921-0.444c-0.442-0.295-0.665-0.71-0.665-1.245           c0-0.504,0.21-0.895,0.632-1.17C683.785,181.552,684.396,181.413,685.2,181.413z M685.23,182.055           c-1.318,0-1.978,0.334-1.978,1.002c0,0.659,0.668,0.987,2.008,0.987c1.386,0,2.081-0.322,2.081-0.967           C687.342,182.396,686.637,182.055,685.23,182.055z" />
            <path fill="#FFFFFF" d="M687.142,188.233c0.133-0.259,0.2-0.529,0.2-0.812c0-0.43-0.188-0.774-0.562-1.034           c-0.374-0.262-0.886-0.395-1.53-0.398v0.016c0.454,0.236,0.681,0.611,0.681,1.126c0,0.429-0.141,0.771-0.419,1.028           c-0.28,0.256-0.653,0.385-1.115,0.385c-0.484,0-0.885-0.148-1.194-0.443c-0.313-0.297-0.47-0.674-0.47-1.134           c0-0.505,0.197-0.899,0.592-1.187c0.394-0.287,0.953-0.432,1.679-0.432c0.876,0,1.571,0.188,2.087,0.565           c0.515,0.378,0.773,0.874,0.773,1.489c0,0.353-0.049,0.629-0.145,0.83H687.142z M684.44,186.028           c-0.325,0-0.606,0.086-0.84,0.261c-0.232,0.173-0.348,0.405-0.348,0.694c0,0.273,0.099,0.495,0.3,0.666           c0.202,0.172,0.459,0.256,0.776,0.256c0.342,0,0.607-0.08,0.797-0.242c0.19-0.16,0.287-0.39,0.287-0.687           c0-0.282-0.097-0.511-0.291-0.686C684.931,186.115,684.705,186.028,684.44,186.028z" />
          </g>
          <g>
            <path fill="#FFFFFF" d="M699.224,177.931c-0.191-0.365-0.289-0.824-0.289-1.375c0-0.713,0.226-1.28,0.678-1.705           c0.451-0.425,1.051-0.638,1.793-0.638c0.799,0,1.442,0.239,1.93,0.718c0.486,0.479,0.73,1.086,0.73,1.822           c0,0.476-0.067,0.867-0.202,1.178h-0.67c0.197-0.355,0.295-0.744,0.295-1.17c0-0.553-0.184-1.004-0.552-1.354           c-0.37-0.348-0.867-0.521-1.492-0.521c-0.594,0-1.066,0.162-1.415,0.486c-0.349,0.325-0.524,0.751-0.524,1.276           c0,0.491,0.11,0.918,0.334,1.282H699.224z" />
            <path fill="#FFFFFF" d="M700.744,180.669v-1.887h0.481v1.887H700.744z" />
            <path fill="#FFFFFF" d="M701.403,181.413c0.875,0,1.538,0.146,1.987,0.436c0.45,0.291,0.675,0.713,0.675,1.264           c0,1.051-0.848,1.576-2.545,1.576c-0.836,0-1.478-0.148-1.921-0.444c-0.444-0.295-0.665-0.71-0.665-1.245           c0-0.504,0.211-0.895,0.631-1.17C699.986,181.552,700.6,181.413,701.403,181.413z M701.432,182.055           c-1.318,0-1.979,0.334-1.979,1.002c0,0.659,0.671,0.987,2.011,0.987c1.387,0,2.079-0.322,2.079-0.967           C703.543,182.396,702.839,182.055,701.432,182.055z" />
            <path fill="#FFFFFF" d="M703.765,188.499l-4.746-1.943v-0.649l4.408,1.846v-2.479h0.554v3.227H703.765z" />
          </g>
          <g>
            <path fill="#FFFFFF" d="M710.093,177.931c-0.192-0.365-0.286-0.824-0.286-1.375c0-0.713,0.224-1.28,0.675-1.705           c0.452-0.425,1.05-0.638,1.794-0.638c0.798,0,1.441,0.239,1.929,0.718c0.486,0.479,0.731,1.086,0.731,1.822           c0,0.476-0.068,0.867-0.202,1.178h-0.669c0.197-0.355,0.294-0.744,0.294-1.17c0-0.553-0.185-1.004-0.553-1.354           c-0.369-0.348-0.866-0.521-1.492-0.521c-0.594,0-1.065,0.162-1.414,0.486c-0.35,0.325-0.524,0.751-0.524,1.276           c0,0.491,0.111,0.918,0.334,1.282H710.093z" />
            <path fill="#FFFFFF" d="M711.612,180.669v-1.887h0.482v1.887H711.612z" />
            <path fill="#FFFFFF" d="M712.272,181.413c0.876,0,1.539,0.146,1.989,0.436c0.448,0.291,0.674,0.713,0.674,1.264           c0,1.051-0.849,1.576-2.544,1.576c-0.838,0-1.479-0.148-1.923-0.444c-0.443-0.295-0.662-0.71-0.662-1.245           c0-0.504,0.209-0.895,0.63-1.17C710.856,181.552,711.47,181.413,712.272,181.413z M712.302,182.055           c-1.319,0-1.978,0.334-1.978,1.002c0,0.659,0.67,0.987,2.008,0.987c1.386,0,2.08-0.322,2.08-0.967           C714.412,182.396,713.709,182.055,712.302,182.055z" />
            <path fill="#FFFFFF" d="M712.5,186.374c0.274-0.592,0.674-0.888,1.199-0.888c0.365,0,0.662,0.14,0.892,0.417           c0.23,0.277,0.345,0.633,0.345,1.063c0,0.396-0.108,0.722-0.323,0.978c-0.217,0.256-0.495,0.385-0.836,0.385           c-0.553,0-0.975-0.309-1.272-0.926h-0.015c-0.26,0.724-0.704,1.086-1.332,1.086c-0.411,0-0.741-0.149-0.985-0.447           c-0.245-0.298-0.365-0.714-0.365-1.248c0-0.438,0.118-0.795,0.358-1.07c0.244-0.275,0.556-0.414,0.941-0.414           c0.632,0,1.091,0.355,1.381,1.064H712.5z M712.201,186.861c-0.247-0.613-0.604-0.919-1.063-0.919           c-0.238,0-0.436,0.088-0.589,0.268s-0.23,0.414-0.23,0.703c0,0.279,0.076,0.506,0.229,0.682s0.343,0.264,0.572,0.264           C711.598,187.858,711.961,187.526,712.201,186.861z M713.701,187.694c0.223,0,0.398-0.069,0.526-0.208           c0.128-0.14,0.191-0.327,0.191-0.563c0-0.223-0.066-0.412-0.199-0.568c-0.134-0.156-0.305-0.233-0.513-0.233           c-0.412,0-0.728,0.26-0.944,0.778C712.981,187.43,713.296,187.694,713.701,187.694z" />
          </g>
          <g>
            <path fill="#FFFFFF" d="M720.963,177.931c-0.191-0.365-0.288-0.824-0.288-1.375c0-0.713,0.225-1.28,0.679-1.705           c0.45-0.425,1.049-0.638,1.791-0.638c0.799,0,1.442,0.239,1.93,0.718s0.73,1.086,0.73,1.822           c0,0.476-0.067,0.867-0.202,1.178h-0.669c0.196-0.355,0.294-0.744,0.294-1.17c0-0.553-0.184-1.004-0.551-1.354           c-0.369-0.348-0.868-0.521-1.492-0.521c-0.594,0-1.068,0.162-1.415,0.486c-0.35,0.325-0.525,0.751-0.525,1.276           c0,0.491,0.111,0.918,0.334,1.282H720.963z" />
            <path fill="#FFFFFF" d="M722.482,180.669v-1.887h0.483v1.887H722.482z" />
            <path fill="#FFFFFF" d="M723.143,181.413c0.876,0,1.538,0.146,1.987,0.436c0.45,0.291,0.675,0.713,0.675,1.264           c0,1.051-0.849,1.576-2.544,1.576c-0.837,0-1.478-0.148-1.921-0.444c-0.443-0.295-0.665-0.71-0.665-1.245           c0-0.504,0.211-0.895,0.632-1.17C721.726,181.552,722.339,181.413,723.143,181.413z M723.172,182.055           c-1.319,0-1.979,0.334-1.979,1.002c0,0.659,0.671,0.987,2.011,0.987c1.387,0,2.079-0.322,2.079-0.967           C725.283,182.396,724.578,182.055,723.172,182.055z" />
            <path fill="#FFFFFF" d="M721.432,185.563c-0.159,0.273-0.238,0.568-0.238,0.885c0,0.443,0.176,0.789,0.525,1.033           c0.351,0.244,0.848,0.367,1.495,0.367c-0.006-0.005-0.006-0.009,0-0.013c-0.416-0.218-0.622-0.585-0.622-1.101           c0-0.416,0.142-0.761,0.429-1.034c0.286-0.274,0.656-0.41,1.115-0.41c0.486,0,0.887,0.149,1.201,0.448           c0.312,0.299,0.468,0.688,0.468,1.164c0,0.492-0.194,0.879-0.58,1.156c-0.389,0.277-0.953,0.417-1.694,0.417           c-0.916,0-1.62-0.181-2.114-0.538c-0.494-0.359-0.741-0.856-0.741-1.49c0-0.349,0.057-0.644,0.169-0.885H721.432z            M724.216,185.925c-0.333,0-0.598,0.086-0.793,0.256c-0.195,0.172-0.294,0.408-0.294,0.709           c0,0.261,0.089,0.479,0.269,0.657c0.18,0.177,0.395,0.267,0.648,0.267c0.357,0,0.652-0.088,0.886-0.265           s0.352-0.408,0.352-0.696c0-0.269-0.103-0.489-0.305-0.664C724.775,186.014,724.521,185.925,724.216,185.925z" />
          </g>
        </g>
      </g>
    </g>
    <g>
      <rect x="718.712" y="170.683" fill="#FBC600" width="8.445" height="0.453" />
      <rect x="707.901" y="170.683" fill="#FBC600" width="8.445" height="0.453" />
      <rect x="680.862" y="170.683" fill="#FBC600" width="8.447" height="0.453" />
      <rect x="670.051" y="170.683" fill="#FBC600" width="8.445" height="0.453" />
      <rect x="659.14" y="170.683" fill="#FBC600" width="8.444" height="0.453" />
      <rect x="642.536" y="170.683" fill="#FBC600" width="8.444" height="0.453" />
      <rect x="631.726" y="170.683" fill="#FBC600" width="8.446" height="0.453" />
      <rect x="620.914" y="170.683" fill="#FBC600" width="8.446" height="0.453" />
      <rect x="697.209" y="170.683" fill="#FBC600" width="8.444" height="0.453" />
      <rect x="622.582" y="170.683" fill="#8DC21F" width="1.728" height="0.453" />
      <rect x="625.985" y="170.683" fill="#8DC21F" width="1.7" height="0.453" />
      <rect x="633.396" y="170.683" fill="#8DC21F" width="1.727" height="0.453" />
      <rect x="636.796" y="170.683" fill="#8DC21F" width="1.7" height="0.453" />
      <rect x="644.206" y="170.683" fill="#8DC21F" width="1.726" height="0.453" />
      <rect x="647.608" y="170.683" fill="#8DC21F" width="1.699" height="0.453" />
      <rect x="660.807" y="170.683" fill="#8DC21F" width="1.729" height="0.453" />
      <rect x="664.208" y="170.683" fill="#8DC21F" width="1.702" height="0.453" />
      <rect x="671.72" y="170.683" fill="#8DC21F" width="1.729" height="0.453" />
      <rect x="675.121" y="170.683" fill="#8DC21F" width="1.701" height="0.453" />
      <rect x="682.533" y="170.683" fill="#8DC21F" width="1.726" height="0.453" />
      <rect x="685.935" y="170.683" fill="#8DC21F" width="1.699" height="0.453" />
      <rect x="698.88" y="170.683" fill="#8DC21F" width="1.726" height="0.453" />
      <rect x="702.28" y="170.683" fill="#8DC21F" width="1.7" height="0.453" />
      <rect x="709.569" y="170.683" fill="#8DC21F" width="1.729" height="0.453" />
      <rect x="712.971" y="170.683" fill="#8DC21F" width="1.7" height="0.453" />
      <rect x="720.381" y="170.683" fill="#8DC21F" width="1.729" height="0.453" />
      <rect x="723.783" y="170.683" fill="#8DC21F" width="1.7" height="0.453" />
    </g>
  </g>
</svg>
