<!DOCTYPE svg PUBLIC "-//W3C//DTD SVG 1.1//EN" "http://www.w3.org/Graphics/SVG/1.1/DTD/svg11.dtd">
<svg xmlns="http://www.w3.org/2000/svg" xmlns:xlink="http://www.w3.org/1999/xlink" version="1.1" id="图层_1" x="0px" y="0px" width="1028px" height="680px" viewBox="0 0 1028 680" enable-background="new 0 0 1028 680" xml:space="preserve" xmlns:xml="http://www.w3.org/XML/1998/namespace">
    <g>
      <path fill="#AACC03" d="M643.624,223.36c0,14.98,0,29.961,0,44.941c0,1.799,0.745,2.543,2.542,2.543        c29.445,0,58.89,0,88.334,0v-50.027c-29.444,0-58.889,0-88.334,0C644.369,220.817,643.624,221.562,643.624,223.36z" />
      <g>
        <path fill="none" stroke="#FFFFFF" stroke-width="0.9362" stroke-linecap="round" stroke-linejoin="round" d="         M679.57,224.114c-0.521,0-0.736,0.217-0.736,0.737" />
        <path fill="none" stroke="#FFFFFF" stroke-width="0.9362" stroke-linecap="round" stroke-linejoin="round" d="         M669.505,224.852c0-0.521-0.214-0.737-0.736-0.737" />
        <path fill="none" stroke="#FFFFFF" stroke-width="0.9362" stroke-linecap="round" stroke-linejoin="round" d="         M668.759,224.114c-0.521,0-0.738,0.217-0.738,0.737" />

        <line fill="none" stroke="#FFFFFF" stroke-width="0.9362" stroke-linecap="round" stroke-linejoin="round" x1="668.769" y1="224.114" x2="668.759" y2="224.114" />
        <path fill="none" stroke="#FFFFFF" stroke-width="0.9362" stroke-linecap="round" stroke-linejoin="round" d="         M680.316,224.852c0-0.521-0.216-0.737-0.736-0.737" />
        <path fill="none" stroke="#FFFFFF" stroke-width="0.9362" stroke-linecap="round" stroke-linejoin="round" d="         M668.021,268.317c0,0.521,0.218,0.737,0.738,0.737" />
        <g>
          <rect x="729.358" y="225.81" fill="none" stroke="#FFFFFF" stroke-width="1.8725" width="4.239" height="4.24" />
          <rect x="653.043" y="225.81" fill="none" stroke="#FFFFFF" stroke-width="1.8725" width="4.24" height="4.24" />
          <rect x="691.201" y="225.81" fill="none" stroke="#FFFFFF" stroke-width="1.8725" width="4.239" height="4.24" />
          <rect x="728.511" y="263.119" fill="none" stroke="#FFFFFF" stroke-width="1.8725" width="5.936" height="5.936" />
          <rect x="652.195" y="263.119" fill="none" stroke="#FFFFFF" stroke-width="1.8725" width="5.936" height="5.936" />
          <rect x="690.353" y="263.119" fill="none" stroke="#FFFFFF" stroke-width="1.8725" width="5.935" height="5.936" />

          <line fill="none" stroke="#FFFFFF" stroke-width="0.9362" stroke-linecap="round" stroke-linejoin="round" x1="706.366" y1="246.583" x2="706.366" y2="224.852" />

          <line fill="none" stroke="#FFFFFF" stroke-width="0.9362" stroke-linecap="round" stroke-linejoin="round" x1="727.987" y1="246.583" x2="697.036" y2="246.583" />
          <path fill="none" stroke="#FFFFFF" stroke-width="0.9362" stroke-linecap="round" stroke-linejoin="round" d="          M706.366,268.317c0,0.521,0.215,0.737,0.735,0.737" />
          <path fill="none" stroke="#FFFFFF" stroke-width="0.9362" stroke-linecap="round" stroke-linejoin="round" d="          M707.111,269.055c0.522,0,0.736-0.216,0.736-0.737" />
          <path fill="none" stroke="#FFFFFF" stroke-width="0.9362" stroke-linecap="round" stroke-linejoin="round" d="          M717.177,268.317c0,0.521,0.215,0.737,0.736,0.737" />
          <path fill="none" stroke="#FFFFFF" stroke-width="0.9362" stroke-linecap="round" stroke-linejoin="round" d="          M717.923,269.055c0.522,0,0.738-0.216,0.738-0.737" />

          <line fill="none" stroke="#FFFFFF" stroke-width="0.9362" stroke-linecap="round" stroke-linejoin="round" x1="697.036" y1="246.583" x2="697.036" y2="269.055" />

          <line fill="none" stroke="#FFFFFF" stroke-width="0.9362" stroke-linecap="round" stroke-linejoin="round" x1="727.987" y1="246.583" x2="727.987" y2="269.055" />

          <line fill="none" stroke="#FFFFFF" stroke-width="0.9362" stroke-linecap="round" stroke-linejoin="round" x1="706.366" y1="246.583" x2="706.366" y2="268.317" />

          <line fill="none" stroke="#FFFFFF" stroke-width="0.9362" stroke-linecap="round" stroke-linejoin="round" x1="707.848" y1="246.583" x2="707.848" y2="268.317" />

          <line fill="none" stroke="#FFFFFF" stroke-width="0.9362" stroke-linecap="round" stroke-linejoin="round" x1="717.177" y1="246.583" x2="717.177" y2="268.317" />

          <line fill="none" stroke="#FFFFFF" stroke-width="0.9362" stroke-linecap="round" stroke-linejoin="round" x1="718.661" y1="246.583" x2="718.661" y2="268.317" />

          <line fill="none" stroke="#FFFFFF" stroke-width="0.9362" stroke-linecap="round" stroke-linejoin="round" x1="689.646" y1="246.583" x2="689.646" y2="224.114" />

          <line fill="none" stroke="#FFFFFF" stroke-width="0.9362" stroke-linecap="round" stroke-linejoin="round" x1="658.696" y1="246.583" x2="658.696" y2="224.114" />

          <line fill="none" stroke="#FFFFFF" stroke-width="0.9362" stroke-linecap="round" stroke-linejoin="round" x1="680.316" y1="246.583" x2="680.316" y2="224.852" />

          <line fill="none" stroke="#FFFFFF" stroke-width="0.9362" stroke-linecap="round" stroke-linejoin="round" x1="678.834" y1="246.583" x2="678.834" y2="224.852" />

          <line fill="none" stroke="#FFFFFF" stroke-width="0.9362" stroke-linecap="round" stroke-linejoin="round" x1="669.505" y1="246.583" x2="669.505" y2="224.852" />

          <line fill="none" stroke="#FFFFFF" stroke-width="0.9362" stroke-linecap="round" stroke-linejoin="round" x1="668.021" y1="246.583" x2="668.021" y2="224.852" />

          <line fill="none" stroke="#FFFFFF" stroke-width="0.9362" stroke-linecap="round" stroke-linejoin="round" x1="689.646" y1="246.583" x2="658.696" y2="246.583" />
          <path fill="none" stroke="#FFFFFF" stroke-width="0.9362" stroke-linecap="round" stroke-linejoin="round" d="          M668.769,269.055c0.522,0,0.736-0.216,0.736-0.737" />
          <path fill="none" stroke="#FFFFFF" stroke-width="0.9362" stroke-linecap="round" stroke-linejoin="round" d="          M678.834,268.317c0,0.521,0.215,0.737,0.736,0.737" />
          <path fill="none" stroke="#FFFFFF" stroke-width="0.9362" stroke-linecap="round" stroke-linejoin="round" d="          M679.58,269.055c0.521,0,0.736-0.216,0.736-0.737" />

          <line fill="none" stroke="#FFFFFF" stroke-width="0.9362" stroke-linecap="round" stroke-linejoin="round" x1="658.696" y1="246.583" x2="658.696" y2="269.055" />

          <line fill="none" stroke="#FFFFFF" stroke-width="0.9362" stroke-linecap="round" stroke-linejoin="round" x1="689.646" y1="246.583" x2="689.646" y2="269.055" />

          <line fill="none" stroke="#FFFFFF" stroke-width="0.9362" stroke-linecap="round" stroke-linejoin="round" x1="668.021" y1="246.583" x2="668.021" y2="268.317" />

          <line fill="none" stroke="#FFFFFF" stroke-width="0.9362" stroke-linecap="round" stroke-linejoin="round" x1="669.505" y1="246.583" x2="669.505" y2="268.317" />

          <line fill="none" stroke="#FFFFFF" stroke-width="0.9362" stroke-linecap="round" stroke-linejoin="round" x1="678.834" y1="246.583" x2="678.834" y2="268.317" />

          <line fill="none" stroke="#FFFFFF" stroke-width="0.9362" stroke-linecap="round" stroke-linejoin="round" x1="680.316" y1="246.583" x2="680.316" y2="268.317" />
          <path fill="none" stroke="#FFFFFF" stroke-width="0.9362" stroke-linecap="round" stroke-linejoin="round" d="          M718.661,224.852c0-0.521-0.216-0.737-0.738-0.737" />
          <path fill="none" stroke="#FFFFFF" stroke-width="0.9362" stroke-linecap="round" stroke-linejoin="round" d="          M717.913,224.114c-0.521,0-0.736,0.217-0.736,0.737" />
          <path fill="none" stroke="#FFFFFF" stroke-width="0.9362" stroke-linecap="round" stroke-linejoin="round" d="          M707.848,224.852c0-0.521-0.214-0.737-0.736-0.737" />
          <path fill="none" stroke="#FFFFFF" stroke-width="0.9362" stroke-linecap="round" stroke-linejoin="round" d="          M707.102,224.114c-0.521,0-0.735,0.217-0.735,0.737" />

          <line fill="none" stroke="#FFFFFF" stroke-width="0.9362" stroke-linecap="round" stroke-linejoin="round" x1="727.987" y1="246.583" x2="727.987" y2="224.114" />

          <line fill="none" stroke="#FFFFFF" stroke-width="0.9362" stroke-linecap="round" stroke-linejoin="round" x1="697.036" y1="246.583" x2="697.036" y2="224.114" />

          <line fill="none" stroke="#FFFFFF" stroke-width="0.9362" stroke-linecap="round" stroke-linejoin="round" x1="718.661" y1="246.583" x2="718.661" y2="224.852" />

          <line fill="none" stroke="#FFFFFF" stroke-width="0.9362" stroke-linecap="round" stroke-linejoin="round" x1="717.177" y1="246.583" x2="717.177" y2="224.852" />

          <line fill="none" stroke="#FFFFFF" stroke-width="0.9362" stroke-linecap="round" stroke-linejoin="round" x1="707.848" y1="246.583" x2="707.848" y2="224.852" />

          <rect x="646.877" y="233.933" fill="none" stroke="#FFFFFF" stroke-width="0.9362" stroke-linecap="round" stroke-linejoin="round" width="10.175" height="25.438" />
          <g>
            <path fill="#FFFFFF" d="M649.729,242.192c-0.19-0.365-0.288-0.824-0.288-1.375c0-0.711,0.226-1.279,0.678-1.705           c0.451-0.424,1.049-0.637,1.793-0.637c0.8,0,1.441,0.238,1.93,0.718c0.487,0.479,0.731,1.085,0.731,1.823           c0,0.474-0.069,0.865-0.203,1.176H653.7c0.195-0.354,0.294-0.745,0.294-1.17c0-0.553-0.186-1.004-0.552-1.352           c-0.369-0.349-0.868-0.523-1.491-0.523c-0.594,0-1.066,0.163-1.417,0.488c-0.35,0.324-0.524,0.749-0.524,1.275           c0,0.491,0.112,0.918,0.335,1.281H649.729z" />
            <path fill="#FFFFFF" d="M651.248,244.933v-1.889h0.483v1.889H651.248z" />
            <path fill="#FFFFFF" d="M649.524,248.835v-2.846h0.542v1.113h3.768l-0.331-1.143h0.577l0.514,1.767h-4.527v1.108H649.524z" />
            <path fill="#FFFFFF" d="M653.85,252.495c0.132-0.259,0.2-0.529,0.2-0.811c0-0.43-0.188-0.773-0.562-1.035           c-0.375-0.261-0.884-0.394-1.532-0.397v0.017c0.456,0.234,0.684,0.609,0.684,1.124c0,0.43-0.141,0.772-0.422,1.029           c-0.279,0.256-0.651,0.384-1.113,0.384c-0.485,0-0.885-0.147-1.195-0.443c-0.313-0.296-0.469-0.674-0.469-1.133           c0-0.505,0.197-0.9,0.592-1.188c0.394-0.287,0.953-0.431,1.678-0.431c0.876,0,1.571,0.188,2.087,0.565           c0.517,0.377,0.775,0.873,0.775,1.488c0,0.354-0.049,0.629-0.146,0.83H653.85z M651.149,250.29           c-0.327,0-0.607,0.088-0.84,0.262c-0.233,0.174-0.351,0.405-0.351,0.693c0,0.273,0.102,0.496,0.304,0.667           c0.2,0.171,0.459,0.257,0.773,0.257c0.343,0,0.607-0.082,0.799-0.243c0.189-0.161,0.284-0.39,0.284-0.688           c0-0.281-0.096-0.511-0.289-0.685C651.639,250.378,651.411,250.29,651.149,250.29z" />
          </g>
          <g>
            <path fill="#FFFFFF" d="M661.076,227.836c-0.19-0.365-0.288-0.823-0.288-1.374c0-0.713,0.227-1.28,0.679-1.705           c0.45-0.426,1.048-0.639,1.792-0.639c0.799,0,1.442,0.24,1.929,0.719c0.489,0.478,0.731,1.086,0.731,1.823           c0,0.475-0.068,0.866-0.202,1.176h-0.669c0.195-0.354,0.294-0.745,0.294-1.169c0-0.554-0.183-1.006-0.552-1.354           s-0.866-0.521-1.491-0.521c-0.596,0-1.067,0.162-1.416,0.486c-0.348,0.324-0.523,0.75-0.523,1.275           c0,0.491,0.11,0.92,0.333,1.282H661.076z" />
            <path fill="#FFFFFF" d="M662.596,230.576v-1.888h0.483v1.888H662.596z" />
            <path fill="#FFFFFF" d="M660.872,234.479v-2.847h0.541v1.112h3.769l-0.33-1.141h0.577l0.512,1.766h-4.527v1.109H660.872z" />
            <path fill="#FFFFFF" d="M661.635,235.444c-0.219,0.332-0.327,0.68-0.327,1.041c0,0.342,0.096,0.617,0.286,0.826           c0.191,0.209,0.445,0.314,0.761,0.314c0.319,0,0.566-0.105,0.74-0.318c0.176-0.213,0.264-0.521,0.264-0.926           c0-0.193-0.016-0.455-0.044-0.784h2.521v2.442h-0.554v-1.859h-1.403c0.011,0.186,0.015,0.326,0.015,0.42           c0,0.523-0.131,0.932-0.397,1.225c-0.264,0.292-0.629,0.439-1.096,0.439c-0.48,0-0.868-0.158-1.165-0.473           c-0.297-0.313-0.446-0.748-0.446-1.301c0-0.463,0.069-0.813,0.206-1.047H661.635z" />
          </g>
          <g>
            <path fill="#FFFFFF" d="M671.998,227.836c-0.193-0.365-0.288-0.823-0.288-1.374c0-0.713,0.226-1.28,0.678-1.705           c0.451-0.426,1.05-0.639,1.793-0.639c0.798,0,1.441,0.24,1.929,0.719c0.487,0.478,0.729,1.086,0.729,1.823           c0,0.475-0.066,0.866-0.2,1.176h-0.671c0.197-0.354,0.296-0.745,0.296-1.169c0-0.554-0.185-1.006-0.552-1.354           c-0.369-0.348-0.867-0.521-1.492-0.521c-0.596,0-1.065,0.162-1.416,0.486c-0.349,0.324-0.523,0.75-0.523,1.275           c0,0.491,0.111,0.92,0.334,1.282H671.998z" />
            <path fill="#FFFFFF" d="M673.517,230.576v-1.888h0.484v1.888H673.517z" />
            <path fill="#FFFFFF" d="M671.794,234.479v-2.847h0.542v1.112h3.768l-0.331-1.141h0.578l0.513,1.766h-4.527v1.109H671.794z" />
            <path fill="#FFFFFF" d="M673.081,238.491v-0.635h-1.287v-0.608h1.287v-2.313h0.407l3.269,2.194v0.728h-3.178v0.635H673.081           z M673.579,237.248h2.08c0.146,0,0.316,0.004,0.508,0.013v-0.013c-0.08-0.03-0.207-0.094-0.382-0.189l-2.206-1.477V237.248           z" />
          </g>
          <g>
            <path fill="#FFFFFF" d="M682.92,227.836c-0.193-0.365-0.288-0.823-0.288-1.374c0-0.713,0.224-1.28,0.676-1.705           c0.452-0.426,1.051-0.639,1.793-0.639c0.8,0,1.443,0.24,1.931,0.719c0.487,0.478,0.73,1.086,0.73,1.823           c0,0.475-0.066,0.866-0.202,1.176h-0.671c0.197-0.354,0.296-0.745,0.296-1.169c0-0.554-0.185-1.006-0.553-1.354           s-0.865-0.521-1.491-0.521c-0.594,0-1.065,0.162-1.416,0.486c-0.349,0.324-0.522,0.75-0.522,1.275           c0,0.491,0.109,0.92,0.333,1.282H682.92z" />
            <path fill="#FFFFFF" d="M684.439,230.576v-1.888h0.482v1.888H684.439z" />
            <path fill="#FFFFFF" d="M682.714,234.479v-2.847h0.542v1.112h3.767l-0.328-1.141h0.575l0.515,1.766h-4.528v1.109H682.714z" />
            <path fill="#FFFFFF" d="M683.544,235.335c-0.264,0.339-0.395,0.723-0.395,1.15c0,0.342,0.085,0.612,0.252,0.813           c0.169,0.199,0.395,0.299,0.676,0.299c0.628,0,0.941-0.449,0.941-1.349v-0.413h0.519v0.394           c0,0.796,0.296,1.195,0.886,1.195c0.545,0,0.815-0.304,0.815-0.913c0-0.348-0.117-0.676-0.353-0.984h0.593           c0.189,0.324,0.283,0.704,0.283,1.138c0,0.423-0.111,0.764-0.332,1.02c-0.222,0.256-0.507,0.385-0.86,0.385           c-0.649,0-1.067-0.331-1.253-0.993h-0.013c-0.038,0.358-0.167,0.643-0.38,0.85c-0.215,0.209-0.482,0.313-0.802,0.313           c-0.448,0-0.808-0.16-1.082-0.48c-0.272-0.322-0.408-0.75-0.408-1.285c0-0.469,0.086-0.85,0.263-1.137H683.544z" />
          </g>
          <g>
            <path fill="#FFFFFF" d="M699.327,227.836c-0.193-0.365-0.29-0.823-0.29-1.374c0-0.713,0.228-1.28,0.68-1.705           c0.451-0.426,1.049-0.639,1.793-0.639c0.798,0,1.441,0.24,1.927,0.719c0.488,0.478,0.731,1.086,0.731,1.823           c0,0.475-0.066,0.866-0.2,1.176h-0.671c0.197-0.354,0.296-0.745,0.296-1.169c0-0.554-0.185-1.006-0.555-1.354           c-0.367-0.348-0.864-0.521-1.49-0.521c-0.595,0-1.066,0.162-1.415,0.486c-0.35,0.324-0.523,0.75-0.523,1.275           c0,0.491,0.109,0.92,0.331,1.282H699.327z" />
            <path fill="#FFFFFF" d="M700.847,230.576v-1.888h0.482v1.888H700.847z" />
            <path fill="#FFFFFF" d="M699.122,234.479v-2.847h0.54v1.112h3.77l-0.33-1.141h0.577l0.514,1.766h-4.53v1.109H699.122z" />
            <path fill="#FFFFFF" d="M699.122,238.235v-3.02h0.545l1.438,1.443c0.398,0.396,0.712,0.663,0.944,0.797           c0.232,0.135,0.472,0.201,0.72,0.201c0.282,0,0.498-0.078,0.649-0.236c0.149-0.158,0.226-0.387,0.226-0.686           c0-0.443-0.189-0.864-0.564-1.266h0.638c0.302,0.391,0.451,0.846,0.451,1.364c0,0.446-0.121,0.8-0.361,1.058           c-0.241,0.258-0.566,0.387-0.974,0.387c-0.308,0-0.61-0.081-0.906-0.246c-0.295-0.166-0.671-0.479-1.129-0.941           l-1.105-1.131h-0.012v2.275H699.122z" />
          </g>
          <g>
            <path fill="#FFFFFF" d="M710.248,227.836c-0.192-0.365-0.289-0.823-0.289-1.374c0-0.713,0.226-1.28,0.679-1.705           c0.453-0.426,1.05-0.639,1.792-0.639c0.8,0,1.442,0.24,1.93,0.719c0.486,0.478,0.73,1.086,0.73,1.823           c0,0.475-0.067,0.866-0.202,1.176h-0.67c0.197-0.354,0.295-0.745,0.295-1.169c0-0.554-0.184-1.006-0.554-1.354           c-0.366-0.348-0.865-0.521-1.491-0.521c-0.592,0-1.064,0.162-1.414,0.486c-0.349,0.324-0.524,0.75-0.524,1.275           c0,0.491,0.111,0.92,0.334,1.282H710.248z" />
            <path fill="#FFFFFF" d="M711.767,230.576v-1.888h0.484v1.888H711.767z" />
            <path fill="#FFFFFF" d="M710.042,234.479v-2.847h0.542v1.112h3.769l-0.329-1.141h0.575l0.515,1.766h-4.529v1.109H710.042z" />
            <path fill="#FFFFFF" d="M710.042,238.329v-2.848h0.542v1.113h3.769l-0.329-1.142h0.575l0.515,1.766h-4.529v1.11H710.042z" />
          </g>
          <g>
            <path fill="#FFFFFF" d="M721.168,227.836c-0.189-0.365-0.287-0.823-0.287-1.374c0-0.713,0.226-1.28,0.678-1.705           c0.452-0.426,1.049-0.639,1.793-0.639c0.8,0,1.442,0.24,1.93,0.719c0.487,0.478,0.73,1.086,0.73,1.823           c0,0.475-0.067,0.866-0.202,1.176h-0.67c0.197-0.354,0.294-0.745,0.294-1.169c0-0.554-0.184-1.006-0.553-1.354           c-0.368-0.348-0.866-0.521-1.491-0.521c-0.595,0-1.066,0.162-1.414,0.486c-0.35,0.324-0.525,0.75-0.525,1.275           c0,0.491,0.111,0.92,0.335,1.282H721.168z" />
            <path fill="#FFFFFF" d="M722.688,230.576v-1.888h0.483v1.888H722.688z" />
            <path fill="#FFFFFF" d="M720.965,234.479v-2.847h0.541v1.112h3.77l-0.331-1.141h0.577l0.512,1.766h-4.527v1.109H720.965z" />
            <path fill="#FFFFFF" d="M723.348,235.169c0.876,0,1.539,0.145,1.99,0.436c0.447,0.289,0.674,0.711,0.674,1.262           c0,1.051-0.85,1.576-2.545,1.576c-0.839,0-1.479-0.146-1.922-0.442c-0.442-0.297-0.664-0.712-0.664-1.246           c0-0.503,0.21-0.894,0.631-1.171C721.932,235.306,722.545,235.169,723.348,235.169z M723.377,235.809           c-1.317,0-1.978,0.335-1.978,1.003c0,0.658,0.67,0.988,2.009,0.988c1.388,0,2.081-0.324,2.081-0.969           C725.489,236.149,724.784,235.809,723.377,235.809z" />
          </g>
          <g>
            <path fill="#FFFFFF" d="M661.076,258.189c-0.19-0.366-0.288-0.823-0.288-1.375c0-0.711,0.227-1.28,0.679-1.704           c0.45-0.426,1.048-0.638,1.792-0.638c0.799,0,1.442,0.238,1.929,0.718c0.489,0.479,0.731,1.086,0.731,1.823           c0,0.474-0.068,0.865-0.202,1.176h-0.669c0.195-0.354,0.294-0.745,0.294-1.169c0-0.555-0.183-1.004-0.552-1.354           c-0.369-0.348-0.866-0.521-1.491-0.521c-0.596,0-1.067,0.162-1.416,0.486c-0.348,0.325-0.523,0.75-0.523,1.275           c0,0.492,0.11,0.92,0.333,1.282H661.076z" />
            <path fill="#FFFFFF" d="M662.596,260.929v-1.887h0.483v1.887H662.596z" />
            <path fill="#FFFFFF" d="M660.872,264.833v-2.846h0.541v1.111h3.769l-0.33-1.141h0.577l0.512,1.766h-4.527v1.109H660.872z" />
            <path fill="#FFFFFF" d="M663.483,266.634c0.274-0.592,0.675-0.889,1.2-0.889c0.364,0,0.661,0.139,0.892,0.416           c0.229,0.278,0.344,0.635,0.344,1.064c0,0.396-0.106,0.723-0.324,0.978c-0.216,0.257-0.495,0.385-0.836,0.385           c-0.551,0-0.976-0.309-1.271-0.925h-0.014c-0.261,0.723-0.705,1.086-1.332,1.086c-0.413,0-0.741-0.15-0.985-0.447           c-0.245-0.298-0.368-0.715-0.368-1.248c0-0.438,0.121-0.795,0.362-1.07s0.554-0.414,0.939-0.414           c0.633,0,1.093,0.355,1.382,1.064H663.483z M663.186,267.12c-0.247-0.611-0.602-0.919-1.063-0.919           c-0.24,0-0.438,0.09-0.592,0.269c-0.152,0.18-0.231,0.414-0.231,0.701c0,0.281,0.079,0.509,0.231,0.684           c0.151,0.175,0.342,0.263,0.572,0.263C662.584,268.117,662.944,267.784,663.186,267.12z M664.685,267.954           c0.223,0,0.398-0.07,0.526-0.208c0.129-0.14,0.192-0.327,0.192-0.565c0-0.223-0.066-0.41-0.201-0.565           c-0.133-0.157-0.304-0.235-0.512-0.235c-0.413,0-0.729,0.261-0.944,0.779C663.966,267.689,664.28,267.954,664.685,267.954z           " />
          </g>
          <g>
            <path fill="#FFFFFF" d="M671.998,258.189c-0.193-0.366-0.288-0.823-0.288-1.375c0-0.711,0.226-1.28,0.678-1.704           c0.451-0.426,1.05-0.638,1.793-0.638c0.798,0,1.441,0.238,1.929,0.718c0.487,0.479,0.729,1.086,0.729,1.823           c0,0.474-0.066,0.865-0.2,1.176h-0.671c0.197-0.354,0.296-0.745,0.296-1.169c0-0.555-0.185-1.004-0.552-1.354           c-0.369-0.348-0.867-0.521-1.492-0.521c-0.596,0-1.065,0.162-1.416,0.486c-0.349,0.325-0.523,0.75-0.523,1.275           c0,0.492,0.111,0.92,0.334,1.282H671.998z" />
            <path fill="#FFFFFF" d="M673.517,260.929v-1.887h0.484v1.887H673.517z" />
            <path fill="#FFFFFF" d="M671.794,264.833v-2.846h0.542v1.111h3.768l-0.331-1.141h0.578l0.513,1.766h-4.527v1.109H671.794z" />
            <path fill="#FFFFFF" d="M672.465,265.823c-0.157,0.273-0.235,0.568-0.235,0.884c0,0.444,0.175,0.788,0.524,1.033           c0.351,0.244,0.849,0.368,1.493,0.368c-0.004-0.006-0.004-0.01,0-0.014c-0.414-0.218-0.619-0.584-0.619-1.1           c0-0.416,0.141-0.762,0.428-1.035c0.287-0.272,0.657-0.409,1.116-0.409c0.487,0,0.886,0.149,1.2,0.448           c0.311,0.299,0.467,0.686,0.467,1.162c0,0.496-0.191,0.88-0.579,1.158c-0.39,0.277-0.953,0.416-1.694,0.416           c-0.916,0-1.621-0.179-2.115-0.538c-0.493-0.359-0.74-0.854-0.74-1.49c0-0.349,0.056-0.643,0.17-0.884H672.465z            M675.251,266.185c-0.333,0-0.598,0.086-0.793,0.256c-0.195,0.172-0.293,0.408-0.293,0.709c0,0.26,0.088,0.479,0.268,0.657           c0.179,0.177,0.395,0.267,0.648,0.267c0.357,0,0.652-0.089,0.886-0.266c0.233-0.176,0.35-0.408,0.35-0.695           c0-0.269-0.101-0.49-0.303-0.664C675.811,266.272,675.557,266.185,675.251,266.185z" />
          </g>
          <g>
            <path fill="#FFFFFF" d="M682.92,258.189c-0.193-0.366-0.288-0.823-0.288-1.375c0-0.711,0.224-1.28,0.676-1.704           c0.452-0.426,1.051-0.638,1.793-0.638c0.8,0,1.443,0.238,1.931,0.718c0.487,0.479,0.73,1.086,0.73,1.823           c0,0.474-0.066,0.865-0.202,1.176h-0.671c0.197-0.354,0.296-0.745,0.296-1.169c0-0.555-0.185-1.004-0.553-1.354           c-0.368-0.348-0.865-0.521-1.491-0.521c-0.594,0-1.065,0.162-1.416,0.486c-0.349,0.325-0.522,0.75-0.522,1.275           c0,0.492,0.109,0.92,0.333,1.282H682.92z" />
            <path fill="#FFFFFF" d="M684.439,260.929v-1.887h0.482v1.887H684.439z" />
            <path fill="#FFFFFF" d="M682.714,264.74v-3.02h0.545l1.438,1.442c0.399,0.396,0.713,0.664,0.945,0.798           c0.23,0.134,0.472,0.202,0.72,0.202c0.283,0,0.497-0.079,0.648-0.236c0.151-0.159,0.226-0.388,0.226-0.688           c0-0.441-0.188-0.863-0.563-1.266h0.638c0.301,0.392,0.452,0.847,0.452,1.365c0,0.447-0.121,0.799-0.362,1.058           c-0.242,0.258-0.566,0.388-0.974,0.388c-0.309,0-0.61-0.082-0.906-0.248c-0.295-0.166-0.673-0.479-1.129-0.941           l-1.106-1.131h-0.011v2.276H682.714z" />
            <path fill="#FFFFFF" d="M685.099,265.521c0.876,0,1.538,0.146,1.987,0.437c0.452,0.289,0.676,0.711,0.676,1.262           c0,1.051-0.849,1.576-2.545,1.576c-0.837,0-1.477-0.147-1.921-0.442c-0.443-0.296-0.664-0.712-0.664-1.246           c0-0.503,0.211-0.894,0.63-1.171C683.683,265.659,684.295,265.521,685.099,265.521z M685.128,266.161           c-1.319,0-1.979,0.336-1.979,1.004c0,0.658,0.67,0.987,2.01,0.987c1.387,0,2.079-0.323,2.079-0.968           C687.238,266.504,686.535,266.161,685.128,266.161z" />
          </g>
          <g>
            <path fill="#FFFFFF" d="M699.327,258.189c-0.193-0.366-0.29-0.823-0.29-1.375c0-0.711,0.228-1.28,0.68-1.704           c0.451-0.426,1.049-0.638,1.793-0.638c0.798,0,1.441,0.238,1.927,0.718c0.488,0.479,0.731,1.086,0.731,1.823           c0,0.474-0.066,0.865-0.2,1.176h-0.671c0.197-0.354,0.296-0.745,0.296-1.169c0-0.555-0.185-1.004-0.555-1.354           c-0.367-0.348-0.864-0.521-1.49-0.521c-0.595,0-1.066,0.162-1.415,0.486c-0.35,0.325-0.523,0.75-0.523,1.275           c0,0.492,0.109,0.92,0.331,1.282H699.327z" />
            <path fill="#FFFFFF" d="M700.847,260.929v-1.887h0.482v1.887H700.847z" />
            <path fill="#FFFFFF" d="M699.122,264.74v-3.02h0.545l1.438,1.442c0.398,0.396,0.712,0.664,0.944,0.798           s0.472,0.202,0.72,0.202c0.282,0,0.498-0.079,0.649-0.236c0.149-0.159,0.226-0.388,0.226-0.688           c0-0.441-0.189-0.863-0.564-1.266h0.638c0.302,0.392,0.451,0.847,0.451,1.365c0,0.447-0.121,0.799-0.361,1.058           c-0.241,0.258-0.566,0.388-0.974,0.388c-0.308,0-0.61-0.082-0.906-0.248c-0.295-0.166-0.671-0.479-1.129-0.941           l-1.105-1.131h-0.012v2.276H699.122z" />
            <path fill="#FFFFFF" d="M699.122,268.681v-2.845h0.54v1.112h3.77l-0.33-1.141h0.577l0.514,1.766h-4.53v1.107H699.122z" />
          </g>
          <g>
            <path fill="#FFFFFF" d="M710.248,258.189c-0.192-0.366-0.289-0.823-0.289-1.375c0-0.711,0.226-1.28,0.679-1.704           c0.453-0.426,1.05-0.638,1.792-0.638c0.8,0,1.442,0.238,1.93,0.718c0.486,0.479,0.73,1.086,0.73,1.823           c0,0.474-0.067,0.865-0.202,1.176h-0.67c0.197-0.354,0.295-0.745,0.295-1.169c0-0.555-0.184-1.004-0.554-1.354           c-0.366-0.348-0.865-0.521-1.491-0.521c-0.592,0-1.064,0.162-1.414,0.486c-0.349,0.325-0.524,0.75-0.524,1.275           c0,0.492,0.111,0.92,0.334,1.282H710.248z" />
            <path fill="#FFFFFF" d="M711.767,260.929v-1.887h0.484v1.887H711.767z" />
            <path fill="#FFFFFF" d="M710.042,264.74v-3.02h0.546l1.438,1.442c0.397,0.396,0.712,0.664,0.944,0.798           c0.231,0.134,0.472,0.202,0.719,0.202c0.281,0,0.498-0.079,0.648-0.236c0.149-0.159,0.226-0.388,0.226-0.688           c0-0.441-0.186-0.863-0.563-1.266h0.637c0.303,0.392,0.452,0.847,0.452,1.365c0,0.447-0.122,0.799-0.362,1.058           c-0.241,0.258-0.566,0.388-0.973,0.388c-0.309,0-0.611-0.082-0.906-0.248c-0.297-0.166-0.673-0.479-1.13-0.941           l-1.105-1.131h-0.013v2.276H710.042z" />
            <path fill="#FFFFFF" d="M710.042,268.588v-3.019h0.546l1.438,1.442c0.397,0.397,0.712,0.663,0.944,0.798           c0.231,0.135,0.472,0.201,0.719,0.201c0.281,0,0.498-0.078,0.648-0.236c0.149-0.159,0.226-0.388,0.226-0.686           c0-0.442-0.186-0.863-0.563-1.266h0.637c0.303,0.391,0.452,0.846,0.452,1.365c0,0.445-0.122,0.799-0.362,1.057           c-0.241,0.258-0.566,0.388-0.973,0.388c-0.309,0-0.611-0.083-0.906-0.248c-0.297-0.165-0.673-0.479-1.13-0.94l-1.105-1.132           h-0.013v2.275H710.042z" />
          </g>
          <g>
            <path fill="#FFFFFF" d="M721.168,258.189c-0.189-0.366-0.287-0.823-0.287-1.375c0-0.711,0.226-1.28,0.678-1.704           c0.452-0.426,1.049-0.638,1.793-0.638c0.8,0,1.442,0.238,1.93,0.718c0.487,0.479,0.73,1.086,0.73,1.823           c0,0.474-0.067,0.865-0.202,1.176h-0.67c0.197-0.354,0.294-0.745,0.294-1.169c0-0.555-0.184-1.004-0.553-1.354           c-0.368-0.348-0.866-0.521-1.491-0.521c-0.595,0-1.066,0.162-1.414,0.486c-0.35,0.325-0.525,0.75-0.525,1.275           c0,0.492,0.111,0.92,0.335,1.282H721.168z" />
            <path fill="#FFFFFF" d="M722.688,260.929v-1.887h0.483v1.887H722.688z" />
            <path fill="#FFFFFF" d="M720.965,264.74v-3.02h0.545l1.438,1.442c0.398,0.396,0.712,0.664,0.942,0.798           c0.233,0.134,0.472,0.202,0.722,0.202c0.281,0,0.497-0.079,0.647-0.236c0.151-0.159,0.226-0.388,0.226-0.688           c0-0.441-0.187-0.863-0.563-1.266h0.638c0.301,0.392,0.452,0.847,0.452,1.365c0,0.447-0.121,0.799-0.363,1.058           c-0.241,0.258-0.567,0.388-0.974,0.388c-0.307,0-0.61-0.082-0.907-0.248c-0.294-0.166-0.67-0.479-1.127-0.941l-1.107-1.131           h-0.011v2.276H720.965z" />
            <path fill="#FFFFFF" d="M721.794,265.688c-0.263,0.339-0.395,0.724-0.395,1.15c0,0.342,0.083,0.612,0.252,0.812           c0.168,0.201,0.393,0.3,0.675,0.3c0.628,0,0.94-0.448,0.94-1.349v-0.413h0.521v0.395c0,0.797,0.294,1.194,0.883,1.194           c0.546,0,0.819-0.304,0.819-0.913c0-0.349-0.117-0.676-0.354-0.984h0.593c0.188,0.325,0.283,0.705,0.283,1.139           c0,0.422-0.111,0.763-0.333,1.02c-0.22,0.256-0.508,0.383-0.859,0.383c-0.648,0-1.067-0.33-1.255-0.993h-0.012           c-0.039,0.359-0.163,0.644-0.38,0.851c-0.214,0.209-0.481,0.313-0.804,0.313c-0.443,0-0.806-0.161-1.079-0.483           c-0.272-0.32-0.409-0.748-0.409-1.283c0-0.469,0.088-0.849,0.262-1.137H721.794z" />
          </g>
        </g>
      </g>
    </g>
    <g>
      <rect x="647.737" y="254.288" fill="#FBC600" width="8.445" height="0.451" />
      <rect x="649.406" y="254.288" fill="#8DC21F" width="1.729" height="0.451" />
      <rect x="652.809" y="254.288" fill="#8DC21F" width="1.7" height="0.451" />
    </g>
    <g>
      <rect x="719.087" y="241.479" fill="#FBC600" width="8.443" height="0.453" />
      <rect x="708.273" y="241.479" fill="#FBC600" width="8.446" height="0.453" />
      <rect x="697.463" y="241.479" fill="#FBC600" width="8.446" height="0.453" />
      <rect x="680.744" y="241.479" fill="#FBC600" width="8.445" height="0.453" />
      <rect x="669.931" y="241.479" fill="#FBC600" width="8.445" height="0.453" />
      <rect x="659.12" y="241.479" fill="#FBC600" width="8.443" height="0.453" />
      <rect x="680.744" y="251.237" fill="#FBC600" width="8.445" height="0.451" />
      <rect x="669.931" y="251.237" fill="#FBC600" width="8.445" height="0.451" />
      <rect x="659.12" y="251.237" fill="#FBC600" width="8.443" height="0.451" />
      <rect x="719.087" y="251.237" fill="#FBC600" width="8.443" height="0.451" />
      <rect x="708.273" y="251.237" fill="#FBC600" width="8.446" height="0.451" />
      <rect x="697.463" y="251.237" fill="#FBC600" width="8.446" height="0.451" />
      <rect x="664.19" y="241.479" fill="#8DC21F" width="1.7" height="0.453" />
      <rect x="660.788" y="241.479" fill="#8DC21F" width="1.729" height="0.453" />
      <rect x="671.598" y="241.479" fill="#8DC21F" width="1.729" height="0.453" />
      <rect x="675.003" y="241.479" fill="#8DC21F" width="1.698" height="0.453" />
      <rect x="724.157" y="241.479" fill="#8DC21F" width="1.699" height="0.453" />
      <rect x="720.753" y="241.479" fill="#8DC21F" width="1.729" height="0.453" />
      <rect x="682.41" y="241.479" fill="#8DC21F" width="1.729" height="0.453" />
      <rect x="685.813" y="241.479" fill="#8DC21F" width="1.701" height="0.453" />
      <rect x="699.131" y="241.479" fill="#8DC21F" width="1.729" height="0.453" />
      <rect x="702.533" y="241.479" fill="#8DC21F" width="1.7" height="0.453" />
      <rect x="709.944" y="241.479" fill="#8DC21F" width="1.726" height="0.453" />
      <rect x="713.345" y="241.479" fill="#8DC21F" width="1.701" height="0.453" />
      <rect x="699.131" y="251.237" fill="#8DC21F" width="1.729" height="0.451" />
      <rect x="702.533" y="251.237" fill="#8DC21F" width="1.7" height="0.451" />
      <rect x="709.944" y="251.237" fill="#8DC21F" width="1.726" height="0.451" />
      <rect x="713.345" y="251.237" fill="#8DC21F" width="1.701" height="0.451" />
      <rect x="720.753" y="251.237" fill="#8DC21F" width="1.729" height="0.451" />
      <rect x="724.157" y="251.237" fill="#8DC21F" width="1.699" height="0.451" />
      <rect x="660.788" y="251.237" fill="#8DC21F" width="1.729" height="0.451" />
      <rect x="664.19" y="251.237" fill="#8DC21F" width="1.7" height="0.451" />
      <rect x="671.598" y="251.237" fill="#8DC21F" width="1.729" height="0.451" />
      <rect x="675.003" y="251.237" fill="#8DC21F" width="1.698" height="0.451" />
      <rect x="682.41" y="251.237" fill="#8DC21F" width="1.729" height="0.451" />
      <rect x="685.813" y="251.237" fill="#8DC21F" width="1.701" height="0.451" />
    </g>
  </g>
  <g>
    <g>
      <path fill="#AACC03" d="M617.693,221.57c-2.6,0-5.199,0-7.799,0v50.028c2.6,0,5.199,0,7.799,0        c1.611,0,2.281-0.745,2.281-2.544c0-14.979,0-29.96,0-44.94C619.975,222.315,619.305,221.57,617.693,221.57z" />
      <g>

        <rect x="608.739" y="233.933" fill="none" stroke="#FFFFFF" stroke-width="0.9362" stroke-linecap="round" stroke-linejoin="round" width="10.176" height="25.438" />
        <g>
          <path fill="#FFFFFF" d="M611.992,242.192c-0.191-0.365-0.288-0.824-0.288-1.375c0-0.711,0.227-1.279,0.676-1.705          c0.454-0.424,1.051-0.637,1.793-0.637c0.8,0,1.444,0.238,1.931,0.718c0.487,0.479,0.73,1.085,0.73,1.823          c0,0.474-0.066,0.865-0.2,1.176h-0.671c0.197-0.354,0.294-0.745,0.294-1.17c0-0.553-0.185-1.004-0.553-1.352          c-0.367-0.349-0.866-0.523-1.491-0.523c-0.594,0-1.065,0.163-1.414,0.488c-0.351,0.324-0.525,0.749-0.525,1.275          c0,0.491,0.111,0.918,0.334,1.281H611.992z" />
          <path fill="#FFFFFF" d="M613.512,244.933v-1.889h0.484v1.889H613.512z" />
          <path fill="#FFFFFF" d="M611.786,248.835v-2.846h0.542v1.113h3.77l-0.33-1.143h0.577l0.514,1.767h-4.53v1.108H611.786z" />
          <path fill="#FFFFFF" d="M616.532,252.761l-4.746-1.941v-0.65l4.41,1.846v-2.48h0.555v3.227H616.532z" />
        </g>
      </g>
    </g>
    <g>
      <rect x="610.001" y="254.288" fill="#FBC600" width="8.443" height="0.451" />
      <rect x="611.669" y="254.288" fill="#8DC21F" width="1.728" height="0.451" />
      <rect x="615.071" y="254.288" fill="#8DC21F" width="1.7" height="0.451" />
    </g>
</svg>
