<!DOCTYPE svg PUBLIC "-//W3C//DTD SVG 1.1//EN" "http://www.w3.org/Graphics/SVG/1.1/DTD/svg11.dtd">
<svg xmlns="http://www.w3.org/2000/svg" xmlns:xlink="http://www.w3.org/1999/xlink" version="1.1" id="图层_1" x="0px" y="0px" width="1028px" height="680px" viewBox="0 0 1028 680" enable-background="new 0 0 1028 680" xml:space="preserve" xmlns:xml="http://www.w3.org/XML/1998/namespace">
    <g>
      <g>
        <path fill="#AACC03" d="M617.834,293.601c-2.901,0-5.029,0.004-7.93,0.004l-0.001,27.066l-93.893-0.072l0.072,24.253         c35.052,0,69.174,0.003,104.226,0.003c1.799,0,2.544-0.746,2.544-2.543c0-14.415,0-28.83,0-43.245         C622.853,296.255,620.644,293.601,617.834,293.601z" />
        <g>
          <rect x="608.739" y="339.434" fill="none" stroke="#FFFFFF" stroke-width="1.8725" width="11.235" height="5.936" />
          <rect x="607.89" y="301.275" fill="none" stroke="#FFFFFF" stroke-width="1.8725" width="12.085" height="5.937" />
          <rect x="550.442" y="340.283" fill="none" stroke="#FFFFFF" stroke-width="1.8725" width="4.24" height="4.239" />
          <rect x="576.728" y="340.283" fill="none" stroke="#FFFFFF" stroke-width="1.8725" width="4.24" height="4.239" />
          <path fill="none" stroke="#FFFFFF" stroke-width="0.9362" stroke-linecap="round" stroke-linejoin="round" d="          M527.335,341.239c0,0.522,0.217,0.739,0.736,0.739" />
          <path fill="none" stroke="#FFFFFF" stroke-width="0.9362" stroke-linecap="round" stroke-linejoin="round" d="          M528.081,341.979c0.522,0,0.738-0.217,0.738-0.739" />
          <path fill="none" stroke="#FFFFFF" stroke-width="0.9362" stroke-linecap="round" stroke-linejoin="round" d="          M538.146,341.239c0,0.522,0.217,0.739,0.738,0.739" />
          <path fill="none" stroke="#FFFFFF" stroke-width="0.9362" stroke-linecap="round" stroke-linejoin="round" d="          M538.894,341.979c0.52,0,0.737-0.217,0.737-0.739" />

          <line fill="none" stroke="#FFFFFF" stroke-width="0.9362" stroke-linecap="round" stroke-linejoin="round" x1="518.007" y1="319.508" x2="518.007" y2="341.979" />

          <line fill="none" stroke="#FFFFFF" stroke-width="0.9362" stroke-linecap="round" stroke-linejoin="round" x1="548.958" y1="319.508" x2="548.958" y2="341.979" />

          <line fill="none" stroke="#FFFFFF" stroke-width="0.9362" stroke-linecap="round" stroke-linejoin="round" x1="527.335" y1="319.508" x2="527.335" y2="341.239" />

          <line fill="none" stroke="#FFFFFF" stroke-width="0.9362" stroke-linecap="round" stroke-linejoin="round" x1="528.819" y1="319.508" x2="528.819" y2="341.239" />

          <line fill="none" stroke="#FFFFFF" stroke-width="0.9362" stroke-linecap="round" stroke-linejoin="round" x1="538.146" y1="319.508" x2="538.146" y2="341.239" />

          <line fill="none" stroke="#FFFFFF" stroke-width="0.9362" stroke-linecap="round" stroke-linejoin="round" x1="539.631" y1="319.508" x2="539.631" y2="341.239" />

          <line fill="none" stroke="#FFFFFF" stroke-width="0.9362" stroke-linecap="round" stroke-linejoin="round" x1="593.292" y1="319.508" x2="593.292" y2="341.239" />

          <line fill="none" stroke="#FFFFFF" stroke-width="0.9362" stroke-linecap="round" stroke-linejoin="round" x1="591.808" y1="319.508" x2="591.808" y2="341.239" />

          <line fill="none" stroke="#FFFFFF" stroke-width="0.9362" stroke-linecap="round" stroke-linejoin="round" x1="582.483" y1="319.508" x2="582.483" y2="341.979" />

          <line fill="none" stroke="#FFFFFF" stroke-width="0.9362" stroke-linecap="round" stroke-linejoin="round" x1="602.621" y1="319.508" x2="602.621" y2="341.979" />
          <path fill="none" stroke="#FFFFFF" stroke-width="0.9362" stroke-linecap="round" stroke-linejoin="round" d="          M592.555,341.979c0.522,0,0.737-0.217,0.737-0.739" />
          <path fill="none" stroke="#FFFFFF" stroke-width="0.9362" stroke-linecap="round" stroke-linejoin="round" d="          M591.808,341.239c0,0.522,0.217,0.739,0.738,0.739" />

          <line fill="none" stroke="#FFFFFF" stroke-width="0.9362" stroke-linecap="round" stroke-linejoin="round" x1="592.546" y1="341.979" x2="592.555" y2="341.979" />

          <line fill="none" stroke="#FFFFFF" stroke-width="0.9362" stroke-linecap="round" stroke-linejoin="round" x1="566.448" y1="319.508" x2="566.448" y2="341.239" />

          <line fill="none" stroke="#FFFFFF" stroke-width="0.9362" stroke-linecap="round" stroke-linejoin="round" x1="564.964" y1="319.508" x2="564.964" y2="341.239" />

          <line fill="none" stroke="#FFFFFF" stroke-width="0.9362" stroke-linecap="round" stroke-linejoin="round" x1="575.774" y1="319.508" x2="575.774" y2="341.979" />
          <path fill="none" stroke="#FFFFFF" stroke-width="0.9362" stroke-linecap="round" stroke-linejoin="round" d="          M565.71,341.979c0.52,0,0.738-0.217,0.738-0.739" />
          <path fill="none" stroke="#FFFFFF" stroke-width="0.9362" stroke-linecap="round" stroke-linejoin="round" d="          M564.964,341.239c0,0.522,0.216,0.739,0.738,0.739" />

          <line fill="none" stroke="#FFFFFF" stroke-width="0.9362" stroke-linecap="round" stroke-linejoin="round" x1="565.702" y1="341.979" x2="565.71" y2="341.979" />

          <rect x="608.739" y="310.568" fill="none" stroke="#FFFFFF" stroke-width="0.9362" stroke-linecap="round" stroke-linejoin="round" width="10.176" height="25.438" />

          <line fill="none" stroke="#FFFFFF" stroke-width="0.9362" stroke-linecap="round" stroke-linejoin="round" x1="555.636" y1="319.508" x2="555.636" y2="341.979" />
          <g>
            <path fill="#FFFFFF" d="M611.992,322.332c-0.191-0.365-0.288-0.823-0.288-1.376c0-0.71,0.227-1.278,0.676-1.703           c0.454-0.427,1.051-0.637,1.793-0.637c0.8,0,1.444,0.236,1.931,0.716c0.487,0.479,0.73,1.087,0.73,1.824           c0,0.473-0.066,0.866-0.2,1.176h-0.671c0.197-0.355,0.294-0.744,0.294-1.17c0-0.553-0.185-1.004-0.553-1.354           c-0.367-0.348-0.866-0.521-1.491-0.521c-0.594,0-1.065,0.161-1.414,0.486c-0.351,0.325-0.525,0.75-0.525,1.275           c0,0.492,0.111,0.919,0.334,1.282H611.992z" />
            <path fill="#FFFFFF" d="M613.512,325.071v-1.888h0.484v1.888H613.512z" />
            <path fill="#FFFFFF" d="M611.786,328.883v-3.019h0.545l1.44,1.441c0.396,0.398,0.711,0.663,0.943,0.797           c0.232,0.136,0.471,0.202,0.718,0.202c0.284,0,0.499-0.078,0.65-0.236c0.15-0.157,0.225-0.387,0.225-0.687           c0-0.441-0.188-0.863-0.563-1.267h0.638c0.303,0.393,0.452,0.849,0.452,1.366c0,0.447-0.121,0.801-0.361,1.059           c-0.241,0.259-0.566,0.387-0.974,0.387c-0.31,0-0.611-0.082-0.906-0.249c-0.297-0.165-0.674-0.479-1.13-0.94l-1.105-1.131           h-0.013v2.276H611.786z" />
            <path fill="#FFFFFF" d="M613.074,332.986v-0.633h-1.288v-0.609h1.288v-2.314h0.407l3.27,2.195v0.729h-3.18v0.633H613.074z            M613.571,331.744h2.08c0.147,0,0.318,0.004,0.51,0.012v-0.012c-0.082-0.03-0.209-0.094-0.382-0.188l-2.208-1.478V331.744z           " />
          </g>
          <g>
            <path fill="#FFFFFF" d="M595.789,331.014c-0.192-0.364-0.288-0.824-0.288-1.373c0-0.714,0.228-1.28,0.678-1.706           c0.453-0.426,1.049-0.637,1.793-0.637c0.799,0,1.443,0.238,1.929,0.716c0.487,0.481,0.73,1.087,0.73,1.825           c0,0.474-0.067,0.865-0.202,1.175h-0.67c0.197-0.354,0.297-0.743,0.297-1.17c0-0.552-0.186-1.004-0.553-1.352           c-0.369-0.348-0.866-0.522-1.492-0.522c-0.594,0-1.065,0.162-1.415,0.487c-0.351,0.324-0.523,0.749-0.523,1.275           c0,0.491,0.111,0.918,0.332,1.281H595.789z" />
            <path fill="#FFFFFF" d="M597.309,333.754v-1.887h0.484v1.887H597.309z" />
            <path fill="#FFFFFF" d="M595.585,337.563v-3.018h0.544l1.439,1.441c0.396,0.398,0.711,0.663,0.943,0.8           c0.231,0.133,0.472,0.2,0.719,0.2c0.282,0,0.499-0.081,0.65-0.238c0.15-0.157,0.226-0.387,0.226-0.685           c0-0.441-0.188-0.864-0.565-1.267h0.638c0.301,0.393,0.452,0.848,0.452,1.367c0,0.444-0.119,0.799-0.362,1.056           c-0.241,0.258-0.565,0.389-0.974,0.389c-0.308,0-0.608-0.083-0.905-0.249c-0.296-0.166-0.673-0.479-1.129-0.941           l-1.105-1.13h-0.013v2.274H595.585z" />
            <path fill="#FFFFFF" d="M596.347,338.621c-0.218,0.333-0.326,0.682-0.326,1.042c0,0.342,0.095,0.617,0.286,0.826           c0.191,0.211,0.445,0.313,0.761,0.313c0.318,0,0.566-0.104,0.742-0.318c0.174-0.21,0.262-0.519,0.262-0.923           c0-0.194-0.016-0.457-0.045-0.786h2.521v2.442h-0.555v-1.859h-1.402c0.011,0.187,0.016,0.327,0.016,0.42           c0,0.523-0.132,0.932-0.396,1.226c-0.267,0.291-0.632,0.438-1.097,0.438c-0.481,0-0.871-0.158-1.166-0.472           c-0.299-0.314-0.446-0.748-0.446-1.3c0-0.465,0.068-0.813,0.206-1.05H596.347z" />
          </g>
          <g>
            <path fill="#FFFFFF" d="M584.646,331.014c-0.192-0.364-0.286-0.824-0.286-1.373c0-0.714,0.225-1.28,0.676-1.706           c0.452-0.426,1.05-0.637,1.794-0.637c0.799,0,1.442,0.238,1.93,0.716c0.487,0.481,0.73,1.087,0.73,1.825           c0,0.474-0.067,0.865-0.202,1.175h-0.671c0.197-0.354,0.295-0.743,0.295-1.17c0-0.552-0.184-1.004-0.552-1.352           c-0.369-0.348-0.867-0.522-1.491-0.522c-0.594,0-1.065,0.162-1.414,0.487c-0.351,0.324-0.525,0.749-0.525,1.275           c0,0.491,0.111,0.918,0.334,1.281H584.646z" />
            <path fill="#FFFFFF" d="M586.166,333.754v-1.887h0.484v1.887H586.166z" />
            <path fill="#FFFFFF" d="M584.441,337.563v-3.018h0.544l1.439,1.441c0.398,0.398,0.712,0.663,0.942,0.8           c0.233,0.133,0.472,0.2,0.72,0.2c0.282,0,0.5-0.081,0.65-0.238s0.225-0.387,0.225-0.685c0-0.441-0.187-0.864-0.563-1.267           h0.638c0.3,0.393,0.452,0.848,0.452,1.367c0,0.444-0.121,0.799-0.364,1.056c-0.24,0.258-0.563,0.389-0.973,0.389           c-0.309,0-0.61-0.083-0.904-0.249c-0.297-0.166-0.674-0.479-1.131-0.941l-1.106-1.13H585v2.274H584.441z" />
            <path fill="#FFFFFF" d="M588.767,341.317c0.134-0.258,0.2-0.529,0.2-0.811c0-0.43-0.187-0.774-0.562-1.036           c-0.375-0.26-0.886-0.393-1.531-0.397v0.017c0.455,0.235,0.681,0.61,0.681,1.125c0,0.43-0.138,0.771-0.418,1.028           c-0.281,0.257-0.651,0.385-1.115,0.385c-0.485,0-0.884-0.147-1.195-0.444c-0.313-0.296-0.467-0.672-0.467-1.132           c0-0.506,0.194-0.9,0.59-1.188c0.395-0.288,0.953-0.431,1.678-0.431c0.876,0,1.571,0.188,2.088,0.565           c0.516,0.377,0.774,0.872,0.774,1.488c0,0.354-0.049,0.628-0.146,0.83H588.767z M586.066,339.112           c-0.327,0-0.606,0.087-0.841,0.262c-0.231,0.175-0.35,0.404-0.35,0.693c0,0.273,0.102,0.495,0.304,0.667           c0.199,0.171,0.458,0.256,0.773,0.256c0.343,0,0.607-0.081,0.799-0.243c0.189-0.159,0.284-0.39,0.284-0.687           c0-0.282-0.096-0.51-0.287-0.685C586.558,339.199,586.33,339.112,586.066,339.112z" />
          </g>
          <g>
            <path fill="#FFFFFF" d="M568.718,331.014c-0.193-0.364-0.288-0.824-0.288-1.373c0-0.714,0.224-1.28,0.678-1.706           c0.449-0.426,1.05-0.637,1.791-0.637c0.801,0,1.443,0.238,1.931,0.716c0.487,0.481,0.73,1.087,0.73,1.825           c0,0.474-0.067,0.865-0.203,1.175h-0.669c0.197-0.354,0.295-0.743,0.295-1.17c0-0.552-0.184-1.004-0.553-1.352           s-0.866-0.522-1.491-0.522c-0.594,0-1.065,0.162-1.415,0.487c-0.349,0.324-0.524,0.749-0.524,1.275           c0,0.491,0.113,0.918,0.334,1.281H568.718z" />
            <path fill="#FFFFFF" d="M570.235,333.754v-1.887h0.484v1.887H570.235z" />
            <path fill="#FFFFFF" d="M568.513,337.563v-3.018h0.543l1.441,1.441c0.396,0.398,0.71,0.663,0.942,0.8           c0.231,0.133,0.472,0.2,0.72,0.2c0.281,0,0.497-0.081,0.649-0.238c0.149-0.157,0.226-0.387,0.226-0.685           c0-0.441-0.188-0.864-0.564-1.267h0.639c0.3,0.393,0.451,0.848,0.451,1.367c0,0.444-0.12,0.799-0.36,1.056           c-0.243,0.258-0.568,0.389-0.977,0.389c-0.308,0-0.608-0.083-0.904-0.249c-0.297-0.166-0.673-0.479-1.13-0.941l-1.104-1.13           h-0.014v2.274H568.513z" />
            <path fill="#FFFFFF" d="M573.259,341.582l-4.746-1.94v-0.652l4.409,1.848v-2.482h0.553v3.228H573.259z" />
          </g>
          <g>
            <path fill="#FFFFFF" d="M557.915,331.014c-0.191-0.364-0.287-0.824-0.287-1.373c0-0.714,0.225-1.28,0.679-1.706           c0.449-0.426,1.048-0.637,1.791-0.637c0.798,0,1.442,0.238,1.93,0.716c0.487,0.481,0.73,1.087,0.73,1.825           c0,0.474-0.068,0.865-0.202,1.175h-0.669c0.196-0.354,0.294-0.743,0.294-1.17c0-0.552-0.184-1.004-0.552-1.352           c-0.369-0.348-0.866-0.522-1.494-0.522c-0.591,0-1.064,0.162-1.414,0.487c-0.348,0.324-0.523,0.749-0.523,1.275           c0,0.491,0.111,0.918,0.333,1.281H557.915z" />
            <path fill="#FFFFFF" d="M559.434,333.754v-1.887h0.485v1.887H559.434z" />
            <path fill="#FFFFFF" d="M557.711,337.563v-3.018h0.544l1.438,1.441c0.398,0.398,0.713,0.663,0.945,0.8           c0.231,0.133,0.472,0.2,0.72,0.2c0.28,0,0.497-0.081,0.646-0.238c0.15-0.157,0.228-0.387,0.228-0.685           c0-0.441-0.189-0.864-0.564-1.267h0.639c0.301,0.393,0.451,0.848,0.451,1.367c0,0.444-0.121,0.799-0.362,1.056           c-0.24,0.258-0.565,0.389-0.974,0.389c-0.308,0-0.61-0.083-0.905-0.249c-0.297-0.166-0.673-0.479-1.129-0.941l-1.106-1.13           h-0.013v2.274H557.711z" />
            <path fill="#FFFFFF" d="M560.321,339.459c0.277-0.593,0.677-0.888,1.2-0.888c0.365,0,0.661,0.139,0.892,0.416           s0.345,0.633,0.345,1.064c0,0.395-0.109,0.721-0.324,0.977c-0.216,0.256-0.493,0.384-0.836,0.384           c-0.551,0-0.975-0.308-1.271-0.925h-0.013c-0.262,0.724-0.706,1.087-1.334,1.087c-0.412,0-0.741-0.149-0.985-0.448           c-0.244-0.298-0.366-0.714-0.366-1.248c0-0.438,0.121-0.794,0.361-1.069c0.242-0.276,0.554-0.414,0.938-0.414           c0.633,0,1.093,0.354,1.382,1.064H560.321z M560.022,339.945c-0.246-0.613-0.6-0.919-1.061-0.919           c-0.241,0-0.437,0.09-0.591,0.27c-0.154,0.178-0.23,0.412-0.23,0.701c0,0.279,0.076,0.507,0.228,0.682           c0.153,0.175,0.345,0.264,0.572,0.264C559.423,340.942,559.782,340.61,560.022,339.945z M561.523,340.778           c0.223,0,0.397-0.069,0.525-0.209c0.13-0.139,0.193-0.325,0.193-0.563c0-0.222-0.067-0.411-0.202-0.567           c-0.132-0.156-0.304-0.233-0.51-0.233c-0.415,0-0.729,0.26-0.945,0.779C560.804,340.515,561.117,340.778,561.523,340.778z" />
          </g>
          <g>
            <path fill="#FFFFFF" d="M541.986,331.014c-0.191-0.364-0.288-0.824-0.288-1.373c0-0.714,0.226-1.28,0.677-1.706           c0.453-0.426,1.051-0.637,1.794-0.637c0.799,0,1.442,0.238,1.93,0.716c0.486,0.481,0.73,1.087,0.73,1.825           c0,0.474-0.067,0.865-0.202,1.175h-0.67c0.197-0.354,0.295-0.743,0.295-1.17c0-0.552-0.185-1.004-0.554-1.352           c-0.366-0.348-0.865-0.522-1.491-0.522c-0.592,0-1.066,0.162-1.414,0.487c-0.35,0.324-0.524,0.749-0.524,1.275           c0,0.491,0.111,0.918,0.333,1.281H541.986z" />
            <path fill="#FFFFFF" d="M543.507,333.754v-1.887h0.483v1.887H543.507z" />
            <path fill="#FFFFFF" d="M541.78,337.563v-3.018h0.544l1.441,1.441c0.397,0.398,0.711,0.663,0.944,0.8           c0.231,0.133,0.471,0.2,0.719,0.2c0.281,0,0.498-0.081,0.648-0.238c0.149-0.157,0.226-0.387,0.226-0.685           c0-0.441-0.188-0.864-0.563-1.267h0.638c0.301,0.393,0.452,0.848,0.452,1.367c0,0.444-0.122,0.799-0.362,1.056           c-0.241,0.258-0.566,0.389-0.976,0.389c-0.306,0-0.608-0.083-0.904-0.249s-0.674-0.479-1.13-0.941l-1.104-1.13h-0.014           v2.274H541.78z" />
            <path fill="#FFFFFF" d="M542.454,338.647c-0.157,0.273-0.236,0.567-0.236,0.886c0,0.442,0.175,0.787,0.525,1.032           s0.848,0.368,1.492,0.368c-0.003-0.006-0.003-0.011,0-0.015c-0.413-0.219-0.62-0.584-0.62-1.1           c0-0.416,0.142-0.761,0.429-1.033c0.285-0.274,0.657-0.412,1.115-0.412c0.487,0,0.887,0.15,1.201,0.45           c0.313,0.3,0.469,0.687,0.469,1.163c0,0.494-0.194,0.879-0.582,1.156c-0.387,0.277-0.953,0.417-1.694,0.417           c-0.916,0-1.62-0.18-2.115-0.539c-0.493-0.359-0.739-0.854-0.739-1.488c0-0.349,0.057-0.646,0.17-0.886H542.454z            M545.238,339.009c-0.332,0-0.596,0.086-0.792,0.258c-0.196,0.171-0.293,0.406-0.293,0.708           c0,0.261,0.089,0.479,0.267,0.656s0.396,0.267,0.649,0.267c0.356,0,0.65-0.089,0.887-0.264           c0.233-0.176,0.35-0.41,0.35-0.699c0-0.267-0.101-0.487-0.304-0.663S545.546,339.009,545.238,339.009z" />
          </g>
          <g>
            <path fill="#FFFFFF" d="M531.187,331.014c-0.193-0.364-0.291-0.824-0.291-1.373c0-0.714,0.228-1.28,0.681-1.706           c0.451-0.426,1.047-0.637,1.792-0.637c0.798,0,1.439,0.238,1.928,0.716c0.487,0.481,0.731,1.087,0.731,1.825           c0,0.474-0.066,0.865-0.203,1.175h-0.668c0.194-0.354,0.294-0.743,0.294-1.17c0-0.552-0.185-1.004-0.553-1.352           c-0.369-0.348-0.866-0.522-1.491-0.522c-0.595,0-1.066,0.162-1.414,0.487c-0.351,0.324-0.525,0.749-0.525,1.275           c0,0.491,0.111,0.918,0.333,1.281H531.187z" />
            <path fill="#FFFFFF" d="M532.703,333.754v-1.887h0.485v1.887H532.703z" />
            <path fill="#FFFFFF" d="M531.811,334.664c-0.263,0.341-0.396,0.722-0.396,1.15c0,0.341,0.085,0.613,0.253,0.813           c0.168,0.201,0.392,0.299,0.674,0.299c0.628,0,0.942-0.448,0.942-1.349v-0.412h0.519v0.395           c0,0.797,0.295,1.194,0.884,1.194c0.546,0,0.818-0.305,0.818-0.913c0-0.35-0.119-0.676-0.354-0.984h0.594           c0.188,0.324,0.282,0.704,0.282,1.137c0,0.424-0.111,0.764-0.333,1.02c-0.221,0.257-0.507,0.385-0.859,0.385           c-0.65,0-1.067-0.331-1.252-0.994h-0.014c-0.039,0.359-0.166,0.644-0.38,0.852c-0.216,0.208-0.482,0.313-0.804,0.313           c-0.446,0-0.807-0.161-1.078-0.481c-0.275-0.321-0.412-0.751-0.412-1.283c0-0.47,0.089-0.85,0.264-1.139H531.811z" />
            <path fill="#FFFFFF" d="M533.363,338.348c0.877,0,1.538,0.144,1.99,0.434c0.448,0.292,0.674,0.713,0.674,1.262           c0,1.054-0.848,1.577-2.544,1.577c-0.838,0-1.479-0.147-1.922-0.442c-0.443-0.296-0.666-0.712-0.666-1.246           c0-0.504,0.212-0.893,0.632-1.171C531.949,338.484,532.561,338.348,533.363,338.348z M533.393,338.987           c-1.318,0-1.978,0.334-1.978,1.003c0,0.659,0.669,0.987,2.01,0.987c1.387,0,2.08-0.322,2.08-0.968           C535.505,339.327,534.801,338.987,533.393,338.987z" />
          </g>
          <g>
            <path fill="#FFFFFF" d="M520.383,331.014c-0.192-0.364-0.288-0.824-0.288-1.373c0-0.714,0.226-1.28,0.678-1.706           s1.05-0.637,1.793-0.637c0.798,0,1.441,0.238,1.929,0.716c0.486,0.481,0.731,1.087,0.731,1.825           c0,0.474-0.066,0.865-0.202,1.175h-0.671c0.197-0.354,0.296-0.743,0.296-1.17c0-0.552-0.185-1.004-0.553-1.352           c-0.369-0.348-0.866-0.522-1.492-0.522c-0.594,0-1.065,0.162-1.415,0.487c-0.35,0.324-0.523,0.749-0.523,1.275           c0,0.491,0.109,0.918,0.334,1.281H520.383z" />
            <path fill="#FFFFFF" d="M521.902,333.754v-1.887h0.482v1.887H521.902z" />
            <path fill="#FFFFFF" d="M521.008,334.664c-0.264,0.341-0.394,0.722-0.394,1.15c0,0.341,0.083,0.613,0.251,0.813           c0.167,0.201,0.393,0.299,0.674,0.299c0.629,0,0.942-0.448,0.942-1.349v-0.412h0.521v0.395           c0,0.797,0.294,1.194,0.883,1.194c0.546,0,0.817-0.305,0.817-0.913c0-0.35-0.117-0.676-0.352-0.984h0.593           c0.188,0.324,0.282,0.704,0.282,1.137c0,0.424-0.111,0.764-0.333,1.02c-0.221,0.257-0.508,0.385-0.86,0.385           c-0.648,0-1.066-0.331-1.253-0.994h-0.013c-0.038,0.359-0.164,0.644-0.379,0.852s-0.483,0.313-0.804,0.313           c-0.446,0-0.806-0.161-1.08-0.481c-0.273-0.321-0.409-0.751-0.409-1.283c0-0.47,0.087-0.85,0.263-1.139H521.008z" />
            <path fill="#FFFFFF" d="M520.177,341.506v-2.846h0.542v1.113h3.77l-0.33-1.142h0.576l0.514,1.766h-4.529v1.108H520.177z" />
          </g>
        </g>
      </g>
      <g>
        <rect x="540.057" y="324.161" fill="#FBC600" width="8.444" height="0.451" />
        <rect x="529.245" y="324.161" fill="#FBC600" width="8.444" height="0.451" />
        <rect x="518.433" y="324.161" fill="#FBC600" width="8.445" height="0.451" />
        <rect x="593.718" y="324.161" fill="#FBC600" width="8.446" height="0.451" />
        <rect x="582.907" y="324.161" fill="#FBC600" width="8.445" height="0.451" />
        <rect x="566.873" y="324.161" fill="#FBC600" width="8.444" height="0.451" />
        <rect x="556.062" y="324.161" fill="#FBC600" width="8.445" height="0.451" />
        <rect x="545.125" y="324.161" fill="#8DC21F" width="1.702" height="0.451" />
        <rect x="557.73" y="324.161" fill="#8DC21F" width="1.729" height="0.451" />
        <rect x="561.133" y="324.161" fill="#8DC21F" width="1.698" height="0.451" />
        <rect x="568.542" y="324.161" fill="#8DC21F" width="1.728" height="0.451" />
        <rect x="571.942" y="324.161" fill="#8DC21F" width="1.703" height="0.451" />
        <rect x="584.576" y="324.161" fill="#8DC21F" width="1.727" height="0.451" />
        <rect x="587.978" y="324.161" fill="#8DC21F" width="1.7" height="0.451" />
        <rect x="595.386" y="324.161" fill="#8DC21F" width="1.729" height="0.451" />
        <rect x="598.788" y="324.161" fill="#8DC21F" width="1.701" height="0.451" />
        <rect x="520.103" y="324.161" fill="#8DC21F" width="1.728" height="0.451" />
        <rect x="523.504" y="324.161" fill="#8DC21F" width="1.701" height="0.451" />
        <rect x="530.913" y="324.161" fill="#8DC21F" width="1.728" height="0.451" />
        <rect x="534.315" y="324.161" fill="#8DC21F" width="1.701" height="0.451" />
        <rect x="541.726" y="324.161" fill="#8DC21F" width="1.728" height="0.451" />
      </g>
    </g>
    <g>
      <rect x="610.057" y="315.525" fill="#FBC600" width="8.445" height="0.451" />
      <rect x="611.726" y="315.525" fill="#8DC21F" width="1.728" height="0.451" />
      <rect x="615.126" y="315.525" fill="#8DC21F" width="1.701" height="0.451" />
    </g>
</svg>
