<!DOCTYPE svg PUBLIC "-//W3C//DTD SVG 1.1//EN" "http://www.w3.org/Graphics/SVG/1.1/DTD/svg11.dtd">
<svg xmlns="http://www.w3.org/2000/svg" xmlns:xlink="http://www.w3.org/1999/xlink" version="1.1" id="图层_1" x="0px" y="0px" width="1028px" height="680px" viewBox="0 0 1028 680" enable-background="new 0 0 1028 680" xml:space="preserve" xmlns:xml="http://www.w3.org/XML/1998/namespace">
    <g>
      <g>
        <path fill="#AACC03" d="M620.416,368.076c-35.198,0-70.397,0-105.595,0v15.687h41.556v33.919h-41.556v4.003         c35.197,0,70.396,0,105.595,0c2.81,0,5.088-2.277,5.088-5.089c0-14.478,0-28.955,0-43.432         C625.504,370.355,623.226,368.076,620.416,368.076z" />
        <g>
          <rect x="614.04" y="377.59" fill="none" stroke="#FFFFFF" stroke-width="1.8725" width="5.935" height="5.938" />
          <rect x="614.04" y="415.748" fill="none" stroke="#FFFFFF" stroke-width="1.8725" width="5.935" height="5.937" />
          <rect x="576.728" y="410.05" fill="none" stroke="#FFFFFF" stroke-width="1.8725" width="4.24" height="4.239" />
          <rect x="550.442" y="371.892" fill="none" stroke="#FFFFFF" stroke-width="1.8725" width="4.24" height="4.239" />
          <rect x="576.728" y="371.892" fill="none" stroke="#FFFFFF" stroke-width="1.8725" width="4.24" height="4.239" />
          <path fill="none" stroke="#FFFFFF" stroke-width="0.9362" stroke-linecap="round" stroke-linejoin="round" d="          M566.442,371.468c-0.521,0-0.735,0.217-0.735,0.739" />

          <line fill="none" stroke="#FFFFFF" stroke-width="0.9362" stroke-linecap="round" stroke-linejoin="round" x1="567.188" y1="393.938" x2="567.188" y2="415.672" />

          <line fill="none" stroke="#FFFFFF" stroke-width="0.9362" stroke-linecap="round" stroke-linejoin="round" x1="565.707" y1="393.938" x2="565.707" y2="415.672" />

          <line fill="none" stroke="#FFFFFF" stroke-width="0.9362" stroke-linecap="round" stroke-linejoin="round" x1="556.377" y1="393.938" x2="556.377" y2="416.409" />

          <line fill="none" stroke="#FFFFFF" stroke-width="0.9362" stroke-linecap="round" stroke-linejoin="round" x1="576.518" y1="393.938" x2="576.518" y2="416.409" />

          <line fill="none" stroke="#FFFFFF" stroke-width="0.9362" stroke-linecap="round" stroke-linejoin="round" x1="556.377" y1="393.938" x2="576.518" y2="393.938" />
          <path fill="none" stroke="#FFFFFF" stroke-width="0.9362" stroke-linecap="round" stroke-linejoin="round" d="          M566.452,416.409c0.521,0,0.736-0.218,0.736-0.737" />
          <path fill="none" stroke="#FFFFFF" stroke-width="0.9362" stroke-linecap="round" stroke-linejoin="round" d="          M565.707,415.672c0,0.52,0.215,0.737,0.735,0.737" />

          <line fill="none" stroke="#FFFFFF" stroke-width="0.9362" stroke-linecap="round" stroke-linejoin="round" x1="566.442" y1="416.409" x2="566.452" y2="416.409" />
          <path fill="none" stroke="#FFFFFF" stroke-width="0.9362" stroke-linecap="round" stroke-linejoin="round" d="          M603.458,372.207c0-0.522-0.215-0.739-0.738-0.739" />
          <path fill="none" stroke="#FFFFFF" stroke-width="0.9362" stroke-linecap="round" stroke-linejoin="round" d="          M602.712,371.468c-0.522,0-0.738,0.217-0.738,0.739" />
          <path fill="none" stroke="#FFFFFF" stroke-width="0.9362" stroke-linecap="round" stroke-linejoin="round" d="          M592.646,372.207c0-0.522-0.217-0.739-0.739-0.739" />
          <path fill="none" stroke="#FFFFFF" stroke-width="0.9362" stroke-linecap="round" stroke-linejoin="round" d="          M591.898,371.468c-0.52,0-0.737,0.217-0.737,0.739" />

          <line fill="none" stroke="#FFFFFF" stroke-width="0.9362" stroke-linecap="round" stroke-linejoin="round" x1="612.784" y1="393.938" x2="612.784" y2="371.468" />

          <line fill="none" stroke="#FFFFFF" stroke-width="0.9362" stroke-linecap="round" stroke-linejoin="round" x1="581.833" y1="393.938" x2="581.833" y2="371.468" />

          <line fill="none" stroke="#FFFFFF" stroke-width="0.9362" stroke-linecap="round" stroke-linejoin="round" x1="603.458" y1="393.938" x2="603.458" y2="372.207" />

          <line fill="none" stroke="#FFFFFF" stroke-width="0.9362" stroke-linecap="round" stroke-linejoin="round" x1="601.974" y1="393.938" x2="601.974" y2="372.207" />

          <line fill="none" stroke="#FFFFFF" stroke-width="0.9362" stroke-linecap="round" stroke-linejoin="round" x1="592.646" y1="393.938" x2="592.646" y2="372.207" />

          <line fill="none" stroke="#FFFFFF" stroke-width="0.9362" stroke-linecap="round" stroke-linejoin="round" x1="591.161" y1="393.938" x2="591.161" y2="372.207" />

          <line fill="none" stroke="#FFFFFF" stroke-width="0.9362" stroke-linecap="round" stroke-linejoin="round" x1="612.784" y1="393.938" x2="581.833" y2="393.938" />
          <path fill="none" stroke="#FFFFFF" stroke-width="0.9362" stroke-linecap="round" stroke-linejoin="round" d="          M591.161,415.672c0,0.52,0.218,0.737,0.737,0.737" />
          <path fill="none" stroke="#FFFFFF" stroke-width="0.9362" stroke-linecap="round" stroke-linejoin="round" d="          M591.907,416.409c0.522,0,0.739-0.218,0.739-0.737" />
          <path fill="none" stroke="#FFFFFF" stroke-width="0.9362" stroke-linecap="round" stroke-linejoin="round" d="          M601.974,415.672c0,0.52,0.216,0.737,0.738,0.737" />
          <path fill="none" stroke="#FFFFFF" stroke-width="0.9362" stroke-linecap="round" stroke-linejoin="round" d="          M602.72,416.409c0.523,0,0.738-0.218,0.738-0.737" />

          <line fill="none" stroke="#FFFFFF" stroke-width="0.9362" stroke-linecap="round" stroke-linejoin="round" x1="581.833" y1="393.938" x2="581.833" y2="416.409" />

          <line fill="none" stroke="#FFFFFF" stroke-width="0.9362" stroke-linecap="round" stroke-linejoin="round" x1="591.161" y1="393.938" x2="591.161" y2="415.672" />

          <line fill="none" stroke="#FFFFFF" stroke-width="0.9362" stroke-linecap="round" stroke-linejoin="round" x1="592.646" y1="393.938" x2="592.646" y2="415.672" />

          <line fill="none" stroke="#FFFFFF" stroke-width="0.9362" stroke-linecap="round" stroke-linejoin="round" x1="601.974" y1="393.938" x2="601.974" y2="415.672" />

          <line fill="none" stroke="#FFFFFF" stroke-width="0.9362" stroke-linecap="round" stroke-linejoin="round" x1="603.458" y1="393.938" x2="603.458" y2="415.672" />

          <rect x="516.542" y="371.781" fill="none" stroke="#FFFFFF" stroke-width="0.9362" stroke-linecap="round" stroke-linejoin="round" width="25.439" height="10.175" />

          <rect x="612.784" y="387.047" fill="none" stroke="#FFFFFF" stroke-width="0.9362" stroke-linecap="round" stroke-linejoin="round" width="10.177" height="25.438" />

          <line fill="none" stroke="#FFFFFF" stroke-width="0.9362" stroke-linecap="round" stroke-linejoin="round" x1="567.188" y1="372.207" x2="567.188" y2="393.938" />

          <line fill="none" stroke="#FFFFFF" stroke-width="0.9362" stroke-linecap="round" stroke-linejoin="round" x1="565.707" y1="372.207" x2="565.707" y2="393.938" />

          <line fill="none" stroke="#FFFFFF" stroke-width="0.9362" stroke-linecap="round" stroke-linejoin="round" x1="576.518" y1="393.938" x2="576.518" y2="371.468" />

          <line fill="none" stroke="#FFFFFF" stroke-width="0.9362" stroke-linecap="round" stroke-linejoin="round" x1="556.377" y1="371.468" x2="556.377" y2="393.938" />
          <path fill="none" stroke="#FFFFFF" stroke-width="0.9362" stroke-linecap="round" stroke-linejoin="round" d="          M567.188,372.207c0-0.522-0.215-0.739-0.736-0.739" />
          <g>
            <path fill="#FFFFFF" d="M606.044,375.177c-0.192-0.364-0.287-0.822-0.287-1.375c0-0.71,0.226-1.278,0.676-1.704           c0.453-0.425,1.05-0.638,1.794-0.638c0.798,0,1.443,0.239,1.928,0.719c0.487,0.479,0.732,1.085,0.732,1.822           c0,0.475-0.066,0.867-0.202,1.176h-0.669c0.197-0.354,0.294-0.744,0.294-1.17c0-0.553-0.184-1.002-0.553-1.351           c-0.368-0.35-0.866-0.524-1.492-0.524c-0.594,0-1.065,0.162-1.414,0.488c-0.35,0.325-0.524,0.75-0.524,1.275           c0,0.49,0.111,0.919,0.333,1.281H606.044z" />
            <path fill="#FFFFFF" d="M607.563,377.917v-1.888h0.485v1.888H607.563z" />
            <path fill="#FFFFFF" d="M606.67,378.826c-0.266,0.34-0.395,0.725-0.395,1.15c0,0.344,0.083,0.613,0.251,0.813           c0.169,0.2,0.394,0.3,0.676,0.3c0.628,0,0.94-0.45,0.94-1.351v-0.412h0.521v0.395c0,0.797,0.295,1.196,0.883,1.196           c0.545,0,0.818-0.307,0.818-0.916c0-0.347-0.118-0.675-0.353-0.982h0.593c0.188,0.326,0.282,0.703,0.282,1.139           c0,0.422-0.111,0.762-0.332,1.019c-0.223,0.255-0.508,0.384-0.861,0.384c-0.649,0-1.066-0.331-1.253-0.993h-0.012           c-0.039,0.357-0.166,0.642-0.38,0.85s-0.481,0.313-0.804,0.313c-0.446,0-0.806-0.162-1.079-0.482s-0.409-0.749-0.409-1.283           c0-0.47,0.087-0.849,0.262-1.139H606.67z" />
            <path fill="#FFFFFF" d="M610.585,385.745l-4.746-1.941v-0.65l4.409,1.846v-2.479h0.555v3.226H610.585z" />
          </g>
          <g>
            <path fill="#FFFFFF" d="M606.044,406.043c-0.192-0.365-0.287-0.822-0.287-1.373c0-0.712,0.226-1.282,0.676-1.707           c0.453-0.424,1.05-0.636,1.794-0.636c0.798,0,1.443,0.238,1.928,0.716c0.487,0.479,0.732,1.089,0.732,1.824           c0,0.476-0.066,0.866-0.202,1.176h-0.669c0.197-0.354,0.294-0.744,0.294-1.17c0-0.553-0.184-1.004-0.553-1.351           c-0.368-0.35-0.866-0.522-1.492-0.522c-0.594,0-1.065,0.162-1.414,0.487c-0.35,0.324-0.524,0.749-0.524,1.273           c0,0.492,0.111,0.92,0.333,1.282H606.044z" />
            <path fill="#FFFFFF" d="M607.563,408.783v-1.888h0.485v1.888H607.563z" />
            <path fill="#FFFFFF" d="M606.67,409.692c-0.266,0.341-0.395,0.725-0.395,1.15c0,0.343,0.083,0.613,0.251,0.814           c0.169,0.199,0.394,0.299,0.676,0.299c0.628,0,0.94-0.45,0.94-1.348v-0.414h0.521v0.395c0,0.796,0.295,1.192,0.883,1.192           c0.545,0,0.818-0.304,0.818-0.91c0-0.35-0.118-0.677-0.353-0.985h0.593c0.188,0.324,0.282,0.704,0.282,1.138           c0,0.423-0.111,0.763-0.332,1.02c-0.223,0.256-0.508,0.382-0.861,0.382c-0.649,0-1.066-0.329-1.253-0.991h-0.012           c-0.039,0.358-0.166,0.642-0.38,0.852c-0.214,0.208-0.481,0.312-0.804,0.312c-0.446,0-0.806-0.159-1.079-0.483           c-0.273-0.321-0.409-0.748-0.409-1.282c0-0.47,0.087-0.849,0.262-1.139H606.67z" />
            <path fill="#FFFFFF" d="M608.451,414.488c0.274-0.593,0.674-0.889,1.196-0.889c0.368,0,0.666,0.139,0.895,0.417           c0.229,0.277,0.345,0.632,0.345,1.063c0,0.395-0.108,0.721-0.324,0.978s-0.494,0.386-0.837,0.386           c-0.551,0-0.976-0.31-1.271-0.928h-0.015c-0.26,0.725-0.704,1.086-1.333,1.086c-0.412,0-0.74-0.148-0.984-0.446           c-0.244-0.297-0.366-0.714-0.366-1.248c0-0.438,0.119-0.794,0.36-1.069c0.243-0.277,0.556-0.414,0.94-0.414           c0.632,0,1.092,0.354,1.381,1.064H608.451z M608.152,414.974c-0.246-0.612-0.604-0.919-1.063-0.919           c-0.24,0-0.435,0.089-0.59,0.269c-0.153,0.18-0.231,0.415-0.231,0.702c0,0.28,0.078,0.509,0.23,0.683           c0.152,0.176,0.344,0.264,0.572,0.264C607.549,415.972,607.912,415.639,608.152,414.974z M609.652,415.809           c0.223,0,0.398-0.071,0.526-0.21c0.127-0.138,0.192-0.326,0.192-0.563c0-0.221-0.067-0.411-0.199-0.567           c-0.135-0.157-0.307-0.233-0.514-0.233c-0.412,0-0.73,0.261-0.945,0.778C608.934,415.544,609.246,415.809,609.652,415.809z           " />
          </g>
          <g>
            <path fill="#FFFFFF" d="M594.866,406.043c-0.191-0.365-0.288-0.822-0.288-1.373c0-0.712,0.225-1.282,0.679-1.707           c0.45-0.424,1.05-0.636,1.791-0.636c0.799,0,1.442,0.238,1.93,0.716c0.487,0.479,0.73,1.089,0.73,1.824           c0,0.476-0.067,0.866-0.202,1.176h-0.669c0.197-0.354,0.294-0.744,0.294-1.17c0-0.553-0.184-1.004-0.553-1.351           c-0.367-0.35-0.866-0.522-1.491-0.522c-0.593,0-1.066,0.162-1.414,0.487c-0.35,0.324-0.525,0.749-0.525,1.273           c0,0.492,0.111,0.92,0.334,1.282H594.866z" />
            <path fill="#FFFFFF" d="M596.386,408.783v-1.888h0.483v1.888H596.386z" />
            <path fill="#FFFFFF" d="M595.491,409.692c-0.263,0.341-0.395,0.725-0.395,1.15c0,0.343,0.085,0.613,0.253,0.814           c0.166,0.199,0.391,0.299,0.674,0.299c0.628,0,0.941-0.45,0.941-1.348v-0.414h0.521v0.395c0,0.796,0.295,1.192,0.883,1.192           c0.547,0,0.818-0.304,0.818-0.91c0-0.35-0.118-0.677-0.353-0.985h0.593c0.188,0.324,0.281,0.704,0.281,1.138           c0,0.423-0.108,0.763-0.331,1.02c-0.221,0.256-0.508,0.382-0.859,0.382c-0.65,0-1.067-0.329-1.254-0.991h-0.014           c-0.038,0.358-0.164,0.642-0.38,0.852c-0.214,0.208-0.481,0.312-0.803,0.312c-0.445,0-0.805-0.159-1.079-0.483           c-0.273-0.321-0.41-0.748-0.41-1.282c0-0.47,0.087-0.849,0.263-1.139H595.491z" />
            <path fill="#FFFFFF" d="M595.334,413.677c-0.158,0.273-0.237,0.567-0.237,0.885c0,0.443,0.176,0.788,0.525,1.034           c0.351,0.243,0.848,0.365,1.494,0.365c-0.005-0.005-0.005-0.009,0-0.011c-0.415-0.219-0.622-0.585-0.622-1.1           c0-0.418,0.143-0.763,0.43-1.037c0.285-0.271,0.656-0.407,1.115-0.407c0.486,0,0.887,0.147,1.201,0.447           c0.312,0.3,0.468,0.686,0.468,1.164c0,0.493-0.193,0.878-0.58,1.156c-0.389,0.278-0.953,0.416-1.693,0.416           c-0.917,0-1.624-0.179-2.117-0.538c-0.492-0.359-0.739-0.855-0.739-1.49c0-0.349,0.057-0.644,0.169-0.885H595.334z            M598.119,414.039c-0.333,0-0.598,0.087-0.793,0.256c-0.195,0.172-0.294,0.409-0.294,0.709           c0,0.262,0.089,0.479,0.268,0.657c0.178,0.177,0.396,0.266,0.649,0.266c0.357,0,0.652-0.088,0.886-0.265           s0.352-0.409,0.352-0.695c0-0.269-0.103-0.49-0.305-0.666C598.679,414.126,598.425,414.039,598.119,414.039z" />
          </g>
          <g>
            <path fill="#FFFFFF" d="M584.305,406.043c-0.192-0.365-0.288-0.822-0.288-1.373c0-0.712,0.226-1.282,0.677-1.707           c0.452-0.424,1.049-0.636,1.794-0.636c0.798,0,1.441,0.238,1.929,0.716c0.486,0.479,0.73,1.089,0.73,1.824           c0,0.476-0.067,0.866-0.201,1.176h-0.671c0.197-0.354,0.294-0.744,0.294-1.17c0-0.553-0.183-1.004-0.551-1.351           c-0.369-0.35-0.866-0.522-1.493-0.522c-0.593,0-1.064,0.162-1.414,0.487c-0.349,0.324-0.523,0.749-0.523,1.273           c0,0.492,0.109,0.92,0.332,1.282H584.305z" />
            <path fill="#FFFFFF" d="M585.824,408.783v-1.888h0.482v1.888H585.824z" />
            <path fill="#FFFFFF" d="M585.388,412.851v-0.635h-1.289v-0.609h1.289v-2.314h0.407l3.268,2.195v0.729h-3.178v0.635H585.388           z M585.885,411.606h2.079c0.147,0,0.317,0.006,0.51,0.012v-0.012c-0.083-0.029-0.209-0.092-0.382-0.189l-2.207-1.477           V411.606z" />
            <path fill="#FFFFFF" d="M586.483,413.375c0.877,0,1.539,0.145,1.988,0.437c0.45,0.29,0.675,0.712,0.675,1.263           c0,1.05-0.848,1.576-2.545,1.576c-0.838,0-1.478-0.147-1.921-0.444c-0.443-0.295-0.664-0.711-0.664-1.243           c0-0.506,0.208-0.896,0.631-1.172C585.068,413.514,585.679,413.375,586.483,413.375z M586.511,414.017           c-1.316,0-1.977,0.334-1.977,1.003c0,0.658,0.671,0.986,2.01,0.986c1.386,0,2.08-0.322,2.08-0.967           C588.624,414.356,587.92,414.017,586.511,414.017z" />
          </g>
          <g>
            <path fill="#FFFFFF" d="M569.435,406.043c-0.192-0.365-0.288-0.822-0.288-1.373c0-0.712,0.226-1.282,0.679-1.707           c0.45-0.424,1.048-0.636,1.792-0.636c0.798,0,1.441,0.238,1.929,0.716c0.489,0.479,0.731,1.089,0.731,1.824           c0,0.476-0.068,0.866-0.202,1.176h-0.669c0.197-0.354,0.294-0.744,0.294-1.17c0-0.553-0.185-1.004-0.553-1.351           c-0.368-0.35-0.865-0.522-1.492-0.522c-0.595,0-1.064,0.162-1.414,0.487c-0.35,0.324-0.524,0.749-0.524,1.273           c0,0.492,0.111,0.92,0.334,1.282H569.435z" />
            <path fill="#FFFFFF" d="M570.954,408.783v-1.888h0.483v1.888H570.954z" />
            <path fill="#FFFFFF" d="M570.519,412.851v-0.635h-1.289v-0.609h1.289v-2.314h0.408l3.267,2.195v0.729h-3.179v0.635H570.519           z M571.015,411.606h2.079c0.149,0,0.318,0.006,0.51,0.012v-0.012c-0.079-0.029-0.208-0.092-0.38-0.189l-2.209-1.477           V411.606z" />
            <path fill="#FFFFFF" d="M569.229,416.534v-2.844h0.542v1.111h3.769l-0.33-1.142h0.577l0.512,1.768h-4.527v1.106H569.229z" />
          </g>
          <g>
            <path fill="#FFFFFF" d="M558.771,406.043c-0.193-0.365-0.29-0.822-0.29-1.373c0-0.712,0.226-1.282,0.678-1.707           c0.453-0.424,1.05-0.636,1.795-0.636c0.797,0,1.439,0.238,1.927,0.716c0.487,0.479,0.732,1.089,0.732,1.824           c0,0.476-0.067,0.866-0.204,1.176h-0.668c0.198-0.354,0.296-0.744,0.296-1.17c0-0.553-0.187-1.004-0.554-1.351           c-0.368-0.35-0.866-0.522-1.492-0.522c-0.594,0-1.065,0.162-1.415,0.487c-0.35,0.324-0.524,0.749-0.524,1.273           c0,0.492,0.112,0.92,0.333,1.282H558.771z" />
            <path fill="#FFFFFF" d="M560.289,408.783v-1.888h0.484v1.888H560.289z" />
            <path fill="#FFFFFF" d="M559.854,412.851v-0.635h-1.29v-0.609h1.29v-2.314h0.406l3.271,2.195v0.729h-3.18v0.635H559.854z            M560.351,411.606h2.08c0.146,0,0.316,0.006,0.51,0.012v-0.012c-0.082-0.029-0.209-0.092-0.383-0.189l-2.207-1.477V411.606           z" />
            <path fill="#FFFFFF" d="M558.563,416.443v-3.02h0.546l1.439,1.441c0.396,0.396,0.713,0.664,0.944,0.798           c0.23,0.136,0.471,0.203,0.719,0.203c0.283,0,0.5-0.08,0.649-0.238c0.15-0.157,0.226-0.386,0.226-0.686           c0-0.441-0.188-0.863-0.565-1.266h0.639c0.303,0.391,0.453,0.847,0.453,1.365c0,0.447-0.123,0.8-0.363,1.058           c-0.242,0.259-0.566,0.389-0.973,0.389c-0.31,0-0.609-0.085-0.907-0.249c-0.296-0.166-0.673-0.48-1.129-0.94l-1.105-1.132           h-0.013v2.276H558.563z" />
          </g>
          <g>
            <path fill="#FFFFFF" d="M595.105,375.177c-0.192-0.364-0.286-0.822-0.286-1.375c0-0.71,0.225-1.278,0.676-1.704           c0.452-0.425,1.05-0.638,1.794-0.638c0.797,0,1.441,0.239,1.93,0.719c0.487,0.479,0.729,1.085,0.729,1.822           c0,0.475-0.066,0.867-0.2,1.176h-0.672c0.197-0.354,0.296-0.744,0.296-1.17c0-0.553-0.185-1.002-0.552-1.351           c-0.369-0.35-0.867-0.524-1.493-0.524c-0.593,0-1.064,0.162-1.415,0.488c-0.349,0.325-0.523,0.75-0.523,1.275           c0,0.49,0.111,0.919,0.335,1.281H595.105z" />
            <path fill="#FFFFFF" d="M596.624,377.917v-1.888h0.484v1.888H596.624z" />
            <path fill="#FFFFFF" d="M595.731,378.826c-0.263,0.34-0.395,0.725-0.395,1.15c0,0.344,0.084,0.613,0.251,0.813           c0.169,0.2,0.393,0.3,0.674,0.3c0.629,0,0.942-0.45,0.942-1.351v-0.412h0.521v0.395c0,0.797,0.295,1.196,0.884,1.196           c0.545,0,0.818-0.307,0.818-0.916c0-0.347-0.118-0.675-0.354-0.982h0.593c0.188,0.326,0.281,0.703,0.281,1.139           c0,0.422-0.109,0.762-0.331,1.019c-0.22,0.255-0.508,0.384-0.86,0.384c-0.648,0-1.069-0.331-1.254-0.993h-0.013           c-0.037,0.357-0.163,0.642-0.379,0.85c-0.215,0.208-0.481,0.313-0.804,0.313c-0.446,0-0.806-0.162-1.079-0.482           s-0.408-0.749-0.408-1.283c0-0.47,0.087-0.849,0.262-1.139H595.731z" />
            <path fill="#FFFFFF" d="M599.226,385.479c0.134-0.258,0.201-0.527,0.201-0.81c0-0.431-0.187-0.775-0.562-1.036           s-0.886-0.394-1.531-0.398v0.016c0.454,0.236,0.681,0.612,0.681,1.126c0,0.43-0.138,0.772-0.418,1.03           c-0.281,0.257-0.651,0.383-1.116,0.383c-0.484,0-0.883-0.147-1.194-0.443c-0.313-0.294-0.467-0.673-0.467-1.133           c0-0.503,0.194-0.899,0.59-1.187c0.395-0.286,0.953-0.432,1.678-0.432c0.876,0,1.571,0.188,2.088,0.566           c0.516,0.376,0.772,0.873,0.772,1.488c0,0.353-0.047,0.629-0.144,0.829H599.226z M596.525,383.275           c-0.326,0-0.605,0.086-0.841,0.26c-0.23,0.176-0.348,0.407-0.348,0.694c0,0.273,0.1,0.495,0.301,0.667           s0.46,0.256,0.775,0.256c0.343,0,0.607-0.079,0.797-0.241c0.191-0.161,0.287-0.391,0.287-0.688           c0-0.281-0.096-0.511-0.289-0.686C597.017,383.363,596.789,383.275,596.525,383.275z" />
          </g>
          <g>
            <path fill="#FFFFFF" d="M584.305,375.177c-0.192-0.364-0.288-0.822-0.288-1.375c0-0.71,0.226-1.278,0.677-1.704           c0.452-0.425,1.049-0.638,1.794-0.638c0.798,0,1.441,0.239,1.929,0.719c0.486,0.479,0.73,1.085,0.73,1.822           c0,0.475-0.067,0.867-0.201,1.176h-0.671c0.197-0.354,0.294-0.744,0.294-1.17c0-0.553-0.183-1.002-0.551-1.351           c-0.369-0.35-0.866-0.524-1.493-0.524c-0.593,0-1.064,0.162-1.414,0.488c-0.349,0.325-0.523,0.75-0.523,1.275           c0,0.49,0.109,0.919,0.332,1.281H584.305z" />
            <path fill="#FFFFFF" d="M585.824,377.917v-1.888h0.482v1.888H585.824z" />
            <path fill="#FFFFFF" d="M584.929,378.826c-0.263,0.34-0.395,0.725-0.395,1.15c0,0.344,0.084,0.613,0.252,0.813           s0.394,0.3,0.676,0.3c0.626,0,0.941-0.45,0.941-1.351v-0.412h0.518v0.395c0,0.797,0.297,1.196,0.887,1.196           c0.542,0,0.816-0.307,0.816-0.916c0-0.347-0.117-0.675-0.353-0.982h0.594c0.188,0.326,0.281,0.703,0.281,1.139           c0,0.422-0.112,0.762-0.331,1.019c-0.223,0.255-0.509,0.384-0.862,0.384c-0.648,0-1.067-0.331-1.252-0.993h-0.013           c-0.038,0.357-0.165,0.642-0.381,0.85c-0.214,0.208-0.481,0.313-0.802,0.313c-0.446,0-0.807-0.162-1.08-0.482           s-0.409-0.749-0.409-1.283c0-0.47,0.086-0.849,0.262-1.139H584.929z" />
            <path fill="#FFFFFF" d="M584.862,382.785c-0.219,0.333-0.328,0.68-0.328,1.041c0,0.343,0.096,0.616,0.288,0.828           c0.191,0.208,0.444,0.313,0.76,0.313c0.319,0,0.566-0.106,0.741-0.318c0.175-0.214,0.263-0.521,0.263-0.927           c0-0.193-0.016-0.456-0.045-0.785h2.521v2.442h-0.555v-1.857h-1.404c0.011,0.185,0.018,0.325,0.018,0.42           c0,0.522-0.132,0.931-0.398,1.223c-0.264,0.294-0.63,0.44-1.096,0.44c-0.48,0-0.868-0.157-1.166-0.472           c-0.297-0.313-0.444-0.748-0.444-1.301c0-0.463,0.068-0.813,0.205-1.048H584.862z" />
          </g>
          <g>
            <path fill="#FFFFFF" d="M569.538,375.177c-0.194-0.364-0.289-0.822-0.289-1.375c0-0.71,0.226-1.278,0.678-1.704           c0.451-0.425,1.051-0.638,1.793-0.638c0.799,0,1.442,0.239,1.93,0.719c0.487,0.479,0.729,1.085,0.729,1.822           c0,0.475-0.067,0.867-0.201,1.176h-0.67c0.197-0.354,0.295-0.744,0.295-1.17c0-0.553-0.184-1.002-0.553-1.351           c-0.369-0.35-0.866-0.524-1.491-0.524c-0.596,0-1.064,0.162-1.416,0.488c-0.348,0.325-0.523,0.75-0.523,1.275           c0,0.49,0.11,0.919,0.334,1.281H569.538z" />
            <path fill="#FFFFFF" d="M571.056,377.917v-1.888h0.484v1.888H571.056z" />
            <path fill="#FFFFFF" d="M570.163,378.826c-0.264,0.34-0.395,0.725-0.395,1.15c0,0.344,0.085,0.613,0.252,0.813           c0.168,0.2,0.392,0.3,0.675,0.3c0.628,0,0.941-0.45,0.941-1.351v-0.412h0.519v0.395c0,0.797,0.296,1.196,0.886,1.196           c0.544,0,0.817-0.307,0.817-0.916c0-0.347-0.118-0.675-0.354-0.982h0.592c0.188,0.326,0.282,0.703,0.282,1.139           c0,0.422-0.109,0.762-0.332,1.019c-0.22,0.255-0.507,0.384-0.859,0.384c-0.648,0-1.066-0.331-1.254-0.993h-0.011           c-0.04,0.357-0.166,0.642-0.381,0.85s-0.481,0.313-0.803,0.313c-0.447,0-0.806-0.162-1.079-0.482           c-0.275-0.32-0.411-0.749-0.411-1.283c0-0.47,0.089-0.849,0.264-1.139H570.163z" />
            <path fill="#FFFFFF" d="M570.62,385.833v-0.635h-1.287v-0.609h1.287v-2.313h0.408l3.27,2.195v0.728h-3.181v0.635H570.62z            M571.117,384.589h2.082c0.146,0,0.315,0.004,0.509,0.014v-0.014c-0.083-0.03-0.211-0.093-0.383-0.189l-2.208-1.478           V384.589z" />
          </g>
          <g>
            <path fill="#FFFFFF" d="M558.874,375.177c-0.193-0.364-0.29-0.822-0.29-1.375c0-0.71,0.227-1.278,0.678-1.704           c0.452-0.425,1.049-0.638,1.794-0.638c0.799,0,1.44,0.239,1.928,0.719c0.488,0.479,0.732,1.085,0.732,1.822           c0,0.475-0.068,0.867-0.203,1.176h-0.669c0.195-0.354,0.295-0.744,0.295-1.17c0-0.553-0.187-1.002-0.553-1.351           c-0.369-0.35-0.866-0.524-1.493-0.524c-0.592,0-1.064,0.162-1.414,0.488c-0.351,0.325-0.523,0.75-0.523,1.275           c0,0.49,0.11,0.919,0.333,1.281H558.874z" />
            <path fill="#FFFFFF" d="M560.392,377.917v-1.888h0.485v1.888H560.392z" />
            <path fill="#FFFFFF" d="M559.498,378.826c-0.263,0.34-0.395,0.725-0.395,1.15c0,0.344,0.083,0.613,0.251,0.813           c0.169,0.2,0.394,0.3,0.674,0.3c0.629,0,0.944-0.45,0.944-1.351v-0.412h0.519v0.395c0,0.797,0.294,1.196,0.883,1.196           c0.547,0,0.819-0.307,0.819-0.916c0-0.347-0.117-0.675-0.354-0.982h0.594c0.188,0.326,0.282,0.703,0.282,1.139           c0,0.422-0.112,0.762-0.332,1.019c-0.223,0.255-0.508,0.384-0.862,0.384c-0.648,0-1.066-0.331-1.252-0.993h-0.012           c-0.04,0.357-0.166,0.642-0.381,0.85s-0.483,0.313-0.803,0.313c-0.446,0-0.807-0.162-1.08-0.482s-0.41-0.749-0.41-1.283           c0-0.47,0.088-0.849,0.263-1.139H559.498z" />
            <path fill="#FFFFFF" d="M559.498,382.676c-0.263,0.341-0.395,0.725-0.395,1.15c0,0.343,0.083,0.613,0.251,0.813           c0.169,0.201,0.394,0.3,0.674,0.3c0.629,0,0.944-0.45,0.944-1.35v-0.413h0.519v0.395c0,0.798,0.294,1.196,0.883,1.196           c0.547,0,0.819-0.306,0.819-0.914c0-0.349-0.117-0.677-0.354-0.983h0.594c0.188,0.323,0.282,0.702,0.282,1.136           c0,0.425-0.112,0.764-0.332,1.021c-0.223,0.256-0.508,0.384-0.862,0.384c-0.648,0-1.066-0.331-1.252-0.993h-0.012           c-0.04,0.358-0.166,0.643-0.381,0.851s-0.483,0.313-0.803,0.313c-0.446,0-0.807-0.162-1.08-0.483           c-0.273-0.322-0.41-0.75-0.41-1.284c0-0.471,0.088-0.847,0.263-1.137H559.498z" />
          </g>
          <g>
            <path fill="#FFFFFF" d="M523.069,379.348c-0.365,0.192-0.822,0.289-1.374,0.289c-0.711,0-1.28-0.226-1.706-0.679           c-0.424-0.451-0.636-1.049-0.636-1.792c0-0.799,0.238-1.442,0.716-1.93c0.48-0.486,1.087-0.73,1.824-0.73           c0.475,0,0.866,0.067,1.176,0.202v0.67c-0.354-0.195-0.744-0.295-1.17-0.295c-0.553,0-1.004,0.184-1.352,0.554           c-0.349,0.366-0.523,0.864-0.523,1.491c0,0.594,0.164,1.065,0.488,1.414c0.325,0.35,0.75,0.523,1.274,0.523           c0.492,0,0.92-0.111,1.282-0.333V379.348z" />
            <path fill="#FFFFFF" d="M525.81,377.83h-1.888v-0.485h1.888V377.83z" />
            <path fill="#FFFFFF" d="M526.721,378.724c0.338,0.263,0.723,0.393,1.15,0.393c0.341,0,0.613-0.084,0.812-0.25           c0.199-0.168,0.299-0.393,0.299-0.675c0-0.629-0.448-0.942-1.348-0.942h-0.414v-0.521h0.395           c0.797,0,1.195-0.295,1.195-0.883c0-0.545-0.304-0.816-0.913-0.816c-0.348,0-0.677,0.116-0.985,0.351v-0.591           c0.326-0.19,0.705-0.283,1.139-0.283c0.425,0,0.762,0.111,1.02,0.331c0.255,0.222,0.384,0.508,0.384,0.86           c0,0.651-0.332,1.068-0.993,1.253v0.015c0.359,0.037,0.644,0.164,0.852,0.379c0.208,0.214,0.312,0.482,0.312,0.803           c0,0.446-0.159,0.806-0.482,1.08c-0.321,0.272-0.749,0.41-1.282,0.41c-0.472,0-0.851-0.088-1.138-0.263V378.724z" />
            <path fill="#FFFFFF" d="M533.469,379.555h-3.018v-0.547l1.441-1.438c0.396-0.397,0.663-0.712,0.797-0.944           c0.135-0.231,0.202-0.472,0.202-0.719c0-0.282-0.078-0.498-0.235-0.648c-0.16-0.152-0.389-0.226-0.687-0.226           c-0.442,0-0.864,0.188-1.268,0.563v-0.638c0.393-0.301,0.847-0.452,1.366-0.452c0.447,0,0.8,0.121,1.057,0.362           c0.259,0.241,0.389,0.566,0.389,0.976c0,0.306-0.083,0.608-0.248,0.903c-0.166,0.296-0.479,0.673-0.941,1.131l-1.13,1.104           v0.014h2.274V379.555z" />
          </g>
        </g>
      </g>
      <g>

        <rect x="556.726" y="388.973" transform="matrix(-1 0.0058 -0.0058 -1 1124.1366 775.1465)" fill="#FBC600" width="8.444" height="0.451" />

        <rect x="567.536" y="388.91" transform="matrix(-1 0.0058 -0.0058 -1 1145.7583 774.96)" fill="#FBC600" width="8.447" height="0.451" />

        <rect x="582.18" y="388.825" transform="matrix(-1 0.0058 -0.0058 -1 1175.0459 774.7052)" fill="#FBC600" width="8.446" height="0.451" />

        <rect x="592.993" y="388.763" transform="matrix(-1 0.0058 -0.0058 -1 1196.6697 774.5172)" fill="#FBC600" width="8.445" height="0.451" />

        <rect x="603.805" y="388.7" transform="matrix(-1 0.0058 -0.0058 -1 1218.2927 774.3289)" fill="#FBC600" width="8.444" height="0.451" />

        <rect x="556.783" y="398.729" transform="matrix(-1 0.0058 -0.0058 -1 1124.3065 794.6592)" fill="#FBC600" width="8.444" height="0.451" />

        <rect x="567.592" y="398.667" transform="matrix(-1 0.0058 -0.0058 -1 1145.928 794.4732)" fill="#FBC600" width="8.447" height="0.451" />

        <rect x="582.237" y="398.582" transform="matrix(-1 0.0058 -0.0058 -1 1175.2156 794.2184)" fill="#FBC600" width="8.446" height="0.451" />

        <rect x="593.049" y="398.52" transform="matrix(-1 0.0058 -0.0058 -1 1196.8394 794.0304)" fill="#FBC600" width="8.445" height="0.451" />

        <rect x="603.861" y="398.457" transform="matrix(-1 0.0058 -0.0058 -1 1218.4614 793.842)" fill="#FBC600" width="8.444" height="0.451" />

        <rect x="605.528" y="398.467" transform="matrix(-1 0.0057 -0.0057 -1 1215.0282 793.9506)" fill="#8DC21F" width="1.728" height="0.451" />

        <rect x="608.931" y="398.447" transform="matrix(-1 0.0057 -0.0057 -1 1221.8411 793.8387)" fill="#8DC21F" width="1.701" height="0.451" />

        <rect x="594.719" y="398.529" transform="matrix(-1 0.0057 -0.0057 -1 1193.4109 794.1347)" fill="#8DC21F" width="1.727" height="0.451" />

        <rect x="598.12" y="398.51" transform="matrix(-1 0.0057 -0.0057 -1 1200.2195 794.0258)" fill="#8DC21F" width="1.701" height="0.451" />

        <rect x="583.907" y="398.592" transform="matrix(-1 0.0057 -0.0057 -1 1171.7861 794.3228)" fill="#8DC21F" width="1.728" height="0.451" />

        <rect x="587.307" y="398.572" transform="matrix(-1 0.0057 -0.0057 -1 1178.5952 794.2109)" fill="#8DC21F" width="1.7" height="0.451" />

        <rect x="569.261" y="398.677" transform="matrix(-1 0.0057 -0.0057 -1 1142.4958 794.5756)" fill="#8DC21F" width="1.728" height="0.451" />

        <rect x="572.662" y="398.657" transform="matrix(-1 0.0057 -0.0057 -1 1149.3041 794.4706)" fill="#8DC21F" width="1.703" height="0.451" />

        <rect x="558.45" y="398.739" transform="matrix(-1 0.0056 -0.0056 -1 1120.874 794.7634)" fill="#8DC21F" width="1.729" height="0.451" />

        <rect x="561.851" y="398.72" transform="matrix(-1 0.0057 -0.0057 -1 1127.6826 794.6576)" fill="#8DC21F" width="1.703" height="0.451" />

        <rect x="605.472" y="388.71" transform="matrix(-1 0.0057 -0.0057 -1 1214.8608 774.4374)" fill="#8DC21F" width="1.728" height="0.451" />

        <rect x="608.875" y="388.69" transform="matrix(-1 0.0057 -0.0057 -1 1221.6738 774.3236)" fill="#8DC21F" width="1.7" height="0.451" />

        <rect x="594.663" y="388.772" transform="matrix(-1 0.0057 -0.0057 -1 1193.2424 774.6215)" fill="#8DC21F" width="1.727" height="0.451" />

        <rect x="598.063" y="388.753" transform="matrix(-1 0.0057 -0.0057 -1 1200.0503 774.5126)" fill="#8DC21F" width="1.701" height="0.451" />

        <rect x="583.85" y="388.835" transform="matrix(-1 0.0057 -0.0057 -1 1171.6177 774.8096)" fill="#8DC21F" width="1.728" height="0.451" />

        <rect x="587.25" y="388.815" transform="matrix(-1 0.0057 -0.0057 -1 1178.426 774.6978)" fill="#8DC21F" width="1.7" height="0.451" />

        <rect x="569.205" y="388.92" transform="matrix(-1 0.0057 -0.0057 -1 1142.3284 775.0623)" fill="#8DC21F" width="1.728" height="0.451" />

        <rect x="572.605" y="388.9" transform="matrix(-1 0.0057 -0.0057 -1 1149.1348 774.9574)" fill="#8DC21F" width="1.703" height="0.451" />

        <rect x="558.394" y="388.982" transform="matrix(-1 0.0056 -0.0056 -1 1120.7056 775.2501)" fill="#8DC21F" width="1.729" height="0.451" />

        <rect x="561.795" y="388.963" transform="matrix(-1 0.0057 -0.0057 -1 1127.5156 775.1426)" fill="#8DC21F" width="1.702" height="0.451" />
      </g>
    </g>
    <g>
      <rect x="535.95" y="372.806" fill="#FBC600" width="0.451" height="8.446" />
      <rect x="535.95" y="374.473" fill="#8DC21F" width="0.451" height="1.728" />
      <rect x="535.95" y="377.876" fill="#8DC21F" width="0.451" height="1.7" />
    </g>
</svg>
