<!DOCTYPE svg PUBLIC "-//W3C//DTD SVG 1.1//EN" "http://www.w3.org/Graphics/SVG/1.1/DTD/svg11.dtd">
<svg xmlns="http://www.w3.org/2000/svg" xmlns:xlink="http://www.w3.org/1999/xlink" version="1.1" id="图层_1" x="0px" y="0px" width="1028px" height="680px" viewBox="0 0 1028 680" enable-background="new 0 0 1028 680" xml:space="preserve" xmlns:xml="http://www.w3.org/XML/1998/namespace">
    <g>
      <path fill="#AACC03" d="M620.472,445.663c-34.814,0-69.628,0-104.441,0v50.029c34.813,0,69.627,0,104.441,0        c2.778,0,5.032-2.279,5.032-5.088c0-13.284,0-26.569,0-39.854C625.504,447.941,623.25,445.663,620.472,445.663z" />
      <g>

        <line fill="none" stroke="#FFFFFF" stroke-width="0.9362" stroke-linecap="round" stroke-linejoin="round" x1="517.756" y1="470.677" x2="517.756" y2="493.146" />
        <g>

          <line fill="none" stroke="#FFFFFF" stroke-width="0.9362" stroke-linecap="round" stroke-linejoin="round" x1="548.705" y1="470.677" x2="548.705" y2="493.146" />

          <line fill="none" stroke="#FFFFFF" stroke-width="0.9362" stroke-linecap="round" stroke-linejoin="round" x1="527.083" y1="470.677" x2="527.083" y2="492.409" />

          <line fill="none" stroke="#FFFFFF" stroke-width="0.9362" stroke-linecap="round" stroke-linejoin="round" x1="528.566" y1="470.677" x2="528.566" y2="492.409" />

          <line fill="none" stroke="#FFFFFF" stroke-width="0.9362" stroke-linecap="round" stroke-linejoin="round" x1="537.894" y1="470.677" x2="537.894" y2="492.409" />

          <line fill="none" stroke="#FFFFFF" stroke-width="0.9362" stroke-linecap="round" stroke-linejoin="round" x1="539.379" y1="470.677" x2="539.379" y2="492.409" />
          <path fill="none" stroke="#FFFFFF" stroke-width="0.9362" stroke-linecap="round" stroke-linejoin="round" d="          M592.646,448.945c0-0.521-0.217-0.739-0.739-0.739" />
          <path fill="none" stroke="#FFFFFF" stroke-width="0.9362" stroke-linecap="round" stroke-linejoin="round" d="          M591.898,448.206c-0.52,0-0.737,0.218-0.737,0.739" />

          <line fill="none" stroke="#FFFFFF" stroke-width="0.9362" stroke-linecap="round" stroke-linejoin="round" x1="612.784" y1="470.677" x2="612.784" y2="448.206" />

          <line fill="none" stroke="#FFFFFF" stroke-width="0.9362" stroke-linecap="round" stroke-linejoin="round" x1="581.833" y1="470.677" x2="581.833" y2="448.206" />

          <line fill="none" stroke="#FFFFFF" stroke-width="0.9362" stroke-linecap="round" stroke-linejoin="round" x1="603.458" y1="470.677" x2="603.458" y2="448.945" />

          <line fill="none" stroke="#FFFFFF" stroke-width="0.9362" stroke-linecap="round" stroke-linejoin="round" x1="601.974" y1="470.677" x2="601.974" y2="448.945" />

          <line fill="none" stroke="#FFFFFF" stroke-width="0.9362" stroke-linecap="round" stroke-linejoin="round" x1="591.161" y1="470.677" x2="591.161" y2="448.945" />

          <line fill="none" stroke="#FFFFFF" stroke-width="0.9362" stroke-linecap="round" stroke-linejoin="round" x1="566.499" y1="448.945" x2="566.499" y2="470.677" />

          <line fill="none" stroke="#FFFFFF" stroke-width="0.9362" stroke-linecap="round" stroke-linejoin="round" x1="565.016" y1="448.945" x2="565.016" y2="470.677" />

          <line fill="none" stroke="#FFFFFF" stroke-width="0.9362" stroke-linecap="round" stroke-linejoin="round" x1="575.826" y1="470.677" x2="575.826" y2="448.206" />

          <line fill="none" stroke="#FFFFFF" stroke-width="0.9362" stroke-linecap="round" stroke-linejoin="round" x1="555.688" y1="448.206" x2="555.688" y2="470.677" />

          <line fill="none" stroke="#FFFFFF" stroke-width="0.9362" stroke-linecap="round" stroke-linejoin="round" x1="566.499" y1="470.677" x2="566.499" y2="492.409" />

          <line fill="none" stroke="#FFFFFF" stroke-width="0.9362" stroke-linecap="round" stroke-linejoin="round" x1="565.016" y1="470.677" x2="565.016" y2="492.409" />

          <line fill="none" stroke="#FFFFFF" stroke-width="0.9362" stroke-linecap="round" stroke-linejoin="round" x1="555.688" y1="470.677" x2="555.688" y2="493.146" />

          <line fill="none" stroke="#FFFFFF" stroke-width="0.9362" stroke-linecap="round" stroke-linejoin="round" x1="548.705" y1="470.677" x2="548.705" y2="448.206" />
          <path fill="none" stroke="#FFFFFF" stroke-width="0.9362" stroke-linecap="round" stroke-linejoin="round" d="          M527.821,448.206c-0.522,0-0.738,0.218-0.738,0.739" />
          <path fill="none" stroke="#FFFFFF" stroke-width="0.9362" stroke-linecap="round" stroke-linejoin="round" d="          M528.566,448.945c0-0.521-0.216-0.739-0.735-0.739" />
          <path fill="none" stroke="#FFFFFF" stroke-width="0.9362" stroke-linecap="round" stroke-linejoin="round" d="          M538.632,448.206c-0.521,0-0.738,0.218-0.738,0.739" />
          <path fill="none" stroke="#FFFFFF" stroke-width="0.9362" stroke-linecap="round" stroke-linejoin="round" d="          M539.379,448.945c0-0.521-0.216-0.739-0.739-0.739" />

          <line fill="none" stroke="#FFFFFF" stroke-width="0.9362" stroke-linecap="round" stroke-linejoin="round" x1="603.458" y1="470.677" x2="603.458" y2="492.409" />

          <line fill="none" stroke="#FFFFFF" stroke-width="0.9362" stroke-linecap="round" stroke-linejoin="round" x1="601.974" y1="470.677" x2="601.974" y2="492.409" />

          <line fill="none" stroke="#FFFFFF" stroke-width="0.9362" stroke-linecap="round" stroke-linejoin="round" x1="592.646" y1="470.677" x2="592.646" y2="492.409" />

          <line fill="none" stroke="#FFFFFF" stroke-width="0.9362" stroke-linecap="round" stroke-linejoin="round" x1="591.161" y1="470.677" x2="591.161" y2="492.409" />

          <line fill="none" stroke="#FFFFFF" stroke-width="0.9362" stroke-linecap="round" stroke-linejoin="round" x1="581.833" y1="470.677" x2="581.833" y2="493.146" />

          <line fill="none" stroke="#FFFFFF" stroke-width="0.9362" stroke-linecap="round" stroke-linejoin="round" x1="575.826" y1="470.677" x2="575.826" y2="493.146" />
          <rect x="550.442" y="448.206" fill="none" stroke="#FFFFFF" stroke-width="1.8725" width="4.24" height="4.241" />
          <rect x="576.728" y="448.206" fill="none" stroke="#FFFFFF" stroke-width="1.8725" width="4.24" height="4.241" />
          <rect x="550.442" y="486.365" fill="none" stroke="#FFFFFF" stroke-width="1.8725" width="4.24" height="4.239" />
          <rect x="576.728" y="486.365" fill="none" stroke="#FFFFFF" stroke-width="1.8725" width="4.24" height="4.239" />
          <rect x="614.888" y="486.365" fill="none" stroke="#FFFFFF" stroke-width="1.8725" width="4.237" height="4.239" />
          <rect x="614.888" y="454.754" fill="none" stroke="#FFFFFF" stroke-width="1.8725" width="4.237" height="4.24" />
          <path fill="none" stroke="#FFFFFF" stroke-width="0.9362" stroke-linecap="round" stroke-linejoin="round" d="          M527.083,492.409c0,0.522,0.216,0.737,0.738,0.737" />
          <path fill="none" stroke="#FFFFFF" stroke-width="0.9362" stroke-linecap="round" stroke-linejoin="round" d="          M527.831,493.146c0.52,0,0.735-0.215,0.735-0.737" />
          <path fill="none" stroke="#FFFFFF" stroke-width="0.9362" stroke-linecap="round" stroke-linejoin="round" d="          M537.894,492.409c0,0.522,0.218,0.737,0.738,0.737" />
          <path fill="none" stroke="#FFFFFF" stroke-width="0.9362" stroke-linecap="round" stroke-linejoin="round" d="          M538.64,493.146c0.523,0,0.739-0.215,0.739-0.737" />

          <line fill="none" stroke="#FFFFFF" stroke-width="0.9362" stroke-linecap="round" stroke-linejoin="round" x1="548.705" y1="470.677" x2="517.756" y2="470.677" />

          <line fill="none" stroke="#FFFFFF" stroke-width="0.9362" stroke-linecap="round" stroke-linejoin="round" x1="527.083" y1="470.677" x2="527.083" y2="448.945" />

          <line fill="none" stroke="#FFFFFF" stroke-width="0.9362" stroke-linecap="round" stroke-linejoin="round" x1="528.566" y1="470.677" x2="528.566" y2="448.945" />

          <line fill="none" stroke="#FFFFFF" stroke-width="0.9362" stroke-linecap="round" stroke-linejoin="round" x1="537.894" y1="470.677" x2="537.894" y2="448.945" />
          <path fill="none" stroke="#FFFFFF" stroke-width="0.9362" stroke-linecap="round" stroke-linejoin="round" d="          M603.458,448.945c0-0.521-0.215-0.739-0.738-0.739" />
          <path fill="none" stroke="#FFFFFF" stroke-width="0.9362" stroke-linecap="round" stroke-linejoin="round" d="          M602.712,448.206c-0.522,0-0.738,0.218-0.738,0.739" />

          <line fill="none" stroke="#FFFFFF" stroke-width="0.9362" stroke-linecap="round" stroke-linejoin="round" x1="592.646" y1="470.677" x2="592.646" y2="448.945" />

          <line fill="none" stroke="#FFFFFF" stroke-width="0.9362" stroke-linecap="round" stroke-linejoin="round" x1="612.784" y1="470.677" x2="581.833" y2="470.677" />
          <path fill="none" stroke="#FFFFFF" stroke-width="0.9362" stroke-linecap="round" stroke-linejoin="round" d="          M591.161,492.409c0,0.522,0.218,0.737,0.737,0.737" />
          <path fill="none" stroke="#FFFFFF" stroke-width="0.9362" stroke-linecap="round" stroke-linejoin="round" d="          M566.499,448.945c0-0.521-0.217-0.739-0.738-0.739" />
          <path fill="none" stroke="#FFFFFF" stroke-width="0.9362" stroke-linecap="round" stroke-linejoin="round" d="          M565.753,448.206c-0.521,0-0.737,0.218-0.737,0.739" />

          <rect x="612.784" y="460" fill="none" stroke="#FFFFFF" stroke-width="0.9362" stroke-linecap="round" stroke-linejoin="round" width="10.177" height="25.438" />

          <line fill="none" stroke="#FFFFFF" stroke-width="0.9362" stroke-linecap="round" stroke-linejoin="round" x1="539.379" y1="470.677" x2="539.379" y2="448.945" />

          <line fill="none" stroke="#FFFFFF" stroke-width="0.9362" stroke-linecap="round" stroke-linejoin="round" x1="517.756" y1="470.677" x2="517.756" y2="448.206" />
          <path fill="none" stroke="#FFFFFF" stroke-width="0.9362" stroke-linecap="round" stroke-linejoin="round" d="          M602.72,493.146c0.523,0,0.738-0.215,0.738-0.737" />
          <path fill="none" stroke="#FFFFFF" stroke-width="0.9362" stroke-linecap="round" stroke-linejoin="round" d="          M601.974,492.409c0,0.522,0.216,0.737,0.738,0.737" />
          <path fill="none" stroke="#FFFFFF" stroke-width="0.9362" stroke-linecap="round" stroke-linejoin="round" d="          M591.907,493.146c0.522,0,0.739-0.215,0.739-0.737" />

          <line fill="none" stroke="#FFFFFF" stroke-width="0.9362" stroke-linecap="round" stroke-linejoin="round" x1="555.688" y1="470.677" x2="575.826" y2="470.677" />
          <path fill="none" stroke="#FFFFFF" stroke-width="0.9362" stroke-linecap="round" stroke-linejoin="round" d="          M565.761,493.146c0.521,0,0.738-0.215,0.738-0.737" />
          <path fill="none" stroke="#FFFFFF" stroke-width="0.9362" stroke-linecap="round" stroke-linejoin="round" d="          M565.016,492.409c0,0.522,0.216,0.737,0.737,0.737" />
          <g>
            <path fill="#FFFFFF" d="M606.044,451.984c-0.192-0.366-0.287-0.823-0.287-1.374c0-0.712,0.226-1.28,0.676-1.705           c0.453-0.426,1.05-0.639,1.794-0.639c0.798,0,1.443,0.24,1.928,0.719c0.487,0.478,0.732,1.086,0.732,1.822           c0,0.476-0.066,0.866-0.202,1.177h-0.669c0.197-0.354,0.294-0.745,0.294-1.171c0-0.553-0.184-1.004-0.553-1.351           c-0.368-0.35-0.866-0.522-1.492-0.522c-0.594,0-1.065,0.162-1.414,0.486c-0.35,0.325-0.524,0.75-0.524,1.274           c0,0.492,0.111,0.921,0.333,1.283H606.044z" />
            <path fill="#FFFFFF" d="M607.563,454.725v-1.889h0.485v1.889H607.563z" />
            <path fill="#FFFFFF" d="M606.602,455.743c-0.219,0.334-0.326,0.681-0.326,1.041c0,0.343,0.095,0.617,0.285,0.825           c0.191,0.212,0.446,0.315,0.761,0.315c0.321,0,0.566-0.105,0.742-0.318c0.175-0.212,0.262-0.52,0.262-0.925           c0-0.194-0.014-0.457-0.044-0.785h2.521v2.442h-0.555v-1.857h-1.402c0.01,0.185,0.015,0.325,0.015,0.418           c0,0.523-0.132,0.932-0.396,1.226c-0.264,0.291-0.631,0.438-1.097,0.438c-0.481,0-0.868-0.157-1.166-0.472           c-0.297-0.313-0.444-0.746-0.444-1.299c0-0.465,0.067-0.813,0.204-1.049H606.602z" />
            <path fill="#FFFFFF" d="M608.224,459.316c0.874,0,1.539,0.144,1.989,0.436c0.448,0.29,0.674,0.712,0.674,1.263           c0,1.05-0.849,1.577-2.544,1.577c-0.839,0-1.479-0.148-1.922-0.445c-0.444-0.295-0.664-0.711-0.664-1.244           c0-0.505,0.209-0.896,0.631-1.171C606.808,459.454,607.42,459.316,608.224,459.316z M608.253,459.957           c-1.319,0-1.978,0.334-1.978,1.003c0,0.658,0.669,0.987,2.008,0.987c1.387,0,2.081-0.323,2.081-0.968           C610.364,460.298,609.66,459.957,608.253,459.957z" />
          </g>
          <g>
            <path fill="#FFFFFF" d="M594.969,451.984c-0.191-0.366-0.288-0.823-0.288-1.374c0-0.712,0.226-1.28,0.678-1.705           c0.452-0.426,1.05-0.639,1.793-0.639c0.799,0,1.441,0.24,1.929,0.719c0.487,0.478,0.732,1.086,0.732,1.822           c0,0.476-0.069,0.866-0.203,1.177h-0.671c0.197-0.354,0.296-0.745,0.296-1.171c0-0.553-0.185-1.004-0.553-1.351           c-0.369-0.35-0.866-0.522-1.492-0.522c-0.594,0-1.064,0.162-1.415,0.486c-0.349,0.325-0.523,0.75-0.523,1.274           c0,0.492,0.112,0.921,0.334,1.283H594.969z" />
            <path fill="#FFFFFF" d="M596.488,454.725v-1.889h0.485v1.889H596.488z" />
            <path fill="#FFFFFF" d="M596.052,458.791v-0.635h-1.287v-0.609h1.287v-2.313h0.407l3.27,2.194v0.729h-3.18v0.635H596.052z            M596.549,457.547h2.079c0.147,0,0.318,0.006,0.511,0.015v-0.015c-0.082-0.029-0.208-0.094-0.383-0.188l-2.207-1.478           V457.547z" />
            <path fill="#FFFFFF" d="M595.437,459.617c-0.158,0.275-0.236,0.569-0.236,0.885c0,0.445,0.175,0.79,0.525,1.034           c0.35,0.244,0.849,0.366,1.494,0.366c-0.005-0.003-0.005-0.008,0-0.012c-0.416-0.219-0.621-0.586-0.621-1.1           c0-0.417,0.143-0.763,0.428-1.034c0.287-0.274,0.659-0.411,1.115-0.411c0.486,0,0.887,0.148,1.2,0.448           c0.312,0.299,0.471,0.687,0.471,1.164c0,0.493-0.195,0.878-0.583,1.157c-0.389,0.277-0.952,0.414-1.693,0.414           c-0.916,0-1.623-0.178-2.115-0.537c-0.493-0.359-0.74-0.855-0.74-1.49c0-0.349,0.056-0.643,0.17-0.885H595.437z            M598.222,459.979c-0.333,0-0.598,0.087-0.794,0.256c-0.194,0.172-0.292,0.408-0.292,0.709c0,0.262,0.088,0.48,0.267,0.657           c0.178,0.178,0.396,0.266,0.649,0.266c0.357,0,0.651-0.088,0.886-0.265s0.353-0.409,0.353-0.696           c0-0.268-0.104-0.489-0.307-0.665C598.781,460.067,598.527,459.979,598.222,459.979z" />
          </g>
          <g>
            <path fill="#FFFFFF" d="M583.895,451.984c-0.192-0.366-0.289-0.823-0.289-1.374c0-0.712,0.227-1.28,0.679-1.705           c0.451-0.426,1.048-0.639,1.793-0.639c0.797,0,1.441,0.24,1.929,0.719c0.486,0.478,0.731,1.086,0.731,1.822           c0,0.476-0.068,0.866-0.202,1.177h-0.671c0.196-0.354,0.294-0.745,0.294-1.171c0-0.553-0.184-1.004-0.553-1.351           c-0.367-0.35-0.864-0.522-1.491-0.522c-0.594,0-1.064,0.162-1.414,0.486c-0.35,0.325-0.524,0.75-0.524,1.274           c0,0.492,0.11,0.921,0.333,1.283H583.895z" />
            <path fill="#FFFFFF" d="M585.413,454.725v-1.889h0.484v1.889H585.413z" />
            <path fill="#FFFFFF" d="M584.978,458.791v-0.635h-1.29v-0.609h1.29v-2.313h0.407l3.269,2.194v0.729h-3.18v0.635H584.978z            M585.474,457.547h2.08c0.147,0,0.317,0.006,0.51,0.015v-0.015c-0.083-0.029-0.208-0.094-0.382-0.188l-2.208-1.478V457.547           z" />
            <path fill="#FFFFFF" d="M586.302,460.427c0.274-0.59,0.674-0.886,1.197-0.886c0.365,0,0.663,0.139,0.892,0.416           c0.231,0.278,0.347,0.632,0.347,1.063c0,0.396-0.109,0.723-0.324,0.978c-0.216,0.258-0.495,0.386-0.836,0.386           c-0.552,0-0.977-0.31-1.272-0.928h-0.014c-0.262,0.726-0.705,1.088-1.332,1.088c-0.413,0-0.741-0.15-0.985-0.446           c-0.246-0.299-0.368-0.715-0.368-1.25c0-0.438,0.121-0.793,0.362-1.069c0.241-0.277,0.555-0.415,0.939-0.415           c0.631,0,1.091,0.354,1.381,1.063H586.302z M586.002,460.914c-0.245-0.612-0.602-0.919-1.063-0.919           c-0.238,0-0.436,0.091-0.589,0.271c-0.153,0.177-0.231,0.413-0.231,0.7c0,0.28,0.078,0.509,0.229,0.684           c0.154,0.175,0.344,0.263,0.572,0.263C585.4,461.912,585.761,461.579,586.002,460.914z M587.503,461.749           c0.222,0,0.396-0.069,0.525-0.208c0.128-0.14,0.192-0.329,0.192-0.565c0-0.221-0.067-0.411-0.202-0.567           c-0.132-0.154-0.303-0.233-0.511-0.233c-0.415,0-0.729,0.261-0.944,0.779C586.783,461.484,587.097,461.749,587.503,461.749           z" />
          </g>
          <g>
            <path fill="#FFFFFF" d="M568.854,451.984c-0.192-0.366-0.289-0.823-0.289-1.374c0-0.712,0.226-1.28,0.678-1.705           c0.452-0.426,1.051-0.639,1.793-0.639c0.799,0,1.443,0.24,1.929,0.719c0.487,0.478,0.731,1.086,0.731,1.822           c0,0.476-0.067,0.866-0.202,1.177h-0.67c0.197-0.354,0.295-0.745,0.295-1.171c0-0.553-0.184-1.004-0.552-1.351           c-0.368-0.35-0.867-0.522-1.493-0.522c-0.593,0-1.063,0.162-1.414,0.486c-0.349,0.325-0.524,0.75-0.524,1.274           c0,0.492,0.111,0.921,0.333,1.283H568.854z" />
            <path fill="#FFFFFF" d="M570.372,454.725v-1.889h0.485v1.889H570.372z" />
            <path fill="#FFFFFF" d="M569.938,458.791v-0.635h-1.289v-0.609h1.289v-2.313h0.406l3.269,2.194v0.729h-3.18v0.635H569.938z            M570.434,457.547h2.081c0.146,0,0.315,0.006,0.509,0.015v-0.015c-0.081-0.029-0.208-0.094-0.381-0.188l-2.209-1.478           V457.547z" />
            <path fill="#FFFFFF" d="M573.396,462.552l-4.746-1.939v-0.652l4.409,1.846v-2.479h0.555v3.226H573.396z" />
          </g>
          <g>
            <path fill="#FFFFFF" d="M557.984,451.984c-0.192-0.366-0.288-0.823-0.288-1.374c0-0.712,0.226-1.28,0.678-1.705           c0.451-0.426,1.049-0.639,1.793-0.639c0.799,0,1.441,0.24,1.929,0.719c0.487,0.478,0.73,1.086,0.73,1.822           c0,0.476-0.067,0.866-0.201,1.177h-0.671c0.197-0.354,0.296-0.745,0.296-1.171c0-0.553-0.185-1.004-0.555-1.351           c-0.366-0.35-0.863-0.522-1.489-0.522c-0.594,0-1.065,0.162-1.416,0.486c-0.35,0.325-0.523,0.75-0.523,1.274           c0,0.492,0.111,0.921,0.334,1.283H557.984z" />
            <path fill="#FFFFFF" d="M559.504,454.725v-1.889h0.483v1.889H559.504z" />
            <path fill="#FFFFFF" d="M559.068,458.791v-0.635h-1.29v-0.609h1.29v-2.313h0.406l3.269,2.194v0.729h-3.18v0.635H559.068z            M559.563,457.547h2.081c0.146,0,0.317,0.006,0.509,0.015v-0.015c-0.08-0.029-0.207-0.094-0.38-0.188l-2.21-1.478V457.547z           " />
            <path fill="#FFFFFF" d="M562.105,462.287c0.132-0.259,0.197-0.528,0.197-0.812c0-0.43-0.187-0.774-0.56-1.033           c-0.373-0.263-0.885-0.395-1.53-0.397v0.016c0.453,0.234,0.681,0.609,0.681,1.123c0,0.431-0.139,0.774-0.419,1.028           c-0.28,0.257-0.652,0.386-1.115,0.386c-0.485,0-0.885-0.147-1.194-0.443c-0.313-0.297-0.469-0.674-0.469-1.134           c0-0.503,0.196-0.899,0.591-1.188c0.394-0.285,0.954-0.43,1.679-0.43c0.876,0,1.571,0.188,2.087,0.563           c0.515,0.379,0.773,0.875,0.773,1.489c0,0.354-0.048,0.631-0.145,0.831H562.105z M559.404,460.083           c-0.326,0-0.607,0.086-0.841,0.259c-0.231,0.176-0.348,0.407-0.348,0.696c0,0.273,0.1,0.494,0.3,0.665           c0.202,0.171,0.46,0.256,0.776,0.256c0.343,0,0.607-0.079,0.799-0.241c0.19-0.16,0.285-0.39,0.285-0.688           c0-0.281-0.097-0.509-0.29-0.686C559.895,460.169,559.667,460.083,559.404,460.083z" />
          </g>
          <g>
            <path fill="#FFFFFF" d="M541.646,451.984c-0.193-0.366-0.29-0.823-0.29-1.374c0-0.712,0.228-1.28,0.68-1.705           c0.451-0.426,1.049-0.639,1.793-0.639c0.797,0,1.442,0.24,1.927,0.719c0.487,0.478,0.732,1.086,0.732,1.822           c0,0.476-0.067,0.866-0.201,1.177h-0.67c0.197-0.354,0.294-0.745,0.294-1.171c0-0.553-0.185-1.004-0.553-1.351           c-0.368-0.35-0.866-0.522-1.492-0.522c-0.594,0-1.065,0.162-1.414,0.486c-0.35,0.325-0.524,0.75-0.524,1.274           c0,0.492,0.112,0.921,0.335,1.283H541.646z" />
            <path fill="#FFFFFF" d="M543.163,454.725v-1.889h0.484v1.889H543.163z" />
            <path fill="#FFFFFF" d="M542.729,458.791v-0.635h-1.289v-0.609h1.289v-2.313h0.407l3.269,2.194v0.729h-3.18v0.635H542.729z            M543.225,457.547h2.079c0.147,0,0.319,0.006,0.511,0.015v-0.015c-0.081-0.029-0.209-0.094-0.381-0.188l-2.209-1.478           V457.547z" />
            <path fill="#FFFFFF" d="M542.202,459.592c-0.216,0.334-0.326,0.679-0.326,1.042c0,0.341,0.097,0.617,0.288,0.827           c0.188,0.209,0.443,0.313,0.761,0.313c0.318,0,0.564-0.106,0.74-0.319c0.175-0.213,0.263-0.521,0.263-0.924           c0-0.195-0.015-0.458-0.044-0.785h2.521v2.442h-0.554v-1.858h-1.404c0.011,0.185,0.017,0.325,0.017,0.419           c0,0.524-0.134,0.931-0.398,1.225c-0.265,0.293-0.63,0.438-1.095,0.438c-0.481,0-0.87-0.156-1.168-0.471           c-0.296-0.314-0.446-0.749-0.446-1.302c0-0.463,0.069-0.814,0.206-1.048H542.202z" />
          </g>
          <g>
            <path fill="#FFFFFF" d="M530.913,451.984c-0.192-0.366-0.289-0.823-0.289-1.374c0-0.712,0.225-1.28,0.677-1.705           c0.451-0.426,1.052-0.639,1.793-0.639c0.8,0,1.443,0.24,1.93,0.719c0.487,0.478,0.73,1.086,0.73,1.822           c0,0.476-0.066,0.866-0.201,1.177h-0.67c0.197-0.354,0.295-0.745,0.295-1.171c0-0.553-0.184-1.004-0.553-1.351           c-0.368-0.35-0.866-0.522-1.492-0.522c-0.594,0-1.065,0.162-1.414,0.486c-0.351,0.325-0.524,0.75-0.524,1.274           c0,0.492,0.11,0.921,0.333,1.283H530.913z" />
            <path fill="#FFFFFF" d="M532.431,454.725v-1.889h0.484v1.889H532.431z" />
            <path fill="#FFFFFF" d="M531.995,458.791v-0.635h-1.288v-0.609h1.288v-2.313h0.407l3.269,2.194v0.729h-3.178v0.635H531.995           z M532.493,457.547h2.079c0.147,0,0.316,0.006,0.509,0.015v-0.015c-0.081-0.029-0.208-0.094-0.381-0.188l-2.207-1.478           V457.547z" />
            <path fill="#FFFFFF" d="M531.995,462.638v-0.633h-1.288v-0.608h1.288v-2.314h0.407l3.269,2.195v0.728h-3.178v0.633H531.995           z M532.493,461.396h2.079c0.147,0,0.316,0.003,0.509,0.012v-0.012c-0.081-0.031-0.208-0.094-0.381-0.189l-2.207-1.477           V461.396z" />
          </g>
          <g>
            <path fill="#FFFFFF" d="M519.905,451.984c-0.192-0.366-0.288-0.823-0.288-1.374c0-0.712,0.225-1.28,0.678-1.705           c0.451-0.426,1.049-0.639,1.792-0.639c0.8,0,1.442,0.24,1.93,0.719c0.487,0.478,0.73,1.086,0.73,1.822           c0,0.476-0.067,0.866-0.202,1.177h-0.67c0.197-0.354,0.295-0.745,0.295-1.171c0-0.553-0.184-1.004-0.552-1.351           c-0.368-0.35-0.867-0.522-1.492-0.522c-0.594,0-1.065,0.162-1.415,0.486c-0.349,0.325-0.524,0.75-0.524,1.274           c0,0.492,0.113,0.921,0.334,1.283H519.905z" />
            <path fill="#FFFFFF" d="M521.425,454.725v-1.889h0.483v1.889H521.425z" />
            <path fill="#FFFFFF" d="M520.989,458.791v-0.635H519.7v-0.609h1.289v-2.313h0.406l3.269,2.194v0.729h-3.18v0.635H520.989z            M521.484,457.547h2.081c0.146,0,0.317,0.006,0.508,0.015v-0.015c-0.08-0.029-0.208-0.094-0.38-0.188l-2.209-1.478V457.547           z" />
            <path fill="#FFFFFF" d="M520.53,459.483c-0.263,0.34-0.395,0.722-0.395,1.15c0,0.341,0.084,0.612,0.252,0.813           c0.167,0.198,0.392,0.299,0.675,0.299c0.628,0,0.942-0.448,0.942-1.348v-0.415h0.519v0.394           c0,0.797,0.294,1.195,0.885,1.195c0.544,0,0.816-0.304,0.816-0.911c0-0.35-0.117-0.678-0.352-0.984h0.593           c0.188,0.324,0.281,0.704,0.281,1.137c0,0.424-0.11,0.764-0.331,1.019c-0.222,0.258-0.508,0.386-0.861,0.386           c-0.648,0-1.067-0.331-1.252-0.994h-0.014c-0.038,0.359-0.164,0.643-0.38,0.852c-0.214,0.209-0.481,0.313-0.803,0.313           c-0.445,0-0.806-0.161-1.079-0.481c-0.273-0.323-0.41-0.75-0.41-1.285c0-0.469,0.087-0.851,0.263-1.137H520.53z" />
          </g>
          <g>
            <path fill="#FFFFFF" d="M606.044,482.748c-0.192-0.364-0.287-0.825-0.287-1.374c0-0.714,0.226-1.281,0.676-1.706           c0.453-0.424,1.05-0.637,1.794-0.637c0.798,0,1.443,0.238,1.928,0.717c0.487,0.479,0.732,1.087,0.732,1.823           c0,0.476-0.066,0.866-0.202,1.177h-0.669c0.197-0.354,0.294-0.746,0.294-1.171c0-0.553-0.184-1.004-0.553-1.352           c-0.368-0.35-0.866-0.522-1.492-0.522c-0.594,0-1.065,0.162-1.414,0.487c-0.35,0.324-0.524,0.75-0.524,1.276           c0,0.49,0.111,0.917,0.333,1.281H606.044z" />
            <path fill="#FFFFFF" d="M607.563,485.488V483.6h0.485v1.889H607.563z" />
            <path fill="#FFFFFF" d="M606.602,486.508c-0.219,0.331-0.326,0.68-0.326,1.041c0,0.342,0.095,0.617,0.285,0.826           c0.191,0.21,0.446,0.313,0.761,0.313c0.321,0,0.566-0.106,0.742-0.318c0.175-0.213,0.262-0.521,0.262-0.925           c0-0.193-0.014-0.455-0.044-0.785h2.521v2.442h-0.555v-1.859h-1.402c0.01,0.187,0.015,0.325,0.015,0.421           c0,0.522-0.132,0.932-0.396,1.223c-0.264,0.294-0.631,0.439-1.097,0.439c-0.481,0-0.868-0.156-1.166-0.471           c-0.297-0.314-0.444-0.747-0.444-1.3c0-0.465,0.067-0.813,0.204-1.048H606.602z" />
            <path fill="#FFFFFF" d="M610.585,493.317l-4.746-1.943v-0.65l4.409,1.847v-2.482h0.555v3.229H610.585z" />
          </g>
          <g>
            <path fill="#FFFFFF" d="M594.969,482.748c-0.191-0.364-0.288-0.825-0.288-1.374c0-0.714,0.226-1.281,0.678-1.706           c0.452-0.424,1.05-0.637,1.793-0.637c0.799,0,1.441,0.238,1.929,0.717c0.487,0.479,0.732,1.087,0.732,1.823           c0,0.476-0.069,0.866-0.203,1.177h-0.671c0.197-0.354,0.296-0.746,0.296-1.171c0-0.553-0.185-1.004-0.553-1.352           c-0.369-0.35-0.866-0.522-1.492-0.522c-0.594,0-1.064,0.162-1.415,0.487c-0.349,0.324-0.523,0.75-0.523,1.276           c0,0.49,0.112,0.917,0.334,1.281H594.969z" />
            <path fill="#FFFFFF" d="M596.488,485.488V483.6h0.485v1.889H596.488z" />
            <path fill="#FFFFFF" d="M595.526,486.508c-0.218,0.331-0.326,0.68-0.326,1.041c0,0.342,0.096,0.617,0.287,0.826           c0.191,0.21,0.443,0.313,0.76,0.313c0.319,0,0.565-0.106,0.739-0.318c0.176-0.213,0.264-0.521,0.264-0.925           c0-0.193-0.015-0.455-0.045-0.785h2.523v2.442h-0.554v-1.859h-1.404c0.01,0.187,0.016,0.325,0.016,0.421           c0,0.522-0.133,0.932-0.396,1.223c-0.267,0.294-0.632,0.439-1.098,0.439c-0.481,0-0.869-0.156-1.166-0.471           c-0.295-0.314-0.445-0.747-0.445-1.3c0-0.465,0.069-0.813,0.205-1.048H595.526z" />
            <path fill="#FFFFFF" d="M597.376,491.192c0.275-0.594,0.674-0.888,1.197-0.888c0.365,0,0.663,0.138,0.895,0.416           c0.229,0.277,0.345,0.634,0.345,1.063c0,0.396-0.109,0.722-0.324,0.979c-0.217,0.255-0.495,0.384-0.836,0.384           c-0.553,0-0.978-0.309-1.272-0.926h-0.013c-0.262,0.725-0.707,1.086-1.335,1.086c-0.41,0-0.739-0.148-0.984-0.446           c-0.245-0.299-0.367-0.715-0.367-1.248c0-0.438,0.12-0.795,0.363-1.07c0.24-0.276,0.553-0.414,0.938-0.414           c0.633,0,1.094,0.354,1.38,1.064H597.376z M597.077,491.68c-0.248-0.615-0.603-0.922-1.063-0.922           c-0.239,0-0.437,0.091-0.589,0.271c-0.153,0.179-0.23,0.412-0.23,0.701c0,0.278,0.074,0.507,0.229,0.682           c0.152,0.175,0.343,0.263,0.572,0.263C596.475,492.675,596.837,492.343,597.077,491.68z M598.578,492.513           c0.221,0,0.396-0.069,0.524-0.209c0.128-0.14,0.192-0.326,0.192-0.564c0-0.222-0.067-0.411-0.2-0.566           c-0.134-0.155-0.304-0.234-0.51-0.234c-0.415,0-0.729,0.26-0.946,0.779C597.858,492.247,598.173,492.513,598.578,492.513z" />
          </g>
          <g>
            <path fill="#FFFFFF" d="M583.895,482.748c-0.192-0.364-0.289-0.825-0.289-1.374c0-0.714,0.227-1.281,0.679-1.706           c0.451-0.424,1.048-0.637,1.793-0.637c0.797,0,1.441,0.238,1.929,0.717c0.486,0.479,0.731,1.087,0.731,1.823           c0,0.476-0.068,0.866-0.202,1.177h-0.671c0.196-0.354,0.294-0.746,0.294-1.171c0-0.553-0.184-1.004-0.553-1.352           c-0.367-0.35-0.864-0.522-1.491-0.522c-0.594,0-1.064,0.162-1.414,0.487c-0.35,0.324-0.524,0.75-0.524,1.276           c0,0.49,0.11,0.917,0.333,1.281H583.895z" />
            <path fill="#FFFFFF" d="M585.413,485.488V483.6h0.484v1.889H585.413z" />
            <path fill="#FFFFFF" d="M584.452,486.508c-0.219,0.331-0.328,0.68-0.328,1.041c0,0.342,0.096,0.617,0.287,0.826           c0.191,0.21,0.445,0.313,0.762,0.313c0.318,0,0.565-0.106,0.74-0.318c0.175-0.213,0.263-0.521,0.263-0.925           c0-0.193-0.015-0.455-0.046-0.785h2.523v2.442h-0.555v-1.859h-1.403c0.011,0.187,0.016,0.325,0.016,0.421           c0,0.522-0.132,0.932-0.398,1.223c-0.264,0.294-0.629,0.439-1.096,0.439c-0.48,0-0.868-0.156-1.166-0.471           c-0.296-0.314-0.445-0.747-0.445-1.3c0-0.465,0.069-0.813,0.206-1.048H584.452z" />
            <path fill="#FFFFFF" d="M584.361,490.38c-0.158,0.274-0.237,0.569-0.237,0.885c0,0.445,0.176,0.79,0.526,1.035           c0.35,0.244,0.849,0.366,1.494,0.366c-0.006-0.004-0.006-0.009,0-0.014c-0.415-0.216-0.623-0.583-0.623-1.099           c0-0.417,0.145-0.762,0.43-1.034c0.288-0.274,0.659-0.409,1.116-0.409c0.486,0,0.886,0.147,1.197,0.447           c0.314,0.3,0.473,0.687,0.473,1.163c0,0.494-0.195,0.879-0.582,1.157c-0.389,0.277-0.953,0.416-1.695,0.416           c-0.915,0-1.619-0.18-2.114-0.539c-0.493-0.358-0.74-0.854-0.74-1.49c0-0.347,0.057-0.642,0.17-0.885H584.361z            M587.146,490.742c-0.333,0-0.598,0.086-0.793,0.257c-0.195,0.172-0.294,0.407-0.294,0.709c0,0.26,0.091,0.479,0.271,0.656           c0.178,0.178,0.393,0.267,0.646,0.267c0.358,0,0.653-0.089,0.887-0.265s0.351-0.408,0.351-0.696           c0-0.269-0.102-0.489-0.305-0.665C587.707,490.832,587.452,490.742,587.146,490.742z" />
          </g>
          <g>
            <path fill="#FFFFFF" d="M568.854,482.748c-0.192-0.364-0.289-0.825-0.289-1.374c0-0.714,0.226-1.281,0.678-1.706           c0.452-0.424,1.051-0.637,1.793-0.637c0.799,0,1.443,0.238,1.929,0.717c0.487,0.479,0.731,1.087,0.731,1.823           c0,0.476-0.067,0.866-0.202,1.177h-0.67c0.197-0.354,0.295-0.746,0.295-1.171c0-0.553-0.184-1.004-0.552-1.352           c-0.368-0.35-0.867-0.522-1.493-0.522c-0.593,0-1.063,0.162-1.414,0.487c-0.349,0.324-0.524,0.75-0.524,1.276           c0,0.49,0.111,0.917,0.333,1.281H568.854z" />
            <path fill="#FFFFFF" d="M570.372,485.488V483.6h0.485v1.889H570.372z" />
            <path fill="#FFFFFF" d="M572.975,489.203c0.134-0.259,0.199-0.53,0.199-0.813c0-0.429-0.187-0.775-0.562-1.035           c-0.374-0.26-0.884-0.393-1.53-0.397v0.017c0.455,0.234,0.682,0.609,0.682,1.125c0,0.428-0.14,0.772-0.419,1.029           c-0.28,0.257-0.65,0.384-1.115,0.384c-0.486,0-0.883-0.148-1.195-0.444c-0.313-0.295-0.469-0.673-0.469-1.132           c0-0.505,0.197-0.9,0.591-1.187c0.396-0.288,0.955-0.433,1.68-0.433c0.875,0,1.572,0.19,2.086,0.566           c0.518,0.376,0.774,0.872,0.774,1.488c0,0.353-0.047,0.629-0.144,0.831H572.975z M570.273,486.996           c-0.327,0-0.606,0.087-0.84,0.263c-0.231,0.173-0.349,0.405-0.349,0.693c0,0.273,0.101,0.496,0.303,0.666           c0.199,0.172,0.457,0.258,0.775,0.258c0.341,0,0.605-0.082,0.797-0.242c0.188-0.162,0.285-0.392,0.285-0.688           c0-0.282-0.097-0.512-0.289-0.687C570.766,487.085,570.538,486.996,570.273,486.996z" />
            <path fill="#FFFFFF" d="M571.032,490.08c0.876,0,1.539,0.144,1.989,0.437c0.45,0.289,0.675,0.711,0.675,1.263           c0,1.051-0.847,1.576-2.545,1.576c-0.837,0-1.477-0.149-1.92-0.444c-0.442-0.296-0.666-0.712-0.666-1.244           c0-0.506,0.21-0.895,0.632-1.173C569.618,490.219,570.229,490.08,571.032,490.08z M571.063,490.721           c-1.319,0-1.978,0.334-1.978,1.003c0,0.658,0.668,0.985,2.01,0.985c1.386,0,2.079-0.321,2.079-0.966           C573.174,491.062,572.47,490.721,571.063,490.721z" />
          </g>
          <g>
            <path fill="#FFFFFF" d="M557.984,482.748c-0.192-0.364-0.288-0.825-0.288-1.374c0-0.714,0.226-1.281,0.678-1.706           c0.451-0.424,1.049-0.637,1.793-0.637c0.799,0,1.441,0.238,1.929,0.717c0.487,0.479,0.73,1.087,0.73,1.823           c0,0.476-0.067,0.866-0.201,1.177h-0.671c0.197-0.354,0.296-0.746,0.296-1.171c0-0.553-0.185-1.004-0.555-1.352           c-0.366-0.35-0.863-0.522-1.489-0.522c-0.594,0-1.065,0.162-1.416,0.487c-0.35,0.324-0.523,0.75-0.523,1.276           c0,0.49,0.111,0.917,0.334,1.281H557.984z" />
            <path fill="#FFFFFF" d="M559.504,485.488V483.6h0.483v1.889H559.504z" />
            <path fill="#FFFFFF" d="M562.105,489.203c0.132-0.259,0.197-0.53,0.197-0.813c0-0.429-0.187-0.775-0.56-1.035           s-0.885-0.393-1.53-0.397v0.017c0.453,0.234,0.681,0.609,0.681,1.125c0,0.428-0.139,0.772-0.419,1.029           s-0.652,0.384-1.115,0.384c-0.485,0-0.885-0.148-1.194-0.444c-0.313-0.295-0.469-0.673-0.469-1.132           c0-0.505,0.196-0.9,0.591-1.187c0.394-0.288,0.954-0.433,1.679-0.433c0.876,0,1.571,0.19,2.087,0.566           c0.515,0.376,0.773,0.872,0.773,1.488c0,0.353-0.048,0.629-0.145,0.831H562.105z M559.404,486.996           c-0.326,0-0.607,0.087-0.841,0.263c-0.231,0.173-0.348,0.405-0.348,0.693c0,0.273,0.1,0.496,0.3,0.666           c0.202,0.172,0.46,0.258,0.776,0.258c0.343,0,0.607-0.082,0.799-0.242c0.19-0.162,0.285-0.392,0.285-0.688           c0-0.282-0.097-0.512-0.29-0.687C559.895,487.085,559.667,486.996,559.404,486.996z" />
            <path fill="#FFFFFF" d="M557.778,493.24v-2.846h0.542v1.111h3.769l-0.33-1.142h0.576l0.515,1.766h-4.529v1.11H557.778z" />
          </g>
          <g>
            <path fill="#FFFFFF" d="M541.646,482.748c-0.193-0.364-0.29-0.825-0.29-1.374c0-0.714,0.228-1.281,0.68-1.706           c0.451-0.424,1.049-0.637,1.793-0.637c0.797,0,1.442,0.238,1.927,0.717c0.487,0.479,0.732,1.087,0.732,1.823           c0,0.476-0.067,0.866-0.201,1.177h-0.67c0.197-0.354,0.294-0.746,0.294-1.171c0-0.553-0.185-1.004-0.553-1.352           c-0.368-0.35-0.866-0.522-1.492-0.522c-0.594,0-1.065,0.162-1.414,0.487c-0.35,0.324-0.524,0.75-0.524,1.276           c0,0.49,0.112,0.917,0.335,1.281H541.646z" />
            <path fill="#FFFFFF" d="M543.163,485.488V483.6h0.484v1.889H543.163z" />
            <path fill="#FFFFFF" d="M545.766,489.203c0.134-0.259,0.201-0.53,0.201-0.813c0-0.429-0.19-0.775-0.563-1.035           c-0.375-0.26-0.886-0.393-1.531-0.397v0.017c0.455,0.234,0.681,0.609,0.681,1.125c0,0.428-0.141,0.772-0.418,1.029           c-0.279,0.257-0.652,0.384-1.117,0.384c-0.484,0-0.882-0.148-1.193-0.444c-0.313-0.295-0.47-0.673-0.47-1.132           c0-0.505,0.198-0.9,0.593-1.187c0.395-0.288,0.954-0.433,1.678-0.433c0.876,0,1.571,0.19,2.088,0.566           s0.773,0.872,0.773,1.488c0,0.353-0.049,0.629-0.145,0.831H545.766z M543.064,486.996c-0.327,0-0.605,0.087-0.84,0.263           c-0.231,0.173-0.349,0.405-0.349,0.693c0,0.273,0.101,0.496,0.303,0.666c0.199,0.172,0.458,0.258,0.774,0.258           c0.342,0,0.606-0.082,0.796-0.242c0.191-0.162,0.286-0.392,0.286-0.688c0-0.282-0.095-0.512-0.288-0.687           C543.556,487.085,543.328,486.996,543.064,486.996z" />
            <path fill="#FFFFFF" d="M541.439,493.146v-3.019h0.547l1.438,1.442c0.396,0.397,0.712,0.662,0.943,0.798           c0.232,0.135,0.471,0.202,0.72,0.202c0.282,0,0.498-0.08,0.65-0.237c0.148-0.158,0.224-0.387,0.224-0.685           c0-0.443-0.187-0.866-0.563-1.269h0.638c0.301,0.393,0.451,0.848,0.451,1.366c0,0.446-0.12,0.8-0.362,1.058           c-0.241,0.258-0.567,0.389-0.974,0.389c-0.307,0-0.609-0.084-0.907-0.248c-0.294-0.167-0.67-0.48-1.127-0.942l-1.107-1.131           h-0.013v2.275H541.439z" />
          </g>
          <g>
            <path fill="#FFFFFF" d="M530.913,482.748c-0.192-0.364-0.289-0.825-0.289-1.374c0-0.714,0.225-1.281,0.677-1.706           c0.451-0.424,1.052-0.637,1.793-0.637c0.8,0,1.443,0.238,1.93,0.717c0.487,0.479,0.73,1.087,0.73,1.823           c0,0.476-0.066,0.866-0.201,1.177h-0.67c0.197-0.354,0.295-0.746,0.295-1.171c0-0.553-0.184-1.004-0.553-1.352           c-0.368-0.35-0.866-0.522-1.492-0.522c-0.594,0-1.065,0.162-1.414,0.487c-0.351,0.324-0.524,0.75-0.524,1.276           c0,0.49,0.11,0.917,0.333,1.281H530.913z" />
            <path fill="#FFFFFF" d="M532.431,485.488V483.6h0.484v1.889H532.431z" />
            <path fill="#FFFFFF" d="M535.033,489.203c0.133-0.259,0.198-0.53,0.198-0.813c0-0.429-0.187-0.775-0.561-1.035           c-0.373-0.26-0.884-0.393-1.531-0.397v0.017c0.454,0.234,0.683,0.609,0.683,1.125c0,0.428-0.141,0.772-0.42,1.029           c-0.28,0.257-0.652,0.384-1.115,0.384c-0.483,0-0.884-0.148-1.196-0.444c-0.311-0.295-0.467-0.673-0.467-1.132           c0-0.505,0.197-0.9,0.59-1.187c0.395-0.288,0.955-0.433,1.68-0.433c0.875,0,1.569,0.19,2.087,0.566           c0.515,0.376,0.773,0.872,0.773,1.488c0,0.353-0.047,0.629-0.144,0.831H535.033z M532.331,486.996           c-0.326,0-0.605,0.087-0.839,0.263c-0.232,0.173-0.35,0.405-0.35,0.693c0,0.273,0.1,0.496,0.302,0.666           c0.201,0.172,0.461,0.258,0.773,0.258c0.344,0,0.61-0.082,0.8-0.242c0.188-0.162,0.284-0.392,0.284-0.688           c0-0.282-0.096-0.512-0.286-0.687C532.821,487.085,532.595,486.996,532.331,486.996z" />
            <path fill="#FFFFFF" d="M531.537,490.245c-0.263,0.342-0.395,0.724-0.395,1.15c0,0.344,0.084,0.613,0.252,0.814           c0.168,0.199,0.392,0.299,0.674,0.299c0.628,0,0.943-0.45,0.943-1.349v-0.413h0.519v0.393c0,0.798,0.294,1.197,0.883,1.197           c0.547,0,0.818-0.306,0.818-0.913c0-0.35-0.117-0.677-0.353-0.985h0.595c0.188,0.324,0.28,0.704,0.28,1.139           c0,0.422-0.108,0.762-0.331,1.02c-0.222,0.256-0.507,0.384-0.86,0.384c-0.649,0-1.068-0.331-1.253-0.994h-0.014           c-0.037,0.359-0.164,0.642-0.379,0.852c-0.215,0.208-0.483,0.312-0.803,0.312c-0.446,0-0.807-0.16-1.08-0.481           s-0.41-0.751-0.41-1.283c0-0.471,0.087-0.849,0.263-1.14H531.537z" />
          </g>
          <g>
            <path fill="#FFFFFF" d="M519.905,482.748c-0.192-0.364-0.288-0.825-0.288-1.374c0-0.714,0.225-1.281,0.678-1.706           c0.451-0.424,1.049-0.637,1.792-0.637c0.8,0,1.442,0.238,1.93,0.717c0.487,0.479,0.73,1.087,0.73,1.823           c0,0.476-0.067,0.866-0.202,1.177h-0.67c0.197-0.354,0.295-0.746,0.295-1.171c0-0.553-0.184-1.004-0.552-1.352           c-0.368-0.35-0.867-0.522-1.492-0.522c-0.594,0-1.065,0.162-1.415,0.487c-0.349,0.324-0.524,0.75-0.524,1.276           c0,0.49,0.113,0.917,0.334,1.281H519.905z" />
            <path fill="#FFFFFF" d="M521.425,485.488V483.6h0.483v1.889H521.425z" />
            <path fill="#FFFFFF" d="M524.026,489.203c0.133-0.259,0.198-0.53,0.198-0.813c0-0.429-0.188-0.775-0.562-1.035           c-0.372-0.26-0.884-0.393-1.531-0.397v0.017c0.456,0.234,0.683,0.609,0.683,1.125c0,0.428-0.14,0.772-0.419,1.029           c-0.28,0.257-0.651,0.384-1.116,0.384c-0.484,0-0.883-0.148-1.194-0.444c-0.313-0.295-0.468-0.673-0.468-1.132           c0-0.505,0.197-0.9,0.592-1.187c0.394-0.288,0.952-0.433,1.676-0.433c0.878,0,1.573,0.19,2.088,0.566           c0.517,0.376,0.774,0.872,0.774,1.488c0,0.353-0.048,0.629-0.144,0.831H524.026z M521.325,486.996           c-0.326,0-0.607,0.087-0.841,0.263c-0.232,0.173-0.349,0.405-0.349,0.693c0,0.273,0.101,0.496,0.302,0.666           c0.2,0.172,0.459,0.258,0.776,0.258c0.341,0,0.606-0.082,0.797-0.242c0.19-0.162,0.284-0.392,0.284-0.688           c0-0.282-0.095-0.512-0.287-0.687S521.588,486.996,521.325,486.996z" />
            <path fill="#FFFFFF" d="M520.989,493.403v-0.635H519.7v-0.609h1.289v-2.313h0.406l3.269,2.193v0.729h-3.18v0.635H520.989z            M521.484,492.159h2.081c0.146,0,0.317,0.005,0.508,0.015v-0.015c-0.08-0.029-0.208-0.092-0.38-0.188l-2.209-1.479V492.159           z" />
          </g>
        </g>
      </g>
    </g>
    <g>
      <rect x="604.125" y="465.753" fill="#FBC600" width="8.496" height="0.456" />
      <rect x="593.244" y="465.753" fill="#FBC600" width="8.499" height="0.456" />
      <rect x="582.364" y="465.753" fill="#FBC600" width="8.499" height="0.456" />
      <rect x="566.934" y="465.753" fill="#FBC600" width="8.498" height="0.456" />
      <rect x="556.055" y="465.753" fill="#FBC600" width="8.498" height="0.456" />
      <rect x="539.643" y="465.753" fill="#FBC600" width="8.498" height="0.456" />
      <rect x="528.764" y="465.753" fill="#FBC600" width="8.498" height="0.456" />
      <rect x="517.885" y="465.753" fill="#FBC600" width="8.498" height="0.456" />
      <rect x="539.643" y="475.572" fill="#FBC600" width="8.498" height="0.454" />
      <rect x="528.764" y="475.572" fill="#FBC600" width="8.498" height="0.454" />
      <rect x="517.885" y="475.572" fill="#FBC600" width="8.498" height="0.454" />
      <rect x="604.125" y="475.572" fill="#FBC600" width="8.496" height="0.454" />
      <rect x="593.244" y="475.572" fill="#FBC600" width="8.499" height="0.454" />
      <rect x="582.364" y="475.572" fill="#FBC600" width="8.499" height="0.454" />
      <rect x="566.934" y="475.572" fill="#FBC600" width="8.498" height="0.454" />
      <rect x="556.055" y="475.572" fill="#FBC600" width="8.498" height="0.454" />
      <rect x="557.733" y="475.572" fill="#8DC21F" width="1.739" height="0.454" />
      <rect x="561.157" y="475.572" fill="#8DC21F" width="1.711" height="0.454" />
      <rect x="568.612" y="475.572" fill="#8DC21F" width="1.74" height="0.454" />
      <rect x="572.035" y="475.572" fill="#8DC21F" width="1.713" height="0.454" />
      <rect x="584.044" y="475.572" fill="#8DC21F" width="1.739" height="0.454" />
      <rect x="587.467" y="475.572" fill="#8DC21F" width="1.71" height="0.454" />
      <rect x="594.925" y="475.572" fill="#8DC21F" width="1.737" height="0.454" />
      <rect x="598.347" y="475.572" fill="#8DC21F" width="1.712" height="0.454" />
      <rect x="605.803" y="475.572" fill="#8DC21F" width="1.738" height="0.454" />
      <rect x="609.227" y="475.572" fill="#8DC21F" width="1.711" height="0.454" />
      <rect x="519.564" y="475.572" fill="#8DC21F" width="1.738" height="0.454" />
      <rect x="522.986" y="475.572" fill="#8DC21F" width="1.711" height="0.454" />
      <rect x="530.442" y="475.572" fill="#8DC21F" width="1.74" height="0.454" />
      <rect x="533.865" y="475.572" fill="#8DC21F" width="1.713" height="0.454" />
      <rect x="541.322" y="475.572" fill="#8DC21F" width="1.738" height="0.454" />
      <rect x="544.744" y="475.572" fill="#8DC21F" width="1.712" height="0.454" />
      <rect x="522.986" y="465.753" fill="#8DC21F" width="1.711" height="0.456" />
      <rect x="519.564" y="465.753" fill="#8DC21F" width="1.738" height="0.456" />
      <rect x="533.865" y="465.753" fill="#8DC21F" width="1.713" height="0.456" />
      <rect x="530.442" y="465.753" fill="#8DC21F" width="1.74" height="0.456" />
      <rect x="544.744" y="465.753" fill="#8DC21F" width="1.712" height="0.456" />
      <rect x="541.322" y="465.753" fill="#8DC21F" width="1.738" height="0.456" />
      <rect x="561.157" y="465.753" fill="#8DC21F" width="1.711" height="0.456" />
      <rect x="557.733" y="465.753" fill="#8DC21F" width="1.739" height="0.456" />
      <rect x="572.035" y="465.753" fill="#8DC21F" width="1.713" height="0.456" />
      <rect x="568.612" y="465.753" fill="#8DC21F" width="1.74" height="0.456" />
      <rect x="587.467" y="465.753" fill="#8DC21F" width="1.71" height="0.456" />
      <rect x="584.044" y="465.753" fill="#8DC21F" width="1.739" height="0.456" />
      <rect x="598.347" y="465.753" fill="#8DC21F" width="1.712" height="0.456" />
      <rect x="594.925" y="465.753" fill="#8DC21F" width="1.737" height="0.456" />
      <rect x="609.227" y="465.753" fill="#8DC21F" width="1.711" height="0.456" />
      <rect x="605.803" y="465.753" fill="#8DC21F" width="1.738" height="0.456" />
    </g>
</svg>
