<!DOCTYPE svg PUBLIC "-//W3C//DTD SVG 1.1//EN" "http://www.w3.org/Graphics/SVG/1.1/DTD/svg11.dtd">
<svg xmlns="http://www.w3.org/2000/svg" xmlns:xlink="http://www.w3.org/1999/xlink" version="1.1" id="图层_1" x="0px" y="0px" width="1028px" height="680px" viewBox="0 0 1028 680" enable-background="new 0 0 1028 680" xml:space="preserve" xmlns:xml="http://www.w3.org/XML/1998/namespace">
    <g>
      <path fill="#AACC03" d="M681.463,415.809h-30.005v72.135c0,0,0.5,4.802,5.5,4.49h38.063c0,0,2.105-0.041,2.146-1.912        l-0.588,0.087l-0.037-30.728l-15.092,0.032L681.463,415.809z" />
      <g>
        <path fill="none" stroke="#FFFFFF" stroke-width="0.9362" stroke-linecap="round" stroke-linejoin="round" d="         M654.442,470.339c0,0.521,0.218,0.737,0.739,0.737" />
        <path fill="none" stroke="#FFFFFF" stroke-width="0.9362" stroke-linecap="round" stroke-linejoin="round" d="         M655.182,469.592c-0.521,0-0.739,0.218-0.739,0.738" />
        <g>
          <path fill="#FFFFFF" d="M658.534,429.356c-0.366,0.192-0.824,0.289-1.376,0.289c-0.711,0-1.278-0.227-1.705-0.679          c-0.425-0.451-0.637-1.048-0.637-1.793c0-0.798,0.238-1.441,0.718-1.929c0.479-0.486,1.086-0.731,1.824-0.731          c0.474,0,0.865,0.068,1.176,0.202v0.67c-0.356-0.195-0.746-0.295-1.17-0.295c-0.553,0-1.004,0.186-1.352,0.552          c-0.35,0.369-0.522,0.867-0.522,1.494c0,0.594,0.161,1.063,0.487,1.414c0.323,0.35,0.749,0.523,1.274,0.523          c0.49,0,0.918-0.111,1.282-0.332V429.356z" />
          <path fill="#FFFFFF" d="M661.272,427.838h-1.887v-0.484h1.887V427.838z" />
          <path fill="#FFFFFF" d="M662.292,428.799c0.334,0.218,0.68,0.326,1.041,0.326c0.342,0,0.619-0.094,0.829-0.285          c0.208-0.191,0.313-0.445,0.313-0.762c0-0.318-0.105-0.565-0.318-0.741c-0.213-0.175-0.521-0.262-0.925-0.262          c-0.194,0-0.457,0.015-0.786,0.046v-2.523h2.442v0.554h-1.857v1.404c0.185-0.011,0.325-0.017,0.419-0.017          c0.524,0,0.932,0.133,1.225,0.397c0.292,0.266,0.439,0.63,0.439,1.095c0,0.481-0.157,0.87-0.472,1.167          c-0.315,0.297-0.749,0.447-1.302,0.447c-0.462,0-0.813-0.069-1.048-0.206V428.799z" />
          <path fill="#FFFFFF" d="M669.024,429.562h-2.845v-0.543h1.113v-3.767l-1.143,0.33v-0.577l1.767-0.513v4.526h1.107V429.562z" />
        </g>
        <g>
          <rect x="690.353" y="453.905" fill="none" stroke="#FFFFFF" stroke-width="1.8725" width="5.935" height="5.938" />
          <g>
            <rect x="652.195" y="453.905" fill="none" stroke="#FFFFFF" stroke-width="1.8725" width="5.936" height="5.938" />
            <rect x="652.195" y="415.748" fill="none" stroke="#FFFFFF" stroke-width="1.8725" width="5.936" height="5.937" />
            <rect x="653.043" y="486.365" fill="none" stroke="#FFFFFF" stroke-width="1.8725" width="4.24" height="4.239" />
            <rect x="691.201" y="486.365" fill="none" stroke="#FFFFFF" stroke-width="1.8725" width="4.239" height="4.239" />

            <line fill="none" stroke="#FFFFFF" stroke-width="0.9362" stroke-linecap="round" stroke-linejoin="round" x1="676.914" y1="443.988" x2="655.182" y2="443.988" />

            <line fill="none" stroke="#FFFFFF" stroke-width="0.9362" stroke-linecap="round" stroke-linejoin="round" x1="676.914" y1="442.504" x2="655.182" y2="442.504" />

            <line fill="none" stroke="#FFFFFF" stroke-width="0.9362" stroke-linecap="round" stroke-linejoin="round" x1="676.914" y1="433.177" x2="655.182" y2="433.177" />

            <line fill="none" stroke="#FFFFFF" stroke-width="0.9362" stroke-linecap="round" stroke-linejoin="round" x1="676.914" y1="431.693" x2="655.182" y2="431.693" />

            <line fill="none" stroke="#FFFFFF" stroke-width="0.9362" stroke-linecap="round" stroke-linejoin="round" x1="676.914" y1="422.364" x2="676.914" y2="453.315" />

            <line fill="none" stroke="#FFFFFF" stroke-width="0.9362" stroke-linecap="round" stroke-linejoin="round" x1="676.914" y1="453.315" x2="654.442" y2="453.315" />
            <path fill="none" stroke="#FFFFFF" stroke-width="0.9362" stroke-linecap="round" stroke-linejoin="round" d="           M654.442,443.249c0,0.522,0.218,0.739,0.739,0.739" />
            <path fill="none" stroke="#FFFFFF" stroke-width="0.9362" stroke-linecap="round" stroke-linejoin="round" d="           M655.182,442.504c-0.521,0-0.739,0.215-0.739,0.737" />
            <path fill="none" stroke="#FFFFFF" stroke-width="0.9362" stroke-linecap="round" stroke-linejoin="round" d="           M654.442,432.439c0,0.521,0.218,0.737,0.739,0.737" />
            <path fill="none" stroke="#FFFFFF" stroke-width="0.9362" stroke-linecap="round" stroke-linejoin="round" d="           M655.182,431.693c-0.521,0-0.739,0.215-0.739,0.736" />

            <line fill="none" stroke="#FFFFFF" stroke-width="0.9362" stroke-linecap="round" stroke-linejoin="round" x1="676.914" y1="460.266" x2="676.914" y2="480.403" />

            <line fill="none" stroke="#FFFFFF" stroke-width="0.9362" stroke-linecap="round" stroke-linejoin="round" x1="676.914" y1="471.076" x2="655.182" y2="471.076" />

            <line fill="none" stroke="#FFFFFF" stroke-width="0.9362" stroke-linecap="round" stroke-linejoin="round" x1="676.914" y1="469.592" x2="655.182" y2="469.592" />

            <line fill="none" stroke="#FFFFFF" stroke-width="0.9362" stroke-linecap="round" stroke-linejoin="round" x1="676.914" y1="460.266" x2="654.442" y2="460.266" />

            <line fill="none" stroke="#FFFFFF" stroke-width="0.9362" stroke-linecap="round" stroke-linejoin="round" x1="687.09" y1="467.233" x2="676.914" y2="467.233" />

            <line fill="none" stroke="#FFFFFF" stroke-width="0.9362" stroke-linecap="round" stroke-linejoin="round" x1="687.09" y1="489.703" x2="687.09" y2="467.233" />

            <line fill="none" stroke="#FFFFFF" stroke-width="0.9362" stroke-linecap="round" stroke-linejoin="round" x1="676.914" y1="422.364" x2="654.468" y2="422.364" />
            <g>
              <path fill="#FFFFFF" d="M658.534,440.157c-0.366,0.193-0.824,0.289-1.376,0.289c-0.711,0-1.278-0.227-1.705-0.677            c-0.425-0.453-0.637-1.05-0.637-1.795c0-0.797,0.238-1.441,0.718-1.929c0.479-0.485,1.086-0.729,1.824-0.729            c0.474,0,0.865,0.066,1.176,0.2v0.671c-0.356-0.195-0.746-0.294-1.17-0.294c-0.553,0-1.004,0.184-1.352,0.553            c-0.35,0.367-0.522,0.865-0.522,1.491c0,0.594,0.161,1.065,0.487,1.414c0.323,0.35,0.749,0.524,1.274,0.524            c0.49,0,0.918-0.111,1.282-0.333V440.157z" />
              <path fill="#FFFFFF" d="M661.272,438.639h-1.887v-0.484h1.887V438.639z" />
              <path fill="#FFFFFF" d="M662.292,439.601c0.334,0.219,0.68,0.326,1.041,0.326c0.342,0,0.619-0.095,0.829-0.285            c0.208-0.193,0.313-0.446,0.313-0.763c0-0.318-0.105-0.565-0.318-0.741c-0.213-0.175-0.521-0.262-0.925-0.262            c-0.194,0-0.457,0.016-0.786,0.046v-2.523h2.442v0.557h-1.857v1.401c0.185-0.011,0.325-0.015,0.419-0.015            c0.524,0,0.932,0.132,1.225,0.397c0.292,0.264,0.439,0.629,0.439,1.096c0,0.48-0.157,0.868-0.472,1.166            c-0.315,0.297-0.749,0.445-1.302,0.445c-0.462,0-0.813-0.069-1.048-0.205V439.601z" />
              <path fill="#FFFFFF" d="M668.933,440.364h-3.019v-0.545l1.441-1.44c0.396-0.398,0.664-0.711,0.799-0.943            c0.133-0.232,0.201-0.471,0.201-0.72c0-0.282-0.079-0.497-0.238-0.648c-0.158-0.152-0.386-0.225-0.685-0.225            c-0.442,0-0.863,0.188-1.267,0.562v-0.636c0.393-0.303,0.847-0.452,1.366-0.452c0.446,0,0.798,0.121,1.057,0.361            c0.26,0.243,0.388,0.566,0.388,0.975c0,0.307-0.081,0.61-0.248,0.904c-0.165,0.296-0.479,0.672-0.94,1.131l-1.131,1.105            v0.012h2.275V440.364z" />
            </g>
            <g>
              <path fill="#FFFFFF" d="M658.534,450.96c-0.366,0.191-0.824,0.288-1.376,0.288c-0.711,0-1.278-0.227-1.705-0.678            c-0.425-0.453-0.637-1.05-0.637-1.794c0-0.798,0.238-1.441,0.718-1.928c0.479-0.487,1.086-0.731,1.824-0.731            c0.474,0,0.865,0.067,1.176,0.202v0.67c-0.356-0.197-0.746-0.295-1.17-0.295c-0.553,0-1.004,0.184-1.352,0.553            c-0.35,0.368-0.522,0.865-0.522,1.491c0,0.594,0.161,1.065,0.487,1.415c0.323,0.351,0.749,0.523,1.274,0.523            c0.49,0,0.918-0.109,1.282-0.332V450.96z" />
              <path fill="#FFFFFF" d="M661.272,449.441h-1.887v-0.485h1.887V449.441z" />
              <path fill="#FFFFFF" d="M662.292,450.401c0.334,0.219,0.68,0.326,1.041,0.326c0.342,0,0.619-0.094,0.829-0.285            c0.208-0.191,0.313-0.445,0.313-0.761c0-0.319-0.105-0.566-0.318-0.741c-0.213-0.176-0.521-0.263-0.925-0.263            c-0.194,0-0.457,0.015-0.786,0.045V446.2h2.442v0.556h-1.857v1.404c0.185-0.013,0.325-0.018,0.419-0.018            c0.524,0,0.932,0.132,1.225,0.398c0.292,0.264,0.439,0.629,0.439,1.095c0,0.481-0.157,0.87-0.472,1.166            c-0.315,0.298-0.749,0.446-1.302,0.446c-0.462,0-0.813-0.069-1.048-0.206V450.401z" />
              <path fill="#FFFFFF" d="M666.032,450.334c0.34,0.265,0.722,0.394,1.15,0.394c0.341,0,0.613-0.082,0.812-0.25            c0.201-0.169,0.299-0.393,0.299-0.674c0-0.629-0.447-0.943-1.348-0.943h-0.413v-0.519h0.394            c0.798,0,1.195-0.294,1.195-0.885c0-0.544-0.305-0.817-0.913-0.817c-0.348,0-0.676,0.117-0.984,0.352v-0.593            c0.326-0.188,0.705-0.281,1.138-0.281c0.425,0,0.763,0.111,1.02,0.331c0.257,0.223,0.384,0.508,0.384,0.861            c0,0.649-0.331,1.066-0.992,1.253v0.013c0.359,0.038,0.643,0.165,0.851,0.38s0.313,0.483,0.313,0.803            c0,0.446-0.162,0.807-0.481,1.079c-0.323,0.274-0.751,0.411-1.286,0.411c-0.469,0-0.849-0.087-1.137-0.263V450.334z" />
            </g>
            <g>
              <path fill="#FFFFFF" d="M658.534,467.231c-0.366,0.19-0.824,0.287-1.376,0.287c-0.711,0-1.278-0.225-1.705-0.679            c-0.425-0.451-0.637-1.048-0.637-1.791c0-0.801,0.238-1.443,0.718-1.93c0.479-0.487,1.086-0.731,1.824-0.731            c0.474,0,0.865,0.067,1.176,0.202v0.67c-0.356-0.196-0.746-0.295-1.17-0.295c-0.553,0-1.004,0.185-1.352,0.553            c-0.35,0.367-0.522,0.864-0.522,1.492c0,0.595,0.161,1.064,0.487,1.414c0.323,0.35,0.749,0.525,1.274,0.525            c0.49,0,0.918-0.112,1.282-0.334V467.231z" />
              <path fill="#FFFFFF" d="M661.272,465.712h-1.887v-0.485h1.887V465.712z" />
              <path fill="#FFFFFF" d="M662.292,466.672c0.334,0.218,0.68,0.327,1.041,0.327c0.342,0,0.619-0.096,0.829-0.287            c0.208-0.191,0.313-0.443,0.313-0.761c0-0.318-0.105-0.564-0.318-0.74s-0.521-0.263-0.925-0.263            c-0.194,0-0.457,0.016-0.786,0.045v-2.521h2.442v0.553h-1.857v1.404c0.185-0.011,0.325-0.018,0.419-0.018            c0.524,0,0.932,0.135,1.225,0.398c0.292,0.265,0.439,0.632,0.439,1.097c0,0.479-0.157,0.87-0.472,1.166            c-0.315,0.296-0.749,0.445-1.302,0.445c-0.462,0-0.813-0.068-1.048-0.204V466.672z" />
              <path fill="#FFFFFF" d="M669.188,466.148h-0.636v1.286h-0.608v-1.286h-2.313v-0.407l2.194-3.269h0.727v3.178h0.636            V466.148z M667.944,465.65v-2.081c0-0.146,0.005-0.315,0.014-0.507h-0.014c-0.028,0.08-0.093,0.207-0.188,0.381            l-1.478,2.207H667.944z" />
            </g>
            <g>
              <path fill="#FFFFFF" d="M658.534,478.032c-0.366,0.19-0.824,0.287-1.376,0.287c-0.711,0-1.278-0.226-1.705-0.677            c-0.425-0.453-0.637-1.05-0.637-1.793c0-0.8,0.238-1.442,0.718-1.93c0.479-0.487,1.086-0.729,1.824-0.729            c0.474,0,0.865,0.066,1.176,0.201v0.67c-0.356-0.195-0.746-0.295-1.17-0.295c-0.553,0-1.004,0.184-1.352,0.553            c-0.35,0.369-0.522,0.865-0.522,1.491c0,0.595,0.161,1.066,0.487,1.417c0.323,0.347,0.749,0.522,1.274,0.522            c0.49,0,0.918-0.112,1.282-0.334V478.032z" />
              <path fill="#FFFFFF" d="M661.272,476.513h-1.887v-0.482h1.887V476.513z" />
              <path fill="#FFFFFF" d="M662.292,477.474c0.334,0.218,0.68,0.328,1.041,0.328c0.342,0,0.619-0.097,0.829-0.288            c0.208-0.192,0.313-0.443,0.313-0.761c0-0.316-0.105-0.564-0.318-0.739s-0.521-0.262-0.925-0.262            c-0.194,0-0.457,0.013-0.786,0.043v-2.523h2.442v0.556h-1.857v1.404c0.185-0.011,0.325-0.017,0.419-0.017            c0.524,0,0.932,0.133,1.225,0.396c0.292,0.266,0.439,0.632,0.439,1.097c0,0.48-0.157,0.87-0.472,1.166            c-0.315,0.298-0.749,0.445-1.302,0.445c-0.462,0-0.813-0.068-1.048-0.204V477.474z" />
              <path fill="#FFFFFF" d="M666.141,477.474c0.333,0.218,0.682,0.328,1.042,0.328c0.341,0,0.618-0.097,0.826-0.288            c0.209-0.192,0.315-0.443,0.315-0.761c0-0.316-0.106-0.564-0.319-0.739s-0.521-0.262-0.925-0.262            c-0.195,0-0.456,0.013-0.785,0.043v-2.523h2.44v0.556h-1.857v1.404c0.185-0.011,0.325-0.017,0.421-0.017            c0.521,0,0.932,0.133,1.223,0.396c0.293,0.266,0.439,0.632,0.439,1.097c0,0.48-0.156,0.87-0.472,1.166            c-0.313,0.298-0.747,0.445-1.301,0.445c-0.462,0-0.813-0.068-1.048-0.204V477.474z" />
            </g>
            <g>
              <path fill="#FFFFFF" d="M679.536,478.92c-0.193-0.365-0.29-0.824-0.29-1.376c0-0.71,0.227-1.278,0.679-1.704            c0.451-0.426,1.049-0.636,1.793-0.636c0.799,0,1.44,0.238,1.928,0.716c0.487,0.479,0.732,1.087,0.732,1.824            c0,0.474-0.068,0.866-0.204,1.176h-0.669c0.196-0.354,0.297-0.744,0.297-1.17c0-0.553-0.187-1.004-0.554-1.352            c-0.368-0.35-0.866-0.522-1.492-0.522c-0.594,0-1.065,0.162-1.415,0.487c-0.349,0.324-0.523,0.749-0.523,1.274            c0,0.492,0.111,0.919,0.332,1.282H679.536z" />
              <path fill="#FFFFFF" d="M681.054,481.659v-1.887h0.484v1.887H681.054z" />
              <path fill="#FFFFFF" d="M680.093,482.681c-0.219,0.331-0.326,0.68-0.326,1.039c0,0.342,0.096,0.618,0.286,0.828            c0.191,0.209,0.444,0.313,0.761,0.313c0.318,0,0.565-0.106,0.74-0.319c0.176-0.212,0.263-0.521,0.263-0.924            c0-0.194-0.013-0.456-0.045-0.785h2.522v2.442h-0.554v-1.859h-1.403c0.011,0.187,0.016,0.326,0.016,0.42            c0,0.523-0.133,0.931-0.398,1.225c-0.264,0.292-0.629,0.438-1.097,0.438c-0.479,0-0.867-0.157-1.166-0.471            c-0.295-0.314-0.445-0.749-0.445-1.301c0-0.464,0.069-0.813,0.204-1.047H680.093z" />
              <path fill="#FFFFFF" d="M683.656,489.224c0.134-0.258,0.198-0.53,0.198-0.813c0-0.429-0.188-0.773-0.56-1.034            c-0.374-0.26-0.885-0.393-1.531-0.397v0.017c0.453,0.235,0.681,0.61,0.681,1.125c0,0.43-0.141,0.771-0.421,1.027            c-0.278,0.258-0.65,0.386-1.112,0.386c-0.486,0-0.886-0.147-1.195-0.444c-0.313-0.296-0.47-0.674-0.47-1.134            c0-0.504,0.197-0.899,0.592-1.186c0.395-0.288,0.953-0.431,1.678-0.431c0.876,0,1.573,0.188,2.089,0.565            c0.514,0.377,0.773,0.871,0.773,1.488c0,0.354-0.049,0.628-0.145,0.83H683.656z M680.954,487.019            c-0.326,0-0.604,0.087-0.84,0.26c-0.23,0.175-0.348,0.406-0.348,0.695c0,0.273,0.099,0.495,0.301,0.667            c0.201,0.169,0.46,0.256,0.776,0.256c0.342,0,0.606-0.081,0.798-0.243c0.188-0.162,0.284-0.39,0.284-0.687            c0-0.282-0.096-0.511-0.288-0.687C681.445,487.105,681.217,487.019,680.954,487.019z" />
            </g>
          </g>
        </g>
      </g>
    </g>
    <g>
      <rect x="677.341" y="471.886" fill="#FBC600" width="8.443" height="0.452" />
      <rect x="671.826" y="471.515" fill="#FBC600" width="0.452" height="8.442" />
      <rect x="671.826" y="460.701" fill="#FBC600" width="0.452" height="8.444" />
      <rect x="671.826" y="444.424" fill="#FBC600" width="0.452" height="8.444" />
      <rect x="671.826" y="433.613" fill="#FBC600" width="0.452" height="8.442" />
      <rect x="671.826" y="422.802" fill="#FBC600" width="0.452" height="8.444" />
      <rect x="671.826" y="465.773" fill="#8DC21F" width="0.452" height="1.698" />
      <rect x="671.826" y="462.371" fill="#8DC21F" width="0.452" height="1.726" />
      <rect x="671.826" y="476.583" fill="#8DC21F" width="0.452" height="1.7" />
      <rect x="671.826" y="446.09" fill="#8DC21F" width="0.452" height="1.731" />
      <rect x="671.826" y="449.494" fill="#8DC21F" width="0.452" height="1.701" />
      <rect x="671.826" y="435.281" fill="#8DC21F" width="0.452" height="1.728" />
      <rect x="671.826" y="438.683" fill="#8DC21F" width="0.452" height="1.7" />
      <rect x="671.826" y="427.869" fill="#8DC21F" width="0.452" height="1.704" />
      <rect x="671.826" y="424.47" fill="#8DC21F" width="0.452" height="1.727" />
      <rect x="679.009" y="471.886" fill="#8DC21F" width="1.729" height="0.452" />
      <rect x="682.41" y="471.886" fill="#8DC21F" width="1.7" height="0.452" />
      <rect x="671.826" y="473.181" fill="#8DC21F" width="0.452" height="1.729" />
    </g>
</svg>
