<?xml version="1.0" encoding="utf-8"?>
<!-- Generator: Adobe Illustrator 15.0.0, SVG Export Plug-In . SVG Version: 6.00 Build 0)  -->
<!DOCTYPE svg PUBLIC "-//W3C//DTD SVG 1.1//EN" "http://www.w3.org/Graphics/SVG/1.1/DTD/svg11.dtd">
<svg version="1.1" xmlns="http://www.w3.org/2000/svg" xmlns:xlink="http://www.w3.org/1999/xlink" x="0px" y="0px"
	 width="841.89px" height="595.28px" viewBox="0 0 841.89 595.28" enable-background="new 0 0 841.89 595.28" xml:space="preserve">
<g id="背景_x5F_复制">
	<path fill="#B5B5B6" d="M52.647,286V54.47c0-7.072,5.586-12.804,12.476-12.804h723.644c6.891,0,12.477,5.732,12.477,12.804v231.863
		"/>
	<polyline fill="#B3B3B3" points="786.944,286.333 688.667,286.333 688.667,51 312.333,51 312.333,286.333 218.946,286.333 
		218.946,51 160.333,51 160.333,286.333 66.946,286.333 	"/>
	<path fill="#C1DD98" d="M774.944,51h-86.277v235.333h98.277V63.315C786.944,56.514,781.572,51,774.944,51z"/>
	<path fill="#C1DD98" d="M160.333,51h-5.666H78.945c-6.627,0-12,5.513-12,12.314v223.018h93.387V51z"/>
	<rect x="215.333" y="51" fill="#F39800" width="104.333" height="235.333"/>
	<rect x="374.333" y="51" fill="#F39800" width="104.333" height="235.333"/>
	<rect x="529.667" y="51" fill="#F39800" width="104.333" height="235.333"/>
</g>
<g id="图层_5">
	<rect x="66.946" y="97.999" fill="#C9CACA" width="719.999" height="12.667"/>
	<rect x="66.946" y="154.667" fill="#C9CACA" width="719.999" height="12.667"/>
	<rect x="66.946" y="219.667" fill="#C9CACA" width="719.999" height="12.667"/>
</g>
</svg>
