<?xml version="1.0" encoding="utf-8"?>
<!-- Generator: Adobe Illustrator 15.0.0, SVG Export Plug-In . SVG Version: 6.00 Build 0)  -->
<!DOCTYPE svg PUBLIC "-//W3C//DTD SVG 1.1//EN" "http://www.w3.org/Graphics/SVG/1.1/DTD/svg11.dtd">
<svg version="1.1" xmlns="http://www.w3.org/2000/svg" xmlns:xlink="http://www.w3.org/1999/xlink" x="0px" y="0px"
	 width="841.89px" height="595.28px" viewBox="0 0 841.89 595.28" enable-background="new 0 0 841.89 595.28" xml:space="preserve">
<g id="车库">
	<g id="A1">
		<text transform="matrix(1 0 0 1 96.998 87.332)" font-family="'MicrosoftYaHei'" font-size="24">A1</text>
	</g>
	<g id="A2">
		<text transform="matrix(1 0 0 1 96.998 140.665)" font-family="'MicrosoftYaHei'" font-size="24">A2</text>
	</g>
	<g id="A3">
		<text transform="matrix(1 0 0 1 96.998 201.9985)" font-family="'MicrosoftYaHei'" font-size="24">A3</text>
	</g>
	<g id="A4">
		<text transform="matrix(1 0 0 1 96.998 267.9985)" font-family="'MicrosoftYaHei'" font-size="24">A4</text>
	</g>
	<g id="B1">
		<text transform="matrix(1 0 0 1 250.998 87.332)" font-family="'MicrosoftYaHei'" font-size="24">B1</text>
	</g>
	<g id="B2">
		<text transform="matrix(1 0 0 1 250.998 140.3325)" font-family="'MicrosoftYaHei'" font-size="24">B2</text>
	</g>
	<g id="B3">
		<text transform="matrix(1 0 0 1 250.998 200.9985)" font-family="'MicrosoftYaHei'" font-size="24">B3</text>
	</g>
	<g id="B4">
		<text transform="matrix(1 0 0 1 250.998 267.9985)" font-family="'MicrosoftYaHei'" font-size="24">B4</text>
	</g>
	<g id="C1">
		<text transform="matrix(1 0 0 1 410.3315 87.332)" font-family="'MicrosoftYaHei'" font-size="24">C1</text>
	</g>
	<g id="C2">
		<text transform="matrix(1 0 0 1 410.3315 139.3325)" font-family="'MicrosoftYaHei'" font-size="24">C2</text>
	</g>
	<g id="C3">
		<text transform="matrix(1 0 0 1 410.3315 200.9995)" font-family="'MicrosoftYaHei'" font-size="24">C3</text>
	</g>
	<g id="C4">
		<text transform="matrix(1 0 0 1 410.3315 267.3325)" font-family="'MicrosoftYaHei'" font-size="24">C4</text>
	</g>
	<g id="D1">
		<text transform="matrix(1 0 0 1 567.6641 87.332)" font-family="'MicrosoftYaHei'" font-size="24">D1</text>
	</g>
	<g id="D2">
		<text transform="matrix(1 0 0 1 567.6641 139.3325)" font-family="'MicrosoftYaHei'" font-size="24">D2</text>
	</g>
	<g id="D3">
		<text transform="matrix(1 0 0 1 567.6641 200.9985)" font-family="'MicrosoftYaHei'" font-size="24">D3</text>
	</g>
	<g id="D4">
		<text transform="matrix(1 0 0 1 567.6641 267.3325)" font-family="'MicrosoftYaHei'" font-size="24">D4</text>
	</g>
	<g id="E1">
		<text transform="matrix(1 0 0 1 723.6641 87.332)" font-family="'MicrosoftYaHei'" font-size="24">E1</text>
	</g>
	<g id="E2">
		<text transform="matrix(1 0 0 1 723.6641 139.3325)" font-family="'MicrosoftYaHei'" font-size="24">E2</text>
	</g>
	<g id="E3">
		<text transform="matrix(1 0 0 1 723.6641 199.9985)" font-family="'MicrosoftYaHei'" font-size="24">E3</text>
	</g>
	<g id="E4">
		<text transform="matrix(1 0 0 1 723.6641 267.3325)" font-family="'MicrosoftYaHei'" font-size="24">E4</text>
	</g>
	<g id="escalater_x5F_2">
		<rect x="327.912" y="205.788" fill="#D71718" width="23.594" height="23.595"/>
		<g>
			<path fill-rule="evenodd" clip-rule="evenodd" fill="#FFFFFF" d="M338.622,210.404c0.55,0,0.998,0.445,0.998,0.996
				c0,0.55-0.448,0.996-0.998,0.996c-0.55,0-1.003-0.446-1.003-0.996C337.619,210.849,338.071,210.404,338.622,210.404
				L338.622,210.404z M337.565,217.046l-4.063,3.252c0,0-0.621-0.082-1.261,0.153c-0.383,0.139-0.769,0.418-1.028,0.813
				c-0.785,1.193-0.28,3.2,1.265,3.456c0.521,0.088,2.189,0.013,2.189,0.013l11.125-8.831l1.049,0.008c0,0,1.303-0.3,1.59-1.415
				c0.286-1.107,0.036-1.979-0.449-2.454c-0.482-0.487-1.064-0.646-1.064-0.646h-2.432l-4.872,3.955l-0.04-1.741
				c0,0,0-0.896-0.887-0.915c-0.888-0.021-1.093,0.616-1.093,0.879C337.595,213.828,337.565,217.046,337.565,217.046
				L337.565,217.046z M333.7,221.007c-0.632-0.016-1.159-0.048-1.5,0.18c-1.209,0.817-0.685,2.911,0.661,2.891l1.586-0.027
				l11.085-8.896c0.007-0.004,1.131,0.03,1.393-0.023c0.263-0.057,0.967-0.559,0.925-1.596c-0.032-1.031-0.999-1.427-0.999-1.427
				l-2.134,0.014L333.7,221.007z"/>
			<path fill="#FFFFFF" d="M332.063,207.658h15.271c1.261,0,2.293,1.028,2.293,2.29v15.276c0,1.253-1.032,2.289-2.293,2.289h-15.271
				c-1.261,0-2.289-1.036-2.289-2.289v-15.276C329.774,208.686,330.802,207.658,332.063,207.658L332.063,207.658z M332.063,208.417
				c-0.839,0-1.526,0.688-1.526,1.53v15.276c0,0.836,0.687,1.524,1.526,1.524h15.271c0.846,0,1.532-0.688,1.532-1.524v-15.276
				c0-0.842-0.686-1.53-1.532-1.53H332.063z"/>
		</g>
	</g>
	<g id="escalater_x5F_1">
		<rect x="329.72" y="117.283" fill="#D71718" width="23.594" height="23.595"/>
		<g>
			<path fill-rule="evenodd" clip-rule="evenodd" fill="#FFFFFF" d="M340.429,121.899c0.551,0,0.998,0.445,0.998,0.996
				c0,0.55-0.447,0.996-0.998,0.996c-0.55,0-1.002-0.446-1.002-0.996C339.427,122.345,339.879,121.899,340.429,121.899
				L340.429,121.899z M339.373,128.542l-4.063,3.252c0,0-0.621-0.082-1.261,0.153c-0.383,0.139-0.769,0.418-1.028,0.813
				c-0.785,1.193-0.279,3.2,1.266,3.456c0.52,0.088,2.188,0.013,2.188,0.013l11.124-8.831l1.05,0.008c0,0,1.303-0.3,1.591-1.415
				c0.285-1.107,0.035-1.979-0.449-2.454c-0.482-0.487-1.064-0.646-1.064-0.646h-2.432l-4.871,3.955l-0.039-1.741
				c0,0,0-0.896-0.888-0.915c-0.888-0.021-1.093,0.616-1.093,0.879C339.404,125.323,339.373,128.542,339.373,128.542
				L339.373,128.542z M335.507,132.503c-0.632-0.016-1.158-0.048-1.5,0.18c-1.209,0.817-0.684,2.911,0.662,2.891l1.586-0.027
				l11.085-8.896c0.007-0.004,1.132,0.03,1.393-0.023c0.263-0.057,0.967-0.559,0.925-1.596c-0.031-1.031-0.998-1.427-0.998-1.427
				l-2.135,0.014L335.507,132.503z"/>
			<path fill="#FFFFFF" d="M333.871,119.153h15.271c1.262,0,2.293,1.028,2.293,2.29v15.276c0,1.253-1.031,2.289-2.293,2.289h-15.271
				c-1.26,0-2.289-1.036-2.289-2.289v-15.276C331.582,120.182,332.611,119.153,333.871,119.153L333.871,119.153z M333.871,119.913
				c-0.839,0-1.525,0.688-1.525,1.53v15.276c0,0.836,0.687,1.524,1.525,1.524h15.271c0.846,0,1.532-0.688,1.532-1.524v-15.276
				c0-0.842-0.687-1.53-1.532-1.53H333.871z"/>
		</g>
	</g>
</g>
<g id="图层_2">
</g>
</svg>
