<!DOCTYPE svg PUBLIC "-//W3C//DTD SVG 1.1//EN" "http://www.w3.org/Graphics/SVG/1.1/DTD/svg11.dtd">
<svg xmlns="http://www.w3.org/2000/svg" xmlns:xlink="http://www.w3.org/1999/xlink" version="1.1" id="B1-MAP" x="0px" y="0px" width="1028px" height="680px" viewBox="0 0 1028 680" enable-background="new 0 0 1028 680" xml:space="preserve" xmlns:xml="http://www.w3.org/XML/1998/namespace">
<g>
	<path fill="#AACC03" d="M617.781,221.445c-2.645,0-5.286,0-7.93,0v50.028c2.644,0,5.285,0,7.93,0c1.638,0,2.317-0.745,2.317-2.544   c0-14.979,0-29.96,0-44.94C620.1,222.19,619.419,221.445,617.781,221.445z"/>
	<polygon fill="#C60019" points="607.881,166.042 574.6,166.042 574.6,153.746 535.573,153.909 534.745,154.57 480.666,154.559    480.666,129.37 447.042,129.37 446.75,190.206 335.063,190.206 335.063,197.729 335.063,244.249 357.482,266.671 360.5,276.933    360.5,292.192 362.194,300.674 362.194,393.098 512.277,393.098 513.973,393.098 513.973,318.666 540.681,318.666 607.881,318.666     "/>
	<path fill="#C8B674" d="M542.481,34.298c-31.842,0-57.662,25.819-57.662,57.659c0,31.839,25.819,57.661,57.662,57.661   c31.838,0,57.657-25.822,57.657-57.661C600.139,60.117,574.319,34.298,542.481,34.298z M542.481,115.528   c-13.019,0-23.573-10.555-23.573-23.57c0-13.017,10.556-23.571,23.573-23.571c13.014,0,23.569,10.556,23.569,23.571   C566.051,104.974,555.494,115.528,542.481,115.528z"/>
	<path fill="#C8B674" d="M524.7,107.765l-25.458,22.671c6.251,7.059,14.205,12.571,23.218,15.897   c3.666,1.203,13.726,7.463,13.726,11.441v7.335h38.023v-24.773l-18.773-28.458C545.254,118.162,532.621,116.79,524.7,107.765"/>
	<path fill="#7C6500" d="M555.436,111.61l18.773,28.458c6.849-4.533,12.674-10.492,17.053-17.452l-28.929-18.04   C560.554,107.376,558.2,109.777,555.436,111.61"/>
	<polygon fill="#F6AA00" points="281.432,314.663 327.587,314.687 327.642,296.011 349.652,296.011 358.555,292.192    361.348,300.674 361.348,393.944 513.973,393.944 513.973,524.1 512.277,524.948 512.277,563.104 438.083,562.256 438.083,557.806    277.291,557.806 277.291,604.652 223.454,605.074 235.517,544.437 235.517,408.12 242.141,401.496 242.739,402.098    245.736,399.099 243.938,397.301 250.833,390.406 232.545,372.118 254.429,350.23 222.354,318.156 257.428,281.884    281.432,281.884  "/>
	<polygon fill="#AACC03" points="608.729,166.042 608.729,319.515 514.821,319.515 514.821,524.1 516.941,525.372 706.645,525.372    722.15,521.558 749.058,510.866 749.058,166.042  "/>
	<path fill="#716C5E" d="M535.707,186.051c0,1.979,0,3.96,0,5.94c0,1.796-0.745,2.538-2.541,2.538c-10.964,0-21.927,0-32.891,0   c-1.267,0-1.917-0.445-2.372-1.627c-5.146-13.308-10.287-26.614-15.432-39.922c0.009-7.121,0.021-14.242,0.029-21.363   c-10.532,0-21.063,0-31.596,0c0,5.709,0,11.414,0,17.125c5.452,14.107,10.905,28.218,16.358,42.326   c0.645,1.666-0.586,3.461-2.373,3.461c-23.881,0-47.76,0-71.642,0c-1.799,0-2.544,0.745-2.544,2.543c0,26.006,0,52.011,0,78.017   c0,1.795-0.743,2.539-2.539,2.539c-0.001,0-0.003,0-0.005,0c-7.49,0-14.98,0-22.47,0c0,5.731,0,11.465,0,17.194   c7.491,0,14.983,0,22.475,0c1.796,0,2.539,0.744,2.539,2.539c0,0.343,0,0.686,0,1.025c0,0.929-0.209,1.719-0.669,2.523   c-7.238,12.664-14.476,25.329-21.712,37.995c-0.528,0.923-1.143,1.282-2.209,1.282c-23.742,0-47.484,0-71.227,0   c-1.799,0-2.545,0.745-2.545,2.543c0,59.356,0,118.71,0,178.068c143.874,0,287.745,0,431.617,0   c3.528-1.403,7.057-2.805,10.586-4.206c0-8.916,0-17.83,0-26.744c-12.438,0-24.874,0.002-37.311,0.003   c0,1.798-0.744,2.54-2.539,2.54c-12.723,0-25.44,0-38.161,0c-2.813,0-5.088-2.279-5.088-5.088c0-61.412,0-122.825,0-184.239   c0-1.798,0.744-2.544,2.544-2.544c14.696,0,29.396,0,44.092,0c12.153,0,24.308,0,36.463,0c0-9.893,0-19.785,0-29.678   c-29.461,0-58.921,0-88.383,0c-1.797,0-2.542-0.744-2.542-2.543c0-14.98,0-29.961,0-44.941c0-1.799,0.745-2.543,2.542-2.543   c29.462,0,58.922,0,88.383,0c0-8.764,0-17.523,0-26.287c-50.736,0-101.475,0-152.21,0c-1.797,0-2.54-0.742-2.54-2.539   c0-8.905,0-17.811,0-26.715c-14.698,0-29.396,0-44.092,0C535.707,172.202,535.707,179.126,535.707,186.051z"/>
	<rect x="696.579" y="301.275" opacity="0.5" fill="#716C5E" enable-background="new    " width="36.172" height="189.329"/>
	<path fill="#F6AA00" d="M620.416,421.685c-57.101,0-114.201,0-171.304,0c0,7.992,0,15.986,0,23.979c57.103,0,114.203,0,171.304,0   c2.81,0,5.088,2.278,5.088,5.088c0,13.284,0,26.569,0,39.854c0,2.809-2.278,5.088-5.088,5.088c-100.453,0-200.905,0-301.357,0   c-2.811,0-5.09-2.279-5.09-5.088c0-13.428,0-26.852,0-40.278c0-2.81,2.279-5.088,5.09-5.088c13.39,0,26.78,0,40.173,0   c0-8.761,0-17.523,0-26.286c-13.393,0-26.783,0-40.173,0c-2.811,0-5.09-2.276-5.09-5.086c0-13.566,0-27.135,0-40.702   c0-2.809,2.279-5.088,5.09-5.088c100.452,0,200.904,0,301.357,0c2.81,0,5.088,2.279,5.088,5.088c0,14.478,0,28.954,0,43.433   C625.504,419.406,623.226,421.685,620.416,421.685z"/>
	<path fill="#C60019" d="M512.277,393.098h1.694v-25.021c-50.593,0-101.186,0-151.778,0v25.021H512.277z"/>
	<path fill="#AACC03" d="M620.416,368.075c-35.198,0-70.396,0-105.595,0v53.608c35.196,0,70.396,0,105.595,0   c2.81,0,5.088-2.277,5.088-5.089c0-14.479,0-28.955,0-43.433C625.504,370.355,623.226,368.075,620.416,368.075z"/>
	<path fill="#AACC03" d="M620.416,368.075c-35.198,0-70.396,0-105.595,0v53.608c35.196,0,70.396,0,105.595,0   c2.81,0,5.088-2.277,5.088-5.089c0-14.479,0-28.955,0-43.433C625.504,370.355,623.226,368.075,620.416,368.075z"/>
	<path fill="#C60019" d="M617.43,293.646c-64.117,0-128.237,0-192.354,0c-2.133,0-3.36,0.713-4.419,2.563   c-8.479,14.835-16.954,29.672-25.433,44.507c-0.969,1.695,0.257,3.807,2.209,3.807c74.181,0,148.361,0,222.542,0   c1.8,0,2.544-0.746,2.544-2.544c0-14.415,0-28.83,0-43.245C622.519,295.922,620.239,293.646,617.43,293.646z"/>
	<path fill="#AACC03" d="M617.43,293.646c-2.9,0-5.802,0-8.702,0v25.869h-93.905v25.008c35.052,0,70.102,0,105.152,0   c1.8,0,2.544-0.746,2.544-2.544c0-14.415,0-28.83,0-43.245C622.519,295.922,620.239,293.646,617.43,293.646z"/>
	<path fill="#C60019" d="M500.233,221.57c-27.411,0-54.823,0-82.237,0c-2.644,0-4.787,2.278-4.787,5.088c0,13.282,0,26.569,0,39.854   c0,2.811,2.143,5.088,4.787,5.088c27.414,0,54.825,0,82.237,0c7.579,0,15.155,0,22.732,0c27.455,0,54.91,0,82.363,0   c1.69,0,2.395-0.745,2.395-2.544c0-14.979,0-29.96,0-44.939c0-1.8-0.702-2.545-2.395-2.545c-27.453,0-54.908,0-82.363,0   C515.39,221.57,507.813,221.57,500.233,221.57z"/>
	<g opacity="0.2">
		<polyline fill="#231815" opacity="0.2" points="693.32,402.605 654.314,402.605 654.314,415.747 681.505,415.747 681.45,459.843     694.171,459.843 694.171,402.641 693.32,402.641   "/>
		<rect x="654.314" y="364.658" fill="#231815" opacity="0.2" width="39.855" height="31.799"/>
		<rect x="654.314" y="307.212" fill="#231815"  opacity="0.2" width="39.855" height="19.504"/>
		<rect x="512.284" y="383.763" fill="#231815" opacity="0.2" width="44.093" height="33.919"/>
		<polygon fill="#231815" opacity="0.2" points="359.231,454.354 359.231,408.586 364.532,408.586 421.979,408.586 430.458,408.586     430.458,408.142 438.919,408.142 449.112,418.335 449.112,449.267 450.387,449.267 450.387,454.354   "/>
		<rect x="478.831" y="227.039" fill="#231815" opacity="0.2" width="31.971" height="39.896"/>
		<rect x="654.314" y="328.834" fill="#231815" opacity="0.2" width="39.855" height="25.648"/>
		<rect x="524.792" y="227.081" fill="#231815" opacity="0.2" width="36.674" height="39.854"/>
	</g>
	<g>
		<g>
			<polygon fill="#595757" points="212.346,613.786 227.696,541.309 227.696,403.494 240.182,391.01 221.854,372.686      243.927,350.611 210.886,317.569 253.735,274.721 273.578,274.721 273.578,260.54 327.59,260.54 327.59,179.458 438.892,179.458      438.892,23.181 529.989,23.181 529.989,23.181 529.989,29.424 445.134,29.424 445.134,185.701 333.833,185.701 333.833,266.783      279.821,266.783 279.821,280.964 256.323,280.963 219.714,317.569 252.755,350.611 230.684,372.686 249.011,391.01      233.938,406.082 233.938,541.962 220.05,607.541 280.144,607.541 280.144,561.524 436.572,561.524 436.572,567.588      513.45,567.588 513.45,527.634 709.886,527.634 724.193,527.634 724.193,533.878 709.886,533.878 519.693,533.878      519.693,573.831 430.329,573.831 430.329,567.766 286.386,567.766 286.386,613.786    "/>
		</g>
		<path fill="#595757" d="M757.412,154.132H587.428v-6.556c12.561-10.59,20.902-24.179,24.158-39.385    c3.292-15.39,1.183-31.883-5.939-46.44c-7.234-14.791-19.183-26.648-33.635-33.395c-8.34-3.89-17.174-6.017-26.389-6.373h-5.645    c-2.146,0.082-9.989,1.196-9.989,1.196v6.243c13.711-2.294,27.649-1.143,39.479,4.378c13.214,6.166,24.146,17.029,30.781,30.588    c6.533,13.357,8.473,28.467,5.462,42.544c-3.062,14.298-11.078,27.059-23.183,36.901l-1.11,0.9v1.43v10.971v3.004h3.005h169.983    v355.149l-30.215,12.345v6.244l34.326-13.762l1.896-0.752v-2.039V157.135v-3.004L757.412,154.132L757.412,154.132z"/>
	</g>
	<rect x="649.057" y="203.337" fill="#71C7D5" width="46.395" height="10.833"/>
	<text transform="matrix(1 0 0 1 651.126 211.2327)" fill="#040000" font-family="'SimHei'" font-size="6.9289">通道C-01</text>
	<rect x="520.577" y="203.337" fill="#71C7D5" width="46.394" height="10.833"/>
	<text transform="matrix(1 0 0 1 522.6465 211.2327)" fill="#040000" font-family="'SimHei'" font-size="6.9289">通道A-01</text>
	<g>
		<rect x="293.344" y="418.243" fill="#71C7D5" width="10.832" height="46.396"/>
		<text transform="matrix(0 1 -1 0 296.2793 420.3147)" fill="#040000" font-family="'SimHei'" font-size="6.9289">通道B-05</text>
	</g>
	<g>
		<rect x="392.384" y="257.342" fill="#71C7D5" width="10.833" height="46.394"/>
		<text transform="matrix(0 1.0014 -1 0 395.3203 259.408)" fill="#040000" font-family="'SimHei'" font-size="6.9289">通道B-04</text>
	</g>
	<g>
		<rect x="640.579" y="384.644" fill="#71C7D5" width="10.832" height="46.393"/>
		<text transform="matrix(0 1 -1 0 643.5156 386.7092)" fill="#040000" font-family="'SimHei'" font-size="6.9289">通道C-06</text>
	</g>
	<g id="MTEXT_29_">
		<rect x="520.577" y="281.126" fill="#71C7D5" width="46.394" height="10.831"/>
		<text transform="matrix(1 0 0 1 522.6465 289.0188)" fill="#040000" font-family="'SimHei'" font-size="6.9289">通道A-02</text>
	</g>
	<g id="MTEXT_28_">
		<rect x="520.577" y="355.74" fill="#71C7D5" width="46.394" height="10.835"/>
		<text transform="matrix(1 0 0 1 522.6465 363.636)" fill="#040000" font-family="'SimHei'" font-size="6.9289">通道C-03</text>
	</g>
	<g id="MTEXT_27_">
		<rect x="429.929" y="355.74" fill="#71C7D5" width="46.395" height="10.835"/>
		<text transform="matrix(1 0 0 1 431.9971 363.636)" fill="#040000" font-family="'SimHei'" font-size="6.9289">通道A-03</text>
	</g>
	<g id="MTEXT_26_">
		<rect x="316.862" y="355.74" fill="#71C7D5" width="46.394" height="10.835"/>
		<text transform="matrix(1 0 0 1 318.9307 363.636)" fill="#040000" font-family="'SimHei'" font-size="6.9289">通道B-01</text>
	</g>
	<g id="MTEXT_25_">
		<rect x="316.862" y="432.739" fill="#71C7D5" width="46.394" height="10.833"/>
		<text transform="matrix(1 0 0 1 318.9307 440.6331)" fill="#040000" font-family="'SimHei'" font-size="6.9289">通道B-02</text>
	</g>
	<g id="MTEXT_24_">
		<rect x="449.837" y="432.739" fill="#71C7D5" width="46.396" height="10.833"/>
		<text transform="matrix(1 0 0 1 451.9072 440.6331)" fill="#040000" font-family="'SimHei'" font-size="6.9289">通道B-03</text>
	</g>
	<g id="MTEXT_23_">
		<rect x="572.189" y="432.739" fill="#71C7D5" width="46.396" height="10.833"/>
		<text transform="matrix(1 0 0 1 574.2578 440.6331)" fill="#040000" font-family="'SimHei'" font-size="6.9289">通道B-04</text>
	</g>
	<g id="MTEXT_22_">
		<rect x="316.862" y="508.079" fill="#71C7D5" width="46.394" height="10.832"/>
		<text transform="matrix(1 0 0 1 318.9307 515.9749)" fill="#040000" font-family="'SimHei'" font-size="6.9289">通道B-04</text>
	</g>
	<g id="MTEXT_21_">
		<rect x="578.318" y="507.563" fill="#71C7D5" width="46.396" height="10.831"/>
		<text transform="matrix(1 0 0 1 580.3867 515.4553)" fill="#040000" font-family="'SimHei'" font-size="6.9289">通道C-05</text>
	</g>
	<g id="MTEXT_20_">
		<rect x="648.987" y="281.126" fill="#71C7D5" width="46.463" height="10.648"/>
		<text transform="matrix(1.0186 0 0 1 651.0537 288.8909)" fill="#040000" font-family="'SimHei'" font-size="6.8126">通道C-02</text>
	</g>
	<path fill="#7C6500" d="M542.481,34.048c-9.739,0-18.915,2.415-26.962,6.678l12.945,31.592l0.131,0.339   c3.895-2.843,8.693-4.521,13.886-4.521c13.014,0,23.569,10.556,23.569,23.571c0,4.642-1.344,8.968-3.66,12.618l28.929,18.04   c5.589-8.881,8.819-19.393,8.819-30.658C600.14,59.867,574.319,34.048,542.481,34.048z"/>
	<rect x="452" y="395.06" fill="#F6AA00" width="60.875" height="26.5"/>
	<rect x="712.082" y="322.7" fill="#FFFFFF" width="0.619" height="51.843"/>
	<rect x="712.082" y="418.129" fill="#FFFFFF" width="0.619" height="51.843"/>
	<polygon fill="#FFFFFF" points="513.447,395.102 512.284,395.102 361.352,395.102 360.189,395.102 360.189,393.938    360.189,376.558 360.189,333.311 360.189,300.665 360.189,299.503 357.408,292.607 360.395,291.447 363.362,299.503    363.362,300.665 363.362,333.311 363.362,376.558 363.362,391.928 512.284,391.928 513.447,391.928 513.447,393.092    513.447,393.938  "/>
	<polygon fill="#FFFFFF" points="515.992,525.261 514.828,525.261 513.981,525.261 512.819,525.261 512.819,524.098 512.819,485.94    512.819,452.87 512.819,383.763 512.819,376.131 512.819,340.282 512.819,318.658 512.819,317.496 513.981,317.496    606.729,317.496 606.729,307.212 606.729,263.119 606.729,230.897 606.729,186.805 606.729,166.03 606.729,164.868 607.89,164.868    608.739,164.868 609.903,164.868 609.903,166.03 609.903,186.805 609.903,230.897 609.903,263.119 609.903,307.212    609.903,319.508 609.903,320.671 608.739,320.671 515.992,320.671 515.992,340.282 515.992,376.131 515.992,383.763    515.992,452.87 515.992,485.94 515.992,524.098  "/>
	<polygon fill="#FFFFFF" points="670.35,200.478 670.35,199.804 662.422,199.804 659.808,202.061 657.438,202.061 661.276,203.39    664.392,202.061 662.684,202.061 664.42,200.474  "/>
	<polygon fill="#FFFFFF" points="437.667,207.521 437.667,206.847 429.74,206.847 427.126,209.106 424.758,209.106 428.595,210.435    431.712,209.106 430.003,209.106 431.739,207.519  "/>
	<rect x="320.995" y="431.769" fill="#FFFFFF" width="12.735" height="0.619"/>
	<polygon fill="#FFFFFF" points="672.595,278.813 672.595,278.138 664.667,278.138 662.053,280.398 659.685,280.398    663.521,281.727 666.637,280.398 664.932,280.398 666.665,278.812  "/>
	<polygon fill="#FFFFFF" points="437.069,281.967 437.069,281.293 429.145,281.293 426.529,283.551 424.159,283.551    427.997,284.881 431.114,283.551 429.405,283.551 431.142,281.964  "/>
	<polygon fill="#FFFFFF" points="336.416,346.625 336.416,345.949 328.489,345.949 325.876,348.209 323.506,348.209    327.343,349.537 330.461,348.209 328.753,348.209 330.488,346.625  "/>
	<polygon fill="#FFFFFF" points="335.871,424.347 335.871,423.674 327.944,423.674 325.33,425.932 322.962,425.932 326.799,427.263    329.915,425.932 328.207,425.932 329.942,424.347  "/>
	<polygon fill="#FFFFFF" points="307.641,388.95 306.967,388.95 306.967,381.024 309.225,378.409 309.225,376.04 310.555,379.879    309.225,382.992 309.225,381.286 307.638,383.021  "/>
	<polygon fill="#FFFFFF" points="335.532,502.697 335.532,503.37 327.604,503.37 324.991,501.111 322.622,501.111 326.459,499.783    329.576,501.111 327.866,501.111 329.603,502.699  "/>
	<polygon fill="#FFFFFF" points="295.296,476.221 294.621,476.221 294.621,484.147 296.882,486.762 296.882,489.129 298.21,485.294    296.882,482.177 296.882,483.884 295.294,482.148  "/>
	<polygon fill="#FFFFFF" points="601.919,439.06 601.919,438.384 609.845,438.384 612.459,440.644 614.831,440.644 610.993,441.972    607.874,440.644 609.585,440.644 607.849,439.058  "/>
	<polygon fill="#FFFFFF" points="677.346,515.194 677.346,515.868 685.273,515.868 687.887,513.609 690.256,513.609    686.419,512.281 683.304,513.609 685.012,513.609 683.275,515.195  "/>
	<polygon fill="#FFFFFF" points="706.27,322.906 706.944,322.906 706.944,314.979 704.684,312.365 704.684,309.995 703.355,313.832    704.684,316.949 704.684,315.241 706.271,316.978  "/>
	<polygon fill="#FFFFFF" points="722.589,322.76 723.263,322.76 723.263,314.832 721.003,312.22 721.003,309.851 719.673,313.688    721.003,316.804 721.003,315.096 722.589,316.831  "/>
	<polygon fill="#FFFFFF" points="601.475,360.894 601.475,360.219 609.402,360.219 612.018,362.479 614.385,362.479    610.548,363.808 607.431,362.479 609.14,362.479 607.404,360.89  "/>
	<polygon fill="#FFFFFF" points="657.608,214.728 657.608,215.401 665.229,215.401 665.229,216.102 670.423,214.997    665.217,214.045 665.217,214.737  "/>
	<polygon fill="#FFFFFF" points="659.886,292.49 659.886,293.165 667.504,293.165 667.504,293.864 672.702,292.759 667.496,291.808    667.496,292.5  "/>
	<polygon fill="#FFFFFF" points="499.081,361.841 499.081,362.514 506.698,362.514 506.698,363.214 511.896,362.109    506.689,361.157 506.689,361.851  "/>
	<polygon fill="#FFFFFF" points="506.678,209.423 506.678,208.755 501.651,209.706 506.688,210.724 506.688,210.024    514.321,210.024 514.321,209.423 513.465,209.423 512.081,207.906 513.681,207.906 510.489,206.882 506.81,207.897    509.313,207.897 510.754,209.413  "/>
	<polygon fill="#FFFFFF" points="662.631,501.404 662.631,500.735 657.604,501.688 662.641,502.703 662.641,502.007    670.274,502.007 670.274,501.404 669.418,501.404 668.034,499.888 669.633,499.888 666.442,498.862 662.762,499.88 665.267,499.88    666.707,501.396  "/>
	<polygon fill="#FFFFFF" points="405.791,361.947 405.791,362.619 413.41,362.619 413.41,363.32 418.607,362.216 413.4,361.265    413.4,361.956  "/>
	<polygon fill="#FFFFFF" points="347.776,360.66 347.776,361.336 355.396,361.336 355.396,362.036 360.593,360.93 355.386,359.98    355.386,360.671  "/>
	<polygon fill="#FFFFFF" points="404.201,514.816 404.201,515.49 411.819,515.49 411.819,516.192 417.017,515.085 411.811,514.135    411.811,514.825  "/>
	<polygon fill="#FFFFFF" points="322.519,514.788 322.519,515.46 330.137,515.46 330.137,516.161 335.334,515.058 330.128,514.105    330.128,514.797  "/>
	<polygon fill="#FFFFFF" points="322.872,436.133 322.872,436.807 330.49,436.807 330.49,437.507 335.687,436.4 330.48,435.449    330.48,436.143  "/>
	<polygon fill="#FFFFFF" points="614.213,282.81 614.212,282.137 606.594,282.146 606.592,281.446 601.396,282.557 606.604,283.503    606.604,282.81  "/>
	<polygon fill="#FFFFFF" points="512.714,282.672 512.713,281.998 505.096,282.008 505.096,281.308 499.899,282.42 505.105,283.365    505.105,282.672  "/>
	<polygon fill="#FFFFFF" points="418.654,350.955 418.653,350.281 411.033,350.291 411.033,349.592 405.838,350.703    411.046,351.648 411.044,350.955  "/>
	<polygon fill="#FFFFFF" points="511.861,350.722 511.859,350.047 504.243,350.058 504.24,349.354 499.048,350.468 504.255,351.411    504.254,350.722  "/>
	<polygon fill="#FFFFFF" points="613.953,350.665 613.951,349.991 606.332,350.002 606.332,349.302 601.138,350.412    606.346,351.358 606.345,350.665  "/>
	<polygon fill="#FFFFFF" points="614.428,427.965 614.428,427.289 606.813,427.301 606.808,426.601 601.614,427.712    606.821,428.656 606.821,427.965  "/>
	<polygon fill="#FFFFFF" points="511.507,427.947 511.506,427.272 503.886,427.281 503.886,426.58 498.69,427.694 503.899,428.639    503.896,427.947  "/>
	<polygon fill="#FFFFFF" points="509.627,502.388 509.627,501.714 502.009,501.724 502.008,501.023 496.813,502.135 502.021,503.08    502.02,502.388  "/>
	<polygon fill="#FFFFFF" points="417.134,502.407 417.133,501.735 409.513,501.742 409.513,501.043 404.316,502.155    409.525,503.101 409.523,502.407  "/>
	<polygon fill="#FFFFFF" points="611.015,502.408 611.015,501.735 603.396,501.744 603.396,501.045 598.198,502.156    603.407,503.102 603.406,502.408  "/>
	<polygon fill="#FFFFFF" points="401.681,247.979 401.007,247.979 401.007,255.599 400.307,255.599 401.412,260.794    402.363,255.588 401.671,255.588  "/>
	<polygon fill="#FFFFFF" points="496.799,514.73 496.799,515.403 504.418,515.403 504.418,516.104 509.614,514.997 504.408,514.047    504.408,514.739  "/>
	<polygon fill="#FFFFFF" points="720.036,486.267 720.71,486.267 720.71,478.647 721.413,478.647 720.306,473.451 719.355,478.656    720.047,478.656  "/>
	<polygon fill="#FFFFFF" points="704.668,486.782 705.342,486.782 705.342,479.162 706.043,479.162 704.938,473.966    703.986,479.174 704.68,479.174  "/>
	<polygon fill="#FFFFFF" points="631.45,474.486 631.45,480.823 629.765,482.141 629.765,480.177 628.68,483.467 629.767,487.431    629.767,484.997 631.836,483.466 633.634,484.991 633.634,487.445 635.068,483.467 633.634,480.17 633.634,482.123    632.155,480.823 632.154,474.483  "/>
	<polygon fill="#FFFFFF" points="499.217,439.401 499.217,440.073 506.835,440.073 506.835,440.776 512.031,439.671 506.826,438.72    506.826,439.412  "/>
	<polygon fill="#FFFFFF" points="389.263,325.477 386.057,330.944 383.939,331.228 384.933,329.534 382.333,331.822    381.264,335.793 382.493,333.695 385.056,333.419 385.833,335.646 384.592,337.761 387.843,335.054 388.271,331.485    387.283,333.17 386.667,331.301 389.872,325.829  "/>
	<polygon fill="#FFFFFF" points="630.544,246.773 630.544,247.691 629.112,249.054 629.112,247.163 628.08,250.868 629.107,254.499    629.107,251.931 630.554,250.549 630.554,254.558 629.871,254.558 630.838,260.009 631.919,254.556 631.239,254.556    631.239,250.552 632.747,251.933 632.747,254.483 633.859,250.852 632.747,247.199 632.747,249.059 631.234,247.695    631.234,246.772  "/>
	<polygon fill="#FFFFFF" points="307.942,456.139 308.611,456.139 307.661,451.111 306.644,456.148 307.341,456.148    307.341,463.781 307.942,463.781 307.942,462.925 309.459,461.543 309.459,463.143 310.484,459.95 309.467,456.271    309.467,458.773 307.951,460.214  "/>
	<polygon fill="#FFFFFF" points="605.87,515.52 605.87,514.852 610.896,515.801 605.859,516.818 605.859,516.122 598.226,516.122    598.226,515.52 599.084,515.52 600.467,514.004 598.866,514.004 602.058,512.977 605.738,513.993 603.234,513.993 601.795,515.51     "/>
	<polygon fill="#FFFFFF" points="555.702,170.909 555.702,177.245 554.016,178.562 554.016,176.599 552.931,179.889    554.019,183.854 554.019,181.421 556.087,179.888 557.886,181.414 557.886,183.868 559.318,179.889 557.886,176.593    557.886,178.544 556.408,177.245 556.404,170.905  "/>
	<polygon fill="#FFFFFF" points="295.788,407.664 296.457,407.664 295.507,412.69 294.489,407.656 295.188,407.656 295.188,400.021    295.788,400.021 295.788,400.878 297.304,402.262 297.304,400.66 298.331,403.854 297.315,407.532 297.315,405.029 295.8,403.588     "/>
	<polygon fill="#FFFFFF" points="636.661,327.518 635.993,327.518 636.943,332.544 637.962,327.508 637.265,327.508    637.265,319.873 636.661,319.873 636.661,320.73 635.146,322.114 635.146,320.515 634.121,323.704 635.137,327.385    635.137,324.882 636.651,323.441  "/>
	<polygon fill="#FFFFFF" points="644.696,455.409 644.03,455.409 644.979,450.383 645.997,455.42 645.301,455.42 645.301,463.057    644.696,463.057 644.696,462.198 643.183,460.813 643.183,462.413 642.154,459.224 643.174,455.544 643.174,458.048    644.688,459.489  "/>
	<polygon fill="#FFFFFF" points="602.532,207.626 602.532,208.294 607.563,207.344 602.524,206.327 602.524,207.024    594.891,207.024 594.891,207.626 595.747,207.626 597.131,209.142 595.529,209.142 598.721,210.169 602.402,209.153    599.896,209.153 598.457,207.637  "/>
	<polygon fill="#FFFFFF" points="638.599,413.307 637.93,413.307 638.881,418.332 639.898,413.297 639.202,413.297 639.202,405.663    638.599,405.663 638.599,406.519 637.083,407.903 637.083,406.303 636.057,409.492 637.075,413.175 637.075,410.671    638.591,409.23  "/>
	<polygon fill="#FFFFFF" points="524.997,119.667 524.636,120.23 529.388,122.134 525.688,118.567 525.313,119.153 518.876,115.048    518.553,115.556 519.274,116.017 519.626,118.038 518.277,117.177 520.414,119.759 524.065,120.882 521.953,119.535    521.555,117.483  "/>
	<polygon fill="#FFFFFF" points="564.024,117.975 564.462,118.485 570.482,113.33 570.999,109.913 572.799,108.372 569.019,109.86    567.518,112.896 568.813,111.784 568.528,114.118  "/>
	<polygon fill="#FFFFFF" points="575.484,128.427 575.922,128.939 581.941,123.781 582.458,120.365 584.259,118.823    580.479,120.312 578.976,123.35 580.273,122.237 579.987,124.571  "/>
	<polygon fill="#FFFFFF" points="518.03,133.417 517.671,133.979 522.419,135.882 518.722,132.316 518.347,132.903 511.91,128.796    511.587,129.304 512.309,129.765 512.659,131.786 511.313,130.927 513.449,133.507 517.099,134.63 514.988,133.284    514.589,131.231  "/>
	<rect x="323.48" y="354.171" fill="#FFFFFF" width="12.735" height="0.619"/>
	<rect x="301.912" y="476.361" fill="#FFFFFF" width="0.619" height="12.735"/>
	<rect x="637.306" y="475.481" fill="#FFFFFF" width="0.621" height="12.738"/>
	<rect x="576.292" y="356.007" fill="#FFFFFF" width="12.736" height="0.62"/>
	<rect x="525.617" y="508.303" fill="#FFFFFF" width="12.736" height="0.622"/>
	<rect x="500.176" y="508.325" fill="#FFFFFF" width="12.735" height="0.618"/>
	<rect x="301.943" y="400.381" fill="#FFFFFF" width="0.62" height="12.734"/>
	<rect x="474.756" y="508.318" fill="#FFFFFF" width="12.736" height="0.617"/>
	<rect x="449.313" y="508.314" fill="#FFFFFF" width="12.737" height="0.62"/>
	<rect x="301.882" y="450.934" fill="#FFFFFF" width="0.62" height="12.736"/>
	<rect x="423.855" y="508.321" fill="#FFFFFF" width="12.734" height="0.619"/>
	<rect x="398.445" y="508.327" fill="#FFFFFF" width="12.737" height="0.62"/>
	<rect x="373.004" y="508.327" fill="#FFFFFF" width="12.735" height="0.619"/>
	<rect x="347.544" y="508.321" fill="#FFFFFF" width="12.736" height="0.619"/>
	<rect x="348.943" y="354.189" fill="#FFFFFF" width="12.734" height="0.618"/>
	<rect x="322.063" y="508.326" fill="#FFFFFF" width="12.735" height="0.619"/>
	<rect x="576.509" y="508.331" fill="#FFFFFF" width="12.735" height="0.619"/>
	<rect x="301.967" y="374.975" fill="#FFFFFF" width="0.621" height="12.737"/>
	<rect x="655.699" y="507.039" fill="#FFFFFF" width="12.736" height="0.619"/>
	<rect x="551.057" y="508.327" fill="#FFFFFF" width="12.736" height="0.619"/>
	<rect x="525.418" y="355.974" fill="#FFFFFF" width="12.735" height="0.621"/>
	<rect x="601.959" y="508.323" fill="#FFFFFF" width="12.735" height="0.62"/>
	<rect x="681.126" y="507.039" fill="#FFFFFF" width="12.736" height="0.621"/>
	<rect x="601.756" y="433.366" fill="#FFFFFF" width="12.735" height="0.621"/>
	<rect x="576.322" y="433.369" fill="#FFFFFF" width="12.734" height="0.62"/>
	<rect x="550.879" y="433.365" fill="#FFFFFF" width="12.736" height="0.622"/>
	<rect x="525.452" y="433.372" fill="#FFFFFF" width="12.738" height="0.622"/>
	<rect x="499.989" y="433.376" fill="#FFFFFF" width="12.735" height="0.619"/>
	<rect x="474.561" y="433.365" fill="#FFFFFF" width="12.736" height="0.619"/>
	<rect x="449.112" y="433.363" fill="#FFFFFF" width="12.736" height="0.622"/>
	<rect x="346.515" y="431.785" fill="#FFFFFF" width="12.734" height="0.619"/>
	<rect x="550.852" y="355.998" fill="#FFFFFF" width="12.736" height="0.621"/>
	<rect x="398.219" y="355.968" fill="#FFFFFF" width="12.736" height="0.622"/>
	<rect x="449.112" y="355.985" fill="#FFFFFF" width="12.734" height="0.618"/>
	<rect x="474.565" y="356.006" fill="#FFFFFF" width="12.733" height="0.619"/>
	<rect x="499.957" y="356.006" fill="#FFFFFF" width="12.736" height="0.619"/>
	<rect x="423.709" y="356.007" fill="#FFFFFF" width="12.736" height="0.62"/>
	<rect x="651.929" y="208.134" fill="#FFFFFF" width="12.736" height="0.619"/>
	<rect x="677.372" y="208.131" fill="#FFFFFF" width="12.736" height="0.618"/>
	<rect x="702.799" y="208.134" fill="#FFFFFF" width="12.736" height="0.619"/>
	<rect x="684.005" y="285.885" fill="#FFFFFF" width="12.736" height="0.619"/>
	<rect x="658.684" y="285.922" fill="#FFFFFF" width="12.735" height="0.619"/>
	<rect x="601.765" y="355.986" fill="#FFFFFF" width="12.736" height="0.619"/>
	<rect x="637.266" y="450.12" fill="#FFFFFF" width="0.621" height="12.737"/>
	
		<rect x="620.59" y="266.928" transform="matrix(-0.0016 -1 1 -0.0016 358.3472 892.7975)" fill="#FFFFFF" width="8.535" height="1.167"/>
	
		<rect x="629.53" y="266.865" transform="matrix(-0.0016 -1 1 -0.0016 367.3645 901.6735)" fill="#FFFFFF" width="8.535" height="1.167"/>
	
		<rect x="623.604" y="266.982" transform="matrix(-0.0014 -1 1 -0.0014 361.1672 895.805)" fill="#FFFFFF" width="8.535" height="1.169"/>
	
		<rect x="635.436" y="266.892" transform="matrix(-0.0016 -1 1 -0.0016 373.2516 907.6057)" fill="#FFFFFF" width="8.533" height="1.168"/>
	
		<rect x="626.561" y="266.929" transform="matrix(-0.0013 -1 1 -0.0013 364.1066 898.6783)" fill="#FFFFFF" width="8.533" height="1.171"/>
	<rect x="392.188" y="351.225" fill="#FFFFFF" width="8.535" height="1.169"/>
	<rect x="392.239" y="360.096" fill="#FFFFFF" width="8.534" height="1.167"/>
	<rect x="392.257" y="366.032" fill="#FFFFFF" width="8.533" height="1.167"/>
	<rect x="392.289" y="357.169" fill="#FFFFFF" width="8.535" height="1.169"/>
	<rect x="392.238" y="354.171" fill="#FFFFFF" width="8.534" height="1.169"/>
	<rect x="392.252" y="363.073" fill="#FFFFFF" width="8.535" height="1.169"/>
	<rect x="392.238" y="348.227" fill="#FFFFFF" width="8.534" height="1.17"/>
	<rect x="392.289" y="345.23" fill="#FFFFFF" width="8.535" height="1.167"/>
	<rect x="314.034" y="346.219" fill="#FFFFFF" width="8.535" height="1.167"/>
	<rect x="514.487" y="292.4" fill="#FFFFFF" width="8.534" height="1.169"/>
	<rect x="314.052" y="364.022" fill="#FFFFFF" width="8.535" height="1.168"/>
	<rect x="314.034" y="352.161" fill="#FFFFFF" width="8.535" height="1.168"/>
	<rect x="313.983" y="349.215" fill="#FFFFFF" width="8.534" height="1.168"/>
	<rect x="314.084" y="355.158" fill="#FFFFFF" width="8.535" height="1.167"/>
	<rect x="314.048" y="361.063" fill="#FFFFFF" width="8.535" height="1.169"/>
	<rect x="314.084" y="343.22" fill="#FFFFFF" width="8.535" height="1.17"/>
	<rect x="314.034" y="358.085" fill="#FFFFFF" width="8.535" height="1.167"/>
	<rect x="427.175" y="506.405" fill="#FFFFFF" width="8.535" height="1.168"/>
	
		<rect x="632.474" y="266.915" transform="matrix(-0.0015 -1 1 -0.0015 370.1869 904.6401)" fill="#FFFFFF" width="8.535" height="1.173"/>
	<rect x="427.226" y="497.465" fill="#FFFFFF" width="8.535" height="1.166"/>
	<polygon fill="#FFFFFF" points="417.728,295.654 412.938,304.097 414.185,304.097 418.996,295.633  "/>
	<polygon fill="#FFFFFF" points="414.353,295.602 409.563,304.04 410.811,304.04 415.62,295.58  "/>
	<polygon fill="#FFFFFF" points="410.951,295.628 406.162,304.07 407.409,304.07 412.22,295.607  "/>
	<polygon fill="#FFFFFF" points="407.55,295.628 402.761,304.07 404.007,304.07 408.817,295.607  "/>
	<polygon fill="#FFFFFF" points="404.122,295.654 399.333,304.097 400.579,304.097 405.39,295.633  "/>
	<polygon fill="#FFFFFF" points="400.638,295.654 395.849,304.097 397.095,304.097 401.905,295.633  "/>
	<polygon fill="#FFFFFF" points="397.263,295.628 392.475,304.07 393.722,304.07 398.531,295.607  "/>
	<polygon fill="#FFFFFF" points="393.911,295.598 389.122,304.039 390.371,304.039 395.18,295.576  "/>
	
		<rect x="639.451" y="372.512" transform="matrix(-0.0014 -1 1 -0.0014 271.5055 1017.3268)" fill="#FFFFFF" width="8.535" height="1.169"/>
	
		<rect x="627.583" y="372.531" transform="matrix(-0.0015 -1 1 -0.0015 259.6754 1005.5194)" fill="#FFFFFF" width="8.534" height="1.168"/>
	
		<rect x="624.558" y="372.469" transform="matrix(-0.0016 -1 1 -0.0016 256.7815 1002.4744)" fill="#FFFFFF" width="8.535" height="1.167"/>
	
		<rect x="636.516" y="372.46" transform="matrix(-0.0015 -1 1 -0.0015 268.692 1014.382)" fill="#FFFFFF" width="8.535" height="1.169"/>
	
		<rect x="642.391" y="372.474" transform="matrix(-0.0018 -1 1 -0.0018 274.7856 1020.3979)" fill="#FFFFFF" width="8.536" height="1.167"/>
	
		<rect x="617.603" y="266.886" transform="matrix(-0.0015 -1 1 -0.0015 355.326 889.7368)" fill="#FFFFFF" width="8.534" height="1.167"/>
	
		<rect x="397.07" y="266.113" transform="matrix(-0.0016 -1 1 -0.0016 135.2841 668.4597)" fill="#FFFFFF" width="8.534" height="1.167"/>
	
		<rect x="394.133" y="266.174" transform="matrix(-0.0014 -1 1 -0.0014 132.2115 665.5397)" fill="#FFFFFF" width="8.533" height="1.169"/>
	
		<rect x="405.97" y="266.085" transform="matrix(-0.0016 -1 1 -0.0016 144.2254 677.3339)" fill="#FFFFFF" width="8.534" height="1.168"/>
	
		<rect x="400.065" y="266.056" transform="matrix(-0.0016 -1 1 -0.0016 138.3402 671.3995)" fill="#FFFFFF" width="8.534" height="1.168"/>
	
		<rect x="388.128" y="266.075" transform="matrix(-0.0016 -1 1 -0.0016 126.365 659.4816)" fill="#FFFFFF" width="8.535" height="1.168"/>
	<rect x="514.469" y="274.595" fill="#FFFFFF" width="8.535" height="1.169"/>
	<rect x="514.521" y="283.536" fill="#FFFFFF" width="8.532" height="1.168"/>
	
		<rect x="639.452" y="337.765" transform="matrix(-0.0014 -1 1 -0.0014 306.2541 982.5326)" fill="#FFFFFF" width="8.534" height="1.169"/>
	
		<rect x="624.559" y="337.723" transform="matrix(-0.0017 -1 1 -0.0017 291.5991 967.7128)" fill="#FFFFFF" width="8.535" height="1.167"/>
	
		<rect x="627.584" y="337.783" transform="matrix(-0.0014 -1 1 -0.0014 294.352 970.683)" fill="#FFFFFF" width="8.535" height="1.168"/>
	
		<rect x="642.392" y="337.729" transform="matrix(-0.0017 -1 1 -0.0017 309.4561 985.5507)" fill="#FFFFFF" width="8.533" height="1.167"/>
	
		<rect x="633.519" y="337.768" transform="matrix(-0.0015 -1 1 -0.0015 300.3826 976.6406)" fill="#FFFFFF" width="8.533" height="1.168"/>
	
		<rect x="630.563" y="337.821" transform="matrix(-0.0016 -1 1 -0.0016 297.4431 973.776)" fill="#FFFFFF" width="8.533" height="1.168"/>
	
		<rect x="636.516" y="337.714" transform="matrix(-0.0015 -1 1 -0.0015 303.4382 979.5843)" fill="#FFFFFF" width="8.534" height="1.169"/>
	
		<rect x="391.131" y="266.124" transform="matrix(-0.0015 -1 1 -0.0015 129.2791 662.5034)" fill="#FFFFFF" width="8.535" height="1.168"/>
	
		<rect x="402.999" y="266.106" transform="matrix(-0.0015 -1 1 -0.0015 141.1817 674.3511)" fill="#FFFFFF" width="8.533" height="1.168"/>
	
		<rect x="633.519" y="372.516" transform="matrix(-0.0015 -1 1 -0.0015 265.6345 1011.4402)" fill="#FFFFFF" width="8.534" height="1.168"/>
	
		<rect x="630.564" y="372.565" transform="matrix(-0.0016 -1 1 -0.0016 262.6994 1008.5771)" fill="#FFFFFF" width="8.534" height="1.168"/>
	<rect x="514.419" y="277.591" fill="#FFFFFF" width="8.534" height="1.169"/>
	<rect x="514.469" y="280.539" fill="#FFFFFF" width="8.535" height="1.167"/>
	<rect x="514.484" y="289.439" fill="#FFFFFF" width="8.533" height="1.17"/>
	<rect x="514.469" y="286.463" fill="#FFFFFF" width="8.535" height="1.168"/>
	<rect x="641.842" y="198.16" fill="#FFFFFF" width="8.536" height="1.169"/>
	<rect x="641.792" y="201.156" fill="#FFFFFF" width="8.535" height="1.17"/>
	<rect x="641.741" y="204.155" fill="#FFFFFF" width="8.534" height="1.17"/>
	<rect x="641.792" y="207.103" fill="#FFFFFF" width="8.535" height="1.167"/>
	<rect x="641.842" y="210.101" fill="#FFFFFF" width="8.536" height="1.166"/>
	<rect x="641.792" y="213.025" fill="#FFFFFF" width="8.535" height="1.169"/>
	<rect x="641.807" y="216.003" fill="#FFFFFF" width="8.534" height="1.168"/>
	<rect x="641.811" y="218.964" fill="#FFFFFF" width="8.536" height="1.169"/>
	<rect x="649.115" y="281.203" fill="#FFFFFF" width="8.534" height="1.169"/>
	<rect x="649.219" y="287.147" fill="#FFFFFF" width="8.533" height="1.168"/>
	<rect x="514.521" y="271.598" fill="#FFFFFF" width="8.532" height="1.169"/>
	<rect x="649.166" y="284.148" fill="#FFFFFF" width="8.535" height="1.17"/>
	<rect x="649.18" y="293.052" fill="#FFFFFF" width="8.535" height="1.168"/>
	<rect x="649.166" y="290.073" fill="#FFFFFF" width="8.535" height="1.169"/>
	<rect x="649.185" y="296.013" fill="#FFFFFF" width="8.534" height="1.169"/>
	<rect x="649.166" y="278.207" fill="#FFFFFF" width="8.535" height="1.167"/>
	<rect x="649.219" y="275.21" fill="#FFFFFF" width="8.533" height="1.168"/>
	<rect x="617.327" y="429.011" fill="#FFFFFF" width="8.535" height="1.169"/>
	<rect x="617.43" y="434.955" fill="#FFFFFF" width="8.533" height="1.167"/>
	<rect x="617.38" y="431.956" fill="#FFFFFF" width="8.534" height="1.169"/>
	<rect x="617.391" y="440.858" fill="#FFFFFF" width="8.535" height="1.169"/>
	<rect x="617.38" y="437.881" fill="#FFFFFF" width="8.534" height="1.167"/>
	<rect x="617.396" y="443.819" fill="#FFFFFF" width="8.533" height="1.169"/>
	<rect x="617.38" y="426.014" fill="#FFFFFF" width="8.534" height="1.168"/>
	<rect x="617.43" y="423.017" fill="#FFFFFF" width="8.533" height="1.169"/>
	<rect x="427.191" y="518.268" fill="#FFFFFF" width="8.534" height="1.167"/>
	<rect x="427.124" y="503.459" fill="#FFFFFF" width="8.534" height="1.169"/>
	<rect x="427.226" y="509.403" fill="#FFFFFF" width="8.535" height="1.166"/>
	<rect x="427.189" y="515.306" fill="#FFFFFF" width="8.533" height="1.168"/>
	<rect x="427.175" y="500.461" fill="#FFFFFF" width="8.535" height="1.168"/>
	<rect x="427.176" y="512.328" fill="#FFFFFF" width="8.534" height="1.168"/>
	
		<rect x="252.536" y="447.792" transform="matrix(0.9808 0.195 -0.195 0.9808 92.7349 -41.103)" fill="none" stroke="#FFFFFF" stroke-width="1.8725" width="5.087" height="5.087"/>
	<rect x="321.498" y="225.81" fill="none" stroke="#FFFFFF" stroke-width="1.8725" width="4.239" height="4.24"/>
	
		<rect x="260.164" y="409.641" transform="matrix(0.9808 0.1948 -0.1948 0.9808 85.3206 -43.2771)" fill="none" stroke="#FFFFFF" stroke-width="1.8725" width="5.089" height="5.089"/>
	
		<rect x="228.966" y="310.973" transform="matrix(0.7071 0.7071 -0.7071 0.7071 289.4963 -71.8742)" fill="none" stroke="#FFFFFF" stroke-width="1.8725" width="5.085" height="5.085"/>
	<rect x="282.917" y="409.626" fill="none" stroke="#FFFFFF" stroke-width="1.8725" width="5.089" height="5.088"/>
	<rect x="282.917" y="447.781" fill="none" stroke="#FFFFFF" stroke-width="1.8725" width="5.089" height="5.089"/>
	
		<rect x="254.832" y="324.839" transform="matrix(0.9239 0.3825 -0.3825 0.9239 144.817 -73.5567)" fill="none" stroke="#FFFFFF" stroke-width="1.8725" width="5.088" height="5.086"/>
	
		<rect x="237.826" y="524.54" transform="matrix(0.9807 0.1953 -0.1953 0.9807 107.4626 -36.7165)" fill="none" stroke="#FFFFFF" stroke-width="1.8725" width="4.241" height="4.239"/>
	<rect x="435.547" y="485.94" fill="none" stroke="#FFFFFF" stroke-width="1.8725" width="5.088" height="5.086"/>
	<rect x="728.511" y="301.275" fill="none" stroke="#FFFFFF" stroke-width="1.8725" width="5.937" height="5.938"/>
	<rect x="457.594" y="186.805" fill="none" stroke="#FFFFFF" stroke-width="1.8725" width="5.938" height="5.935"/>
	<rect x="728.511" y="415.747" fill="none" stroke="#FFFFFF" stroke-width="1.8725" width="5.937" height="5.938"/>
	<rect x="473.703" y="524.098" fill="none" stroke="#FFFFFF" stroke-width="1.8725" width="5.089" height="5.087"/>
	<rect x="511.861" y="524.098" fill="none" stroke="#FFFFFF" stroke-width="1.8725" width="5.087" height="5.087"/>
	<rect x="690.354" y="301.275" fill="none" stroke="#FFFFFF" stroke-width="1.8725" width="5.935" height="5.938"/>
	<rect x="690.354" y="415.747" fill="none" stroke="#FFFFFF" stroke-width="1.8725" width="5.935" height="5.938"/>
	<rect x="572.064" y="186.805" fill="none" stroke="#FFFFFF" stroke-width="1.8725" width="5.936" height="5.935"/>
	
		<rect x="255.907" y="283.953" transform="matrix(-0.7072 0.7071 -0.7071 -0.7072 643.7855 306.3526)" fill="none" stroke="#FFFFFF" stroke-width="1.8725" width="5.088" height="5.086"/>
	<rect x="728.511" y="339.434" fill="none" stroke="#FFFFFF" stroke-width="1.8725" width="5.937" height="5.936"/>
	<rect x="728.511" y="377.59" fill="none" stroke="#FFFFFF" stroke-width="1.8725" width="5.937" height="5.938"/>
	<rect x="728.511" y="453.905" fill="none" stroke="#FFFFFF" stroke-width="1.8725" width="5.937" height="5.938"/>
	<rect x="550.442" y="410.05" fill="none" stroke="#FFFFFF" stroke-width="1.8725" width="4.239" height="4.238"/>
	<rect x="512.284" y="410.05" fill="none" stroke="#FFFFFF" stroke-width="1.8725" width="4.241" height="4.238"/>
	<rect x="652.195" y="301.275" fill="none" stroke="#FFFFFF" stroke-width="1.8725" width="8.902" height="5.938"/>
	<rect x="282.917" y="371.468" fill="none" stroke="#FFFFFF" stroke-width="1.8725" width="5.089" height="5.088"/>
	<rect x="253.239" y="600.411" fill="none" stroke="#FFFFFF" stroke-width="1.8725" width="5.088" height="5.089"/>
	
		<rect x="230.103" y="559.556" transform="matrix(0.9808 0.1949 -0.1949 0.9808 114.0331 -34.5955)" fill="none" stroke="#FFFFFF" stroke-width="1.8725" width="5.513" height="5.513"/>
	<rect x="320.863" y="523.885" fill="none" stroke="#FFFFFF" stroke-width="1.8725" width="5.511" height="5.512"/>
	
		<rect x="221.748" y="599.982" transform="matrix(0.9808 0.1951 -0.1951 0.9808 121.9767 -32.259)" fill="none" stroke="#FFFFFF" stroke-width="1.8725" width="5.935" height="5.936"/>
	<rect x="282.493" y="485.517" fill="none" stroke="#FFFFFF" stroke-width="1.8725" width="5.936" height="5.935"/>
	
		<rect x="244.537" y="485.508" transform="matrix(0.9808 0.1951 -0.1951 0.9808 100.0598 -38.902)" fill="none" stroke="#FFFFFF" stroke-width="1.8725" width="5.936" height="5.936"/>
	<rect x="480.675" y="149.495" fill="none" stroke="#FFFFFF" stroke-width="1.8725" width="4.239" height="4.239"/>
	<rect x="518.857" y="149.495" fill="none" stroke="#FFFFFF" stroke-width="1.8725" width="4.237" height="4.239"/>
	<rect x="572.914" y="149.495" fill="none" stroke="#FFFFFF" stroke-width="1.8725" width="4.238" height="4.239"/>
	<rect x="729.358" y="187.652" fill="none" stroke="#FFFFFF" stroke-width="1.8725" width="4.238" height="4.239"/>
	<rect x="550.442" y="410.05" fill="none" stroke="#FFFFFF" stroke-width="1.8725" width="4.239" height="4.238"/>
	<rect x="550.442" y="524.521" fill="none" stroke="#FFFFFF" stroke-width="1.8725" width="4.239" height="4.241"/>
	<rect x="576.729" y="524.521" fill="none" stroke="#FFFFFF" stroke-width="1.8725" width="4.239" height="4.241"/>
	<rect x="653.043" y="524.521" fill="none" stroke="#FFFFFF" stroke-width="1.8725" width="4.24" height="4.241"/>
	<rect x="614.888" y="524.521" fill="none" stroke="#FFFFFF" stroke-width="1.8725" width="4.237" height="4.241"/>
	<rect x="397.813" y="340.282" fill="none" stroke="#FFFFFF" stroke-width="1.8725" width="4.24" height="4.239"/>
	<rect x="512.284" y="340.282" fill="none" stroke="#FFFFFF" stroke-width="1.8725" width="4.241" height="4.239"/>
	<rect x="729.358" y="486.365" fill="none" stroke="#FFFFFF" stroke-width="1.8725" width="4.238" height="4.239"/>
	<rect x="283.343" y="524.521" fill="none" stroke="#FFFFFF" stroke-width="1.8725" width="4.238" height="4.241"/>
	
		<line fill="none" stroke="#FFFFFF" stroke-width="0.9362" stroke-linecap="round" stroke-linejoin="round" x1="518.007" y1="319.508" x2="548.958" y2="319.508"/>
	
		<line fill="none" stroke="#FFFFFF" stroke-width="0.9362" stroke-linecap="round" stroke-linejoin="round" x1="441.474" y1="393.092" x2="472.425" y2="393.092"/>
	
		<line fill="none" stroke="#FFFFFF" stroke-width="0.9362" stroke-linecap="round" stroke-linejoin="round" x1="403.008" y1="393.092" x2="433.957" y2="393.092"/>
	
		<line fill="none" stroke="#FFFFFF" stroke-width="0.9362" stroke-linecap="round" stroke-linejoin="round" x1="365.328" y1="393.092" x2="396.277" y2="393.092"/>
	
		<line fill="none" stroke="#FFFFFF" stroke-width="0.9362" stroke-linecap="round" stroke-linejoin="round" x1="479.322" y1="393.092" x2="510.271" y2="393.092"/>
	
		<line fill="none" stroke="#FFFFFF" stroke-width="0.9362" stroke-linecap="round" stroke-linejoin="round" x1="540.691" y1="318.658" x2="571.642" y2="318.658"/>
	
		<line fill="none" stroke="#FFFFFF" stroke-width="0.9362" stroke-linecap="round" stroke-linejoin="round" x1="479.322" y1="393.938" x2="510.271" y2="393.938"/>
	
		<line fill="none" stroke="#FFFFFF" stroke-width="0.9362" stroke-linecap="round" stroke-linejoin="round" x1="327.59" y1="314.679" x2="358.539" y2="314.679"/>
	
		<line fill="none" stroke="#FFFFFF" stroke-width="0.9362" stroke-linecap="round" stroke-linejoin="round" x1="620.645" y1="166.03" x2="651.596" y2="166.03"/>
	
		<line fill="none" stroke="#FFFFFF" stroke-width="0.9362" stroke-linecap="round" stroke-linejoin="round" x1="658.713" y1="166.03" x2="689.662" y2="166.03"/>
	
		<line fill="none" stroke="#FFFFFF" stroke-width="0.9362" stroke-linecap="round" stroke-linejoin="round" x1="696.784" y1="166.03" x2="727.734" y2="166.03"/>
	
		<line fill="none" stroke="#FFFFFF" stroke-width="0.9362" stroke-linecap="round" stroke-linejoin="round" x1="696.664" y1="166.03" x2="727.614" y2="166.03"/>
	
		<line fill="none" stroke="#FFFFFF" stroke-width="0.9362" stroke-linecap="round" stroke-linejoin="round" x1="658.814" y1="166.03" x2="689.765" y2="166.03"/>
	
		<line fill="none" stroke="#FFFFFF" stroke-width="0.9362" stroke-linecap="round" stroke-linejoin="round" x1="620.488" y1="166.03" x2="651.438" y2="166.03"/>
	
		<line fill="none" stroke="#FFFFFF" stroke-width="0.9362" stroke-linecap="round" stroke-linejoin="round" x1="582.483" y1="318.658" x2="602.621" y2="318.658"/>
	
		<line fill="none" stroke="#FFFFFF" stroke-width="0.9362" stroke-linecap="round" stroke-linejoin="round" x1="582.483" y1="319.508" x2="602.621" y2="319.508"/>
	
		<line fill="none" stroke="#FFFFFF" stroke-width="0.9362" stroke-linecap="round" stroke-linejoin="round" x1="555.636" y1="319.508" x2="575.774" y2="319.508"/>
	
		<line fill="none" stroke="#FFFFFF" stroke-width="0.9362" stroke-linecap="round" stroke-linejoin="round" x1="578" y1="192.739" x2="578" y2="192.745"/>
	
		<line fill="none" stroke="#FFFFFF" stroke-width="0.9362" stroke-linecap="round" stroke-linejoin="round" x1="452.285" y1="393.938" x2="472.425" y2="393.938"/>
	
		<line fill="none" stroke="#FFFFFF" stroke-width="0.9362" stroke-linecap="round" stroke-linejoin="round" x1="582.317" y1="166.03" x2="602.455" y2="166.03"/>
	<path fill="#FFFFFF" d="M547.043,218.77l-5.097,3.458v-10.589c0-0.233-0.256-0.485-0.488-0.485h-1.934   c-0.246,0-0.519,0.252-0.519,0.485v10.589l-5.094-3.458c-0.157-0.116-0.389,0.02-0.389,0.297v1.596c0,0.229,0.115,0.364,0.26,0.507   l6.295,6.325c0.194,0.182,0.646,0.182,0.808,0.002l6.297-6.327c0.165-0.143,0.28-0.278,0.28-0.507v-1.597   C547.464,218.788,547.251,218.653,547.043,218.77"/>
	<path fill="#FFFFFF" d="M646.125,348.456l3.459,5.1h-10.591c-0.234,0-0.484,0.254-0.484,0.488v1.934c0,0.243,0.25,0.52,0.484,0.52   h10.591l-3.459,5.091c-0.116,0.158,0.019,0.392,0.296,0.392h1.597c0.229,0,0.363-0.117,0.508-0.263l6.324-6.292   c0.184-0.196,0.184-0.649,0-0.81l-6.324-6.298c-0.145-0.162-0.278-0.279-0.508-0.279h-1.597   C646.144,348.037,646.009,348.247,646.125,348.456"/>
	<path fill="#FFFFFF" d="M367.697,292.38l-3.459-5.101h10.589c0.233,0,0.486-0.253,0.486-0.485v-1.935   c0-0.242-0.253-0.519-0.486-0.519h-10.589l3.459-5.091c0.115-0.16-0.021-0.392-0.299-0.392h-1.596   c-0.228,0-0.364,0.115-0.507,0.261l-6.322,6.294c-0.184,0.195-0.184,0.649-0.003,0.811l6.325,6.297   c0.143,0.163,0.279,0.278,0.509,0.278h1.597C367.677,292.8,367.813,292.588,367.697,292.38"/>
	<path fill="#7C6500" d="M542.481,34.048c-9.739,0-18.915,2.415-26.962,6.678l12.945,31.592l0.131,0.339   c3.895-2.843,8.693-4.521,13.886-4.521c13.014,0,23.569,10.556,23.569,23.571c0,4.642-1.344,8.968-3.66,12.618l28.929,18.04   c5.589-8.881,8.819-19.393,8.819-30.658C600.14,59.867,574.319,34.048,542.481,34.048z"/>
	<path fill="#AACC03" d="M620.439,445.662c-34.813,0-69.627,0-104.439,0v50.029c34.813,0,69.625,0,104.439,0   c2.797,0,5.063-2.279,5.063-5.088c0-13.284,0-26.569,0-39.854C625.504,447.941,623.236,445.662,620.439,445.662z"/>
	<path fill="#AACC03" d="M617.348,221.57c-2.505,0-5.01,0-7.515,0v50.028c2.505,0,5.01,0,7.515,0c1.797,0,2.544-0.745,2.544-2.544   c0-14.979,0-29.96,0-44.94C619.892,222.315,619.145,221.57,617.348,221.57z"/>
</g>
</svg>
