<?xml version="1.0" encoding="utf-8"?>
<!-- Generator: Adobe Illustrator 15.0.0, SVG Export Plug-In . SVG Version: 6.00 Build 0)  -->
<!DOCTYPE svg PUBLIC "-//W3C//DTD SVG 1.1//EN" "http://www.w3.org/Graphics/SVG/1.1/DTD/svg11.dtd">
<svg version="1.1"  xmlns="http://www.w3.org/2000/svg" xmlns:xlink="http://www.w3.org/1999/xlink" x="0px" y="0px"
	 width="1028px" height="680px" viewBox="0 0 1028 680" xml:space="preserve">
<rect x="92.965" y="538.304" fill="#E6E6E6" width="842.07" height="104.696"/>
<g>
	<g>
		<g>
			<rect x="356.932" y="594.402" fill="#F7BF83" stroke="#231815" width="22.435" height="21.75"/>
			<g>
				<path fill="#231815" d="M387.892,606.303c1.024,0.496,2.128,1.045,3.313,1.652l2.618-2.455h-6.488v-0.928l0.563-1.557h-2.762
					v-0.955h3.11l0.625-1.719h-3.028v-0.953h3.376l0.608-1.67h1.054l-0.607,1.67h5.483v0.953h-5.832l-0.625,1.719h7.199v0.955
					h-7.547l-0.563,1.545h6.756v0.977l-3.082,2.857c0.518,0.266,1.05,0.545,1.599,0.834l-0.568,0.955
					c-1.938-1.105-3.833-2.119-5.688-3.039L387.892,606.303z"/>
				<path fill="#231815" d="M397.135,605.963h5.573c0.308-0.811,0.478-1.916,0.509-3.311h0.903
					c-0.037,1.336-0.189,2.441-0.451,3.311h4.471v0.904h-4.808c-0.038,0.084-0.073,0.152-0.104,0.203
					c1.514,0.594,3.157,1.307,4.935,2.133l-0.498,0.916c-1.476-0.779-3.116-1.568-4.923-2.373c-0.996,1.047-2.78,1.834-5.352,2.361
					c-0.116-0.295-0.273-0.605-0.476-0.943c2.828-0.549,4.596-1.316,5.307-2.297h-5.087V605.963z M397.32,601.273h4.819v-1.332
					h-4.124v-0.904h4.124v-1.27h0.915v1.27h4.274v0.904h-4.274v1.332h4.762v0.963l-0.894,1.709
					c-0.262-0.135-0.537-0.256-0.821-0.365l0.741-1.406h-9.522V601.273z M398.421,603.932c1.051,0.334,2.063,0.691,3.036,1.066
					l-0.278,0.766c-1.09-0.408-2.101-0.762-3.035-1.053L398.421,603.932z M399.104,602.475c1.027,0.318,2.016,0.658,2.967,1.018
					l-0.28,0.803c-0.934-0.375-1.926-0.732-2.976-1.066L399.104,602.475z"/>
				<path fill="#231815" d="M414.069,598.006l0.823-0.438c0.313,0.5,0.604,1.025,0.875,1.568h4.453v0.928h-9.405v4.207
					c-0.077,2.609-0.6,4.572-1.563,5.887c-0.177-0.26-0.397-0.547-0.661-0.855c0.835-1.195,1.255-2.947,1.263-5.26v-4.906h4.836
					C414.504,598.762,414.297,598.385,414.069,598.006z M414.638,600.416h0.95v1.57h4.343v0.902h-4.343v1.783h3.439v5.385h-0.925
					v-0.814h-5.261v0.814h-0.927v-5.385h2.723V600.416z M418.103,605.576h-5.261v2.785h5.261V605.576z"/>
			</g>
		</g>
		<g>
			<rect x="243.183" y="594.402" fill="#FFF9BF" stroke="#231815" width="22.438" height="21.75"/>
			<g>
				<g>
					<path fill="#231815" d="M273.292,604.375h3.823v-1.092h-5.168v-0.855h3.14v-1.205h-2.779v-0.852h2.779v-1.182h0.881v1.182
						h3.197v-1.182h0.879v1.182h2.781v0.852h-2.781v1.205h3.163v0.855h-5.212v1.092h3.833v5.195h-0.867v-0.377h-6.8v0.377h-0.869
						V604.375z M275.933,609.432l0.511,0.789c-1.344,0.631-2.668,1.135-3.974,1.52c-0.109-0.25-0.243-0.535-0.406-0.854
						C273.455,610.518,274.743,610.035,275.933,609.432z M274.161,606.383h2.954v-1.182h-2.954V606.383z M274.161,608.365h2.954
						v-1.18h-2.954V608.365z M275.968,602.428h3.197v-1.205h-3.197V602.428z M280.961,605.201h-2.966v1.182h2.966V605.201z
						 M277.995,608.365h2.966v-1.18h-2.966V608.365z M278.563,610.186l0.336-0.754c1.636,0.469,3.016,0.912,4.135,1.33l-0.371,0.854
						C281.219,611.088,279.853,610.613,278.563,610.186z"/>
					<path fill="#231815" d="M284.042,610.197h4.911v-3.063h-4.146v-0.918h4.146v-1.756h-3.011v-0.879
						c-0.55,0.377-1.145,0.754-1.784,1.131c-0.162-0.318-0.355-0.633-0.579-0.943c2.571-1.305,4.389-2.803,5.456-4.49h1.262
						l-0.267,0.35c1.229,1.699,2.966,3.02,5.213,3.967c-0.209,0.318-0.413,0.652-0.614,1.006c-0.603-0.277-1.185-0.609-1.749-0.994
						v0.854h-3.001v1.756h4.124v0.918h-4.124v3.063h4.936v0.928h-10.772V610.197z M285.339,607.9l0.685-0.592
						c0.563,0.623,1.116,1.266,1.656,1.936l-0.788,0.678C286.429,609.262,285.911,608.588,285.339,607.9z M289.428,600.344
						c-0.796,1.09-1.94,2.154-3.439,3.199h6.799C291.584,602.717,290.463,601.65,289.428,600.344z M291.073,609.342
						c0.625-0.703,1.154-1.387,1.587-2.055l0.812,0.564c-0.541,0.727-1.109,1.426-1.704,2.096L291.073,609.342z"/>
					<path fill="#231815" d="M295.498,608.943c0.54-0.186,1.069-0.371,1.587-0.559v-3.396h-1.354v-0.879h1.354v-2.686h-1.518v-0.879
						h3.813v0.879h-1.461v2.686h1.32v0.879h-1.32v3.08c0.506-0.191,1-0.385,1.482-0.582c0.016,0.377,0.035,0.703,0.059,0.979
						c-1.166,0.434-2.382,0.92-3.649,1.457L295.498,608.943z M299.68,604.75h2.931v-2.311h-1.662
						c-0.174,0.607-0.357,1.168-0.55,1.684c-0.248-0.117-0.53-0.227-0.846-0.328c0.479-1.139,0.857-2.426,1.135-3.863l0.835,0.188
						c-0.109,0.506-0.22,0.986-0.337,1.443h1.425v-2.322h0.857v2.322h2.734v0.877h-2.734v2.311h3.128v0.879h-2.763
						c0.788,1.725,1.897,3.105,3.33,4.141c-0.279,0.236-0.537,0.498-0.776,0.793c-1.255-1.189-2.229-2.637-2.919-4.346v5.287h-0.857
						v-5.217c-0.752,1.717-1.85,3.191-3.29,4.424c-0.208-0.275-0.44-0.529-0.694-0.764c1.532-1.143,2.733-2.582,3.603-4.318h-2.549
						V604.75z"/>
					<path fill="#231815" d="M307.511,609.947h5.12v-2.863h-4.124v-0.928h4.124v-1.832h-4.563v-0.93h10.1v0.93h-4.552v1.832h4.158
						v0.928h-4.158v2.863h5.178v0.939h-11.282V609.947z M307.881,600.908h5.058c-0.193-0.414-0.428-0.852-0.702-1.318l0.846-0.424
						c0.317,0.469,0.598,0.953,0.847,1.453l-0.517,0.289h4.975v2.109h-0.938v-1.166h-8.63v1.166h-0.938V600.908z M314.982,607.951
						l0.684-0.578c0.532,0.553,1.003,1.113,1.413,1.684l-0.753,0.627C315.932,609.105,315.483,608.527,314.982,607.951z"/>
					<path fill="#231815" d="M330.817,610.637c-0.154,0.193-0.36,0.523-0.614,0.992c-2.51-0.529-4.244-1.689-5.201-3.49
						c-0.688,1.848-2.418,3.043-5.19,3.578c-0.138-0.285-0.304-0.596-0.497-0.93c2.609-0.383,4.224-1.377,4.841-2.975h-4.575v-0.879
						h4.819c0.063-0.275,0.112-0.607,0.151-0.99h0.925c-0.053,0.375-0.107,0.705-0.16,0.99h5.107v0.879h-4.645
						C326.805,609.428,328.484,610.369,330.817,610.637z M319.674,602.402h4.91v-3.137h0.882v3.137h4.864v0.842h-4.864v0.74
						l0.324-0.475c2.101,0.885,3.71,1.596,4.83,2.131l-0.406,0.816c-1.304-0.727-2.887-1.48-4.748-2.26v1.307h-0.882v-2.098
						c-1.373,1.406-2.934,2.41-4.679,3.014c-0.162-0.258-0.352-0.535-0.567-0.83c1.761-0.535,3.239-1.316,4.437-2.346h-4.101
						V602.402z M320.738,600.293l0.567-0.664c0.827,0.635,1.507,1.209,2.04,1.719l-0.626,0.742
						C322.241,601.57,321.581,600.971,320.738,600.293z M329.356,600.307c-0.478,0.436-1.192,1.033-2.142,1.795l-0.603-0.664
						c0.618-0.479,1.312-1.078,2.086-1.809L329.356,600.307z"/>
				</g>
			</g>
		</g>
		<g>
			<rect x="243.183" y="565.152" fill="#FFF371" stroke="#231815" width="22.438" height="21.746"/>
			<g>
				<g>
					<path fill="#231815" d="M280.613,570.602h0.995c-0.169,0.414-0.347,0.807-0.531,1.182h3.647v0.775h-2.918
						c0.336,0.357,0.652,0.725,0.949,1.107l-0.66,0.537h1.495v3.352h-0.892v-0.453h-3.151v1.256h4.656
						c-0.031,0.754-0.069,1.469-0.116,2.146c-0.054,1.055-0.548,1.584-1.482,1.584c-0.471,0-1.054-0.006-1.749-0.016
						c-0.053-0.309-0.119-0.639-0.196-0.99c0.757,0.041,1.348,0.063,1.771,0.063c0.455,0,0.703-0.248,0.741-0.742
						c0.039-0.391,0.066-0.789,0.081-1.191h-3.706v3.84h-0.927v-3.537c-1.077,1.412-2.699,2.492-4.865,3.238
						c-0.139-0.244-0.301-0.512-0.486-0.805c1.879-0.6,3.374-1.51,4.482-2.736h-3.521v-0.854l0.555-2.109h3.835v-1.193h-4.055
						v-0.852h2.276c-0.32-0.451-0.639-0.875-0.956-1.268l0.464-0.377h-0.852c-0.46,0.666-0.99,1.277-1.592,1.832
						c-0.155-0.199-0.349-0.426-0.58-0.678c0.98-0.861,1.734-1.898,2.259-3.111h0.997c-0.179,0.41-0.376,0.805-0.592,1.182h3.359
						v0.775h-2.78c0.31,0.34,0.621,0.703,0.938,1.094l-0.647,0.551h5.212c-0.312-0.457-0.621-0.875-0.925-1.254l0.491-0.391h-0.984
						c-0.301,0.52-0.624,0.988-0.968,1.406c-0.17-0.184-0.405-0.389-0.707-0.615C279.629,572.629,280.173,571.715,280.613,570.602z
						 M275.18,578.357h3.441v-1.256h-3.116L275.18,578.357z M282.699,575.055h-3.151v1.193h3.151V575.055z"/>
					<path fill="#231815" d="M285.235,575.91h11.514v1.104h-11.514V575.91z"/>
					<path fill="#231815" d="M301.639,579.375c0.794,0.316,1.637,0.66,2.525,1.027c0.732-0.316,1.415-0.646,2.048-0.988h-0.683
						v-0.266h-5.455v2.662c0.85-0.193,1.795-0.418,2.838-0.678c-0.023,0.209-0.05,0.539-0.081,0.99
						c-0.959,0.193-1.854,0.398-2.688,0.615c-0.278,0.092-0.56,0.219-0.846,0.377l-0.463-0.93c0.254-0.193,0.382-0.498,0.382-0.916
						v-6.602c-0.518,0.318-1.062,0.627-1.633,0.93c-0.163-0.311-0.333-0.6-0.51-0.867c2.246-1.004,4.085-2.359,5.514-4.066h0.996
						l-0.174,0.289c1.475,1.664,3.209,2.832,5.201,3.502c-0.231,0.35-0.421,0.672-0.567,0.967c-0.588-0.277-1.141-0.57-1.657-0.879
						v4.781c0.133-0.076,0.263-0.15,0.394-0.227l0.51,0.754c-0.664,0.359-1.347,0.695-2.05,1.004
						c0.812,0.352,1.66,0.729,2.549,1.129l-0.452,0.906c-2.24-1.09-4.281-2.002-6.129-2.74L301.639,579.375z M302.889,571.656
						c-0.826,0.936-1.904,1.844-3.232,2.723h6.487C304.971,573.645,303.884,572.736,302.889,571.656z M305.529,575.207h-5.455v1.156
						h5.455V575.207z M305.529,578.322v-1.156h-5.455v1.156H305.529z M302.066,573.01l0.765-0.4
						c0.262,0.443,0.505,0.877,0.729,1.305l-0.774,0.439C302.583,573.918,302.345,573.471,302.066,573.01z"/>
					<path fill="#231815" d="M309.572,577.203h4.414v5.799h-0.881v-0.842h-2.652v0.842h-0.881V577.203z M313.105,578.082h-2.652
						v3.225h2.652V578.082z M310.708,571.205h7.992v4.969h-0.925v-0.402h-6.142v0.402h-0.926V571.205z M317.775,572.084h-6.142
						v2.811h6.142V572.084z M315.423,577.203h4.425v5.799h-0.881v-0.854h-2.663v0.854h-0.881V577.203z M318.967,578.082h-2.663
						v3.252h2.663V578.082z"/>
				</g>
			</g>
		</g>
		<g>
			<rect x="356.932" y="565.152" fill="#FADED8" stroke="#231815" width="22.435" height="21.746"/>
			<g>
				<g>
					<path fill="#231815" d="M396.803,583.033l-0.638,0.941c-1.278-0.807-2.639-1.607-4.077-2.396
						c-1.146,0.949-2.958,1.777-5.434,2.484c-0.14-0.295-0.32-0.627-0.544-1.006c2.252-0.537,3.927-1.203,5.028-1.994
						c-1.081-0.58-2.205-1.158-3.373-1.732c0.526-1.236,0.993-2.449,1.403-3.627h-2.955v-0.928h3.262
						c0.348-1.064,0.646-2.105,0.898-3.125l1.029,0.225c-0.31,1.047-0.607,2.014-0.897,2.9h6.91v0.928h-2.415
						c-0.337,2.205-1.063,3.926-2.178,5.158C394.181,581.572,395.509,582.297,396.803,583.033z M394.034,575.703h-3.841
						c-0.425,1.238-0.832,2.309-1.222,3.213c0.995,0.486,1.977,0.979,2.941,1.475C393.038,579.232,393.743,577.672,394.034,575.703z
						"/>
					<path fill="#231815" d="M401.492,571.713h0.742v1.367h1.088v0.754h-1.088v2.17h-0.742v-0.326h-0.498v1.143h1.865v3.314h-0.741
						v-0.354h-1.124v1.242h2.341v0.754h-2.341v2.324h-0.765v-2.324h-2.328v-0.754h2.328v-1.242h-1.123v0.354h-0.74v-3.314h1.863
						v-1.143h-0.497v0.314h-0.741v-2.158h-1.09v-0.754h1.09v-1.367h0.741v1.367h1.76V571.713z M399.106,579.055h1.123v-1.508h-1.123
						V579.055z M399.732,574.975h1.76v-1.141h-1.76V574.975z M402.118,577.547h-1.124v1.508h1.124V577.547z M402.813,582.57h2.907
						v-2.311h-2.271v-0.854h2.271v-1.594h0.857v1.594h2.293v0.854h-2.293v2.311h2.86v0.854h-6.625V582.57z M403.196,576.494h2.524
						v-2.033h-2.154v-0.854h2.154v-1.846h0.857v1.846h2.246v0.854h-2.246v2.033h2.595v0.854h-5.977V576.494z"/>
				</g>
			</g>
		</g>
		<g>
			<rect x="444.582" y="565.152" fill="#D7E8BD" stroke="#231815" width="22.436" height="21.746"/>
			<g>
				<path fill="#231815" d="M473.603,575.578c0.75-1.574,1.328-3.295,1.739-5.172l0.88,0.189c-0.147,0.596-0.302,1.172-0.464,1.732
					h2.282v0.803l-0.821,2.084c-0.232-0.109-0.48-0.217-0.743-0.326l0.696-1.758h-1.669c-0.332,1.029-0.703,1.992-1.112,2.887
					C474.152,575.869,473.89,575.721,473.603,575.578z M477.819,579.506c0.007,0.41,0.027,0.764,0.06,1.057
					c-0.789,0.465-1.434,0.887-1.936,1.254c-0.209,0.158-0.375,0.303-0.498,0.426l-0.614-0.865c0.247-0.242,0.372-0.553,0.372-0.928
					v-5.586h0.855v5.824C476.708,580.27,477.296,579.875,477.819,579.506z M481.76,573.846c0,0.637-0.013,1.201-0.037,1.695
					c0.465,2.82,1.661,4.873,3.592,6.162c-0.285,0.285-0.539,0.594-0.766,0.93c-1.551-1.281-2.605-2.93-3.161-4.945
					c-0.456,2.1-1.684,3.807-3.685,5.119c-0.146-0.232-0.361-0.518-0.648-0.854c1.529-1.055,2.541-2.137,3.036-3.25
					c0.517-1.053,0.764-2.674,0.74-4.857H481.76z M477.785,575.578c0.835-1.607,1.502-3.326,2.004-5.158l0.88,0.275
					c-0.17,0.568-0.344,1.113-0.521,1.633h4.865v0.879c-0.37,0.896-0.783,1.773-1.238,2.635c-0.225-0.143-0.507-0.281-0.847-0.414
					c0.456-0.797,0.815-1.527,1.078-2.199h-4.183c-0.393,1.049-0.799,1.99-1.216,2.828
					C478.367,575.889,478.094,575.729,477.785,575.578z"/>
				<path fill="#231815" d="M486.207,576.947h4.411v5.799h-0.879v-0.842h-2.653v0.842h-0.879V576.947z M489.739,577.826h-2.653
					v3.223h2.653V577.826z M487.342,570.947h7.992v4.971h-0.927v-0.402h-6.139v0.402h-0.927V570.947z M494.407,571.826h-6.139v2.811
					h6.139V571.826z M492.057,576.947h4.424v5.799h-0.88v-0.854h-2.664v0.854h-0.88V576.947z M495.601,577.826h-2.664v3.25h2.664
					V577.826z"/>
				<path fill="#231815" d="M509.014,581.803c-0.154,0.191-0.359,0.525-0.613,0.994c-2.512-0.529-4.244-1.691-5.202-3.49
					c-0.686,1.848-2.417,3.043-5.189,3.576c-0.139-0.285-0.305-0.594-0.497-0.93c2.609-0.383,4.224-1.375,4.841-2.973h-4.575v-0.879
					h4.818c0.063-0.275,0.113-0.607,0.151-0.992h0.927c-0.054,0.377-0.108,0.707-0.162,0.992h5.108v0.879h-4.646
					C505.001,580.594,506.682,581.535,509.014,581.803z M497.87,573.57h4.912v-3.137h0.88v3.137h4.865v0.842h-4.865v0.74
					l0.324-0.477c2.101,0.885,3.711,1.598,4.83,2.133l-0.404,0.816c-1.306-0.729-2.889-1.482-4.75-2.26v1.305h-0.88v-2.098
					c-1.374,1.408-2.935,2.412-4.681,3.016c-0.162-0.262-0.351-0.537-0.567-0.83c1.762-0.535,3.239-1.316,4.437-2.346h-4.101V573.57
					z M498.936,571.461l0.568-0.666c0.826,0.637,1.505,1.211,2.038,1.721l-0.625,0.74
					C500.438,572.738,499.777,572.139,498.936,571.461z M507.553,571.473c-0.477,0.436-1.191,1.035-2.141,1.795l-0.604-0.666
					c0.618-0.477,1.313-1.076,2.086-1.807L507.553,571.473z"/>
			</g>
		</g>
		<g>
			<rect x="444.589" y="594.402" fill="#D63C8E" stroke="#231815" width="22.433" height="21.75"/>
			<g>
				<path fill="#231815" d="M473.997,601.688h4.459v-2.74h0.996v2.74h4.507v5.721h-0.95v-0.676h-3.557v4.666h-0.996v-4.666h-3.51
					v0.676h-0.949V601.688z M474.946,605.803h3.51v-3.188h-3.51V605.803z M483.009,602.615h-3.557v3.188h3.557V602.615z"/>
				<path fill="#231815" d="M485.753,599.629h10.136v11.707h-0.893v-0.627h-8.351v0.639h-0.893V599.629z M494.996,600.518h-8.351
					v9.301h8.351V600.518z M487.177,607.635h3.199v-2.486h-2.792v-0.854h2.792v-1.68h-3.012v-0.855h6.902v0.855h-3.033v1.68h2.802
					v0.854h-2.802v2.486h3.22v0.852h-7.276V607.635z M491.834,605.953l0.65-0.527c0.424,0.477,0.787,0.926,1.089,1.342l-0.685,0.564
					C492.518,606.789,492.167,606.33,491.834,605.953z"/>
				<path fill="#231815" d="M501.077,608.486c0.009,0.369,0.028,0.711,0.058,1.02c-0.563,0.342-1.173,0.756-1.83,1.242
					c-0.192,0.148-0.377,0.322-0.555,0.516l-0.614-0.867c0.255-0.268,0.382-0.582,0.382-0.941v-2.787h-1.586v-0.865h1.586v-1.834
					h-0.786v-0.854c-0.124,0.211-0.252,0.41-0.383,0.604c-0.147-0.301-0.313-0.586-0.499-0.855c0.758-1.145,1.354-2.438,1.794-3.877
					l0.849,0.301c-0.194,0.57-0.408,1.111-0.639,1.633h2.132v0.865h-2.537c-0.224,0.461-0.463,0.9-0.717,1.316h2.976v0.867h-1.355
					v1.834h1.681v0.865h-1.681v2.988C499.831,609.336,500.406,608.947,501.077,608.486z M507.437,606.104l0.592,0.729
					c-0.757,0.576-1.506,1.113-2.247,1.605c0.703,0.805,1.606,1.371,2.711,1.707c-0.24,0.352-0.439,0.67-0.604,0.953
					c-2.246-0.91-3.699-2.701-4.355-5.369h-1.089v4.09c0.618-0.316,1.294-0.695,2.027-1.129c0.008,0.385,0.027,0.723,0.058,1.018
					c-0.594,0.307-1.332,0.73-2.213,1.268c-0.107,0.074-0.269,0.215-0.486,0.424l-0.613-0.865c0.247-0.275,0.37-0.584,0.37-0.928
					V599.59h5.734v6.451h-0.845v-0.313h-2.097c0.223,0.785,0.529,1.475,0.914,2.068
					C506.051,607.264,506.765,606.697,507.437,606.104z M506.477,600.443h-4.032v1.793h4.032V600.443z M506.477,604.873v-1.809
					h-4.032v1.809H506.477z"/>
				<path fill="#231815" d="M508.793,606.492c1.196-1.063,2.285-2.555,3.267-4.48l0.811,0.541c-0.399,0.742-0.819,1.438-1.263,2.088
					v6.646h-0.962v-5.352c-0.463,0.566-0.947,1.092-1.447,1.574C509.074,607.156,508.939,606.818,508.793,606.492z M508.851,602.514
					c1.228-1.029,2.216-2.227,2.965-3.59l0.835,0.553c-0.896,1.488-2.009,2.824-3.337,4.004
					C509.175,603.162,509.02,602.842,508.851,602.514z M512.985,603.682h7.331v0.941h-2.245v4.906c0,1.039-0.482,1.557-1.448,1.557
					c-0.649,0-1.31-0.004-1.981-0.01c-0.046-0.338-0.104-0.713-0.172-1.131c0.601,0.066,1.206,0.1,1.818,0.1
					c0.532,0,0.799-0.287,0.799-0.854v-4.568h-4.102V603.682z M513.658,599.891h6.012v0.941h-6.012V599.891z"/>
				<path fill="#231815" d="M528.675,609.662h-1.279L526.479,607h-3.734l-0.864,2.662h-1.279l3.417-9.721h1.239L528.675,609.662z
					 M526.119,605.902l-1.353-4.041c-0.045-0.131-0.09-0.355-0.14-0.678h-0.029c-0.043,0.293-0.091,0.52-0.146,0.678l-1.344,4.041
					H526.119z"/>
				<path fill="#231815" d="M535.394,601.061h-2.589v8.602h-1.165v-8.602h-2.575v-1.119h6.329V601.061z"/>
				<path fill="#231815" d="M544.887,609.662v-6.439c0-0.531,0.029-1.168,0.087-1.914h-0.029c-0.101,0.469-0.189,0.795-0.267,0.979
					l-2.959,7.375h-0.643l-2.954-7.316c-0.07-0.17-0.159-0.514-0.266-1.037h-0.037c0.041,0.451,0.061,1.107,0.061,1.973v6.381
					h-1.107v-9.721h1.57l2.646,6.666c0.201,0.508,0.333,0.906,0.398,1.189h0.041c0.201-0.598,0.341-1.002,0.424-1.217l2.693-6.639
					h1.492v9.721H544.887z"/>
				<path fill="#231815" d="M547.355,606.846c0.863-1.398,1.479-2.904,1.847-4.52h-1.73v-0.854h1.804V599h0.835v2.473h1.622v0.854
					h-1.622v2.082l0.463-0.5c0.596,0.584,1.063,1.061,1.401,1.428l-0.623,0.693c-0.475-0.568-0.889-1.043-1.241-1.418v6.625h-0.835
					v-6.727c-0.41,1.418-0.925,2.564-1.539,3.439C547.612,607.57,547.485,607.203,547.355,606.846z M553.458,600.758v4.152
					c0,2.998-0.689,5.166-2.074,6.516c-0.215-0.285-0.443-0.568-0.681-0.854c1.22-1.164,1.829-2.975,1.829-5.436v-5.334h4.31v9.439
					c0,0.418,0.134,0.627,0.405,0.627h0.267c0.246,0,0.405-0.234,0.473-0.703c0.079-0.645,0.134-1.34,0.163-2.084
					c0.271,0.143,0.565,0.277,0.881,0.402c-0.07,0.828-0.14,1.506-0.209,2.033c-0.124,0.887-0.518,1.33-1.182,1.33h-0.613
					c-0.74,0-1.111-0.477-1.111-1.432v-8.658H553.458z"/>
			</g>
		</g>
	</g>
	<g>
		<g>
			<g>
				<rect x="607.118" y="558.652" fill="#E50012" width="42.316" height="41.438"/>
				<g>
					<path fill-rule="evenodd" clip-rule="evenodd" fill="#FFFFFF" d="M615.153,564.371h4.504v29.811h-4.504V564.371
						L615.153,564.371z M636.917,564.371h4.504v29.867h-4.504V564.371L636.917,564.371z M625.716,566.486l2.52-2.07l2.543,2.043
						l-0.012,1.576l-1.836-1.508l0.023,3.713l-1.451-0.002l0.02-3.658l-1.813,1.49L625.716,566.486L625.716,566.486z
						 M625.81,592.303l2.516,2.07l2.543-2.053l-0.012-1.559l-1.834,1.498l0.031-3.721l-1.463,0.016l0.025,3.65l-1.822-1.477
						L625.81,592.303L625.81,592.303z M626.3,572.305c-0.449,0-0.822,0.375-0.822,0.842c0,0.441,0.373,0.816,0.822,0.816
						c0.455,0,0.826-0.375,0.826-0.816C627.126,572.68,626.755,572.305,626.3,572.305L626.3,572.305z M627.683,574.436l-2.574-0.025
						c-0.715-0.059-0.988,0.32-1.016,0.885l0.01,4.871c0.117,0.369,0.666,0.355,0.766,0.027c0-1.418,0-2.754,0-4.162
						c0.023-0.068,0.197-0.08,0.223,0l0.004,9.686c0.162,0.455,0.691,0.689,1.01,0.016l0.004-5.84
						c0.043-0.207,0.41-0.193,0.422,0.014v5.811c0.293,0.574,0.805,0.586,1.008-0.031v-9.654c0.029-0.068,0.223-0.1,0.252-0.033
						l0.75,1.498c0.057,0.164,0.219,0.305,0.428,0.223l1.938-1.213c0.23-0.439-0.262-0.711-0.396-0.68l-1.41,0.844l-0.488-1.297
						C628.446,574.994,628.325,574.426,627.683,574.436L627.683,574.436z M631.983,573.15c0.271,0,0.496,0.227,0.496,0.504
						c0,0.271-0.225,0.5-0.496,0.5c-0.273,0-0.494-0.229-0.494-0.5C631.489,573.377,631.71,573.15,631.983,573.15L631.983,573.15z
						 M631.983,574.539c0.271,0,0.496,0.219,0.496,0.506c0,0.273-0.225,0.492-0.496,0.492c-0.273,0-0.494-0.219-0.494-0.492
						C631.489,574.758,631.71,574.539,631.983,574.539L631.983,574.539z M631.983,575.922c0.271,0,0.496,0.234,0.496,0.512
						c0,0.27-0.225,0.498-0.496,0.498c-0.273,0-0.494-0.229-0.494-0.498C631.489,576.156,631.71,575.922,631.983,575.922
						L631.983,575.922z M631.983,577.254c0.271,0,0.496,0.227,0.496,0.5c0,0.277-0.225,0.496-0.496,0.496
						c-0.273,0-0.494-0.219-0.494-0.496C631.489,577.48,631.71,577.254,631.983,577.254L631.983,577.254z M621.028,570.406
						l14.52,0.041l0.016,17.857l-14.557-0.02L621.028,570.406L621.028,570.406z M622.505,571.822l11.498,0.035l0.01,15.08
						l-11.52-0.016L622.505,571.822z"/>
					<path fill="#FFFFFF" d="M614.938,562.012h26.689c2.205,0,4.01,1.801,4.01,4.016v26.705c0,2.195-1.805,4-4.01,4h-26.689
						c-2.195,0-4.002-1.805-4.002-4v-26.705C610.937,563.813,612.743,562.012,614.938,562.012L614.938,562.012z M614.938,563.344
						c-1.469,0-2.67,1.203-2.67,2.684v26.705c0,1.461,1.201,2.676,2.67,2.676h26.689c1.471,0,2.68-1.215,2.68-2.676v-26.705
						c0-1.48-1.209-2.684-2.68-2.684H614.938z"/>
				</g>
			</g>
			<g>
				<g>
					<path fill="#231815" d="M616.714,613.031h4.133v-1.436h0.93v1.436h4.146v6.301h-4.146v1.313c0,0.457,0.24,0.684,0.717,0.684
						h2.623c0.508,0,0.818-0.168,0.93-0.504c0.119-0.367,0.207-0.895,0.258-1.582c0.217,0.098,0.525,0.213,0.93,0.348
						c-0.09,0.6-0.189,1.109-0.303,1.535c-0.186,0.703-0.693,1.055-1.521,1.055h-2.98c-1.055,0-1.582-0.516-1.582-1.547v-1.301
						h-3.203v0.773h-0.93V613.031z M617.644,615.777h3.203v-1.904h-3.203V615.777z M617.644,618.492h3.203v-1.92h-3.203V618.492z
						 M624.993,613.873h-3.217v1.904h3.217V613.873z M624.993,618.492v-1.92h-3.217v1.92H624.993z"/>
					<path fill="#231815" d="M627.591,618.627c0.787-1.219,1.338-2.537,1.658-3.959h-1.477v-0.783h1.5v-2.289h0.807v2.289h1.301
						v0.783h-1.301v1.078l0.336-0.324c0.396,0.379,0.799,0.787,1.211,1.221l-0.582,0.549c-0.375-0.457-0.693-0.818-0.965-1.088
						v6.537h-0.807v-5.908c-0.373,1.217-0.814,2.178-1.322,2.881C627.853,619.289,627.733,618.963,627.591,618.627z
						 M636.399,611.539l0.807,0.406c-0.346,0.5-0.67,0.953-0.977,1.355h1.736v3.195h-0.805v-0.314h-1.928v1.414h3.35
						c-0.119,1.219-0.221,2.092-0.301,2.621c-0.105,0.674-0.576,1.008-1.412,1.008c-0.381,0-0.809-0.033-1.277-0.1
						c-0.047-0.357-0.098-0.668-0.158-0.928c0.531,0.104,0.949,0.164,1.256,0.178c0.434,0.021,0.688-0.086,0.762-0.324
						c0.098-0.434,0.18-1.006,0.246-1.717h-2.465v4.307h-0.807v-3.689c-0.875,1.15-1.977,2.115-3.305,2.893
						c-0.188-0.246-0.389-0.479-0.605-0.695c1.471-0.732,2.658-1.672,3.563-2.814h-2.465l0.369-2.893h2.443v-1.402h-2.609v-0.738
						h1.557c-0.246-0.457-0.535-0.904-0.863-1.344l0.684-0.418c0.352,0.459,0.662,0.906,0.93,1.348l-0.648,0.414h1.793
						C635.647,612.748,636.024,612.162,636.399,611.539z M632.511,617.596h1.916v-1.414h-1.748L632.511,617.596z M637.161,614.039
						h-1.928v1.402h1.928V614.039z"/>
				</g>
			</g>
		</g>
		<g>
			<g>
				<rect x="675.249" y="558.652" fill="#E50012" width="41.459" height="41.484"/>
				<g>
					<path fill-rule="evenodd" clip-rule="evenodd" fill="#FFFFFF" d="M694.065,566.77c0.965,0,1.754,0.783,1.754,1.754
						c0,0.963-0.789,1.746-1.754,1.746c-0.969,0-1.762-0.783-1.762-1.746C692.304,567.553,693.097,566.77,694.065,566.77
						L694.065,566.77z M692.21,578.449l-7.141,5.715c0,0-1.09-0.143-2.215,0.273c-0.674,0.242-1.352,0.732-1.809,1.426
						c-1.377,2.098-0.488,5.625,2.225,6.08c0.912,0.15,3.846,0.02,3.846,0.02l19.549-15.523l1.844,0.01c0,0,2.289-0.527,2.793-2.486
						c0.504-1.949,0.064-3.482-0.789-4.313c-0.848-0.861-1.867-1.139-1.867-1.139h-4.271l-8.564,6.953l-0.068-3.061
						c0,0,0-1.576-1.561-1.609c-1.557-0.035-1.92,1.082-1.92,1.545C692.261,572.787,692.21,578.449,692.21,578.449L692.21,578.449z
						 M685.421,585.412c-1.117-0.027-2.043-0.084-2.641,0.316c-2.123,1.438-1.203,5.117,1.162,5.082l2.787-0.049l19.479-15.641
						c0.014-0.01,1.988,0.053,2.447-0.041c0.463-0.102,1.699-0.986,1.629-2.809c-0.059-1.811-1.756-2.506-1.756-2.506l-3.752,0.021
						L685.421,585.412z"/>
					<path fill="#FFFFFF" d="M682.54,561.938h26.834c2.217,0,4.029,1.813,4.029,4.029v26.859c0,2.203-1.813,4.025-4.029,4.025
						H682.54c-2.213,0-4.02-1.822-4.02-4.025v-26.859C678.521,563.75,680.327,561.938,682.54,561.938L682.54,561.938z
						 M682.54,563.277c-1.473,0-2.682,1.209-2.682,2.689v26.859c0,1.469,1.209,2.684,2.682,2.684h26.834
						c1.486,0,2.693-1.215,2.693-2.684v-26.859c0-1.48-1.207-2.689-2.693-2.689H682.54z"/>
				</g>
			</g>
			<g>
				<path fill="#231815" d="M679.228,618.066h5.051v-2.008h-4.266v-0.883h4.266v-2.025c-1.414,0.057-2.854,0.104-4.313,0.139
					c-0.047-0.313-0.102-0.619-0.168-0.916c3.816-0.063,6.912-0.195,9.287-0.404l0.146,0.92c-1.314,0.08-2.652,0.152-4.01,0.217
					v2.07h4.064v0.883h-4.064v2.008h5.029v0.885h-5.029v2.064c0,0.908-0.465,1.369-1.391,1.379c-0.471,0-1.123-0.004-1.961-0.01
					c-0.037-0.344-0.098-0.688-0.178-1.021c0.834,0.059,1.467,0.088,1.891,0.088c0.465,0,0.695-0.25,0.695-0.752v-1.748h-5.051
					V618.066z"/>
				<path fill="#231815" d="M690.587,617.629c0.521-0.141,1.084-0.299,1.682-0.471v-2.467h-1.49v-0.773h1.49v-2.219h0.873v2.219
					h1.389v0.773h-1.389v2.211c0.396-0.121,0.811-0.252,1.244-0.396c0.008,0.385,0.014,0.684,0.021,0.9
					c-0.344,0.096-0.766,0.223-1.266,0.379v3.432c0,0.83-0.365,1.244-1.098,1.244c-0.283,0-0.656-0.004-1.119-0.012
					c-0.037-0.283-0.092-0.584-0.158-0.906c0.418,0.035,0.762,0.055,1.031,0.055c0.314,0,0.471-0.18,0.471-0.537v-2.994
					c-0.471,0.15-0.99,0.318-1.559,0.506L690.587,617.629z M694.722,616.586h2.668c0.059-0.566,0.092-1.307,0.1-2.219h-2.396v-0.809
					h2.396c0.016-0.611,0.021-1.268,0.021-1.973h0.887c0,0.719-0.004,1.377-0.012,1.973h2.857v0.809h-2.857
					c-0.008,0.824-0.037,1.563-0.09,2.219h3.373v0.809h-3.182c0.531,2.092,1.621,3.521,3.271,4.281
					c-0.277,0.285-0.535,0.557-0.773,0.818c-1.51-0.955-2.521-2.389-3.037-4.293c-0.508,1.869-1.666,3.342-3.473,4.418
					c-0.164-0.225-0.373-0.486-0.627-0.785c1.889-0.957,3.031-2.436,3.428-4.439h-2.555V616.586z"/>
				<path fill="#231815" d="M702.06,618.629c0.785-1.219,1.338-2.539,1.658-3.959h-1.479v-0.785h1.5v-2.287h0.809v2.287h1.301v0.785
					h-1.301v1.076l0.336-0.324c0.395,0.379,0.799,0.787,1.209,1.221l-0.582,0.551c-0.373-0.457-0.695-0.82-0.963-1.088v6.535h-0.809
					v-5.908c-0.373,1.219-0.814,2.18-1.32,2.883C702.321,619.291,702.202,618.963,702.06,618.629z M710.866,611.541l0.807,0.404
					c-0.342,0.502-0.67,0.953-0.975,1.355h1.736v3.195h-0.807v-0.313H709.7v1.412h3.352c-0.121,1.219-0.221,2.094-0.303,2.623
					c-0.107,0.674-0.576,1.008-1.412,1.008c-0.383,0-0.807-0.033-1.277-0.1c-0.045-0.359-0.098-0.67-0.156-0.928
					c0.529,0.104,0.949,0.162,1.254,0.178c0.434,0.021,0.689-0.088,0.762-0.326c0.1-0.434,0.182-1.006,0.246-1.715H709.7v4.305
					h-0.805v-3.689c-0.873,1.152-1.977,2.115-3.307,2.893c-0.186-0.246-0.387-0.477-0.605-0.693c1.473-0.732,2.66-1.672,3.564-2.814
					h-2.467l0.371-2.893h2.443v-1.402h-2.611v-0.74h1.557c-0.246-0.455-0.533-0.902-0.863-1.344l0.684-0.416
					c0.352,0.457,0.662,0.906,0.932,1.348l-0.65,0.412h1.793C710.116,612.748,710.493,612.164,710.866,611.541z M706.978,617.596
					h1.918v-1.412h-1.75L706.978,617.596z M711.628,614.041H709.7v1.402h1.928V614.041z"/>
			</g>
		</g>
		<g>
			<g>
				<rect x="743.376" y="558.652" fill="#E50012" width="41.441" height="41.941"/>
				<g>
					<polygon fill-rule="evenodd" clip-rule="evenodd" fill="#FFFFFF" points="752.313,563.971 757.214,563.971 764.249,574.131 
						771.39,564.15 776.665,564.15 766.599,577.785 766.599,578.549 774.749,578.58 774.749,581.93 766.636,581.93 766.636,584.195 
						774.749,584.195 774.749,587.334 766.655,587.334 766.655,593.871 761.968,593.871 761.968,587.387 754.024,587.387 
						754.024,584.217 761.962,584.217 761.962,581.969 754.024,581.969 754.024,578.596 761.956,578.596 761.956,577.791 					"/>
					<g>
						<path fill="#FFFFFF" d="M750.688,560.975h27.596c2.27,0,4.133,1.861,4.133,4.133v27.613c0,2.281-1.863,4.141-4.133,4.141
							h-27.596c-2.275,0-4.139-1.859-4.139-4.141v-27.613C746.55,562.836,748.413,560.975,750.688,560.975L750.688,560.975z
							 M750.688,562.35c-1.516,0-2.76,1.244-2.76,2.758v27.613c0,1.523,1.244,2.771,2.76,2.771h27.596
							c1.521,0,2.76-1.248,2.76-2.771v-27.613c0-1.514-1.238-2.758-2.76-2.758H750.688z"/>
						<g>
							<g>
								<polygon fill-rule="evenodd" clip-rule="evenodd" fill="#FFFFFF" points="753.583,589.109 754.019,589.109 754.019,589.104 
									754.009,589.104 753.665,588.43 753.665,588.424 753.37,588.424 753.37,588.268 754.126,588.268 754.126,588.424 
									753.94,588.424 754.278,589.064 754.329,589.064 754.696,588.424 754.499,588.424 754.499,588.268 755.251,588.268 
									755.251,588.424 754.974,588.424 754.974,588.43 754.608,589.064 754.616,589.064 754.616,589.109 755.038,589.109 
									755.038,589.256 754.616,589.256 754.616,589.486 755.038,589.486 755.038,589.65 754.616,589.65 754.616,590.541 
									754.931,590.541 754.931,590.705 753.692,590.705 753.692,590.541 754.019,590.541 754.019,589.65 753.583,589.65 
									753.583,589.486 754.019,589.486 754.019,589.256 753.583,589.256 								"/>
								<path fill-rule="evenodd" clip-rule="evenodd" fill="#FFFFFF" d="M751.937,586.438c0.195-0.438,0.629-0.332,0.762,0v0.949
									h0.273v-1.27c0.193-0.42,0.602-0.348,0.771,0v1.27h0.271v-1.564c0.174-0.41,0.584-0.41,0.77,0v1.564h0.27v-1.254
									c0.123-0.395,0.674-0.432,0.77,0v1.254h2.287v4.166h-1.371c-0.043,1.361-1.092,2.461-2.379,2.461
									c-1.293,0-2.342-1.1-2.391-2.461h-1.508v-4.166h1.475V586.438L751.937,586.438z M755.94,589.471
									c0.191-0.904,0.631-0.672,0.764,0v1.865h1.156v-3.713h-7.18v3.713h5.26V589.471z"/>
							</g>
							<path fill="#FFFFFF" d="M749.806,583.926h8.969c0.738,0,1.348,0.605,1.348,1.35v8.979c0,0.748-0.609,1.348-1.348,1.348
								h-8.969c-0.748,0-1.352-0.6-1.352-1.348v-8.979C748.454,584.531,749.058,583.926,749.806,583.926L749.806,583.926z
								 M749.806,584.375c-0.498,0-0.904,0.41-0.904,0.9v8.979c0,0.5,0.406,0.912,0.904,0.912h8.969
								c0.502,0,0.902-0.412,0.902-0.912v-8.979c0-0.49-0.4-0.9-0.902-0.9H749.806z"/>
						</g>
					</g>
				</g>
			</g>
			<g>
				<path fill="#231815" d="M751.481,611.607h0.852v10.955h-0.852v-3.459c-0.457,0.254-0.92,0.535-1.389,0.846
					c-0.195,0.143-0.385,0.311-0.572,0.504l-0.641-0.75c0.232-0.246,0.348-0.566,0.348-0.965v-5.559h0.854v5.74
					c0.443-0.236,0.91-0.488,1.4-0.752V611.607z M752.489,616.328c0.955-1.658,1.648-3.262,2.074-4.809l0.906,0.258
					c-0.238,0.691-0.49,1.354-0.75,1.986h4.885v0.826h-1.316c-0.113,2.164-0.666,3.928-1.664,5.287
					c0.758,0.672,1.832,1.258,3.229,1.756c-0.234,0.291-0.447,0.59-0.641,0.896c-1.328-0.568-2.391-1.225-3.182-1.969
					c-0.721,0.711-1.719,1.4-2.992,2.07c-0.156-0.246-0.348-0.498-0.572-0.752c1.273-0.641,2.258-1.301,2.953-1.984
					c-0.861-1.08-1.422-2.424-1.674-4.025c-0.211,0.406-0.426,0.799-0.65,1.176C752.952,616.83,752.749,616.59,752.489,616.328z
					 M757.401,614.59h-2.979c0.107,1.826,0.633,3.361,1.578,4.609C756.854,617.998,757.321,616.463,757.401,614.59z"/>
				<path fill="#231815" d="M764.13,620.051c0.008,0.33,0.027,0.633,0.057,0.908c-0.545,0.307-1.135,0.676-1.771,1.111
					c-0.186,0.133-0.365,0.287-0.537,0.459l-0.594-0.775c0.246-0.24,0.371-0.52,0.371-0.838v-2.49h-1.537v-0.773h1.537v-1.639
					h-0.764v-0.76c-0.119,0.188-0.242,0.365-0.369,0.537c-0.143-0.27-0.303-0.523-0.48-0.764c0.73-1.023,1.311-2.178,1.734-3.465
					l0.818,0.27c-0.186,0.51-0.393,0.996-0.615,1.457h2.063v0.773h-2.455c-0.217,0.414-0.449,0.807-0.695,1.18h2.879v0.771h-1.311
					v1.639h1.625v0.773h-1.625v2.668C762.925,620.811,763.479,620.461,764.13,620.051z M770.28,617.92l0.572,0.652
					c-0.732,0.516-1.455,0.994-2.174,1.432c0.68,0.719,1.553,1.227,2.623,1.525c-0.232,0.314-0.428,0.6-0.584,0.855
					c-2.174-0.816-3.576-2.416-4.213-4.801h-1.053v3.654c0.598-0.283,1.252-0.617,1.961-1.008c0.008,0.344,0.025,0.646,0.057,0.908
					c-0.576,0.275-1.289,0.654-2.141,1.133c-0.105,0.068-0.262,0.191-0.471,0.381l-0.594-0.773c0.24-0.246,0.359-0.523,0.359-0.83
					v-8.947h5.545v5.762h-0.816v-0.279h-2.029c0.217,0.701,0.512,1.32,0.885,1.85C768.94,618.955,769.632,618.451,770.28,617.92z
					 M769.353,612.865h-3.9v1.602h3.9V612.865z M769.353,616.822v-1.613h-3.9v1.613H769.353z"/>
				<path fill="#231815" d="M779.503,613.021c1.172,1.092,2.283,2.211,3.326,3.352l-0.793,0.662
					c-0.301-0.352-0.604-0.697-0.91-1.037c-3.354,0.143-5.916,0.262-7.686,0.363c-0.41,0.029-0.807,0.09-1.188,0.18l-0.369-0.965
					c0.342-0.125,0.654-0.301,0.93-0.525c1.277-1.047,2.445-2.254,3.508-3.621l0.838,0.516c-1.119,1.314-2.287,2.486-3.506,3.51
					c2.289-0.072,4.543-0.154,6.756-0.246c-0.512-0.559-1.029-1.1-1.557-1.627L779.503,613.021z M781.149,617.471v5.092h-0.918
					v-0.74h-6.164v0.74h-0.918v-5.092H781.149z M780.231,618.301h-6.164v2.715h6.164V618.301z"/>
			</g>
		</g>
	</g>
</g>
<rect x="42.783" y="49.422" fill="#B3B3B3" width="942.333" height="468.834"/>
<polyline fill="#CCCCCC" points="51.53,61.376 51.53,287.046 66.108,287.046 66.108,369.85 50.363,369.85 50.071,506.885 
	616.869,506.01 617.162,57.878 53.862,57.878 "/>
<g>
	<path fill="#231815" d="M350.984,4.602l0.928-0.66c1.05,0.646,2.204,2.306,3.459,4.977c1.753,3.833,3.656,6.173,5.708,7.017
		l-0.984,1.237c-2.052-1.218-3.95-3.787-5.694-7.705c-0.141-0.314-0.279-0.614-0.416-0.9c-1.087,3.726-3.109,6.623-6.066,8.69
		c-0.252-0.375-0.54-0.728-0.857-1.055c3.041-1.917,5.089-4.95,6.145-9.097C352.471,5.877,351.729,5.043,350.984,4.602z"/>
	<path fill="#231815" d="M362.864,5.193h11.165v11.839h-1.21v-1.364h-8.745v1.364h-1.209V5.193z M372.819,14.613V6.248h-8.745v8.366
		H372.819z"/>
</g>
<g>
	<path fill="#231815" d="M823.749,4.602l0.93-0.66c1.048,0.646,2.202,2.306,3.458,4.977c1.752,3.833,3.654,6.173,5.708,7.017
		l-0.983,1.237c-2.055-1.218-3.951-3.787-5.695-7.705c-0.142-0.314-0.279-0.614-0.415-0.9c-1.087,3.726-3.11,6.623-6.068,8.69
		c-0.252-0.375-0.536-0.728-0.856-1.055c3.042-1.917,5.09-4.95,6.145-9.097C825.235,5.877,824.494,5.043,823.749,4.602z"/>
	<path fill="#231815" d="M835.629,5.193h11.165v11.839h-1.21v-1.364h-8.744v1.364h-1.211V5.193z M845.584,14.613V6.248h-8.744v8.366
		H845.584z"/>
</g>
<g>
	<path fill="#231815" d="M633.713,3.435l0.929-0.66c1.048,0.647,2.202,2.306,3.458,4.977c1.752,3.834,3.655,6.173,5.708,7.017
		l-0.983,1.236c-2.055-1.218-3.951-3.787-5.695-7.704c-0.141-0.314-0.279-0.614-0.413-0.901c-1.088,3.727-3.111,6.623-6.069,8.69
		c-0.252-0.375-0.537-0.727-0.857-1.055c3.044-1.916,5.092-4.949,6.146-9.097C635.199,4.71,634.458,3.876,633.713,3.435z"/>
	<path fill="#231815" d="M645.594,4.027h11.163v11.838h-1.208v-1.364h-8.745v1.364h-1.21V4.027z M655.549,13.447V5.081h-8.745v8.366
		H655.549z"/>
</g>
<rect x="618.909" y="57.941" fill="#E6E6E6" width="58.021" height="447.779"/>
<g>
	<g>
		<g>
			<g>
				<polygon fill="#E81B2B" points="347.383,24.881 360.539,54.899 373.692,24.881 				"/>
			</g>
		</g>
	</g>
</g>
<g>
	<g>
		<g>
			<g>
				<polygon fill="#E81B2B" points="821.203,24.879 834.358,54.899 847.512,24.879 				"/>
			</g>
		</g>
	</g>
</g>
<g>
	<path fill="#231815" d="M6.923,324.397l0.927-0.661c1.05,0.646,2.204,2.307,3.46,4.976c1.752,3.837,3.655,6.174,5.707,7.017
		l-0.984,1.239c-2.052-1.22-3.95-3.788-5.694-7.708c-0.141-0.313-0.279-0.614-0.416-0.898c-1.086,3.725-3.109,6.62-6.066,8.688
		c-0.252-0.376-0.54-0.726-0.857-1.054c3.041-1.917,5.089-4.95,6.145-9.098C8.409,325.671,7.667,324.838,6.923,324.397z"/>
	<path fill="#231815" d="M18.802,324.987h11.165v11.84h-1.209v-1.364h-8.745v1.364h-1.21V324.987z M28.757,334.409v-8.366h-8.745
		v8.366H28.757z"/>
</g>
<g>
	<g>
		<g>
			<g>
				<polygon fill="#E81B2B" points="33.65,345.611 63.67,332.456 33.65,319.303 				"/>
			</g>
		</g>
	</g>
</g>
<g>
	<g>
		<g>
			<g>
				<polygon fill="#E81B2B" points="632.53,23.714 645.686,53.733 658.839,23.714 				"/>
			</g>
		</g>
	</g>
</g>
<g>
	<path fill="#231815" d="M995.018,140.636l0.929-0.661c1.048,0.646,2.201,2.305,3.458,4.978c1.752,3.833,3.654,6.172,5.709,7.017
		l-0.984,1.236c-2.053-1.218-3.952-3.787-5.695-7.705c-0.141-0.315-0.279-0.614-0.414-0.9c-1.088,3.726-3.111,6.623-6.067,8.689
		c-0.253-0.375-0.538-0.727-0.857-1.054c3.042-1.917,5.09-4.95,6.145-9.097C996.504,141.911,995.762,141.077,995.018,140.636z"/>
	<path fill="#231815" d="M1006.897,141.227h11.165v11.839h-1.21v-1.365h-8.745v1.365h-1.21V141.227z M1016.853,150.647v-8.367
		h-8.745v8.367H1016.853z"/>
</g>
<g>
	<g>
		<g>
			<g>
				<polygon fill="#E81B2B" points="989.332,134.607 959.31,147.762 989.332,160.916 				"/>
			</g>
		</g>
	</g>
</g>
<g>
	<rect x="199.103" y="385.288" fill="#999999" width="53.257" height="15.069"/>
	<rect x="198.214" y="303.331" fill="#999999" width="53.85" height="15.664"/>
	<rect x="196.242" y="67.915" fill="#999999" width="141.981" height="76.029"/>
	<rect x="396.054" y="68.445" fill="#999999" width="76.534" height="75.582"/>
	<rect x="498.625" y="258.749" fill="#999999" width="59.961" height="43.399"/>
	<rect x="498.625" y="302.148" fill="#999999" width="59.964" height="43.786"/>
	<polygon fill="#999999" points="200.69,182.62 268.232,182.62 268.232,287.945 240.536,287.945 240.536,256.781 201.069,256.781 	
		"/>
	<rect x="205.514" y="338.046" fill="#999999" width="46.549" height="27.614"/>
	<rect x="498.625" y="346.332" fill="#999999" width="59.961" height="44.181"/>
	<polygon fill="#999999" points="538.476,250.357 538.476,200.716 498.625,200.716 498.625,258.749 530.104,258.749 
		530.104,258.804 558.733,258.804 558.733,250.357 	"/>
	<rect x="67.834" y="417.834" fill="#999999" width="55.485" height="49.606"/>
	<rect x="558.341" y="317.138" fill="#999999" width="62.185" height="73.375"/>
	<polygon fill="#999999" points="572.578,199.577 572.578,250.418 558.344,250.418 558.344,317.138 620.525,317.138 
		620.525,199.577 	"/>
	<rect x="638.821" y="424.656" fill="#999999" width="28.403" height="40.834"/>
	<polygon fill="#999999" points="587.868,438.293 528.297,438.293 528.297,438.48 498.314,438.48 498.314,463.718 536.975,463.718 
		536.975,445.191 587.868,445.191 	"/>
	<path fill="#999999" d="M942.031,234.712L942.031,234.712h22.885v-68.75h-22.885v-28.122h-0.301l0.301-17.969l22.096-0.097
		l-0.003-56.151h-86.792v3.124h-74.164v-3.907H681.664v448.426h120.324v-38.281h41.821v-0.393h28.008v13.674h26.82v24.996h64.7
		V400.329h-22.092v-28.901h-42.604V234.712H942.031z M801.988,232.074v-21.188h-9.863v-45.882h45.763v67.07H801.988z"/>
	<polygon fill="#999999" points="472.588,68.445 542.906,68.244 542.906,109.331 510.656,109.331 510.656,143.779 472.588,143.779 	
		"/>
	<polygon fill="#999999" points="543.005,67.825 543.005,81.444 572.397,81.444 572.397,110.471 607.9,110.471 607.9,68.271 	"/>
	<rect x="292.302" y="168.412" fill="#999999" width="48.525" height="50.299"/>
	<rect x="358.578" y="167.821" fill="#999999" width="50.299" height="50.299"/>
	<rect x="424.261" y="167.821" fill="#999999" width="50.891" height="50.299"/>
	<rect x="292.302" y="236.485" fill="#999999" width="48.525" height="52.051"/>
	<rect x="358.578" y="235.874" fill="#999999" width="50.299" height="52.05"/>
	<rect x="424.261" y="235.874" fill="#999999" width="50.891" height="52.05"/>
	<polygon fill="#999999" points="64.292,68.22 144.759,68.22 196.864,68.22 197.244,142.875 267.07,143.272 267.064,182.189 
		200.279,182.189 200.279,199.972 200.279,210.481 120.62,210.481 102.113,210.481 102.113,249.278 65.904,249.278 	"/>
	<g>
		<rect x="252.063" y="306.289" fill="#999999" width="43.79" height="37.872"/>
		<rect x="308.873" y="306.289" fill="#999999" width="48.521" height="36.69"/>
		<rect x="357.394" y="306.289" fill="#999999" width="49.708" height="36.67"/>
		<rect x="308.873" y="356.588" fill="#999999" width="48.521" height="36.095"/>
		<rect x="357.394" y="356.588" fill="#999999" width="49.708" height="36.076"/>
		<rect x="252.657" y="356.588" fill="#999999" width="43.787" height="35.209"/>
		<path fill="#999999" d="M475.152,337.063v-29.59h-48.82v83.881l48.522-0.149l0.297-24.557h-17.781c0,0,0-5.505,0-5.616
			c0,0.354-3.848-0.913-4.113-1.056c-3.164-1.692-4.609-4.982-4.927-8.417c0,0-0.3-8.135,9.342-9.175c9.645-1.031,0-0.588,0-0.588
			v-4.733H475.152z"/>
	</g>
	<rect x="83.946" y="386.987" fill="#999999" width="39.511" height="30.611"/>
	<rect x="497.621" y="184.707" fill="#999999" width="122.893" height="15.744"/>
	<rect x="195.05" y="424.902" fill="#999999" width="57.849" height="63.805"/>
	<rect x="252.899" y="424.902" fill="#999999" width="56.351" height="64.222"/>
	<rect x="308.35" y="424.902" fill="#999999" width="56.351" height="64.202"/>
	<polygon fill="#999999" points="364.701,424.902 364.701,488.994 402.367,488.994 402.367,473.35 419.551,473.35 419.551,424.902 	
		"/>
	<rect x="420.411" y="424.902" fill="#999999" width="57.85" height="48.153"/>
	<rect x="144.114" y="413.495" fill="#999999" width="50.682" height="15.167"/>
	<line fill="#999999" x1="690.929" y1="109.046" x2="690.929" y2="146.658"/>
</g>
<line fill="#E6E6E6" x1="685.97" y1="104.09" x2="685.97" y2="141.702"/>
<g>
	<rect x="629.04" y="229.243" fill="#999999" width="40.239" height="24.854"/>
	<rect x="629.634" y="173.619" fill="#999999" width="18.936" height="46.747"/>
	<rect x="648.961" y="173.619" fill="#999999" width="18.94" height="46.747"/>
</g>
<rect x="67.688" y="468.172" fill="#999999" width="55.712" height="37.692"/>
</svg>
