<?xml version="1.0" encoding="utf-8"?>
<!-- Generator: Adobe Illustrator 15.0.0, SVG Export Plug-In . SVG Version: 6.00 Build 0)  -->
<!DOCTYPE svg PUBLIC "-//W3C//DTD SVG 1.1//EN" "http://www.w3.org/Graphics/SVG/1.1/DTD/svg11.dtd">
<svg version="1.1" id="图层_1" xmlns="http://www.w3.org/2000/svg" xmlns:xlink="http://www.w3.org/1999/xlink" x="0px" y="0px"
	 width="1028px" height="680px" viewBox="0 0 1028 680" enable-background="new 0 0 1028 680" xml:space="preserve">
<polygon fill="#E50012" stroke="#231815" points="582.91,433.336 523.341,433.336 523.341,433.524 493.358,433.524 493.358,458.76 
	532.017,458.76 532.017,440.233 582.91,440.233 "/>
<g>
	<path fill="#FFFFFF" d="M497.319,439.254h3.123v8.98c0,0.738-0.344,1.106-1.03,1.106c-0.375,0-0.728-0.01-1.052-0.032
		c-0.029-0.222-0.074-0.483-0.132-0.787c0.376,0.06,0.7,0.09,0.974,0.09c0.302,0,0.455-0.152,0.455-0.453v-2.548h-1.551
		c0.022,1.697-0.284,2.993-0.919,3.887c-0.163-0.216-0.365-0.423-0.608-0.62c0.493-0.76,0.741-1.838,0.741-3.234V439.254z
		 M499.656,439.975h-1.551v2.125h1.551V439.975z M498.104,444.924h1.551v-2.138h-1.551V444.924z M501.361,439.3h5.468
		c-0.036,0.597-0.066,1.068-0.089,1.416c-0.058,1.145-0.64,1.705-1.749,1.682c-0.303-0.006-0.777-0.021-1.429-0.044
		c-0.042-0.287-0.092-0.579-0.144-0.874c0.547,0.067,1.037,0.108,1.473,0.123c0.636,0.021,0.979-0.28,1.031-0.908
		c0.021-0.191,0.041-0.402,0.054-0.631h-3.775v3.188h4.672v0.653c-0.296,1.295-0.835,2.423-1.621,3.384
		c0.639,0.604,1.43,1.075,2.375,1.411c-0.25,0.295-0.464,0.56-0.642,0.798c-0.908-0.427-1.678-0.954-2.308-1.584
		c-0.566,0.557-1.229,1.05-1.988,1.473c-0.14-0.244-0.291-0.487-0.453-0.731c0.738-0.376,1.374-0.827,1.91-1.349
		c-0.721-0.925-1.194-2.035-1.423-3.334h-0.521v5.504h-0.841V439.3z M505.999,443.972h-2.518c0.229,1.062,0.636,1.967,1.224,2.713
		C505.313,445.912,505.745,445.01,505.999,443.972z"/>
	<path fill="#FFFFFF" d="M511.069,438.502l0.83,0.354c-0.166,0.273-0.337,0.539-0.519,0.797h5.99v0.741
		c-0.688,0.836-1.626,1.563-2.819,2.187c1.24,0.451,2.72,0.729,4.436,0.837c-0.237,0.332-0.442,0.642-0.618,0.929
		c-1.923-0.254-3.536-0.684-4.841-1.289c-1.463,0.624-3.237,1.117-5.314,1.478c-0.125-0.228-0.277-0.486-0.453-0.773
		c1.847-0.285,3.453-0.687,4.816-1.208c-0.843-0.512-1.516-1.119-2.021-1.821c-0.573,0.681-1.204,1.31-1.897,1.889
		c-0.223-0.235-0.426-0.437-0.61-0.598C509.405,440.944,510.414,439.771,511.069,438.502z M508.744,444.989h3.222
		c0.053-0.358,0.099-0.756,0.134-1.196h0.897c-0.049,0.44-0.101,0.838-0.149,1.196h4.468c-0.075,1.322-0.144,2.248-0.212,2.78
		c-0.118,1.04-0.738,1.564-1.858,1.571c-0.438,0.008-1.09-0.007-1.961-0.044c-0.045-0.273-0.099-0.579-0.166-0.919
		c0.85,0.073,1.549,0.114,2.103,0.121c0.628-0.014,0.976-0.331,1.043-0.95c0.064-0.555,0.113-1.146,0.143-1.773h-3.693
		c-0.39,1.776-1.765,3.063-4.123,3.864c-0.17-0.243-0.352-0.489-0.543-0.741c2.119-0.687,3.374-1.728,3.762-3.123h-3.065V444.989z
		 M516.185,440.383h-4.944c0.595,0.713,1.359,1.3,2.293,1.76C514.599,441.646,515.484,441.06,516.185,440.383z"/>
	<path fill="#FFFFFF" d="M527.035,440.073c1.16,1.078,2.256,2.182,3.289,3.312l-0.787,0.654c-0.295-0.348-0.595-0.688-0.896-1.026
		c-3.313,0.141-5.847,0.26-7.595,0.361c-0.406,0.029-0.8,0.088-1.175,0.176l-0.366-0.952c0.341-0.124,0.645-0.3,0.918-0.521
		c1.266-1.031,2.42-2.225,3.468-3.575l0.83,0.509c-1.107,1.3-2.264,2.455-3.466,3.466c2.263-0.07,4.489-0.151,6.677-0.244
		c-0.505-0.55-1.021-1.084-1.54-1.604L527.035,440.073z M528.662,444.47v5.027h-0.907v-0.731h-6.091v0.731h-0.906v-5.027H528.662z
		 M527.755,445.289h-6.091v2.679h6.091V445.289z"/>
</g>
<g>
	<rect x="60.422" y="252.231" fill="#E50012" width="33.093" height="32.386"/>
	<g>
		<path fill-rule="evenodd" clip-rule="evenodd" fill="#FFFFFF" d="M66.707,256.7h3.522v23.299h-3.522V256.7L66.707,256.7z
			 M83.726,256.7h3.521v23.346h-3.521V256.7L83.726,256.7z M74.965,258.353l1.971-1.617l1.989,1.596l-0.009,1.23l-1.436-1.177
			l0.017,2.902l-1.132-0.003l0.013-2.856l-1.417,1.161L74.965,258.353L74.965,258.353z M75.041,278.53l1.966,1.619l1.989-1.603
			l-0.009-1.22l-1.434,1.173l0.025-2.91l-1.145,0.01l0.019,2.853l-1.425-1.151L75.041,278.53L75.041,278.53z M75.423,262.902
			c-0.352,0-0.642,0.291-0.642,0.654c0,0.348,0.29,0.639,0.642,0.639c0.355,0,0.646-0.292,0.646-0.639
			C76.069,263.193,75.779,262.902,75.423,262.902L75.423,262.902z M76.504,264.566l-2.014-0.018c-0.558-0.048-0.77,0.25-0.792,0.689
			l0.007,3.81c0.091,0.286,0.52,0.276,0.598,0.02c0-1.107,0-2.154,0-3.253c0.019-0.055,0.155-0.063,0.175,0l0.002,7.569
			c0.127,0.358,0.542,0.54,0.79,0.015l0.005-4.567c0.032-0.16,0.32-0.149,0.33,0.011v4.542c0.229,0.451,0.629,0.458,0.786-0.022
			v-7.546c0.023-0.055,0.176-0.076,0.198-0.025l0.586,1.169c0.044,0.128,0.173,0.239,0.335,0.173l1.515-0.947
			c0.182-0.344-0.205-0.555-0.311-0.528l-1.102,0.657l-0.382-1.014C77.103,265,77.007,264.559,76.504,264.566L76.504,264.566z
			 M79.867,263.563c0.211,0,0.389,0.175,0.389,0.392c0,0.213-0.178,0.393-0.389,0.393c-0.215,0-0.386-0.18-0.386-0.393
			C79.48,263.738,79.651,263.563,79.867,263.563L79.867,263.563z M79.867,264.649c0.211,0,0.389,0.168,0.389,0.395
			c0,0.212-0.178,0.384-0.389,0.384c-0.215,0-0.386-0.172-0.386-0.384C79.48,264.817,79.651,264.649,79.867,264.649L79.867,264.649z
			 M79.867,265.727c0.211,0,0.389,0.185,0.389,0.402c0,0.211-0.178,0.388-0.389,0.388c-0.215,0-0.386-0.177-0.386-0.388
			C79.48,265.911,79.651,265.727,79.867,265.727L79.867,265.727z M79.867,266.769c0.211,0,0.389,0.178,0.389,0.39
			c0,0.219-0.178,0.389-0.389,0.389c-0.215,0-0.386-0.17-0.386-0.389C79.48,266.947,79.651,266.769,79.867,266.769L79.867,266.769z
			 M71.299,261.42l11.357,0.027l0.01,13.957l-11.383-0.014L71.299,261.42L71.299,261.42z M72.454,262.524l8.993,0.027l0.006,11.786
			l-9.008-0.014L72.454,262.524z"/>
		<path fill="#FFFFFF" d="M66.538,254.856h20.873c1.724,0,3.136,1.406,3.136,3.137v20.873c0,1.718-1.412,3.126-3.136,3.126H66.538
			c-1.719,0-3.128-1.408-3.128-3.126v-20.873C63.409,256.262,64.819,254.856,66.538,254.856L66.538,254.856z M66.538,255.898
			c-1.148,0-2.089,0.938-2.089,2.095v20.873c0,1.144,0.94,2.09,2.089,2.09h20.873c1.15,0,2.094-0.946,2.094-2.09v-20.873
			c0-1.157-0.944-2.095-2.094-2.095H66.538z"/>
	</g>
</g>
<g>
	<rect x="452.247" y="290.048" fill="#E50012" width="32.289" height="32.66"/>
	<g>
		<polygon fill-rule="evenodd" clip-rule="evenodd" fill="#FFFFFF" points="459.209,294.191 463.026,294.191 468.509,302.102 
			474.072,294.33 478.181,294.33 470.34,304.947 470.34,305.542 476.69,305.566 476.69,308.175 470.368,308.175 470.368,309.938 
			476.69,309.938 476.69,312.383 470.383,312.383 470.383,317.47 466.73,317.47 466.73,312.423 460.542,312.423 460.542,309.956 
			466.727,309.956 466.727,308.205 460.542,308.205 460.542,305.578 466.724,305.578 466.724,304.953 		"/>
		<g>
			<path fill="#FFFFFF" d="M457.942,291.858h21.501c1.769,0,3.22,1.447,3.22,3.219v21.502c0,1.773-1.451,3.222-3.22,3.222h-21.501
				c-1.771,0-3.224-1.449-3.224-3.222v-21.502C454.719,293.305,456.171,291.858,457.942,291.858L457.942,291.858z M457.942,292.928
				c-1.183,0-2.151,0.967-2.151,2.149v21.502c0,1.186,0.969,2.156,2.151,2.156h21.501c1.186,0,2.149-0.97,2.149-2.156v-21.502
				c0-1.182-0.964-2.149-2.149-2.149H457.942z"/>
			<g>
				<g>
					<polygon fill-rule="evenodd" clip-rule="evenodd" fill="#FFFFFF" points="460.199,313.764 460.537,313.764 460.537,313.759 
						460.53,313.759 460.262,313.236 460.262,313.231 460.032,313.231 460.032,313.109 460.619,313.109 460.619,313.231 
						460.478,313.231 460.741,313.732 460.78,313.732 461.065,313.231 460.911,313.231 460.911,313.109 461.497,313.109 
						461.497,313.231 461.28,313.231 461.28,313.236 460.998,313.732 461.002,313.732 461.002,313.764 461.333,313.764 
						461.333,313.881 461.002,313.881 461.002,314.061 461.333,314.061 461.333,314.187 461.002,314.187 461.002,314.88 
						461.248,314.88 461.248,315.007 460.285,315.007 460.285,314.88 460.537,314.88 460.537,314.187 460.199,314.187 
						460.199,314.061 460.537,314.061 460.537,313.881 460.199,313.881 					"/>
					<path fill-rule="evenodd" clip-rule="evenodd" fill="#FFFFFF" d="M458.915,311.687c0.154-0.343,0.492-0.26,0.594,0v0.737h0.214
						v-0.988c0.15-0.328,0.468-0.271,0.6,0v0.988h0.212v-1.217c0.135-0.319,0.456-0.319,0.6,0v1.217h0.209v-0.975
						c0.095-0.307,0.524-0.336,0.6,0v0.975h1.782v3.243h-1.068c-0.032,1.063-0.851,1.917-1.854,1.917
						c-1.006,0-1.824-0.854-1.862-1.917h-1.177v-3.243h1.15V311.687L458.915,311.687z M462.035,314.047
						c0.147-0.706,0.493-0.525,0.595,0v1.452h0.898v-2.891h-5.592v2.891h4.099V314.047z"/>
				</g>
				<path fill="#FFFFFF" d="M457.255,309.729h6.988c0.575,0,1.05,0.473,1.05,1.05v6.991c0,0.581-0.475,1.049-1.05,1.049h-6.988
					c-0.584,0-1.054-0.468-1.054-1.049v-6.991C456.201,310.202,456.671,309.729,457.255,309.729L457.255,309.729z M457.255,310.078
					c-0.389,0-0.704,0.319-0.704,0.702v6.991c0,0.39,0.315,0.708,0.704,0.708h6.988c0.391,0,0.702-0.318,0.702-0.708v-6.991
					c0-0.383-0.311-0.702-0.702-0.702H457.255z"/>
			</g>
		</g>
	</g>
</g>
<g>
	<rect x="198.563" y="255.257" fill="#E50012" width="33.116" height="33.116"/>
	<g>
		<path fill-rule="evenodd" clip-rule="evenodd" fill="#FFFFFF" d="M213.593,261.735c0.772,0,1.401,0.626,1.401,1.4
			c0,0.77-0.628,1.396-1.401,1.396c-0.772,0-1.408-0.626-1.408-1.396C212.186,262.361,212.821,261.735,213.593,261.735
			L213.593,261.735z M212.11,271.06l-5.703,4.563c0,0-0.871-0.115-1.77,0.218c-0.537,0.193-1.08,0.584-1.442,1.139
			c-1.102,1.675-0.393,4.491,1.775,4.851c0.729,0.124,3.072,0.017,3.072,0.017l15.614-12.394l1.473,0.011
			c0,0,1.828-0.421,2.231-1.985c0.402-1.556,0.052-2.78-0.628-3.445c-0.678-0.685-1.493-0.907-1.493-0.907h-3.414l-6.838,5.551
			l-0.055-2.442c0,0,0-1.257-1.246-1.283c-1.246-0.03-1.534,0.862-1.534,1.231C212.153,266.542,212.11,271.06,212.11,271.06
			L212.11,271.06z M206.686,276.619c-0.888-0.022-1.628-0.068-2.106,0.252c-1.696,1.146-0.96,4.085,0.928,4.057l2.227-0.038
			l15.559-12.487c0.011-0.006,1.588,0.042,1.955-0.033c0.369-0.08,1.357-0.785,1.3-2.24c-0.046-1.447-1.402-2.003-1.402-2.003
			l-2.996,0.019L206.686,276.619z"/>
		<path fill="#FFFFFF" d="M204.389,257.88h21.433c1.77,0,3.219,1.446,3.219,3.216v21.44c0,1.759-1.449,3.213-3.219,3.213h-21.433
			c-1.77,0-3.213-1.455-3.213-3.213v-21.44C201.175,259.327,202.619,257.88,204.389,257.88L204.389,257.88z M204.389,258.948
			c-1.177,0-2.143,0.967-2.143,2.149v21.44c0,1.174,0.965,2.14,2.143,2.14h21.433c1.188,0,2.151-0.966,2.151-2.14v-21.44
			c0-1.182-0.963-2.149-2.151-2.149H204.389z"/>
	</g>
</g>
<g>
	<rect x="162.786" y="330.029" fill="#E50012" width="33.116" height="33.115"/>
	<g>
		<path fill-rule="evenodd" clip-rule="evenodd" fill="#FFFFFF" d="M177.816,336.508c0.772,0,1.401,0.625,1.401,1.398
			c0,0.77-0.629,1.396-1.401,1.396c-0.772,0-1.408-0.627-1.408-1.396C176.409,337.133,177.044,336.508,177.816,336.508
			L177.816,336.508z M176.334,345.831l-5.703,4.562c0,0-0.872-0.113-1.77,0.22c-0.536,0.193-1.079,0.585-1.441,1.139
			c-1.102,1.673-0.394,4.488,1.775,4.852c0.729,0.122,3.071,0.017,3.071,0.017l15.615-12.395l1.472,0.011
			c0,0,1.829-0.423,2.231-1.985c0.401-1.557,0.051-2.779-0.628-3.444c-0.678-0.686-1.493-0.907-1.493-0.907h-3.414l-6.839,5.548
			l-0.054-2.44c0,0,0-1.258-1.245-1.284c-1.246-0.032-1.534,0.862-1.534,1.229C176.376,341.312,176.334,345.831,176.334,345.831
			L176.334,345.831z M170.91,351.389c-0.889-0.021-1.628-0.066-2.107,0.254c-1.696,1.146-0.96,4.086,0.928,4.057l2.225-0.039
			l15.559-12.486c0.012-0.007,1.589,0.041,1.956-0.034c0.369-0.077,1.356-0.783,1.301-2.237c-0.046-1.449-1.403-2.002-1.403-2.002
			l-2.997,0.017L170.91,351.389z"/>
		<path fill="#FFFFFF" d="M168.611,332.651h21.433c1.771,0,3.219,1.446,3.219,3.218v21.44c0,1.759-1.448,3.211-3.219,3.211h-21.433
			c-1.77,0-3.213-1.452-3.213-3.211v-21.44C165.398,334.097,166.842,332.651,168.611,332.651L168.611,332.651z M168.611,333.721
			c-1.177,0-2.142,0.966-2.142,2.148v21.44c0,1.172,0.965,2.139,2.142,2.139h21.433c1.188,0,2.151-0.967,2.151-2.139v-21.44
			c0-1.183-0.963-2.148-2.151-2.148H168.611z"/>
	</g>
</g>
<g>
	<rect x="441.417" y="330.903" fill="#E50012" width="33.092" height="32.386"/>
	<g>
		<path fill-rule="evenodd" clip-rule="evenodd" fill="#FFFFFF" d="M447.7,335.372h3.523v23.298H447.7V335.372L447.7,335.372z
			 M464.72,335.372h3.522v23.345h-3.522V335.372L464.72,335.372z M455.96,337.024l1.971-1.616l1.987,1.595l-0.009,1.23l-1.435-1.178
			l0.018,2.903l-1.135-0.002l0.013-2.856l-1.417,1.162L455.96,337.024L455.96,337.024z M456.034,357.201l1.966,1.618l1.989-1.603
			l-0.007-1.22l-1.436,1.174l0.025-2.909l-1.143,0.011l0.018,2.852l-1.425-1.151L456.034,357.201L456.034,357.201z M456.417,341.576
			c-0.352,0-0.643,0.289-0.643,0.651c0,0.35,0.291,0.64,0.643,0.64c0.354,0,0.646-0.29,0.646-0.64
			C457.063,341.865,456.771,341.576,456.417,341.576L456.417,341.576z M457.498,343.238l-2.013-0.019
			c-0.56-0.049-0.772,0.25-0.794,0.689l0.008,3.81c0.091,0.288,0.52,0.277,0.598,0.021c0-1.108,0-2.156,0-3.254
			c0.017-0.054,0.154-0.063,0.174,0l0.001,7.568c0.126,0.357,0.542,0.54,0.79,0.015l0.006-4.566
			c0.031-0.159,0.318-0.149,0.329,0.013v4.539c0.229,0.451,0.628,0.459,0.788-0.024v-7.544c0.023-0.054,0.174-0.077,0.197-0.026
			l0.586,1.17c0.044,0.128,0.171,0.237,0.335,0.174l1.515-0.948c0.179-0.344-0.205-0.555-0.313-0.526l-1.101,0.657l-0.382-1.014
			C458.096,343.673,458,343.23,457.498,343.238L457.498,343.238z M460.862,342.234c0.212,0,0.388,0.175,0.388,0.393
			c0,0.213-0.176,0.392-0.388,0.392c-0.215,0-0.386-0.179-0.386-0.392C460.476,342.409,460.647,342.234,460.862,342.234
			L460.862,342.234z M460.862,343.32c0.212,0,0.388,0.168,0.388,0.393c0,0.213-0.176,0.385-0.388,0.385
			c-0.215,0-0.386-0.172-0.386-0.385C460.476,343.488,460.647,343.32,460.862,343.32L460.862,343.32z M460.862,344.397
			c0.212,0,0.388,0.185,0.388,0.403c0,0.212-0.176,0.388-0.388,0.388c-0.215,0-0.386-0.176-0.386-0.388
			C460.476,344.582,460.647,344.397,460.862,344.397L460.862,344.397z M460.862,345.439c0.212,0,0.388,0.178,0.388,0.392
			c0,0.219-0.176,0.387-0.388,0.387c-0.215,0-0.386-0.168-0.386-0.387C460.476,345.617,460.647,345.439,460.862,345.439
			L460.862,345.439z M452.294,340.092l11.355,0.029l0.012,13.955l-11.385-0.012L452.294,340.092L452.294,340.092z M453.45,341.195
			l8.993,0.028l0.007,11.785l-9.01-0.013L453.45,341.195z"/>
		<path fill="#FFFFFF" d="M447.531,333.528h20.875c1.722,0,3.135,1.406,3.135,3.137v20.873c0,1.717-1.413,3.127-3.135,3.127h-20.875
			c-1.717,0-3.128-1.41-3.128-3.127v-20.873C444.403,334.934,445.814,333.528,447.531,333.528L447.531,333.528z M447.531,334.57
			c-1.146,0-2.087,0.936-2.087,2.095v20.873c0,1.143,0.94,2.088,2.087,2.088h20.875c1.148,0,2.094-0.945,2.094-2.088v-20.873
			c0-1.159-0.946-2.095-2.094-2.095H447.531z"/>
	</g>
</g>
<g>
	<rect x="509.045" y="108.876" fill="#E50012" width="33.113" height="33.115"/>
	<g>
		<path fill-rule="evenodd" clip-rule="evenodd" fill="#FFFFFF" d="M524.073,115.354c0.771,0,1.401,0.625,1.401,1.4
			c0,0.77-0.63,1.396-1.401,1.396s-1.407-0.626-1.407-1.396C522.666,115.979,523.302,115.354,524.073,115.354L524.073,115.354z
			 M522.591,124.678l-5.702,4.563c0,0-0.871-0.114-1.77,0.218c-0.537,0.194-1.08,0.585-1.443,1.139
			c-1.1,1.675-0.392,4.491,1.775,4.852c0.73,0.123,3.072,0.017,3.072,0.017l15.614-12.394l1.474,0.01c0,0,1.829-0.421,2.232-1.984
			c0.399-1.556,0.049-2.78-0.632-3.444c-0.678-0.686-1.49-0.908-1.49-0.908h-3.415l-6.839,5.55l-0.055-2.441
			c0,0,0-1.258-1.245-1.284c-1.246-0.029-1.534,0.862-1.534,1.231C522.634,120.16,522.591,124.678,522.591,124.678L522.591,124.678z
			 M517.168,130.237c-0.89-0.021-1.629-0.068-2.108,0.252c-1.695,1.146-0.961,4.086,0.928,4.057l2.226-0.039l15.561-12.486
			c0.01-0.006,1.589,0.042,1.954-0.033c0.369-0.079,1.357-0.785,1.302-2.24c-0.047-1.447-1.404-2.002-1.404-2.002l-2.997,0.019
			L517.168,130.237z"/>
		<path fill="#FFFFFF" d="M514.868,111.499h21.435c1.771,0,3.218,1.446,3.218,3.217v21.44c0,1.759-1.447,3.213-3.218,3.213h-21.435
			c-1.769,0-3.211-1.455-3.211-3.213v-21.44C511.657,112.945,513.1,111.499,514.868,111.499L514.868,111.499z M514.868,112.567
			c-1.174,0-2.142,0.966-2.142,2.149v21.44c0,1.173,0.968,2.141,2.142,2.141h21.435c1.187,0,2.151-0.968,2.151-2.141v-21.44
			c0-1.183-0.965-2.149-2.151-2.149H514.868z"/>
	</g>
</g>
<g>
	<rect x="897.605" y="136.944" fill="#E50012" width="33.092" height="32.385"/>
	<g>
		<path fill-rule="evenodd" clip-rule="evenodd" fill="#FFFFFF" d="M903.889,141.414h3.523v23.298h-3.523V141.414L903.889,141.414z
			 M920.909,141.414h3.521v23.345h-3.521V141.414L920.909,141.414z M912.147,143.065l1.973-1.617l1.988,1.597l-0.011,1.23
			l-1.434-1.177l0.016,2.901l-1.134-0.003l0.013-2.855l-1.417,1.16L912.147,143.065L912.147,143.065z M912.224,163.243l1.965,1.619
			l1.987-1.602l-0.006-1.22l-1.435,1.173l0.023-2.91l-1.143,0.01l0.018,2.853l-1.424-1.15L912.224,163.243L912.224,163.243z
			 M912.606,147.616c-0.353,0-0.643,0.29-0.643,0.653c0,0.348,0.29,0.64,0.643,0.64c0.354,0,0.646-0.292,0.646-0.64
			C913.253,147.906,912.961,147.616,912.606,147.616L912.606,147.616z M913.687,149.28l-2.014-0.02
			c-0.56-0.047-0.771,0.251-0.792,0.69l0.007,3.81c0.091,0.287,0.52,0.276,0.599,0.02c0-1.107,0-2.154,0-3.253
			c0.017-0.054,0.152-0.063,0.173,0l0.004,7.57c0.126,0.356,0.541,0.539,0.789,0.014l0.007-4.567
			c0.031-0.159,0.318-0.149,0.328,0.012v4.542c0.229,0.45,0.629,0.458,0.785-0.023v-7.546c0.025-0.054,0.175-0.077,0.199-0.025
			l0.586,1.17c0.045,0.127,0.172,0.237,0.335,0.172l1.515-0.946c0.181-0.343-0.204-0.555-0.31-0.528l-1.103,0.657l-0.384-1.014
			C914.283,149.713,914.188,149.272,913.687,149.28L913.687,149.28z M917.049,148.276c0.212,0,0.389,0.175,0.389,0.393
			c0,0.212-0.177,0.392-0.389,0.392c-0.215,0-0.385-0.179-0.385-0.392C916.664,148.451,916.834,148.276,917.049,148.276
			L917.049,148.276z M917.049,149.361c0.212,0,0.389,0.168,0.389,0.395c0,0.211-0.177,0.384-0.389,0.384
			c-0.215,0-0.385-0.172-0.385-0.384C916.664,149.53,916.834,149.361,917.049,149.361L917.049,149.361z M917.049,150.44
			c0.212,0,0.389,0.184,0.389,0.401c0,0.211-0.177,0.388-0.389,0.388c-0.215,0-0.385-0.177-0.385-0.388
			C916.664,150.624,916.834,150.44,917.049,150.44L917.049,150.44z M917.049,151.481c0.212,0,0.389,0.178,0.389,0.39
			c0,0.219-0.177,0.389-0.389,0.389c-0.215,0-0.385-0.17-0.385-0.389C916.664,151.659,916.834,151.481,917.049,151.481
			L917.049,151.481z M908.482,146.133l11.357,0.028l0.011,13.956l-11.386-0.012L908.482,146.133L908.482,146.133z M909.637,147.237
			l8.993,0.027l0.007,11.787l-9.01-0.014L909.637,147.237z"/>
		<path fill="#FFFFFF" d="M903.719,139.569h20.876c1.723,0,3.134,1.406,3.134,3.136v20.875c0,1.716-1.411,3.125-3.134,3.125h-20.876
			c-1.717,0-3.125-1.409-3.125-3.125v-20.875C900.594,140.975,902.002,139.569,903.719,139.569L903.719,139.569z M903.719,140.61
			c-1.146,0-2.087,0.939-2.087,2.096v20.875c0,1.142,0.94,2.089,2.087,2.089h20.876c1.149,0,2.093-0.947,2.093-2.089v-20.875
			c0-1.157-0.943-2.096-2.093-2.096H903.719z"/>
	</g>
</g>
<g>
	<rect x="897.232" y="239.936" fill="#E50012" width="33.115" height="33.117"/>
	<g>
		<path fill-rule="evenodd" clip-rule="evenodd" fill="#FFFFFF" d="M912.263,246.416c0.771,0,1.401,0.625,1.401,1.397
			c0,0.771-0.63,1.398-1.401,1.398s-1.407-0.627-1.407-1.398C910.855,247.04,911.491,246.416,912.263,246.416L912.263,246.416z
			 M910.78,255.738l-5.703,4.563c0,0-0.871-0.114-1.77,0.22c-0.536,0.192-1.08,0.584-1.442,1.138
			c-1.102,1.674-0.393,4.489,1.773,4.852c0.731,0.123,3.071,0.017,3.071,0.017l15.614-12.395l1.476,0.01c0,0,1.828-0.422,2.23-1.985
			c0.402-1.557,0.051-2.78-0.631-3.444c-0.676-0.686-1.491-0.907-1.491-0.907h-3.415l-6.835,5.549l-0.056-2.441
			c0,0,0-1.258-1.247-1.283c-1.244-0.031-1.536,0.861-1.536,1.23C910.819,251.219,910.78,255.738,910.78,255.738L910.78,255.738z
			 M905.355,261.297c-0.889-0.022-1.628-0.067-2.105,0.252c-1.697,1.147-0.96,4.085,0.926,4.058l2.228-0.04l15.559-12.486
			c0.011-0.007,1.588,0.041,1.954-0.034c0.37-0.079,1.358-0.785,1.302-2.238c-0.047-1.449-1.403-2.003-1.403-2.003l-2.995,0.018
			L905.355,261.297z"/>
		<path fill="#FFFFFF" d="M903.059,242.558h21.434c1.77,0,3.218,1.447,3.218,3.219v21.44c0,1.758-1.448,3.212-3.218,3.212h-21.434
			c-1.77,0-3.215-1.454-3.215-3.212v-21.44C899.844,244.005,901.289,242.558,903.059,242.558L903.059,242.558z M903.059,243.627
			c-1.178,0-2.143,0.967-2.143,2.149v21.44c0,1.171,0.965,2.139,2.143,2.139h21.434c1.184,0,2.15-0.968,2.15-2.139v-21.44
			c0-1.183-0.967-2.149-2.15-2.149H903.059z"/>
	</g>
</g>
<g>
	<rect x="320.307" y="192.821" fill="#E50012" width="32.289" height="32.659"/>
	<g>
		<polygon fill-rule="evenodd" clip-rule="evenodd" fill="#FFFFFF" points="327.271,196.963 331.088,196.963 336.569,204.873 
			342.133,197.102 346.242,197.102 338.4,207.72 338.4,208.314 344.75,208.338 344.75,210.948 338.428,210.948 338.428,212.712 
			344.75,212.712 344.75,215.154 338.445,215.154 338.445,220.242 334.792,220.242 334.792,215.195 328.604,215.195 
			328.604,212.729 334.789,212.729 334.789,210.976 328.604,210.976 328.604,208.351 334.784,208.351 334.784,207.725 		"/>
		<g>
			<path fill="#FFFFFF" d="M326.003,194.63h21.501c1.768,0,3.22,1.447,3.22,3.218v21.501c0,1.774-1.453,3.224-3.22,3.224h-21.501
				c-1.772,0-3.224-1.449-3.224-3.224v-21.501C322.779,196.077,324.231,194.63,326.003,194.63L326.003,194.63z M326.003,195.699
				c-1.181,0-2.151,0.967-2.151,2.149v21.501c0,1.186,0.97,2.156,2.151,2.156h21.501c1.186,0,2.151-0.97,2.151-2.156v-21.501
				c0-1.183-0.965-2.149-2.151-2.149H326.003z"/>
			<g>
				<g>
					<polygon fill-rule="evenodd" clip-rule="evenodd" fill="#FFFFFF" points="328.26,216.537 328.598,216.537 328.598,216.532 
						328.591,216.532 328.322,216.009 328.322,216.003 328.092,216.003 328.092,215.881 328.68,215.881 328.68,216.003 
						328.538,216.003 328.801,216.504 328.84,216.504 329.127,216.003 328.974,216.003 328.974,215.881 329.558,215.881 
						329.558,216.003 329.341,216.003 329.341,216.009 329.059,216.504 329.062,216.504 329.062,216.537 329.394,216.537 
						329.394,216.652 329.062,216.652 329.062,216.832 329.394,216.832 329.394,216.958 329.062,216.958 329.062,217.652 
						329.308,217.652 329.308,217.779 328.345,217.779 328.345,217.652 328.598,217.652 328.598,216.958 328.26,216.958 
						328.26,216.832 328.598,216.832 328.598,216.652 328.26,216.652 					"/>
					<path fill-rule="evenodd" clip-rule="evenodd" fill="#FFFFFF" d="M326.975,214.458c0.154-0.342,0.492-0.259,0.594,0v0.738
						h0.216v-0.987c0.148-0.329,0.466-0.271,0.598,0v0.987h0.212v-1.218c0.135-0.32,0.457-0.32,0.599,0v1.218h0.211v-0.975
						c0.095-0.306,0.526-0.337,0.6,0v0.975h1.781v3.245h-1.067c-0.033,1.06-0.849,1.915-1.853,1.915
						c-1.007,0-1.825-0.855-1.863-1.915h-1.175v-3.245h1.148V214.458L326.975,214.458z M330.096,216.818
						c0.149-0.706,0.492-0.524,0.594,0v1.452h0.899v-2.891h-5.592v2.891h4.099V216.818z"/>
				</g>
				<path fill="#FFFFFF" d="M325.317,212.501h6.986c0.576,0,1.05,0.473,1.05,1.05v6.993c0,0.58-0.475,1.049-1.05,1.049h-6.986
					c-0.584,0-1.055-0.469-1.055-1.049v-6.993C324.262,212.975,324.733,212.501,325.317,212.501L325.317,212.501z M325.317,212.85
					c-0.39,0-0.706,0.32-0.706,0.702v6.993c0,0.39,0.316,0.708,0.706,0.708h6.986c0.391,0,0.702-0.318,0.702-0.708v-6.993
					c0-0.382-0.311-0.702-0.702-0.702H325.317z"/>
			</g>
		</g>
	</g>
</g>
</svg>
