<?xml version="1.0" encoding="utf-8"?>
<!-- Generator: Adobe Illustrator 15.0.0, SVG Export Plug-In . SVG Version: 6.00 Build 0)  -->
<!DOCTYPE svg PUBLIC "-//W3C//DTD SVG 1.1//EN" "http://www.w3.org/Graphics/SVG/1.1/DTD/svg11.dtd">
<svg version="1.1" id="店铺" xmlns="http://www.w3.org/2000/svg" xmlns:xlink="http://www.w3.org/1999/xlink" x="0px" y="0px"
	 width="841.89px" height="595.28px" viewBox="0 0 841.89 595.28" enable-background="new 0 0 841.89 595.28" xml:space="preserve">
<g id="图层_3">
	<g id="苹果">
		<rect x="416.162" y="160.364" fill="#999999" width="90.445" height="48.433"/>
		<rect x="413.004" y="157.207" fill="#F0BB82" stroke="#231815" width="90.447" height="48.432"/>
		<g>
			<g>
				<path fill="#231815" d="M452.585,175.521h0.832v1.006h2.876v0.765h-2.876v0.984h-0.832v-0.984h-3.292v0.984h-0.831v-0.984
					h-2.878v-0.765h2.878v-1.006h0.831v1.006h3.292V175.521z M445.618,182.455h4.877v-3.084h-4.386v-0.766h9.67v0.766h-4.431v3.084
					h4.911v0.766h-4.911v3.117h-0.854v-3.117h-4.877V182.455z M447.104,180.028l0.645-0.46c0.461,0.576,0.996,1.294,1.609,2.155
					l-0.722,0.514C448.023,181.303,447.514,180.567,447.104,180.028z M452.476,181.679c0.568-0.635,1.134-1.338,1.695-2.111
					l0.733,0.525c-0.533,0.686-1.134,1.393-1.806,2.122L452.476,181.679z"/>
				<path fill="#231815" d="M467.614,184.895c-0.277,0.299-0.508,0.572-0.69,0.82c-1.771-0.561-3.232-1.555-4.386-2.98v3.539h-0.831
					v-3.55c-1.024,1.185-2.49,2.229-4.396,3.134c-0.176-0.219-0.394-0.452-0.656-0.7c1.721-0.66,3.119-1.513,4.194-2.559h-3.954
					v-0.788h4.813v-1.182h-2.898v0.426h-0.831v-5.031h8.29v5.031h-0.831v-0.426h-2.898v1.182h4.835v0.788h-4.103
					C464.336,183.724,465.784,184.489,467.614,184.895z M458.809,177.971h2.898v-1.203h-2.898V177.971z M458.809,179.885h2.898
					v-1.204h-2.898V179.885z M465.437,176.768h-2.898v1.203h2.898V176.768z M462.538,179.885h2.898v-1.204h-2.898V179.885z"/>
			</g>
		</g>
	</g>
	<g id="周大福">
		<rect x="618.193" y="71.307" fill="#999999" width="53.377" height="52.714"/>
		<rect x="614.736" y="67.851" fill="#FAF5BE" stroke="#231815" width="53.378" height="52.714"/>
		<g>
			<g>
				<path fill="#231815" d="M626.651,87.057c0,1.829-0.079,3.083-0.238,3.767c-0.173,0.834-0.533,1.637-1.078,2.407
					c-0.21-0.267-0.415-0.507-0.616-0.724c0.454-0.69,0.752-1.384,0.896-2.083c0.115-0.604,0.172-1.658,0.172-3.162v-4.188h9.162
					v8.613c0,0.928-0.445,1.399-1.336,1.413c-0.513,0.007-1.08,0-1.706-0.021c-0.028-0.216-0.088-0.508-0.173-0.875
					c0.697,0.044,1.233,0.065,1.608,0.065c0.51,0,0.766-0.241,0.766-0.724v-7.694h-7.457V87.057z M627.168,86.906h2.774v-1.09
					h-2.276v-0.733h2.276v-0.95h0.842v0.95h2.277v0.733h-2.277v1.09h2.785v0.733h-6.401V86.906z M628.055,88.536h4.619v2.914h-3.798
					v0.691h-0.821V88.536z M631.854,90.716V89.27h-2.978v1.446H631.854z"/>
				<path fill="#231815" d="M635.825,92.399c2.968-1.32,4.568-3.303,4.802-5.946h-4.607v-0.842h4.646
					c0.018-0.968,0.027-1.943,0.027-2.925h0.938c0,0.967-0.01,1.942-0.027,2.925h4.786v0.842h-4.802
					c0.511,2.874,2.187,4.77,5.028,5.687c-0.367,0.353-0.64,0.644-0.819,0.875c-2.342-0.942-3.873-2.621-4.592-5.034
					c-0.562,2.183-2.133,3.934-4.712,5.25C636.35,93.036,636.126,92.759,635.825,92.399z"/>
				<path fill="#231815" d="M647.026,85.514v-0.788h3.453v0.81c-0.37,0.712-0.806,1.389-1.305,2.028v0.497l0.529-0.41
					c0.244,0.288,0.542,0.68,0.896,1.176l-0.616,0.486c-0.298-0.46-0.568-0.855-0.809-1.188v5.019h-0.778v-4.663
					c-0.38,0.411-0.79,0.807-1.229,1.188c-0.116-0.518-0.21-0.834-0.281-0.949c1.209-0.942,2.09-2.011,2.645-3.205H647.026z
					 M647.988,82.935l0.766-0.378c0.209,0.331,0.499,0.828,0.873,1.49l-0.82,0.41C648.498,83.823,648.226,83.316,647.988,82.935z
					 M650.718,83.14h6.519v0.69h-6.519V83.14z M650.761,88.072h6.302v5.083h-0.775v-0.54h-4.748v0.54h-0.778V88.072z M651.269,84.65
					h5.266v2.871h-0.776v-0.378h-3.714v0.378h-0.775V84.65z M651.539,90.003h1.973v-1.263h-1.973V90.003z M651.539,91.946h1.973
					v-1.273h-1.973V91.946z M655.758,85.298h-3.714v1.198h3.714V85.298z M656.287,88.741h-1.998v1.263h1.998V88.741z
					 M654.289,91.946h1.998v-1.273h-1.998V91.946z"/>
			</g>
		</g>
	</g>
	<g id="中国黄金">
		<polygon fill="#999999" points="671.57,71.307 720.614,71.166 720.614,99.822 698.122,99.822 698.122,123.848 671.57,123.848 		
			"/>
		<polygon fill="#FAF5BE" stroke="#231815" points="668.114,67.851 717.157,67.709 717.157,96.365 694.665,96.365 694.665,120.392 
			668.114,120.392 		"/>
		<g>
			<path fill="#231815" d="M671.558,84.952h4.155V82.6h0.928v2.353h4.198v4.922h-0.884v-0.583h-3.314v4.015h-0.928v-4.015h-3.271
				v0.583h-0.885V84.952z M672.442,88.493h3.271v-2.741h-3.271V88.493z M679.955,85.751h-3.314v2.741h3.314V85.751z"/>
			<path fill="#231815" d="M682.512,83.183h9.443v10.068h-0.831v-0.539h-7.781v0.551h-0.831V83.183z M691.124,83.95h-7.781v7.997
				h7.781V83.95z M683.839,90.068h2.979v-2.137h-2.603v-0.734h2.603v-1.446h-2.807v-0.734h6.433v0.734h-2.828v1.446h2.611v0.734
				h-2.611v2.137h3v0.733h-6.777V90.068z M688.178,88.622l0.604-0.453c0.396,0.41,0.733,0.795,1.014,1.154l-0.636,0.486
				C688.814,89.342,688.487,88.946,688.178,88.622z"/>
			<path fill="#231815" d="M694.308,87.047h3.561v-0.939h-4.813v-0.734h2.925v-1.037h-2.59v-0.733h2.59v-1.015h0.821v1.015h2.977
				v-1.015h0.822v1.015h2.59v0.733h-2.59v1.037h2.945v0.734h-4.856v0.939h3.572v4.468h-0.811V91.19h-6.333v0.324h-0.81V87.047z
				 M696.768,91.396l0.474,0.68c-1.25,0.539-2.484,0.974-3.7,1.306c-0.102-0.216-0.227-0.461-0.378-0.734
				C694.459,92.331,695.659,91.914,696.768,91.396z M695.117,88.772h2.751v-1.014h-2.751V88.772z M695.117,90.479h2.751v-1.015
				h-2.751V90.479z M696.801,85.374h2.977v-1.037h-2.977V85.374z M701.45,87.758h-2.762v1.014h2.762V87.758z M698.688,90.479h2.762
				v-1.015h-2.762V90.479z M699.218,92.043l0.313-0.647c1.524,0.403,2.81,0.784,3.852,1.144l-0.346,0.734
				C701.692,92.82,700.418,92.41,699.218,92.043z"/>
			<path fill="#231815" d="M704.321,92.055h4.577V89.42h-3.863v-0.788h3.863v-1.51h-2.807v-0.755
				c-0.511,0.323-1.064,0.647-1.661,0.97c-0.152-0.273-0.331-0.543-0.54-0.81c2.396-1.122,4.09-2.409,5.082-3.863h1.177
				l-0.248,0.302c1.145,1.461,2.763,2.598,4.857,3.41c-0.195,0.274-0.386,0.562-0.573,0.864c-0.56-0.238-1.104-0.521-1.628-0.853
				v0.734h-2.795v1.51h3.84v0.788h-3.84v2.635h4.597v0.798h-10.038V92.055z M705.53,90.079l0.638-0.507
				c0.524,0.533,1.039,1.086,1.543,1.663l-0.734,0.582C706.545,91.248,706.064,90.669,705.53,90.079z M709.34,83.582
				c-0.74,0.936-1.809,1.853-3.204,2.752h6.335C711.349,85.622,710.305,84.704,709.34,83.582z M710.873,91.32
				c0.584-0.604,1.076-1.195,1.479-1.77l0.757,0.485c-0.506,0.626-1.034,1.227-1.588,1.802L710.873,91.32z"/>
		</g>
	</g>
	<g id="coco奶茶">
		<polygon fill="#999999" points="329.016,81.036 329.016,94.655 358.408,94.655 358.408,123.682 393.91,123.682 393.91,81.482 		
			"/>
		<polygon fill="#D3E4BB" stroke="#231815" points="324.059,76.08 324.059,89.699 353.451,89.699 353.451,118.726 388.953,118.726 
			388.953,76.527 		"/>
		<g>
			<path fill="#231815" d="M362.059,91.499c-0.6,0.352-1.355,0.527-2.266,0.527c-1.17,0-2.107-0.413-2.807-1.238
				c-0.703-0.826-1.053-1.917-1.053-3.275c0-1.459,0.393-2.633,1.182-3.523s1.791-1.334,3.006-1.334c0.781,0,1.43,0.123,1.938,0.368
				v1.223c-0.582-0.358-1.225-0.538-1.926-0.538c-0.912,0-1.656,0.336-2.229,1.01c-0.572,0.672-0.861,1.581-0.861,2.724
				c0,1.085,0.266,1.946,0.803,2.584c0.533,0.638,1.234,0.957,2.102,0.957c0.811,0,1.514-0.202,2.111-0.608V91.499z"/>
			<path fill="#231815" d="M363.168,87.449c0-1.463,0.357-2.628,1.072-3.494c0.715-0.866,1.684-1.3,2.904-1.3
				c1.139,0,2.055,0.423,2.748,1.271c0.693,0.846,1.039,1.948,1.039,3.306c0,1.472-0.354,2.639-1.066,3.501
				c-0.711,0.862-1.664,1.294-2.852,1.294c-1.16,0-2.092-0.423-2.795-1.271C363.52,89.909,363.168,88.807,363.168,87.449z
				 M364.277,87.355c0,1.097,0.252,1.975,0.758,2.637c0.506,0.661,1.166,0.992,1.979,0.992c0.873,0,1.557-0.317,2.057-0.951
				c0.498-0.634,0.748-1.521,0.748-2.66c0-1.171-0.244-2.074-0.732-2.71c-0.486-0.637-1.154-0.954-2.004-0.954
				c-0.834,0-1.51,0.335-2.027,1.007C364.537,85.386,364.277,86.267,364.277,87.355z"/>
			<path fill="#231815" d="M378.109,91.499c-0.602,0.352-1.355,0.527-2.266,0.527c-1.172,0-2.107-0.413-2.811-1.238
				c-0.701-0.826-1.051-1.917-1.051-3.275c0-1.459,0.395-2.633,1.186-3.523c0.787-0.89,1.789-1.334,3.004-1.334
				c0.781,0,1.43,0.123,1.938,0.368v1.223c-0.584-0.358-1.227-0.538-1.928-0.538c-0.91,0-1.656,0.336-2.229,1.01
				c-0.574,0.672-0.861,1.581-0.861,2.724c0,1.085,0.27,1.946,0.803,2.584c0.537,0.638,1.236,0.957,2.104,0.957
				c0.809,0,1.514-0.202,2.111-0.608V91.499z"/>
			<path fill="#231815" d="M379.219,87.449c0-1.463,0.357-2.628,1.072-3.494c0.713-0.866,1.682-1.3,2.904-1.3
				c1.139,0,2.053,0.423,2.748,1.271c0.691,0.846,1.039,1.948,1.039,3.306c0,1.472-0.354,2.639-1.066,3.501
				c-0.711,0.862-1.662,1.294-2.852,1.294c-1.162,0-2.094-0.423-2.795-1.271C379.568,89.909,379.219,88.807,379.219,87.449z
				 M380.326,87.355c0,1.097,0.254,1.975,0.76,2.637c0.506,0.661,1.164,0.992,1.979,0.992c0.871,0,1.557-0.317,2.057-0.951
				c0.498-0.634,0.746-1.521,0.746-2.66c0-1.171-0.242-2.074-0.732-2.71c-0.486-0.637-1.152-0.954-2.004-0.954
				c-0.832,0-1.51,0.335-2.027,1.007C380.586,85.386,380.326,86.267,380.326,87.355z"/>
			<path fill="#231815" d="M366.031,104.92l-0.527,0.843c-0.281-0.29-0.598-0.602-0.949-0.938c-0.531,0.89-1.23,1.709-2.104,2.458
				c-0.148-0.242-0.311-0.496-0.486-0.76c0.838-0.671,1.5-1.428,1.986-2.271c-0.473-0.445-0.994-0.925-1.564-1.44
				c0.268-1.053,0.512-2.232,0.73-3.536h-1.078V98.4h1.205c0.119-0.773,0.229-1.584,0.328-2.435l0.854,0.129
				c-0.127,0.843-0.246,1.612-0.359,2.306h1.945v0.76c-0.156,2.069-0.498,3.679-1.025,4.835
				C365.352,104.308,365.701,104.616,366.031,104.92z M365.197,99.277h-1.277c-0.248,1.452-0.475,2.549-0.676,3.29
				c0.379,0.305,0.75,0.602,1.107,0.89C364.816,102.341,365.1,100.948,365.197,99.277z M369.57,100.378l0.719-2.717h-2.154
				c0,2.802-0.146,4.832-0.434,6.088c-0.268,1.303-0.863,2.532-1.787,3.688c-0.182-0.211-0.406-0.43-0.674-0.656
				c0.881-1.021,1.451-2.142,1.711-3.359c0.254-1.139,0.381-3.059,0.381-5.76h-1.238v-0.866h5.039v0.866l-0.719,2.728h1.598
				c-0.051,2.131-0.111,3.676-0.18,4.635c-0.07,1.351-0.596,2.025-1.574,2.025c-0.57-0.008-1.146-0.023-1.732-0.047
				c-0.035-0.305-0.092-0.648-0.17-1.03c0.619,0.101,1.197,0.152,1.734,0.152c0.598,0,0.912-0.442,0.949-1.323
				c0.063-0.843,0.109-2.025,0.135-3.547h-1.604V100.378z"/>
			<path fill="#231815" d="M378.783,98.54l-0.232,0.281c1.027,1.264,2.605,2.247,4.732,2.95c-0.143,0.194-0.33,0.506-0.561,0.936
				c-2.098-0.89-3.662-1.993-4.689-3.312c-1.043,1.287-2.639,2.455-4.785,3.5c-0.189-0.382-0.35-0.66-0.475-0.832
				c2.16-0.944,3.789-2.119,4.891-3.523H378.783z M379.627,95.941h0.781v1.264h2.748v0.831h-2.748v1.006h-0.781v-1.006h-3.17v1.006
				h-0.779v-1.006h-2.768v-0.831h2.768v-1.264h0.779v1.264h3.17V95.941z M375.793,103.702l0.707,0.527
				c-1.049,1.186-2.004,2.119-2.861,2.798c-0.178-0.219-0.373-0.434-0.594-0.645C374.104,105.587,375.02,104.693,375.793,103.702z
				 M374.293,102.521h3.391v-1.499h0.781v1.499h3.223v0.83h-3.223v2.564c0,0.913-0.398,1.369-1.191,1.369h-1.375
				c-0.035-0.281-0.084-0.597-0.148-0.948c0.494,0.046,0.924,0.071,1.291,0.071c0.428,0,0.643-0.247,0.643-0.738v-2.318h-3.391
				V102.521z M380.092,103.726c0.979,0.811,1.91,1.674,2.789,2.587l-0.645,0.667c-0.859-0.929-1.754-1.822-2.684-2.681
				L380.092,103.726z"/>
		</g>
	</g>
	<g id="atm_x5F_2">
		<rect x="222.226" y="86.344" fill="#D71718" width="23.218" height="23.375"/>
		<g>
			<polygon fill-rule="evenodd" clip-rule="evenodd" fill="#FFFFFF" points="227.233,89.309 229.979,89.309 233.919,94.97 
				237.921,89.408 240.875,89.408 235.237,97.007 235.237,97.433 239.803,97.45 239.803,99.318 235.256,99.318 235.256,100.581 
				239.803,100.581 239.803,102.329 235.27,102.329 235.27,105.97 232.641,105.97 232.641,102.358 228.192,102.358 228.192,100.592 
				232.64,100.592 232.64,99.338 228.192,99.338 228.192,97.459 232.635,97.459 232.635,97.011 			"/>
			<g>
				<path fill="#FFFFFF" d="M226.321,87.638h15.462c1.271,0,2.315,1.037,2.315,2.304v15.39c0,1.269-1.045,2.307-2.315,2.307h-15.462
					c-1.274,0-2.317-1.038-2.317-2.307v-15.39C224.004,88.675,225.047,87.638,226.321,87.638L226.321,87.638z M226.321,88.404
					c-0.848,0-1.546,0.691-1.546,1.538v15.39c0,0.849,0.698,1.544,1.546,1.544h15.462c0.853,0,1.546-0.695,1.546-1.544v-15.39
					c0-0.847-0.693-1.538-1.546-1.538H226.321z"/>
				<g>
					<g>
						<polygon fill-rule="evenodd" clip-rule="evenodd" fill="#FFFFFF" points="227.945,103.318 228.188,103.318 228.188,103.315 
							228.183,103.315 227.99,102.94 227.99,102.937 227.825,102.937 227.825,102.849 228.247,102.849 228.247,102.937 
							228.144,102.937 228.333,103.295 228.362,103.295 228.569,102.937 228.458,102.937 228.458,102.849 228.877,102.849 
							228.877,102.937 228.722,102.937 228.722,102.94 228.519,103.295 228.522,103.295 228.522,103.318 228.759,103.318 
							228.759,103.401 228.522,103.401 228.522,103.53 228.759,103.53 228.759,103.62 228.522,103.62 228.522,104.116 
							228.7,104.116 228.7,104.207 228.005,104.207 228.005,104.116 228.188,104.116 228.188,103.62 227.945,103.62 227.945,103.53 
							228.188,103.53 228.188,103.401 227.945,103.401 						"/>
						<path fill-rule="evenodd" clip-rule="evenodd" fill="#FFFFFF" d="M227.021,101.83c0.111-0.244,0.354-0.186,0.427,0v0.528
							h0.155v-0.707c0.105-0.235,0.334-0.193,0.43,0v0.707h0.152v-0.872c0.097-0.229,0.33-0.229,0.432,0v0.872h0.151v-0.698
							c0.067-0.218,0.378-0.241,0.431,0v0.698h1.28v2.323h-0.768c-0.022,0.757-0.609,1.369-1.332,1.369
							c-0.725,0-1.313-0.611-1.34-1.369h-0.846v-2.323h0.826V101.83L227.021,101.83z M229.265,103.52
							c0.107-0.505,0.354-0.375,0.427,0v1.039h0.647v-2.068h-4.021v2.068h2.946V103.52z"/>
					</g>
					<path fill="#FFFFFF" d="M225.829,100.43h5.023c0.415,0,0.756,0.339,0.756,0.752v5.005c0,0.414-0.341,0.752-0.756,0.752h-5.023
						c-0.42,0-0.759-0.338-0.759-0.752v-5.005C225.07,100.769,225.409,100.43,225.829,100.43L225.829,100.43z M225.829,100.68
						c-0.279,0-0.507,0.229-0.507,0.501v5.005c0,0.279,0.228,0.508,0.507,0.508h5.023c0.281,0,0.504-0.229,0.504-0.508v-5.005
						c0-0.273-0.224-0.501-0.504-0.501H225.829z"/>
				</g>
			</g>
		</g>
	</g>
	<g id="atm_x5F_1">
		<rect x="697.583" y="99.696" fill="#D71718" width="23.826" height="23.375"/>
		<g>
			<polygon fill-rule="evenodd" clip-rule="evenodd" fill="#FFFFFF" points="702.721,102.661 705.538,102.661 709.583,108.322 
				713.688,102.76 716.721,102.76 710.935,110.359 710.935,110.785 715.62,110.801 715.62,112.67 710.954,112.67 710.954,113.933 
				715.62,113.933 715.62,115.68 710.968,115.68 710.968,119.321 708.271,119.321 708.271,115.71 703.704,115.71 703.704,113.944 
				708.27,113.944 708.27,112.689 703.704,112.689 703.704,110.811 708.265,110.811 708.265,110.363 			"/>
			<g>
				<path fill="#FFFFFF" d="M701.785,100.99h15.867c1.304,0,2.376,1.037,2.376,2.304v15.39c0,1.269-1.072,2.307-2.376,2.307h-15.867
					c-1.308,0-2.378-1.038-2.378-2.307v-15.39C699.407,102.026,700.478,100.99,701.785,100.99L701.785,100.99z M701.785,101.756
					c-0.87,0-1.587,0.691-1.587,1.538v15.39c0,0.849,0.717,1.544,1.587,1.544h15.867c0.874,0,1.587-0.695,1.587-1.544v-15.39
					c0-0.847-0.713-1.538-1.587-1.538H701.785z"/>
				<g>
					<g>
						<polygon fill-rule="evenodd" clip-rule="evenodd" fill="#FFFFFF" points="703.452,116.669 703.7,116.669 703.7,116.667 
							703.695,116.667 703.497,116.292 703.497,116.288 703.327,116.288 703.327,116.2 703.761,116.2 703.761,116.288 
							703.655,116.288 703.851,116.647 703.879,116.647 704.091,116.288 703.978,116.288 703.978,116.2 704.408,116.2 
							704.408,116.288 704.249,116.288 704.249,116.292 704.04,116.647 704.044,116.647 704.044,116.669 704.286,116.669 
							704.286,116.752 704.044,116.752 704.044,116.881 704.286,116.881 704.286,116.972 704.044,116.972 704.044,117.467 
							704.226,117.467 704.226,117.558 703.513,117.558 703.513,117.467 703.7,117.467 703.7,116.972 703.452,116.972 
							703.452,116.881 703.7,116.881 703.7,116.752 703.452,116.752 						"/>
						<path fill-rule="evenodd" clip-rule="evenodd" fill="#FFFFFF" d="M702.503,115.182c0.114-0.244,0.363-0.186,0.438,0v0.528
							h0.159v-0.707c0.108-0.235,0.344-0.193,0.441,0v0.707h0.156v-0.872c0.1-0.229,0.338-0.229,0.442,0v0.872h0.155v-0.698
							c0.069-0.218,0.389-0.241,0.442,0v0.698h1.313v2.323h-0.787c-0.023,0.757-0.625,1.369-1.367,1.369
							c-0.743,0-1.347-0.611-1.375-1.369h-0.867v-2.323h0.848V115.182L702.503,115.182z M704.806,116.872
							c0.109-0.505,0.363-0.375,0.438,0v1.039h0.664v-2.068h-4.126v2.068h3.023V116.872z"/>
					</g>
					<path fill="#FFFFFF" d="M701.279,113.781h5.155c0.426,0,0.775,0.339,0.775,0.752v5.005c0,0.414-0.35,0.752-0.775,0.752h-5.155
						c-0.431,0-0.778-0.338-0.778-0.752v-5.005C700.501,114.12,700.849,113.781,701.279,113.781L701.279,113.781z M701.279,114.032
						c-0.286,0-0.521,0.229-0.521,0.501v5.005c0,0.279,0.234,0.508,0.521,0.508h5.155c0.288,0,0.518-0.229,0.518-0.508v-5.005
						c0-0.273-0.229-0.501-0.518-0.501H701.279z"/>
				</g>
			</g>
		</g>
	</g>
	<g id="外交官">
		<g>
			<rect x="421.994" y="70.953" fill="#999999" width="53.85" height="15.664"/>
			<rect x="417.038" y="65.998" fill="#F7DCD7" stroke="#231815" stroke-width="0.5" width="53.848" height="15.663"/>
		</g>
		<g>
			<path fill="#231815" d="M424.194,73.432c1.283-2.014,2.25-4.308,2.896-6.881l1.061,0.306c-0.207,0.719-0.424,1.411-0.646,2.076
				h3.594v0.985c-0.456,4.41-2.392,7.645-5.806,9.704c-0.181-0.293-0.404-0.608-0.673-0.946c1.674-1.021,2.957-2.298,3.854-3.833
				c-0.602-0.524-1.278-1.058-2.029-1.597l0.66-0.813c0.73,0.55,1.356,1.034,1.873,1.452c0.535-1.145,0.881-2.458,1.036-3.94h-2.884
				c-0.604,1.571-1.384,3.111-2.34,4.619C424.617,74.2,424.419,73.821,424.194,73.432z M432.366,66.657h1.087v4.579l0.517-0.598
				c1.232,0.984,2.331,1.884,3.299,2.701l-0.738,0.986c-0.914-0.87-1.939-1.797-3.077-2.784V79.7h-1.087V66.657z"/>
			<path fill="#231815" d="M446.032,72.246l0.996,0.439c-0.641,1.505-1.407,2.727-2.293,3.668c1.293,0.984,3.126,1.688,5.5,2.11
				c-0.318,0.442-0.576,0.816-0.775,1.117c-2.297-0.604-4.129-1.441-5.496-2.508c-1.186,0.954-3.068,1.821-5.648,2.602
				c-0.189-0.311-0.405-0.653-0.648-1.025c2.428-0.631,4.258-1.396,5.49-2.296c-0.854-0.897-1.588-2.065-2.205-3.507l0.866-0.506
				c0.563,1.317,1.28,2.422,2.146,3.314C444.753,74.847,445.444,73.71,446.032,72.246z M437.758,68.535h6.059
				c-0.202-0.436-0.494-0.963-0.874-1.585l0.957-0.479c0.371,0.533,0.699,1.092,0.984,1.678l-0.725,0.386h6.012v0.983h-12.413
				V68.535z M441.587,70.13l0.826,0.694c-1.206,1.303-2.46,2.47-3.762,3.5c-0.217-0.276-0.457-0.561-0.725-0.853
				C439.229,72.522,440.448,71.407,441.587,70.13z M446.228,70.065c1.577,1.276,2.811,2.346,3.697,3.207
				c-0.24,0.249-0.498,0.537-0.775,0.866c-0.974-1.03-2.186-2.158-3.632-3.381L446.228,70.065z"/>
			<path fill="#231815" d="M451.348,68.268h5.866c-0.264-0.466-0.533-0.901-0.81-1.305l0.893-0.52
				c0.292,0.391,0.616,0.879,0.969,1.463l-0.606,0.361h5.443v2.422h-1.01v-1.505h-9.734v1.505h-1.011V68.268z M461.833,75.163v4.512
				h-0.993v-0.786h-6.75v0.772h-1.009v-9.223h8.264v3.887h-0.997v-0.44h-6.258v1.278H461.833z M460.348,71.33h-6.258v1.664h6.258
				V71.33z M460.84,76.055h-6.75v1.957h6.75V76.055z"/>
		</g>
	</g>
	<g id="圣大保罗">
		<rect x="419.514" y="103.046" fill="#999999" width="46.55" height="27.614"/>
		<rect x="414.557" y="98.088" fill="#F7DCD7" stroke="#231815" width="46.549" height="27.617"/>
		<g>
			<g>
				<path fill="#231815" d="M427.095,101.436v-0.819h9.44v0.784c-1.008,1.028-2.151,1.908-3.426,2.636
					c0.808,0.397,2.421,0.776,4.838,1.133c-0.166,0.25-0.332,0.554-0.506,0.91c-2.104-0.391-3.871-0.904-5.303-1.542
					c-1.574,0.736-3.389,1.3-5.443,1.692c-0.119-0.251-0.279-0.54-0.484-0.866c1.869-0.296,3.514-0.739,4.939-1.327
					c-1.116-0.645-2.111-1.512-2.984-2.601H427.095z M426.411,109.712h5.215v-2.004h-4.132v-0.819h4.132v-1.492h0.93v1.492h4.109
					v0.819h-4.109v2.004h5.204v0.82h-11.349V109.712z M435.264,101.436h-6.027c0.848,0.876,1.816,1.593,2.908,2.151
					C433.309,102.995,434.35,102.276,435.264,101.436z"/>
				<path fill="#231815" d="M438.277,110.247c3.237-1.394,4.984-3.483,5.238-6.274h-5.026v-0.885h5.067
					c0.018-1.023,0.028-2.05,0.028-3.086h1.024c0,1.021-0.01,2.048-0.029,3.086h5.221v0.885h-5.238
					c0.557,3.032,2.385,5.033,5.486,6.001c-0.4,0.372-0.699,0.679-0.896,0.922c-2.553-0.994-4.223-2.764-5.008-5.311
					c-0.612,2.304-2.324,4.148-5.138,5.538C438.85,110.918,438.607,110.626,438.277,110.247z"/>
				<path fill="#231815" d="M426.189,118.147c1.051-1.518,1.867-3.357,2.447-5.522l0.871,0.252
					c-0.322,1.001-0.671,1.939-1.049,2.813v8.036h-0.847v-6.318c-0.337,0.6-0.69,1.158-1.06,1.674
					C426.443,118.763,426.322,118.453,426.189,118.147z M430.32,113.128h6.568v4.292h-0.896v-0.432h-1.978v1.536h3.885v0.773h-3.201
					c0.723,1.161,1.82,2.075,3.295,2.743c-0.243,0.326-0.439,0.608-0.588,0.844c-1.477-0.866-2.605-2.035-3.391-3.507v4.406h-0.857
					v-4.453c-0.951,1.655-2.14,2.915-3.568,3.781c-0.18-0.214-0.398-0.443-0.659-0.695c1.397-0.744,2.53-1.783,3.401-3.119h-3.084
					v-0.773h3.91v-1.536h-1.943v0.509h-0.895V113.128z M435.993,113.891h-4.778v2.333h4.778V113.891z"/>
				<path fill="#231815" d="M442.278,116.93l0.919,0.365c-0.251,0.313-0.51,0.613-0.777,0.911h6.273v0.809
					c-1.828,2.699-5.084,4.352-9.769,4.951c-0.142-0.265-0.3-0.558-0.472-0.877c2.072-0.234,3.713-0.604,4.92-1.104
					c-0.636-0.537-1.416-1.146-2.342-1.82l0.648-0.581c1.043,0.722,1.938,1.373,2.683,1.958c1.241-0.607,2.303-1.457,3.189-2.551
					h-5.886c-0.753,0.723-1.65,1.449-2.695,2.186c-0.219-0.279-0.424-0.526-0.611-0.738
					C439.945,119.495,441.251,118.328,442.278,116.93z M439.007,113.128h10.323v4.235h-0.895v-0.443h-8.533v0.443h-0.896V113.128z
					 M439.902,116.155h2.258v-2.265h-2.258V116.155z M443.032,116.155h2.259v-2.265h-2.259V116.155z M448.436,113.891h-2.271v2.265
					h2.271V113.891z"/>
			</g>
		</g>
	</g>
</g>
<g id="图层_4">
	<g id="服务台">
		<polygon fill="#D71718" stroke="#231815" points="486.671,211.881 444.84,211.881 444.84,212.014 423.785,212.014 
			423.785,229.735 450.933,229.735 450.933,216.725 486.671,216.725 		"/>
		<g>
			<path fill="#FFFFFF" d="M426.566,216.037h2.192v6.307c0,0.518-0.241,0.777-0.724,0.777c-0.264,0-0.511-0.007-0.738-0.023
				c-0.021-0.155-0.052-0.339-0.092-0.552c0.264,0.042,0.491,0.063,0.684,0.063c0.211,0,0.318-0.107,0.318-0.318v-1.789h-1.089
				c0.016,1.192-0.2,2.102-0.646,2.729c-0.114-0.151-0.256-0.297-0.427-0.435c0.346-0.534,0.521-1.291,0.521-2.271V216.037z
				 M428.207,216.543h-1.089v1.492h1.089V216.543z M427.118,220.019h1.089v-1.501h-1.089V220.019z M429.405,216.069h3.84
				c-0.025,0.419-0.047,0.75-0.063,0.995c-0.041,0.804-0.45,1.197-1.229,1.181c-0.213-0.004-0.546-0.014-1.003-0.031
				c-0.031-0.202-0.064-0.407-0.102-0.614c0.385,0.047,0.729,0.076,1.035,0.086c0.446,0.015,0.687-0.197,0.723-0.638
				c0.015-0.134,0.028-0.283,0.038-0.443h-2.651v2.238h3.281v0.458c-0.207,0.91-0.587,1.702-1.139,2.376
				c0.45,0.424,1.005,0.755,1.668,0.991c-0.175,0.207-0.326,0.393-0.451,0.56c-0.637-0.299-1.178-0.67-1.62-1.112
				c-0.397,0.391-0.862,0.737-1.396,1.034c-0.099-0.171-0.204-0.342-0.317-0.514c0.518-0.264,0.965-0.581,1.341-0.947
				c-0.507-0.649-0.839-1.429-0.999-2.341h-0.367v3.865h-0.589V216.069z M432.661,219.35h-1.769
				c0.161,0.746,0.447,1.381,0.859,1.905C432.18,220.713,432.483,220.079,432.661,219.35z"/>
			<path fill="#FFFFFF" d="M436.222,215.509l0.584,0.249c-0.117,0.192-0.237,0.378-0.365,0.56h4.207v0.521
				c-0.483,0.587-1.143,1.098-1.98,1.535c0.871,0.317,1.91,0.512,3.115,0.588c-0.167,0.233-0.311,0.45-0.435,0.652
				c-1.351-0.178-2.483-0.48-3.399-0.905c-1.027,0.438-2.272,0.784-3.732,1.037c-0.088-0.16-0.193-0.341-0.317-0.543
				c1.298-0.2,2.425-0.482,3.382-0.848c-0.592-0.359-1.064-0.786-1.42-1.279c-0.401,0.478-0.844,0.919-1.331,1.326
				c-0.157-0.166-0.3-0.307-0.43-0.42C435.054,217.224,435.763,216.4,436.222,215.509z M434.589,220.065h2.263
				c0.037-0.252,0.069-0.531,0.095-0.84h0.63c-0.034,0.309-0.071,0.588-0.104,0.84h3.137c-0.053,0.928-0.101,1.579-0.148,1.952
				c-0.084,0.73-0.519,1.099-1.305,1.104c-0.309,0.005-0.766-0.005-1.378-0.031c-0.031-0.192-0.069-0.407-0.116-0.646
				c0.597,0.051,1.088,0.08,1.477,0.085c0.441-0.009,0.686-0.232,0.732-0.667c0.045-0.39,0.079-0.805,0.1-1.246h-2.594
				c-0.273,1.248-1.239,2.151-2.895,2.714c-0.119-0.171-0.247-0.344-0.382-0.521c1.488-0.482,2.37-1.213,2.643-2.193h-2.153V220.065
				z M439.814,216.83h-3.472c0.417,0.5,0.954,0.913,1.609,1.236C438.7,217.717,439.323,217.305,439.814,216.83z"/>
			<path fill="#FFFFFF" d="M447.435,216.613c0.814,0.757,1.584,1.532,2.309,2.325l-0.553,0.459
				c-0.207-0.244-0.417-0.483-0.629-0.721c-2.326,0.099-4.105,0.182-5.333,0.254c-0.285,0.021-0.562,0.062-0.825,0.123l-0.257-0.668
				c0.239-0.087,0.452-0.21,0.645-0.365c0.89-0.725,1.7-1.563,2.436-2.511l0.583,0.357c-0.777,0.913-1.59,1.724-2.434,2.434
				c1.588-0.049,3.152-0.106,4.688-0.171c-0.354-0.386-0.716-0.761-1.081-1.127L447.435,216.613z M448.576,219.7v3.53h-0.637v-0.513
				h-4.277v0.513h-0.636v-3.53H448.576z M447.939,220.275h-4.277v1.881h4.277V220.275z"/>
		</g>
	</g>
</g>
<g id="图层_5">
	<g id="AAA">
		<rect x="574.258" y="228.323" fill="#F7DCD7" stroke="#231815" width="39.928" height="29.477"/>
		<g>
			<g>
				<path fill="#231815" d="M590.146,248.244h-1.001l-0.713-2.115h-2.917l-0.673,2.115h-1l2.668-7.726h0.968L590.146,248.244z
					 M588.151,245.256l-1.058-3.212c-0.033-0.103-0.069-0.282-0.108-0.539h-0.022c-0.034,0.233-0.071,0.413-0.113,0.539l-1.05,3.212
					H588.151z"/>
				<path fill="#231815" d="M596.659,248.244h-0.999l-0.715-2.115h-2.916l-0.673,2.115h-0.999l2.667-7.726h0.968L596.659,248.244z
					 M594.665,245.256l-1.059-3.212c-0.032-0.103-0.068-0.282-0.107-0.539h-0.023c-0.032,0.233-0.07,0.413-0.113,0.539l-1.047,3.212
					H594.665z"/>
				<path fill="#231815" d="M603.174,248.244h-1l-0.713-2.115h-2.916l-0.673,2.115h-1l2.666-7.726h0.968L603.174,248.244z
					 M601.181,245.256l-1.059-3.212c-0.032-0.103-0.068-0.282-0.109-0.539h-0.021c-0.034,0.233-0.07,0.413-0.113,0.539l-1.049,3.212
					H601.181z"/>
			</g>
		</g>
	</g>
	<g id="escalater_x5F_2">
		<rect x="329.912" y="203.712" fill="#D71718" width="23.594" height="23.595"/>
		<g>
			<path fill-rule="evenodd" clip-rule="evenodd" fill="#FFFFFF" d="M340.622,208.328c0.55,0,0.998,0.445,0.998,0.996
				c0,0.55-0.448,0.996-0.998,0.996c-0.55,0-1.003-0.446-1.003-0.996C339.619,208.773,340.071,208.328,340.622,208.328
				L340.622,208.328z M339.565,214.971l-4.063,3.252c0,0-0.621-0.082-1.261,0.153c-0.383,0.139-0.769,0.418-1.028,0.813
				c-0.785,1.193-0.28,3.2,1.265,3.456c0.521,0.088,2.189,0.013,2.189,0.013l11.125-8.831l1.049,0.008c0,0,1.303-0.3,1.59-1.415
				c0.286-1.107,0.036-1.979-0.449-2.454c-0.482-0.487-1.064-0.646-1.064-0.646h-2.432l-4.872,3.955l-0.04-1.741
				c0,0,0-0.896-0.887-0.915c-0.888-0.021-1.093,0.616-1.093,0.879C339.595,211.752,339.565,214.971,339.565,214.971
				L339.565,214.971z M335.7,218.932c-0.632-0.016-1.159-0.048-1.5,0.18c-1.209,0.817-0.685,2.911,0.661,2.891l1.586-0.027
				l11.085-8.896c0.007-0.004,1.131,0.03,1.393-0.023c0.263-0.057,0.967-0.559,0.925-1.596c-0.032-1.031-0.999-1.427-0.999-1.427
				l-2.134,0.014L335.7,218.932z"/>
			<path fill="#FFFFFF" d="M334.063,205.582h15.271c1.261,0,2.293,1.028,2.293,2.29v15.276c0,1.253-1.032,2.289-2.293,2.289h-15.271
				c-1.261,0-2.289-1.036-2.289-2.289v-15.276C331.774,206.61,332.802,205.582,334.063,205.582L334.063,205.582z M334.063,206.342
				c-0.839,0-1.526,0.688-1.526,1.53v15.276c0,0.836,0.687,1.524,1.526,1.524h15.271c0.846,0,1.532-0.688,1.532-1.524v-15.276
				c0-0.842-0.686-1.53-1.532-1.53H334.063z"/>
		</g>
	</g>
	<g id="escalater_x5F_1">
		<rect x="331.72" y="115.208" fill="#D71718" width="23.594" height="23.595"/>
		<g>
			<path fill-rule="evenodd" clip-rule="evenodd" fill="#FFFFFF" d="M342.429,119.824c0.551,0,0.998,0.445,0.998,0.996
				c0,0.55-0.447,0.996-0.998,0.996c-0.55,0-1.002-0.446-1.002-0.996C341.427,120.269,341.879,119.824,342.429,119.824
				L342.429,119.824z M341.373,126.466l-4.063,3.252c0,0-0.621-0.082-1.261,0.153c-0.383,0.139-0.769,0.418-1.028,0.813
				c-0.785,1.193-0.279,3.2,1.266,3.456c0.52,0.088,2.188,0.013,2.188,0.013l11.124-8.831l1.05,0.008c0,0,1.303-0.3,1.591-1.415
				c0.285-1.107,0.035-1.979-0.449-2.454c-0.482-0.487-1.064-0.646-1.064-0.646h-2.432l-4.871,3.955l-0.039-1.741
				c0,0,0-0.896-0.888-0.915c-0.888-0.021-1.093,0.616-1.093,0.879C341.404,123.248,341.373,126.466,341.373,126.466
				L341.373,126.466z M337.507,130.427c-0.632-0.016-1.158-0.048-1.5,0.18c-1.209,0.817-0.684,2.911,0.662,2.891l1.586-0.027
				l11.085-8.896c0.007-0.004,1.132,0.03,1.393-0.023c0.263-0.057,0.967-0.559,0.925-1.596c-0.031-1.031-0.998-1.427-0.998-1.427
				l-2.135,0.014L337.507,130.427z"/>
			<path fill="#FFFFFF" d="M335.871,117.078h15.271c1.262,0,2.293,1.028,2.293,2.29v15.276c0,1.253-1.031,2.289-2.293,2.289h-15.271
				c-1.26,0-2.289-1.036-2.289-2.289v-15.276C333.582,118.106,334.611,117.078,335.871,117.078L335.871,117.078z M335.871,117.837
				c-0.839,0-1.525,0.688-1.525,1.53v15.276c0,0.836,0.687,1.524,1.525,1.524h15.271c0.846,0,1.532-0.688,1.532-1.524v-15.276
				c0-0.842-0.687-1.53-1.532-1.53H335.871z"/>
		</g>
	</g>
</g>
<g id="图层_6">
	<g id="天宝龙凤">
		<rect x="155.782" y="239.847" fill="#999999" width="46.2" height="45.661"/>
		<rect x="151.282" y="235.349" fill="#FAF5BE" stroke="#231815" width="46.2" height="45.66"/>
		<g>
			<g>
				<path fill="#231815" d="M160.021,255.41c3.456-1.472,5.467-3.521,6.035-6.146h-5.855v-1.053h6
					c0.042-0.654,0.062-1.786,0.062-3.391h-5.301v-1.052h11.959v1.052h-5.438c-0.009,0.964-0.028,2.095-0.057,3.391h6.201v1.053
					h-6.014c0.882,2.925,2.951,4.881,6.208,5.869c-0.379,0.452-0.697,0.835-0.954,1.149c-3.009-1.213-4.99-3.218-5.939-6.014
					c-0.73,2.603-2.747,4.667-6.05,6.194C160.685,256.213,160.399,255.862,160.021,255.41z"/>
				<path fill="#231815" d="M174.36,254.662h6.119v-3.156h-4.928v-1.024h4.928v-2.022h-5.454v-1.023h12.071v1.023h-5.441v2.022h4.97
					v1.024h-4.97v3.156h6.188v1.038H174.36V254.662z M174.804,244.695h6.042c-0.231-0.457-0.51-0.941-0.837-1.454l1.009-0.47
					c0.379,0.517,0.717,1.051,1.011,1.604l-0.616,0.319h5.945v2.326h-1.121v-1.287h-10.312v1.287h-1.122V244.695z M183.289,252.46
					l0.817-0.636c0.636,0.609,1.199,1.228,1.689,1.855l-0.899,0.692C184.424,253.735,183.889,253.098,183.289,252.46z"/>
				<path fill="#231815" d="M163.897,269.475c1.135-0.554,2.178-1.156,3.128-1.807v-5.682h-1.515
					c-0.153,2.109-0.45,3.779-0.894,5.011c-0.701,2.002-1.974,3.631-3.82,4.886c-0.212-0.313-0.508-0.641-0.886-0.982
					c1.763-1.126,2.948-2.579,3.557-4.36c0.406-1.108,0.686-2.626,0.837-4.554h-4.062v-1.052h4.124
					c0.047-0.844,0.069-1.758,0.069-2.74h1.191c0,0.978-0.021,1.891-0.063,2.74h8.022v1.052h-5.399v4.81
					c1.426-1.149,2.598-2.434,3.517-3.855l0.996,0.664c-1.176,1.764-2.681,3.328-4.512,4.693v0.817c0,0.813,0.35,1.218,1.052,1.218
					h1.675c0.812,0,1.273-0.331,1.385-0.996c0.082-0.48,0.17-1.177,0.262-2.091c0.388,0.157,0.785,0.305,1.191,0.444
					c-0.147,0.968-0.277,1.692-0.388,2.173c-0.258,1.034-0.993,1.55-2.201,1.55h-2.187c-1.301,0-1.953-0.669-1.953-2.007v-0.298
					c-0.757,0.494-1.561,0.958-2.409,1.391C164.45,270.158,164.21,269.816,163.897,269.475z M168.326,258.955l0.678-0.775
					c0.887,0.554,1.661,1.117,2.326,1.689l-0.79,0.885C169.896,260.164,169.157,259.563,168.326,258.955z"/>
				<path fill="#231815" d="M176.549,260.076v5.067c0,3.035-0.522,5.296-1.564,6.782c-0.222-0.277-0.499-0.596-0.832-0.956
					c0.85-1.219,1.274-3.16,1.274-5.827v-6.063h10.354v6.478c0.009,1.643,0.037,2.774,0.082,3.392
					c0.102,0.987,0.311,1.481,0.623,1.481c0.129,0,0.218-0.151,0.264-0.457c0.101-0.895,0.161-1.684,0.18-2.368
					c0.433,0.167,0.783,0.296,1.051,0.388c-0.074,0.85-0.166,1.63-0.276,2.339c-0.176,0.923-0.591,1.385-1.247,1.385
					c-0.914,0-1.477-0.849-1.689-2.546c-0.063-0.72-0.101-1.93-0.11-3.626v-5.469H176.549z M178.542,263.426
					c0.757,0.839,1.537,1.703,2.339,2.589c0.675-1.033,1.117-2.178,1.329-3.434h-4.844v-0.969h6.035v0.9
					c-0.305,1.587-0.899,3.023-1.786,4.306c0.803,0.894,1.633,1.817,2.492,2.768l-0.942,0.789c-0.728-0.914-1.466-1.813-2.214-2.699
					c-0.987,1.171-2.252,2.196-3.793,3.073c-0.194-0.305-0.415-0.624-0.664-0.956c1.567-0.83,2.824-1.81,3.765-2.935
					c-0.813-0.95-1.64-1.887-2.479-2.81L178.542,263.426z"/>
			</g>
		</g>
	</g>
	<g id="印心鸟">
		<rect x="80.826" y="226.284" fill="#999999" width="45.285" height="46.316"/>
		<rect x="76.415" y="221.872" fill="#F7DCD7" stroke="#231815" width="45.285" height="46.318"/>
		<text transform="matrix(1 0 0 1 80.5947 250.125)" fill="#040000" font-family="'SimHei'" font-size="12.4578">印心鸟</text>
	</g>
</g>
<g id="图层_7">
	<g id="翠达">
		<rect x="666.329" y="206.412" fill="#999999" width="45.581" height="48.893"/>
		<rect x="661.675" y="201.756" fill="#F7DCD7" stroke="#231815" width="45.577" height="48.893"/>
		<g>
			<g>
				<path fill="#231815" d="M671.213,230.37h6.372v-0.802h1.09v0.802h6.374v0.917h-6.374v2.034h-1.09v-2.034h-6.372V230.37z
					 M671.855,225.557h6.175c-0.345-0.391-0.654-0.716-0.932-0.973l0.314-0.158h-0.844v-3.494h-4.784v-0.888h5.814v4.296l0.401-0.2
					c0.411,0.373,0.797,0.754,1.159,1.146l-0.529,0.272h5.773v0.888h-12.549V225.557z M671.842,229.295
					c1.375-0.726,2.34-1.59,2.894-2.592h1.189c-0.182,0.314-0.378,0.62-0.588,0.916c0.716,0.392,1.455,0.812,2.221,1.261
					l-0.731,0.759c-0.754-0.544-1.441-0.988-2.063-1.332c-0.603,0.648-1.318,1.216-2.148,1.704
					C672.366,229.744,672.11,229.505,671.842,229.295z M671.885,223.838c1.576-0.286,2.983-0.578,4.225-0.874
					c-0.028,0.383-0.052,0.698-0.071,0.946c-1.317,0.277-2.659,0.582-4.024,0.917L671.885,223.838z M672.959,221.06
					c0.889,0.344,1.695,0.687,2.422,1.032l-0.503,0.859c-0.849-0.42-1.637-0.797-2.362-1.132L672.959,221.06z M678.216,229.081
					c1.317-0.735,2.196-1.528,2.635-2.377h1.218c-0.143,0.277-0.31,0.544-0.501,0.801c1.156,0.612,2.11,1.16,2.866,1.647
					l-0.761,0.729c-0.898-0.62-1.78-1.188-2.65-1.704c-0.534,0.592-1.192,1.117-1.976,1.576
					C678.76,229.478,678.483,229.252,678.216,229.081z M683.129,220.931h-4.884v-0.888h5.914v4.727h-1.03V220.931z M678.502,223.609
					c1.642-0.286,3.099-0.563,4.368-0.832c-0.019,0.373-0.033,0.688-0.042,0.946c-1.032,0.199-2.416,0.491-4.153,0.873
					L678.502,223.609z M679.291,221.06c0.706,0.219,1.554,0.535,2.548,0.945l-0.415,0.859c-0.765-0.343-1.599-0.677-2.507-1.002
					L679.291,221.06z"/>
				<path fill="#231815" d="M691.68,232.016c2.645,0.029,5.395,0.01,8.249-0.057c-0.161,0.382-0.318,0.749-0.474,1.103
					c-2.615,0.038-5.269,0.033-7.962-0.014c-1.595-0.019-2.779-0.564-3.552-1.633c-0.277,0.219-0.835,0.831-1.676,1.833
					l-0.617-1.217c0.593-0.534,1.185-1.056,1.777-1.562v-4.999h-1.634v-1.046h2.75v6.259
					C689.24,231.535,690.285,231.979,691.68,232.016z M687.125,219.456c0.84,1.002,1.564,1.924,2.177,2.765l-1.004,0.716
					c-0.628-0.955-1.317-1.9-2.062-2.836L687.125,219.456z M689.745,222.778h3.953v-3.379h1.146v3.379h4.47v1.046h-4.497
					c-0.038,0.697-0.135,1.356-0.287,1.977c1.651,1.328,3.213,2.746,4.684,4.254l-0.86,0.959c-1.288-1.461-2.667-2.855-4.137-4.182
					c-0.708,1.9-2.04,3.39-3.998,4.469c-0.257-0.354-0.524-0.668-0.802-0.945c2.626-1.405,4.045-3.581,4.254-6.532h-3.925V222.778z"
					/>
			</g>
		</g>
	</g>
	<g id="奥卡索">
		<rect x="712.069" y="206.443" fill="#999999" width="47.247" height="48.892"/>
		<rect x="707.412" y="201.785" fill="#F7DCD7" stroke="#231815" width="47.249" height="48.894"/>
		<g>
			<g>
				<path fill="#231815" d="M723.887,232.613c-0.259,0.334-0.493,0.71-0.704,1.126c-2.437-0.254-4.224-1.285-5.355-3.096
					c-0.681,1.729-2.506,2.806-5.479,3.231c-0.153-0.362-0.328-0.696-0.521-1.004c2.624-0.299,4.278-1.068,4.967-2.308h-4.627
					v-0.937h5.041c0.072-0.227,0.133-0.475,0.181-0.747h0.96c-0.048,0.263-0.104,0.511-0.169,0.747h5.258v0.937h-4.675
					C719.863,231.875,721.571,232.559,723.887,232.613z M714.025,228.988h-0.898v-7.114h3.693c0.185-0.516,0.338-1.023,0.46-1.521
					l0.996,0.259c-0.185,0.498-0.355,0.919-0.511,1.263h4.822v7.114h-0.897v-6.218h-7.665V228.988z M714.305,228.105
					c0.972-0.462,1.858-1.109,2.659-1.942h-2.404v-0.842h2.903v-2.252h0.849v2.252h2.818v0.842h-2.818v0.815l0.269-0.435
					c0.882,0.417,1.776,0.906,2.686,1.468l-0.486,0.814c-0.795-0.562-1.616-1.055-2.468-1.48v1.168h-0.849v-1.833
					c-0.786,0.951-1.629,1.707-2.527,2.268C714.773,228.693,714.563,228.414,714.305,228.105z M714.889,223.788l0.497-0.611
					c0.478,0.354,0.935,0.748,1.373,1.182l-0.559,0.747C715.811,224.643,715.373,224.204,714.889,223.788z M718.992,224.48
					c0.415-0.334,0.855-0.765,1.324-1.29l0.584,0.651c-0.422,0.444-0.887,0.864-1.398,1.263L718.992,224.48z"/>
				<path fill="#231815" d="M724.444,225.622h4.848v-5.187h1.02v2.022h5.103v1.004h-5.103v2.16h5.867v1.032h-11.734V225.622z
					 M729.28,227.142h1.019v1.561l0.499-0.718c1.929,0.986,3.494,1.859,4.7,2.619l-0.632,1.005
					c-1.101-0.752-2.624-1.652-4.567-2.703v4.902h-1.019V227.142z"/>
				<path fill="#231815" d="M740.078,230.359l0.57,0.773c-1.086,0.869-2.211,1.634-3.376,2.294
					c-0.154-0.281-0.354-0.575-0.597-0.882C737.899,231.938,739.032,231.21,740.078,230.359z M745.117,227.168
					c1.101,0.924,2.09,1.815,2.965,2.675l-0.718,0.747c-0.256-0.28-0.521-0.561-0.796-0.841c-1.097,0.045-2.163,0.095-3.199,0.148
					v2.039c0,1.112-0.532,1.669-1.592,1.669c-0.478,0-0.988-0.009-1.531-0.028c-0.04-0.326-0.097-0.688-0.168-1.086
					c0.581,0.072,1.088,0.11,1.517,0.11c0.551,0,0.826-0.3,0.826-0.897v-1.744c-0.817,0.045-1.615,0.097-2.392,0.155
					c-0.471,0.037-0.94,0.096-1.409,0.177l-0.364-1.073c0.551-0.126,1.101-0.334,1.651-0.625c0.775-0.421,1.512-0.848,2.204-1.284
					c-0.652,0.051-1.277,0.103-1.877,0.157c-0.381,0.045-0.717,0.099-1.008,0.163l-0.303-0.924c0.348-0.144,0.688-0.334,1.02-0.569
					c0.527-0.38,1.077-0.833,1.651-1.359h-3.522v1.562h-0.946v-2.484h5.101v-1.263h-4.749v-0.922h4.749v-1.33h0.996v1.33h4.797
					v0.922h-4.797v1.263h5.102v2.484h-0.946v-1.562h-4.593c-0.84,0.733-1.636,1.372-2.392,1.915
					c0.946-0.045,1.892-0.086,2.835-0.122c0.559-0.384,1.083-0.773,1.573-1.167l0.741,0.638c-1.823,1.23-3.546,2.29-5.174,3.177
					c1.716-0.081,3.503-0.179,5.361-0.292c-0.396-0.38-0.812-0.763-1.245-1.147L745.117,227.168z M744.971,230.467
					c1.385,0.689,2.64,1.372,3.765,2.051c-0.234,0.344-0.425,0.656-0.569,0.937c-1.061-0.733-2.297-1.471-3.705-2.213
					L744.971,230.467z"/>
			</g>
		</g>
	</g>
	<g id="力弗莱">
		<rect x="543.416" y="96.022" fill="#999999" width="43.789" height="37.872"/>
		<rect x="538.459" y="91.065" fill="#F7DCD7" stroke="#231815" width="43.789" height="37.872"/>
		<g>
			<g>
				<path fill="#231815" d="M540.715,106.067h4.188c0.026-1.061,0.043-2.139,0.052-3.238h1.126c-0.02,1.022-0.039,2.101-0.064,3.238
					h5.934c-0.104,3.767-0.202,6.43-0.297,7.992c-0.112,1.657-0.904,2.496-2.379,2.515c-0.707,0-1.561-0.02-2.563-0.058
					c-0.033-0.376-0.098-0.834-0.191-1.372h0.039c1.121,0.115,1.99,0.167,2.609,0.159c0.838-0.021,1.299-0.535,1.385-1.545
					c0.104-1.727,0.182-3.894,0.234-6.506h-4.798c-0.078,2.511-0.435,4.399-1.075,5.667c-0.679,1.406-2.006,2.761-3.981,4.061
					c-0.241-0.347-0.499-0.711-0.775-1.099c1.87-1.175,3.099-2.36,3.685-3.555c0.607-1.084,0.948-2.774,1.021-5.073h-4.148V106.067z
					"/>
				<path fill="#231815" d="M553.32,116.067c3.111-0.963,4.955-2.263,5.533-3.901h-5.379v-1.012h5.611
					c0.07-0.521,0.104-1.262,0.104-2.226h-4.783v-1.011h4.796c0.011-0.463,0.014-0.96,0.014-1.489h1.008c0,0.549,0,1.045,0,1.489
					h4.851v1.011h-4.851c0,0.964-0.034,1.705-0.103,2.226h5.947v1.012h-5.288c1.06,1.916,2.861,3.165,5.405,3.743
					c-0.285,0.395-0.509,0.761-0.673,1.098c-2.681-0.752-4.56-2.298-5.638-4.64c-0.525,1.948-2.482,3.542-5.871,4.785
					C553.807,116.767,553.578,116.406,553.32,116.067z M561.803,102.988h0.957v1.517h3.012v1.011h-3.012v1.519h-0.957v-1.519h-4.113
					v1.519h-0.956v-1.519h-3.025v-1.011h3.025v-1.517h0.956v1.517h4.113V102.988z"/>
				<path fill="#231815" d="M566.935,111.038h5.547v-2.991h-4.874v-0.984h4.874v-1.287h0.971v1.287h4.887v0.984h-4.887v2.991h5.573
					v0.982h-4.863c1.379,1.484,3.139,2.52,5.275,3.108c-0.232,0.443-0.431,0.833-0.594,1.172c-2.293-0.892-4.091-2.194-5.392-3.903
					v4.64h-0.971v-4.64c-1.241,1.589-3.018,2.905-5.327,3.946c-0.155-0.347-0.358-0.699-0.607-1.056
					c2.139-0.813,3.847-1.903,5.126-3.267h-4.738V111.038z M566.676,104.216h3.389V102.8h0.957v1.416h3.891V102.8h0.957v1.416h3.467
					v0.983h-3.467v1.084h-0.957v-1.084h-3.891v1.098h-0.957v-1.098h-3.389V104.216z M568.81,108.856l0.672-0.666
					c0.673,0.694,1.254,1.325,1.746,1.894l-0.775,0.752C569.899,110.142,569.354,109.482,568.81,108.856z M574.524,110.157
					c0.741-0.694,1.35-1.357,1.823-1.995l0.801,0.737c-0.507,0.569-1.148,1.239-1.925,2.01L574.524,110.157z"/>
			</g>
		</g>
	</g>
	<g id="蓝棠">
		<rect x="86.179" y="97.66" fill="#999999" width="60.833" height="46.001"/>
		<rect x="79.963" y="91.445" fill="#F7DCD7" stroke="#231815" width="60.836" height="46"/>
		<g>
			<g>
				<path fill="#231815" d="M93.437,120.266h1.995v-4.746h11.965v4.746h1.877v1.269H93.437V120.266z M93.47,105.807h4.686v-1.503
					h1.198v1.503h4.055v-1.503h1.199v1.503h4.636v1.269h-4.636v1.015h-1.199v-1.015h-4.055v1.015h-1.198v-1.015H93.47V105.807z
					 M95.06,108.977h1.199v5.583H95.06V108.977z M96.6,120.266h2.448v-3.514H96.6V120.266z M98.463,108.579h1.199v6.199h-1.199
					V108.579z M100.18,120.266h2.449v-3.514h-2.449V120.266z M100.344,113.96c0.983-1.642,1.718-3.515,2.206-5.617l1.214,0.344
					c-0.118,0.429-0.24,0.84-0.364,1.232h5.584v1.234h-5.988c-0.477,1.365-0.999,2.556-1.567,3.568
					C100.922,114.336,100.56,114.081,100.344,113.96z M103.668,112.601l0.728-0.959c1.113,0.81,2.118,1.605,3.015,2.392
					l-0.794,1.052C105.709,114.227,104.726,113.401,103.668,112.601z M106.229,116.752h-2.465v3.514h2.465V116.752z"/>
				<path fill="#231815" d="M126.037,120.356c-0.376,0.507-0.696,0.979-0.955,1.414c-2.746-0.942-4.924-2.366-6.535-4.275v4.874
					h-1.232v-4.911c-1.858,1.909-4.042,3.419-6.546,4.531c-0.251-0.362-0.563-0.779-0.94-1.251c2.332-0.796,4.326-1.896,5.979-3.299
					h-5.655v-1.158h7.163v-1.341h1.232v1.341h7.248v1.158h-5.885C121.662,118.926,123.703,119.898,126.037,120.356z
					 M110.573,107.583h3.826c-0.735-0.689-1.497-1.36-2.287-2.011l0.746-0.943c0.81,0.604,1.626,1.238,2.448,1.902l-0.875,1.051
					h2.884v-3.188h1.232v3.188h2.742l-0.666-0.922c0.887-0.678,1.73-1.373,2.529-2.085l0.941,1.068
					c-0.778,0.628-1.605,1.275-2.481,1.939h3.745v3.189h-1.232v-2.031h-12.32v2.031h-1.232V107.583z M112.908,110.047h10.148v5.002
					h-1.202v-0.617h-7.748v0.617h-1.199V110.047z M121.855,111.17h-7.748v2.137h7.748V111.17z"/>
			</g>
		</g>
	</g>
	<g id="春奥">
		<rect x="147.012" y="97.66" fill="#999999" width="62.322" height="45.976"/>
		<rect x="140.799" y="91.445" fill="#F7DCD7" stroke="#231815" width="62.321" height="45.975"/>
		<g>
			<g>
				<path fill="#231815" d="M154.398,112.367h4.562c0.31-0.471,0.58-0.954,0.813-1.45h-3.948v-1.195h4.402
					c0.156-0.478,0.291-0.961,0.404-1.45h-5.747v-1.197h5.989c0.098-0.568,0.171-1.147,0.221-1.741h1.328
					c-0.071,0.605-0.156,1.186-0.251,1.741h6.427v1.197h-6.654c-0.114,0.501-0.239,0.985-0.381,1.45h6.258v1.195h-6.663
					c-0.195,0.496-0.425,0.979-0.69,1.45h8.666v1.196h-4.201c1.185,1.468,2.828,2.538,4.929,3.208
					c-0.313,0.459-0.594,0.906-0.842,1.341c-1.019-0.448-1.941-0.998-2.774-1.648v6.704h-1.231v-0.978h-6.533v1.014h-1.232v-6.914
					c-0.812,0.72-1.724,1.412-2.739,2.075c-0.258-0.385-0.552-0.773-0.875-1.157c1.832-1.105,3.307-2.32,4.425-3.643h-3.663V112.367
					z M163.574,113.563h-3.86c-0.443,0.628-0.953,1.237-1.532,1.83h6.865C164.508,114.837,164.015,114.227,163.574,113.563z
					 M165.016,116.553h-6.533v1.703h6.533V116.553z M158.483,121.066h6.533v-1.686h-6.533V121.066z"/>
				<path fill="#231815" d="M186.413,121.736c-0.345,0.446-0.658,0.947-0.941,1.504c-3.251-0.338-5.635-1.716-7.147-4.131
					c-0.908,2.306-3.345,3.744-7.312,4.313c-0.206-0.484-0.437-0.932-0.697-1.341c3.502-0.4,5.711-1.426,6.63-3.082h-6.174v-1.248
					h6.727c0.096-0.302,0.177-0.636,0.241-0.999h1.281c-0.064,0.351-0.14,0.684-0.228,0.999h7.02v1.248h-6.24
					C181.042,120.75,183.322,121.663,186.413,121.736z M173.251,116.897h-1.199v-9.494h4.928c0.249-0.69,0.452-1.368,0.615-2.031
					l1.331,0.345c-0.249,0.664-0.475,1.224-0.682,1.686h6.436v9.494h-1.199v-8.299h-10.229V116.897z M173.623,115.72
					c1.296-0.616,2.48-1.48,3.549-2.592h-3.208v-1.122h3.874v-3.009h1.132v3.009h3.762v1.122h-3.762v1.089l0.358-0.581
					c1.177,0.557,2.371,1.208,3.583,1.958l-0.649,1.084c-1.06-0.747-2.158-1.406-3.293-1.974v1.56h-1.132v-2.447
					c-1.049,1.269-2.174,2.278-3.374,3.027C174.249,116.506,173.968,116.131,173.623,115.72z M174.401,109.958l0.663-0.816
					c0.639,0.471,1.25,0.996,1.835,1.577l-0.747,0.996C175.633,111.099,175.05,110.512,174.401,109.958z M179.879,110.881
					c0.553-0.447,1.143-1.019,1.768-1.721l0.779,0.869c-0.562,0.594-1.184,1.155-1.865,1.686L179.879,110.881z"/>
			</g>
		</g>
	</g>
	<g>
		<rect x="231.628" y="166.098" fill="#999999" width="48.521" height="36.095"/>
		<rect x="226.671" y="161.14" fill="#F7DCD7" stroke="#231815" width="48.523" height="36.098"/>
		<g>
			<g>
				<path fill="#231815" d="M237.049,177.303h12.516v1.042h-1.991v5.49c0,1.205-0.578,1.807-1.734,1.807
					c-0.482,0-1.102-0.009-1.86-0.028c-0.044-0.347-0.113-0.737-0.208-1.17c0.63,0.065,1.208,0.104,1.734,0.116
					c0.723,0.028,1.085-0.292,1.085-0.956v-5.259h-9.542V177.303z M237.592,175.958c2.422-0.316,3.991-0.943,4.707-1.878h-4.462
					v-1.041h4.953c0.112-0.415,0.172-0.905,0.181-1.474h0.971c-0.009,0.568-0.056,1.059-0.142,1.474h5.055v1.041h-5.391
					c-0.035,0.069-0.087,0.158-0.156,0.273c1.732,0.54,3.405,1.101,5.018,1.677l-0.453,1.041c-1.76-0.741-3.496-1.382-5.211-1.922
					c-0.913,0.857-2.419,1.48-4.513,1.863C237.992,176.648,237.807,176.295,237.592,175.958z M238.575,179.602h5.496v3.989h-4.54
					v0.635h-0.956V179.602z M243.112,182.58v-1.967h-3.581v1.967H243.112z"/>
				<path fill="#231815" d="M262.96,184.486c-0.328,0.493-0.577,0.892-0.75,1.202c-2.831-0.623-4.717-1.877-5.656-3.761
					c-0.841,1.992-2.778,3.282-5.813,3.874c-0.172-0.328-0.384-0.693-0.634-1.098c2.896-0.448,4.717-1.46,5.463-3.034h-5.179v-0.984
					h5.535c0.086-0.337,0.156-0.723,0.207-1.156h1.06c-0.068,0.426-0.146,0.81-0.233,1.156h5.768v0.984h-5.314
					C258.421,183.292,260.271,184.232,262.96,184.486z M250.21,178.228h5.807v-1.357h-4.746v-0.983h4.746v-1.331h-5.521v-0.982
					h4.079c-0.444-0.428-1.02-0.943-1.728-1.545l0.596-0.724c0.75,0.567,1.374,1.064,1.875,1.488l-0.686,0.78h3.439l-0.479-0.605
					c0.682-0.532,1.296-1.065,1.849-1.605l0.763,0.809c-0.552,0.463-1.147,0.932-1.79,1.402h4.208v0.982h-5.546v1.331h4.85v0.983
					h-4.85v1.357h5.779v0.983H250.21V178.228z"/>
			</g>
		</g>
	</g>
	<g id="卓怡">
		<rect x="280.15" y="166.098" fill="#999999" width="49.708" height="36.076"/>
		<rect x="275.194" y="161.14" fill="#F7DCD7" stroke="#231815" width="49.708" height="36.077"/>
		<g>
			<g>
				<path fill="#231815" d="M287.822,181.537h5.701v-1.503h-2.896v0.463h-0.996v-6.099h3.711v-3.282h1.009v1.099h5.34v0.941h-5.34
					v1.242h4.214v6.099h-0.996v-0.463h-3.038v1.503h5.87v0.97h-5.87v2.774h-1.01v-2.774h-5.701V181.537z M297.57,175.352h-6.943
					v1.402h6.943V175.352z M290.627,179.08h6.943v-1.402h-6.943V179.08z"/>
				<path fill="#231815" d="M301.437,174.47l0.866,0.145c-0.147,1.165-0.336,2.398-0.569,3.7c-0.232-0.076-0.521-0.155-0.866-0.232
					C301.065,177.09,301.255,175.885,301.437,174.47z M302.807,171.145h0.944v3.079l0.427-0.549c0.629,0.5,1.125,0.905,1.486,1.215
					l-0.568,0.809c-0.422-0.415-0.873-0.834-1.345-1.259v10.869h-0.944V171.145z M311.135,173.01
					c1.181,1.802,2.069,3.242,2.663,4.322l-0.906,0.679c-0.189-0.366-0.404-0.765-0.646-1.2c-2.249,0.125-4.128,0.265-5.636,0.42
					c-0.449,0.059-0.807,0.14-1.075,0.245l-0.516-1.142c0.343-0.191,0.663-0.443,0.957-0.751c0.741-0.973,1.59-2.487,2.547-4.539
					l1.047,0.521c-0.767,1.434-1.672,2.943-2.716,4.523c1.562-0.059,3.178-0.135,4.85-0.232c-0.416-0.693-0.88-1.454-1.397-2.283
					L311.135,173.01z M305.741,179.022h7.035v6.303h-0.982v-0.982h-5.069v0.996h-0.984V179.022z M311.794,180.004h-5.069v3.354
					h5.069V180.004z"/>
			</g>
		</g>
	</g>
</g>
</svg>
