<?xml version="1.0" encoding="utf-8"?>
<!-- Generator: Adobe Illustrator 15.0.0, SVG Export Plug-In . SVG Version: 6.00 Build 0)  -->
<!DOCTYPE svg PUBLIC "-//W3C//DTD SVG 1.1//EN" "http://www.w3.org/Graphics/SVG/1.1/DTD/svg11.dtd">
<svg version="1.1" id="图层_1" xmlns="http://www.w3.org/2000/svg" xmlns:xlink="http://www.w3.org/1999/xlink" x="0px" y="0px"
	 width="1028px" height="680px" viewBox="0 0 1028 680" enable-background="new 0 0 1028 680" xml:space="preserve">
<rect x="92.965" y="538.304" fill="#E6E6E6" width="842.07" height="104.696"/>
<g>
	<g>
		<g>
			<g>
				<rect x="634.754" y="562.051" fill="#E50012" width="40.848" height="39.975"/>
				<g>
					<path fill-rule="evenodd" clip-rule="evenodd" fill="#FFFFFF" d="M642.512,567.566h4.348v28.758h-4.348V567.566
						L642.512,567.566z M663.518,567.566h4.348v28.814h-4.348V567.566L663.518,567.566z M652.705,569.607l2.434-1.996l2.455,1.969
						l-0.012,1.52l-1.773-1.453l0.023,3.582l-1.4-0.002l0.02-3.529l-1.752,1.438L652.705,569.607L652.705,569.607z M652.797,594.512
						l2.428,1.998l2.455-1.979l-0.012-1.506l-1.77,1.445l0.031-3.59l-1.414,0.016l0.023,3.521l-1.758-1.424L652.797,594.512
						L652.797,594.512z M653.268,575.221c-0.432,0-0.791,0.361-0.791,0.813c0,0.426,0.359,0.787,0.791,0.787
						c0.441,0,0.799-0.361,0.799-0.787C654.066,575.582,653.709,575.221,653.268,575.221L653.268,575.221z M654.605,577.275
						l-2.486-0.023c-0.691-0.057-0.953,0.309-0.98,0.854l0.01,4.699c0.113,0.355,0.643,0.342,0.74,0.025c0-1.367,0-2.658,0-4.014
						c0.02-0.066,0.189-0.078,0.213,0l0.004,9.342c0.156,0.441,0.67,0.666,0.975,0.016l0.006-5.635
						c0.041-0.197,0.395-0.186,0.406,0.014v5.605c0.285,0.557,0.777,0.566,0.971-0.029v-9.313c0.029-0.066,0.217-0.098,0.246-0.033
						l0.723,1.445c0.055,0.158,0.211,0.295,0.412,0.215l1.871-1.17c0.223-0.424-0.254-0.686-0.385-0.654l-1.359,0.813l-0.471-1.25
						C655.342,577.814,655.225,577.266,654.605,577.275L654.605,577.275z M658.756,576.037c0.262,0,0.479,0.219,0.479,0.486
						c0,0.262-0.217,0.482-0.479,0.482c-0.264,0-0.477-0.221-0.477-0.482C658.279,576.256,658.492,576.037,658.756,576.037
						L658.756,576.037z M658.756,577.379c0.262,0,0.479,0.207,0.479,0.484c0,0.266-0.217,0.475-0.479,0.475
						c-0.264,0-0.477-0.209-0.477-0.475C658.279,577.586,658.492,577.379,658.756,577.379L658.756,577.379z M658.756,578.709
						c0.262,0,0.479,0.227,0.479,0.494c0,0.262-0.217,0.48-0.479,0.48c-0.264,0-0.477-0.219-0.477-0.48
						C658.279,578.936,658.492,578.709,658.756,578.709L658.756,578.709z M658.756,579.994c0.262,0,0.479,0.219,0.479,0.484
						c0,0.268-0.217,0.477-0.479,0.477c-0.264,0-0.477-0.209-0.477-0.477C658.279,580.213,658.492,579.994,658.756,579.994
						L658.756,579.994z M648.18,573.391l14.018,0.037l0.016,17.227l-14.051-0.018L648.18,573.391L648.18,573.391z M649.605,574.758
						l11.1,0.033l0.008,14.545l-11.119-0.016L649.605,574.758z"/>
					<path fill="#FFFFFF" d="M642.303,565.293h25.764c2.127,0,3.869,1.734,3.869,3.871v25.764c0,2.117-1.742,3.857-3.869,3.857
						h-25.764c-2.119,0-3.861-1.74-3.861-3.857v-25.764C638.441,567.027,640.184,565.293,642.303,565.293L642.303,565.293z
						 M642.303,566.578c-1.416,0-2.578,1.156-2.578,2.586v25.764c0,1.408,1.162,2.58,2.578,2.58h25.764
						c1.418,0,2.584-1.172,2.584-2.58v-25.764c0-1.43-1.166-2.586-2.584-2.586H642.303z"/>
				</g>
			</g>
			<g>
				<g>
					<path fill="#231815" d="M643.854,608.602h4.215v-1.586h0.951v1.586h4.229v6.959h-4.229v1.449c0,0.504,0.244,0.756,0.73,0.756
						h2.674c0.52,0,0.836-0.186,0.949-0.557c0.121-0.406,0.209-0.986,0.264-1.746c0.221,0.107,0.537,0.236,0.947,0.383
						c-0.092,0.662-0.193,1.227-0.307,1.697c-0.191,0.777-0.709,1.164-1.555,1.164h-3.041c-1.074,0-1.613-0.568-1.613-1.709v-1.438
						h-3.266v0.854h-0.949V608.602z M644.803,611.637h3.266v-2.105h-3.266V611.637z M644.803,614.633h3.266v-2.117h-3.266V614.633z
						 M652.299,609.531h-3.279v2.105h3.279V609.531z M652.299,614.633v-2.117h-3.279v2.117H652.299z"/>
					<path fill="#231815" d="M654.949,614.781c0.801-1.344,1.365-2.803,1.693-4.371h-1.51v-0.867h1.531v-2.527h0.824v2.527h1.326
						v0.867h-1.326v1.189l0.342-0.359c0.404,0.42,0.816,0.871,1.236,1.348l-0.596,0.607c-0.381-0.504-0.707-0.902-0.982-1.201v7.221
						h-0.824v-6.525c-0.381,1.344-0.83,2.406-1.348,3.182C655.217,615.516,655.096,615.152,654.949,614.781z M663.934,606.955
						l0.824,0.445c-0.352,0.553-0.684,1.053-0.994,1.498h1.77v3.531h-0.822v-0.348h-1.965v1.559h3.416
						c-0.121,1.348-0.225,2.313-0.309,2.9c-0.105,0.742-0.588,1.113-1.439,1.113c-0.389,0-0.822-0.037-1.303-0.111
						c-0.047-0.396-0.1-0.74-0.162-1.029c0.543,0.117,0.969,0.184,1.281,0.199c0.443,0.025,0.701-0.094,0.779-0.359
						c0.098-0.479,0.182-1.109,0.25-1.895h-2.514v4.756h-0.824v-4.074c-0.891,1.271-2.014,2.336-3.371,3.195
						c-0.191-0.271-0.396-0.527-0.617-0.77c1.5-0.807,2.713-1.844,3.635-3.107h-2.514l0.375-3.195h2.492v-1.547h-2.662v-0.818h1.588
						c-0.25-0.502-0.545-0.998-0.879-1.484l0.697-0.459c0.357,0.504,0.672,0.998,0.947,1.484l-0.662,0.459h1.828
						C663.168,608.287,663.553,607.639,663.934,606.955z M659.969,613.641h1.953v-1.559h-1.781L659.969,613.641z M664.711,609.717
						h-1.965v1.547h1.965V609.717z"/>
				</g>
			</g>
		</g>
		<g>
			<g>
				<rect x="700.518" y="562.051" fill="#E50012" width="40.02" height="40.02"/>
				<g>
					<path fill-rule="evenodd" clip-rule="evenodd" fill="#FFFFFF" d="M718.68,569.881c0.932,0,1.693,0.754,1.693,1.691
						c0,0.928-0.762,1.686-1.693,1.686c-0.934,0-1.701-0.758-1.701-1.686C716.979,570.635,717.746,569.881,718.68,569.881
						L718.68,569.881z M716.889,581.148l-6.895,5.512c0,0-1.051-0.137-2.135,0.266c-0.648,0.232-1.307,0.707-1.744,1.375
						c-1.332,2.021-0.473,5.426,2.145,5.863c0.881,0.146,3.713,0.02,3.713,0.02l18.869-14.977l1.779,0.012
						c0,0,2.209-0.51,2.697-2.398c0.484-1.881,0.061-3.359-0.762-4.16c-0.818-0.83-1.803-1.098-1.803-1.098h-4.125l-8.268,6.705
						l-0.063-2.951c0,0,0-1.52-1.508-1.551c-1.502-0.035-1.854,1.043-1.854,1.49C716.938,575.686,716.889,581.148,716.889,581.148
						L716.889,581.148z M710.334,587.865c-1.076-0.027-1.969-0.082-2.545,0.305c-2.051,1.387-1.162,4.938,1.119,4.902l2.691-0.047
						l18.803-15.088c0.012-0.01,1.918,0.049,2.361-0.041c0.447-0.096,1.641-0.949,1.572-2.707c-0.057-1.748-1.695-2.42-1.695-2.42
						l-3.623,0.021L710.334,587.865z"/>
					<path fill="#FFFFFF" d="M707.555,565.219h25.902c2.141,0,3.891,1.75,3.891,3.889v25.912c0,2.123-1.75,3.881-3.891,3.881
						h-25.902c-2.137,0-3.881-1.758-3.881-3.881v-25.912C703.674,566.969,705.418,565.219,707.555,565.219L707.555,565.219z
						 M707.555,566.51c-1.42,0-2.588,1.168-2.588,2.598v25.912c0,1.416,1.168,2.586,2.588,2.586h25.902
						c1.434,0,2.602-1.17,2.602-2.586v-25.912c0-1.43-1.168-2.598-2.602-2.598H707.555z"/>
				</g>
			</g>
			<g>
				<g>
					<path fill="#231815" d="M703.412,614.162h5.152v-2.219h-4.354v-0.977h4.354v-2.234c-1.443,0.061-2.91,0.113-4.4,0.154
						c-0.045-0.348-0.104-0.686-0.17-1.016c3.893-0.066,7.051-0.215,9.475-0.445l0.148,1.014c-1.342,0.092-2.705,0.172-4.092,0.242
						v2.285h4.148v0.977h-4.148v2.219h5.131v0.979h-5.131v2.277c0,1.004-0.475,1.512-1.416,1.523c-0.48,0-1.148-0.004-2.002-0.012
						c-0.037-0.379-0.1-0.756-0.182-1.127c0.854,0.066,1.496,0.098,1.932,0.098c0.471,0,0.707-0.275,0.707-0.828v-1.932h-5.152
						V614.162z"/>
					<path fill="#231815" d="M715,613.68c0.533-0.158,1.105-0.33,1.715-0.52v-2.725h-1.521v-0.855h1.521v-2.451h0.891v2.451h1.418
						v0.855h-1.418v2.438c0.404-0.131,0.826-0.275,1.27-0.432c0.008,0.422,0.014,0.75,0.023,0.99
						c-0.352,0.107-0.783,0.248-1.293,0.42v3.789c0,0.918-0.373,1.375-1.121,1.375c-0.287,0-0.668-0.004-1.143-0.012
						c-0.037-0.313-0.09-0.646-0.158-1.004c0.426,0.041,0.775,0.064,1.051,0.064c0.32,0,0.48-0.199,0.48-0.596v-3.307
						c-0.48,0.164-1.01,0.352-1.59,0.557L715,613.68z M719.217,612.527h2.721c0.061-0.627,0.096-1.445,0.104-2.453h-2.445v-0.891
						h2.445c0.014-0.676,0.021-1.402,0.021-2.18h0.904c0,0.793-0.004,1.52-0.012,2.18h2.914v0.891h-2.914
						c-0.008,0.91-0.039,1.727-0.094,2.453h3.441v0.893h-3.246c0.541,2.311,1.654,3.887,3.336,4.729
						c-0.279,0.314-0.543,0.617-0.787,0.906c-1.539-1.059-2.572-2.641-3.098-4.744c-0.518,2.064-1.699,3.689-3.541,4.879
						c-0.17-0.248-0.381-0.535-0.641-0.867c1.928-1.057,3.094-2.691,3.498-4.902h-2.607V612.527z"/>
					<path fill="#231815" d="M726.703,614.781c0.799-1.344,1.365-2.803,1.691-4.371h-1.51v-0.867h1.533v-2.527h0.822v2.527h1.326
						v0.867h-1.326v1.189l0.344-0.359c0.402,0.42,0.814,0.871,1.234,1.348l-0.596,0.607c-0.381-0.504-0.707-0.902-0.982-1.201v7.221
						h-0.822v-6.525c-0.381,1.344-0.83,2.406-1.348,3.182C726.969,615.516,726.848,615.152,726.703,614.781z M735.686,606.955
						l0.824,0.445c-0.352,0.553-0.682,1.053-0.994,1.498h1.771v3.531h-0.824v-0.348h-1.965v1.559h3.416
						c-0.121,1.348-0.225,2.313-0.307,2.9c-0.107,0.742-0.588,1.113-1.441,1.113c-0.389,0-0.822-0.037-1.303-0.111
						c-0.045-0.396-0.098-0.74-0.16-1.029c0.543,0.117,0.969,0.184,1.279,0.199c0.441,0.025,0.703-0.094,0.779-0.359
						c0.098-0.479,0.182-1.109,0.25-1.895h-2.514v4.756h-0.822v-4.074c-0.893,1.271-2.018,2.336-3.373,3.195
						c-0.189-0.271-0.395-0.527-0.617-0.77c1.502-0.807,2.713-1.844,3.635-3.107h-2.516l0.377-3.195h2.494v-1.547h-2.664v-0.818
						h1.588c-0.25-0.502-0.543-0.998-0.879-1.484l0.695-0.459c0.359,0.504,0.676,0.998,0.949,1.484l-0.662,0.459h1.83
						C734.922,608.287,735.305,607.639,735.686,606.955z M731.721,613.641h1.955v-1.559h-1.783L731.721,613.641z M736.463,609.717
						h-1.965v1.547h1.965V609.717z"/>
				</g>
			</g>
		</g>
		<g>
			<g>
				<rect x="766.277" y="562.051" fill="#E50012" width="40.002" height="40.461"/>
				<g>
					<polygon fill-rule="evenodd" clip-rule="evenodd" fill="#FFFFFF" points="774.902,567.182 779.635,567.182 786.424,576.982 
						793.318,567.355 798.408,567.355 788.693,580.508 788.693,581.244 796.561,581.275 796.561,584.506 788.729,584.506 
						788.729,586.691 796.561,586.691 796.561,589.719 788.746,589.719 788.746,596.025 784.221,596.025 784.221,589.77 
						776.555,589.77 776.555,586.713 784.219,586.713 784.219,584.543 776.555,584.543 776.555,581.289 784.213,581.289 
						784.213,580.514 					"/>
					<g>
						<path fill="#FFFFFF" d="M773.332,564.291h26.639c2.193,0,3.99,1.793,3.99,3.988v26.637c0,2.199-1.797,3.994-3.99,3.994
							h-26.639c-2.191,0-3.99-1.795-3.99-3.994v-26.637C769.342,566.084,771.141,564.291,773.332,564.291L773.332,564.291z
							 M773.332,565.619c-1.461,0-2.662,1.197-2.662,2.66v26.637c0,1.469,1.201,2.674,2.662,2.674h26.639
							c1.469,0,2.664-1.205,2.664-2.674v-26.637c0-1.463-1.195-2.66-2.664-2.66H773.332z"/>
						<g>
							<g>
								<polygon fill-rule="evenodd" clip-rule="evenodd" fill="#FFFFFF" points="776.131,591.432 776.551,591.432 776.551,591.426 
									776.539,591.426 776.207,590.775 776.207,590.771 775.924,590.771 775.924,590.619 776.652,590.619 776.652,590.771 
									776.475,590.771 776.801,591.391 776.852,591.391 777.203,590.771 777.014,590.771 777.014,590.619 777.738,590.619 
									777.738,590.771 777.473,590.771 777.473,590.775 777.119,591.391 777.127,591.391 777.127,591.432 777.535,591.432 
									777.535,591.574 777.127,591.574 777.127,591.797 777.535,591.797 777.535,591.955 777.127,591.955 777.127,592.813 
									777.43,592.813 777.43,592.971 776.236,592.971 776.236,592.813 776.551,592.813 776.551,591.955 776.131,591.955 
									776.131,591.797 776.551,591.797 776.551,591.574 776.131,591.574 								"/>
								<path fill-rule="evenodd" clip-rule="evenodd" fill="#FFFFFF" d="M774.539,588.857c0.189-0.424,0.607-0.322,0.736,0v0.912
									h0.264v-1.225c0.186-0.404,0.582-0.334,0.746,0v1.225h0.26v-1.508c0.166-0.396,0.564-0.396,0.742,0v1.508h0.262v-1.209
									c0.119-0.381,0.65-0.416,0.742,0v1.209h2.207v4.02h-1.322c-0.041,1.314-1.053,2.371-2.299,2.371s-2.258-1.057-2.305-2.371
									h-1.457v-4.02h1.424V588.857L774.539,588.857z M778.402,591.781c0.184-0.873,0.613-0.648,0.738,0v1.799h1.115v-3.582h-6.93
									v3.582h5.076V591.781z"/>
							</g>
							<path fill="#FFFFFF" d="M772.484,586.432h8.654c0.713,0,1.303,0.586,1.303,1.301v8.662c0,0.721-0.59,1.301-1.303,1.301
								h-8.654c-0.725,0-1.307-0.58-1.307-1.301v-8.662C771.178,587.018,771.76,586.432,772.484,586.432L772.484,586.432z
								 M772.484,586.865c-0.484,0-0.873,0.395-0.873,0.867v8.662c0,0.482,0.389,0.881,0.873,0.881h8.654
								c0.486,0,0.871-0.398,0.871-0.881v-8.662c0-0.473-0.385-0.867-0.871-0.867H772.484z"/>
						</g>
					</g>
				</g>
			</g>
			<g>
				<g>
					<path fill="#231815" d="M769.527,607.027h0.869v12.102h-0.869v-3.822c-0.465,0.281-0.936,0.594-1.416,0.936
						c-0.197,0.156-0.393,0.344-0.582,0.559l-0.652-0.83c0.234-0.271,0.355-0.629,0.355-1.066v-6.143h0.867v6.342
						c0.453-0.26,0.928-0.537,1.428-0.83V607.027z M770.557,612.242c0.977-1.832,1.68-3.604,2.115-5.311l0.924,0.283
						c-0.242,0.764-0.498,1.494-0.766,2.191h4.984v0.918h-1.344c-0.113,2.391-0.68,4.334-1.697,5.838
						c0.775,0.744,1.871,1.387,3.293,1.938c-0.238,0.322-0.453,0.654-0.652,0.992c-1.355-0.629-2.438-1.354-3.244-2.174
						c-0.738,0.783-1.754,1.545-3.055,2.285c-0.158-0.273-0.354-0.549-0.58-0.83c1.297-0.707,2.303-1.438,3.01-2.193
						c-0.879-1.191-1.447-2.674-1.707-4.445c-0.215,0.451-0.436,0.883-0.664,1.303C771.029,612.797,770.822,612.531,770.557,612.242
						z M775.568,610.324h-3.039c0.109,2.014,0.646,3.709,1.609,5.09C775.008,614.088,775.484,612.391,775.568,610.324z"/>
					<path fill="#231815" d="M782.432,616.354c0.008,0.365,0.027,0.699,0.057,1.004c-0.555,0.338-1.156,0.746-1.805,1.227
						c-0.191,0.146-0.373,0.316-0.549,0.508l-0.605-0.854c0.252-0.266,0.377-0.576,0.377-0.932v-2.748h-1.564v-0.855h1.564v-1.807
						h-0.775v-0.842c-0.123,0.205-0.25,0.404-0.379,0.594c-0.145-0.297-0.309-0.578-0.49-0.842c0.746-1.133,1.336-2.406,1.77-3.826
						l0.836,0.297c-0.191,0.561-0.4,1.098-0.629,1.609h2.104v0.855h-2.504c-0.221,0.451-0.457,0.887-0.707,1.299h2.936v0.855h-1.338
						v1.807h1.658v0.855h-1.658v2.947C781.203,617.193,781.77,616.807,782.432,616.354z M788.707,614.002l0.582,0.717
						c-0.746,0.57-1.484,1.098-2.217,1.584c0.693,0.793,1.586,1.355,2.676,1.686c-0.238,0.348-0.436,0.66-0.596,0.941
						c-2.217-0.9-3.65-2.666-4.297-5.301h-1.074v4.037c0.609-0.313,1.277-0.686,2-1.113c0.008,0.379,0.027,0.713,0.057,1.002
						c-0.586,0.305-1.314,0.723-2.182,1.252c-0.107,0.074-0.268,0.213-0.48,0.42l-0.607-0.854c0.244-0.273,0.367-0.578,0.367-0.916
						v-9.885h5.656v6.367h-0.834v-0.311h-2.068c0.223,0.777,0.521,1.457,0.904,2.043
						C787.34,615.145,788.045,614.588,788.707,614.002z M787.758,608.416h-3.977v1.77h3.977V608.416z M787.758,612.787v-1.783
						h-3.977v1.783H787.758z"/>
					<path fill="#231815" d="M798.111,608.59c1.199,1.205,2.33,2.439,3.396,3.703l-0.811,0.729c-0.305-0.387-0.613-0.77-0.926-1.145
						c-3.422,0.158-6.035,0.291-7.842,0.402c-0.418,0.033-0.822,0.1-1.211,0.197l-0.377-1.064c0.35-0.141,0.666-0.334,0.949-0.58
						c1.303-1.158,2.496-2.49,3.576-4.002l0.859,0.57c-1.145,1.453-2.338,2.746-3.578,3.877c2.334-0.08,4.633-0.17,6.891-0.273
						c-0.521-0.613-1.051-1.213-1.586-1.795L798.111,608.59z M799.793,613.506v5.623h-0.938v-0.818h-6.285v0.818h-0.938v-5.623
						H799.793z M798.855,614.422h-6.285v2.996h6.285V614.422z"/>
				</g>
			</g>
		</g>
		<g>
			<g>
				<rect x="568.346" y="562.051" fill="#E50012" stroke="#231815" stroke-width="0.25" width="41.455" height="41.455"/>
				<g>
					<g>
						<path fill-rule="evenodd" clip-rule="evenodd" fill="#FFFFFF" d="M580.23,567.35c1.039,0,1.893,0.852,1.893,1.908
							c0,1.045-0.854,1.906-1.893,1.906c-1.045,0-1.896-0.861-1.896-1.906C578.334,568.201,579.186,567.35,580.23,567.35
							L580.23,567.35z M577.072,572.252l5.918-0.074c1.637-0.133,2.26,0.74,2.314,2.029l-0.018,11.217
							c-0.268,0.846-1.529,0.803-1.766,0.041c0-3.24,0.004-6.342,0.008-9.578c-0.051-0.16-0.459-0.166-0.52-0.008v22.311
							c-0.121,1.053-2.131,1.305-2.324,0.041l-0.012-13.139c-0.102-0.469-0.939-0.453-0.982,0.043l0.006,13.055
							c-0.34,1.17-2.133,1.137-2.316-0.059l0.006-22.252c-0.076-0.152-0.447-0.145-0.523,0.004l0.066,9.645
							c-0.434,0.84-1.318,0.703-1.631-0.074l-0.135-11.037C575.107,573.307,575.582,572.209,577.072,572.252L577.072,572.252z
							 M596.379,569.381c1.045,0,1.893,0.854,1.893,1.906c0,1.051-0.848,1.906-1.893,1.906c-1.043,0-1.895-0.855-1.895-1.906
							C594.484,570.234,595.336,569.381,596.379,569.381L596.379,569.381z M593.746,574.307c0.166,0,0.689,0,0.857-0.002
							c0.727,1.166,2.646,1.266,3.285-0.174l0.773-0.01c1.631,0.178,1.801,1.26,1.85,2.443l0.033,3.887l1.664,2.941
							c0.373,0.783-1.107,1.313-1.326,0.557l-1.711-3.152l-0.02-3.002c-0.045-0.148-0.502-0.148-0.494,0.02l-0.008,2.318
							l-0.004,0.887l4.293,7.865h-4.23l0.008,9.615c-0.313,0.85-1.902,0.973-2.111-0.023l0.02-9.668l-0.553,0.006l0.004,9.674
							c-0.217,0.895-1.902,0.922-1.99,0.004l-0.008-9.701l-3.986,0.053l4.021-7.891v-0.973l-0.018-2.225
							c-0.066-0.139-0.424-0.139-0.494,0.004l-0.023,3.023l-1.49,3.1c-0.428,0.84-1.766,0.125-1.307-0.652l1.32-2.809l0.016-3.816
							C592.066,575.58,592.135,574.508,593.746,574.307z"/>
						<path fill="#FFFFFF" d="M575.121,565.156h27.855c2.297,0,4.178,1.887,4.178,4.18v27.854c0,2.299-1.881,4.182-4.178,4.182
							h-27.855c-2.297,0-4.178-1.883-4.178-4.182v-27.854C570.943,567.043,572.824,565.156,575.121,565.156L575.121,565.156z
							 M575.121,566.547c-1.533,0-2.789,1.258-2.789,2.789v27.854c0,1.533,1.256,2.787,2.789,2.787h27.855
							c1.535,0,2.787-1.254,2.787-2.787v-27.854c0-1.531-1.252-2.789-2.787-2.789H575.121z"/>
					</g>
					<rect x="587.252" y="568.186" fill="#FFFFFF" width="1.535" height="29.396"/>
				</g>
			</g>
			<g>
				<path fill="#231815" d="M579.545,613.221c0.008,2.74-0.393,4.719-1.199,5.932c-0.191-0.256-0.412-0.539-0.664-0.854
					c0.672-1.057,1-2.742,0.994-5.053v-5.498h10.299v0.865h-9.43V613.221z M582.299,611.055h0.777v2.439
					c0,0.791-0.057,1.477-0.172,2.055c0.627,0.686,1.418,1.564,2.379,2.639l-0.652,0.605c-0.693-0.865-1.35-1.658-1.967-2.379
					c-0.35,0.936-1.152,1.867-2.41,2.801c-0.176-0.279-0.369-0.527-0.582-0.742c1.02-0.654,1.713-1.305,2.078-1.959
					c0.357-0.643,0.541-1.529,0.549-2.662V611.055z M580.506,609.643h4.354v6.475h-0.777v-5.57h-2.801v5.57h-0.775V609.643z
					 M587.66,608.961h0.811v8.496c-0.006,0.625-0.092,1.047-0.25,1.262c-0.16,0.24-0.496,0.369-1.006,0.385
					c-0.305,0-0.775-0.008-1.406-0.025c-0.031-0.355-0.086-0.672-0.16-0.953c0.639,0.057,1.055,0.09,1.246,0.098
					c0.328-0.008,0.537-0.074,0.627-0.197c0.086-0.125,0.131-0.387,0.139-0.793V608.961z M586.643,617.01h-0.766v-7.082h0.766
					V617.01z"/>
				<path fill="#231815" d="M590.459,607.896c1.266-0.025,2.588-0.195,3.967-0.508l0.297,0.928
					c-1.127,0.182-2.275,0.318-3.439,0.408v1.92h2.994v4.57h-0.799v-0.545h-2.242c-0.125,1.893-0.525,3.389-1.199,4.494
					c-0.205-0.271-0.416-0.523-0.629-0.754c0.701-1.041,1.051-2.75,1.051-5.127V607.896z M593.479,613.852v-2.389h-2.195
					c0,1.229-0.002,2.025-0.006,2.389H593.479z M595.375,607.969c1.813-0.072,3.463-0.254,4.949-0.543l0.309,0.941
					c-1.906,0.23-3.377,0.379-4.412,0.445v2.762h4.629v0.855h-1.771v6.688h-0.857v-6.688h-2v0.691c0,2.602-0.666,4.645-2,6.131
					c-0.221-0.281-0.439-0.555-0.652-0.818c1.203-1.338,1.807-3.115,1.807-5.336V607.969z"/>
			</g>
		</g>
	</g>
	<g>
		<rect x="464.153" y="566.65" fill="#BBE1E8" stroke="#231815" width="22.25" height="21.568"/>
		<rect x="221.792" y="593.086" fill="#FFFAC4" stroke="#231815" width="22.249" height="21.568"/>
		<rect x="221.721" y="567.219" fill="#FADED8" stroke="#231815" width="22.251" height="21.568"/>
		<g>
			<g>
				<path fill="#231815" d="M264.305,582.936l-0.632,0.934c-1.268-0.801-2.616-1.594-4.044-2.377
					c-1.137,0.941-2.934,1.764-5.388,2.465c-0.138-0.291-0.318-0.623-0.541-0.996c2.232-0.535,3.895-1.195,4.986-1.979
					c-1.072-0.576-2.187-1.15-3.343-1.719c0.521-1.229,0.984-2.426,1.39-3.598h-2.929v-0.92h3.233
					c0.345-1.055,0.642-2.086,0.891-3.1l1.022,0.223c-0.307,1.039-0.604,1.996-0.89,2.877h6.853v0.92h-2.396
					c-0.333,2.188-1.053,3.893-2.16,5.117C261.706,581.488,263.022,582.205,264.305,582.936z M261.56,575.666h-3.809
					c-0.421,1.229-0.825,2.291-1.212,3.188c0.988,0.48,1.961,0.969,2.918,1.461C260.571,579.168,261.272,577.617,261.56,575.666z"/>
				<path fill="#231815" d="M272.047,581.777c-0.007,0.365-0.007,0.693,0,0.984c-1.019,0.314-1.83,0.59-2.435,0.822
					c-0.23,0.09-0.506,0.227-0.828,0.41l-0.506-0.76c0.184-0.166,0.276-0.451,0.276-0.859v-0.965
					c-0.781,0.494-1.662,0.941-2.642,1.34c-0.146-0.301-0.319-0.594-0.518-0.885c2.045-0.715,3.659-1.668,4.843-2.863h-4.693v-0.871
					h5.383c-0.185-0.32-0.366-0.617-0.546-0.896l0.735-0.484c0.26,0.416,0.501,0.797,0.724,1.145l-0.368,0.236h5.308v0.871h-5.234
					c0.318,0.676,0.737,1.26,1.258,1.75c0.854-0.443,1.697-0.916,2.527-1.412l0.483,0.906c-0.762,0.33-1.538,0.68-2.327,1.053
					c0.892,0.615,2.009,1.029,3.349,1.24c-0.23,0.33-0.44,0.641-0.631,0.934c-2.483-0.529-4.255-1.85-5.32-3.965
					c-0.437,0.467-0.931,0.91-1.482,1.324v1.816C270.317,582.375,271.197,582.084,272.047,581.777z M268.67,571.609h0.85v5.738
					h-0.85v-1.912c-0.827,0.516-1.693,1.061-2.596,1.639c-0.084-0.191-0.241-0.5-0.472-0.922c1.092-0.602,2.114-1.197,3.067-1.787
					V571.609z M265.914,572.84l0.608-0.646c0.697,0.623,1.221,1.125,1.574,1.506l-0.689,0.725
					C266.855,573.783,266.357,573.256,265.914,572.84z M270.44,575.828h2.492v-1.656h-2.895v-0.857h2.895v-1.68h0.861v1.68h2.965
					v0.857h-2.965v1.656h2.575v0.859h-5.928V575.828z"/>
			</g>
		</g>
		<g>
			<path fill="#231815" d="M256.596,596.33h0.989v4.145c0,2.043-0.211,3.523-0.632,4.445c-0.428,1.053-1.302,2.139-2.62,3.248
				c-0.175-0.256-0.406-0.564-0.688-0.92c1.209-0.979,2.006-1.934,2.389-2.863c0.375-0.787,0.563-2.092,0.563-3.91V596.33z
				 M260.169,596.246h0.988v9.596c-0.016,0.672,0.322,1,1.011,0.984h0.667c0.62,0,0.969-0.309,1.045-0.922
				c0.084-0.615,0.146-1.428,0.184-2.441c0.322,0.143,0.662,0.279,1.023,0.41c-0.077,1.029-0.161,1.824-0.253,2.379
				c-0.138,1.037-0.743,1.557-1.815,1.557h-1.068c-1.225,0.041-1.818-0.582-1.781-1.869V596.246z"/>
			<path fill="#231815" d="M265.455,607.061h5.262v-0.859h-4.377v-0.734h4.377v-0.846h-3.057v0.324h-0.805v-4.133h8.547v4.133
				h-0.804v-0.324h-3.056v0.846h4.365v0.734h-4.365v0.859h5.215v0.771h-11.303V607.061z M265.615,599.232h3.251
				c-0.203-0.35-0.421-0.682-0.655-0.996l0.534-0.361h-2.579v-0.723h4.584c-0.135-0.264-0.276-0.525-0.425-0.783l0.792-0.436
				c0.236,0.418,0.446,0.826,0.626,1.219h4.394v0.723h-2.666l0.609,0.348c-0.211,0.293-0.463,0.627-0.758,1.01h3.365v0.746h-11.074
				V599.232z M267.66,602.381h3.057v-0.871h-3.057V602.381z M267.66,603.924h3.057v-0.883h-3.057V603.924z M269.774,598.996
				l-0.362,0.236h2.97c0.301-0.461,0.58-0.914,0.832-1.357h-4.216C269.292,598.244,269.551,598.617,269.774,598.996z
				 M274.598,601.51h-3.056v0.871h3.056V601.51z M271.542,603.924h3.056v-0.883h-3.056V603.924z"/>
			<path fill="#231815" d="M280.113,603.201l0.803,0.611c-1.11,1.602-2.113,2.867-3.009,3.797c-0.214-0.209-0.455-0.439-0.724-0.697
				C278.241,605.775,279.216,604.539,280.113,603.201z M278.78,597.041c2.903-0.066,5.653-0.256,8.249-0.572l0.311,0.971
				c-2.726,0.275-5.297,0.436-7.708,0.486l-0.437,3.584h3.355v-2.826h0.952v2.826h4.526v0.945h-4.526v3.91
				c0,0.637-0.106,1.076-0.321,1.318c-0.237,0.266-0.624,0.398-1.159,0.398c-0.285,0-0.794-0.004-1.529-0.014
				c-0.038-0.332-0.099-0.688-0.183-1.07c0.773,0.076,1.274,0.107,1.505,0.1c0.489,0.018,0.736-0.256,0.736-0.82v-3.822h-4.435
				L278.78,597.041z M285.593,603.178c1.125,1.236,2.136,2.465,3.032,3.684l-0.77,0.748c-0.888-1.262-1.885-2.541-2.987-3.834
				L285.593,603.178z"/>
			<path fill="#231815" d="M289.166,599.617h2.39v-2.203c-0.675,0.033-1.345,0.063-2.011,0.088c-0.062-0.248-0.123-0.504-0.184-0.76
				c1.5,0,3.075-0.074,4.721-0.225l0.183,0.736c-0.666,0.049-1.331,0.09-1.998,0.123v2.24h2.25v0.723h-2.25v0.609l0.275-0.336
				c0.965,0.539,1.712,0.98,2.241,1.32l-0.415,0.635c-0.597-0.416-1.298-0.863-2.102-1.344v1.367h-0.712v-1.816
				c-0.536,0.672-1.279,1.307-2.229,1.904c-0.13-0.215-0.295-0.449-0.495-0.697c0.941-0.422,1.735-0.971,2.378-1.643h-2.045V599.617
				z M289.521,598.111l0.552-0.41c0.383,0.463,0.696,0.889,0.942,1.27l-0.609,0.473
				C290.108,598.938,289.813,598.492,289.521,598.111z M289.615,602.791h4.595v5.377h-0.713v-0.559h-3.17v0.559h-0.711V602.791z
				 M290.326,604.846h1.251v-1.307h-1.251V604.846z M290.326,606.861h1.251v-1.318h-1.251V606.861z M293.497,603.539h-1.263v1.307
				h1.263V603.539z M292.233,606.861h1.263v-1.318h-1.263V606.861z M292.773,598.934c0.375-0.406,0.728-0.844,1.057-1.309
				l0.563,0.486c-0.292,0.398-0.651,0.834-1.08,1.307C293.16,599.262,292.98,599.098,292.773,598.934z M296.231,597.789h-1.551
				v-0.848h2.286v9.783c0,0.914-0.402,1.371-1.207,1.371c-0.321,0-0.663-0.01-1.022-0.027c-0.03-0.264-0.073-0.566-0.127-0.908
				c0.33,0.074,0.683,0.109,1.058,0.1c0.375,0,0.563-0.223,0.563-0.672v-3c-0.438,0.465-0.877,0.922-1.322,1.371
				c-0.19-0.227-0.367-0.434-0.528-0.625c0.552-0.506,1.168-1.105,1.851-1.803V597.789z M294.634,599.207l0.609-0.162
				c0.237,0.912,0.455,1.801,0.654,2.664l-0.643,0.199C295.047,600.879,294.84,599.979,294.634,599.207z M298.965,597.789h-1.689
				v-0.848h2.447v9.834c0,0.881-0.42,1.32-1.263,1.32c-0.33,0-0.679-0.01-1.047-0.027c-0.029-0.264-0.072-0.564-0.125-0.895
				c0.405,0.064,0.765,0.1,1.079,0.1c0.398,0,0.597-0.236,0.597-0.711v-3.299c-0.329,0.391-0.75,0.881-1.263,1.469
				c-0.208-0.223-0.392-0.418-0.551-0.584c0.651-0.672,1.255-1.32,1.814-1.941V597.789z M297.403,599.096l0.609-0.174
				c0.222,0.846,0.421,1.699,0.597,2.563l-0.677,0.213C297.794,600.816,297.618,599.949,297.403,599.096z"/>
			<path fill="#231815" d="M300.701,607.311c2.867-1.324,4.537-3.166,5.008-5.527h-4.858v-0.945h4.98
				c0.034-0.59,0.05-1.605,0.05-3.049h-4.399v-0.947h9.925v0.947h-4.514c-0.008,0.867-0.023,1.883-0.046,3.049h5.146v0.945h-4.991
				c0.731,2.631,2.449,4.391,5.152,5.277c-0.314,0.408-0.578,0.752-0.792,1.035c-2.497-1.094-4.139-2.895-4.928-5.41
				c-0.606,2.34-2.279,4.197-5.021,5.57C301.251,608.033,301.015,607.717,300.701,607.311z"/>
		</g>
		<g>
			<g>
				<path fill="#231815" d="M493.443,578.891h5.18v-2.229h-4.376v-0.982h4.376v-2.248c-1.452,0.063-2.925,0.115-4.423,0.156
					c-0.046-0.35-0.104-0.689-0.171-1.021c3.914-0.064,7.088-0.215,9.522-0.447l0.149,1.021c-1.347,0.09-2.718,0.172-4.112,0.242
					v2.297h4.172v0.982h-4.172v2.229h5.158v0.982h-5.158v2.291c0,1.008-0.475,1.52-1.424,1.531c-0.483,0-1.153-0.004-2.011-0.012
					c-0.039-0.383-0.101-0.76-0.183-1.133c0.856,0.066,1.504,0.098,1.939,0.098c0.476,0,0.713-0.275,0.713-0.832v-1.943h-5.18
					V578.891z"/>
				<path fill="#231815" d="M515.098,578.492l0.633,0.859l-2.568,1.395c0.9,0.797,2.026,1.322,3.383,1.582
					c-0.259,0.365-0.474,0.695-0.643,0.994c-2.47-0.641-4.241-2.283-5.313-4.936c-0.391,0.539-0.837,1.051-1.339,1.537v2.662
					c1.011-0.354,1.949-0.729,2.814-1.117c-0.007,0.363-0.002,0.723,0.011,1.082c-0.919,0.34-1.868,0.713-2.848,1.119
					c-0.207,0.092-0.411,0.199-0.609,0.324l-0.54-0.91c0.213-0.164,0.321-0.396,0.321-0.697v-1.711
					c-0.792,0.645-1.692,1.227-2.701,1.75c-0.167-0.291-0.363-0.576-0.584-0.859c1.979-0.879,3.535-2.057,4.664-3.535h-4.539v-0.859
					h5.147v-1.27h-4.332v-0.857h4.332v-1.221h-4.791v-0.857h4.791v-1.395h0.908v1.395h4.814v0.857h-4.814v1.221h4.319v0.857h-4.319
					v1.27h5.135v0.859h-5.106c0.321,0.811,0.735,1.51,1.24,2.105C513.334,579.719,514.179,579.174,515.098,578.492z"/>
			</g>
		</g>
		<rect x="336.799" y="567.219" fill="#F7BF83" stroke="#231815" width="22.248" height="21.568"/>
		<g>
			<g>
				<path fill="#231815" d="M369.646,571.982h0.987v4.145c0,2.043-0.21,3.523-0.632,4.443c-0.428,1.055-1.301,2.139-2.619,3.25
					c-0.176-0.258-0.406-0.564-0.688-0.922c1.208-0.979,2.006-1.934,2.389-2.863c0.375-0.787,0.563-2.09,0.563-3.908V571.982z
					 M373.218,571.895h0.989v9.598c-0.017,0.672,0.321,1,1.01,0.982h0.667c0.62,0,0.969-0.307,1.046-0.922
					c0.084-0.613,0.146-1.426,0.183-2.438c0.322,0.141,0.663,0.277,1.023,0.41c-0.077,1.027-0.162,1.822-0.253,2.377
					c-0.137,1.037-0.743,1.557-1.815,1.557h-1.068c-1.225,0.041-1.818-0.58-1.781-1.869V571.895z"/>
				<path fill="#231815" d="M378.503,582.711h5.262v-0.857h-4.377v-0.734h4.377v-0.848h-3.057v0.324h-0.803v-4.133h8.546v4.133
					h-0.804v-0.324h-3.055v0.848h4.364v0.734h-4.364v0.857h5.214v0.773h-11.304V582.711z M378.663,574.883h3.252
					c-0.203-0.35-0.42-0.682-0.654-0.996l0.534-0.361h-2.579v-0.723h4.584c-0.135-0.264-0.276-0.525-0.425-0.783l0.792-0.436
					c0.237,0.418,0.446,0.826,0.626,1.219h4.394v0.723h-2.665l0.608,0.348c-0.211,0.291-0.462,0.629-0.758,1.01h3.365v0.746h-11.074
					V574.883z M380.708,578.031h3.057v-0.871h-3.057V578.031z M380.708,579.576h3.057v-0.885h-3.057V579.576z M382.823,574.646
					l-0.362,0.236h2.97c0.301-0.459,0.58-0.914,0.832-1.357h-4.216C382.341,573.895,382.6,574.27,382.823,574.646z M387.647,577.16
					h-3.055v0.871h3.055V577.16z M384.592,579.576h3.055v-0.885h-3.055V579.576z"/>
				<path fill="#231815" d="M391.049,572.367h3.24v10.096c0,0.828-0.357,1.244-1.069,1.244c-0.391,0-0.754-0.012-1.092-0.037
					c-0.03-0.248-0.075-0.543-0.137-0.883c0.391,0.064,0.727,0.1,1.01,0.1c0.314,0,0.471-0.17,0.471-0.512v-2.861h-1.607
					c0.023,1.908-0.294,3.365-0.954,4.369c-0.167-0.24-0.378-0.473-0.631-0.697c0.513-0.855,0.771-2.066,0.771-3.635V572.367z
					 M393.471,573.178h-1.607v2.391h1.607V573.178z M391.864,578.742h1.607v-2.404h-1.607V578.742z M395.24,572.418h5.676
					c-0.039,0.672-0.069,1.203-0.092,1.594c-0.062,1.287-0.666,1.916-1.815,1.891c-0.313-0.006-0.808-0.023-1.482-0.049
					c-0.045-0.324-0.096-0.65-0.148-0.984c0.566,0.076,1.075,0.123,1.527,0.137c0.659,0.025,1.015-0.314,1.067-1.02
					c0.024-0.217,0.043-0.451,0.058-0.711h-3.917v3.586h4.848v0.734c-0.306,1.455-0.866,2.725-1.682,3.803
					c0.661,0.682,1.482,1.211,2.462,1.586c-0.26,0.334-0.481,0.631-0.667,0.898c-0.94-0.479-1.74-1.07-2.394-1.781
					c-0.586,0.627-1.273,1.18-2.063,1.656c-0.145-0.273-0.302-0.549-0.47-0.822c0.765-0.422,1.427-0.93,1.981-1.518
					c-0.746-1.037-1.237-2.287-1.476-3.748h-0.54v6.188h-0.874V572.418z M400.056,577.67h-2.614c0.238,1.195,0.66,2.213,1.27,3.051
					C399.342,579.854,399.79,578.836,400.056,577.67z"/>
				<path fill="#231815" d="M401.904,576.799c0.751-1.518,1.325-3.229,1.723-5.129l0.875,0.188c-0.139,0.59-0.288,1.162-0.449,1.719
					h2.17v0.795l-0.815,2.068c-0.229-0.109-0.474-0.217-0.734-0.324l0.688-1.744H403.8c-0.329,1.021-0.7,1.977-1.114,2.863
					C402.449,577.086,402.188,576.939,401.904,576.799z M405.995,580.918c0.007,0.398,0.026,0.744,0.057,1.035
					c-0.597,0.363-1.218,0.758-1.861,1.182c-0.138,0.092-0.299,0.23-0.482,0.422l-0.609-0.857c0.245-0.258,0.367-0.564,0.367-0.922
					v-5.674h0.839v5.924C404.811,581.703,405.374,581.334,405.995,580.918z M406.109,575.717c0.789-1.352,1.355-2.711,1.7-4.07
					l0.884,0.223c-0.153,0.498-0.313,0.984-0.481,1.457h5.192v0.871h-5.537c-0.284,0.699-0.598,1.373-0.942,2.029
					C406.665,576.053,406.393,575.883,406.109,575.717z M407.649,582.475h-0.85v-5.838h2.572v-1.791h0.851v1.791h2.804v4.408
					c0,0.92-0.43,1.381-1.288,1.381c-0.306,0-0.666-0.008-1.08-0.025c-0.038-0.258-0.096-0.568-0.172-0.932
					c0.421,0.049,0.766,0.074,1.034,0.074c0.436,0,0.656-0.227,0.656-0.674v-3.359h-1.954v6.434h-0.851v-6.434h-1.722V582.475z"/>
				<path fill="#231815" d="M419.263,583.719v-3.957h-3.342c-0.131,1.727-0.594,3.158-1.39,4.295
					c-0.2-0.275-0.425-0.561-0.679-0.859c0.498-0.764,0.836-1.609,1.011-2.539c0.168-0.896,0.253-2.166,0.253-3.809v-4.443h9.363
					v9.895c0,0.988-0.433,1.48-1.298,1.48c-0.529,0-1.122-0.012-1.781-0.037c-0.039-0.271-0.095-0.617-0.172-1.033
					c0.666,0.051,1.206,0.076,1.62,0.076c0.475,0,0.711-0.246,0.711-0.736v-2.289h-3.377v3.957H419.263z M415.984,578.865h3.279
					v-2.326h-3.228C416.058,577.344,416.041,578.119,415.984,578.865z M416.035,573.326v2.316h3.228v-2.316H416.035z
					 M423.559,573.326h-3.377v2.316h3.377V573.326z M420.182,578.865h3.377v-2.326h-3.377V578.865z"/>
				<path fill="#231815" d="M426.145,578.156h4.377v5.75h-0.874v-0.834h-2.629v0.834h-0.875V578.156z M429.648,579.027h-2.629v3.199
					h2.629V579.027z M427.271,572.205h7.927v4.93h-0.92v-0.398h-6.088v0.398h-0.919V572.205z M434.278,573.078h-6.088v2.787h6.088
					V573.078z M431.946,578.156h4.389v5.75h-0.873v-0.846h-2.643v0.846h-0.874V578.156z M435.462,579.027h-2.643v3.223h2.643
					V579.027z"/>
			</g>
		</g>
		<rect x="337.368" y="593.086" fill="#D7E8BD" stroke="#231815" width="22.249" height="21.568"/>
		<g>
			<g>
				<path fill="#231815" d="M379.252,607.283l-0.632,0.938c-1.267-0.803-2.615-1.596-4.043-2.379
					c-1.137,0.941-2.933,1.762-5.387,2.463c-0.138-0.289-0.318-0.621-0.541-0.994c2.232-0.535,3.894-1.195,4.985-1.98
					c-1.071-0.576-2.186-1.146-3.344-1.717c0.521-1.23,0.986-2.428,1.391-3.596h-2.929v-0.922h3.234
					c0.344-1.055,0.641-2.088,0.891-3.1l1.021,0.225c-0.305,1.037-0.603,1.994-0.89,2.875h6.853v0.922h-2.396
					c-0.333,2.184-1.052,3.891-2.159,5.115C376.653,605.838,377.97,606.555,379.252,607.283z M376.506,600.018h-3.808
					c-0.421,1.227-0.826,2.289-1.213,3.186c0.988,0.48,1.961,0.967,2.918,1.463C375.518,603.516,376.219,601.965,376.506,600.018z"
					/>
				<path fill="#231815" d="M381.274,606.338h4.285v-5.363h-5.1v-1.033h5.1v-3.908h1.034v3.908h5.089v1.033h-5.089v5.363h4.284
					v0.996h-9.603V606.338z"/>
				<path fill="#231815" d="M393.129,598.273h4.238v-2.141h0.942v2.141h4.217v8.215c0,1.055-0.478,1.576-1.437,1.568
					c-0.505,0-1.125-0.008-1.862-0.023c-0.022-0.283-0.08-0.645-0.171-1.084c0.728,0.066,1.333,0.104,1.814,0.113
					c0.482,0.016,0.725-0.246,0.725-0.785v-7.059h-3.309c-0.031,0.756-0.116,1.428-0.253,2.018c1.356,1.178,2.451,2.215,3.285,3.111
					l-0.7,0.809c-0.82-0.971-1.774-1.979-2.861-3.023c-0.521,1.221-1.513,2.281-2.976,3.186c-0.321-0.48-0.536-0.779-0.645-0.896
					c1.249-0.713,2.104-1.506,2.563-2.377c0.369-0.641,0.582-1.58,0.645-2.826h-3.287v8.949h-0.93V598.273z"/>
				<path fill="#231815" d="M413.991,600.414l0.724,0.809c-0.908,0.834-1.858,1.648-2.849,2.439c0.919,1.32,2.075,2.334,3.468,3.039
					c-0.228,0.299-0.458,0.627-0.688,0.982c-2.685-1.605-4.438-4.068-5.261-7.389c-0.472,0.77-1.024,1.498-1.654,2.184v4.371
					c0.826-0.316,1.776-0.713,2.849-1.195c0,0.457,0.003,0.838,0.011,1.145c-1.12,0.434-2.149,0.859-3.091,1.281
					c-0.184,0.092-0.345,0.188-0.483,0.287l-0.55-0.969c0.23-0.209,0.345-0.459,0.345-0.748v-3.25
					c-0.702,0.652-1.482,1.264-2.345,1.832c-0.206-0.342-0.427-0.652-0.665-0.934c2.274-1.336,3.983-3.047,5.13-5.131h-4.704v-0.945
					h10.959v0.945h-5.188c-0.02,0.043-0.037,0.084-0.051,0.121c0.347,1.342,0.817,2.531,1.406,3.559
					C412.278,602.088,413.156,601.277,413.991,600.414z M408.786,596.406l0.793-0.512c0.375,0.541,0.746,1.109,1.114,1.707
					l-0.838,0.572C409.518,597.527,409.162,596.936,408.786,596.406z"/>
			</g>
		</g>
	</g>
</g>
<rect x="43" y="49.422" fill="#B3B3B3" width="942" height="468.669"/>
<rect x="69.221" y="59.329" fill="#CCCCCC" width="895.368" height="445.935"/>
<g>
	<path fill="#808080" d="M114.981,82.938l-0.875,160.449l118.042-0.437v-12.241h25.794l0.874-48.965c0,0,4.809-30.603,33.664-39.347
		V84.25L114.981,82.938z"/>
	<path fill="#808080" d="M292.48,84.25c0,0,0,58.132,0,58.145c0.022-5.833,70.258-3.5,75.631-3.498
		c0.627,0,11.806,0.005,11.806,0.002c0-0.047,0-53.338,0-53.338L292.48,84.25z"/>
	<rect x="379.918" y="85.561" fill="#808080" width="92.248" height="53.338"/>
	<path fill="#808080" d="M161.76,243.387v32.79h68.329c0,0,26.097-2.624,27.853-25.794v-19.674H231.83v12.241L161.76,243.387z"/>
	<rect x="335.325" y="298.91" fill="#808080" width="17.488" height="62.955"/>
	<path fill="#808080" d="M349.315,298.472l129.408,0.438c0,0-31.915-34.975-64.704-33.664
		C414.02,265.246,378.607,262.186,349.315,298.472z"/>
	<path fill="#808080" d="M280.239,219.341l93.559-0.437v-57.709h-66.196c0,0-22.991-0.438-27.363,20.111V219.341z"/>
	<path fill="#808080" d="M480.909,361.429l-135.091,0.375c0,0,18.798,35.911,64.704,38.961
		C410.522,400.765,453.367,404.71,480.909,361.429z"/>
	<rect x="280.239" y="218.904" fill="#808080" width="46.343" height="57.272"/>
	<path fill="#808080" d="M326.582,218.904v57.272l10.93-0.874c5.16-4.191,10.4-8.295,15.732-12.264
		c7.621-5.673,20.361-8.407,20.729-19.549c0.069-2.066-0.403-24.585-0.175-24.585H326.582z"/>
	<path fill="#808080" d="M114.981,297.161h56.834l-0.438,50.713c0,0,1.749,31.479,32.79,37.599h27.106l-0.875,42.846h-62.519v60.769
		h-54.648L114.981,297.161z"/>
	<rect x="387.788" y="160.32" fill="#808080" width="47.653" height="62.082"/>
	<path fill="#808080" d="M435.441,160.32v62.082h-47.653v15.302c0,0,0.874,11.803,18.8,6.557c0,0,28.413-5.684,62.948,16.609
		c7.411,4.782,13.451-2.083,13.527-8.122c0.09-7.055,0.041-14.131-0.02-21.197c-0.156-19.062-0.007-38.146,0.062-57.212
		c0.017-4.672-0.01-9.348-0.01-14.02H435.441z"/>
	<polygon fill="#808080" points="504.519,160.757 555.67,160.757 555.67,176.934 531.89,176.934 531.89,242.95 504.966,242.95 	"/>
	<polygon fill="#808080" points="609.007,242.95 609.007,237.266 565.289,237.266 565.289,242.95 504.955,242.95 504.955,280.548 
		609.445,280.548 609.445,242.95 	"/>
	<path fill="#808080" d="M554.358,160.757v16.524h11.804v45.995h43.283V186.21c0,0-3.936-22.328-24.483-25.005L554.358,160.757z"/>
	<path fill="#808080" d="M504.519,297.161h105.8c0,0,1.75,27.98-25.794,32.352h-80.006V297.161z"/>
	<polygon fill="#808080" points="246.138,384.599 299.476,385.473 299.476,488.213 229.087,488.213 229.087,456.298 246.575,455.86 
			"/>
	<path fill="#808080" d="M299.476,385.473v102.74h58.146v-82.191c0,0-12.678-8.744-21.858-20.549H299.476z"/>
	<path fill="#808080" d="M357.622,406.021v82.191h54.212V421.76C411.834,421.76,382.542,423.071,357.622,406.021z"/>
	<path fill="#808080" d="M411.834,421.76v13.552h68.639V409.52l4.81-0.438l0.363-21.349
		C485.646,387.733,455.553,422.197,411.834,421.76z"/>
	<path fill="#808080" d="M508.891,350.208h43.28v44.6h-8.079v16.022h-49.629l0.577-33.343
		C495.04,377.487,507.736,359.733,508.891,350.208z"/>
	<path fill="#808080" d="M551.734,350.062v44.593h44.156v92.685h77.383V298.91h-40.221c0,0-0.438,43.719-45.905,51.152H551.734z"/>
	<polygon fill="#808080" points="605.51,85.561 472.166,85.561 472.166,138.899 574.907,138.899 574.907,119.224 605.51,119.224 	
		"/>
	<path fill="#808080" d="M619.063,155.949c0.583-0.643,7.325,10.208,7.583,10.722c7.299,14.533,5.589,31.361,5.543,47.131
		c-0.027,9.86-0.012,19.725-0.012,29.585h41.096v-97.056h-45.468C627.806,146.331,619.072,155.938,619.063,155.949z"/>
	<path fill="#808080" d="M574.907,138.899c0,0,25.792-2.624,44.156,17.05l8.742-9.618h45.468l-0.874-60.77h-66.89v33.664h-30.603
		V138.899z"/>
	<polygon fill="#808080" points="814.051,84.687 813.612,144.116 835.472,144.116 835.472,182.18 920.725,182.18 920.725,84.668 	
		"/>
	<polygon fill="#808080" points="672.399,85.561 814.051,84.687 813.612,175.623 779.075,175.623 779.075,240.326 813.176,240.326 
		813.176,196.608 844.654,196.608 844.215,276.614 672.836,277.488 	"/>
	<path fill="#808080" d="M673.273,298.91l172.69-0.875l-0.436,68.202c0,0-15.304,0.874-19.238,21.86v17.487v30.603v52.025H673.273
		V298.91z"/>
	<path fill="#808080" d="M841.593,423.071l-0.438-33.664c0,0,1.748-10.492,12.678-11.802h67.766v45.029L841.593,423.071z"/>
	<rect x="224.716" y="284.483" fill-rule="evenodd" clip-rule="evenodd" fill="#808080" width="88.75" height="17.049"/>
	<rect x="223.404" y="352.246" fill-rule="evenodd" clip-rule="evenodd" fill="#808080" width="88.75" height="13.555"/>
	<path fill="#808080" d="M898.864,239.015v125.909h29.73c0,0,17.487-109.295,10.055-125.472L898.864,239.015z"/>
</g>
<line fill="none" stroke="#000000" stroke-miterlimit="10" x1="630.139" y1="293.663" x2="630.597" y2="482.094"/>
<line fill="none" stroke="#000000" stroke-miterlimit="10" x1="592.412" y1="408.5" x2="670.359" y2="408.5"/>
</svg>
