<?xml version="1.0" encoding="utf-8"?>
<!-- Generator: Adobe Illustrator 15.0.0, SVG Export Plug-In . SVG Version: 6.00 Build 0)  -->
<!DOCTYPE svg PUBLIC "-//W3C//DTD SVG 1.1//EN" "http://www.w3.org/Graphics/SVG/1.1/DTD/svg11.dtd">
<svg version="1.1" id="图层_1" xmlns="http://www.w3.org/2000/svg" xmlns:xlink="http://www.w3.org/1999/xlink" x="0px" y="0px"
	 width="1028px" height="680px" viewBox="0 0 1028 680" enable-background="new 0 0 1028 680" xml:space="preserve">
<g>
	<rect x="441.253" y="301.27" fill="#E50012" width="44.496" height="43.544"/>
	<g>
		<path fill-rule="evenodd" clip-rule="evenodd" fill="#FFFFFF" d="M449.702,307.281h4.737v31.327h-4.737V307.281L449.702,307.281z
			 M472.586,307.281h4.734v31.385h-4.734V307.281L472.586,307.281z M460.809,309.502l2.649-2.175l2.673,2.145l-0.012,1.654
			l-1.93-1.581l0.023,3.898l-1.524-0.001l0.019-3.844l-1.905,1.566L460.809,309.502L460.809,309.502z M460.906,336.631l2.645,2.175
			l2.674-2.156l-0.011-1.639l-1.93,1.574l0.035-3.908l-1.539,0.014l0.024,3.837l-1.915-1.551L460.906,336.631L460.906,336.631z
			 M461.42,315.616c-0.47,0-0.862,0.392-0.862,0.885c0,0.465,0.392,0.855,0.862,0.855c0.48,0,0.871-0.391,0.871-0.855
			C462.291,316.007,461.901,315.616,461.42,315.616L461.42,315.616z M462.877,317.854l-2.708-0.025
			c-0.753-0.062-1.038,0.337-1.068,0.93l0.012,5.121c0.122,0.387,0.697,0.372,0.803,0.027c0-1.489,0-2.896,0-4.372
			c0.024-0.071,0.208-0.087,0.236,0l0.003,10.177c0.171,0.478,0.729,0.725,1.062,0.018l0.006-6.142
			c0.044-0.211,0.429-0.197,0.442,0.017v6.107c0.309,0.605,0.845,0.615,1.058-0.034v-10.143c0.033-0.071,0.236-0.105,0.268-0.036
			l0.788,1.573c0.06,0.172,0.23,0.321,0.449,0.234l2.038-1.274c0.244-0.462-0.275-0.749-0.418-0.714l-1.482,0.885l-0.512-1.362
			C463.679,318.442,463.551,317.846,462.877,317.854L462.877,317.854z M467.398,316.506c0.287,0,0.522,0.236,0.522,0.53
			c0,0.283-0.236,0.524-0.522,0.524c-0.288,0-0.52-0.241-0.52-0.524C466.878,316.742,467.11,316.506,467.398,316.506
			L467.398,316.506z M467.398,317.966c0.287,0,0.522,0.227,0.522,0.53c0,0.286-0.236,0.515-0.522,0.515
			c-0.288,0-0.52-0.229-0.52-0.515C466.878,318.193,467.11,317.966,467.398,317.966L467.398,317.966z M467.398,319.418
			c0.287,0,0.522,0.244,0.522,0.534c0,0.286-0.236,0.524-0.522,0.524c-0.288,0-0.52-0.239-0.52-0.524
			C466.878,319.663,467.11,319.418,467.398,319.418L467.398,319.418z M467.398,320.815c0.287,0,0.522,0.239,0.522,0.53
			c0,0.29-0.236,0.52-0.522,0.52c-0.288,0-0.52-0.229-0.52-0.52C466.878,321.054,467.11,320.815,467.398,320.815L467.398,320.815z
			 M455.879,313.624l15.267,0.041l0.017,18.763l-15.306-0.019L455.879,313.624L455.879,313.624z M457.432,315.111l12.091,0.036
			l0.009,15.846l-12.113-0.017L457.432,315.111z"/>
		<path fill="#FFFFFF" d="M449.476,304.799h28.064c2.317,0,4.215,1.893,4.215,4.219v28.064c0,2.308-1.897,4.204-4.215,4.204h-28.064
			c-2.31,0-4.208-1.896-4.208-4.204v-28.064C445.268,306.692,447.166,304.799,449.476,304.799L449.476,304.799z M449.476,306.202
			c-1.544,0-2.808,1.26-2.808,2.816v28.064c0,1.537,1.264,2.812,2.808,2.812h28.064c1.545,0,2.815-1.275,2.815-2.812v-28.064
			c0-1.556-1.27-2.816-2.815-2.816H449.476z"/>
	</g>
</g>
<g>
	<rect x="110.954" y="243.073" fill="#E50012" width="44.673" height="43.719"/>
	<g>
		<path fill-rule="evenodd" clip-rule="evenodd" fill="#FFFFFF" d="M119.436,249.107h4.756v31.452h-4.756V249.107L119.436,249.107z
			 M142.412,249.107h4.753v31.513h-4.753V249.107L142.412,249.107z M130.586,251.337l2.661-2.183l2.684,2.154l-0.013,1.662
			l-1.938-1.59l0.024,3.918l-1.532-0.003l0.021-3.859l-1.914,1.574L130.586,251.337L130.586,251.337z M130.686,278.576l2.654,2.185
			l2.687-2.165l-0.012-1.645l-1.938,1.581l0.034-3.926l-1.544,0.017l0.023,3.851l-1.922-1.556L130.686,278.576L130.686,278.576z
			 M131.203,257.479c-0.474,0-0.868,0.393-0.868,0.886c0,0.467,0.394,0.861,0.868,0.861c0.479,0,0.873-0.394,0.873-0.861
			C132.075,257.871,131.682,257.479,131.203,257.479L131.203,257.479z M132.664,259.725l-2.719-0.027
			c-0.756-0.061-1.041,0.339-1.073,0.935l0.012,5.139c0.122,0.39,0.703,0.375,0.806,0.028c0-1.495,0-2.906,0-4.391
			c0.024-0.072,0.209-0.086,0.235,0l0.004,10.218c0.172,0.481,0.732,0.728,1.065,0.018l0.007-6.164
			c0.044-0.215,0.431-0.203,0.444,0.015v6.131c0.31,0.607,0.85,0.618,1.062-0.034v-10.184c0.033-0.072,0.238-0.106,0.27-0.037
			l0.79,1.581c0.06,0.174,0.23,0.323,0.451,0.234l2.046-1.279c0.244-0.461-0.279-0.749-0.421-0.715l-1.487,0.889l-0.515-1.367
			C133.47,260.314,133.339,259.715,132.664,259.725L132.664,259.725z M137.202,258.37c0.288,0,0.526,0.238,0.526,0.532
			c0,0.286-0.239,0.528-0.526,0.528c-0.289,0-0.522-0.243-0.522-0.528C136.68,258.608,136.913,258.37,137.202,258.37L137.202,258.37
			z M137.202,259.836c0.288,0,0.526,0.229,0.526,0.532c0,0.289-0.239,0.519-0.526,0.519c-0.289,0-0.522-0.229-0.522-0.519
			C136.68,260.065,136.913,259.836,137.202,259.836L137.202,259.836z M137.202,261.294c0.288,0,0.526,0.246,0.526,0.538
			c0,0.286-0.239,0.526-0.526,0.526c-0.289,0-0.522-0.24-0.522-0.526C136.68,261.541,136.913,261.294,137.202,261.294
			L137.202,261.294z M137.202,262.698c0.288,0,0.526,0.239,0.526,0.529c0,0.293-0.239,0.523-0.526,0.523
			c-0.289,0-0.522-0.23-0.522-0.523C136.68,262.937,136.913,262.698,137.202,262.698L137.202,262.698z M125.637,255.475l15.33,0.042
			l0.017,18.84l-15.369-0.021L125.637,255.475L125.637,255.475z M127.196,256.969l12.14,0.037l0.007,15.911l-12.16-0.017
			L127.196,256.969z"/>
		<path fill="#FFFFFF" d="M119.208,246.618h28.176c2.328,0,4.233,1.898,4.233,4.235v28.175c0,2.317-1.905,4.221-4.233,4.221h-28.176
			c-2.318,0-4.224-1.904-4.224-4.221v-28.175C114.984,248.517,116.89,246.618,119.208,246.618L119.208,246.618z M119.208,248.022
			c-1.548,0-2.819,1.268-2.819,2.831v28.175c0,1.543,1.271,2.823,2.819,2.823h28.176c1.552,0,2.828-1.28,2.828-2.823v-28.175
			c0-1.563-1.276-2.831-2.828-2.831H119.208z"/>
	</g>
</g>
<g>
	<rect x="876.917" y="184.074" fill="#E50012" width="42.289" height="41.387"/>
	<g>
		<path fill-rule="evenodd" clip-rule="evenodd" fill="#FFFFFF" d="M884.946,189.787h4.503v29.774h-4.503V189.787L884.946,189.787z
			 M906.696,189.787h4.501v29.832h-4.501V189.787L906.696,189.787z M895.501,191.899l2.521-2.067l2.542,2.037l-0.013,1.575
			l-1.836-1.506l0.022,3.708l-1.448-0.002l0.021-3.653l-1.814,1.489L895.501,191.899L895.501,191.899z M895.599,217.684l2.509,2.067
			l2.545-2.048l-0.012-1.559l-1.835,1.497l0.033-3.715l-1.461,0.014l0.022,3.646l-1.821-1.473L895.599,217.684L895.599,217.684z
			 M896.085,197.709c-0.447,0-0.82,0.374-0.82,0.84c0,0.443,0.373,0.815,0.82,0.815c0.455,0,0.828-0.373,0.828-0.815
			C896.913,198.083,896.54,197.709,896.085,197.709L896.085,197.709z M897.47,199.838l-2.576-0.026
			c-0.715-0.058-0.986,0.322-1.014,0.883l0.011,4.866c0.115,0.368,0.666,0.354,0.762,0.027c0-1.416,0-2.752,0-4.155
			c0.024-0.069,0.198-0.081,0.223,0l0.004,9.672c0.164,0.457,0.695,0.69,1.011,0.015l0.007-5.834c0.04-0.204,0.408-0.191,0.42,0.014
			v5.805c0.292,0.574,0.803,0.586,1.005-0.034v-9.639c0.033-0.069,0.224-0.102,0.257-0.035l0.747,1.496
			c0.056,0.165,0.219,0.306,0.426,0.223l1.938-1.213c0.23-0.436-0.262-0.709-0.399-0.676l-1.408,0.841l-0.489-1.295
			C898.23,200.396,898.107,199.83,897.47,199.838L897.47,199.838z M901.765,198.556c0.273,0,0.498,0.225,0.498,0.503
			c0,0.269-0.225,0.5-0.498,0.5c-0.274,0-0.492-0.231-0.492-0.5C901.272,198.78,901.49,198.556,901.765,198.556L901.765,198.556z
			 M901.765,199.943c0.273,0,0.498,0.216,0.498,0.503c0,0.273-0.225,0.492-0.498,0.492c-0.274,0-0.492-0.219-0.492-0.492
			C901.272,200.16,901.49,199.943,901.765,199.943L901.765,199.943z M901.765,201.323c0.273,0,0.498,0.233,0.498,0.509
			c0,0.271-0.225,0.498-0.498,0.498c-0.274,0-0.492-0.226-0.492-0.498C901.272,201.557,901.49,201.323,901.765,201.323
			L901.765,201.323z M901.765,202.653c0.273,0,0.498,0.227,0.498,0.501c0,0.277-0.225,0.495-0.498,0.495
			c-0.274,0-0.492-0.217-0.492-0.495C901.272,202.879,901.49,202.653,901.765,202.653L901.765,202.653z M890.816,195.815
			l14.513,0.039l0.018,17.835l-14.549-0.02L890.816,195.815L890.816,195.815z M892.293,197.229l11.492,0.035l0.009,15.062
			l-11.513-0.017L892.293,197.229z"/>
		<path fill="#FFFFFF" d="M884.729,187.431h26.677c2.201,0,4.004,1.796,4.004,4.009v26.672c0,2.195-1.803,3.997-4.004,3.997h-26.677
			c-2.192,0-3.998-1.802-3.998-3.997v-26.672C880.731,189.227,882.537,187.431,884.729,187.431L884.729,187.431z M884.729,188.76
			c-1.464,0-2.669,1.2-2.669,2.679v26.672c0,1.462,1.205,2.674,2.669,2.674h26.677c1.472,0,2.676-1.212,2.676-2.674v-26.672
			c0-1.479-1.204-2.679-2.676-2.679H884.729z"/>
	</g>
</g>
<g>
	<rect x="851.707" y="269.181" fill="#E50012" width="44.241" height="44.243"/>
	<g>
		<path fill-rule="evenodd" clip-rule="evenodd" fill="#FFFFFF" d="M871.786,277.836c1.029,0,1.874,0.835,1.874,1.87
			c0,1.028-0.845,1.864-1.874,1.864c-1.031,0-1.88-0.836-1.88-1.864C869.906,278.671,870.755,277.836,871.786,277.836
			L871.786,277.836z M869.806,290.294l-7.62,6.094c0,0-1.163-0.152-2.361,0.293c-0.722,0.256-1.441,0.78-1.929,1.522
			c-1.47,2.234-0.523,5.997,2.368,6.479c0.979,0.162,4.108,0.022,4.108,0.022l20.861-16.557l1.965,0.012
			c0,0,2.444-0.562,2.983-2.652c0.535-2.077,0.067-3.713-0.842-4.599c-0.905-0.917-1.994-1.215-1.994-1.215h-4.56l-9.139,7.414
			l-0.071-3.261c0,0,0-1.68-1.666-1.716c-1.664-0.039-2.051,1.155-2.051,1.647C869.859,284.256,869.806,290.294,869.806,290.294
			L869.806,290.294z M862.559,297.72c-1.188-0.029-2.176-0.09-2.814,0.337c-2.268,1.532-1.282,5.458,1.241,5.42l2.974-0.053
			l20.786-16.679c0.013-0.011,2.123,0.055,2.611-0.046c0.491-0.106,1.813-1.05,1.736-2.994c-0.06-1.933-1.87-2.675-1.87-2.675
			l-4.006,0.023L862.559,297.72z"/>
		<path fill="#FFFFFF" d="M859.488,272.684h28.636c2.365,0,4.301,1.934,4.301,4.297v28.646c0,2.35-1.936,4.292-4.301,4.292h-28.636
			c-2.364,0-4.291-1.942-4.291-4.292v-28.646C855.197,274.618,857.124,272.684,859.488,272.684L859.488,272.684z M859.488,274.11
			c-1.571,0-2.862,1.292-2.862,2.871v28.646c0,1.568,1.291,2.859,2.862,2.859h28.636c1.585,0,2.875-1.292,2.875-2.859v-28.646
			c0-1.58-1.29-2.871-2.875-2.871H859.488z"/>
	</g>
</g>
<g>
	<rect x="262.121" y="160.756" fill="#E50012" width="39.819" height="40.278"/>
	<g>
		<polygon fill-rule="evenodd" clip-rule="evenodd" fill="#FFFFFF" points="270.708,165.864 275.416,165.864 282.178,175.621 
			289.038,166.039 294.107,166.039 284.434,179.13 284.434,179.864 292.266,179.895 292.266,183.112 284.468,183.112 
			284.468,185.287 292.266,185.287 292.266,188.3 284.488,188.3 284.488,194.577 279.984,194.577 279.984,188.351 272.35,188.351 
			272.35,185.307 279.98,185.307 279.98,183.149 272.35,183.149 272.35,179.91 279.974,179.91 279.974,179.137 		"/>
		<g>
			<path fill="#FFFFFF" d="M269.146,162.988h26.515c2.183,0,3.973,1.785,3.973,3.971v26.515c0,2.19-1.79,3.976-3.973,3.976h-26.515
				c-2.186,0-3.977-1.786-3.977-3.976v-26.515C265.169,164.773,266.96,162.988,269.146,162.988L269.146,162.988z M269.146,164.309
				c-1.458,0-2.652,1.191-2.652,2.649v26.515c0,1.464,1.194,2.662,2.652,2.662h26.515c1.464,0,2.652-1.198,2.652-2.662v-26.515
				c0-1.458-1.188-2.649-2.652-2.649H269.146z"/>
			<g>
				<g>
					<polygon fill-rule="evenodd" clip-rule="evenodd" fill="#FFFFFF" points="271.93,190.004 272.346,190.004 272.346,190 
						272.336,190 272.006,189.352 272.006,189.348 271.723,189.348 271.723,189.197 272.449,189.197 272.449,189.348 
						272.27,189.348 272.596,189.962 272.644,189.962 272.997,189.348 272.809,189.348 272.809,189.197 273.529,189.197 
						273.529,189.348 273.263,189.348 273.263,189.352 272.914,189.962 272.919,189.962 272.919,190.004 273.327,190.004 
						273.327,190.145 272.919,190.145 272.919,190.369 273.327,190.369 273.327,190.525 272.919,190.525 272.919,191.38 
						273.221,191.38 273.221,191.535 272.033,191.535 272.033,191.38 272.346,191.38 272.346,190.525 271.93,190.525 
						271.93,190.369 272.346,190.369 272.346,190.145 271.93,190.145 					"/>
					<path fill-rule="evenodd" clip-rule="evenodd" fill="#FFFFFF" d="M270.344,187.441c0.189-0.421,0.606-0.318,0.733,0v0.91h0.264
						v-1.219c0.183-0.403,0.579-0.334,0.742,0v1.219h0.259v-1.502c0.166-0.394,0.562-0.394,0.74,0v1.502h0.258v-1.204
						c0.12-0.378,0.649-0.416,0.739,0v1.204h2.198v4h-1.318c-0.041,1.31-1.046,2.363-2.285,2.363c-1.242,0-2.249-1.054-2.295-2.363
						h-1.453v-4h1.418V187.441L270.344,187.441z M274.192,190.353c0.183-0.87,0.607-0.646,0.733,0v1.791h1.109v-3.565h-6.896v3.565
						h5.053V190.353z"/>
				</g>
				<path fill="#FFFFFF" d="M268.299,185.026h8.616c0.709,0,1.296,0.583,1.296,1.297v8.622c0,0.718-0.586,1.295-1.296,1.295h-8.616
					c-0.722,0-1.3-0.577-1.3-1.295v-8.622C266.999,185.609,267.577,185.026,268.299,185.026L268.299,185.026z M268.299,185.459
					c-0.48,0-0.87,0.394-0.87,0.865v8.622c0,0.481,0.39,0.876,0.87,0.876h8.616c0.481,0,0.866-0.396,0.866-0.876v-8.622
					c0-0.471-0.385-0.865-0.866-0.865H268.299z"/>
			</g>
		</g>
	</g>
</g>
<g>
	<rect x="173.518" y="439.575" fill="#E50012" stroke="#231815" stroke-width="0.25" width="43.585" height="43.584"/>
	<g>
		<g>
			<path fill-rule="evenodd" clip-rule="evenodd" fill="#FFFFFF" d="M186.011,445.146c1.097,0,1.992,0.898,1.992,2.006
				c0,1.101-0.895,2.006-1.992,2.006c-1.096,0-1.993-0.905-1.993-2.006C184.019,446.044,184.915,445.146,186.011,445.146
				L186.011,445.146z M182.69,450.302l6.224-0.078c1.722-0.141,2.376,0.777,2.434,2.134l-0.017,11.792
				c-0.281,0.891-1.61,0.843-1.86,0.044c0.002-3.407,0.005-6.666,0.008-10.072c-0.052-0.166-0.481-0.174-0.546-0.008v23.457
				c-0.123,1.106-2.237,1.372-2.442,0.044l-0.01-13.817c-0.107-0.489-0.989-0.473-1.034,0.046l0.006,13.728
				c-0.356,1.23-2.242,1.193-2.433-0.06l0.003-23.397c-0.079-0.158-0.468-0.151-0.55,0.006l0.069,10.14
				c-0.454,0.883-1.385,0.738-1.715-0.077l-0.142-11.606C180.627,451.411,181.125,450.255,182.69,450.302L182.69,450.302z
				 M202.991,447.281c1.096,0,1.99,0.898,1.99,2.005c0,1.104-0.895,2.004-1.99,2.004c-1.096,0-1.991-0.9-1.991-2.004
				C201,448.18,201.895,447.281,202.991,447.281L202.991,447.281z M200.222,452.461c0.177,0,0.727,0,0.903-0.005
				c0.764,1.229,2.78,1.333,3.455-0.18l0.812-0.012c1.712,0.188,1.894,1.325,1.944,2.569l0.038,4.088l1.749,3.091
				c0.392,0.822-1.166,1.382-1.396,0.587l-1.799-3.316l-0.019-3.158c-0.048-0.152-0.528-0.152-0.52,0.023l-0.008,2.438l-0.003,0.93
				l4.511,8.269h-4.447l0.009,10.109c-0.329,0.896-2.002,1.023-2.223-0.024l0.023-10.162l-0.581,0.006l0.004,10.173
				c-0.23,0.938-2.003,0.967-2.094,0.003l-0.009-10.2l-4.189,0.057l4.227-8.299v-1.021l-0.017-2.342
				c-0.07-0.141-0.448-0.141-0.52,0.009l-0.026,3.175l-1.566,3.262c-0.45,0.882-1.855,0.132-1.372-0.686l1.388-2.952l0.016-4.017
				C198.456,453.797,198.529,452.672,200.222,452.461z"/>
			<path fill="#FFFFFF" d="M180.641,442.844h29.287c2.417,0,4.394,1.979,4.394,4.391v29.284c0,2.416-1.977,4.398-4.394,4.398
				h-29.287c-2.415,0-4.391-1.982-4.391-4.398v-29.284C176.25,444.822,178.226,442.844,180.641,442.844L180.641,442.844z
				 M180.641,444.302c-1.61,0-2.931,1.318-2.931,2.933v29.284c0,1.614,1.32,2.934,2.931,2.934h29.287
				c1.613,0,2.932-1.319,2.932-2.934v-29.284c0-1.614-1.318-2.933-2.932-2.933H180.641z"/>
		</g>
		<rect x="193.396" y="446.026" fill="#FFFFFF" width="1.613" height="30.903"/>
	</g>
</g>
<g>
	<rect x="863.829" y="426.186" fill="#E50012" stroke="#231815" stroke-width="0.25" width="43.298" height="43.296"/>
	<g>
		<g>
			<path fill-rule="evenodd" clip-rule="evenodd" fill="#FFFFFF" d="M876.243,431.72c1.085,0,1.975,0.89,1.975,1.991
				c0,1.093-0.89,1.991-1.975,1.991c-1.094,0-1.983-0.898-1.983-1.991C874.26,432.609,875.149,431.72,876.243,431.72L876.243,431.72
				z M872.942,436.84l6.183-0.076c1.708-0.141,2.36,0.77,2.416,2.118l-0.018,11.715c-0.278,0.883-1.598,0.838-1.846,0.044
				c0.002-3.385,0.006-6.624,0.009-10.004c-0.052-0.167-0.478-0.175-0.544-0.011v23.302c-0.123,1.099-2.223,1.363-2.426,0.045
				l-0.012-13.724c-0.106-0.491-0.98-0.474-1.027,0.045l0.006,13.634c-0.354,1.225-2.225,1.188-2.417-0.063l0.006-23.239
				c-0.079-0.156-0.469-0.148-0.547,0.007l0.069,10.071c-0.45,0.876-1.378,0.733-1.705-0.075l-0.141-11.53
				C870.893,437.942,871.386,436.794,872.942,436.84L872.942,436.84z M893.108,433.842c1.09,0,1.977,0.893,1.977,1.987
				c0,1.1-0.887,1.995-1.977,1.995c-1.091,0-1.978-0.896-1.978-1.995C891.131,434.734,892.018,433.842,893.108,433.842
				L893.108,433.842z M890.357,438.984c0.173,0,0.722,0,0.896-0.004c0.759,1.221,2.763,1.326,3.432-0.179l0.807-0.012
				c1.702,0.188,1.88,1.317,1.932,2.554l0.035,4.059l1.737,3.072c0.391,0.817-1.157,1.369-1.385,0.582l-1.786-3.294l-0.022-3.135
				c-0.046-0.155-0.522-0.155-0.514,0.021l-0.009,2.419l-0.003,0.927l4.482,8.216h-4.419l0.009,10.041
				c-0.329,0.89-1.988,1.016-2.206-0.024l0.022-10.094l-0.58,0.003l0.005,10.104c-0.227,0.935-1.987,0.962-2.077,0.004
				l-0.011-10.132l-4.16,0.055l4.197-8.242v-1.014l-0.016-2.326c-0.07-0.144-0.445-0.144-0.519,0.008l-0.023,3.154l-1.557,3.239
				c-0.447,0.876-1.844,0.13-1.365-0.682l1.38-2.935l0.017-3.986C888.603,440.314,888.674,439.195,890.357,438.984z"/>
			<path fill="#FFFFFF" d="M870.907,429.43h29.092c2.399,0,4.363,1.967,4.363,4.365v29.089c0,2.401-1.964,4.367-4.363,4.367h-29.092
				c-2.4,0-4.365-1.966-4.365-4.367v-29.089C866.542,431.396,868.507,429.43,870.907,429.43L870.907,429.43z M870.907,430.882
				c-1.602,0-2.914,1.311-2.914,2.913v29.089c0,1.602,1.313,2.912,2.914,2.912h29.092c1.602,0,2.911-1.311,2.911-2.912v-29.089
				c0-1.603-1.31-2.913-2.911-2.913H870.907z"/>
		</g>
		<rect x="883.576" y="432.592" fill="#FFFFFF" width="1.603" height="30.701"/>
	</g>
</g>
<g>
	<rect x="577.111" y="284.193" fill="#E50012" width="37.861" height="38.299"/>
	<g>
		<polygon fill-rule="evenodd" clip-rule="evenodd" fill="#FFFFFF" points="585.276,289.05 589.752,289.05 596.181,298.327 
			602.707,289.213 607.526,289.213 598.33,301.664 598.33,302.362 605.776,302.39 605.776,305.448 598.361,305.448 598.361,307.517 
			605.776,307.517 605.776,310.382 598.381,310.382 598.381,316.353 594.097,316.353 594.097,310.431 586.838,310.431 
			586.838,307.536 594.093,307.536 594.093,305.484 586.838,305.484 586.838,302.404 594.088,302.404 594.088,301.67 		"/>
		<g>
			<path fill="#FFFFFF" d="M583.79,286.315h25.214c2.074,0,3.778,1.696,3.778,3.773v25.214c0,2.081-1.704,3.779-3.778,3.779H583.79
				c-2.076,0-3.78-1.698-3.78-3.779v-25.214C580.01,288.011,581.714,286.315,583.79,286.315L583.79,286.315z M583.79,287.57
				c-1.386,0-2.521,1.134-2.521,2.519v25.214c0,1.39,1.135,2.529,2.521,2.529h25.214c1.392,0,2.521-1.139,2.521-2.529v-25.214
				c0-1.385-1.13-2.519-2.521-2.519H583.79z"/>
			<g>
				<g>
					<polygon fill-rule="evenodd" clip-rule="evenodd" fill="#FFFFFF" points="586.437,312.002 586.835,312.002 586.835,311.999 
						586.824,311.999 586.51,311.383 586.51,311.378 586.24,311.378 586.24,311.236 586.93,311.236 586.93,311.378 586.762,311.378 
						587.07,311.962 587.118,311.962 587.453,311.378 587.272,311.378 587.272,311.236 587.962,311.236 587.962,311.378 
						587.707,311.378 587.707,311.383 587.371,311.962 587.378,311.962 587.378,312.002 587.768,312.002 587.768,312.138 
						587.378,312.138 587.378,312.352 587.768,312.352 587.768,312.499 587.378,312.499 587.378,313.311 587.666,313.311 
						587.666,313.459 586.538,313.459 586.538,313.311 586.835,313.311 586.835,312.499 586.437,312.499 586.437,312.352 
						586.835,312.352 586.835,312.138 586.437,312.138 					"/>
					<path fill-rule="evenodd" clip-rule="evenodd" fill="#FFFFFF" d="M584.932,309.566c0.178-0.399,0.574-0.306,0.695,0v0.865
						h0.251v-1.159c0.176-0.384,0.548-0.317,0.706,0v1.159h0.247v-1.427c0.158-0.378,0.531-0.378,0.702,0v1.427h0.246v-1.145
						c0.115-0.358,0.616-0.395,0.703,0v1.145h2.089v3.804h-1.252c-0.038,1.244-0.998,2.248-2.174,2.248
						c-1.179,0-2.139-1.003-2.182-2.248h-1.381v-3.804h1.349V309.566L584.932,309.566z M588.589,312.334
						c0.175-0.827,0.58-0.614,0.699,0v1.704h1.054v-3.392h-6.558v3.392h4.805V312.334z"/>
				</g>
				<path fill="#FFFFFF" d="M582.987,307.271h8.189c0.677,0,1.235,0.553,1.235,1.231v8.199c0,0.683-0.559,1.232-1.235,1.232h-8.189
					c-0.687,0-1.237-0.549-1.237-1.232v-8.199C581.75,307.824,582.301,307.271,582.987,307.271L582.987,307.271z M582.987,307.681
					c-0.458,0-0.828,0.375-0.828,0.821v8.199c0,0.458,0.37,0.836,0.828,0.836h8.189c0.461,0,0.827-0.378,0.827-0.836v-8.199
					c0-0.446-0.366-0.821-0.827-0.821H582.987z"/>
			</g>
		</g>
	</g>
</g>
<g>
	<rect x="246.515" y="300.16" fill="#E50012" width="43.053" height="43.053"/>
	<g>
		<path fill-rule="evenodd" clip-rule="evenodd" fill="#FFFFFF" d="M266.055,308.582c1.002,0,1.822,0.813,1.822,1.819
			c0,1.002-0.819,1.815-1.822,1.815c-1.005,0-1.83-0.813-1.83-1.815C264.225,309.396,265.049,308.582,266.055,308.582
			L266.055,308.582z M264.128,320.704l-7.417,5.931c0,0-1.131-0.146-2.299,0.286c-0.699,0.253-1.403,0.758-1.875,1.479
			c-1.433,2.179-0.509,5.839,2.307,6.308c0.949,0.157,3.993,0.022,3.993,0.022l20.3-16.112l1.915,0.012c0,0,2.377-0.546,2.902-2.581
			c0.521-2.022,0.066-3.614-0.819-4.475c-0.881-0.891-1.941-1.182-1.941-1.182h-4.435l-8.894,7.214l-0.069-3.175
			c0,0,0-1.636-1.621-1.668c-1.618-0.038-1.993,1.122-1.993,1.602C264.183,314.829,264.128,320.704,264.128,320.704L264.128,320.704
			z M257.076,327.93c-1.157-0.025-2.119-0.086-2.739,0.331c-2.206,1.489-1.25,5.312,1.207,5.272l2.895-0.049l20.226-16.233
			c0.016-0.011,2.066,0.055,2.542-0.045c0.481-0.103,1.764-1.021,1.691-2.911c-0.06-1.88-1.823-2.602-1.823-2.602l-3.897,0.021
			L257.076,327.93z"/>
		<path fill="#FFFFFF" d="M254.088,303.57h27.863c2.304,0,4.187,1.882,4.187,4.181v27.875c0,2.287-1.883,4.178-4.187,4.178h-27.863
			c-2.302,0-4.178-1.891-4.178-4.178v-27.875C249.911,305.452,251.786,303.57,254.088,303.57L254.088,303.57z M254.088,304.958
			c-1.531,0-2.787,1.255-2.787,2.793v27.875c0,1.525,1.256,2.783,2.787,2.783h27.863c1.543,0,2.797-1.258,2.797-2.783v-27.875
			c0-1.538-1.254-2.793-2.797-2.793H254.088z"/>
	</g>
</g>
</svg>
