<?xml version="1.0" encoding="utf-8"?>
<!-- Generator: Adobe Illustrator 15.0.0, SVG Export Plug-In . SVG Version: 6.00 Build 0)  -->
<!DOCTYPE svg PUBLIC "-//W3C//DTD SVG 1.1//EN" "http://www.w3.org/Graphics/SVG/1.1/DTD/svg11.dtd">
<svg version="1.1" id="背景" xmlns="http://www.w3.org/2000/svg" xmlns:xlink="http://www.w3.org/1999/xlink" x="0px" y="0px"
	 width="841.89px" height="595.28px" viewBox="0 0 841.89 595.28" enable-background="new 0 0 841.89 595.28" xml:space="preserve">
<path display="none" fill="#B5B5B6" d="M786.945,508.686c0,6.801-5.373,12.314-12,12.314h-696c-6.627,0-12-5.514-12-12.314V63.314
	c0-6.801,5.373-12.314,12-12.314h696c6.627,0,12,5.513,12,12.314V508.686z"/>
<path fill="#B5B5B6" d="M801.243,517.53c0,7.07-5.586,12.804-12.477,12.804H65.123c-6.89,0-12.476-5.733-12.476-12.804V54.47
	c0-7.072,5.586-12.804,12.476-12.804h723.644c6.891,0,12.477,5.732,12.477,12.804V517.53z"/>
<path fill="#F5E663" d="M401.333,236.937L232.667,51H78.945c-6.627,0-12,5.513-12,12.314V164.01L382,261L401.333,236.937z"/>
<polygon fill="#8FC31F" points="389.333,272.254 66.945,175.667 66.945,333 401.333,304.333 "/>
<path fill="#F1BB87" d="M786.945,152.263V63.314c0-6.801-5.373-12.314-12-12.314H252.411L430.5,253.333L786.945,152.263z"/>
<polygon fill="#999999" points="435.334,254.333 786.945,156 786.945,152.263 430.5,253.333 252.411,51 232.667,51 401.333,236.937 
	382,261 66.945,164.01 66.945,175.667 389.333,272.254 401.333,304.333 66.945,333 66.945,341 411,321.667 575.334,521 596.469,521 
	420.945,289 "/>
<path fill="#FBD8BE" d="M786.945,508.686V156l-351.611,98.333L420.945,289l175.524,232h178.477
	C781.572,521,786.945,515.486,786.945,508.686z"/>
<path fill="#77C397" d="M66.945,341v167.686c0,6.801,5.373,12.314,12,12.314h79.805h416.584L411,321.667L66.945,341z"/>
<circle fill="#C9CACA" cx="409.5" cy="264.14" r="35.5"/>
<polygon fill="#C9CACA" points="424.036,247.503 786.945,136 786.945,163 437.877,265.026 "/>
<polygon fill="#C9CACA" points="396.95,236.937 224,51 251,51 411,229.64 "/>
<polygon fill="#C9CACA" points="377.123,249.026 66.945,153 66.945,189 375.123,272.254 "/>
<path fill="#C9CACA" d="M390,291.64c0,0-6,13.36-45,15.36S66.945,325,66.945,325v23c0,0,243.011-16.929,283.055-16
	c43.894,1.018,47.884-1.39,64,17c26,29.667,148,172,148,172h46L421.945,291.64H390z"/>
<path fill="#8FC31F" d="M66.945,181"/>
<g>
	<polygon fill="#FFFFFF" stroke="#000000" stroke-miterlimit="10" points="400.068,283.962 389.135,265.026 400.068,246.09 
		421.932,246.09 432.864,265.026 421.932,283.962 	"/>
	<line fill="none" stroke="#000000" stroke-miterlimit="10" x1="400.068" y1="246.09" x2="421.932" y2="283.962"/>
	<line fill="none" stroke="#000000" stroke-miterlimit="10" x1="421.932" y1="246.09" x2="400.068" y2="283.962"/>
	<line fill="none" stroke="#000000" stroke-miterlimit="10" x1="389.135" y1="265.026" x2="432.864" y2="265.026"/>
</g>
<polygon fill="#C9CACA" points="399.5,51 399.5,222.5 405.333,222.5 406,51 "/>
<polygon fill="#C9CACA" points="596.5,51 590.499,199.123 597.558,194.189 603.945,51 "/>
<polygon fill="#C9CACA" points="334.645,144.156 730.42,156 713.05,161.249 343.762,152.167 "/>
<polygon fill="#C9CACA" points="628.334,208.025 631.18,521 642.305,521 639.305,205.057 "/>
<polygon fill="#C9CACA" points="787.319,263.729 446.276,260.571 439.93,268.544 787.18,273.729 "/>
<polygon fill="#C9CACA" points="514,409.198 622.345,269.75 631.833,270.75 521.756,414.449 "/>
<path display="none" fill="#C9CACA" d="M545.344,499.328l12.87,14.338l-13.226,0.146l-369.226,5.197
	c0,0-109.49-13.758-109.49-39.254c0-19.552,0-16.033,0-16.033s7.628,8.804,30.189,21.772s64.2,17.92,84.498,19.691
	c40.888,3.568,356.616-6.32,356.616-6.32"/>
<rect x="164.752" y="388.568" fill="#C9CACA" width="107.142" height="6.33"/>
<polygon fill="#C9CACA" points="234.407,228.608 190.708,318.188 199.707,322.922 245.359,232.708 "/>
<polygon fill="#C9CACA" points="135.535,204.305 131.836,321.885 141.834,323.619 145.487,208.405 "/>
<polygon fill="#C9CACA" points="277.817,93.914 179.593,188.414 185.236,197.011 284.917,102.178 "/>
<polyline fill="#C9CACA" points="166.9,521.21 167.256,341.182 157.75,341.182 157.75,521.21 "/>
<polyline fill="#C9CACA" points="274.521,521.21 274.877,333 265.371,333 265.371,521.21 "/>
</svg>
