<?xml version="1.0" encoding="utf-8"?>
<!-- Generator: Adobe Illustrator 15.0.0, SVG Export Plug-In . SVG Version: 6.00 Build 0)  -->
<!DOCTYPE svg PUBLIC "-//W3C//DTD SVG 1.1//EN" "http://www.w3.org/Graphics/SVG/1.1/DTD/svg11.dtd">
<svg version="1.1" id="文字" xmlns="http://www.w3.org/2000/svg" xmlns:xlink="http://www.w3.org/1999/xlink" x="0px" y="0px"
	 width="841.89px" height="595.28px" viewBox="0 0 841.89 595.28" enable-background="new 0 0 841.89 595.28" xml:space="preserve">
<g id="block_x5F_餐饮区">
	<text transform="matrix(1 0 0 1 431.9453 131.75)" fill="#FFFFFF" font-family="'MicrosoftYaHei'" font-size="48">餐饮区</text>
	<text transform="matrix(1 0 0 1 430.9453 130.75)" font-family="'MicrosoftYaHei'" font-size="48">餐饮区</text>
</g>
<g>
	<text transform="matrix(1 0 0 1 92 126)" fill="#FFFFFF" font-family="'MicrosoftYaHei'" font-size="48">商业区</text>
</g>
<g id="block_x5F_商业区">
	<text transform="matrix(1 0 0 1 90 124)" font-family="'MicrosoftYaHei'" font-size="48">商业区</text>
</g>
<g id="block_x5F_珠宝区">
	<text transform="matrix(1 0 0 1 546 324)" fill="#FFFFFF" font-family="'MicrosoftYaHei'" font-size="48">珠宝区</text>
	<text transform="matrix(1 0 0 1 544 322)" font-family="'MicrosoftYaHei'" font-size="48">珠宝区</text>
</g>
<g id="block_x5F_服装区">
	<text transform="matrix(1 0 0 1 189.7085 448)" fill="#FFFFFF" font-family="'MicrosoftYaHei'" font-size="48">服装区</text>
	<text transform="matrix(1 0 0 1 187.7085 446)" font-family="'MicrosoftYaHei'" font-size="48">服装区</text>
</g>
<g id="block_x5F_母婴区">
	<text transform="matrix(1 0 0 1 106 284)" fill="#FFFFFF" font-family="'MicrosoftYaHei'" font-size="48">母婴区</text>
	<text transform="matrix(1 0 0 1 104 282)" font-family="'MicrosoftYaHei'" font-size="48">母婴区</text>
</g>
</svg>
